<?xml version="1.0" encoding="UTF-8" standalone="no"?>
<svg
   xmlns:dc="http://purl.org/dc/elements/1.1/"
   xmlns:cc="http://creativecommons.org/ns#"
   xmlns:rdf="http://www.w3.org/1999/02/22-rdf-syntax-ns#"
   xmlns:svg="http://www.w3.org/2000/svg"
   xmlns="http://www.w3.org/2000/svg"
   xmlns:sodipodi="http://sodipodi.sourceforge.net/DTD/sodipodi-0.dtd"
   xmlns:inkscape="http://www.inkscape.org/namespaces/inkscape"
   height="16"
   width="16"
   version="1.1"
   id="svg6"
   sodipodi:docname="appointment-missed-symbolic.svg"
   inkscape:version="0.92.3 (2405546, 2018-03-11)">
  <metadata
     id="metadata12">
    <rdf:RDF>
      <cc:Work
         rdf:about="">
        <dc:format>image/svg+xml</dc:format>
        <dc:type
           rdf:resource="http://purl.org/dc/dcmitype/StillImage" />
        <dc:title></dc:title>
      </cc:Work>
    </rdf:RDF>
  </metadata>
  <defs
     id="defs10">
    <filter
       style="color-interpolation-filters:sRGB"
       inkscape:label="Drop Shadow"
       id="filter1128">
      <feFlood
         flood-opacity="0.498039"
         flood-color="rgb(0,0,0)"
         result="flood"
         id="feFlood1118" />
      <feComposite
         in="flood"
         in2="SourceGraphic"
         operator="in"
         result="composite1"
         id="feComposite1120" />
      <feGaussianBlur
         in="composite1"
         stdDeviation="5"
         result="blur"
         id="feGaussianBlur1122" />
      <feOffset
         dx="0"
         dy="0"
         result="offset"
         id="feOffset1124" />
      <feComposite
         in="SourceGraphic"
         in2="offset"
         operator="over"
         result="composite2"
         id="feComposite1126" />
    </filter>
    <clipPath
       clipPathUnits="userSpaceOnUse"
       id="clipPath1158">
      <circle
         style="display:inline;fill:#ffe680;fill-opacity:1;stroke:none;stroke-width:2.74049902;stroke-miterlimit:4;stroke-dasharray:none;stroke-opacity:1"
         id="circle1160"
         cx="124"
         cy="128"
         r="124" />
    </clipPath>
    <filter
       style="color-interpolation-filters:sRGB"
       inkscape:label="Drop Shadow"
       id="filter1128-3">
      <feFlood
         flood-opacity="0.498039"
         flood-color="rgb(0,0,0)"
         result="flood"
         id="feFlood1118-6" />
      <feComposite
         in="flood"
         in2="SourceGraphic"
         operator="in"
         result="composite1"
         id="feComposite1120-7" />
      <feGaussianBlur
         in="composite1"
         stdDeviation="5"
         result="blur"
         id="feGaussianBlur1122-5" />
      <feOffset
         dx="0"
         dy="0"
         result="offset"
         id="feOffset1124-3" />
      <feComposite
         in="SourceGraphic"
         in2="offset"
         operator="over"
         result="composite2"
         id="feComposite1126-5" />
    </filter>
  </defs>
  <sodipodi:namedview
     pagecolor="#ffffff"
     bordercolor="#666666"
     borderopacity="1"
     objecttolerance="10"
     gridtolerance="10"
     guidetolerance="10"
     inkscape:pageopacity="0"
     inkscape:pageshadow="2"
     inkscape:window-width="1920"
     inkscape:window-height="1539"
     id="namedview8"
     showgrid="false"
     inkscape:zoom="41.7193"
     inkscape:cx="13.613619"
     inkscape:cy="7.7029456"
     inkscape:window-x="1920"
     inkscape:window-y="27"
     inkscape:window-maximized="0"
     inkscape:current-layer="svg6" />
  <path
     style="display:inline;fill:#808080;fill-opacity:1;stroke:none;stroke-width:0.17680639;stroke-miterlimit:4;stroke-dasharray:none;stroke-opacity:1"
     d="M 8 0 A 8 8 0 0 0 0 8 A 8 8 0 0 0 8 16 A 8 8 0 0 0 16 8 A 8 8 0 0 0 8 0 z M 7.421875 4 L 8.578125 4 L 8.578125 4.5214844 C 8.578125 6.3446523 8.4798934 8.0018801 8.2832031 9.4921875 L 7.7167969 9.4921875 C 7.5201066 8.0018801 7.421875 6.3446523 7.421875 4.5214844 L 7.421875 4 z M 8 10.603516 C 8.2042553 10.603516 8.3713948 10.672424 8.5 10.808594 C 8.6361702 10.944764 8.703125 11.111903 8.703125 11.308594 C 8.703125 11.505284 8.6361702 11.67047 8.5 11.806641 C 8.3713948 11.935246 8.2042553 12 8 12 C 7.7957447 12 7.6264046 11.935246 7.4902344 11.806641 C 7.3616292 11.67047 7.296875 11.505284 7.296875 11.308594 C 7.296875 11.111903 7.3616292 10.944764 7.4902344 10.808594 C 7.6264046 10.672424 7.7957447 10.603516 8 10.603516 z "
     id="path1090" />
  <path
     style="display:inline;opacity:1;fill:#000000;fill-opacity:0.38075316;stroke:none;stroke-width:0.17680639;stroke-miterlimit:4;stroke-dasharray:none;stroke-opacity:1"
     d="M 0 8 A 8.0000001 8.0000001 0 0 0 8 16 A 8.0000001 8.0000001 0 0 0 16 8 L 8.4238281 8 C 8.3812987 8.5045517 8.3454008 9.0209205 8.2832031 9.4921875 L 7.7167969 9.4921875 C 7.6545992 9.0209205 7.6187013 8.5045517 7.5761719 8 L 0 8 z M 8 10.603516 C 8.2042553 10.603516 8.3713948 10.672424 8.5 10.808594 C 8.6361702 10.944764 8.703125 11.111903 8.703125 11.308594 C 8.703125 11.505284 8.6361702 11.67047 8.5 11.806641 C 8.3713948 11.935246 8.2042553 12 8 12 C 7.7957447 12 7.6264046 11.935246 7.4902344 11.806641 C 7.3616292 11.67047 7.296875 11.505284 7.296875 11.308594 C 7.296875 11.111903 7.3616292 10.944764 7.4902344 10.808594 C 7.6264046 10.672424 7.7957447 10.603516 8 10.603516 z "
     id="path1090-3-6" />
  <path
     style="opacity:0.95999995;fill:#ffffff;fill-opacity:1;stroke:none;stroke-width:0.31922808;stroke-linecap:butt;stroke-linejoin:bevel;stroke-miterlimit:4;stroke-dasharray:none;stroke-opacity:1;paint-order:fill markers stroke"
     d="M 0,94.765625 V 161.23438 H 10 V 94.765625 Z m 238,0 v 66.468755 h 10 V 94.765625 Z"
     id="rect1139"
     inkscape:connector-curvature="0"
     clip-path="url(#clipPath1158)"
     transform="matrix(0.06451613,0,0,0.06451613,-1.2e-7,-0.2580648)" />
</svg>
