<?xml version="1.0" encoding="UTF-8" standalone="no"?>
<svg
   xmlns:dc="http://purl.org/dc/elements/1.1/"
   xmlns:cc="http://creativecommons.org/ns#"
   xmlns:rdf="http://www.w3.org/1999/02/22-rdf-syntax-ns#"
   xmlns:svg="http://www.w3.org/2000/svg"
   xmlns="http://www.w3.org/2000/svg"
   xmlns:sodipodi="http://sodipodi.sourceforge.net/DTD/sodipodi-0.dtd"
   xmlns:inkscape="http://www.inkscape.org/namespaces/inkscape"
   height="16"
   width="16"
   version="1.1"
   id="svg4"
   sodipodi:docname="changes-prevent-symbolic.svg"
   inkscape:version="0.92.3 (2405546, 2018-03-11)">
  <metadata
     id="metadata10">
    <rdf:RDF>
      <cc:Work
         rdf:about="">
        <dc:format>image/svg+xml</dc:format>
        <dc:type
           rdf:resource="http://purl.org/dc/dcmitype/StillImage" />
        <dc:title />
      </cc:Work>
    </rdf:RDF>
  </metadata>
  <defs
     id="defs8">
    <clipPath
       clipPathUnits="userSpaceOnUse"
       id="clipPath1127">
      <rect
         style="fill:#4d4d4d;fill-opacity:1;stroke:none;stroke-width:1.00162208;stroke-miterlimit:10;stroke-dasharray:none;stroke-opacity:1"
         id="rect1129"
         width="113.66741"
         height="54.624001"
         x="-328.80466"
         y="121.6497" />
    </clipPath>
  </defs>
  <sodipodi:namedview
     pagecolor="#ffffff"
     bordercolor="#666666"
     borderopacity="1"
     objecttolerance="10"
     gridtolerance="10"
     guidetolerance="10"
     inkscape:pageopacity="0"
     inkscape:pageshadow="2"
     inkscape:window-width="1920"
     inkscape:window-height="1474"
     id="namedview6"
     showgrid="false"
     inkscape:zoom="45.254834"
     inkscape:cx="-2.3483003"
     inkscape:cy="8.8568055"
     inkscape:window-x="0"
     inkscape:window-y="27"
     inkscape:window-maximized="0"
     inkscape:current-layer="svg4" />
  <path
     style="display:inline;fill:none;stroke:#808080;stroke-width:11.85185337;stroke-linecap:butt;stroke-linejoin:miter;stroke-miterlimit:10;stroke-opacity:1"
     inkscape:connector-curvature="0"
     id="path6"
     stroke-miterlimit="10"
     d="m -224.09259,174.83332 a 47.407414,47.407414 0 0 0 -94.81482,0 47.419266,47.419266 0 0 0 29.62963,43.93483 v 44.95408 h 35.55556 v -44.95408 a 47.419266,47.419266 0 0 0 29.62963,-43.93483 z"
     clip-path="url(#clipPath1127)"
     transform="matrix(0.07585544,0,0,0.07834366,28.696118,-9.5380206)" />
  <path
     style="fill:#808080;fill-opacity:1;stroke:none;stroke-width:0.05886053;stroke-miterlimit:10;stroke-dasharray:none;stroke-opacity:1"
     d="M 3 6.5078125 L 3 16.007812 L 13 16.007812 L 13 6.5078125 L 3 6.5078125 z M 8 8.3652344 A 1.148844 1.1013408 0 0 1 9.1484375 9.4667969 A 1.148844 1.1013408 0 0 1 8.6074219 10.402344 L 9.4355469 13.599609 L 6.5644531 13.599609 L 7.3925781 10.398438 A 1.148844 1.1013408 0 0 1 6.8515625 9.4667969 A 1.148844 1.1013408 0 0 1 8 8.3652344 z "
     id="rect1093" />
  <rect
     style="opacity:1;fill:#808080;fill-opacity:1;stroke:none;stroke-width:0.54914165;stroke-miterlimit:4;stroke-dasharray:none;stroke-opacity:1"
     id="rect871"
     width="0.8979795"
     height="4.3833432"
     x="4.0577683"
     y="4.1210513"
     ry="0" />
  <rect
     ry="0"
     y="4.1210513"
     x="11.24901"
     height="4.3833432"
     width="0.8979795"
     id="rect860"
     style="opacity:1;fill:#808080;fill-opacity:1;stroke:none;stroke-width:0.54914165;stroke-miterlimit:4;stroke-dasharray:none;stroke-opacity:1" />
</svg>
