<?xml version="1.0" encoding="UTF-8" standalone="no"?>
<svg
   xmlns:dc="http://purl.org/dc/elements/1.1/"
   xmlns:cc="http://creativecommons.org/ns#"
   xmlns:rdf="http://www.w3.org/1999/02/22-rdf-syntax-ns#"
   xmlns:svg="http://www.w3.org/2000/svg"
   xmlns="http://www.w3.org/2000/svg"
   xmlns:sodipodi="http://sodipodi.sourceforge.net/DTD/sodipodi-0.dtd"
   xmlns:inkscape="http://www.inkscape.org/namespaces/inkscape"
   height="16"
   width="16"
   version="1.1"
   id="svg6"
   sodipodi:docname="channel-insecure-symbolic.svg"
   inkscape:version="0.92.3 (2405546, 2018-03-11)">
  <metadata
     id="metadata12">
    <rdf:RDF>
      <cc:Work
         rdf:about="">
        <dc:format>image/svg+xml</dc:format>
        <dc:type
           rdf:resource="http://purl.org/dc/dcmitype/StillImage" />
        <dc:title />
      </cc:Work>
    </rdf:RDF>
  </metadata>
  <defs
     id="defs10">
    <clipPath
       clipPathUnits="userSpaceOnUse"
       id="clipPath1127">
      <rect
         style="fill:#4d4d4d;fill-opacity:1;stroke:none;stroke-width:1.00162208;stroke-miterlimit:10;stroke-dasharray:none;stroke-opacity:1"
         id="rect1129"
         width="113.66741"
         height="54.624001"
         x="-328.80466"
         y="121.6497" />
    </clipPath>
    <filter
       style="color-interpolation-filters:sRGB"
       inkscape:label="Drop Shadow"
       id="filter1128">
      <feFlood
         flood-opacity="0.498039"
         flood-color="rgb(0,0,0)"
         result="flood"
         id="feFlood1118" />
      <feComposite
         in="flood"
         in2="SourceGraphic"
         operator="in"
         result="composite1"
         id="feComposite1120" />
      <feGaussianBlur
         in="composite1"
         stdDeviation="5"
         result="blur"
         id="feGaussianBlur1122" />
      <feOffset
         dx="0"
         dy="0"
         result="offset"
         id="feOffset1124" />
      <feComposite
         in="SourceGraphic"
         in2="offset"
         operator="over"
         result="composite2"
         id="feComposite1126" />
    </filter>
  </defs>
  <sodipodi:namedview
     pagecolor="#ffffff"
     bordercolor="#666666"
     borderopacity="1"
     objecttolerance="10"
     gridtolerance="10"
     guidetolerance="10"
     inkscape:pageopacity="0"
     inkscape:pageshadow="2"
     inkscape:window-width="1920"
     inkscape:window-height="1539"
     id="namedview8"
     showgrid="false"
     inkscape:zoom="41.7193"
     inkscape:cx="5.8279889"
     inkscape:cy="-1.8870023"
     inkscape:window-x="0"
     inkscape:window-y="27"
     inkscape:window-maximized="0"
     inkscape:current-layer="svg6" />
  <path
     style="display:inline;fill:none;stroke:#808080;stroke-width:11.85185337;stroke-linecap:butt;stroke-linejoin:miter;stroke-miterlimit:10;stroke-opacity:1"
     inkscape:connector-curvature="0"
     id="path6"
     stroke-miterlimit="10"
     d="m -224.09259,174.83332 a 47.407414,47.407414 0 0 0 -94.81482,0 47.419266,47.419266 0 0 0 29.62963,43.93483 v 44.95408 h 35.55556 v -44.95408 a 47.419266,47.419266 0 0 0 29.62963,-43.93483 z"
     clip-path="url(#clipPath1127)"
     transform="matrix(0.07585544,0,0,0.07834366,28.696118,-9.5455576)" />
  <path
     style="fill:#808080;fill-opacity:1;stroke:none;stroke-width:0.05886053;stroke-miterlimit:10;stroke-dasharray:none;stroke-opacity:1"
     d="M 3 6.5 L 3 16 L 13 16 L 13 6.5 L 3 6.5 z M 7.5664062 8.25 L 8.4335938 8.25 L 8.4335938 8.640625 C 8.4335938 10.008001 8.3604084 11.25141 8.2128906 12.369141 L 7.7871094 12.369141 C 7.6395916 11.25141 7.5664063 10.008001 7.5664062 8.640625 L 7.5664062 8.25 z M 8 13.203125 C 8.1531915 13.203125 8.2785461 13.253341 8.375 13.355469 C 8.4771277 13.457596 8.5273437 13.582951 8.5273438 13.730469 C 8.5273438 13.877986 8.4771277 14.003341 8.375 14.105469 C 8.2785461 14.201923 8.1531915 14.25 8 14.25 C 7.8468085 14.25 7.7193152 14.201923 7.6171875 14.105469 C 7.5207336 14.003341 7.4726562 13.877986 7.4726562 13.730469 C 7.4726562 13.582951 7.5207336 13.457596 7.6171875 13.355469 C 7.7193152 13.253341 7.8468085 13.203125 8 13.203125 z "
     id="rect1093" />
  <rect
     style="opacity:1;fill:#808080;fill-opacity:1;stroke:none;stroke-width:0.54914165;stroke-miterlimit:4;stroke-dasharray:none;stroke-opacity:1"
     id="rect871"
     width="0.8979795"
     height="4.3833432"
     x="4.0577683"
     y="4.1135144"
     ry="0" />
  <rect
     ry="0"
     y="4.1135144"
     x="11.24901"
     height="4.3833432"
     width="0.8979795"
     id="rect860"
     style="opacity:1;fill:#808080;fill-opacity:1;stroke:none;stroke-width:0.54914165;stroke-miterlimit:4;stroke-dasharray:none;stroke-opacity:1" />
</svg>
