<?xml version="1.0" encoding="UTF-8" standalone="no"?>
<svg
   xmlns:dc="http://purl.org/dc/elements/1.1/"
   xmlns:cc="http://creativecommons.org/ns#"
   xmlns:rdf="http://www.w3.org/1999/02/22-rdf-syntax-ns#"
   xmlns:svg="http://www.w3.org/2000/svg"
   xmlns="http://www.w3.org/2000/svg"
   xmlns:sodipodi="http://sodipodi.sourceforge.net/DTD/sodipodi-0.dtd"
   xmlns:inkscape="http://www.inkscape.org/namespaces/inkscape"
   height="16"
   width="16"
   version="1.1"
   id="svg4"
   sodipodi:docname="mail-unread-symbolic.svg"
   inkscape:version="0.92.3 (2405546, 2018-03-11)">
  <metadata
     id="metadata10">
    <rdf:RDF>
      <cc:Work
         rdf:about="">
        <dc:format>image/svg+xml</dc:format>
        <dc:type
           rdf:resource="http://purl.org/dc/dcmitype/StillImage" />
        <dc:title></dc:title>
      </cc:Work>
    </rdf:RDF>
  </metadata>
  <defs
     id="defs8">
    <clipPath
       clipPathUnits="userSpaceOnUse"
       id="clipPath1859">
      <path
         style="display:inline;fill:#003059;fill-opacity:1;stroke:none;stroke-width:2.09764671;enable-background:new"
         d="m -362.50001,302.74794 c -28.41064,0 -34.09343,5.45286 -39.77555,10.89585 l -52.4837,50.2673 c 0.54492,0.22303 1.16695,0.36625 1.8281,0.36625 h 180.86232 c 0.66115,0 1.28314,-0.14333 1.82812,-0.36625 l -52.48372,-50.2673 c -5.68214,-5.44299 -11.36487,-10.89585 -39.77557,-10.89585 z"
         id="path1861"
         inkscape:connector-curvature="0" />
    </clipPath>
    <clipPath
       clipPathUnits="userSpaceOnUse"
       id="clipPath1863">
      <path
         style="display:inline;fill:#003059;fill-opacity:1;stroke:none;stroke-width:2.09764671;enable-background:new"
         d="m -578.12602,211.70049 -80.72932,-67.09133 c 0.55433,-0.23537 1.18712,-0.3865 1.85972,-0.3865 h 183.99131 c 0.67255,0 1.30536,0.15115 1.85969,0.3865 l -79.22449,67.09133 c -8.27458,6.96682 -20.77949,6.55501 -27.75691,0 z"
         id="path1865"
         inkscape:connector-curvature="0" />
    </clipPath>
  </defs>
  <sodipodi:namedview
     pagecolor="#ffffff"
     bordercolor="#666666"
     borderopacity="1"
     objecttolerance="10"
     gridtolerance="10"
     guidetolerance="10"
     inkscape:pageopacity="0"
     inkscape:pageshadow="2"
     inkscape:window-width="1920"
     inkscape:window-height="1474"
     id="namedview6"
     showgrid="false"
     inkscape:zoom="41.7193"
     inkscape:cx="8.7239299"
     inkscape:cy="5.5196664"
     inkscape:window-x="1920"
     inkscape:window-y="27"
     inkscape:window-maximized="0"
     inkscape:current-layer="svg4" />
  <path
     style="fill:#808080;fill-opacity:1;stroke:none;stroke-width:0.1520531;stroke-miterlimit:4;stroke-dasharray:none;stroke-opacity:1;opacity:0.8"
     d="M 1.251758,2.2222658 C 0.558233,2.2222668 1e-6,2.7804976 0,3.4740236 v 1.3333986 7.7185548 c 0,0.693525 0.558232,1.251757 1.251758,1.251757 h 8.08164 5.414844 C 15.441768,13.777734 16,13.219502 16,12.525977 V 11.192578 3.4740236 C 16,2.7804986 15.441768,2.2222658 14.748242,2.2222658 h -8.08164 z"
     id="rect1188-3"
     inkscape:connector-curvature="0" />
  <path
     style="display:inline;fill:#000000;fill-opacity:0.38039216;stroke:none;stroke-width:1.52053106;stroke-miterlimit:4;stroke-dasharray:none;stroke-opacity:1;opacity:0.8"
     d="m -429.98241,248.72266 c -6.93525,1e-5 -12.51757,5.58232 -12.51758,12.51758 v 13.33398 77.18555 c 0,6.93525 5.58232,12.51757 12.51758,12.51757 h 80.8164 54.14844 c 6.93526,0 12.51758,-5.58232 12.51758,-12.51757 v -13.33399 -77.18554 c 0,-6.93525 -5.58232,-12.51758 -12.51758,-12.51758 h -80.8164 z"
     id="rect1188-3-1"
     inkscape:connector-curvature="0"
     clip-path="url(#clipPath1859)"
     transform="matrix(0.1,0,0,0.1,44.249999,-22.65)" />
  <path
     style="display:inline;fill:#808080;fill-opacity:1;stroke:none;stroke-width:1.52053106;stroke-miterlimit:4;stroke-dasharray:none;stroke-opacity:1"
     d="m -632.4824,144.22266 c -6.93525,1e-5 -12.51757,5.58232 -12.51758,12.51758 v 13.33398 77.18555 c 0,6.93525 5.58232,12.51757 12.51758,12.51757 h 80.8164 54.14844 c 6.93526,0 12.51758,-5.58232 12.51758,-12.51757 v -13.33399 -77.18554 c 0,-6.93525 -5.58232,-12.51758 -12.51758,-12.51758 h -80.8164 z"
     id="rect1188-3-1-2"
     inkscape:connector-curvature="0"
     clip-path="url(#clipPath1863)"
     transform="matrix(0.1,0,0,0.1,64.499998,-12.2)" />
</svg>
