<?xml version="1.0" encoding="UTF-8" standalone="no"?>
<svg
   xmlns:dc="http://purl.org/dc/elements/1.1/"
   xmlns:cc="http://creativecommons.org/ns#"
   xmlns:rdf="http://www.w3.org/1999/02/22-rdf-syntax-ns#"
   xmlns:svg="http://www.w3.org/2000/svg"
   xmlns="http://www.w3.org/2000/svg"
   xmlns:sodipodi="http://sodipodi.sourceforge.net/DTD/sodipodi-0.dtd"
   xmlns:inkscape="http://www.inkscape.org/namespaces/inkscape"
   height="16"
   width="16"
   version="1.1"
   id="svg4"
   sodipodi:docname="mail-attachment-symbolic.svg"
   inkscape:version="0.92.3 (2405546, 2018-03-11)">
  <metadata
     id="metadata10">
    <rdf:RDF>
      <cc:Work
         rdf:about="">
        <dc:format>image/svg+xml</dc:format>
        <dc:type
           rdf:resource="http://purl.org/dc/dcmitype/StillImage" />
        <dc:title></dc:title>
      </cc:Work>
    </rdf:RDF>
  </metadata>
  <defs
     id="defs8">
    <clipPath
       clipPathUnits="userSpaceOnUse"
       id="clipPath1127">
      <rect
         style="fill:#4d4d4d;fill-opacity:1;stroke:none;stroke-width:1.00162208;stroke-miterlimit:10;stroke-dasharray:none;stroke-opacity:1"
         id="rect1129"
         width="113.66741"
         height="54.624001"
         x="-328.80466"
         y="121.6497" />
    </clipPath>
    <clipPath
       clipPathUnits="userSpaceOnUse"
       id="clipPath1859">
      <path
         style="display:inline;fill:#003059;fill-opacity:1;stroke:none;stroke-width:2.09764671;enable-background:new"
         d="m -362.50001,302.74794 c -28.41064,0 -34.09343,5.45286 -39.77555,10.89585 l -52.4837,50.2673 c 0.54492,0.22303 1.16695,0.36625 1.8281,0.36625 h 180.86232 c 0.66115,0 1.28314,-0.14333 1.82812,-0.36625 l -52.48372,-50.2673 c -5.68214,-5.44299 -11.36487,-10.89585 -39.77557,-10.89585 z"
         id="path1861"
         inkscape:connector-curvature="0" />
    </clipPath>
    <clipPath
       clipPathUnits="userSpaceOnUse"
       id="clipPath1863">
      <path
         style="display:inline;fill:#003059;fill-opacity:1;stroke:none;stroke-width:2.09764671;enable-background:new"
         d="m -578.12602,211.70049 -80.72932,-67.09133 c 0.55433,-0.23537 1.18712,-0.3865 1.85972,-0.3865 h 183.99131 c 0.67255,0 1.30536,0.15115 1.85969,0.3865 l -79.22449,67.09133 c -8.27458,6.96682 -20.77949,6.55501 -27.75691,0 z"
         id="path1865"
         inkscape:connector-curvature="0" />
    </clipPath>
  </defs>
  <sodipodi:namedview
     pagecolor="#ffffff"
     bordercolor="#666666"
     borderopacity="1"
     objecttolerance="10"
     gridtolerance="10"
     guidetolerance="10"
     inkscape:pageopacity="0"
     inkscape:pageshadow="2"
     inkscape:window-width="1920"
     inkscape:window-height="1474"
     id="namedview6"
     showgrid="false"
     inkscape:zoom="16"
     inkscape:cx="-11.491256"
     inkscape:cy="16.408646"
     inkscape:window-x="1920"
     inkscape:window-y="27"
     inkscape:window-maximized="0"
     inkscape:current-layer="svg4" />
  <path
     style="fill:#000000;fill-opacity:0.38039216;stroke:none;stroke-width:0.1549502;stroke-miterlimit:4;stroke-dasharray:none;stroke-opacity:1"
     d="M 1.251758,1.9999998 C 0.558233,2.0000008 1e-6,2.5797064 0,3.299912 V 4.6846056 12.700089 C 0,13.420293 0.558232,14 1.251758,14 h 8.08164 5.414844 C 15.441768,14 16,13.420293 16,12.700089 V 11.315395 3.299912 C 16,2.5797075 15.441768,1.9999998 14.748242,1.9999998 h -8.08164 z"
     id="rect1188-3"
     inkscape:connector-curvature="0" />
  <path
     style="display:inline;fill:#000000;fill-opacity:0.38039216;stroke:none;stroke-width:1.52053106;stroke-miterlimit:4;stroke-dasharray:none;stroke-opacity:1"
     d="m -429.98241,248.72266 c -6.93525,1e-5 -12.51757,5.58232 -12.51758,12.51758 v 13.33398 77.18555 c 0,6.93525 5.58232,12.51757 12.51758,12.51757 h 80.8164 54.14844 c 6.93526,0 12.51758,-5.58232 12.51758,-12.51757 v -13.33399 -77.18554 c 0,-6.93525 -5.58232,-12.51758 -12.51758,-12.51758 h -80.8164 z"
     id="rect1188-3-1"
     inkscape:connector-curvature="0"
     clip-path="url(#clipPath1859)"
     transform="matrix(0.1,0,0,0.10384694,44.249999,-23.829087)" />
  <path
     style="display:inline;fill:#808080;fill-opacity:1;stroke:none;stroke-width:1.52053106;stroke-miterlimit:4;stroke-dasharray:none;stroke-opacity:1"
     d="m -632.4824,144.22266 c -6.93525,1e-5 -12.51757,5.58232 -12.51758,12.51758 v 13.33398 77.18555 c 0,6.93525 5.58232,12.51757 12.51758,12.51757 h 80.8164 54.14844 c 6.93526,0 12.51758,-5.58232 12.51758,-12.51757 v -13.33399 -77.18554 c 0,-6.93525 -5.58232,-12.51758 -12.51758,-12.51758 h -80.8164 z"
     id="rect1188-3-1-2"
     inkscape:connector-curvature="0"
     clip-path="url(#clipPath1863)"
     transform="matrix(0.1,0,0,0.10384694,64.499998,-12.977082)" />
  <g
     id="g962">
    <path
       transform="matrix(-0.01997783,-0.0144905,0.01772775,-0.02444099,4.9937354,8.7416279)"
       clip-path="url(#clipPath1127)"
       d="m -224.09259,174.83332 a 47.407414,47.407414 0 0 0 -94.81482,0 47.419266,47.419266 0 0 0 29.62963,43.93483 v 44.95408 h 35.55556 v -44.95408 a 47.419266,47.419266 0 0 0 29.62963,-43.93483 z"
       stroke-miterlimit="10"
       id="path889"
       inkscape:connector-curvature="0"
       style="display:inline;fill:none;stroke:#000000;stroke-width:11.85185337;stroke-linecap:butt;stroke-linejoin:miter;stroke-miterlimit:10;stroke-opacity:1" />
    <rect
       transform="rotate(-144.04555)"
       style="opacity:1;fill:#808080;fill-opacity:1;stroke:none;stroke-width:0.17770261;stroke-miterlimit:4;stroke-dasharray:none;stroke-opacity:1"
       id="rect893"
       width="0.34607723"
       height="1.1910163"
       x="-14.445996"
       y="1.5790559"
       ry="0" />
    <path
       transform="matrix(0.02366473,0.01716471,-0.01772775,0.02444099,23.870973,7.2763636)"
       clip-path="url(#clipPath1127)"
       d="m -224.09259,174.83332 a 47.407414,47.407414 0 0 0 -94.81482,0 47.419266,47.419266 0 0 0 29.62963,43.93483 v 44.95408 h 35.55556 v -44.95408 a 47.419266,47.419266 0 0 0 29.62963,-43.93483 z"
       stroke-miterlimit="10"
       id="path6"
       inkscape:connector-curvature="0"
       style="display:inline;fill:none;stroke:#000000;stroke-width:11.85185337;stroke-linecap:butt;stroke-linejoin:miter;stroke-miterlimit:10;stroke-opacity:1" />
    <rect
       transform="rotate(35.954454)"
       ry="0"
       y="-2.8614054"
       x="14.099919"
       height="1.6893206"
       width="0.34607723"
       id="rect871"
       style="opacity:1;fill:#000000;fill-opacity:1;stroke:none;stroke-width:0.21163671;stroke-miterlimit:4;stroke-dasharray:none;stroke-opacity:1" />
    <rect
       transform="rotate(35.954454)"
       style="opacity:1;fill:#000000;fill-opacity:1;stroke:none;stroke-width:0.21163671;stroke-miterlimit:4;stroke-dasharray:none;stroke-opacity:1"
       id="rect860"
       width="0.34607723"
       height="1.6893206"
       x="16.871391"
       y="-2.8614054"
       ry="0" />
    <rect
       transform="rotate(35.954454)"
       style="opacity:1;fill:#000000;fill-opacity:1;stroke:none;stroke-width:0.34130782;stroke-miterlimit:4;stroke-dasharray:none;stroke-opacity:1"
       id="rect874"
       width="0.34607723"
       height="4.393621"
       x="14.099919"
       y="-1.3198236"
       ry="0" />
    <path
       style="display:inline;fill:none;stroke:#000000;stroke-width:11.85185337;stroke-linecap:butt;stroke-linejoin:miter;stroke-miterlimit:10;stroke-opacity:1"
       inkscape:connector-curvature="0"
       id="path881"
       stroke-miterlimit="10"
       d="m -224.09259,174.83332 a 47.407414,47.407414 0 0 0 -94.81482,0 47.419266,47.419266 0 0 0 29.62963,43.93483 v 44.95408 h 35.55556 v -44.95408 a 47.419266,47.419266 0 0 0 29.62963,-43.93483 z"
       clip-path="url(#clipPath1127)"
       transform="matrix(-0.02366473,-0.01716471,0.01772775,-0.02444099,0.91918744,11.884507)" />
    <rect
       transform="rotate(-144.04555)"
       style="opacity:1;fill:#000000;fill-opacity:1;stroke:none;stroke-width:0.21163671;stroke-miterlimit:4;stroke-dasharray:none;stroke-opacity:1"
       id="rect883"
       width="0.34607723"
       height="1.6893206"
       x="-17.217468"
       y="-3.8164806"
       ry="0" />
    <rect
       transform="rotate(-144.04555)"
       ry="0"
       y="-3.8164806"
       x="-14.445997"
       height="1.6893206"
       width="0.34607723"
       id="rect885"
       style="opacity:1;fill:#000000;fill-opacity:1;stroke:none;stroke-width:0.21163671;stroke-miterlimit:4;stroke-dasharray:none;stroke-opacity:1" />
    <rect
       ry="0"
       y="-2.8351438"
       x="-17.219866"
       height="1.6893206"
       width="0.34607723"
       id="rect950"
       style="opacity:1;fill:#000000;fill-opacity:1;stroke:none;stroke-width:0.21163671;stroke-miterlimit:4;stroke-dasharray:none;stroke-opacity:1"
       transform="rotate(-144.04555)" />
  </g>
</svg>
