<?xml version="1.0" encoding="UTF-8" standalone="no"?>
<svg
   xmlns:dc="http://purl.org/dc/elements/1.1/"
   xmlns:cc="http://creativecommons.org/ns#"
   xmlns:rdf="http://www.w3.org/1999/02/22-rdf-syntax-ns#"
   xmlns:svg="http://www.w3.org/2000/svg"
   xmlns="http://www.w3.org/2000/svg"
   xmlns:sodipodi="http://sodipodi.sourceforge.net/DTD/sodipodi-0.dtd"
   xmlns:inkscape="http://www.inkscape.org/namespaces/inkscape"
   height="16"
   width="16"
   version="1.1"
   id="svg8"
   sodipodi:docname="media-playlist-no-repeat-symbolic-rtl.svg"
   inkscape:version="0.92.3 (2405546, 2018-03-11)">
  <metadata
     id="metadata14">
    <rdf:RDF>
      <cc:Work
         rdf:about="">
        <dc:format>image/svg+xml</dc:format>
        <dc:type
           rdf:resource="http://purl.org/dc/dcmitype/StillImage" />
      </cc:Work>
    </rdf:RDF>
  </metadata>
  <defs
     id="defs12" />
  <sodipodi:namedview
     pagecolor="#ffffff"
     bordercolor="#666666"
     borderopacity="1"
     objecttolerance="10"
     gridtolerance="10"
     guidetolerance="10"
     inkscape:pageopacity="0"
     inkscape:pageshadow="2"
     inkscape:window-width="1920"
     inkscape:window-height="1539"
     id="namedview10"
     showgrid="false"
     inkscape:zoom="41.7193"
     inkscape:cx="7.2275167"
     inkscape:cy="9.7788314"
     inkscape:window-x="1920"
     inkscape:window-y="27"
     inkscape:window-maximized="0"
     inkscape:current-layer="svg8" />
  <path
     style="opacity:0.5;fill:#808080;fill-opacity:1;stroke:none;stroke-width:1.01409066;stroke-linecap:butt;stroke-linejoin:bevel;stroke-miterlimit:4;stroke-dasharray:none;stroke-opacity:1;paint-order:fill markers stroke"
     d="M 8.4628906 0.69921875 L 6.5664062 2.5957031 L 5.8085938 3.3535156 L 6.5664062 4.1113281 L 8.4628906 6.0078125 L 9.2207031 5.25 L 7.8613281 3.8886719 L 14.513672 3.8886719 C 14.742674 3.8886719 14.927734 4.0737316 14.927734 4.3027344 L 14.927734 6.8164062 L 14.927734 9.1816406 L 14.927734 11.695312 C 14.927734 11.924316 14.742674 12.109375 14.513672 12.109375 L 11.416016 12.109375 L 10.203125 12.109375 L 8.734375 12.109375 L 7.6621094 12.109375 L 7.6621094 12.111328 L 1.4863281 12.111328 C 1.257326 12.111328 1.0722656 11.926269 1.0722656 11.697266 L 1.0722656 9.1835938 L 1.0722656 6.8183594 L 1.0722656 4.3046875 C 1.0722656 4.0756848 1.257326 3.890625 1.4863281 3.890625 L 5.796875 3.890625 L 5.796875 2.8183594 L 1.1152344 2.8183594 C 0.49716304 2.8183594 -1.4802974e-16 3.3155224 0 3.9335938 L 0 7.9277344 L 0 8.0722656 L 0 12.066406 C 0 12.684477 0.49716302 13.183594 1.1152344 13.183594 L 8.4375 13.183594 C 8.4409602 13.183594 8.4438132 13.181672 8.4472656 13.181641 L 8.734375 13.181641 L 10.203125 13.181641 L 11.416016 13.181641 L 14.884766 13.181641 C 15.502837 13.181641 16 12.684477 16 12.066406 L 16 8.0722656 L 16 7.9277344 L 16 3.9335938 C 16 3.3155224 15.502837 2.8164062 14.884766 2.8164062 L 7.8632812 2.8164062 L 9.2207031 1.4570312 L 8.4628906 0.69921875 z "
     id="rect849-3-7" />
</svg>
