<?xml version="1.0" encoding="UTF-8" standalone="no"?>
<svg
   xmlns:dc="http://purl.org/dc/elements/1.1/"
   xmlns:cc="http://creativecommons.org/ns#"
   xmlns:rdf="http://www.w3.org/1999/02/22-rdf-syntax-ns#"
   xmlns:svg="http://www.w3.org/2000/svg"
   xmlns="http://www.w3.org/2000/svg"
   xmlns:sodipodi="http://sodipodi.sourceforge.net/DTD/sodipodi-0.dtd"
   xmlns:inkscape="http://www.inkscape.org/namespaces/inkscape"
   height="16"
   width="16"
   version="1.1"
   id="svg4"
   sodipodi:docname="media-playlist-shuffle-symbolic.svg"
   inkscape:version="0.92.3 (2405546, 2018-03-11)">
  <metadata
     id="metadata10">
    <rdf:RDF>
      <cc:Work
         rdf:about="">
        <dc:format>image/svg+xml</dc:format>
        <dc:type
           rdf:resource="http://purl.org/dc/dcmitype/StillImage" />
        <dc:title></dc:title>
      </cc:Work>
    </rdf:RDF>
  </metadata>
  <defs
     id="defs8">
    <clipPath
       clipPathUnits="userSpaceOnUse"
       id="clipPath827">
      <rect
         style="opacity:1;fill:#808080;fill-opacity:1;stroke:none;stroke-width:0.2;stroke-miterlimit:4;stroke-dasharray:none;stroke-opacity:1"
         id="rect829"
         width="3.3677459"
         height="3.1759882"
         x="-6.5677037"
         y="31.700167"
         ry="0.50847501" />
    </clipPath>
    <clipPath
       clipPathUnits="userSpaceOnUse"
       id="clipPath1109">
      <rect
         style="opacity:1;fill:#808080;fill-opacity:1;stroke:none;stroke-width:0.2;stroke-miterlimit:4;stroke-dasharray:none;stroke-opacity:1"
         id="rect1111"
         width="3.955004"
         height="3.5954583"
         x="27.827713"
         y="1.5103962"
         ry="0.335576"
         transform="rotate(90)" />
    </clipPath>
  </defs>
  <sodipodi:namedview
     pagecolor="#ffffff"
     bordercolor="#666666"
     borderopacity="1"
     objecttolerance="10"
     gridtolerance="10"
     guidetolerance="10"
     inkscape:pageopacity="0"
     inkscape:pageshadow="2"
     inkscape:window-width="1920"
     inkscape:window-height="1474"
     id="namedview6"
     showgrid="false"
     inkscape:zoom="41.7193"
     inkscape:cx="1.954743"
     inkscape:cy="6.41846"
     inkscape:window-x="1920"
     inkscape:window-y="27"
     inkscape:window-maximized="0"
     inkscape:current-layer="svg4"
     showguides="false" />
  <path
     style="opacity:1;fill:#808080;fill-opacity:1;stroke:none;stroke-width:0.41607893;stroke-linecap:butt;stroke-linejoin:bevel;stroke-miterlimit:4;stroke-dasharray:none;stroke-opacity:1;paint-order:fill markers stroke"
     d="m 14.031045,10.489625 -0.555528,0.555528 1.388821,1.388822 -1.388821,1.388822 0.555528,0.555529 1.388823,-1.388822 0.555528,-0.555529 -0.555528,-0.555528 z"
     id="rect816-3-7-5"
     inkscape:connector-curvature="0" />
  <path
     inkscape:connector-curvature="0"
     id="path907"
     d="m 14.031045,5.0268636 -0.555528,-0.555528 1.388821,-1.388822 -1.388821,-1.388822 0.555528,-0.555529 1.388822,1.388822 0.555529,0.555529 -0.555529,0.555528 z"
     style="opacity:1;fill:#808080;fill-opacity:1;stroke:none;stroke-width:0.41607893;stroke-linecap:butt;stroke-linejoin:bevel;stroke-miterlimit:4;stroke-dasharray:none;stroke-opacity:1;paint-order:fill markers stroke" />
  <rect
     ry="0.57075238"
     y="-13.877876"
     x="0.19239213"
     height="1.1415048"
     width="4.1417432"
     id="rect909"
     style="opacity:1;fill:#808080;fill-opacity:1;stroke:none;stroke-width:0.33865422;stroke-miterlimit:4;stroke-dasharray:none;stroke-opacity:1"
     transform="scale(1,-1)" />
  <g
     transform="matrix(1.6857622,0,0,-1.6857622,11.662231,61.370819)"
     id="g897">
    <path
       style="color:#000000;font-style:normal;font-variant:normal;font-weight:normal;font-stretch:normal;font-size:medium;line-height:normal;font-family:sans-serif;font-variant-ligatures:normal;font-variant-position:normal;font-variant-caps:normal;font-variant-numeric:normal;font-variant-alternates:normal;font-feature-settings:normal;text-indent:0;text-align:start;text-decoration:none;text-decoration-line:none;text-decoration-style:solid;text-decoration-color:#000000;letter-spacing:normal;word-spacing:normal;text-transform:none;writing-mode:lr-tb;direction:ltr;text-orientation:mixed;dominant-baseline:auto;baseline-shift:baseline;text-anchor:start;white-space:normal;shape-padding:0;clip-rule:nonzero;display:inline;overflow:visible;visibility:visible;opacity:1;isolation:auto;mix-blend-mode:normal;color-interpolation:sRGB;color-interpolation-filters:linearRGB;solid-color:#000000;solid-opacity:1;vector-effect:none;fill:#808080;fill-opacity:1;fill-rule:nonzero;stroke:none;stroke-width:0.69999999;stroke-linecap:round;stroke-linejoin:round;stroke-miterlimit:10.00000095;stroke-dasharray:none;stroke-dashoffset:0;stroke-opacity:1;color-rendering:auto;image-rendering:auto;shape-rendering:auto;text-rendering:auto;enable-background:accumulate"
       d="m -5.7192881,32.361735 a 0.35003499,0.35003499 0 0 0 -0.0098,0.697266 c 0.911281,0.105246 1.591798,0.809588 1.591798,1.654296 0,0.841663 -0.680919,1.550339 -1.589845,1.650391 a 0.35003499,0.35003499 0 1 0 0.07617,0.695313 c 1.233735,-0.135807 2.212895,-1.127753 2.212895,-2.345704 0,-1.220058 -0.979562,-2.207393 -2.210938,-2.349609 a 0.35003499,0.35003499 0 0 0 -0.07031,-0.002 z"
       id="path893"
       inkscape:connector-curvature="0"
       clip-path="url(#clipPath827)"
       transform="translate(1.1265769,-4.1947012)" />
    <rect
       style="opacity:1;fill:#808080;fill-opacity:1;stroke:none;stroke-width:0.19669399;stroke-miterlimit:4;stroke-dasharray:none;stroke-opacity:1"
       id="rect895"
       width="0.70710677"
       height="2.9243059"
       x="-3.0081999"
       y="30.333893"
       ry="0.36553824" />
  </g>
  <path
     transform="matrix(-1.6857622,0,0,1.6857622,0.75759665,-52.036762)"
     clip-path="url(#clipPath827)"
     inkscape:connector-curvature="0"
     id="path970"
     d="m -5.7192881,32.361735 a 0.35003499,0.35003499 0 0 0 -0.0098,0.697266 c 0.911281,0.105246 1.591798,0.809588 1.591798,1.654296 0,0.841663 -0.680919,1.550339 -1.589845,1.650391 a 0.35003499,0.35003499 0 1 0 0.07617,0.695313 c 1.233735,-0.135807 2.212895,-1.127753 2.212895,-2.345704 0,-1.220058 -0.979562,-2.207393 -2.210938,-2.349609 a 0.35003499,0.35003499 0 0 0 -0.07031,-0.002 z"
     style="color:#000000;font-style:normal;font-variant:normal;font-weight:normal;font-stretch:normal;font-size:medium;line-height:normal;font-family:sans-serif;font-variant-ligatures:normal;font-variant-position:normal;font-variant-caps:normal;font-variant-numeric:normal;font-variant-alternates:normal;font-feature-settings:normal;text-indent:0;text-align:start;text-decoration:none;text-decoration-line:none;text-decoration-style:solid;text-decoration-color:#000000;letter-spacing:normal;word-spacing:normal;text-transform:none;writing-mode:lr-tb;direction:ltr;text-orientation:mixed;dominant-baseline:auto;baseline-shift:baseline;text-anchor:start;white-space:normal;shape-padding:0;clip-rule:nonzero;display:inline;overflow:visible;visibility:visible;opacity:1;isolation:auto;mix-blend-mode:normal;color-interpolation:sRGB;color-interpolation-filters:linearRGB;solid-color:#000000;solid-opacity:1;vector-effect:none;fill:#808080;fill-opacity:1;fill-rule:nonzero;stroke:none;stroke-width:0.69999999;stroke-linecap:round;stroke-linejoin:round;stroke-miterlimit:10.00000095;stroke-dasharray:none;stroke-dashoffset:0;stroke-opacity:1;color-rendering:auto;image-rendering:auto;shape-rendering:auto;text-rendering:auto;enable-background:accumulate" />
  <rect
     ry="0.61621052"
     y="6.1702371"
     x="-7.7278471"
     height="4.9296842"
     width="1.1920139"
     id="rect972"
     style="opacity:1;fill:#808080;fill-opacity:1;stroke:none;stroke-width:0.3315793;stroke-miterlimit:4;stroke-dasharray:none;stroke-opacity:1"
     transform="scale(-1,1)" />
  <rect
     transform="scale(1,-1)"
     style="opacity:1;fill:#808080;fill-opacity:1;stroke:none;stroke-width:0.33715245;stroke-miterlimit:4;stroke-dasharray:none;stroke-opacity:1"
     id="rect976"
     width="4.1417432"
     height="1.131403"
     x="9.897583"
     y="-3.6482148"
     ry="0.56570148" />
  <rect
     transform="scale(-1,1)"
     style="opacity:1;fill:#808080;fill-opacity:1;stroke:none;stroke-width:0.33715245;stroke-miterlimit:4;stroke-dasharray:none;stroke-opacity:1"
     id="rect986"
     width="4.1417432"
     height="1.131403"
     x="-13.998919"
     y="2.5168116"
     ry="0.56570148" />
  <rect
     transform="scale(1,-1)"
     style="opacity:1;fill:#808080;fill-opacity:1;stroke:none;stroke-width:0.25900635;stroke-miterlimit:4;stroke-dasharray:none;stroke-opacity:1"
     id="rect1063"
     width="4.0840149"
     height="0.67714459"
     x="0.55251437"
     y="-2.3186696"
     ry="0.33857229" />
  <rect
     style="opacity:1;fill:#808080;fill-opacity:1;stroke:none;stroke-width:0.33865422;stroke-miterlimit:4;stroke-dasharray:none;stroke-opacity:1"
     id="rect916"
     width="4.1417432"
     height="1.1415048"
     x="0.19239213"
     y="1.6531636"
     ry="0.57075238" />
  <g
     id="g922"
     transform="matrix(1.6857622,0,0,1.6857622,11.662231,-45.839779)">
    <path
       transform="translate(1.1265769,-4.1947012)"
       clip-path="url(#clipPath827)"
       inkscape:connector-curvature="0"
       id="path918"
       d="m -5.7192881,32.361735 a 0.35003499,0.35003499 0 0 0 -0.0098,0.697266 c 0.911281,0.105246 1.591798,0.809588 1.591798,1.654296 0,0.841663 -0.680919,1.550339 -1.589845,1.650391 a 0.35003499,0.35003499 0 1 0 0.07617,0.695313 c 1.233735,-0.135807 2.212895,-1.127753 2.212895,-2.345704 0,-1.220058 -0.979562,-2.207393 -2.210938,-2.349609 a 0.35003499,0.35003499 0 0 0 -0.07031,-0.002 z"
       style="color:#000000;font-style:normal;font-variant:normal;font-weight:normal;font-stretch:normal;font-size:medium;line-height:normal;font-family:sans-serif;font-variant-ligatures:normal;font-variant-position:normal;font-variant-caps:normal;font-variant-numeric:normal;font-variant-alternates:normal;font-feature-settings:normal;text-indent:0;text-align:start;text-decoration:none;text-decoration-line:none;text-decoration-style:solid;text-decoration-color:#000000;letter-spacing:normal;word-spacing:normal;text-transform:none;writing-mode:lr-tb;direction:ltr;text-orientation:mixed;dominant-baseline:auto;baseline-shift:baseline;text-anchor:start;white-space:normal;shape-padding:0;clip-rule:nonzero;display:inline;overflow:visible;visibility:visible;opacity:1;isolation:auto;mix-blend-mode:normal;color-interpolation:sRGB;color-interpolation-filters:linearRGB;solid-color:#000000;solid-opacity:1;vector-effect:none;fill:#808080;fill-opacity:1;fill-rule:nonzero;stroke:none;stroke-width:0.69999999;stroke-linecap:round;stroke-linejoin:round;stroke-miterlimit:10.00000095;stroke-dasharray:none;stroke-dashoffset:0;stroke-opacity:1;color-rendering:auto;image-rendering:auto;shape-rendering:auto;text-rendering:auto;enable-background:accumulate" />
    <rect
       ry="0.36553824"
       y="30.333893"
       x="-3.0081999"
       height="2.9243059"
       width="0.70710677"
       id="rect920"
       style="opacity:1;fill:#808080;fill-opacity:1;stroke:none;stroke-width:0.19669399;stroke-miterlimit:4;stroke-dasharray:none;stroke-opacity:1" />
  </g>
  <rect
     ry="0.56570148"
     y="11.882825"
     x="9.897583"
     height="1.131403"
     width="4.1417432"
     id="rect930"
     style="opacity:1;fill:#808080;fill-opacity:1;stroke:none;stroke-width:0.33715245;stroke-miterlimit:4;stroke-dasharray:none;stroke-opacity:1" />
  <rect
     ry="0.33857229"
     y="13.21237"
     x="0.55251437"
     height="0.67714459"
     width="4.0840149"
     id="rect934"
     style="opacity:1;fill:#808080;fill-opacity:1;stroke:none;stroke-width:0.25900635;stroke-miterlimit:4;stroke-dasharray:none;stroke-opacity:1" />
  <rect
     ry="0.56570148"
     y="-12.999677"
     x="-14.039326"
     height="1.131403"
     width="4.7576013"
     id="rect932"
     style="opacity:1;fill:#808080;fill-opacity:1;stroke:none;stroke-width:0.3613506;stroke-miterlimit:4;stroke-dasharray:none;stroke-opacity:1"
     transform="scale(-1)" />
  <path
     style="color:#000000;font-style:normal;font-variant:normal;font-weight:normal;font-stretch:normal;font-size:medium;line-height:normal;font-family:sans-serif;font-variant-ligatures:normal;font-variant-position:normal;font-variant-caps:normal;font-variant-numeric:normal;font-variant-alternates:normal;font-feature-settings:normal;text-indent:0;text-align:start;text-decoration:none;text-decoration-line:none;text-decoration-style:solid;text-decoration-color:#000000;letter-spacing:normal;word-spacing:normal;text-transform:none;writing-mode:lr-tb;direction:ltr;text-orientation:mixed;dominant-baseline:auto;baseline-shift:baseline;text-anchor:start;white-space:normal;shape-padding:0;clip-rule:nonzero;display:inline;overflow:visible;visibility:visible;opacity:1;isolation:auto;mix-blend-mode:normal;color-interpolation:sRGB;color-interpolation-filters:linearRGB;solid-color:#000000;solid-opacity:1;vector-effect:none;fill:#808080;fill-opacity:1;fill-rule:nonzero;stroke:none;stroke-width:0.69999999;stroke-linecap:round;stroke-linejoin:round;stroke-miterlimit:10.00000095;stroke-dasharray:none;stroke-dashoffset:0;stroke-opacity:1;color-rendering:auto;image-rendering:auto;shape-rendering:auto;text-rendering:auto;enable-background:accumulate"
     d="m -5.7192881,32.361735 a 0.35003499,0.35003499 0 0 0 -0.0098,0.697266 c 0.911281,0.105246 1.591798,0.809588 1.591798,1.654296 0,0.841663 -0.680919,1.550339 -1.589845,1.650391 a 0.35003499,0.35003499 0 1 0 0.07617,0.695313 c 1.233735,-0.135807 2.212895,-1.127753 2.212895,-2.345704 0,-1.220058 -0.979562,-2.207393 -2.210938,-2.349609 a 0.35003499,0.35003499 0 0 0 -0.07031,-0.002 z"
     id="path938"
     inkscape:connector-curvature="0"
     clip-path="url(#clipPath827)"
     transform="matrix(-1.4688773,0,0,-1.6857622,1.5216907,67.544447)" />
  <path
     style="opacity:1;fill:#ffffff;fill-opacity:1;stroke:none;stroke-width:0.2;stroke-miterlimit:4;stroke-dasharray:none;stroke-opacity:1"
     d="M 6.6810858,4.9172036 C 6.3518421,5.6181604 6.8701864,6.3963412 6.2111674,6.0867958 5.5521485,5.7772505 5.2848127,4.9580773 5.6140567,4.2571206 5.9433003,3.5561638 6.7444452,3.2388626 7.4034641,3.5484079 8.062483,3.8579532 7.0103291,4.2162478 6.6810858,4.9172036 Z"
     id="path946"
     inkscape:connector-curvature="0"
     sodipodi:nodetypes="sssss" />
  <path
     sodipodi:nodetypes="sssss"
     inkscape:connector-curvature="0"
     id="path949"
     d="M 7.6637192,11.106802 C 7.9658409,10.393735 7.4898804,9.6390649 8.160285,9.9231112 8.8306893,10.207156 9.1292419,11.015476 8.8271207,11.728543 8.5249988,12.44161 7.9511226,12.822531 7.2807179,12.538485 6.6103134,12.254439 7.3615984,11.819868 7.6637192,11.106802 Z"
     style="opacity:1;fill:#ffffff;fill-opacity:1;stroke:none;stroke-width:0.2;stroke-miterlimit:4;stroke-dasharray:none;stroke-opacity:1" />
</svg>
