<?xml version="1.0" encoding="UTF-8" standalone="no"?>
<svg
   xmlns:dc="http://purl.org/dc/elements/1.1/"
   xmlns:cc="http://creativecommons.org/ns#"
   xmlns:rdf="http://www.w3.org/1999/02/22-rdf-syntax-ns#"
   xmlns:svg="http://www.w3.org/2000/svg"
   xmlns="http://www.w3.org/2000/svg"
   xmlns:sodipodi="http://sodipodi.sourceforge.net/DTD/sodipodi-0.dtd"
   xmlns:inkscape="http://www.inkscape.org/namespaces/inkscape"
   height="13.036"
   width="15"
   version="1.1"
   id="svg8"
   sodipodi:docname="network-wired-no-route-symbolic.svg"
   inkscape:version="0.92.3 (2405546, 2018-03-11)">
  <metadata
     id="metadata14">
    <rdf:RDF>
      <cc:Work
         rdf:about="">
        <dc:format>image/svg+xml</dc:format>
        <dc:type
           rdf:resource="http://purl.org/dc/dcmitype/StillImage" />
        <dc:title />
      </cc:Work>
    </rdf:RDF>
  </metadata>
  <defs
     id="defs12" />
  <sodipodi:namedview
     pagecolor="#ffffff"
     bordercolor="#666666"
     borderopacity="1"
     objecttolerance="10"
     gridtolerance="10"
     guidetolerance="10"
     inkscape:pageopacity="0"
     inkscape:pageshadow="2"
     inkscape:window-width="1920"
     inkscape:window-height="1474"
     id="namedview10"
     showgrid="false"
     inkscape:zoom="25.602516"
     inkscape:cx="-5.6122026"
     inkscape:cy="4.2665112"
     inkscape:window-x="1920"
     inkscape:window-y="27"
     inkscape:window-maximized="0"
     inkscape:current-layer="svg8" />
  <path
     style="opacity:0.5;fill:#808080;fill-opacity:1;stroke:none;stroke-width:0.61498493;stroke-opacity:0.94117647"
     d="M 5.7519531 0.27929688 C 5.3317958 0.27929688 4.9921875 0.61695206 4.9921875 1.0371094 L 4.9921875 3.5214844 C 4.9921875 3.9416417 5.3317958 4.2792969 5.7519531 4.2792969 L 6.9921875 4.2792969 L 6.9921875 5.7285156 L 7.9921875 5.7285156 L 7.9921875 4.2792969 L 9.234375 4.2792969 C 9.6545323 4.2792969 9.9921875 3.9416417 9.9921875 3.5214844 L 9.9921875 1.0371094 C 9.9921875 0.61695206 9.6545323 0.27929688 9.234375 0.27929688 L 5.7519531 0.27929688 z M 3.1035156 5.7304688 C 2.765234 5.7304688 2.4921875 6.0035159 2.4921875 6.3417969 L 2.4921875 8.7558594 L 1.2226562 8.7558594 C 0.80249894 8.7558594 0.46484375 9.0954677 0.46484375 9.515625 L 0.46484375 11.998047 C 0.46484375 12.418204 0.80249894 12.755859 1.2226562 12.755859 L 4.7070312 12.755859 C 5.1271886 12.755859 5.4648438 12.418204 5.4648438 11.998047 L 5.4648438 9.515625 C 5.4648438 9.0954677 5.1271886 8.7558594 4.7070312 8.7558594 L 3.3261719 8.7558594 L 3.3261719 7.09375 C 3.3261719 6.800572 3.5622913 6.5644541 3.8554688 6.5644531 L 11.130859 6.5644531 C 11.424037 6.5644531 11.660156 6.800572 11.660156 7.09375 L 11.660156 8.7558594 L 10.292969 8.7558594 C 9.8728114 8.7558594 9.5351562 9.0954677 9.5351562 9.515625 L 9.5351562 11.998047 C 9.5351562 12.418204 9.8728114 12.755859 10.292969 12.755859 L 13.777344 12.755859 C 14.197501 12.755859 14.535156 12.418204 14.535156 11.998047 L 14.535156 9.515625 C 14.535156 9.0954677 14.197501 8.7558594 13.777344 8.7558594 L 12.492188 8.7558594 L 12.492188 6.3417969 C 12.492188 6.0035159 12.221094 5.7304687 11.882812 5.7304688 L 3.1035156 5.7304688 z "
     id="rect881" />
  <text
     xml:space="preserve"
     style="font-style:normal;font-weight:normal;font-size:35.46099472px;line-height:1.25;font-family:sans-serif;letter-spacing:0px;word-spacing:0px;fill:#808080;fill-opacity:1;stroke:none;stroke-width:0.8865248"
     x="4.3724127"
     y="12.268544"
     id="text824"><tspan
       sodipodi:role="line"
       id="tspan822"
       x="4.3724127"
       y="12.268544"
       style="font-style:normal;font-variant:normal;font-weight:normal;font-stretch:normal;font-size:14.18439674px;font-family:'Star Labs';-inkscape-font-specification:'Star Labs';fill:#808080;fill-opacity:1;stroke-width:0.8865248">?</tspan></text>
</svg>
