<?xml version="1.0" encoding="UTF-8" standalone="no"?>
<svg
   xmlns:dc="http://purl.org/dc/elements/1.1/"
   xmlns:cc="http://creativecommons.org/ns#"
   xmlns:rdf="http://www.w3.org/1999/02/22-rdf-syntax-ns#"
   xmlns:svg="http://www.w3.org/2000/svg"
   xmlns="http://www.w3.org/2000/svg"
   xmlns:sodipodi="http://sodipodi.sourceforge.net/DTD/sodipodi-0.dtd"
   xmlns:inkscape="http://www.inkscape.org/namespaces/inkscape"
   height="16"
   width="16"
   version="1.1"
   id="svg4"
   sodipodi:docname="user-offline-symbolic.svg"
   inkscape:version="0.92.3 (2405546, 2018-03-11)">
  <metadata
     id="metadata10">
    <rdf:RDF>
      <cc:Work
         rdf:about="">
        <dc:format>image/svg+xml</dc:format>
        <dc:type
           rdf:resource="http://purl.org/dc/dcmitype/StillImage" />
      </cc:Work>
    </rdf:RDF>
  </metadata>
  <defs
     id="defs8" />
  <sodipodi:namedview
     pagecolor="#ffffff"
     bordercolor="#666666"
     borderopacity="1"
     objecttolerance="10"
     gridtolerance="10"
     guidetolerance="10"
     inkscape:pageopacity="0"
     inkscape:pageshadow="2"
     inkscape:window-width="1920"
     inkscape:window-height="1539"
     id="namedview6"
     showgrid="false"
     inkscape:zoom="29.5"
     inkscape:cx="-6.1084379"
     inkscape:cy="7.2575439"
     inkscape:window-x="0"
     inkscape:window-y="27"
     inkscape:window-maximized="0"
     inkscape:current-layer="svg4" />
  <path
     style="opacity:0.5;fill:#808080;fill-opacity:1;stroke:none;stroke-width:0.09515279"
     d="M 8 1.8945312 A 7.7264957 5.333333 0 0 0 0.2734375 7.2265625 A 7.7264957 5.333333 0 0 0 4.1640625 11.849609 L 5.4667969 14.105469 L 8.1523438 12.554688 A 7.7264957 5.333333 0 0 0 15.726562 7.2265625 A 7.7264957 5.333333 0 0 0 8 1.8945312 z M 8 2.3945312 A 7.093783 4.8965933 0 0 1 15.09375 7.2890625 A 7.093783 4.8965933 0 0 1 8.140625 12.181641 L 5.6738281 13.605469 L 4.4785156 11.535156 A 7.093783 4.8965933 0 0 1 0.90625 7.2890625 A 7.093783 4.8965933 0 0 1 8 2.3945312 z "
     id="rect4893" />
</svg>
