<?xml version="1.0" encoding="UTF-8" standalone="no"?>
<svg
   xmlns:dc="http://purl.org/dc/elements/1.1/"
   xmlns:cc="http://creativecommons.org/ns#"
   xmlns:rdf="http://www.w3.org/1999/02/22-rdf-syntax-ns#"
   xmlns:svg="http://www.w3.org/2000/svg"
   xmlns="http://www.w3.org/2000/svg"
   xmlns:sodipodi="http://sodipodi.sourceforge.net/DTD/sodipodi-0.dtd"
   xmlns:inkscape="http://www.inkscape.org/namespaces/inkscape"
   height="16"
   width="16"
   version="1.1"
   id="svg8"
   sodipodi:docname="weather-storm-symbolic.svg"
   inkscape:version="0.92.3 (2405546, 2018-03-11)">
  <metadata
     id="metadata14">
    <rdf:RDF>
      <cc:Work
         rdf:about="">
        <dc:format>image/svg+xml</dc:format>
        <dc:type
           rdf:resource="http://purl.org/dc/dcmitype/StillImage" />
        <dc:title></dc:title>
      </cc:Work>
    </rdf:RDF>
  </metadata>
  <defs
     id="defs12" />
  <sodipodi:namedview
     pagecolor="#ffffff"
     bordercolor="#666666"
     borderopacity="1"
     objecttolerance="10"
     gridtolerance="10"
     guidetolerance="10"
     inkscape:pageopacity="0"
     inkscape:pageshadow="2"
     inkscape:window-width="1920"
     inkscape:window-height="1474"
     id="namedview10"
     showgrid="false"
     inkscape:zoom="59"
     inkscape:cx="6.8089532"
     inkscape:cy="6.6930631"
     inkscape:window-x="0"
     inkscape:window-y="27"
     inkscape:window-maximized="0"
     inkscape:current-layer="svg8" />
  <path
     style="opacity:1;fill:#808080;fill-opacity:1;stroke:none;stroke-width:0.44185147;stroke-linecap:butt;stroke-linejoin:bevel;stroke-miterlimit:4;stroke-dasharray:none;stroke-opacity:1;paint-order:fill markers stroke"
     d="M 9.874946,7.4468997e-4 A 4.6222223,4.4340474 0 0 0 5.990225,2.1724667 3.1824362,3.0528763 0 0 0 5.006891,2.0392327 3.1824362,3.0528763 0 0 0 1.88328,5.1302747 a 3.1824362,3.0528763 0 0 0 0.007,0.130571 C 0.816273,5.4285307 0,6.3108177 0,7.3899337 v 0.445004 C 0,9.0343868 1.006591,9.9999998 2.256944,9.9999998 H 13.743056 C 14.993408,9.9999998 16,9.0343868 16,7.8349377 v -0.445004 c 0,-0.949806 -0.635843,-1.745298 -1.519445,-2.038489 a 4.6222223,4.4340474 0 0 0 0.101395,-0.917987 l -0.0015,-0.109249 A 4.6222223,4.4340474 0 0 0 9.874936,7.4468997e-4 Z"
     id="rect834"
     inkscape:connector-curvature="0" />
  <g
     id="g850"
     transform="translate(-1.2711864,-0.20338983)">
    <path
       transform="matrix(0.20803535,-0.09130721,0.03344835,0.02927164,3.2873985,11.828359)"
       inkscape:transform-center-y="0.40486223"
       inkscape:transform-center-x="-0.1571553"
       d="M 39.457629,45.355932 20.628761,43.672569 2.1119539,41.968314 12.984223,26.503717 23.718555,11.31982 31.675154,28.467779 Z"
       inkscape:randomized="0"
       inkscape:rounded="0"
       inkscape:flatsided="false"
       sodipodi:arg2="1.6754931"
       sodipodi:arg1="0.614061"
       sodipodi:r2="10.850629"
       sodipodi:r1="21.650061"
       sodipodi:cy="32.881355"
       sodipodi:cx="21.762712"
       sodipodi:sides="3"
       id="path840"
       style="opacity:1;fill:#808080;fill-opacity:1;stroke:#808080;stroke-width:0.13600001;stroke-miterlimit:4;stroke-dasharray:none;stroke-opacity:1"
       sodipodi:type="star" />
    <path
       sodipodi:type="star"
       style="opacity:1;fill:#808080;fill-opacity:1;stroke:#808080;stroke-width:0.13600001;stroke-miterlimit:4;stroke-dasharray:none;stroke-opacity:1"
       id="path842"
       sodipodi:sides="3"
       sodipodi:cx="21.762712"
       sodipodi:cy="32.881355"
       sodipodi:r1="21.650061"
       sodipodi:r2="10.850629"
       sodipodi:arg1="0.614061"
       sodipodi:arg2="1.6754931"
       inkscape:flatsided="false"
       inkscape:rounded="0"
       inkscape:randomized="0"
       d="M 39.457629,45.355932 20.628761,43.672569 2.1119539,41.968314 12.984223,26.503717 23.718555,11.31982 31.675154,28.467779 Z"
       inkscape:transform-center-x="-0.17732797"
       inkscape:transform-center-y="0.2810096"
       transform="matrix(0.15216394,-0.08065593,0.03025139,0.01874946,2.5841644,13.774297)" />
  </g>
</svg>
