<?xml version="1.0" encoding="UTF-8" standalone="no"?>
<svg
   xmlns:dc="http://purl.org/dc/elements/1.1/"
   xmlns:cc="http://creativecommons.org/ns#"
   xmlns:rdf="http://www.w3.org/1999/02/22-rdf-syntax-ns#"
   xmlns:svg="http://www.w3.org/2000/svg"
   xmlns="http://www.w3.org/2000/svg"
   xmlns:sodipodi="http://sodipodi.sourceforge.net/DTD/sodipodi-0.dtd"
   xmlns:inkscape="http://www.inkscape.org/namespaces/inkscape"
   height="16"
   width="16"
   version="1.1"
   id="svg8"
   sodipodi:docname="weather-snow-symbolic.svg"
   inkscape:version="0.92.3 (2405546, 2018-03-11)">
  <metadata
     id="metadata14">
    <rdf:RDF>
      <cc:Work
         rdf:about="">
        <dc:format>image/svg+xml</dc:format>
        <dc:type
           rdf:resource="http://purl.org/dc/dcmitype/StillImage" />
        <dc:title></dc:title>
      </cc:Work>
    </rdf:RDF>
  </metadata>
  <defs
     id="defs12" />
  <sodipodi:namedview
     pagecolor="#ffffff"
     bordercolor="#666666"
     borderopacity="1"
     objecttolerance="10"
     gridtolerance="10"
     guidetolerance="10"
     inkscape:pageopacity="0"
     inkscape:pageshadow="2"
     inkscape:window-width="1920"
     inkscape:window-height="1474"
     id="namedview10"
     showgrid="false"
     inkscape:zoom="41.7193"
     inkscape:cx="4.7642922"
     inkscape:cy="11.733346"
     inkscape:window-x="0"
     inkscape:window-y="27"
     inkscape:window-maximized="0"
     inkscape:current-layer="svg8" />
  <g
     id="g878"
     transform="translate(-1.126577,0.95878884)">
    <rect
       transform="rotate(-90)"
       ry="0.023428721"
       y="3.2184179"
       x="-12.126843"
       height="2.6677945"
       width="0.035900358"
       id="rect866"
       style="opacity:1;fill:none;fill-opacity:0.38039216;stroke:#808080;stroke-width:0.13600001;stroke-miterlimit:4;stroke-dasharray:none;stroke-opacity:1" />
    <path
       d="m 4.6101694,10.788136 0.3241525,0.735162 0.7987449,-0.08686 -0.4745923,0.648305 0.4745923,0.648306 -0.7987448,-0.08686 -0.3241526,0.735162 -0.3241525,-0.735162 -0.7987449,0.08686 0.4745923,-0.648305 -0.4745923,-0.648305 0.7987448,0.08686 z"
       inkscape:randomized="0"
       inkscape:rounded="0"
       inkscape:flatsided="false"
       sodipodi:arg2="-1.0471976"
       sodipodi:arg1="-1.5707963"
       sodipodi:r2="0.64830512"
       sodipodi:r1="1.2966102"
       sodipodi:cy="12.084746"
       sodipodi:cx="4.6101694"
       sodipodi:sides="6"
       id="path868"
       style="opacity:1;fill:none;fill-opacity:0.38039216;stroke:#808080;stroke-width:0.30000001;stroke-miterlimit:4;stroke-dasharray:none;stroke-opacity:1"
       sodipodi:type="star" />
    <rect
       style="opacity:1;fill:none;fill-opacity:0.38039216;stroke:#808080;stroke-width:0.13609537;stroke-miterlimit:4;stroke-dasharray:none;stroke-opacity:1"
       id="rect870"
       width="0.040627811"
       height="3.0969527"
       x="2.2268875"
       y="-14.156224"
       ry="0.027197614"
       transform="matrix(-0.8320729,0.55466629,-0.50985769,-0.86025876,0,0)" />
    <rect
       transform="matrix(0.8320729,0.55466629,0.50985769,-0.86025876,0,0)"
       ry="0.027197614"
       y="-9.0924349"
       x="10.080564"
       height="3.0969527"
       width="0.040627811"
       id="rect872"
       style="opacity:1;fill:none;fill-opacity:0.38039216;stroke:#808080;stroke-width:0.13609537;stroke-miterlimit:4;stroke-dasharray:none;stroke-opacity:1" />
  </g>
  <g
     transform="translate(7.6942805,1.3902439)"
     id="g888">
    <rect
       style="opacity:1;fill:none;fill-opacity:0.38039216;stroke:#808080;stroke-width:0.13600001;stroke-miterlimit:4;stroke-dasharray:none;stroke-opacity:1"
       id="rect880"
       width="0.035900358"
       height="2.6677945"
       x="-12.126843"
       y="3.2184179"
       ry="0.023428721"
       transform="rotate(-90)" />
    <path
       sodipodi:type="star"
       style="opacity:1;fill:none;fill-opacity:0.38039216;stroke:#808080;stroke-width:0.30000001;stroke-miterlimit:4;stroke-dasharray:none;stroke-opacity:1"
       id="path882"
       sodipodi:sides="6"
       sodipodi:cx="4.6101694"
       sodipodi:cy="12.084746"
       sodipodi:r1="1.2966102"
       sodipodi:r2="0.64830512"
       sodipodi:arg1="-1.5707963"
       sodipodi:arg2="-1.0471976"
       inkscape:flatsided="false"
       inkscape:rounded="0"
       inkscape:randomized="0"
       d="m 4.6101694,10.788136 0.3241525,0.735162 0.7987449,-0.08686 -0.4745923,0.648305 0.4745923,0.648306 -0.7987448,-0.08686 -0.3241526,0.735162 -0.3241525,-0.735162 -0.7987449,0.08686 0.4745923,-0.648305 -0.4745923,-0.648305 0.7987448,0.08686 z" />
    <rect
       transform="matrix(-0.8320729,0.55466629,-0.50985769,-0.86025876,0,0)"
       ry="0.027197614"
       y="-14.156224"
       x="2.2268875"
       height="3.0969527"
       width="0.040627811"
       id="rect884"
       style="opacity:1;fill:none;fill-opacity:0.38039216;stroke:#808080;stroke-width:0.13609537;stroke-miterlimit:4;stroke-dasharray:none;stroke-opacity:1" />
    <rect
       style="opacity:1;fill:none;fill-opacity:0.38039216;stroke:#808080;stroke-width:0.13609537;stroke-miterlimit:4;stroke-dasharray:none;stroke-opacity:1"
       id="rect886"
       width="0.040627811"
       height="3.0969527"
       x="10.080564"
       y="-9.0924349"
       ry="0.027197614"
       transform="matrix(0.8320729,0.55466629,0.50985769,-0.86025876,0,0)" />
  </g>
  <g
     id="g898"
     transform="translate(2.9003362,-0.07190915)">
    <rect
       transform="rotate(-90)"
       ry="0.023428721"
       y="3.2184179"
       x="-12.126843"
       height="2.6677945"
       width="0.035900358"
       id="rect890"
       style="opacity:1;fill:none;fill-opacity:0.38039216;stroke:#808080;stroke-width:0.13600001;stroke-miterlimit:4;stroke-dasharray:none;stroke-opacity:1" />
    <path
       d="m 4.6101694,10.788136 0.3241525,0.735162 0.7987449,-0.08686 -0.4745923,0.648305 0.4745923,0.648306 -0.7987448,-0.08686 -0.3241526,0.735162 -0.3241525,-0.735162 -0.7987449,0.08686 0.4745923,-0.648305 -0.4745923,-0.648305 0.7987448,0.08686 z"
       inkscape:randomized="0"
       inkscape:rounded="0"
       inkscape:flatsided="false"
       sodipodi:arg2="-1.0471976"
       sodipodi:arg1="-1.5707963"
       sodipodi:r2="0.64830512"
       sodipodi:r1="1.2966102"
       sodipodi:cy="12.084746"
       sodipodi:cx="4.6101694"
       sodipodi:sides="6"
       id="path892"
       style="opacity:1;fill:none;fill-opacity:0.38039216;stroke:#808080;stroke-width:0.30000001;stroke-miterlimit:4;stroke-dasharray:none;stroke-opacity:1"
       sodipodi:type="star" />
    <rect
       style="opacity:1;fill:none;fill-opacity:0.38039216;stroke:#808080;stroke-width:0.13609537;stroke-miterlimit:4;stroke-dasharray:none;stroke-opacity:1"
       id="rect894"
       width="0.040627811"
       height="3.0969527"
       x="2.2268875"
       y="-14.156224"
       ry="0.027197614"
       transform="matrix(-0.8320729,0.55466629,-0.50985769,-0.86025876,0,0)" />
    <rect
       transform="matrix(0.8320729,0.55466629,0.50985769,-0.86025876,0,0)"
       ry="0.027197614"
       y="-9.0924349"
       x="10.080564"
       height="3.0969527"
       width="0.040627811"
       id="rect896"
       style="opacity:1;fill:none;fill-opacity:0.38039216;stroke:#808080;stroke-width:0.13609537;stroke-miterlimit:4;stroke-dasharray:none;stroke-opacity:1" />
  </g>
  <path
     style="opacity:1;fill:none;fill-opacity:1;stroke:#808080;stroke-width:0.42652452;stroke-linecap:butt;stroke-linejoin:bevel;stroke-miterlimit:4;stroke-dasharray:none;stroke-opacity:1;paint-order:fill markers stroke"
     d="M 9.8249819,0.21398613 A 4.4990126,4.244919 0 0 0 6.0438119,2.2930763 3.0976053,2.9226599 0 0 0 5.0866891,2.1655251 3.0976053,2.9226599 0 0 0 2.046341,5.1247237 3.0976053,2.9226599 0 0 0 2.053157,5.2497244 C 1.0077761,5.4102572 0.21326167,6.2549114 0.21326167,7.2879994 v 0.426023 c 0,1.148288 0.97975933,2.0727143 2.19678293,2.0727143 H 13.589956 c 1.217022,0 2.196782,-0.9244263 2.196782,-2.0727143 v -0.426023 c 0,-0.9092935 -0.618893,-1.6708549 -1.478942,-1.9515393 a 4.4990126,4.244919 0 0 0 0.09869,-0.8788315 l -0.0015,-0.1045891 A 4.4990126,4.244919 0 0 0 9.8249429,0.21398613 Z"
     id="rect834"
     inkscape:connector-curvature="0" />
</svg>
