<?xml version="1.0" encoding="UTF-8" standalone="no"?>
<svg
   xmlns:dc="http://purl.org/dc/elements/1.1/"
   xmlns:cc="http://creativecommons.org/ns#"
   xmlns:rdf="http://www.w3.org/1999/02/22-rdf-syntax-ns#"
   xmlns:svg="http://www.w3.org/2000/svg"
   xmlns="http://www.w3.org/2000/svg"
   xmlns:sodipodi="http://sodipodi.sourceforge.net/DTD/sodipodi-0.dtd"
   xmlns:inkscape="http://www.inkscape.org/namespaces/inkscape"
   height="16"
   width="16.002"
   version="1.1"
   id="svg4"
   sodipodi:docname="weather-fog-symbolic.svg"
   inkscape:version="0.92.3 (2405546, 2018-03-11)">
  <metadata
     id="metadata10">
    <rdf:RDF>
      <cc:Work
         rdf:about="">
        <dc:format>image/svg+xml</dc:format>
        <dc:type
           rdf:resource="http://purl.org/dc/dcmitype/StillImage" />
        <dc:title></dc:title>
      </cc:Work>
    </rdf:RDF>
  </metadata>
  <defs
     id="defs8" />
  <sodipodi:namedview
     pagecolor="#ffffff"
     bordercolor="#666666"
     borderopacity="1"
     objecttolerance="10"
     gridtolerance="10"
     guidetolerance="10"
     inkscape:pageopacity="0"
     inkscape:pageshadow="2"
     inkscape:window-width="1920"
     inkscape:window-height="1474"
     id="namedview6"
     showgrid="false"
     inkscape:zoom="14.75"
     inkscape:cx="9.7966198"
     inkscape:cy="9.1043193"
     inkscape:window-x="0"
     inkscape:window-y="27"
     inkscape:window-maximized="0"
     inkscape:current-layer="svg4" />
  <path
     style="opacity:1;fill:#808080;fill-opacity:1;stroke:none;stroke-width:0.44185147;stroke-linecap:butt;stroke-linejoin:bevel;stroke-miterlimit:4;stroke-dasharray:none;stroke-opacity:1;paint-order:fill markers stroke"
     d="m 9.8759464,1.1024397 a 4.6222223,4.4340474 0 0 0 -3.884721,2.171722 3.1824362,3.0528763 0 0 0 -0.983334,-0.133234 3.1824362,3.0528763 0 0 0 -3.123611,3.091042 3.1824362,3.0528763 0 0 0 0.007,0.130571 c -1.074007,0.167685 -1.89028,1.049972 -1.89028,2.129089 v 0.445003 c 0,1.1994493 1.006591,2.1650623 2.256944,2.1650623 H 13.744056 c 1.250352,0 2.256944,-0.965613 2.256944,-2.1650623 v -0.445003 c 0,-0.949807 -0.635843,-1.745299 -1.519445,-2.038489 a 4.6222223,4.4340474 0 0 0 0.101395,-0.917987 l -0.0015,-0.10925 A 4.6222223,4.4340474 0 0 0 9.8759364,1.1024397 Z"
     id="rect834"
     inkscape:connector-curvature="0" />
  <rect
     style="opacity:1;fill:none;fill-opacity:0.38039216;stroke:#808080;stroke-width:0.69999999;stroke-miterlimit:4;stroke-dasharray:none;stroke-opacity:1"
     id="rect832"
     width="10.644068"
     height="0.61016947"
     x="2.6789665"
     y="12.067796"
     ry="0.30508474" />
  <rect
     ry="0.30508474"
     y="14.067796"
     x="2.6789665"
     height="0.61016947"
     width="10.644068"
     id="rect835"
     style="opacity:1;fill:none;fill-opacity:0.38039216;stroke:#808080;stroke-width:0.69999999;stroke-miterlimit:4;stroke-dasharray:none;stroke-opacity:1" />
</svg>
