<?xml version="1.0" encoding="UTF-8" standalone="no"?>
<svg
   xmlns:dc="http://purl.org/dc/elements/1.1/"
   xmlns:cc="http://creativecommons.org/ns#"
   xmlns:rdf="http://www.w3.org/1999/02/22-rdf-syntax-ns#"
   xmlns:svg="http://www.w3.org/2000/svg"
   xmlns="http://www.w3.org/2000/svg"
   xmlns:sodipodi="http://sodipodi.sourceforge.net/DTD/sodipodi-0.dtd"
   xmlns:inkscape="http://www.inkscape.org/namespaces/inkscape"
   height="16"
   width="16"
   version="1.1"
   id="svg8"
   sodipodi:docname="weather-overcast-symbolic.svg"
   inkscape:version="0.92.3 (2405546, 2018-03-11)">
  <metadata
     id="metadata14">
    <rdf:RDF>
      <cc:Work
         rdf:about="">
        <dc:format>image/svg+xml</dc:format>
        <dc:type
           rdf:resource="http://purl.org/dc/dcmitype/StillImage" />
        <dc:title />
      </cc:Work>
    </rdf:RDF>
  </metadata>
  <defs
     id="defs12" />
  <sodipodi:namedview
     pagecolor="#ffffff"
     bordercolor="#666666"
     borderopacity="1"
     objecttolerance="10"
     gridtolerance="10"
     guidetolerance="10"
     inkscape:pageopacity="0"
     inkscape:pageshadow="2"
     inkscape:window-width="1920"
     inkscape:window-height="1474"
     id="namedview10"
     showgrid="false"
     inkscape:zoom="14.75"
     inkscape:cx="-4.4745762"
     inkscape:cy="8"
     inkscape:window-x="0"
     inkscape:window-y="27"
     inkscape:window-maximized="0"
     inkscape:current-layer="svg8" />
  <path
     style="opacity:1;fill:none;fill-opacity:1;stroke:#808080;stroke-width:0.35272601;stroke-linecap:butt;stroke-linejoin:bevel;stroke-miterlimit:4;stroke-dasharray:none;stroke-opacity:1;paint-order:fill markers stroke"
     d="M 10.742018,0.87185979 A 3.8348319,3.4058637 0 0 0 7.5190549,2.5399948 2.6403117,2.3449638 0 0 0 6.7032302,2.4376557 2.6403117,2.3449638 0 0 0 4.111723,4.8119354 2.6403117,2.3449638 0 0 0 4.117523,4.9122285 C 3.2264657,5.0410304 2.5492444,5.7187295 2.5492444,6.5476162 V 6.889431 c 0,0.9213162 0.835119,1.6630187 1.872476,1.6630187 h 9.5294416 c 1.037355,0 1.872475,-0.7417025 1.872475,-1.6630187 V 6.5476162 c 0,-0.7295611 -0.527527,-1.3405923 -1.260608,-1.565796 a 3.8348319,3.4058637 0 0 0 0.08412,-0.7051211 l -0.0013,-0.083916 A 3.8348319,3.4058637 0 0 0 10.741984,0.87185979 Z"
     id="rect834"
     inkscape:connector-curvature="0" />
  <path
     inkscape:connector-curvature="0"
     id="path827"
     d="M 8.3691366,5.7532157 A 3.8348319,3.4058637 0 0 0 5.1461735,7.4213507 2.6403117,2.3449638 0 0 0 4.3303488,7.3190116 2.6403117,2.3449638 0 0 0 1.7388416,9.6932913 a 2.6403117,2.3449638 0 0 0 0.0058,0.1002931 C 0.8535843,9.9223863 0.17636301,10.600085 0.17636301,11.428972 v 0.341815 c 0,0.921316 0.83511899,1.663019 1.87247599,1.663019 h 9.529442 c 1.037355,0 1.872475,-0.741703 1.872475,-1.663019 v -0.341815 c 0,-0.729561 -0.527527,-1.340592 -1.260608,-1.5657959 a 3.8348319,3.4058637 0 0 0 0.08412,-0.7051211 l -0.0013,-0.083916 A 3.8348319,3.4058637 0 0 0 8.3691026,5.7532157 Z"
     style="opacity:1;fill:#808080;fill-opacity:1;stroke:#808080;stroke-width:0.35272601;stroke-linecap:butt;stroke-linejoin:bevel;stroke-miterlimit:4;stroke-dasharray:none;stroke-opacity:1;paint-order:fill markers stroke" />
</svg>
