<?xml version="1.0" encoding="UTF-8" standalone="no"?>
<svg
   xmlns:dc="http://purl.org/dc/elements/1.1/"
   xmlns:cc="http://creativecommons.org/ns#"
   xmlns:rdf="http://www.w3.org/1999/02/22-rdf-syntax-ns#"
   xmlns:svg="http://www.w3.org/2000/svg"
   xmlns="http://www.w3.org/2000/svg"
   xmlns:sodipodi="http://sodipodi.sourceforge.net/DTD/sodipodi-0.dtd"
   xmlns:inkscape="http://www.inkscape.org/namespaces/inkscape"
   height="16"
   width="16"
   version="1.1"
   id="svg4"
   sodipodi:docname="weather-few-clouds-night-symbolic.svg"
   inkscape:version="0.92.3 (2405546, 2018-03-11)">
  <metadata
     id="metadata10">
    <rdf:RDF>
      <cc:Work
         rdf:about="">
        <dc:format>image/svg+xml</dc:format>
        <dc:type
           rdf:resource="http://purl.org/dc/dcmitype/StillImage" />
        <dc:title></dc:title>
      </cc:Work>
    </rdf:RDF>
  </metadata>
  <defs
     id="defs8">
    <clipPath
       clipPathUnits="userSpaceOnUse"
       id="clipPath1127">
      <rect
         style="fill:#4d4d4d;fill-opacity:1;stroke:none;stroke-width:1.00162208;stroke-miterlimit:10;stroke-dasharray:none;stroke-opacity:1"
         id="rect1129"
         width="113.66741"
         height="54.624001"
         x="-328.80466"
         y="121.6497" />
    </clipPath>
    <clipPath
       clipPathUnits="userSpaceOnUse"
       id="clipPath1127-3">
      <rect
         style="fill:#4d4d4d;fill-opacity:1;stroke:none;stroke-width:1.00162208;stroke-miterlimit:10;stroke-dasharray:none;stroke-opacity:1"
         id="rect1129-6"
         width="113.66741"
         height="54.624001"
         x="-328.80466"
         y="121.6497" />
    </clipPath>
  </defs>
  <sodipodi:namedview
     pagecolor="#ffffff"
     bordercolor="#666666"
     borderopacity="1"
     objecttolerance="10"
     gridtolerance="10"
     guidetolerance="10"
     inkscape:pageopacity="0"
     inkscape:pageshadow="2"
     inkscape:window-width="1920"
     inkscape:window-height="1474"
     id="namedview6"
     showgrid="false"
     inkscape:zoom="29.5"
     inkscape:cx="8.7051247"
     inkscape:cy="1.7243105"
     inkscape:window-x="0"
     inkscape:window-y="27"
     inkscape:window-maximized="0"
     inkscape:current-layer="svg4" />
  <path
     style="opacity:1;fill:none;fill-opacity:1;stroke:#808080;stroke-width:0.32410568;stroke-linecap:butt;stroke-linejoin:bevel;stroke-miterlimit:4;stroke-dasharray:none;stroke-opacity:1;paint-order:fill markers stroke"
     d="m 10.861412,9.184587 a 3.7408664,2.9478109 0 0 0 -3.1439899,1.443787 2.5756157,2.0295908 0 0 0 -0.795834,-0.08858 2.5756157,2.0295908 0 0 0 -2.528008,2.054965 2.5756157,2.0295908 0 0 0 0.0057,0.0868 c -0.869218,0.111475 -1.529846,0.698034 -1.529846,1.415443 v 0.295849 c 0,0.79741 0.814657,1.439361 1.826595,1.439361 h 9.2959629 c 1.011938,0 1.826595,-0.641951 1.826595,-1.439361 v -0.295846 c 0,-0.631443 -0.514602,-1.160296 -1.22972,-1.355214 a 3.7408664,2.9478109 0 0 0 0.08206,-0.610288 l -0.0012,-0.07262 A 3.7408664,2.9478109 0 0 0 10.861404,9.184587 Z"
     id="rect834"
     inkscape:connector-curvature="0" />
  <path
     style="display:inline;fill:none;stroke:#808080;stroke-width:11.85185337;stroke-linecap:butt;stroke-linejoin:miter;stroke-miterlimit:10;stroke-opacity:1"
     inkscape:connector-curvature="0"
     id="path6"
     stroke-miterlimit="10"
     d="m -224.09259,169.85742 c -0.0108,-26.17481 -21.23262,-42.41202 -47.40741,-42.41202 -26.17479,0 -47.39666,21.21312 -47.40741,47.38792 0.009,19.31213 11.72803,36.68976 29.62963,43.93483 v 44.95408 h 35.55556 v -44.95408 c 17.9016,-7.24507 29.62107,-29.59861 29.62963,-48.91073 z"
     clip-path="url(#clipPath1127)"
     transform="matrix(0,0.0754096,-0.07834366,0,62.966819,21.766133)"
     sodipodi:nodetypes="cscccccc" />
  <path
     style="display:inline;fill:none;stroke:#808080;stroke-width:11.85185337;stroke-linecap:butt;stroke-linejoin:miter;stroke-miterlimit:10;stroke-opacity:1"
     inkscape:connector-curvature="0"
     id="path6-7"
     stroke-miterlimit="10"
     d="m -224.09259,174.83332 a 47.407414,47.407414 0 0 0 -94.81482,0 47.419266,47.419266 0 0 0 29.62963,43.93483 v 44.95408 h 35.55556 v -44.95408 a 47.419266,47.419266 0 0 0 29.62963,-43.93483 z"
     clip-path="url(#clipPath1127-3)"
     transform="matrix(0,0.07525266,-0.03977798,0,56.168704,21.716084)" />
  <path
     sodipodi:type="star"
     style="opacity:1;fill:none;fill-opacity:0.38039216;stroke:#808080;stroke-width:0.69999999;stroke-miterlimit:4;stroke-dasharray:none;stroke-opacity:1"
     id="path843"
     sodipodi:sides="3"
     sodipodi:cx="39.542374"
     sodipodi:cy="-4.2033901"
     sodipodi:r1="0.084745765"
     sodipodi:r2="0.042372882"
     sodipodi:arg1="1.5707963"
     sodipodi:arg2="2.6179939"
     inkscape:flatsided="false"
     inkscape:rounded="0"
     inkscape:randomized="0"
     d="m 39.542374,-4.1186444 -0.0367,-0.063559 -0.0367,-0.063559 0.07339,0 0.07339,0 -0.0367,0.063559 z"
     transform="matrix(0,-0.66522758,-0.35325856,0,47.545064,24.018312)"
     inkscape:transform-center-x="0.0074841851" />
  <path
     inkscape:transform-center-x="0.0065912382"
     transform="matrix(0,-0.66522758,-0.31112391,0,47.723958,31.170854)"
     d="m 39.542374,-4.1186444 -0.0367,-0.063559 -0.0367,-0.063559 0.07339,0 0.07339,0 -0.0367,0.063559 z"
     inkscape:randomized="0"
     inkscape:rounded="0"
     inkscape:flatsided="false"
     sodipodi:arg2="2.6179939"
     sodipodi:arg1="1.5707963"
     sodipodi:r2="0.042372882"
     sodipodi:r1="0.084745765"
     sodipodi:cy="-4.2033901"
     sodipodi:cx="39.542374"
     sodipodi:sides="3"
     id="path845"
     style="opacity:1;fill:none;fill-opacity:0.38039216;stroke:#808080;stroke-width:0.69999999;stroke-miterlimit:4;stroke-dasharray:none;stroke-opacity:1"
     sodipodi:type="star" />
  <path
     style="opacity:1;fill:#808080;fill-opacity:1;stroke:none;stroke-width:0.7540763;stroke-miterlimit:4;stroke-dasharray:none;stroke-opacity:1"
     d="M 1.9847128,11.087673 A 5.0312017,5.7885711 11.203862 0 0 8.7640677,8.060876 5.0312017,5.7885711 11.203862 0 0 6.466152,0.49469011 5.0312017,5.7885711 11.203862 0 0 3.910754,0.07389261 5.3576297,4.9828964 55.364168 0 1 4.8563954,0.43619341 5.3576297,4.9828964 55.364168 0 1 7.5840583,7.4707707 5.3576297,4.9828964 55.364168 0 1 0.89629892,9.7968559 5.3576297,4.9828964 55.364168 0 1 0.02877606,9.2549469 5.0312017,5.7885711 11.203862 0 0 1.9847122,11.087676 Z"
     id="path847"
     inkscape:connector-curvature="0" />
</svg>
