<?xml version="1.0" encoding="UTF-8" standalone="no"?>
<svg
   xmlns:dc="http://purl.org/dc/elements/1.1/"
   xmlns:cc="http://creativecommons.org/ns#"
   xmlns:rdf="http://www.w3.org/1999/02/22-rdf-syntax-ns#"
   xmlns:svg="http://www.w3.org/2000/svg"
   xmlns="http://www.w3.org/2000/svg"
   xmlns:xlink="http://www.w3.org/1999/xlink"
   xmlns:sodipodi="http://sodipodi.sourceforge.net/DTD/sodipodi-0.dtd"
   xmlns:inkscape="http://www.inkscape.org/namespaces/inkscape"
   sodipodi:docname="master.svg"
   inkscape:version="1.0rc1 (1.0rc1+100)"
   id="svg8"
   version="1.1"
   viewBox="0 0 4.2333332 4.2333335"
   height="16"
   width="16">
  <defs
     id="defs2">
    <clipPath
       clipPathUnits="userSpaceOnUse"
       id="clipPath19452">
      <rect
         ry="2.1276979"
         y="0.0105"
         x="5.8722024"
         height="8.951005"
         width="4.2553959"
         id="rect19454"
         style="opacity:1;fill:#808080;fill-opacity:1;fill-rule:nonzero;stroke:none;stroke-width:0.796688;stroke-linecap:butt;stroke-linejoin:bevel;stroke-miterlimit:4;stroke-dasharray:none;stroke-opacity:1;paint-order:fill markers stroke" />
    </clipPath>
    <clipPath
       id="clip1-8">
      <path
         inkscape:connector-curvature="0"
         d="M 0,0 H 131.8125 V 194.17187 H 0 Z m 0,0"
         id="path2-4" />
    </clipPath>
    <clipPath
       id="clip1-8-3">
      <path
         inkscape:connector-curvature="0"
         d="M 0,0 H 131.8125 V 194.17187 H 0 Z m 0,0"
         id="path2-4-6" />
    </clipPath>
    <clipPath
       id="clip261-3">
      <path
         inkscape:connector-curvature="0"
         d="m 103,95 h 28.8125 v 26 H 103 Z m 0,0"
         id="path1591-7" />
    </clipPath>
    <clipPath
       id="clip1-8-3-7">
      <path
         inkscape:connector-curvature="0"
         d="M 0,0 H 131.8125 V 194.17187 H 0 Z m 0,0"
         id="path2-4-6-0" />
    </clipPath>
    <clipPath
       id="clip261-3-3">
      <path
         inkscape:connector-curvature="0"
         d="m 103,95 h 28.8125 v 26 H 103 Z m 0,0"
         id="path1591-7-6" />
    </clipPath>
    <clipPath
       id="clip1-8-3-9">
      <path
         inkscape:connector-curvature="0"
         d="M 0,0 H 131.8125 V 194.17187 H 0 Z m 0,0"
         id="path2-4-6-7" />
    </clipPath>
    <clipPath
       id="clip261-3-3-3">
      <path
         inkscape:connector-curvature="0"
         d="m 103,95 h 28.8125 v 26 H 103 Z m 0,0"
         id="path1591-7-6-6" />
    </clipPath>
    <clipPath
       id="clip1-8-3-8">
      <path
         inkscape:connector-curvature="0"
         d="M 0,0 H 131.8125 V 194.17187 H 0 Z m 0,0"
         id="path2-4-6-6" />
    </clipPath>
    <clipPath
       id="clip261-3-3-8">
      <path
         inkscape:connector-curvature="0"
         d="m 103,95 h 28.8125 v 26 H 103 Z m 0,0"
         id="path1591-7-6-8" />
    </clipPath>
    <clipPath
       clipPathUnits="userSpaceOnUse"
       id="clipPath844">
      <rect
         style="opacity:1;fill:#008080;fill-opacity:1;stroke:none;stroke-width:1.10936;stroke-linecap:butt;stroke-linejoin:bevel;stroke-miterlimit:10;stroke-dasharray:none;stroke-opacity:1;paint-order:fill markers stroke"
         id="rect847-6"
         width="12.291875"
         height="12.466972"
         x="0.99531424"
         y="0.1680488" />
    </clipPath>
    <radialGradient
       cx="23.688078"
       cy="14.210698"
       r="22.597088"
       fx="23.688078"
       fy="14.210698"
       id="radialGradient3240-1-1"
       xlink:href="#linearGradient5188"
       gradientUnits="userSpaceOnUse"
       gradientTransform="matrix(-0.98035109,0,0,0.96884761,10.578199,408.06248)" />
    <linearGradient
       id="linearGradient5188">
      <stop
         id="stop5190"
         style="stop-color:#ffffff;stop-opacity:1"
         offset="0" />
      <stop
         id="stop5192"
         style="stop-color:#91999f;stop-opacity:1;"
         offset="1" />
    </linearGradient>
    <radialGradient
       cx="20.089987"
       cy="10.853651"
       r="22.597088"
       fx="20.089987"
       fy="10.853651"
       id="radialGradient3242-2-5"
       xlink:href="#linearGradient5196"
       gradientUnits="userSpaceOnUse"
       gradientTransform="matrix(-0.82180048,0,0,0.81215792,5.4884716,409.76973)" />
    <linearGradient
       id="linearGradient5196">
      <stop
         id="stop5198"
         style="stop-color:#dfe2dc;stop-opacity:1"
         offset="0" />
      <stop
         id="stop5200"
         style="stop-color:#86917a;stop-opacity:1"
         offset="1" />
    </linearGradient>
    <linearGradient
       id="linearGradient5060">
      <stop
         id="stop5062"
         style="stop-color:#000000;stop-opacity:1"
         offset="0" />
      <stop
         id="stop5064"
         style="stop-color:#000000;stop-opacity:0"
         offset="1" />
    </linearGradient>
    <radialGradient
       cx="23.688078"
       cy="14.210698"
       r="22.597088"
       fx="23.688078"
       fy="14.210698"
       id="radialGradient3150-5-6"
       xlink:href="#linearGradient5188"
       gradientUnits="userSpaceOnUse"
       gradientTransform="matrix(0.25938456,0,0,0.25634093,-13.547687,107.17213)" />
    <radialGradient
       cx="20.089987"
       cy="10.853651"
       r="22.597088"
       fx="20.089987"
       fy="10.853651"
       id="radialGradient3152-9-9"
       xlink:href="#linearGradient5196"
       gradientUnits="userSpaceOnUse"
       gradientTransform="matrix(0.21743471,0,0,0.21488345,-12.201033,107.62384)" />
    <radialGradient
       cx="23.688078"
       cy="14.210698"
       r="22.597088"
       fx="23.688078"
       fy="14.210698"
       id="radialGradient16536-3-7"
       xlink:href="#linearGradient5188"
       gradientUnits="userSpaceOnUse"
       gradientTransform="matrix(0.25938456,0,0,0.25634093,-15.550634,107.75183)" />
    <radialGradient
       cx="20.089987"
       cy="10.853651"
       r="22.597088"
       fx="20.089987"
       fy="10.853651"
       id="radialGradient16538-7-1"
       xlink:href="#linearGradient5196"
       gradientUnits="userSpaceOnUse"
       gradientTransform="matrix(0.21743471,0,0,0.21488345,-14.203978,108.20353)" />
    <radialGradient
       cx="23.688078"
       cy="14.210698"
       r="22.597088"
       fx="23.688078"
       fy="14.210698"
       id="radialGradient16558-9-9"
       xlink:href="#linearGradient5188"
       gradientUnits="userSpaceOnUse"
       gradientTransform="matrix(0,0.25938456,-0.25634093,0,-0.8728486,105.81925)" />
    <radialGradient
       cx="20.089987"
       cy="10.853651"
       r="22.597088"
       fx="20.089987"
       fy="10.853651"
       id="radialGradient16560-4-7"
       xlink:href="#linearGradient5196"
       gradientUnits="userSpaceOnUse"
       gradientTransform="matrix(0,0.21743471,-0.21488345,0,-1.3245554,107.1659)" />
    <linearGradient
       id="linearGradient5162">
      <stop
         id="stop5164"
         style="stop-color:#939a9d;stop-opacity:1;"
         offset="0" />
      <stop
         id="stop5166"
         style="stop-color:#ffffff;stop-opacity:1"
         offset="1" />
    </linearGradient>
    <clipPath
       clipPathUnits="userSpaceOnUse"
       id="clipPath846">
      <circle
         style="display:inline;opacity:0.5;fill:#80ff80;fill-opacity:1;stroke:none;stroke-width:0.00150643px;stroke-linecap:butt;stroke-linejoin:miter;stroke-miterlimit:4;stroke-dasharray:none;stroke-dashoffset:0;stroke-opacity:1;marker:none;marker-start:none;marker-mid:none;marker-end:none;paint-order:normal;enable-background:new"
         id="circle848"
         cx="8"
         cy="8"
         r="8" />
    </clipPath>
    <clipPath
       clipPathUnits="userSpaceOnUse"
       id="clipPath865">
      <circle
         style="opacity:1;fill:#ff8080;fill-opacity:1;stroke:none;stroke-width:0.816691;stroke-linecap:butt;stroke-linejoin:bevel;stroke-miterlimit:10;stroke-dasharray:none;stroke-opacity:1;paint-order:fill markers stroke"
         id="circle867"
         cx="8"
         cy="8"
         r="8" />
    </clipPath>
    <clipPath
       clipPathUnits="userSpaceOnUse"
       id="clipPath865-3">
      <circle
         style="opacity:1;fill:#ff8080;fill-opacity:1;stroke:none;stroke-width:0.816691;stroke-linecap:butt;stroke-linejoin:bevel;stroke-miterlimit:10;stroke-dasharray:none;stroke-opacity:1;paint-order:fill markers stroke"
         id="circle867-6"
         cx="8"
         cy="8"
         r="8" />
    </clipPath>
    <clipPath
       clipPathUnits="userSpaceOnUse"
       id="clipPath844-3">
      <rect
         style="opacity:1;fill:#008080;fill-opacity:1;stroke:none;stroke-width:1.10936;stroke-linecap:butt;stroke-linejoin:bevel;stroke-miterlimit:10;stroke-dasharray:none;stroke-opacity:1;paint-order:fill markers stroke"
         id="rect847-67"
         width="12.291875"
         height="12.466972"
         x="0.99531424"
         y="0.1680488" />
    </clipPath>
    <clipPath
       clipPathUnits="userSpaceOnUse"
       id="clipPath844-9">
      <rect
         style="opacity:1;fill:#008080;fill-opacity:1;stroke:none;stroke-width:1.10936;stroke-linecap:butt;stroke-linejoin:bevel;stroke-miterlimit:10;stroke-dasharray:none;stroke-opacity:1;paint-order:fill markers stroke"
         id="rect847-1"
         width="12.291875"
         height="12.466972"
         x="0.99531424"
         y="0.1680488" />
    </clipPath>
    <clipPath
       clipPathUnits="userSpaceOnUse"
       id="clipPath844-8">
      <rect
         style="opacity:1;fill:#008080;fill-opacity:1;stroke:none;stroke-width:1.10936;stroke-linecap:butt;stroke-linejoin:bevel;stroke-miterlimit:10;stroke-dasharray:none;stroke-opacity:1;paint-order:fill markers stroke"
         id="rect847-7"
         width="12.291875"
         height="12.466972"
         x="0.99531424"
         y="0.1680488" />
    </clipPath>
    <clipPath
       clipPathUnits="userSpaceOnUse"
       id="clipPath844-36">
      <rect
         style="opacity:1;fill:#008080;fill-opacity:1;stroke:none;stroke-width:1.10936;stroke-linecap:butt;stroke-linejoin:bevel;stroke-miterlimit:10;stroke-dasharray:none;stroke-opacity:1;paint-order:fill markers stroke"
         id="rect847-12"
         width="12.291875"
         height="12.466972"
         x="0.99531424"
         y="0.1680488" />
    </clipPath>
    <clipPath
       clipPathUnits="userSpaceOnUse"
       id="clipPath844-0">
      <rect
         style="opacity:1;fill:#008080;fill-opacity:1;stroke:none;stroke-width:1.10936;stroke-linecap:butt;stroke-linejoin:bevel;stroke-miterlimit:10;stroke-dasharray:none;stroke-opacity:1;paint-order:fill markers stroke"
         id="rect847-61"
         width="12.291875"
         height="12.466972"
         x="0.99531424"
         y="0.1680488" />
    </clipPath>
    <clipPath
       id="clipPath19452-2"
       clipPathUnits="userSpaceOnUse">
      <rect
         style="opacity:1;fill:#808080;fill-opacity:1;fill-rule:nonzero;stroke:none;stroke-width:0.796688;stroke-linecap:butt;stroke-linejoin:bevel;stroke-miterlimit:4;stroke-dasharray:none;stroke-opacity:1;paint-order:fill markers stroke"
         id="rect19454-7"
         width="4.2553959"
         height="8.951005"
         x="5.8722024"
         y="0.0105"
         ry="2.1276979" />
    </clipPath>
    <clipPath
       clipPathUnits="userSpaceOnUse"
       id="clipPath19452-3">
      <rect
         ry="2.1276979"
         y="0.0105"
         x="5.8722024"
         height="8.951005"
         width="4.2553959"
         id="rect19454-6"
         style="opacity:1;fill:#808080;fill-opacity:1;fill-rule:nonzero;stroke:none;stroke-width:0.796688;stroke-linecap:butt;stroke-linejoin:bevel;stroke-miterlimit:4;stroke-dasharray:none;stroke-opacity:1;paint-order:fill markers stroke" />
    </clipPath>
    <clipPath
       clipPathUnits="userSpaceOnUse"
       id="clipPath865-6">
      <circle
         style="opacity:1;fill:#ff8080;fill-opacity:1;stroke:none;stroke-width:0.816691;stroke-linecap:butt;stroke-linejoin:bevel;stroke-miterlimit:10;stroke-dasharray:none;stroke-opacity:1;paint-order:fill markers stroke"
         id="circle867-8"
         cx="8"
         cy="8"
         r="8" />
    </clipPath>
    <clipPath
       clipPathUnits="userSpaceOnUse"
       id="clipPath1859">
      <path
         style="display:inline;fill:#003059;fill-opacity:1;stroke:none;stroke-width:2.09765;enable-background:new"
         d="m -362.50001,302.74794 c -28.41064,0 -34.09343,5.45286 -39.77555,10.89585 l -52.4837,50.2673 c 0.54492,0.22303 1.16695,0.36625 1.8281,0.36625 h 180.86232 c 0.66115,0 1.28314,-0.14333 1.82812,-0.36625 l -52.48372,-50.2673 c -5.68214,-5.44299 -11.36487,-10.89585 -39.77557,-10.89585 z"
         id="path1861"
         inkscape:connector-curvature="0" />
    </clipPath>
    <clipPath
       clipPathUnits="userSpaceOnUse"
       id="clipPath1863">
      <path
         style="display:inline;fill:#003059;fill-opacity:1;stroke:none;stroke-width:2.09765;enable-background:new"
         d="m -578.12602,211.70049 -80.72932,-67.09133 c 0.55433,-0.23537 1.18712,-0.3865 1.85972,-0.3865 h 183.99131 c 0.67255,0 1.30536,0.15115 1.85969,0.3865 l -79.22449,67.09133 c -8.27458,6.96682 -20.77949,6.55501 -27.75691,0 z"
         id="path1865"
         inkscape:connector-curvature="0" />
    </clipPath>
    <clipPath
       clipPathUnits="userSpaceOnUse"
       id="clipPath1859-8">
      <path
         style="display:inline;fill:#003059;fill-opacity:1;stroke:none;stroke-width:2.09765;enable-background:new"
         d="m -362.50001,302.74794 c -28.41064,0 -34.09343,5.45286 -39.77555,10.89585 l -52.4837,50.2673 c 0.54492,0.22303 1.16695,0.36625 1.8281,0.36625 h 180.86232 c 0.66115,0 1.28314,-0.14333 1.82812,-0.36625 l -52.48372,-50.2673 c -5.68214,-5.44299 -11.36487,-10.89585 -39.77557,-10.89585 z"
         id="path1861-0"
         inkscape:connector-curvature="0" />
    </clipPath>
    <clipPath
       clipPathUnits="userSpaceOnUse"
       id="clipPath1863-2">
      <path
         style="display:inline;fill:#003059;fill-opacity:1;stroke:none;stroke-width:2.09765;enable-background:new"
         d="m -578.12602,211.70049 -80.72932,-67.09133 c 0.55433,-0.23537 1.18712,-0.3865 1.85972,-0.3865 h 183.99131 c 0.67255,0 1.30536,0.15115 1.85969,0.3865 l -79.22449,67.09133 c -8.27458,6.96682 -20.77949,6.55501 -27.75691,0 z"
         id="path1865-1"
         inkscape:connector-curvature="0" />
    </clipPath>
    <clipPath
       clipPathUnits="userSpaceOnUse"
       id="clipPath1158">
      <circle
         style="display:inline;fill:#ffe680;fill-opacity:1;stroke:none;stroke-width:2.7405;stroke-miterlimit:4;stroke-dasharray:none;stroke-opacity:1"
         id="circle1160"
         cx="124"
         cy="128"
         r="124" />
    </clipPath>
    <clipPath
       clipPathUnits="userSpaceOnUse"
       id="clipPath1158-9">
      <circle
         style="display:inline;fill:#ffe680;fill-opacity:1;stroke:none;stroke-width:2.7405;stroke-miterlimit:4;stroke-dasharray:none;stroke-opacity:1"
         id="circle1160-3"
         cx="124"
         cy="128"
         r="124" />
    </clipPath>
    <clipPath
       clipPathUnits="userSpaceOnUse"
       id="clipPath1112-6">
      <circle
         style="display:inline;fill:#17171d;fill-opacity:1;stroke:none;stroke-width:2.7405;stroke-miterlimit:4;stroke-dasharray:none;stroke-opacity:1"
         id="circle1114-7"
         cx="128"
         cy="128"
         r="124" />
    </clipPath>
    <clipPath
       clipPathUnits="userSpaceOnUse"
       id="clipPath844-6">
      <rect
         style="opacity:1;fill:#008080;fill-opacity:1;stroke:none;stroke-width:1.10936;stroke-linecap:butt;stroke-linejoin:bevel;stroke-miterlimit:10;stroke-dasharray:none;stroke-opacity:1;paint-order:fill markers stroke"
         id="rect847-9"
         width="12.291875"
         height="12.466972"
         x="0.99531424"
         y="0.1680488" />
    </clipPath>
  </defs>
  <sodipodi:namedview
     inkscape:pagecheckerboard="true"
     inkscape:window-maximized="1"
     inkscape:window-y="28"
     inkscape:window-x="65"
     inkscape:window-height="1020"
     inkscape:window-width="1855"
     units="px"
     showgrid="false"
     inkscape:document-rotation="0"
     inkscape:current-layer="layer1"
     inkscape:document-units="mm"
     inkscape:cy="-31.613762"
     inkscape:cx="21.104826"
     inkscape:zoom="4.5058376"
     inkscape:pageshadow="2"
     inkscape:pageopacity="0"
     borderopacity="1.0"
     bordercolor="#666666"
     pagecolor="#ffffff"
     id="base" />
  <metadata
     id="metadata5">
    <rdf:RDF>
      <cc:Work
         rdf:about="">
        <dc:format>image/svg+xml</dc:format>
        <dc:type
           rdf:resource="http://purl.org/dc/dcmitype/StillImage" />
        <dc:title />
      </cc:Work>
    </rdf:RDF>
  </metadata>
  <g
     id="layer1"
     inkscape:groupmode="layer"
     inkscape:label="Scalable"
     style="display:inline">
    <g
       transform="translate(0,-0.08747751)"
       inkscape:label="actions_view-app-grid-symbolic"
       id="actions_view-app-grid-symbolic">
      <path
         id="path6529"
         style="display:inline;opacity:1;fill:#808080;fill-opacity:1;stroke:none;stroke-width:0.119665"
         d="m 2.0913452,0.2646048 a 1.8520833,1.8520833 0 0 0 -1.82676204,1.852083 1.8520833,1.8520833 0 0 0 1.85208404,1.852084 1.8520833,1.8520833 0 0 0 1.852083,-1.852084 1.8520833,1.8520833 0 0 0 -1.852083,-1.852083 1.8520833,1.8520833 0 0 0 -0.02532,0 z m -1.033012,0.79375 h 0.423231 v 0.338481 0.08475 h -0.423231 v -0.08475 -0.254249 z m 0.84646,0 h 0.08475 0.33848 v 0.338481 0.08475 h -0.33848 -0.08475 v -0.08475 -0.254249 z m 0.84646,0 h 0.423747 v 0.338481 0.08475 h -0.423747 v -0.338999 z m -1.608687,0.08423 v 0.254249 h 0.254248 v -0.254247 z m 0.846977,0 v 0.254249 h 0.253731 v -0.254247 z m 0.84646,0 v 0.254249 h 0.254248 v -0.254247 z m -1.77767,0.762228 h 0.423231 v 0.338479 0.0847 h -0.423231 v -0.0847 -0.25373 z m 0.84646,0 h 0.42323 v 0.338479 0.0847 h -0.42323 v -0.338479 z m 0.84646,0 h 0.423747 v 0.338479 0.0847 h -0.423747 v -0.338479 z m -1.608687,0.08475 v 0.253729 h 0.254248 v -0.253729 z m 0.846977,0 v 0.253729 h 0.253731 v -0.253729 z m 0.84646,0 v 0.253729 h 0.254248 v -0.253729 z m -1.77767,0.761709 h 0.423231 v 0.339 0.0847 h -0.423231 v -0.0847 -0.25425 z m 0.84646,0 h 0.42323 v 0.339 0.0847 h -0.42323 v -0.339 z m 0.84646,0 h 0.423747 v 0.339 0.0847 h -0.423747 v -0.339 z m -1.608687,0.0847 v 0.25425 h 0.254248 v -0.25425 z m 0.846977,0 v 0.25425 h 0.253731 v -0.25425 z m 0.84646,0 v 0.25425 h 0.254248 v -0.25425 z"
         inkscape:connector-curvature="0" />
      <rect
         style="color:#bebebe;display:inline;overflow:visible;visibility:visible;opacity:0;fill:#ffffff;fill-opacity:0;stroke:none;stroke-width:0.264583;marker:none;enable-background:new"
         id="rect6465"
         y="1.11262e-07"
         x="1.11262e-07"
         height="4.2333331"
         width="4.2333331" />
    </g>
    <g
       transform="translate(0.01489331)"
       inkscape:label="status_audio-volume-low-symbolic"
       id="status_audio-volume-low-symbolic">
      <path
         inkscape:connector-curvature="0"
         d="m 10.945089,0.25800658 a 0.09880889,0.09880889 0 0 0 -0.06615,0.027906 L 9.9725388,1.1695786 H 8.9317766 a 0.09880889,0.09880889 0 0 0 -0.098703,0.098703 v 1.5311727 a 0.09880889,0.09880889 0 0 0 0.098703,0.098184 h 0.9730662 l 0.9772012,0.8774665 a 0.09880889,0.09880889 0 0 0 0.164849,-0.073898 V 0.35670668 a 0.09880889,0.09880889 0 0 0 -0.101804,-0.0987001 z m 0.384474,1.08313802 a 0.092965,0.092965 0 0 0 -0.0057,5.291e-4 0.092965,0.092965 0 0 0 -0.0027,0.185002 c 0.242023,0.027951 0.422712,0.2149052 0.422712,0.4392507 0,0.2235332 -0.180795,0.4121599 -0.422196,0.438732 a 0.092965,0.092965 0 1 0 0.02016,0.1844834 c 0.327671,-0.036068 0.587566,-0.2997438 0.587566,-0.6232154 0,-0.3240352 -0.260006,-0.5859648 -0.587044,-0.6237367 a 0.092965,0.092965 0 0 0 -0.01291,-0.00106 z"
         style="color:#000000;font-style:normal;font-variant:normal;font-weight:normal;font-stretch:normal;font-size:medium;line-height:normal;font-family:sans-serif;font-variant-ligatures:normal;font-variant-position:normal;font-variant-caps:normal;font-variant-numeric:normal;font-variant-alternates:normal;font-feature-settings:normal;text-indent:0;text-align:start;text-decoration:none;text-decoration-line:none;text-decoration-style:solid;text-decoration-color:#000000;letter-spacing:normal;word-spacing:normal;text-transform:none;writing-mode:lr-tb;direction:ltr;text-orientation:mixed;dominant-baseline:auto;baseline-shift:baseline;text-anchor:start;white-space:normal;shape-padding:0;clip-rule:nonzero;display:inline;overflow:visible;visibility:visible;isolation:auto;mix-blend-mode:normal;color-interpolation:sRGB;color-interpolation-filters:linearRGB;solid-color:#000000;solid-opacity:1;vector-effect:none;fill:#808080;fill-opacity:1;fill-rule:nonzero;stroke:none;stroke-width:0.197598;stroke-linecap:round;stroke-linejoin:round;stroke-miterlimit:10;stroke-dasharray:none;stroke-dashoffset:0;stroke-opacity:1;color-rendering:auto;image-rendering:auto;shape-rendering:auto;text-rendering:auto;enable-background:accumulate"
         id="path3657" />
      <rect
         style="color:#bebebe;display:inline;overflow:visible;visibility:visible;opacity:0;fill:#ffffff;fill-opacity:0;stroke:none;stroke-width:0.264583;marker:none;enable-background:new"
         id="rect6465-6"
         y="-0.087477572"
         x="8.8330736"
         height="4.2333331"
         width="4.2333331" />
    </g>
    <g
       transform="translate(-0.0012475,0.00206792)"
       inkscape:label="status_audio-volume-high-symbolic"
       id="status_audio-volume-high-symbolic">
      <path
         inkscape:connector-curvature="0"
         d="m 19.809194,0.25594018 a 0.09880889,0.09880889 0 0 0 -0.06615,0.027903 l -0.9064,0.88366862 h -1.040762 a 0.09880889,0.09880889 0 0 0 -0.0987,0.0987 v 1.5311728 a 0.09880889,0.09880889 0 0 0 0.0987,0.098187 h 0.973066 l 0.977201,0.8774641 a 0.09880889,0.09880889 0 0 0 0.164849,-0.073895 V 0.35464028 a 0.09880889,0.09880889 0 0 0 -0.101804,-0.0987001 z m 0.347784,0.2883535 a 0.092965,0.092965 0 0 0 -0.0057,5.291e-4 0.092965,0.092965 0 0 0 -0.0026,0.185002 c 0.668819,0.07724 1.180288,0.60099042 1.180288,1.23661752 0,0.6337909 -0.511577,1.1609969 -1.179772,1.2345484 a 0.09304864,0.09304864 0 1 0 0.02016,0.1850019 c 0.75446,-0.08305 1.345655,-0.685821 1.345655,-1.4195503 0,-0.7353141 -0.591304,-1.33403982 -1.345139,-1.42110092 a 0.092965,0.092965 0 0 0 -0.01291,-0.00106 z m 0,0.3984254 a 0.092965,0.092965 0 0 0 -0.0057,5.292e-4 0.092965,0.092965 0 0 0 -0.0026,0.18500192 c 0.455422,0.052599 0.8015,0.4082071 0.8015,0.8381921 0,0.428662 -0.346186,0.7860612 -0.800984,0.8361256 a 0.09304733,0.09304733 0 1 0 0.02016,0.1849993 c 0.541063,-0.059558 0.966351,-0.4925244 0.966351,-1.0211249 0,-0.5296747 -0.425397,-0.9602602 -0.965835,-1.02267542 a 0.092965,0.092965 0 0 0 -0.01291,-0.00106 z m 0.01654,0.39842552 a 0.092965,0.092965 0 0 0 -0.0057,5.291e-4 0.092965,0.092965 0 0 0 -0.0026,0.185002 c 0.242023,0.027951 0.422712,0.2149052 0.422712,0.4392507 0,0.2235332 -0.180795,0.4121599 -0.422196,0.438732 a 0.092965,0.092965 0 1 0 0.02016,0.1844834 c 0.327665,-0.036068 0.58756,-0.2997438 0.58756,-0.6232154 0,-0.3240352 -0.260006,-0.5859648 -0.587044,-0.6237367 a 0.092965,0.092965 0 0 0 -0.01291,-0.00106 z"
         style="color:#000000;font-style:normal;font-variant:normal;font-weight:normal;font-stretch:normal;font-size:medium;line-height:normal;font-family:sans-serif;font-variant-ligatures:normal;font-variant-position:normal;font-variant-caps:normal;font-variant-numeric:normal;font-variant-alternates:normal;font-feature-settings:normal;text-indent:0;text-align:start;text-decoration:none;text-decoration-line:none;text-decoration-style:solid;text-decoration-color:#000000;letter-spacing:normal;word-spacing:normal;text-transform:none;writing-mode:lr-tb;direction:ltr;text-orientation:mixed;dominant-baseline:auto;baseline-shift:baseline;text-anchor:start;white-space:normal;shape-padding:0;clip-rule:nonzero;display:inline;overflow:visible;visibility:visible;isolation:auto;mix-blend-mode:normal;color-interpolation:sRGB;color-interpolation-filters:linearRGB;solid-color:#000000;solid-opacity:1;vector-effect:none;fill:#808080;fill-opacity:1;fill-rule:nonzero;stroke:none;stroke-width:0.185911;stroke-linecap:round;stroke-linejoin:round;stroke-miterlimit:10;stroke-dasharray:none;stroke-dashoffset:0;stroke-opacity:1;color-rendering:auto;image-rendering:auto;shape-rendering:auto;text-rendering:auto;enable-background:accumulate"
         id="path3487" />
      <rect
         style="color:#bebebe;display:inline;overflow:visible;visibility:visible;opacity:0;fill:#ffffff;fill-opacity:0;stroke:none;stroke-width:0.264583;marker:none;enable-background:new"
         id="rect6465-5"
         y="-0.089545324"
         x="17.697182"
         height="4.2333331"
         width="4.2333331" />
    </g>
    <g
       transform="translate(0,0.05694877)"
       inkscape:label="status_audio-volume-overamplified-symbolic"
       id="status_audio-volume-overamplified-symbolic">
      <path
         inkscape:connector-curvature="0"
         d="m 24.574028,0.14638407 a 0.092965,0.092965 0 0 0 -0.0026,0.185002 c 0.882219,0.101891 1.559076,0.79429243 1.559076,1.63555893 0,0.8389196 -0.676968,1.535414 -1.55856,1.6324579 a 0.09304864,0.09304864 0 1 0 0.02016,0.185002 c 0.967859,-0.1065398 1.724443,-0.8786019 1.724443,-1.8174599 0,-0.9409562 -0.756695,-1.70833523 -1.723927,-1.82004233 a 0.092965,0.092965 0 0 0 -0.0186,-5.291e-4 z m -0.342099,0.1095561 a 0.09880889,0.09880889 0 0 0 -0.06615,0.027903 l -0.9064,0.88366863 h -1.040762 a 0.09880889,0.09880889 0 0 0 -0.0987,0.0987 v 1.5311728 a 0.09880889,0.09880889 0 0 0 0.0987,0.098187 h 0.973066 l 0.977202,0.8774641 a 0.09880889,0.09880889 0 0 0 0.164848,-0.073895 V 0.35464027 a 0.09880889,0.09880889 0 0 0 -0.101804,-0.0987001 z m 0.347785,0.2883535 a 0.092965,0.092965 0 0 0 -0.0057,5.291e-4 0.092965,0.092965 0 0 0 -0.0026,0.185002 c 0.668819,0.07724 1.180288,0.60099043 1.180288,1.23661753 0,0.6337909 -0.511577,1.1609969 -1.179772,1.2345484 a 0.09304864,0.09304864 0 1 0 0.02016,0.1850019 c 0.754459,-0.08305 1.345654,-0.685821 1.345654,-1.4195503 0,-0.7353141 -0.591304,-1.33403983 -1.345139,-1.42110093 a 0.092965,0.092965 0 0 0 -0.01291,-0.00106 z m 0,0.3984254 a 0.092965,0.092965 0 0 0 -0.0057,5.292e-4 0.092965,0.092965 0 0 0 -0.0026,0.18500193 c 0.455422,0.052599 0.8015,0.4082071 0.8015,0.8381921 0,0.428662 -0.346186,0.7860612 -0.800984,0.8361256 a 0.09304733,0.09304733 0 1 0 0.02016,0.1849993 c 0.541062,-0.059558 0.96635,-0.4925244 0.96635,-1.0211249 0,-0.5296747 -0.425397,-0.9602602 -0.965835,-1.02267543 a 0.092965,0.092965 0 0 0 -0.01291,-0.00106 z m 0,0.39842553 a 0.09296499,0.09296499 0 0 0 -0.0057,5.291e-4 0.09296499,0.09296499 0 0 0 -0.0026,0.185002 c 0.242023,0.027951 0.422712,0.2149052 0.422712,0.4392507 0,0.2235332 -0.180798,0.4121599 -0.422196,0.438732 a 0.09296499,0.09296499 0 1 0 0.02016,0.1844834 c 0.327665,-0.036068 0.58756,-0.2997438 0.58756,-0.6232154 0,-0.3240352 -0.260006,-0.5859648 -0.587045,-0.6237367 a 0.09296499,0.09296499 0 0 0 -0.01291,-0.00106 z"
         style="color:#000000;font-style:normal;font-variant:normal;font-weight:normal;font-stretch:normal;font-size:medium;line-height:normal;font-family:sans-serif;font-variant-ligatures:normal;font-variant-position:normal;font-variant-caps:normal;font-variant-numeric:normal;font-variant-alternates:normal;font-feature-settings:normal;text-indent:0;text-align:start;text-decoration:none;text-decoration-line:none;text-decoration-style:solid;text-decoration-color:#000000;letter-spacing:normal;word-spacing:normal;text-transform:none;writing-mode:lr-tb;direction:ltr;text-orientation:mixed;dominant-baseline:auto;baseline-shift:baseline;text-anchor:start;white-space:normal;shape-padding:0;clip-rule:nonzero;display:inline;overflow:visible;visibility:visible;isolation:auto;mix-blend-mode:normal;color-interpolation:sRGB;color-interpolation-filters:linearRGB;solid-color:#000000;solid-opacity:1;vector-effect:none;fill:#808080;fill-opacity:1;fill-rule:nonzero;stroke:none;stroke-width:0.185911;stroke-linecap:round;stroke-linejoin:round;stroke-miterlimit:10;stroke-dasharray:none;stroke-dashoffset:0;stroke-opacity:1;color-rendering:auto;image-rendering:auto;shape-rendering:auto;text-rendering:auto;enable-background:accumulate"
         id="path4078-0-7-6-2-9-1-6" />
      <rect
         style="color:#bebebe;display:inline;overflow:visible;visibility:visible;opacity:0;fill:#ffffff;fill-opacity:0;stroke:none;stroke-width:0.264583;marker:none;enable-background:new"
         id="rect6465-35"
         y="-0.14442617"
         x="22.119917"
         height="4.2333331"
         width="4.2333331" />
    </g>
    <g
       transform="translate(0.20557228,-2.8837852)"
       inkscape:label="status_audio-volume-medium-symbolic"
       id="status_audio-volume-medium-symbolic">
      <rect
         style="color:#bebebe;display:inline;overflow:visible;visibility:visible;opacity:0;fill:#ffffff;fill-opacity:0;stroke:none;stroke-width:0.264583;marker:none;enable-background:new"
         id="rect6465-7"
         y="2.7963078"
         x="13.066379"
         height="4.2333331"
         width="4.2333331" />
      <path
         inkscape:connector-curvature="0"
         d="m 15.178499,3.1416789 a 0.09880889,0.09880889 0 0 0 -0.01394,0.00159 0.09880888,0.09880888 0 0 0 -0.01291,0.0031 0.09880889,0.09880889 0 0 0 -0.03566,0.019632 0.09880888,0.09880888 0 0 0 -0.0036,0.00362 l -0.906433,0.8831489 h -1.040762 a 0.09880888,0.09880888 0 0 0 -0.06253,0.022728 0.09880889,0.09880889 0 0 0 -5.29e-4,5.292e-4 0.09880888,0.09880888 0 0 0 -0.0093,0.00878 0.09880889,0.09880889 0 0 0 -0.0016,0.00212 0.09880888,0.09880888 0 0 0 -0.0072,0.00826 0.09880889,0.09880889 0 0 0 0,5.291e-4 0.09880888,0.09880888 0 0 0 -0.0067,0.011377 0.09880889,0.09880889 0 0 0 -0.0031,0.00722 0.09880888,0.09880888 0 0 0 -0.0026,0.00516 0.09880889,0.09880889 0 0 0 0,5.292e-4 0.09880888,0.09880888 0 0 0 -0.0031,0.012409 0.09880889,0.09880889 0 0 0 -0.0016,0.010345 0.09880888,0.09880888 0 0 0 -5.29e-4,0.0031 0.09880889,0.09880889 0 0 0 0,0.00106 0.09880888,0.09880888 0 0 0 0,0.00466 0.09880889,0.09880889 0 0 0 0,5.291e-4 v 1.5306543 5.292e-4 a 0.09880888,0.09880888 0 0 0 0.0011,0.012912 0.09880889,0.09880889 0 0 0 0,5.292e-4 0.09880888,0.09880888 0 0 0 0.0026,0.012912 0.09880889,0.09880889 0 0 0 0,5.291e-4 0.09880888,0.09880888 0 0 0 0.0047,0.012409 0.09880889,0.09880889 0 0 0 0.0036,0.00672 0.09880888,0.09880888 0 0 0 0.0026,0.00516 0.09880889,0.09880889 0 0 0 5.29e-4,5.292e-4 0.09880888,0.09880888 0 0 0 0.0078,0.010345 0.09880889,0.09880889 0 0 0 0,5.291e-4 0.09880888,0.09880888 0 0 0 0.0093,0.00929 0.09880889,0.09880889 0 0 0 0.01034,0.00878 0.09880889,0.09880889 0 0 0 5.29e-4,5.292e-4 0.09880889,0.09880889 0 0 0 0.02016,0.010345 0.09880888,0.09880888 0 0 0 0.0036,0.00159 0.09880889,0.09880889 0 0 0 5.3e-4,0 0.09880888,0.09880888 0 0 0 0.0031,0.00106 0.09880889,0.09880889 0 0 0 0.02119,0.00413 0.09880889,0.09880889 0 0 0 0.0021,0 0.09880888,0.09880888 0 0 0 0.0052,0 h 0.973066 l 0.977202,0.8774668 a 0.09880889,0.09880889 0 0 0 0.01035,0.00826 0.09880888,0.09880888 0 0 0 5.29e-4,0 0.09880889,0.09880889 0 0 0 0.02376,0.01188 0.09880888,0.09880888 0 0 0 0.04031,0.00466 0.09880889,0.09880889 0 0 0 0.05529,-0.023257 0.09880889,0.09880889 0 0 0 0.0052,-0.00516 0.09880888,0.09880888 0 0 0 0.0041,-0.00466 0.09880888,0.09880888 0 0 0 0.01241,-0.016536 0.09880888,0.09880888 0 0 0 0.01241,-0.038759 0.09880888,0.09880888 0 0 0 5.29e-4,-0.010345 v -3.344523 a 0.09880888,0.09880888 0 0 0 -0.0011,-0.013441 0.09880888,0.09880888 0 0 0 -0.0072,-0.026353 0.09880888,0.09880888 0 0 0 -0.01447,-0.022728 0.09880888,0.09880888 0 0 0 -0.02016,-0.0186 0.09880889,0.09880889 0 0 0 -0.01138,-0.00672 0.09880888,0.09880888 0 0 0 -0.02585,-0.00878 0.09880889,0.09880889 0 0 0 -0.01291,-0.00212 0.09880888,0.09880888 0 0 0 -0.0088,0 z m 0.384474,0.6847125 a 0.09296499,0.09296499 0 0 0 -0.0057,5.292e-4 0.09296499,0.09296499 0 0 0 -0.0027,0.1850019 c 0.455422,0.052599 0.801499,0.4082071 0.801499,0.838192 0,0.4286621 -0.346186,0.7860613 -0.800984,0.8361257 a 0.0930478,0.0930478 0 1 0 0.02017,0.1849993 c 0.541063,-0.059558 0.966349,-0.4925245 0.966351,-1.021125 0,-0.5296746 -0.425397,-0.9602628 -0.965835,-1.0226753 a 0.09296499,0.09296499 0 0 0 -0.01291,-0.00106 z m 0,0.3984254 a 0.09296499,0.09296499 0 0 0 -0.0057,5.292e-4 0.09296499,0.09296499 0 0 0 -0.0027,0.1850019 c 0.242022,0.027951 0.422711,0.2149052 0.422711,0.4392507 0,0.2235332 -0.180798,0.41216 -0.422196,0.4387321 a 0.09296499,0.09296499 0 1 0 0.02016,0.1844834 c 0.327666,-0.036065 0.587561,-0.2997438 0.587561,-0.6232155 0,-0.3240352 -0.260006,-0.5859648 -0.587045,-0.6237367 a 0.09296499,0.09296499 0 0 0 -0.01291,-0.00106 z"
         style="color:#000000;font-style:normal;font-variant:normal;font-weight:normal;font-stretch:normal;font-size:medium;line-height:normal;font-family:sans-serif;font-variant-ligatures:normal;font-variant-position:normal;font-variant-caps:normal;font-variant-numeric:normal;font-variant-alternates:normal;font-feature-settings:normal;text-indent:0;text-align:start;text-decoration:none;text-decoration-line:none;text-decoration-style:solid;text-decoration-color:#000000;letter-spacing:normal;word-spacing:normal;text-transform:none;writing-mode:lr-tb;direction:ltr;text-orientation:mixed;dominant-baseline:auto;baseline-shift:baseline;text-anchor:start;white-space:normal;shape-padding:0;clip-rule:nonzero;display:inline;overflow:visible;visibility:visible;isolation:auto;mix-blend-mode:normal;color-interpolation:sRGB;color-interpolation-filters:linearRGB;solid-color:#000000;solid-opacity:1;vector-effect:none;fill:#808080;fill-opacity:1;fill-rule:nonzero;stroke:none;stroke-width:0.197598;stroke-linecap:round;stroke-linejoin:round;stroke-miterlimit:10;stroke-dasharray:none;stroke-dashoffset:0;stroke-opacity:1;color-rendering:auto;image-rendering:auto;shape-rendering:auto;text-rendering:auto;enable-background:accumulate"
         id="path1970" />
    </g>
    <g
       transform="translate(-0.01488725)"
       inkscape:label="status_audio-volume-muted-symbolic"
       id="status_audio-volume-muted-symbolic">
      <rect
         style="color:#bebebe;display:inline;overflow:visible;visibility:visible;opacity:0;fill:#ffffff;fill-opacity:0;stroke:none;stroke-width:0.264583;marker:none;enable-background:new"
         id="rect6465-3"
         y="-0.087477401"
         x="4.4388709"
         height="4.2333331"
         width="4.2333331" />
      <path
         style="color:#000000;font-style:normal;font-variant:normal;font-weight:normal;font-stretch:normal;font-size:medium;line-height:normal;font-family:sans-serif;font-variant-ligatures:normal;font-variant-position:normal;font-variant-caps:normal;font-variant-numeric:normal;font-variant-alternates:normal;font-feature-settings:normal;text-indent:0;text-align:start;text-decoration:none;text-decoration-line:none;text-decoration-style:solid;text-decoration-color:#000000;letter-spacing:normal;word-spacing:normal;text-transform:none;writing-mode:lr-tb;direction:ltr;text-orientation:mixed;dominant-baseline:auto;baseline-shift:baseline;text-anchor:start;white-space:normal;shape-padding:0;clip-rule:nonzero;display:inline;overflow:visible;visibility:visible;isolation:auto;mix-blend-mode:normal;color-interpolation:sRGB;color-interpolation-filters:linearRGB;solid-color:#000000;solid-opacity:1;vector-effect:none;fill:#808080;fill-opacity:1;fill-rule:nonzero;stroke:none;stroke-width:0.19761;stroke-linecap:round;stroke-linejoin:round;stroke-miterlimit:10;stroke-dasharray:none;stroke-dashoffset:0;stroke-opacity:1;color-rendering:auto;image-rendering:auto;shape-rendering:auto;text-rendering:auto;enable-background:accumulate"
         d="m 7.1131944,0.64107572 a 0.09881499,0.09881499 0 0 0 -0.06795,0.03009 L 4.4676945,3.2487146 a 0.09885161,0.09885161 0 1 0 0.140056,0.1395381 L 7.1847814,0.81070272 a 0.09881499,0.09881499 0 0 0 -0.07158,-0.169623 z"
         id="path3839"
         inkscape:connector-curvature="0" />
      <path
         inkscape:connector-curvature="0"
         d="m 6.5508909,0.25801311 a 0.09880889,0.09880889 0 0 0 -0.06615,0.02791 L 5.5783359,1.1695891 h -1.040765 a 0.09880889,0.09880889 0 0 0 -0.0987,0.0987 v 1.531171 a 0.09880889,0.09880889 0 0 0 0.0987,0.09818 h 0.973069 l 0.977201,0.8774671 a 0.09880889,0.09880889 0 0 0 0.164846,-0.0739 V 0.35670711 a 0.09880889,0.09880889 0 0 0 -0.101801,-0.0987 z"
         style="color:#000000;font-style:normal;font-variant:normal;font-weight:normal;font-stretch:normal;font-size:medium;line-height:normal;font-family:sans-serif;font-variant-ligatures:normal;font-variant-position:normal;font-variant-caps:normal;font-variant-numeric:normal;font-variant-alternates:normal;font-feature-settings:normal;text-indent:0;text-align:start;text-decoration:none;text-decoration-line:none;text-decoration-style:solid;text-decoration-color:#000000;letter-spacing:normal;word-spacing:normal;text-transform:none;writing-mode:lr-tb;direction:ltr;text-orientation:mixed;dominant-baseline:auto;baseline-shift:baseline;text-anchor:start;white-space:normal;shape-padding:0;clip-rule:nonzero;display:inline;overflow:visible;visibility:visible;opacity:0.5;isolation:auto;mix-blend-mode:normal;color-interpolation:sRGB;color-interpolation-filters:linearRGB;solid-color:#000000;solid-opacity:1;vector-effect:none;fill:#808080;fill-opacity:1;fill-rule:nonzero;stroke:none;stroke-width:0.197598;stroke-linecap:round;stroke-linejoin:round;stroke-miterlimit:10;stroke-dasharray:none;stroke-dashoffset:0;stroke-opacity:1;color-rendering:auto;image-rendering:auto;shape-rendering:auto;text-rendering:auto;enable-background:accumulate"
         id="path1981" />
    </g>
  </g>
</svg>
