<?xml version="1.0" encoding="UTF-8" standalone="no"?>
<svg
   xmlns:dc="http://purl.org/dc/elements/1.1/"
   xmlns:cc="http://creativecommons.org/ns#"
   xmlns:rdf="http://www.w3.org/1999/02/22-rdf-syntax-ns#"
   xmlns:svg="http://www.w3.org/2000/svg"
   xmlns="http://www.w3.org/2000/svg"
   xmlns:sodipodi="http://sodipodi.sourceforge.net/DTD/sodipodi-0.dtd"
   xmlns:inkscape="http://www.inkscape.org/namespaces/inkscape"
   height="16"
   width="16"
   version="1.1"
   id="svg6"
   sodipodi:docname="emblem-synchronizing-symbolic.svg"
   inkscape:version="0.92.3 (2405546, 2018-03-11)">
  <metadata
     id="metadata12">
    <rdf:RDF>
      <cc:Work
         rdf:about="">
        <dc:format>image/svg+xml</dc:format>
        <dc:type
           rdf:resource="http://purl.org/dc/dcmitype/StillImage" />
        <dc:title />
      </cc:Work>
    </rdf:RDF>
  </metadata>
  <defs
     id="defs10" />
  <sodipodi:namedview
     pagecolor="#ffffff"
     bordercolor="#666666"
     borderopacity="1"
     objecttolerance="10"
     gridtolerance="10"
     guidetolerance="10"
     inkscape:pageopacity="0"
     inkscape:pageshadow="2"
     inkscape:window-width="1920"
     inkscape:window-height="1539"
     id="namedview8"
     showgrid="false"
     inkscape:zoom="20.85965"
     inkscape:cx="-3.983721"
     inkscape:cy="0.80495011"
     inkscape:window-x="1920"
     inkscape:window-y="27"
     inkscape:window-maximized="0"
     inkscape:current-layer="svg6"
     inkscape:measure-start="0.559322,33.7797"
     inkscape:measure-end="0.550847,33.7797" />
  <path
     style="opacity:1;fill:#808080;fill-opacity:1;fill-rule:nonzero;stroke:none;stroke-width:0.1715562;stroke-linecap:butt;stroke-linejoin:bevel;stroke-miterlimit:4;stroke-dasharray:none;stroke-opacity:1;paint-order:fill markers stroke"
     d="M 12.27283,3.7271979 A 6.0426582,6.0426582 0 0 0 4.49976,3.0755219 l 1.46387,1.463863 a 4.020317,4.020317 0 0 1 4.87918,0.617824 4.020317,4.020317 0 0 1 1.09378,3.6322339 l -1.10528,-1.1052839 -0.86146,0.861452 1.49233,1.4923321 0.6613,0.6613 0.79692,0.79691 0.0645,0.06454 3.01508,-3.0150841 -0.86145,-0.861452 -1.16727,1.1672679 A 6.0426582,6.0426582 0 0 0 12.27279,3.7271959 Z M 3.0151,4.4393089 2e-5,7.4543929 0.86147,8.3158449 2.02874,7.1485779 a 6.0426582,6.0426582 0 0 0 1.69848,5.1242291 6.0426582,6.0426582 0 0 0 7.77306,0.651675 L 10.03641,11.460618 A 4.020317,4.020317 0 0 1 5.15723,10.842796 4.020317,4.020317 0 0 1 4.06345,7.2105619 l 1.10529,1.105283 0.86145,-0.861452 -1.49233,-1.492332 -0.6613,-0.6613 -0.79691,-0.79691 z"
     id="path1096"
     inkscape:connector-curvature="0" />
</svg>
