<?xml version="1.0" encoding="UTF-8" standalone="no"?>
<svg
   xmlns:dc="http://purl.org/dc/elements/1.1/"
   xmlns:cc="http://creativecommons.org/ns#"
   xmlns:rdf="http://www.w3.org/1999/02/22-rdf-syntax-ns#"
   xmlns:svg="http://www.w3.org/2000/svg"
   xmlns="http://www.w3.org/2000/svg"
   xmlns:xlink="http://www.w3.org/1999/xlink"
   xmlns:sodipodi="http://sodipodi.sourceforge.net/DTD/sodipodi-0.dtd"
   xmlns:inkscape="http://www.inkscape.org/namespaces/inkscape"
   version="1.1"
   id="Layer_1"
   x="0px"
   y="0px"
   viewBox="0 0 48 48"
   enable-background="new 0 0 256 256"
   xml:space="preserve"
   sodipodi:docname="google-chrome.svg"
   inkscape:version="1.0 (1.0+r73+1)"
   inkscape:label="Shadow"
   width="48"
   height="48"><metadata
   id="metadata253"><rdf:RDF><cc:Work
       rdf:about=""><dc:format>image/svg+xml</dc:format><dc:type
         rdf:resource="http://purl.org/dc/dcmitype/StillImage" /><dc:title /></cc:Work></rdf:RDF></metadata><defs
   id="defs251"><linearGradient
   inkscape:collect="always"
   id="linearGradient1195"><stop
     style="stop-color:#646464;stop-opacity:0.2"
     offset="0"
     id="stop1191" /><stop
     style="stop-color:#000000;stop-opacity:0.4"
     offset="1"
     id="stop1193" /></linearGradient>
	
	
<clipPath
   id="b"><use
     width="100%"
     overflow="visible"
     xlink:href="#a"
     height="100%"
     id="use5"
     style="overflow:visible"
     x="0"
     y="0" /></clipPath><linearGradient
   x1="29.337"
   x2="81.836998"
   y1="75.021004"
   gradientUnits="userSpaceOnUse"
   y2="44.354"
   id="c"><stop
     id="stop10"
     offset="0"
     stop-opacity=".6"
     stop-color="#A52714" /><stop
     id="stop12"
     offset=".66"
     stop-opacity="0"
     stop-color="#A52714" /></linearGradient><clipPath
   id="clipPath1232"><use
     width="100%"
     overflow="visible"
     xlink:href="#a"
     height="100%"
     id="use1230"
     style="overflow:visible"
     x="0"
     y="0" /></clipPath><clipPath
   id="clipPath1236"><use
     width="100%"
     overflow="visible"
     xlink:href="#a"
     height="100%"
     id="use1234"
     style="overflow:visible"
     x="0"
     y="0" /></clipPath><linearGradient
   x1="110.87"
   x2="52.537998"
   y1="164.5"
   gradientUnits="userSpaceOnUse"
   y2="130.33"
   id="d"><stop
     id="stop23"
     offset="0"
     stop-opacity=".4"
     stop-color="#055524" /><stop
     id="stop25"
     offset=".33"
     stop-opacity="0"
     stop-color="#055524" /></linearGradient><clipPath
   id="clipPath1244"><use
     width="100%"
     overflow="visible"
     xlink:href="#a"
     height="100%"
     id="use1242"
     style="overflow:visible"
     x="0"
     y="0" /></clipPath><clipPath
   id="clipPath1248"><use
     width="100%"
     overflow="visible"
     xlink:href="#a"
     height="100%"
     id="use1246"
     style="overflow:visible"
     x="0"
     y="0" /></clipPath><clipPath
   id="f"><use
     y="0"
     x="0"
     style="overflow:visible"
     id="use37"
     height="100%"
     xlink:href="#e"
     overflow="visible"
     width="100%" /></clipPath><linearGradient
   x1="121.86"
   x2="136.55"
   y1="49.804001"
   gradientUnits="userSpaceOnUse"
   y2="114.13"
   id="g"><stop
     id="stop42"
     offset="0"
     stop-opacity=".3"
     stop-color="#EA6100" /><stop
     id="stop44"
     offset=".66"
     stop-opacity="0"
     stop-color="#EA6100" /></linearGradient><clipPath
   id="clipPath1258"><use
     width="100%"
     overflow="visible"
     xlink:href="#a"
     height="100%"
     id="use1256"
     style="overflow:visible"
     x="0"
     y="0" /></clipPath><clipPath
   id="clipPath1269"><use
     width="100%"
     overflow="visible"
     xlink:href="#a"
     height="100%"
     id="use1267"
     style="overflow:visible"
     x="0"
     y="0" /></clipPath><clipPath
   id="j"><use
     y="0"
     x="0"
     style="overflow:visible"
     id="use62"
     height="100%"
     xlink:href="#i"
     overflow="visible"
     width="100%" /></clipPath><radialGradient
   id="l"
   gradientUnits="userSpaceOnUse"
   cy="55.948002"
   cx="668.17999"
   gradientTransform="translate(-576)"
   r="84.078003"><stop
     stop-color="#3E2723"
     stop-opacity=".2"
     offset="0"
     id="stop73" /><stop
     stop-color="#3E2723"
     stop-opacity="0"
     offset="1"
     id="stop75" /></radialGradient><clipPath
   id="clipPath1285"><use
     width="100%"
     overflow="visible"
     xlink:href="#a"
     height="100%"
     id="use1283"
     style="overflow:visible"
     x="0"
     y="0" /></clipPath><clipPath
   id="clipPath1289"><use
     width="100%"
     overflow="visible"
     xlink:href="#a"
     height="100%"
     id="use1287"
     style="overflow:visible"
     x="0"
     y="0" /></clipPath><clipPath
   id="n"><use
     y="0"
     x="0"
     style="overflow:visible"
     id="use83"
     height="100%"
     xlink:href="#m"
     overflow="visible"
     width="100%" /></clipPath><radialGradient
   id="p"
   gradientUnits="userSpaceOnUse"
   cy="48.52"
   cx="597.88"
   gradientTransform="translate(-576)"
   r="78.043999"><stop
     stop-color="#3E2723"
     stop-opacity=".2"
     offset="0"
     id="stop94" /><stop
     stop-color="#3E2723"
     stop-opacity="0"
     offset="1"
     id="stop96" /></radialGradient><clipPath
   id="clipPath1305"><use
     width="100%"
     overflow="visible"
     xlink:href="#a"
     height="100%"
     id="use1303"
     style="overflow:visible"
     x="0"
     y="0" /></clipPath><radialGradient
   id="q"
   gradientUnits="userSpaceOnUse"
   cy="96.138"
   cx="671.84003"
   gradientTransform="translate(-576)"
   r="87.870003"><stop
     stop-color="#263238"
     stop-opacity=".2"
     offset="0"
     id="stop101" /><stop
     stop-color="#263238"
     stop-opacity="0"
     offset="1"
     id="stop103" /></radialGradient><clipPath
   id="clipPath1312"><use
     width="100%"
     overflow="visible"
     xlink:href="#a"
     height="100%"
     id="use1310"
     style="overflow:visible"
     x="0"
     y="0" /></clipPath><clipPath
   id="clipPath1316"><use
     width="100%"
     overflow="visible"
     xlink:href="#a"
     height="100%"
     id="use1314"
     style="overflow:visible"
     x="0"
     y="0" /></clipPath><clipPath
   id="clipPath1320"><use
     width="100%"
     overflow="visible"
     xlink:href="#a"
     height="100%"
     id="use1318"
     style="overflow:visible"
     x="0"
     y="0" /></clipPath><clipPath
   id="clipPath1324"><use
     width="100%"
     overflow="visible"
     xlink:href="#a"
     height="100%"
     id="use1322"
     style="overflow:visible"
     x="0"
     y="0" /></clipPath><path
   inkscape:connector-curvature="0"
   d="m 8,184 h 83.77 l 38.88,-38.88 V 116 H 61.36 L 8,24.48 Z"
   id="e" /><path
   inkscape:connector-curvature="0"
   d="m 96,56 34.65,60 -38.88,68 H 184 V 56 Z"
   id="i" /><path
   inkscape:connector-curvature="0"
   d="M 21.97,8 V 48.34 L 61.36,116 96,56 h 88 V 8 Z"
   id="m" /><clipPath
   id="b-1"><use
     width="100%"
     overflow="visible"
     xlink:href="#a"
     height="100%"
     id="use5-7"
     style="overflow:visible"
     x="0"
     y="0" /></clipPath><clipPath
   id="clipPath1232-2"><use
     width="100%"
     overflow="visible"
     xlink:href="#a"
     height="100%"
     id="use1230-2"
     style="overflow:visible"
     x="0"
     y="0" /></clipPath><clipPath
   id="clipPath1236-6"><use
     width="100%"
     overflow="visible"
     xlink:href="#a"
     height="100%"
     id="use1234-1"
     style="overflow:visible"
     x="0"
     y="0" /></clipPath><clipPath
   id="clipPath1244-1"><use
     width="100%"
     overflow="visible"
     xlink:href="#a"
     height="100%"
     id="use1242-5"
     style="overflow:visible"
     x="0"
     y="0" /></clipPath><clipPath
   id="clipPath1248-9"><use
     width="100%"
     overflow="visible"
     xlink:href="#a"
     height="100%"
     id="use1246-4"
     style="overflow:visible"
     x="0"
     y="0" /></clipPath><clipPath
   id="f-9"><use
     y="0"
     x="0"
     style="overflow:visible"
     id="use37-0"
     height="100%"
     xlink:href="#e-8"
     overflow="visible"
     width="100%" /></clipPath><clipPath
   id="clipPath1258-7"><use
     width="100%"
     overflow="visible"
     xlink:href="#a"
     height="100%"
     id="use1256-7"
     style="overflow:visible"
     x="0"
     y="0" /></clipPath><clipPath
   id="clipPath1269-1"><use
     width="100%"
     overflow="visible"
     xlink:href="#a"
     height="100%"
     id="use1267-1"
     style="overflow:visible"
     x="0"
     y="0" /></clipPath><clipPath
   id="j-5"><use
     y="0"
     x="0"
     style="overflow:visible"
     id="use62-9"
     height="100%"
     xlink:href="#i-5"
     overflow="visible"
     width="100%" /></clipPath><radialGradient
   id="l-7"
   gradientUnits="userSpaceOnUse"
   cy="55.948002"
   cx="668.17999"
   gradientTransform="translate(-576)"
   r="84.078003"><stop
     stop-color="#3E2723"
     stop-opacity=".2"
     offset="0"
     id="stop73-7" /><stop
     stop-color="#3E2723"
     stop-opacity="0"
     offset="1"
     id="stop75-6" /></radialGradient><clipPath
   id="clipPath1285-7"><use
     width="100%"
     overflow="visible"
     xlink:href="#a"
     height="100%"
     id="use1283-3"
     style="overflow:visible"
     x="0"
     y="0" /></clipPath><clipPath
   id="clipPath1289-6"><use
     width="100%"
     overflow="visible"
     xlink:href="#a"
     height="100%"
     id="use1287-5"
     style="overflow:visible"
     x="0"
     y="0" /></clipPath><clipPath
   id="n-6"><use
     y="0"
     x="0"
     style="overflow:visible"
     id="use83-3"
     height="100%"
     xlink:href="#m-6"
     overflow="visible"
     width="100%" /></clipPath><radialGradient
   id="p-9"
   gradientUnits="userSpaceOnUse"
   cy="48.52"
   cx="597.88"
   gradientTransform="translate(-576)"
   r="78.043999"><stop
     stop-color="#3E2723"
     stop-opacity=".2"
     offset="0"
     id="stop94-4" /><stop
     stop-color="#3E2723"
     stop-opacity="0"
     offset="1"
     id="stop96-8" /></radialGradient><clipPath
   id="clipPath1305-1"><use
     width="100%"
     overflow="visible"
     xlink:href="#a"
     height="100%"
     id="use1303-2"
     style="overflow:visible"
     x="0"
     y="0" /></clipPath><radialGradient
   id="q-9"
   gradientUnits="userSpaceOnUse"
   cy="96.138"
   cx="671.84003"
   gradientTransform="translate(-576)"
   r="87.870003"><stop
     stop-color="#263238"
     stop-opacity=".2"
     offset="0"
     id="stop101-3" /><stop
     stop-color="#263238"
     stop-opacity="0"
     offset="1"
     id="stop103-9" /></radialGradient><clipPath
   id="clipPath1312-0"><use
     width="100%"
     overflow="visible"
     xlink:href="#a"
     height="100%"
     id="use1310-8"
     style="overflow:visible"
     x="0"
     y="0" /></clipPath><clipPath
   id="clipPath1316-8"><use
     width="100%"
     overflow="visible"
     xlink:href="#a"
     height="100%"
     id="use1314-5"
     style="overflow:visible"
     x="0"
     y="0" /></clipPath><clipPath
   id="clipPath1320-0"><use
     width="100%"
     overflow="visible"
     xlink:href="#a"
     height="100%"
     id="use1318-9"
     style="overflow:visible"
     x="0"
     y="0" /></clipPath><clipPath
   id="clipPath1324-6"><use
     width="100%"
     overflow="visible"
     xlink:href="#a"
     height="100%"
     id="use1322-3"
     style="overflow:visible"
     x="0"
     y="0" /></clipPath><path
   inkscape:connector-curvature="0"
   d="m 8,184 h 83.77 l 38.88,-38.88 V 116 H 61.36 L 8,24.48 Z"
   id="e-8" /><path
   inkscape:connector-curvature="0"
   d="m 96,56 34.65,60 -38.88,68 H 184 V 56 Z"
   id="i-5" /><path
   inkscape:connector-curvature="0"
   d="M 21.97,8 V 48.34 L 61.36,116 96,56 h 88 V 8 Z"
   id="m-6" /><radialGradient
   id="r"
   gradientUnits="userSpaceOnUse"
   cy="32.014"
   cx="34.285999"
   gradientTransform="translate(-23.079613,-106.2699)"
   r="176.75"><stop
     stop-color="#fff"
     stop-opacity=".1"
     offset="0"
     id="stop130" /><stop
     stop-color="#fff"
     stop-opacity="0"
     offset="1"
     id="stop132" /></radialGradient><clipPath
   id="b-0"><use
     y="0"
     x="0"
     style="overflow:visible"
     width="100%"
     overflow="visible"
     xlink:href="#a"
     height="100%"
     id="use5-5" /></clipPath><clipPath
   id="clipPath963"><use
     y="0"
     x="0"
     style="overflow:visible"
     width="100%"
     overflow="visible"
     xlink:href="#a"
     height="100%"
     id="use961" /></clipPath><clipPath
   id="clipPath967"><use
     y="0"
     x="0"
     style="overflow:visible"
     width="100%"
     overflow="visible"
     xlink:href="#a"
     height="100%"
     id="use965" /></clipPath><radialGradient
   id="q-94"
   gradientUnits="userSpaceOnUse"
   cy="96.138"
   cx="671.84003"
   gradientTransform="translate(-576)"
   r="87.870003"><stop
     stop-color="#263238"
     stop-opacity=".2"
     offset="0"
     id="stop101-6" /><stop
     stop-color="#263238"
     stop-opacity="0"
     offset="1"
     id="stop103-92" /></radialGradient><clipPath
   id="clipPath974"><use
     y="0"
     x="0"
     style="overflow:visible"
     width="100%"
     overflow="visible"
     xlink:href="#a"
     height="100%"
     id="use972" /></clipPath><radialGradient
   id="p-2"
   gradientUnits="userSpaceOnUse"
   cy="48.52"
   cx="597.88"
   gradientTransform="translate(-576)"
   r="78.043999"><stop
     stop-color="#3E2723"
     stop-opacity=".2"
     offset="0"
     id="stop94-47" /><stop
     stop-color="#3E2723"
     stop-opacity="0"
     offset="1"
     id="stop96-7" /></radialGradient><clipPath
   id="clipPath981"><use
     y="0"
     x="0"
     style="overflow:visible"
     width="100%"
     overflow="visible"
     xlink:href="#a"
     height="100%"
     id="use979" /></clipPath><clipPath
   id="clipPath985"><use
     y="0"
     x="0"
     style="overflow:visible"
     width="100%"
     overflow="visible"
     xlink:href="#a"
     height="100%"
     id="use983" /></clipPath><clipPath
   id="n-5"><use
     width="100%"
     overflow="visible"
     xlink:href="#m-0"
     height="100%"
     id="use83-4"
     style="overflow:visible"
     x="0"
     y="0" /></clipPath><radialGradient
   id="l-2"
   gradientUnits="userSpaceOnUse"
   cy="55.948002"
   cx="668.17999"
   gradientTransform="translate(-576)"
   r="84.078003"><stop
     stop-color="#3E2723"
     stop-opacity=".2"
     offset="0"
     id="stop73-8" /><stop
     stop-color="#3E2723"
     stop-opacity="0"
     offset="1"
     id="stop75-9" /></radialGradient><clipPath
   id="clipPath997"><use
     y="0"
     x="0"
     style="overflow:visible"
     width="100%"
     overflow="visible"
     xlink:href="#a"
     height="100%"
     id="use995" /></clipPath><clipPath
   id="clipPath1001"><use
     y="0"
     x="0"
     style="overflow:visible"
     width="100%"
     overflow="visible"
     xlink:href="#a"
     height="100%"
     id="use999" /></clipPath><clipPath
   id="j-3"><use
     width="100%"
     overflow="visible"
     xlink:href="#i-1"
     height="100%"
     id="use62-6"
     style="overflow:visible"
     x="0"
     y="0" /></clipPath><clipPath
   id="clipPath1010"><use
     y="0"
     x="0"
     style="overflow:visible"
     width="100%"
     overflow="visible"
     xlink:href="#a"
     height="100%"
     id="use1008" /></clipPath><clipPath
   id="clipPath1017"><use
     y="0"
     x="0"
     style="overflow:visible"
     width="100%"
     overflow="visible"
     xlink:href="#a"
     height="100%"
     id="use1015" /></clipPath><clipPath
   id="f-0"><use
     width="100%"
     overflow="visible"
     xlink:href="#e-1"
     height="100%"
     id="use37-5"
     style="overflow:visible"
     x="0"
     y="0" /></clipPath><clipPath
   id="clipPath1029"><use
     y="0"
     x="0"
     style="overflow:visible"
     width="100%"
     overflow="visible"
     xlink:href="#a"
     height="100%"
     id="use1027" /></clipPath><clipPath
   id="clipPath1033"><use
     y="0"
     x="0"
     style="overflow:visible"
     width="100%"
     overflow="visible"
     xlink:href="#a"
     height="100%"
     id="use1031" /></clipPath><clipPath
   id="clipPath1043"><use
     y="0"
     x="0"
     style="overflow:visible"
     width="100%"
     overflow="visible"
     xlink:href="#a"
     height="100%"
     id="use1041" /></clipPath><clipPath
   id="clipPath1047"><use
     y="0"
     x="0"
     style="overflow:visible"
     width="100%"
     overflow="visible"
     xlink:href="#a"
     height="100%"
     id="use1045" /></clipPath><path
   id="e-1"
   d="m 8,184 h 83.77 l 38.88,-38.88 V 116 H 61.36 L 8,24.48 Z"
   inkscape:connector-curvature="0" /><path
   id="i-1"
   d="m 96,56 34.65,60 -38.88,68 H 184 V 56 Z"
   inkscape:connector-curvature="0" /><path
   id="m-0"
   d="M 21.97,8 V 48.34 L 61.36,116 96,56 h 88 V 8 Z"
   inkscape:connector-curvature="0" /><circle
   r="88"
   cx="96"
   cy="96"
   id="a" /><path
   d="m 8,184 h 83.77 l 38.88,-38.88 V 116 H 61.36 L 8,24.48 Z"
   id="e-6"
   inkscape:connector-curvature="0" /><path
   d="m 96,56 34.65,60 -38.88,68 H 184 V 56 Z"
   id="i-2"
   inkscape:connector-curvature="0" /><path
   d="M 21.97,8 V 48.34 L 61.36,116 96,56 h 88 V 8 Z"
   id="m-8"
   inkscape:connector-curvature="0" /><defs
   id="defs1820"><path
     d="M 21.97,8 V 48.34 L 61.36,116 96,56 h 88 V 8 Z"
     id="path1928"
     inkscape:connector-curvature="0" /></defs><clipPath
   id="n-7"><use
     id="use1822"
     height="100%"
     xlink:href="#m-8"
     overflow="visible"
     width="100%"
     style="overflow:visible"
     x="0"
     y="0" /></clipPath><defs
   id="defs1799"><path
     d="m 96,56 34.65,60 -38.88,68 H 184 V 56 Z"
     id="path1918"
     inkscape:connector-curvature="0" /></defs><clipPath
   id="j-6"><use
     id="use1801"
     height="100%"
     xlink:href="#i-2"
     overflow="visible"
     width="100%"
     style="overflow:visible"
     x="0"
     y="0" /></clipPath><defs
   id="defs1774"><path
     d="m 8,184 h 83.77 l 38.88,-38.88 V 116 H 61.36 L 8,24.48 Z"
     id="path1902"
     inkscape:connector-curvature="0" /></defs><clipPath
   id="f-06"><use
     id="use1776"
     height="100%"
     xlink:href="#e-6"
     overflow="visible"
     width="100%"
     style="overflow:visible"
     x="0"
     y="0" /></clipPath><linearGradient
   x1="110.87"
   x2="52.537998"
   y1="164.5"
   gradientUnits="userSpaceOnUse"
   y2="130.33"
   id="linearGradient1897"><stop
     id="stop1762"
     offset="0"
     stop-opacity=".4"
     stop-color="#055524" /><stop
     id="stop1764"
     offset=".33"
     stop-opacity="0"
     stop-color="#055524" /></linearGradient><linearGradient
   x1="29.337"
   x2="81.836998"
   y1="75.021004"
   gradientUnits="userSpaceOnUse"
   y2="44.354"
   id="linearGradient1889"><stop
     id="stop1749"
     offset="0"
     stop-opacity=".6"
     stop-color="#A52714" /><stop
     id="stop1751"
     offset=".66"
     stop-opacity="0"
     stop-color="#A52714" /></linearGradient><linearGradient
   id="linearGradient1910"
   y2="114.13"
   gradientUnits="userSpaceOnUse"
   y1="49.804001"
   x2="136.55"
   x1="121.86"><stop
     stop-color="#EA6100"
     stop-opacity=".3"
     offset="0"
     id="stop1781" /><stop
     stop-color="#EA6100"
     stop-opacity="0"
     offset=".66"
     id="stop1783" /></linearGradient><clipPath
   id="b-3"><use
     y="0"
     x="0"
     style="overflow:visible"
     width="100%"
     overflow="visible"
     xlink:href="#a"
     height="100%"
     id="use5-1" /></clipPath><clipPath
   id="clipPath1024"><use
     y="0"
     x="0"
     style="overflow:visible"
     width="100%"
     overflow="visible"
     xlink:href="#a"
     height="100%"
     id="use1022" /></clipPath><clipPath
   id="clipPath1028"><use
     y="0"
     x="0"
     style="overflow:visible"
     width="100%"
     overflow="visible"
     xlink:href="#a"
     height="100%"
     id="use1026" /></clipPath><clipPath
   id="clipPath1035"><use
     y="0"
     x="0"
     style="overflow:visible"
     width="100%"
     overflow="visible"
     xlink:href="#a"
     height="100%"
     id="use1033" /></clipPath><clipPath
   id="clipPath1039"><use
     y="0"
     x="0"
     style="overflow:visible"
     width="100%"
     overflow="visible"
     xlink:href="#a"
     height="100%"
     id="use1037" /></clipPath><clipPath
   id="f-6"><use
     y="0"
     x="0"
     style="overflow:visible"
     id="use37-8"
     height="100%"
     xlink:href="#e-61"
     overflow="visible"
     width="100%" /></clipPath><clipPath
   id="clipPath1048"><use
     y="0"
     x="0"
     style="overflow:visible"
     width="100%"
     overflow="visible"
     xlink:href="#a"
     height="100%"
     id="use1046" /></clipPath><clipPath
   id="clipPath1058"><use
     y="0"
     x="0"
     style="overflow:visible"
     width="100%"
     overflow="visible"
     xlink:href="#a"
     height="100%"
     id="use1056" /></clipPath><clipPath
   id="j-66"><use
     y="0"
     x="0"
     style="overflow:visible"
     id="use62-4"
     height="100%"
     xlink:href="#i-59"
     overflow="visible"
     width="100%" /></clipPath><radialGradient
   id="l-9"
   gradientUnits="userSpaceOnUse"
   cy="55.948002"
   cx="668.17999"
   gradientTransform="translate(-576)"
   r="84.078003"><stop
     stop-color="#3E2723"
     stop-opacity=".2"
     offset="0"
     id="stop73-5" /><stop
     stop-color="#3E2723"
     stop-opacity="0"
     offset="1"
     id="stop75-0" /></radialGradient><clipPath
   id="clipPath1073"><use
     y="0"
     x="0"
     style="overflow:visible"
     width="100%"
     overflow="visible"
     xlink:href="#a"
     height="100%"
     id="use1071" /></clipPath><clipPath
   id="clipPath1077"><use
     y="0"
     x="0"
     style="overflow:visible"
     width="100%"
     overflow="visible"
     xlink:href="#a"
     height="100%"
     id="use1075" /></clipPath><clipPath
   id="n-4"><use
     y="0"
     x="0"
     style="overflow:visible"
     id="use83-8"
     height="100%"
     xlink:href="#m-4"
     overflow="visible"
     width="100%" /></clipPath><radialGradient
   id="p-7"
   gradientUnits="userSpaceOnUse"
   cy="48.52"
   cx="597.88"
   gradientTransform="translate(-576)"
   r="78.043999"><stop
     stop-color="#3E2723"
     stop-opacity=".2"
     offset="0"
     id="stop94-1" /><stop
     stop-color="#3E2723"
     stop-opacity="0"
     offset="1"
     id="stop96-72" /></radialGradient><clipPath
   id="clipPath1092"><use
     y="0"
     x="0"
     style="overflow:visible"
     width="100%"
     overflow="visible"
     xlink:href="#a"
     height="100%"
     id="use1090" /></clipPath><radialGradient
   id="q-7"
   gradientUnits="userSpaceOnUse"
   cy="96.138"
   cx="671.84003"
   gradientTransform="translate(-576)"
   r="87.870003"><stop
     stop-color="#263238"
     stop-opacity=".2"
     offset="0"
     id="stop101-2" /><stop
     stop-color="#263238"
     stop-opacity="0"
     offset="1"
     id="stop103-2" /></radialGradient><clipPath
   id="clipPath1099"><use
     y="0"
     x="0"
     style="overflow:visible"
     width="100%"
     overflow="visible"
     xlink:href="#a"
     height="100%"
     id="use1097" /></clipPath><clipPath
   id="clipPath1103"><use
     y="0"
     x="0"
     style="overflow:visible"
     width="100%"
     overflow="visible"
     xlink:href="#a"
     height="100%"
     id="use1101" /></clipPath><clipPath
   id="clipPath1107"><use
     y="0"
     x="0"
     style="overflow:visible"
     width="100%"
     overflow="visible"
     xlink:href="#a"
     height="100%"
     id="use1105" /></clipPath><clipPath
   id="clipPath1111"><use
     y="0"
     x="0"
     style="overflow:visible"
     width="100%"
     overflow="visible"
     xlink:href="#a"
     height="100%"
     id="use1109" /></clipPath><radialGradient
   id="r-6"
   gradientUnits="userSpaceOnUse"
   cy="32.014"
   cx="34.285999"
   gradientTransform="translate(-7,-7)"
   r="176.75"><stop
     stop-color="#fff"
     stop-opacity=".1"
     offset="0"
     id="stop130-1" /><stop
     stop-color="#fff"
     stop-opacity="0"
     offset="1"
     id="stop132-0" /></radialGradient><path
   inkscape:connector-curvature="0"
   d="m 8,184 h 83.77 l 38.88,-38.88 V 116 H 61.36 L 8,24.48 Z"
   id="e-61" /><path
   inkscape:connector-curvature="0"
   d="m 96,56 34.65,60 -38.88,68 H 184 V 56 Z"
   id="i-59" /><path
   inkscape:connector-curvature="0"
   d="M 21.97,8 V 48.34 L 61.36,116 96,56 h 88 V 8 Z"
   id="m-4" /><clipPath
   id="b-9"><use
     y="0"
     x="0"
     style="overflow:visible"
     width="100%"
     overflow="visible"
     xlink:href="#a"
     height="100%"
     id="use5-0" /></clipPath><clipPath
   id="clipPath1024-7"><use
     y="0"
     x="0"
     style="overflow:visible"
     width="100%"
     overflow="visible"
     xlink:href="#a"
     height="100%"
     id="use1022-7" /></clipPath><clipPath
   id="clipPath1028-1"><use
     y="0"
     x="0"
     style="overflow:visible"
     width="100%"
     overflow="visible"
     xlink:href="#a"
     height="100%"
     id="use1026-1" /></clipPath><clipPath
   id="clipPath1035-7"><use
     y="0"
     x="0"
     style="overflow:visible"
     width="100%"
     overflow="visible"
     xlink:href="#a"
     height="100%"
     id="use1033-7" /></clipPath><clipPath
   id="clipPath1039-6"><use
     y="0"
     x="0"
     style="overflow:visible"
     width="100%"
     overflow="visible"
     xlink:href="#a"
     height="100%"
     id="use1037-7" /></clipPath><clipPath
   id="f-3"><use
     y="0"
     x="0"
     style="overflow:visible"
     id="use37-6"
     height="100%"
     xlink:href="#e-9"
     overflow="visible"
     width="100%" /></clipPath><clipPath
   id="clipPath1048-3"><use
     y="0"
     x="0"
     style="overflow:visible"
     width="100%"
     overflow="visible"
     xlink:href="#a"
     height="100%"
     id="use1046-9" /></clipPath><clipPath
   id="clipPath1058-4"><use
     y="0"
     x="0"
     style="overflow:visible"
     width="100%"
     overflow="visible"
     xlink:href="#a"
     height="100%"
     id="use1056-8" /></clipPath><clipPath
   id="j-1"><use
     y="0"
     x="0"
     style="overflow:visible"
     id="use62-2"
     height="100%"
     xlink:href="#i-6"
     overflow="visible"
     width="100%" /></clipPath><radialGradient
   id="l-93"
   gradientUnits="userSpaceOnUse"
   cy="55.948002"
   cx="668.17999"
   gradientTransform="translate(-576)"
   r="84.078003"><stop
     stop-color="#3E2723"
     stop-opacity=".2"
     offset="0"
     id="stop73-9" /><stop
     stop-color="#3E2723"
     stop-opacity="0"
     offset="1"
     id="stop75-08" /></radialGradient><clipPath
   id="clipPath1073-8"><use
     y="0"
     x="0"
     style="overflow:visible"
     width="100%"
     overflow="visible"
     xlink:href="#a"
     height="100%"
     id="use1071-5" /></clipPath><clipPath
   id="clipPath1077-0"><use
     y="0"
     x="0"
     style="overflow:visible"
     width="100%"
     overflow="visible"
     xlink:href="#a"
     height="100%"
     id="use1075-9" /></clipPath><clipPath
   id="n-63"><use
     y="0"
     x="0"
     style="overflow:visible"
     id="use83-85"
     height="100%"
     xlink:href="#m-2"
     overflow="visible"
     width="100%" /></clipPath><radialGradient
   id="p-6"
   gradientUnits="userSpaceOnUse"
   cy="48.52"
   cx="597.88"
   gradientTransform="translate(-576)"
   r="78.043999"><stop
     stop-color="#3E2723"
     stop-opacity=".2"
     offset="0"
     id="stop94-11" /><stop
     stop-color="#3E2723"
     stop-opacity="0"
     offset="1"
     id="stop96-5" /></radialGradient><clipPath
   id="clipPath1092-9"><use
     y="0"
     x="0"
     style="overflow:visible"
     width="100%"
     overflow="visible"
     xlink:href="#a"
     height="100%"
     id="use1090-8" /></clipPath><radialGradient
   id="q-4"
   gradientUnits="userSpaceOnUse"
   cy="96.138"
   cx="671.84003"
   gradientTransform="translate(-576)"
   r="87.870003"><stop
     stop-color="#263238"
     stop-opacity=".2"
     offset="0"
     id="stop101-8" /><stop
     stop-color="#263238"
     stop-opacity="0"
     offset="1"
     id="stop103-1" /></radialGradient><clipPath
   id="clipPath1099-0"><use
     y="0"
     x="0"
     style="overflow:visible"
     width="100%"
     overflow="visible"
     xlink:href="#a"
     height="100%"
     id="use1097-3" /></clipPath><clipPath
   id="clipPath1103-0"><use
     y="0"
     x="0"
     style="overflow:visible"
     width="100%"
     overflow="visible"
     xlink:href="#a"
     height="100%"
     id="use1101-4" /></clipPath><clipPath
   id="clipPath1107-4"><use
     y="0"
     x="0"
     style="overflow:visible"
     width="100%"
     overflow="visible"
     xlink:href="#a"
     height="100%"
     id="use1105-4" /></clipPath><clipPath
   id="clipPath1111-4"><use
     y="0"
     x="0"
     style="overflow:visible"
     width="100%"
     overflow="visible"
     xlink:href="#a"
     height="100%"
     id="use1109-7" /></clipPath><radialGradient
   id="r-63"
   gradientUnits="userSpaceOnUse"
   cy="32.014"
   cx="34.285999"
   gradientTransform="translate(-7,-7)"
   r="176.75"><stop
     stop-color="#fff"
     stop-opacity=".1"
     offset="0"
     id="stop130-17" /><stop
     stop-color="#fff"
     stop-opacity="0"
     offset="1"
     id="stop132-5" /></radialGradient><path
   inkscape:connector-curvature="0"
   d="m 8,184 h 83.77 l 38.88,-38.88 V 116 H 61.36 L 8,24.48 Z"
   id="e-9" /><path
   inkscape:connector-curvature="0"
   d="m 96,56 34.65,60 -38.88,68 H 184 V 56 Z"
   id="i-6" /><path
   inkscape:connector-curvature="0"
   d="M 21.97,8 V 48.34 L 61.36,116 96,56 h 88 V 8 Z"
   id="m-2" /><linearGradient
   id="linearGradient3764"
   gradientTransform="translate(-399,87.002215)"
   gradientUnits="userSpaceOnUse"
   x1="1"
   x2="47"><stop
     offset="0"
     style="stop-color:#575757"
     id="stop2" /><stop
     offset="1"
     style="stop-color:#616161"
     id="stop4" /></linearGradient><linearGradient
   id="linearGradient3764-3"
   gradientTransform="translate(-255.99999,0.002213)"
   gradientUnits="userSpaceOnUse"
   x1="1"
   x2="47"><stop
     offset="0"
     style="stop-color:#575757"
     id="stop2-6" /><stop
     offset="1"
     style="stop-color:#616161"
     id="stop4-7" /></linearGradient><linearGradient
   id="linearGradient3764-5"
   x1="1"
   x2="47"
   gradientUnits="userSpaceOnUse"
   gradientTransform="rotate(-90,23.999998,24)"><stop
     style="stop-color:#575757;stop-opacity:1"
     id="stop2-3" /><stop
     offset="1"
     style="stop-color:#616161;stop-opacity:1"
     id="stop4-5" /></linearGradient><linearGradient
   inkscape:collect="always"
   xlink:href="#linearGradient1195"
   id="linearGradient1197"
   x1="9.1260004"
   y1="213.875"
   x2="36.375999"
   y2="250.25"
   gradientUnits="userSpaceOnUse"
   gradientTransform="translate(0.5,0.5000004)" /><linearGradient
   y2="250.25"
   x2="36.375999"
   y1="213.875"
   x1="9.1260004"
   gradientUnits="userSpaceOnUse"
   id="linearGradient1206"
   xlink:href="#linearGradient1195"
   inkscape:collect="always"
   gradientTransform="matrix(0.85106383,0,0,0.85106383,3.5744681,-173.44681)" /><filter
   height="1.054"
   y="-0.027"
   width="1.054"
   x="-0.027"
   id="filter1149"
   style="color-interpolation-filters:sRGB"
   inkscape:collect="always"><feGaussianBlur
     id="feGaussianBlur1151"
     stdDeviation="0.45"
     inkscape:collect="always" /></filter><clipPath
   id="clipPath1900"
   clipPathUnits="userSpaceOnUse"><circle
     r="124"
     cy="128"
     cx="128"
     id="circle1902"
     style="opacity:1;fill:#ffffff;fill-opacity:0.392157;fill-rule:nonzero;stroke:none;stroke-width:7.79784;stroke-linecap:butt;stroke-linejoin:bevel;stroke-miterlimit:4;stroke-dasharray:none;stroke-opacity:1;paint-order:fill markers stroke" /></clipPath><clipPath
   id="clipPath1908"
   clipPathUnits="userSpaceOnUse"><circle
     r="124"
     cy="128"
     cx="128"
     id="circle1910"
     style="opacity:1;fill:#ffffff;fill-opacity:0.392157;fill-rule:nonzero;stroke:none;stroke-width:7.79784;stroke-linecap:butt;stroke-linejoin:bevel;stroke-miterlimit:4;stroke-dasharray:none;stroke-opacity:1;paint-order:fill markers stroke" /></clipPath><clipPath
   id="clipPath1904"
   clipPathUnits="userSpaceOnUse"><circle
     r="124"
     cy="128"
     cx="128"
     id="circle1906"
     style="opacity:1;fill:#ffffff;fill-opacity:0.392157;fill-rule:nonzero;stroke:none;stroke-width:7.79784;stroke-linecap:butt;stroke-linejoin:bevel;stroke-miterlimit:4;stroke-dasharray:none;stroke-opacity:1;paint-order:fill markers stroke" /></clipPath><clipPath
   clipPathUnits="userSpaceOnUse"
   id="clipPath1234"><path
     inkscape:connector-curvature="0"
     id="path1236"
     style="display:inline;fill:#ff00ff;fill-opacity:1"
     d="m -15.487277,256.68246 c 12.7030004,0 23.0000004,10.297 23.0000004,23 0,12.703 -10.297,23 -23.0000004,23 -12.703,0 -23,-10.297 -23,-23 0,-12.703 10.297,-23 23,-23 z" /></clipPath><clipPath
   clipPathUnits="userSpaceOnUse"
   id="clipPath1240"><path
     inkscape:connector-curvature="0"
     id="path1242"
     style="display:inline;fill:#ff00ff;fill-opacity:1"
     d="m -15.487277,256.68246 c 12.7030004,0 23.0000004,10.297 23.0000004,23 0,12.703 -10.297,23 -23.0000004,23 -12.703,0 -23,-10.297 -23,-23 0,-12.703 10.297,-23 23,-23 z" /></clipPath><clipPath
   clipPathUnits="userSpaceOnUse"
   id="clipPath1246"><path
     inkscape:connector-curvature="0"
     id="path1248"
     style="display:inline;fill:#ff00ff;fill-opacity:1"
     d="m -15.487277,256.68246 c 12.7030004,0 23.0000004,10.297 23.0000004,23 0,12.703 -10.297,23 -23.0000004,23 -12.703,0 -23,-10.297 -23,-23 0,-12.703 10.297,-23 23,-23 z" /></clipPath></defs><sodipodi:namedview
   pagecolor="#ffffff"
   bordercolor="#666666"
   borderopacity="1"
   objecttolerance="10"
   gridtolerance="10"
   guidetolerance="10"
   inkscape:pageopacity="0"
   inkscape:pageshadow="2"
   inkscape:window-width="1509"
   inkscape:window-height="1542"
   id="namedview249"
   showgrid="false"
   inkscape:zoom="16.000001"
   inkscape:cx="25.296234"
   inkscape:cy="37.698848"
   inkscape:window-x="2331"
   inkscape:window-y="28"
   inkscape:window-maximized="0"
   inkscape:current-layer="layer6"
   inkscape:pagecheckerboard="true"
   inkscape:document-rotation="0" />

<g
   inkscape:groupmode="layer"
   id="layer3"
   inkscape:label="Default-Group"
   style="display:inline"><g
     inkscape:label="Default"
     id="Default"><g
       style="display:inline"
       transform="matrix(0.85106524,0,0,0.85106524,36.755182,-214.45352)"
       id="g1288"><rect
         style="display:inline;fill:#fdd902;fill-opacity:1;stroke-width:0.263059"
         id="rect1274"
         width="45.999992"
         height="45.999992"
         x="-38.48727"
         y="256.68246"
         ry="4.7216477"
         clip-path="url(#clipPath1240)" /><path
         style="display:inline;fill:#b20903;fill-opacity:1;stroke-width:0.263059"
         d="m -33.76577,256.68247 c -2.615793,0 -4.721506,2.10571 -4.721506,4.7215 v 36.55698 c 0,2.61579 2.105713,4.72151 4.721506,4.72151 h 7.668235 V 269.22798 H 7.5127167 v -7.82401 c 0,-2.61579 -2.1057127,-4.7215 -4.721506,-4.7215 z"
         id="path1276"
         inkscape:connector-curvature="0"
         clip-path="url(#clipPath1234)" /><path
         style="display:inline;fill:#0ba011;fill-opacity:1;stroke-width:0.263059"
         d="m -15.487279,269.22798 -9.053568,15.68172 -13.929764,-23.89083 c -0.01018,0.12712 -0.01667,0.25528 -0.01667,0.3851 v 36.55698 c 0,2.61579 2.105713,4.72151 4.721506,4.72151 h 18.278491 z"
         id="path1278"
         inkscape:connector-curvature="0"
         clip-path="url(#clipPath1246)" /><g
         id="g1286"
         transform="matrix(0.18548384,0,0,0.18548384,-39.229211,255.94053)"><path
           style="display:inline;fill:#b20903;fill-opacity:1;stroke-width:1.40909"
           inkscape:connector-curvature="0"
           id="path1280"
           d="M 23.685001,4.0000008 V 156.18182 h 55.50409 L 128,71.636364 H 252 V 4.0000008 Z"
           clip-path="url(#clipPath1900)" /><path
           style="display:inline;fill:#0ba011;fill-opacity:1;stroke-width:1.40909"
           inkscape:connector-curvature="0"
           id="path1282"
           d="M 4.0000008,252 H 122.03955 L 176.825,197.21455 V 156.18182 H 79.189091 L 4.0000008,27.221819 Z"
           clip-path="url(#clipPath1908)" /><path
           style="display:inline;fill:#fdd902;fill-opacity:1;stroke-width:1.40909"
           clip-path="url(#clipPath1904)"
           d="M 128,71.636719 A 56.363636,56.363636 0 0 1 184.36328,128 a 56.363636,56.363636 0 0 1 -7.57422,28.12109 l 0.0352,0.0605 L 122.03906,252 H 252 V 71.636719 Z"
           id="path1284"
           inkscape:connector-curvature="0" /></g></g><g
       id="g1194"
       transform="matrix(0.85106383,0,0,0.85106383,3.1497872,3.1489347)"
       style="display:inline"><path
         d="m 36.31,5 c 5.859,4.062 9.688,10.831 9.688,18.5 0,12.426 -10.07,22.5 -22.5,22.5 -7.669,0 -14.438,-3.828 -18.5,-9.688 1.037,1.822 2.306,3.499 3.781,4.969 4.085,3.712 9.514,5.969 15.469,5.969 12.703,0 23,-10.298 23,-23 0,-5.954 -2.256,-11.384 -5.969,-15.469 C 39.81,7.306 38.132,6.037 36.31,5 Z m 4.969,3.781 c 3.854,4.113 6.219,9.637 6.219,15.719 0,12.703 -10.297,23 -23,23 -6.081,0 -11.606,-2.364 -15.719,-6.219 4.16,4.144 9.883,6.719 16.219,6.719 12.703,0 23,-10.298 23,-23 0,-6.335 -2.575,-12.06 -6.719,-16.219 z"
         style="opacity:0.05"
         id="path1187"
         inkscape:connector-curvature="0" /><path
         d="m 41.28,8.781 c 3.712,4.085 5.969,9.514 5.969,15.469 0,12.703 -10.297,23 -23,23 -5.954,0 -11.384,-2.256 -15.469,-5.969 4.113,3.854 9.637,6.219 15.719,6.219 12.703,0 23,-10.298 23,-23 0,-6.081 -2.364,-11.606 -6.219,-15.719 z"
         style="opacity:0.1"
         id="path1190"
         inkscape:connector-curvature="0" /><path
         d="M 31.25,2.375 C 39.865,5.529 46,13.792 46,23.505 c 0,12.426 -10.07,22.5 -22.5,22.5 -9.708,0 -17.971,-6.135 -21.12,-14.75 a 23,23 0 0 0 44.875,-7 23,23 0 0 0 -16,-21.875 z"
         style="opacity:0.2"
         id="path1192"
         inkscape:connector-curvature="0" /></g><path
       d="m 23.575319,3.9999986 c 10.811064,0 19.574468,8.7634044 19.574468,19.5744684 0,10.811063 -8.763404,19.574468 -19.574468,19.574468 -10.811064,0 -19.5744679,-8.763405 -19.5744679,-19.574468 0,-10.811064 8.7634039,-19.5744684 19.5744679,-19.5744684 z"
       style="opacity:0.4;fill:url(#linearGradient1206);fill-opacity:1;stroke-width:0.851064"
       id="path1198"
       inkscape:connector-curvature="0" /><g
       id="g1202"
       transform="matrix(0.85106383,0,0,0.85106383,3.1497872,3.1489347)"><path
         d="m 40.03,7.531 c 3.712,4.084 5.969,9.514 5.969,15.469 0,12.703 -10.297,23 -23,23 C 17.045,46 11.615,43.744 7.53,40.031 11.708,44.322 17.54,47 23.999,47 c 12.703,0 23,-10.298 23,-23 0,-6.462 -2.677,-12.291 -6.969,-16.469 z"
         style="opacity:0.1"
         id="path1200"
         inkscape:connector-curvature="0" /></g></g></g><g
   inkscape:label="Square-Group"
   id="g1179"
   inkscape:groupmode="layer"
   style="display:inline"><g
     id="Square"
     transform="matrix(1.15,0,0,1.15,-3.6,-3.6)"
     inkscape:label="Square"
     style="display:inline"><rect
       id="rect1147"
       y="4"
       x="-44"
       width="40"
       transform="rotate(-90)"
       style="display:inline;opacity:0.2;fill:#000000;fill-opacity:1;stroke-width:0.869565;filter:url(#filter1149)"
       rx="3.4782608"
       height="40" /><g
       transform="matrix(0.1612903,0,0,0.1612903,3.3548391,3.3548413)"
       id="g1311"
       style="display:inline"><rect
         style="display:inline;fill:#fdd902;fill-opacity:1;stroke-width:1.41823"
         id="rect1101-2"
         width="248"
         height="248"
         x="4.0000305"
         y="4.0000038"
         ry="25.455845" /><path
         style="display:inline;fill:#b20903;fill-opacity:1;stroke-width:1.41823"
         d="M 29.455078,4 C 15.35254,4 4,15.35254 4,29.455078 V 226.54492 C 4,240.64746 15.35254,252 29.455078,252 H 70.796875 V 71.636719 H 252 V 29.455078 C 252,15.35254 240.64746,4 226.54492,4 Z"
         id="rect1101-2-1"
         inkscape:connector-curvature="0" /><path
         style="display:inline;fill:#0ba011;fill-opacity:1;stroke-width:1.41823"
         d="M 128,71.636719 79.189453,156.18164 4.0898438,27.378906 C 4.0349677,28.064229 4,28.755156 4,29.455078 V 226.54492 C 4,240.64746 15.352538,252 29.455078,252 H 128 Z"
         id="rect1101-6"
         inkscape:connector-curvature="0" /><g
         id="g1266"><path
           style="display:inline;fill:#b20903;fill-opacity:1;stroke-width:1.40909"
           inkscape:connector-curvature="0"
           id="path1382"
           d="M 23.685001,4.0000008 V 156.18182 h 55.50409 L 128,71.636364 H 252 V 4.0000008 Z"
           clip-path="url(#clipPath1900)" /><path
           style="display:inline;fill:#0ba011;fill-opacity:1;stroke-width:1.40909"
           inkscape:connector-curvature="0"
           id="path1384"
           d="M 4.0000008,252 H 122.03955 L 176.825,197.21455 V 156.18182 H 79.189091 L 4.0000008,27.221819 Z"
           clip-path="url(#clipPath1908)" /><path
           style="display:inline;fill:#fdd902;fill-opacity:1;stroke-width:1.40909"
           clip-path="url(#clipPath1904)"
           d="M 128,71.636719 A 56.363636,56.363636 0 0 1 184.36328,128 a 56.363636,56.363636 0 0 1 -7.57422,28.12109 l 0.0352,0.0605 L 122.03906,252 H 252 V 71.636719 Z"
           id="path1386"
           inkscape:connector-curvature="0" /></g></g><path
       inkscape:connector-curvature="0"
       d="M 44,10.956522 V 7.4782608 C 44,5.5513043 42.448696,4 40.521739,4 H 7.4782609 C 5.5513043,4 4,5.5513043 4,7.4782608 V 10.956522 C 4,9.0295652 5.5513043,7.4782608 7.4782609,7.4782608 H 40.521739 C 42.448696,7.4782608 44,9.0295652 44,10.956522 Z"
       style="display:inline;opacity:0.1;fill:#000000;fill-opacity:1;stroke-width:0.869565"
       id="path1171" /><path
       id="path1173"
       style="display:inline;opacity:0.1;fill:#000000;fill-opacity:1;stroke-width:0.869565"
       d="m 4,37.043478 v 3.478261 C 4,42.448696 5.551304,44 7.478261,44 H 40.521739 C 42.448696,44 44,42.448696 44,40.521739 v -3.478261 c 0,1.926957 -1.551304,3.478261 -3.478261,3.478261 H 7.478261 C 5.551304,40.521739 4,38.970435 4,37.043478 Z"
       inkscape:connector-curvature="0" /><path
       inkscape:connector-curvature="0"
       d="M 10.956522,4 H 7.478261 C 5.551304,4 4,5.551304 4,7.478261 V 40.521739 C 4,42.448696 5.551304,44 7.478261,44 h 3.478261 C 9.029565,44 7.478261,42.448696 7.478261,40.521739 V 7.478261 C 7.478261,5.551304 9.029565,4 10.956522,4 Z"
       style="display:inline;opacity:0.1;fill:#000000;fill-opacity:1;stroke-width:0.869565"
       id="path1175" /><path
       id="path1177"
       style="display:inline;opacity:0.1;fill:#000000;fill-opacity:1;stroke-width:0.869565"
       d="m 37.043478,4 h 3.478261 C 42.448696,4 44,5.551304 44,7.478261 V 40.521739 C 44,42.448696 42.448696,44 40.521739,44 h -3.478261 c 1.926957,0 3.478261,-1.551304 3.478261,-3.478261 V 7.478261 C 40.521739,5.551304 38.970435,4 37.043478,4 Z"
       inkscape:connector-curvature="0" /></g></g><g
   inkscape:groupmode="layer"
   id="layer6"
   inkscape:label="Circle-Group"
   style="display:inline"
   transform="translate(0,-208)"><g
     inkscape:label="Circle"
     id="Circle"><g
       id="g1257"
       transform="translate(39.487277,-47.682465)"
       style="display:inline"><rect
         clip-path="url(#clipPath1240)"
         ry="4.7216477"
         y="256.68246"
         x="-38.48727"
         height="45.999992"
         width="45.999992"
         id="rect1192"
         style="display:inline;fill:#fdd902;fill-opacity:1;stroke-width:0.263059" /><path
         clip-path="url(#clipPath1234)"
         inkscape:connector-curvature="0"
         id="path1194"
         d="m -33.76577,256.68247 c -2.615793,0 -4.721506,2.10571 -4.721506,4.7215 v 36.55698 c 0,2.61579 2.105713,4.72151 4.721506,4.72151 h 7.668235 V 269.22798 H 7.5127167 v -7.82401 c 0,-2.61579 -2.1057127,-4.7215 -4.721506,-4.7215 z"
         style="display:inline;fill:#b20903;fill-opacity:1;stroke-width:0.263059" /><path
         clip-path="url(#clipPath1246)"
         inkscape:connector-curvature="0"
         id="path1197"
         d="m -15.487279,269.22798 -9.053568,15.68172 -13.929764,-23.89083 c -0.01018,0.12712 -0.01667,0.25528 -0.01667,0.3851 v 36.55698 c 0,2.61579 2.105713,4.72151 4.721506,4.72151 h 18.278491 z"
         style="display:inline;fill:#0ba011;fill-opacity:1;stroke-width:0.263059" /><g
         transform="matrix(0.18548384,0,0,0.18548384,-39.229211,255.94053)"
         id="g1205"><path
           clip-path="url(#clipPath1900)"
           d="M 23.685001,4.0000008 V 156.18182 h 55.50409 L 128,71.636364 H 252 V 4.0000008 Z"
           id="path1199"
           inkscape:connector-curvature="0"
           style="display:inline;fill:#b20903;fill-opacity:1;stroke-width:1.40909" /><path
           clip-path="url(#clipPath1908)"
           d="M 4.0000008,252 H 122.03955 L 176.825,197.21455 V 156.18182 H 79.189091 L 4.0000008,27.221819 Z"
           id="path1201"
           inkscape:connector-curvature="0"
           style="display:inline;fill:#0ba011;fill-opacity:1;stroke-width:1.40909" /><path
           inkscape:connector-curvature="0"
           id="path1203"
           d="M 128,71.636719 A 56.363636,56.363636 0 0 1 184.36328,128 a 56.363636,56.363636 0 0 1 -7.57422,28.12109 l 0.0352,0.0605 L 122.03906,252 H 252 V 71.636719 Z"
           clip-path="url(#clipPath1904)"
           style="display:inline;fill:#fdd902;fill-opacity:1;stroke-width:1.40909" /></g></g><g
       transform="translate(0.001,208)"
       id="g15"
       style="display:inline"><path
         inkscape:connector-curvature="0"
         id="path9"
         style="opacity:0.05"
         d="m 36.31,5 c 5.859,4.062 9.688,10.831 9.688,18.5 0,12.426 -10.07,22.5 -22.5,22.5 -7.669,0 -14.438,-3.828 -18.5,-9.688 1.037,1.822 2.306,3.499 3.781,4.969 4.085,3.712 9.514,5.969 15.469,5.969 12.703,0 23,-10.298 23,-23 0,-5.954 -2.256,-11.384 -5.969,-15.469 C 39.81,7.306 38.132,6.037 36.31,5 Z m 4.969,3.781 c 3.854,4.113 6.219,9.637 6.219,15.719 0,12.703 -10.297,23 -23,23 -6.081,0 -11.606,-2.364 -15.719,-6.219 4.16,4.144 9.883,6.719 16.219,6.719 12.703,0 23,-10.298 23,-23 0,-6.335 -2.575,-12.06 -6.719,-16.219 z" /><path
         inkscape:connector-curvature="0"
         id="path11"
         style="opacity:0.1"
         d="m 41.28,8.781 c 3.712,4.085 5.969,9.514 5.969,15.469 0,12.703 -10.297,23 -23,23 -5.954,0 -11.384,-2.256 -15.469,-5.969 4.113,3.854 9.637,6.219 15.719,6.219 12.703,0 23,-10.298 23,-23 0,-6.081 -2.364,-11.606 -6.219,-15.719 z" /><path
         inkscape:connector-curvature="0"
         id="path13"
         style="opacity:0.2"
         d="M 31.25,2.375 C 39.865,5.529 46,13.792 46,23.505 c 0,12.426 -10.07,22.5 -22.5,22.5 -9.708,0 -17.971,-6.135 -21.12,-14.75 a 23,23 0 0 0 44.875,-7 23,23 0 0 0 -16,-21.875 z" /></g><path
       inkscape:connector-curvature="0"
       id="path1189"
       style="display:inline;opacity:0.4;fill:url(#linearGradient1197);fill-opacity:1"
       d="m 24.001,209 c 12.703,0 23,10.297 23,23 0,12.703 -10.297,23 -23,23 -12.703,0 -23,-10.297 -23,-23 0,-12.703 10.297,-23 23,-23 z" /><g
       transform="translate(0.001,208)"
       id="g47"
       style="display:inline"><path
         inkscape:connector-curvature="0"
         id="path45"
         style="opacity:0.1"
         d="m 40.03,7.531 c 3.712,4.084 5.969,9.514 5.969,15.469 0,12.703 -10.297,23 -23,23 C 17.045,46 11.615,43.744 7.53,40.031 11.708,44.322 17.54,47 23.999,47 c 12.703,0 23,-10.298 23,-23 0,-6.462 -2.677,-12.291 -6.969,-16.469 z" /></g></g></g><g
   inkscape:groupmode="layer"
   id="layer1"
   inkscape:label="Icon-Group"
   style="display:inline"
   transform="translate(0,-208)">

















<g
   transform="matrix(0.22177419,0,0,0.22177419,-4.3870963,203.6129)"
   id="Icon"
   style="display:inline"><circle
     style="fill:#ffffff;stroke-width:1.40909"
     id="circle108-3"
     r="56.363636"
     cx="128"
     cy="128" /><circle
     style="display:inline;fill:#4285f4;stroke-width:1.59659"
     id="circle110"
     r="51.090908"
     cx="128"
     cy="128" /></g></g></svg>
