<?xml version="1.0" encoding="UTF-8" standalone="no"?>
<svg
   xmlns:dc="http://purl.org/dc/elements/1.1/"
   xmlns:cc="http://creativecommons.org/ns#"
   xmlns:rdf="http://www.w3.org/1999/02/22-rdf-syntax-ns#"
   xmlns:svg="http://www.w3.org/2000/svg"
   xmlns="http://www.w3.org/2000/svg"
   xmlns:xlink="http://www.w3.org/1999/xlink"
   xmlns:sodipodi="http://sodipodi.sourceforge.net/DTD/sodipodi-0.dtd"
   xmlns:inkscape="http://www.inkscape.org/namespaces/inkscape"
   version="1.1"
   id="Layer_1"
   x="0px"
   y="0px"
   viewBox="0 0 48 48"
   enable-background="new 0 0 256 256"
   xml:space="preserve"
   sodipodi:docname="spotify.svg"
   inkscape:version="1.0 (1.0+r73+1)"
   inkscape:label="Shadow"
   width="48"
   height="48"><metadata
   id="metadata253"><rdf:RDF><cc:Work
       rdf:about=""><dc:format>image/svg+xml</dc:format><dc:type
         rdf:resource="http://purl.org/dc/dcmitype/StillImage" /><dc:title /></cc:Work></rdf:RDF></metadata><defs
   id="defs251"><linearGradient
   inkscape:collect="always"
   id="linearGradient1195"><stop
     style="stop-color:#646464;stop-opacity:0.2"
     offset="0"
     id="stop1191" /><stop
     style="stop-color:#000000;stop-opacity:0.4"
     offset="1"
     id="stop1193" /></linearGradient>
	
	
<clipPath
   id="b"><use
     width="100%"
     overflow="visible"
     xlink:href="#a"
     height="100%"
     id="use5"
     style="overflow:visible"
     x="0"
     y="0" /></clipPath><linearGradient
   x1="29.337"
   x2="81.836998"
   y1="75.021004"
   gradientUnits="userSpaceOnUse"
   y2="44.354"
   id="c"><stop
     id="stop10"
     offset="0"
     stop-opacity=".6"
     stop-color="#A52714" /><stop
     id="stop12"
     offset=".66"
     stop-opacity="0"
     stop-color="#A52714" /></linearGradient><clipPath
   id="clipPath1232"><use
     width="100%"
     overflow="visible"
     xlink:href="#a"
     height="100%"
     id="use1230"
     style="overflow:visible"
     x="0"
     y="0" /></clipPath><clipPath
   id="clipPath1236"><use
     width="100%"
     overflow="visible"
     xlink:href="#a"
     height="100%"
     id="use1234"
     style="overflow:visible"
     x="0"
     y="0" /></clipPath><linearGradient
   x1="110.87"
   x2="52.537998"
   y1="164.5"
   gradientUnits="userSpaceOnUse"
   y2="130.33"
   id="d"><stop
     id="stop23"
     offset="0"
     stop-opacity=".4"
     stop-color="#055524" /><stop
     id="stop25"
     offset=".33"
     stop-opacity="0"
     stop-color="#055524" /></linearGradient><clipPath
   id="clipPath1244"><use
     width="100%"
     overflow="visible"
     xlink:href="#a"
     height="100%"
     id="use1242"
     style="overflow:visible"
     x="0"
     y="0" /></clipPath><clipPath
   id="clipPath1248"><use
     width="100%"
     overflow="visible"
     xlink:href="#a"
     height="100%"
     id="use1246"
     style="overflow:visible"
     x="0"
     y="0" /></clipPath><clipPath
   id="f"><use
     y="0"
     x="0"
     style="overflow:visible"
     id="use37"
     height="100%"
     xlink:href="#e"
     overflow="visible"
     width="100%" /></clipPath><linearGradient
   x1="121.86"
   x2="136.55"
   y1="49.804001"
   gradientUnits="userSpaceOnUse"
   y2="114.13"
   id="g"><stop
     id="stop42"
     offset="0"
     stop-opacity=".3"
     stop-color="#EA6100" /><stop
     id="stop44"
     offset=".66"
     stop-opacity="0"
     stop-color="#EA6100" /></linearGradient><clipPath
   id="clipPath1258"><use
     width="100%"
     overflow="visible"
     xlink:href="#a"
     height="100%"
     id="use1256"
     style="overflow:visible"
     x="0"
     y="0" /></clipPath><clipPath
   id="clipPath1269"><use
     width="100%"
     overflow="visible"
     xlink:href="#a"
     height="100%"
     id="use1267"
     style="overflow:visible"
     x="0"
     y="0" /></clipPath><clipPath
   id="j"><use
     y="0"
     x="0"
     style="overflow:visible"
     id="use62"
     height="100%"
     xlink:href="#i"
     overflow="visible"
     width="100%" /></clipPath><radialGradient
   id="l"
   gradientUnits="userSpaceOnUse"
   cy="55.948002"
   cx="668.17999"
   gradientTransform="translate(-576)"
   r="84.078003"><stop
     stop-color="#3E2723"
     stop-opacity=".2"
     offset="0"
     id="stop73" /><stop
     stop-color="#3E2723"
     stop-opacity="0"
     offset="1"
     id="stop75" /></radialGradient><clipPath
   id="clipPath1285"><use
     width="100%"
     overflow="visible"
     xlink:href="#a"
     height="100%"
     id="use1283"
     style="overflow:visible"
     x="0"
     y="0" /></clipPath><clipPath
   id="clipPath1289"><use
     width="100%"
     overflow="visible"
     xlink:href="#a"
     height="100%"
     id="use1287"
     style="overflow:visible"
     x="0"
     y="0" /></clipPath><clipPath
   id="n"><use
     y="0"
     x="0"
     style="overflow:visible"
     id="use83"
     height="100%"
     xlink:href="#m"
     overflow="visible"
     width="100%" /></clipPath><radialGradient
   id="p"
   gradientUnits="userSpaceOnUse"
   cy="48.52"
   cx="597.88"
   gradientTransform="translate(-576)"
   r="78.043999"><stop
     stop-color="#3E2723"
     stop-opacity=".2"
     offset="0"
     id="stop94" /><stop
     stop-color="#3E2723"
     stop-opacity="0"
     offset="1"
     id="stop96" /></radialGradient><clipPath
   id="clipPath1305"><use
     width="100%"
     overflow="visible"
     xlink:href="#a"
     height="100%"
     id="use1303"
     style="overflow:visible"
     x="0"
     y="0" /></clipPath><radialGradient
   id="q"
   gradientUnits="userSpaceOnUse"
   cy="96.138"
   cx="671.84003"
   gradientTransform="translate(-576)"
   r="87.870003"><stop
     stop-color="#263238"
     stop-opacity=".2"
     offset="0"
     id="stop101" /><stop
     stop-color="#263238"
     stop-opacity="0"
     offset="1"
     id="stop103" /></radialGradient><clipPath
   id="clipPath1312"><use
     width="100%"
     overflow="visible"
     xlink:href="#a"
     height="100%"
     id="use1310"
     style="overflow:visible"
     x="0"
     y="0" /></clipPath><clipPath
   id="clipPath1316"><use
     width="100%"
     overflow="visible"
     xlink:href="#a"
     height="100%"
     id="use1314"
     style="overflow:visible"
     x="0"
     y="0" /></clipPath><clipPath
   id="clipPath1320"><use
     width="100%"
     overflow="visible"
     xlink:href="#a"
     height="100%"
     id="use1318"
     style="overflow:visible"
     x="0"
     y="0" /></clipPath><clipPath
   id="clipPath1324"><use
     width="100%"
     overflow="visible"
     xlink:href="#a"
     height="100%"
     id="use1322"
     style="overflow:visible"
     x="0"
     y="0" /></clipPath><path
   inkscape:connector-curvature="0"
   d="m 8,184 h 83.77 l 38.88,-38.88 V 116 H 61.36 L 8,24.48 Z"
   id="e" /><path
   inkscape:connector-curvature="0"
   d="m 96,56 34.65,60 -38.88,68 H 184 V 56 Z"
   id="i" /><path
   inkscape:connector-curvature="0"
   d="M 21.97,8 V 48.34 L 61.36,116 96,56 h 88 V 8 Z"
   id="m" /><clipPath
   id="b-1"><use
     width="100%"
     overflow="visible"
     xlink:href="#a"
     height="100%"
     id="use5-7"
     style="overflow:visible"
     x="0"
     y="0" /></clipPath><clipPath
   id="clipPath1232-2"><use
     width="100%"
     overflow="visible"
     xlink:href="#a"
     height="100%"
     id="use1230-2"
     style="overflow:visible"
     x="0"
     y="0" /></clipPath><clipPath
   id="clipPath1236-6"><use
     width="100%"
     overflow="visible"
     xlink:href="#a"
     height="100%"
     id="use1234-1"
     style="overflow:visible"
     x="0"
     y="0" /></clipPath><clipPath
   id="clipPath1244-1"><use
     width="100%"
     overflow="visible"
     xlink:href="#a"
     height="100%"
     id="use1242-5"
     style="overflow:visible"
     x="0"
     y="0" /></clipPath><clipPath
   id="clipPath1248-9"><use
     width="100%"
     overflow="visible"
     xlink:href="#a"
     height="100%"
     id="use1246-4"
     style="overflow:visible"
     x="0"
     y="0" /></clipPath><clipPath
   id="f-9"><use
     y="0"
     x="0"
     style="overflow:visible"
     id="use37-0"
     height="100%"
     xlink:href="#e-8"
     overflow="visible"
     width="100%" /></clipPath><clipPath
   id="clipPath1258-7"><use
     width="100%"
     overflow="visible"
     xlink:href="#a"
     height="100%"
     id="use1256-7"
     style="overflow:visible"
     x="0"
     y="0" /></clipPath><clipPath
   id="clipPath1269-1"><use
     width="100%"
     overflow="visible"
     xlink:href="#a"
     height="100%"
     id="use1267-1"
     style="overflow:visible"
     x="0"
     y="0" /></clipPath><clipPath
   id="j-5"><use
     y="0"
     x="0"
     style="overflow:visible"
     id="use62-9"
     height="100%"
     xlink:href="#i-5"
     overflow="visible"
     width="100%" /></clipPath><radialGradient
   id="l-7"
   gradientUnits="userSpaceOnUse"
   cy="55.948002"
   cx="668.17999"
   gradientTransform="translate(-576)"
   r="84.078003"><stop
     stop-color="#3E2723"
     stop-opacity=".2"
     offset="0"
     id="stop73-7" /><stop
     stop-color="#3E2723"
     stop-opacity="0"
     offset="1"
     id="stop75-6" /></radialGradient><clipPath
   id="clipPath1285-7"><use
     width="100%"
     overflow="visible"
     xlink:href="#a"
     height="100%"
     id="use1283-3"
     style="overflow:visible"
     x="0"
     y="0" /></clipPath><clipPath
   id="clipPath1289-6"><use
     width="100%"
     overflow="visible"
     xlink:href="#a"
     height="100%"
     id="use1287-5"
     style="overflow:visible"
     x="0"
     y="0" /></clipPath><clipPath
   id="n-6"><use
     y="0"
     x="0"
     style="overflow:visible"
     id="use83-3"
     height="100%"
     xlink:href="#m-6"
     overflow="visible"
     width="100%" /></clipPath><radialGradient
   id="p-9"
   gradientUnits="userSpaceOnUse"
   cy="48.52"
   cx="597.88"
   gradientTransform="translate(-576)"
   r="78.043999"><stop
     stop-color="#3E2723"
     stop-opacity=".2"
     offset="0"
     id="stop94-4" /><stop
     stop-color="#3E2723"
     stop-opacity="0"
     offset="1"
     id="stop96-8" /></radialGradient><clipPath
   id="clipPath1305-1"><use
     width="100%"
     overflow="visible"
     xlink:href="#a"
     height="100%"
     id="use1303-2"
     style="overflow:visible"
     x="0"
     y="0" /></clipPath><radialGradient
   id="q-9"
   gradientUnits="userSpaceOnUse"
   cy="96.138"
   cx="671.84003"
   gradientTransform="translate(-576)"
   r="87.870003"><stop
     stop-color="#263238"
     stop-opacity=".2"
     offset="0"
     id="stop101-3" /><stop
     stop-color="#263238"
     stop-opacity="0"
     offset="1"
     id="stop103-9" /></radialGradient><clipPath
   id="clipPath1312-0"><use
     width="100%"
     overflow="visible"
     xlink:href="#a"
     height="100%"
     id="use1310-8"
     style="overflow:visible"
     x="0"
     y="0" /></clipPath><clipPath
   id="clipPath1316-8"><use
     width="100%"
     overflow="visible"
     xlink:href="#a"
     height="100%"
     id="use1314-5"
     style="overflow:visible"
     x="0"
     y="0" /></clipPath><clipPath
   id="clipPath1320-0"><use
     width="100%"
     overflow="visible"
     xlink:href="#a"
     height="100%"
     id="use1318-9"
     style="overflow:visible"
     x="0"
     y="0" /></clipPath><clipPath
   id="clipPath1324-6"><use
     width="100%"
     overflow="visible"
     xlink:href="#a"
     height="100%"
     id="use1322-3"
     style="overflow:visible"
     x="0"
     y="0" /></clipPath><path
   inkscape:connector-curvature="0"
   d="m 8,184 h 83.77 l 38.88,-38.88 V 116 H 61.36 L 8,24.48 Z"
   id="e-8" /><path
   inkscape:connector-curvature="0"
   d="m 96,56 34.65,60 -38.88,68 H 184 V 56 Z"
   id="i-5" /><path
   inkscape:connector-curvature="0"
   d="M 21.97,8 V 48.34 L 61.36,116 96,56 h 88 V 8 Z"
   id="m-6" /><radialGradient
   id="r"
   gradientUnits="userSpaceOnUse"
   cy="32.014"
   cx="34.285999"
   gradientTransform="translate(-23.079613,-106.2699)"
   r="176.75"><stop
     stop-color="#fff"
     stop-opacity=".1"
     offset="0"
     id="stop130" /><stop
     stop-color="#fff"
     stop-opacity="0"
     offset="1"
     id="stop132" /></radialGradient><clipPath
   id="b-0"><use
     y="0"
     x="0"
     style="overflow:visible"
     width="100%"
     overflow="visible"
     xlink:href="#a"
     height="100%"
     id="use5-5" /></clipPath><clipPath
   id="clipPath963"><use
     y="0"
     x="0"
     style="overflow:visible"
     width="100%"
     overflow="visible"
     xlink:href="#a"
     height="100%"
     id="use961" /></clipPath><clipPath
   id="clipPath967"><use
     y="0"
     x="0"
     style="overflow:visible"
     width="100%"
     overflow="visible"
     xlink:href="#a"
     height="100%"
     id="use965" /></clipPath><radialGradient
   id="q-94"
   gradientUnits="userSpaceOnUse"
   cy="96.138"
   cx="671.84003"
   gradientTransform="translate(-576)"
   r="87.870003"><stop
     stop-color="#263238"
     stop-opacity=".2"
     offset="0"
     id="stop101-6" /><stop
     stop-color="#263238"
     stop-opacity="0"
     offset="1"
     id="stop103-92" /></radialGradient><clipPath
   id="clipPath974"><use
     y="0"
     x="0"
     style="overflow:visible"
     width="100%"
     overflow="visible"
     xlink:href="#a"
     height="100%"
     id="use972" /></clipPath><radialGradient
   id="p-2"
   gradientUnits="userSpaceOnUse"
   cy="48.52"
   cx="597.88"
   gradientTransform="translate(-576)"
   r="78.043999"><stop
     stop-color="#3E2723"
     stop-opacity=".2"
     offset="0"
     id="stop94-47" /><stop
     stop-color="#3E2723"
     stop-opacity="0"
     offset="1"
     id="stop96-7" /></radialGradient><clipPath
   id="clipPath981"><use
     y="0"
     x="0"
     style="overflow:visible"
     width="100%"
     overflow="visible"
     xlink:href="#a"
     height="100%"
     id="use979" /></clipPath><clipPath
   id="clipPath985"><use
     y="0"
     x="0"
     style="overflow:visible"
     width="100%"
     overflow="visible"
     xlink:href="#a"
     height="100%"
     id="use983" /></clipPath><clipPath
   id="n-5"><use
     width="100%"
     overflow="visible"
     xlink:href="#m-0"
     height="100%"
     id="use83-4"
     style="overflow:visible"
     x="0"
     y="0" /></clipPath><radialGradient
   id="l-2"
   gradientUnits="userSpaceOnUse"
   cy="55.948002"
   cx="668.17999"
   gradientTransform="translate(-576)"
   r="84.078003"><stop
     stop-color="#3E2723"
     stop-opacity=".2"
     offset="0"
     id="stop73-8" /><stop
     stop-color="#3E2723"
     stop-opacity="0"
     offset="1"
     id="stop75-9" /></radialGradient><clipPath
   id="clipPath997"><use
     y="0"
     x="0"
     style="overflow:visible"
     width="100%"
     overflow="visible"
     xlink:href="#a"
     height="100%"
     id="use995" /></clipPath><clipPath
   id="clipPath1001"><use
     y="0"
     x="0"
     style="overflow:visible"
     width="100%"
     overflow="visible"
     xlink:href="#a"
     height="100%"
     id="use999" /></clipPath><clipPath
   id="j-3"><use
     width="100%"
     overflow="visible"
     xlink:href="#i-1"
     height="100%"
     id="use62-6"
     style="overflow:visible"
     x="0"
     y="0" /></clipPath><clipPath
   id="clipPath1010"><use
     y="0"
     x="0"
     style="overflow:visible"
     width="100%"
     overflow="visible"
     xlink:href="#a"
     height="100%"
     id="use1008" /></clipPath><clipPath
   id="clipPath1017"><use
     y="0"
     x="0"
     style="overflow:visible"
     width="100%"
     overflow="visible"
     xlink:href="#a"
     height="100%"
     id="use1015" /></clipPath><clipPath
   id="f-0"><use
     width="100%"
     overflow="visible"
     xlink:href="#e-1"
     height="100%"
     id="use37-5"
     style="overflow:visible"
     x="0"
     y="0" /></clipPath><clipPath
   id="clipPath1029"><use
     y="0"
     x="0"
     style="overflow:visible"
     width="100%"
     overflow="visible"
     xlink:href="#a"
     height="100%"
     id="use1027" /></clipPath><clipPath
   id="clipPath1033"><use
     y="0"
     x="0"
     style="overflow:visible"
     width="100%"
     overflow="visible"
     xlink:href="#a"
     height="100%"
     id="use1031" /></clipPath><clipPath
   id="clipPath1043"><use
     y="0"
     x="0"
     style="overflow:visible"
     width="100%"
     overflow="visible"
     xlink:href="#a"
     height="100%"
     id="use1041" /></clipPath><clipPath
   id="clipPath1047"><use
     y="0"
     x="0"
     style="overflow:visible"
     width="100%"
     overflow="visible"
     xlink:href="#a"
     height="100%"
     id="use1045" /></clipPath><path
   id="e-1"
   d="m 8,184 h 83.77 l 38.88,-38.88 V 116 H 61.36 L 8,24.48 Z"
   inkscape:connector-curvature="0" /><path
   id="i-1"
   d="m 96,56 34.65,60 -38.88,68 H 184 V 56 Z"
   inkscape:connector-curvature="0" /><path
   id="m-0"
   d="M 21.97,8 V 48.34 L 61.36,116 96,56 h 88 V 8 Z"
   inkscape:connector-curvature="0" /><circle
   r="88"
   cx="96"
   cy="96"
   id="a" /><path
   d="m 8,184 h 83.77 l 38.88,-38.88 V 116 H 61.36 L 8,24.48 Z"
   id="e-6"
   inkscape:connector-curvature="0" /><path
   d="m 96,56 34.65,60 -38.88,68 H 184 V 56 Z"
   id="i-2"
   inkscape:connector-curvature="0" /><path
   d="M 21.97,8 V 48.34 L 61.36,116 96,56 h 88 V 8 Z"
   id="m-8"
   inkscape:connector-curvature="0" /><defs
   id="defs1820"><path
     d="M 21.97,8 V 48.34 L 61.36,116 96,56 h 88 V 8 Z"
     id="path1928"
     inkscape:connector-curvature="0" /></defs><clipPath
   id="n-7"><use
     id="use1822"
     height="100%"
     xlink:href="#m-8"
     overflow="visible"
     width="100%"
     style="overflow:visible"
     x="0"
     y="0" /></clipPath><defs
   id="defs1799"><path
     d="m 96,56 34.65,60 -38.88,68 H 184 V 56 Z"
     id="path1918"
     inkscape:connector-curvature="0" /></defs><clipPath
   id="j-6"><use
     id="use1801"
     height="100%"
     xlink:href="#i-2"
     overflow="visible"
     width="100%"
     style="overflow:visible"
     x="0"
     y="0" /></clipPath><defs
   id="defs1774"><path
     d="m 8,184 h 83.77 l 38.88,-38.88 V 116 H 61.36 L 8,24.48 Z"
     id="path1902"
     inkscape:connector-curvature="0" /></defs><clipPath
   id="f-06"><use
     id="use1776"
     height="100%"
     xlink:href="#e-6"
     overflow="visible"
     width="100%"
     style="overflow:visible"
     x="0"
     y="0" /></clipPath><linearGradient
   x1="110.87"
   x2="52.537998"
   y1="164.5"
   gradientUnits="userSpaceOnUse"
   y2="130.33"
   id="linearGradient1897"><stop
     id="stop1762"
     offset="0"
     stop-opacity=".4"
     stop-color="#055524" /><stop
     id="stop1764"
     offset=".33"
     stop-opacity="0"
     stop-color="#055524" /></linearGradient><linearGradient
   x1="29.337"
   x2="81.836998"
   y1="75.021004"
   gradientUnits="userSpaceOnUse"
   y2="44.354"
   id="linearGradient1889"><stop
     id="stop1749"
     offset="0"
     stop-opacity=".6"
     stop-color="#A52714" /><stop
     id="stop1751"
     offset=".66"
     stop-opacity="0"
     stop-color="#A52714" /></linearGradient><linearGradient
   id="linearGradient1910"
   y2="114.13"
   gradientUnits="userSpaceOnUse"
   y1="49.804001"
   x2="136.55"
   x1="121.86"><stop
     stop-color="#EA6100"
     stop-opacity=".3"
     offset="0"
     id="stop1781" /><stop
     stop-color="#EA6100"
     stop-opacity="0"
     offset=".66"
     id="stop1783" /></linearGradient><clipPath
   id="b-3"><use
     y="0"
     x="0"
     style="overflow:visible"
     width="100%"
     overflow="visible"
     xlink:href="#a"
     height="100%"
     id="use5-1" /></clipPath><clipPath
   id="clipPath1024"><use
     y="0"
     x="0"
     style="overflow:visible"
     width="100%"
     overflow="visible"
     xlink:href="#a"
     height="100%"
     id="use1022" /></clipPath><clipPath
   id="clipPath1028"><use
     y="0"
     x="0"
     style="overflow:visible"
     width="100%"
     overflow="visible"
     xlink:href="#a"
     height="100%"
     id="use1026" /></clipPath><clipPath
   id="clipPath1035"><use
     y="0"
     x="0"
     style="overflow:visible"
     width="100%"
     overflow="visible"
     xlink:href="#a"
     height="100%"
     id="use1033" /></clipPath><clipPath
   id="clipPath1039"><use
     y="0"
     x="0"
     style="overflow:visible"
     width="100%"
     overflow="visible"
     xlink:href="#a"
     height="100%"
     id="use1037" /></clipPath><clipPath
   id="f-6"><use
     y="0"
     x="0"
     style="overflow:visible"
     id="use37-8"
     height="100%"
     xlink:href="#e-61"
     overflow="visible"
     width="100%" /></clipPath><clipPath
   id="clipPath1048"><use
     y="0"
     x="0"
     style="overflow:visible"
     width="100%"
     overflow="visible"
     xlink:href="#a"
     height="100%"
     id="use1046" /></clipPath><clipPath
   id="clipPath1058"><use
     y="0"
     x="0"
     style="overflow:visible"
     width="100%"
     overflow="visible"
     xlink:href="#a"
     height="100%"
     id="use1056" /></clipPath><clipPath
   id="j-66"><use
     y="0"
     x="0"
     style="overflow:visible"
     id="use62-4"
     height="100%"
     xlink:href="#i-59"
     overflow="visible"
     width="100%" /></clipPath><radialGradient
   id="l-9"
   gradientUnits="userSpaceOnUse"
   cy="55.948002"
   cx="668.17999"
   gradientTransform="translate(-576)"
   r="84.078003"><stop
     stop-color="#3E2723"
     stop-opacity=".2"
     offset="0"
     id="stop73-5" /><stop
     stop-color="#3E2723"
     stop-opacity="0"
     offset="1"
     id="stop75-0" /></radialGradient><clipPath
   id="clipPath1073"><use
     y="0"
     x="0"
     style="overflow:visible"
     width="100%"
     overflow="visible"
     xlink:href="#a"
     height="100%"
     id="use1071" /></clipPath><clipPath
   id="clipPath1077"><use
     y="0"
     x="0"
     style="overflow:visible"
     width="100%"
     overflow="visible"
     xlink:href="#a"
     height="100%"
     id="use1075" /></clipPath><clipPath
   id="n-4"><use
     y="0"
     x="0"
     style="overflow:visible"
     id="use83-8"
     height="100%"
     xlink:href="#m-4"
     overflow="visible"
     width="100%" /></clipPath><radialGradient
   id="p-7"
   gradientUnits="userSpaceOnUse"
   cy="48.52"
   cx="597.88"
   gradientTransform="translate(-576)"
   r="78.043999"><stop
     stop-color="#3E2723"
     stop-opacity=".2"
     offset="0"
     id="stop94-1" /><stop
     stop-color="#3E2723"
     stop-opacity="0"
     offset="1"
     id="stop96-72" /></radialGradient><clipPath
   id="clipPath1092"><use
     y="0"
     x="0"
     style="overflow:visible"
     width="100%"
     overflow="visible"
     xlink:href="#a"
     height="100%"
     id="use1090" /></clipPath><radialGradient
   id="q-7"
   gradientUnits="userSpaceOnUse"
   cy="96.138"
   cx="671.84003"
   gradientTransform="translate(-576)"
   r="87.870003"><stop
     stop-color="#263238"
     stop-opacity=".2"
     offset="0"
     id="stop101-2" /><stop
     stop-color="#263238"
     stop-opacity="0"
     offset="1"
     id="stop103-2" /></radialGradient><clipPath
   id="clipPath1099"><use
     y="0"
     x="0"
     style="overflow:visible"
     width="100%"
     overflow="visible"
     xlink:href="#a"
     height="100%"
     id="use1097" /></clipPath><clipPath
   id="clipPath1103"><use
     y="0"
     x="0"
     style="overflow:visible"
     width="100%"
     overflow="visible"
     xlink:href="#a"
     height="100%"
     id="use1101" /></clipPath><clipPath
   id="clipPath1107"><use
     y="0"
     x="0"
     style="overflow:visible"
     width="100%"
     overflow="visible"
     xlink:href="#a"
     height="100%"
     id="use1105" /></clipPath><clipPath
   id="clipPath1111"><use
     y="0"
     x="0"
     style="overflow:visible"
     width="100%"
     overflow="visible"
     xlink:href="#a"
     height="100%"
     id="use1109" /></clipPath><radialGradient
   id="r-6"
   gradientUnits="userSpaceOnUse"
   cy="32.014"
   cx="34.285999"
   gradientTransform="translate(-7,-7)"
   r="176.75"><stop
     stop-color="#fff"
     stop-opacity=".1"
     offset="0"
     id="stop130-1" /><stop
     stop-color="#fff"
     stop-opacity="0"
     offset="1"
     id="stop132-0" /></radialGradient><path
   inkscape:connector-curvature="0"
   d="m 8,184 h 83.77 l 38.88,-38.88 V 116 H 61.36 L 8,24.48 Z"
   id="e-61" /><path
   inkscape:connector-curvature="0"
   d="m 96,56 34.65,60 -38.88,68 H 184 V 56 Z"
   id="i-59" /><path
   inkscape:connector-curvature="0"
   d="M 21.97,8 V 48.34 L 61.36,116 96,56 h 88 V 8 Z"
   id="m-4" /><clipPath
   id="b-9"><use
     y="0"
     x="0"
     style="overflow:visible"
     width="100%"
     overflow="visible"
     xlink:href="#a"
     height="100%"
     id="use5-0" /></clipPath><clipPath
   id="clipPath1024-7"><use
     y="0"
     x="0"
     style="overflow:visible"
     width="100%"
     overflow="visible"
     xlink:href="#a"
     height="100%"
     id="use1022-7" /></clipPath><clipPath
   id="clipPath1028-1"><use
     y="0"
     x="0"
     style="overflow:visible"
     width="100%"
     overflow="visible"
     xlink:href="#a"
     height="100%"
     id="use1026-1" /></clipPath><clipPath
   id="clipPath1035-7"><use
     y="0"
     x="0"
     style="overflow:visible"
     width="100%"
     overflow="visible"
     xlink:href="#a"
     height="100%"
     id="use1033-7" /></clipPath><clipPath
   id="clipPath1039-6"><use
     y="0"
     x="0"
     style="overflow:visible"
     width="100%"
     overflow="visible"
     xlink:href="#a"
     height="100%"
     id="use1037-7" /></clipPath><clipPath
   id="f-3"><use
     y="0"
     x="0"
     style="overflow:visible"
     id="use37-6"
     height="100%"
     xlink:href="#e-9"
     overflow="visible"
     width="100%" /></clipPath><clipPath
   id="clipPath1048-3"><use
     y="0"
     x="0"
     style="overflow:visible"
     width="100%"
     overflow="visible"
     xlink:href="#a"
     height="100%"
     id="use1046-9" /></clipPath><clipPath
   id="clipPath1058-4"><use
     y="0"
     x="0"
     style="overflow:visible"
     width="100%"
     overflow="visible"
     xlink:href="#a"
     height="100%"
     id="use1056-8" /></clipPath><clipPath
   id="j-1"><use
     y="0"
     x="0"
     style="overflow:visible"
     id="use62-2"
     height="100%"
     xlink:href="#i-6"
     overflow="visible"
     width="100%" /></clipPath><radialGradient
   id="l-93"
   gradientUnits="userSpaceOnUse"
   cy="55.948002"
   cx="668.17999"
   gradientTransform="translate(-576)"
   r="84.078003"><stop
     stop-color="#3E2723"
     stop-opacity=".2"
     offset="0"
     id="stop73-9" /><stop
     stop-color="#3E2723"
     stop-opacity="0"
     offset="1"
     id="stop75-08" /></radialGradient><clipPath
   id="clipPath1073-8"><use
     y="0"
     x="0"
     style="overflow:visible"
     width="100%"
     overflow="visible"
     xlink:href="#a"
     height="100%"
     id="use1071-5" /></clipPath><clipPath
   id="clipPath1077-0"><use
     y="0"
     x="0"
     style="overflow:visible"
     width="100%"
     overflow="visible"
     xlink:href="#a"
     height="100%"
     id="use1075-9" /></clipPath><clipPath
   id="n-63"><use
     y="0"
     x="0"
     style="overflow:visible"
     id="use83-85"
     height="100%"
     xlink:href="#m-2"
     overflow="visible"
     width="100%" /></clipPath><radialGradient
   id="p-6"
   gradientUnits="userSpaceOnUse"
   cy="48.52"
   cx="597.88"
   gradientTransform="translate(-576)"
   r="78.043999"><stop
     stop-color="#3E2723"
     stop-opacity=".2"
     offset="0"
     id="stop94-11" /><stop
     stop-color="#3E2723"
     stop-opacity="0"
     offset="1"
     id="stop96-5" /></radialGradient><clipPath
   id="clipPath1092-9"><use
     y="0"
     x="0"
     style="overflow:visible"
     width="100%"
     overflow="visible"
     xlink:href="#a"
     height="100%"
     id="use1090-8" /></clipPath><radialGradient
   id="q-4"
   gradientUnits="userSpaceOnUse"
   cy="96.138"
   cx="671.84003"
   gradientTransform="translate(-576)"
   r="87.870003"><stop
     stop-color="#263238"
     stop-opacity=".2"
     offset="0"
     id="stop101-8" /><stop
     stop-color="#263238"
     stop-opacity="0"
     offset="1"
     id="stop103-1" /></radialGradient><clipPath
   id="clipPath1099-0"><use
     y="0"
     x="0"
     style="overflow:visible"
     width="100%"
     overflow="visible"
     xlink:href="#a"
     height="100%"
     id="use1097-3" /></clipPath><clipPath
   id="clipPath1103-0"><use
     y="0"
     x="0"
     style="overflow:visible"
     width="100%"
     overflow="visible"
     xlink:href="#a"
     height="100%"
     id="use1101-4" /></clipPath><clipPath
   id="clipPath1107-4"><use
     y="0"
     x="0"
     style="overflow:visible"
     width="100%"
     overflow="visible"
     xlink:href="#a"
     height="100%"
     id="use1105-4" /></clipPath><clipPath
   id="clipPath1111-4"><use
     y="0"
     x="0"
     style="overflow:visible"
     width="100%"
     overflow="visible"
     xlink:href="#a"
     height="100%"
     id="use1109-7" /></clipPath><radialGradient
   id="r-63"
   gradientUnits="userSpaceOnUse"
   cy="32.014"
   cx="34.285999"
   gradientTransform="translate(-7,-7)"
   r="176.75"><stop
     stop-color="#fff"
     stop-opacity=".1"
     offset="0"
     id="stop130-17" /><stop
     stop-color="#fff"
     stop-opacity="0"
     offset="1"
     id="stop132-5" /></radialGradient><path
   inkscape:connector-curvature="0"
   d="m 8,184 h 83.77 l 38.88,-38.88 V 116 H 61.36 L 8,24.48 Z"
   id="e-9" /><path
   inkscape:connector-curvature="0"
   d="m 96,56 34.65,60 -38.88,68 H 184 V 56 Z"
   id="i-6" /><path
   inkscape:connector-curvature="0"
   d="M 21.97,8 V 48.34 L 61.36,116 96,56 h 88 V 8 Z"
   id="m-2" /><linearGradient
   id="linearGradient3764"
   gradientTransform="translate(-399,87.002215)"
   gradientUnits="userSpaceOnUse"
   x1="1"
   x2="47"><stop
     offset="0"
     style="stop-color:#575757"
     id="stop2" /><stop
     offset="1"
     style="stop-color:#616161"
     id="stop4" /></linearGradient><linearGradient
   id="linearGradient3764-3"
   gradientTransform="translate(-255.99999,0.002213)"
   gradientUnits="userSpaceOnUse"
   x1="1"
   x2="47"><stop
     offset="0"
     style="stop-color:#575757"
     id="stop2-6" /><stop
     offset="1"
     style="stop-color:#616161"
     id="stop4-7" /></linearGradient><linearGradient
   id="linearGradient3764-5"
   x1="1"
   x2="47"
   gradientUnits="userSpaceOnUse"
   gradientTransform="rotate(-90,23.999998,24)"><stop
     style="stop-color:#575757;stop-opacity:1"
     id="stop2-3" /><stop
     offset="1"
     style="stop-color:#616161;stop-opacity:1"
     id="stop4-5" /></linearGradient><linearGradient
   inkscape:collect="always"
   xlink:href="#linearGradient1195"
   id="linearGradient1197"
   x1="9.1260004"
   y1="213.875"
   x2="36.375999"
   y2="250.25"
   gradientUnits="userSpaceOnUse" /><linearGradient
   y2="250.25"
   x2="36.375999"
   y1="213.875"
   x1="9.1260004"
   gradientUnits="userSpaceOnUse"
   id="linearGradient1206"
   xlink:href="#linearGradient1195"
   inkscape:collect="always" /><filter
   height="1.054"
   y="-0.027"
   width="1.054"
   x="-0.027"
   id="filter1149"
   style="color-interpolation-filters:sRGB"
   inkscape:collect="always"><feGaussianBlur
     id="feGaussianBlur1151"
     stdDeviation="0.45"
     inkscape:collect="always" /></filter></defs><sodipodi:namedview
   pagecolor="#ffffff"
   bordercolor="#666666"
   borderopacity="1"
   objecttolerance="10"
   gridtolerance="10"
   guidetolerance="10"
   inkscape:pageopacity="0"
   inkscape:pageshadow="2"
   inkscape:window-width="1885"
   inkscape:window-height="1542"
   id="namedview249"
   showgrid="false"
   inkscape:zoom="16.000001"
   inkscape:cx="30.457681"
   inkscape:cy="44.206593"
   inkscape:window-x="1955"
   inkscape:window-y="28"
   inkscape:window-maximized="0"
   inkscape:current-layer="g1179"
   inkscape:pagecheckerboard="true"
   inkscape:document-rotation="0" />

<g
   inkscape:groupmode="layer"
   id="layer3"
   inkscape:label="Default"
   style="display:inline"><g
     transform="matrix(0.85106383,0,0,0.85106383,3.5744681,-173.44681)"
     style="display:inline"
     inkscape:label="Circle"
     id="g1204"><g
       id="g1194"
       transform="translate(-0.499,207.5)"><path
         d="m 36.31,5 c 5.859,4.062 9.688,10.831 9.688,18.5 0,12.426 -10.07,22.5 -22.5,22.5 -7.669,0 -14.438,-3.828 -18.5,-9.688 1.037,1.822 2.306,3.499 3.781,4.969 4.085,3.712 9.514,5.969 15.469,5.969 12.703,0 23,-10.298 23,-23 0,-5.954 -2.256,-11.384 -5.969,-15.469 C 39.81,7.306 38.132,6.037 36.31,5 Z m 4.969,3.781 c 3.854,4.113 6.219,9.637 6.219,15.719 0,12.703 -10.297,23 -23,23 -6.081,0 -11.606,-2.364 -15.719,-6.219 4.16,4.144 9.883,6.719 16.219,6.719 12.703,0 23,-10.298 23,-23 0,-6.335 -2.575,-12.06 -6.719,-16.219 z"
         style="opacity:0.05"
         id="path1187"
         inkscape:connector-curvature="0" /><path
         d="m 41.28,8.781 c 3.712,4.085 5.969,9.514 5.969,15.469 0,12.703 -10.297,23 -23,23 -5.954,0 -11.384,-2.256 -15.469,-5.969 4.113,3.854 9.637,6.219 15.719,6.219 12.703,0 23,-10.298 23,-23 0,-6.081 -2.364,-11.606 -6.219,-15.719 z"
         style="opacity:0.1"
         id="path1190"
         inkscape:connector-curvature="0" /><path
         d="M 31.25,2.375 C 39.865,5.529 46,13.792 46,23.505 c 0,12.426 -10.07,22.5 -22.5,22.5 -9.708,0 -17.971,-6.135 -21.12,-14.75 a 23,23 0 0 0 44.875,-7 23,23 0 0 0 -16,-21.875 z"
         style="opacity:0.2"
         id="path1192"
         inkscape:connector-curvature="0" /></g><path
       inkscape:connector-curvature="0"
       id="path1196"
       style="fill:#0ba011;fill-opacity:1"
       d="m 23.501,208.5 c 12.703,0 23,10.297 23,23 0,12.703 -10.297,23 -23,23 -12.703,0 -23,-10.297 -23,-23 0,-12.703 10.297,-23 23,-23 z" /><path
       d="m 23.501,208.5 c 12.703,0 23,10.297 23,23 0,12.703 -10.297,23 -23,23 -12.703,0 -23,-10.297 -23,-23 0,-12.703 10.297,-23 23,-23 z"
       style="opacity:0.4;fill:url(#linearGradient1206);fill-opacity:1"
       id="path1198"
       inkscape:connector-curvature="0" /><g
       id="g1202"
       transform="translate(-0.499,207.5)"><path
         d="m 40.03,7.531 c 3.712,4.084 5.969,9.514 5.969,15.469 0,12.703 -10.297,23 -23,23 C 17.045,46 11.615,43.744 7.53,40.031 11.708,44.322 17.54,47 23.999,47 c 12.703,0 23,-10.298 23,-23 0,-6.462 -2.677,-12.291 -6.969,-16.469 z"
         style="opacity:0.1"
         id="path1200"
         inkscape:connector-curvature="0" /></g></g></g><g
   inkscape:label="Square-Group"
   id="g1179"
   inkscape:groupmode="layer"
   style="display:inline"><g
     id="Square"
     transform="matrix(1.15,0,0,1.15,-3.6,-3.6)"
     inkscape:label="Square"
     style="display:inline"><rect
       id="rect1147"
       y="4"
       x="-44"
       width="40"
       transform="rotate(-90)"
       style="opacity:0.2;fill:#000000;fill-opacity:1;stroke-width:0.869565;filter:url(#filter1149)"
       rx="3.4782608"
       height="40" /><rect
       height="40"
       rx="3.4782608"
       style="fill:#0ba011;fill-opacity:1;stroke-width:0.869565"
       transform="rotate(-90)"
       width="40"
       x="-44"
       y="4"
       id="rect1169" /><path
       inkscape:connector-curvature="0"
       d="M 44,10.956522 V 7.4782608 C 44,5.5513043 42.448696,4 40.521739,4 H 7.4782609 C 5.5513043,4 4,5.5513043 4,7.4782608 V 10.956522 C 4,9.0295652 5.5513043,7.4782608 7.4782609,7.4782608 H 40.521739 C 42.448696,7.4782608 44,9.0295652 44,10.956522 Z"
       style="opacity:0.1;fill:#000000;fill-opacity:1;stroke-width:0.869565"
       id="path1171" /><path
       id="path1173"
       style="opacity:0.1;fill:#000000;fill-opacity:1;stroke-width:0.869565"
       d="m 4,37.043478 v 3.478261 C 4,42.448696 5.551304,44 7.478261,44 H 40.521739 C 42.448696,44 44,42.448696 44,40.521739 v -3.478261 c 0,1.926957 -1.551304,3.478261 -3.478261,3.478261 H 7.478261 C 5.551304,40.521739 4,38.970435 4,37.043478 Z"
       inkscape:connector-curvature="0" /><path
       inkscape:connector-curvature="0"
       d="M 10.956522,4 H 7.478261 C 5.551304,4 4,5.551304 4,7.478261 V 40.521739 C 4,42.448696 5.551304,44 7.478261,44 h 3.478261 C 9.029565,44 7.478261,42.448696 7.478261,40.521739 V 7.478261 C 7.478261,5.551304 9.029565,4 10.956522,4 Z"
       style="opacity:0.1;fill:#000000;fill-opacity:1;stroke-width:0.869565"
       id="path1175" /><path
       id="path1177"
       style="opacity:0.1;fill:#000000;fill-opacity:1;stroke-width:0.869565"
       d="m 37.043478,4 h 3.478261 C 42.448696,4 44,5.551304 44,7.478261 V 40.521739 C 44,42.448696 42.448696,44 40.521739,44 h -3.478261 c 1.926957,0 3.478261,-1.551304 3.478261,-3.478261 V 7.478261 C 40.521739,5.551304 38.970435,4 37.043478,4 Z"
       inkscape:connector-curvature="0" /></g></g><g
   inkscape:groupmode="layer"
   id="layer6"
   inkscape:label="Circle-Group"
   style="display:inline"
   transform="translate(0,-208)"><g
     id="Circle"
     inkscape:label="Circle"
     style="display:inline"><g
       transform="translate(-0.499,207.5)"
       id="g15"><path
         inkscape:connector-curvature="0"
         id="path9"
         style="opacity:0.05"
         d="m 36.31,5 c 5.859,4.062 9.688,10.831 9.688,18.5 0,12.426 -10.07,22.5 -22.5,22.5 -7.669,0 -14.438,-3.828 -18.5,-9.688 1.037,1.822 2.306,3.499 3.781,4.969 4.085,3.712 9.514,5.969 15.469,5.969 12.703,0 23,-10.298 23,-23 0,-5.954 -2.256,-11.384 -5.969,-15.469 C 39.81,7.306 38.132,6.037 36.31,5 Z m 4.969,3.781 c 3.854,4.113 6.219,9.637 6.219,15.719 0,12.703 -10.297,23 -23,23 -6.081,0 -11.606,-2.364 -15.719,-6.219 4.16,4.144 9.883,6.719 16.219,6.719 12.703,0 23,-10.298 23,-23 0,-6.335 -2.575,-12.06 -6.719,-16.219 z" /><path
         inkscape:connector-curvature="0"
         id="path11"
         style="opacity:0.1"
         d="m 41.28,8.781 c 3.712,4.085 5.969,9.514 5.969,15.469 0,12.703 -10.297,23 -23,23 -5.954,0 -11.384,-2.256 -15.469,-5.969 4.113,3.854 9.637,6.219 15.719,6.219 12.703,0 23,-10.298 23,-23 0,-6.081 -2.364,-11.606 -6.219,-15.719 z" /><path
         inkscape:connector-curvature="0"
         id="path13"
         style="opacity:0.2"
         d="M 31.25,2.375 C 39.865,5.529 46,13.792 46,23.505 c 0,12.426 -10.07,22.5 -22.5,22.5 -9.708,0 -17.971,-6.135 -21.12,-14.75 a 23,23 0 0 0 44.875,-7 23,23 0 0 0 -16,-21.875 z" /></g><path
       d="m 23.501,208.5 c 12.703,0 23,10.297 23,23 0,12.703 -10.297,23 -23,23 -12.703,0 -23,-10.297 -23,-23 0,-12.703 10.297,-23 23,-23 z"
       style="fill:#0ba011;fill-opacity:1"
       id="path17-6"
       inkscape:connector-curvature="0" /><path
       inkscape:connector-curvature="0"
       id="path1189"
       style="opacity:0.4;fill:url(#linearGradient1197);fill-opacity:1"
       d="m 23.501,208.5 c 12.703,0 23,10.297 23,23 0,12.703 -10.297,23 -23,23 -12.703,0 -23,-10.297 -23,-23 0,-12.703 10.297,-23 23,-23 z" /><g
       transform="translate(-0.499,207.5)"
       id="g47"><path
         inkscape:connector-curvature="0"
         id="path45"
         style="opacity:0.1"
         d="m 40.03,7.531 c 3.712,4.084 5.969,9.514 5.969,15.469 0,12.703 -10.297,23 -23,23 C 17.045,46 11.615,43.744 7.53,40.031 11.708,44.322 17.54,47 23.999,47 c 12.703,0 23,-10.298 23,-23 0,-6.462 -2.677,-12.291 -6.969,-16.469 z" /></g></g></g><g
   inkscape:groupmode="layer"
   id="layer1"
   inkscape:label="Icon-Group"
   style="display:inline"
   transform="translate(0,-208)">

















<g
   transform="translate(-8.7491377e-8,-0.49979209)"
   id="Icon"
   inkscape:label="Icon"
   style="display:inline"><path
     d="m 21.081881,225.04912 c -2.94213,0.008 -5.72949,0.38205 -7.96225,1.05997 -0.8335,0.2532 -1.30388,1.13321 -1.05147,1.96673 0.25241,0.83352 1.13323,1.30361 1.96673,1.05041 5.18737,-1.57425 14.14968,-1.27766 19.58395,1.94948 0.747,0.44506 1.71576,0.19815 2.16003,-0.55123 0.44427,-0.74781 0.19815,-1.71575 -0.55043,-2.16003 -3.90998,-2.32118 -9.243,-3.32798 -14.14656,-3.31533 z m -0.32685,5.80301 c -2.29818,0.006 -4.57869,0.31849 -6.68323,0.95722 -0.69432,0.21152 -1.08592,0.94368 -0.87676,1.63881 0.21152,0.69434 0.94503,1.08591 1.64014,0.87596 5.35957,-1.62694 12.26755,-0.82035 16.79754,1.96408 0.61805,0.3798 1.42712,0.18657 1.80848,-0.43228 0.3798,-0.61727 0.18473,-1.42656 -0.43253,-1.80715 -3.41453,-2.09871 -7.86621,-3.20744 -12.25364,-3.19664 z m 0.19383,5.49953 c -1.98534,0.009 -4.08486,0.26562 -6.29211,0.77028 -0.56694,0.12896 -0.91994,0.69267 -0.7902,1.25805 0.12896,0.56538 0.69269,0.91994 1.25805,0.7902 5.86753,-1.34071 10.85043,-0.79404 14.80877,1.62553 0.49538,0.30274 1.14172,0.14701 1.44445,-0.34996 0.30273,-0.49461 0.14702,-1.14197 -0.34837,-1.44471 -2.91604,-1.78187 -6.2904,-2.66657 -10.08059,-2.64939 z"
     style="display:inline;fill:#000000;fill-opacity:0.0980392;stroke:none;stroke-width:0.372565;stroke-miterlimit:4;stroke-dasharray:none;stroke-opacity:1"
     id="path1159" /><path
     id="path1142"
     style="display:inline;fill:#1a1a1a;fill-opacity:1;stroke:none;stroke-width:0.372565;stroke-miterlimit:4;stroke-dasharray:none;stroke-opacity:1"
     d="m 21.081881,224.04954 c -2.94213,0.008 -5.72949,0.38205 -7.96225,1.05997 -0.8335,0.2532 -1.30388,1.13321 -1.05147,1.96673 0.25241,0.83352 1.13323,1.30361 1.96673,1.05041 5.18737,-1.57425 14.14968,-1.27766 19.58395,1.94948 0.747,0.44506 1.71576,0.19815 2.16003,-0.55123 0.44427,-0.74781 0.19815,-1.71575 -0.55043,-2.16003 -3.90998,-2.32118 -9.243,-3.32798 -14.14656,-3.31533 z m -0.32685,5.80301 c -2.29818,0.006 -4.57869,0.31849 -6.68323,0.95722 -0.69432,0.21152 -1.08592,0.94368 -0.87676,1.63881 0.21152,0.69434 0.94503,1.08591 1.64014,0.87596 5.35957,-1.62694 12.26755,-0.82035 16.79754,1.96408 0.61805,0.3798 1.42712,0.18657 1.80848,-0.43228 0.3798,-0.61727 0.18473,-1.42656 -0.43253,-1.80715 -3.41453,-2.09871 -7.86621,-3.20744 -12.25364,-3.19664 z m 0.19383,5.49953 c -1.98534,0.009 -4.08486,0.26562 -6.29211,0.77028 -0.56694,0.12896 -0.91994,0.69267 -0.7902,1.25805 0.12896,0.56538 0.69269,0.91994 1.25805,0.7902 5.86753,-1.34071 10.85043,-0.79404 14.80877,1.62553 0.49538,0.30274 1.14172,0.14701 1.44445,-0.34996 0.30273,-0.49461 0.14702,-1.14197 -0.34837,-1.44471 -2.91604,-1.78187 -6.2904,-2.66657 -10.08059,-2.64939 z" /></g></g></svg>
