<?xml version="1.0" encoding="UTF-8" standalone="no"?>
<svg
   xmlns:dc="http://purl.org/dc/elements/1.1/"
   xmlns:cc="http://creativecommons.org/ns#"
   xmlns:rdf="http://www.w3.org/1999/02/22-rdf-syntax-ns#"
   xmlns:svg="http://www.w3.org/2000/svg"
   xmlns="http://www.w3.org/2000/svg"
   xmlns:xlink="http://www.w3.org/1999/xlink"
   xmlns:sodipodi="http://sodipodi.sourceforge.net/DTD/sodipodi-0.dtd"
   xmlns:inkscape="http://www.inkscape.org/namespaces/inkscape"
   height="48"
   width="48"
   inkscape:label="Shadow"
   inkscape:version="1.0 (1.0+r73+1)"
   sodipodi:docname="tweaks-app.svg"
   xml:space="preserve"
   enable-background="new 0 0 256 256"
   viewBox="0 0 48 48"
   y="0px"
   x="0px"
   id="Layer_1"
   version="1.1"><metadata
   id="metadata253"><rdf:RDF><cc:Work
       rdf:about=""><dc:format>image/svg+xml</dc:format><dc:type
         rdf:resource="http://purl.org/dc/dcmitype/StillImage" /><dc:title /></cc:Work></rdf:RDF></metadata><defs
   id="defs251"><linearGradient
   id="linearGradient1195"
   inkscape:collect="always"><stop
     id="stop1191"
     offset="0"
     style="stop-color:#646464;stop-opacity:0.2" /><stop
     id="stop1193"
     offset="1"
     style="stop-color:#000000;stop-opacity:0.4" /></linearGradient>
	
	
<clipPath
   id="b"><use
     y="0"
     x="0"
     style="overflow:visible"
     id="use5"
     height="100%"
     xlink:href="#a"
     overflow="visible"
     width="100%" /></clipPath><linearGradient
   id="c"
   y2="44.354"
   gradientUnits="userSpaceOnUse"
   y1="75.021004"
   x2="81.836998"
   x1="29.337"><stop
     stop-color="#A52714"
     stop-opacity=".6"
     offset="0"
     id="stop10" /><stop
     stop-color="#A52714"
     stop-opacity="0"
     offset=".66"
     id="stop12" /></linearGradient><clipPath
   id="clipPath1232"><use
     y="0"
     x="0"
     style="overflow:visible"
     id="use1230"
     height="100%"
     xlink:href="#a"
     overflow="visible"
     width="100%" /></clipPath><clipPath
   id="clipPath1236"><use
     y="0"
     x="0"
     style="overflow:visible"
     id="use1234"
     height="100%"
     xlink:href="#a"
     overflow="visible"
     width="100%" /></clipPath><linearGradient
   id="d"
   y2="130.33"
   gradientUnits="userSpaceOnUse"
   y1="164.5"
   x2="52.537998"
   x1="110.87"><stop
     stop-color="#055524"
     stop-opacity=".4"
     offset="0"
     id="stop23" /><stop
     stop-color="#055524"
     stop-opacity="0"
     offset=".33"
     id="stop25" /></linearGradient><clipPath
   id="clipPath1244"><use
     y="0"
     x="0"
     style="overflow:visible"
     id="use1242"
     height="100%"
     xlink:href="#a"
     overflow="visible"
     width="100%" /></clipPath><clipPath
   id="clipPath1248"><use
     y="0"
     x="0"
     style="overflow:visible"
     id="use1246"
     height="100%"
     xlink:href="#a"
     overflow="visible"
     width="100%" /></clipPath><clipPath
   id="f"><use
     width="100%"
     overflow="visible"
     xlink:href="#e"
     height="100%"
     id="use37"
     style="overflow:visible"
     x="0"
     y="0" /></clipPath><linearGradient
   id="g"
   y2="114.13"
   gradientUnits="userSpaceOnUse"
   y1="49.804001"
   x2="136.55"
   x1="121.86"><stop
     stop-color="#EA6100"
     stop-opacity=".3"
     offset="0"
     id="stop42" /><stop
     stop-color="#EA6100"
     stop-opacity="0"
     offset=".66"
     id="stop44" /></linearGradient><clipPath
   id="clipPath1258"><use
     y="0"
     x="0"
     style="overflow:visible"
     id="use1256"
     height="100%"
     xlink:href="#a"
     overflow="visible"
     width="100%" /></clipPath><clipPath
   id="clipPath1269"><use
     y="0"
     x="0"
     style="overflow:visible"
     id="use1267"
     height="100%"
     xlink:href="#a"
     overflow="visible"
     width="100%" /></clipPath><clipPath
   id="j"><use
     width="100%"
     overflow="visible"
     xlink:href="#i"
     height="100%"
     id="use62"
     style="overflow:visible"
     x="0"
     y="0" /></clipPath><radialGradient
   r="84.078003"
   gradientTransform="translate(-576)"
   cx="668.17999"
   cy="55.948002"
   gradientUnits="userSpaceOnUse"
   id="l"><stop
     id="stop73"
     offset="0"
     stop-opacity=".2"
     stop-color="#3E2723" /><stop
     id="stop75"
     offset="1"
     stop-opacity="0"
     stop-color="#3E2723" /></radialGradient><clipPath
   id="clipPath1285"><use
     y="0"
     x="0"
     style="overflow:visible"
     id="use1283"
     height="100%"
     xlink:href="#a"
     overflow="visible"
     width="100%" /></clipPath><clipPath
   id="clipPath1289"><use
     y="0"
     x="0"
     style="overflow:visible"
     id="use1287"
     height="100%"
     xlink:href="#a"
     overflow="visible"
     width="100%" /></clipPath><clipPath
   id="n"><use
     width="100%"
     overflow="visible"
     xlink:href="#m"
     height="100%"
     id="use83"
     style="overflow:visible"
     x="0"
     y="0" /></clipPath><radialGradient
   r="78.043999"
   gradientTransform="translate(-576)"
   cx="597.88"
   cy="48.52"
   gradientUnits="userSpaceOnUse"
   id="p"><stop
     id="stop94"
     offset="0"
     stop-opacity=".2"
     stop-color="#3E2723" /><stop
     id="stop96"
     offset="1"
     stop-opacity="0"
     stop-color="#3E2723" /></radialGradient><clipPath
   id="clipPath1305"><use
     y="0"
     x="0"
     style="overflow:visible"
     id="use1303"
     height="100%"
     xlink:href="#a"
     overflow="visible"
     width="100%" /></clipPath><radialGradient
   r="87.870003"
   gradientTransform="translate(-576)"
   cx="671.84003"
   cy="96.138"
   gradientUnits="userSpaceOnUse"
   id="q"><stop
     id="stop101"
     offset="0"
     stop-opacity=".2"
     stop-color="#263238" /><stop
     id="stop103"
     offset="1"
     stop-opacity="0"
     stop-color="#263238" /></radialGradient><clipPath
   id="clipPath1312"><use
     y="0"
     x="0"
     style="overflow:visible"
     id="use1310"
     height="100%"
     xlink:href="#a"
     overflow="visible"
     width="100%" /></clipPath><clipPath
   id="clipPath1316"><use
     y="0"
     x="0"
     style="overflow:visible"
     id="use1314"
     height="100%"
     xlink:href="#a"
     overflow="visible"
     width="100%" /></clipPath><clipPath
   id="clipPath1320"><use
     y="0"
     x="0"
     style="overflow:visible"
     id="use1318"
     height="100%"
     xlink:href="#a"
     overflow="visible"
     width="100%" /></clipPath><clipPath
   id="clipPath1324"><use
     y="0"
     x="0"
     style="overflow:visible"
     id="use1322"
     height="100%"
     xlink:href="#a"
     overflow="visible"
     width="100%" /></clipPath><path
   id="e"
   d="m 8,184 h 83.77 l 38.88,-38.88 V 116 H 61.36 L 8,24.48 Z"
   inkscape:connector-curvature="0" /><path
   id="i"
   d="m 96,56 34.65,60 -38.88,68 H 184 V 56 Z"
   inkscape:connector-curvature="0" /><path
   id="m"
   d="M 21.97,8 V 48.34 L 61.36,116 96,56 h 88 V 8 Z"
   inkscape:connector-curvature="0" /><clipPath
   id="b-1"><use
     y="0"
     x="0"
     style="overflow:visible"
     id="use5-7"
     height="100%"
     xlink:href="#a"
     overflow="visible"
     width="100%" /></clipPath><clipPath
   id="clipPath1232-2"><use
     y="0"
     x="0"
     style="overflow:visible"
     id="use1230-2"
     height="100%"
     xlink:href="#a"
     overflow="visible"
     width="100%" /></clipPath><clipPath
   id="clipPath1236-6"><use
     y="0"
     x="0"
     style="overflow:visible"
     id="use1234-1"
     height="100%"
     xlink:href="#a"
     overflow="visible"
     width="100%" /></clipPath><clipPath
   id="clipPath1244-1"><use
     y="0"
     x="0"
     style="overflow:visible"
     id="use1242-5"
     height="100%"
     xlink:href="#a"
     overflow="visible"
     width="100%" /></clipPath><clipPath
   id="clipPath1248-9"><use
     y="0"
     x="0"
     style="overflow:visible"
     id="use1246-4"
     height="100%"
     xlink:href="#a"
     overflow="visible"
     width="100%" /></clipPath><clipPath
   id="f-9"><use
     width="100%"
     overflow="visible"
     xlink:href="#e-8"
     height="100%"
     id="use37-0"
     style="overflow:visible"
     x="0"
     y="0" /></clipPath><clipPath
   id="clipPath1258-7"><use
     y="0"
     x="0"
     style="overflow:visible"
     id="use1256-7"
     height="100%"
     xlink:href="#a"
     overflow="visible"
     width="100%" /></clipPath><clipPath
   id="clipPath1269-1"><use
     y="0"
     x="0"
     style="overflow:visible"
     id="use1267-1"
     height="100%"
     xlink:href="#a"
     overflow="visible"
     width="100%" /></clipPath><clipPath
   id="j-5"><use
     width="100%"
     overflow="visible"
     xlink:href="#i-5"
     height="100%"
     id="use62-9"
     style="overflow:visible"
     x="0"
     y="0" /></clipPath><radialGradient
   r="84.078003"
   gradientTransform="translate(-576)"
   cx="668.17999"
   cy="55.948002"
   gradientUnits="userSpaceOnUse"
   id="l-7"><stop
     id="stop73-7"
     offset="0"
     stop-opacity=".2"
     stop-color="#3E2723" /><stop
     id="stop75-6"
     offset="1"
     stop-opacity="0"
     stop-color="#3E2723" /></radialGradient><clipPath
   id="clipPath1285-7"><use
     y="0"
     x="0"
     style="overflow:visible"
     id="use1283-3"
     height="100%"
     xlink:href="#a"
     overflow="visible"
     width="100%" /></clipPath><clipPath
   id="clipPath1289-6"><use
     y="0"
     x="0"
     style="overflow:visible"
     id="use1287-5"
     height="100%"
     xlink:href="#a"
     overflow="visible"
     width="100%" /></clipPath><clipPath
   id="n-6"><use
     width="100%"
     overflow="visible"
     xlink:href="#m-6"
     height="100%"
     id="use83-3"
     style="overflow:visible"
     x="0"
     y="0" /></clipPath><radialGradient
   r="78.043999"
   gradientTransform="translate(-576)"
   cx="597.88"
   cy="48.52"
   gradientUnits="userSpaceOnUse"
   id="p-9"><stop
     id="stop94-4"
     offset="0"
     stop-opacity=".2"
     stop-color="#3E2723" /><stop
     id="stop96-8"
     offset="1"
     stop-opacity="0"
     stop-color="#3E2723" /></radialGradient><clipPath
   id="clipPath1305-1"><use
     y="0"
     x="0"
     style="overflow:visible"
     id="use1303-2"
     height="100%"
     xlink:href="#a"
     overflow="visible"
     width="100%" /></clipPath><radialGradient
   r="87.870003"
   gradientTransform="translate(-576)"
   cx="671.84003"
   cy="96.138"
   gradientUnits="userSpaceOnUse"
   id="q-9"><stop
     id="stop101-3"
     offset="0"
     stop-opacity=".2"
     stop-color="#263238" /><stop
     id="stop103-9"
     offset="1"
     stop-opacity="0"
     stop-color="#263238" /></radialGradient><clipPath
   id="clipPath1312-0"><use
     y="0"
     x="0"
     style="overflow:visible"
     id="use1310-8"
     height="100%"
     xlink:href="#a"
     overflow="visible"
     width="100%" /></clipPath><clipPath
   id="clipPath1316-8"><use
     y="0"
     x="0"
     style="overflow:visible"
     id="use1314-5"
     height="100%"
     xlink:href="#a"
     overflow="visible"
     width="100%" /></clipPath><clipPath
   id="clipPath1320-0"><use
     y="0"
     x="0"
     style="overflow:visible"
     id="use1318-9"
     height="100%"
     xlink:href="#a"
     overflow="visible"
     width="100%" /></clipPath><clipPath
   id="clipPath1324-6"><use
     y="0"
     x="0"
     style="overflow:visible"
     id="use1322-3"
     height="100%"
     xlink:href="#a"
     overflow="visible"
     width="100%" /></clipPath><path
   id="e-8"
   d="m 8,184 h 83.77 l 38.88,-38.88 V 116 H 61.36 L 8,24.48 Z"
   inkscape:connector-curvature="0" /><path
   id="i-5"
   d="m 96,56 34.65,60 -38.88,68 H 184 V 56 Z"
   inkscape:connector-curvature="0" /><path
   id="m-6"
   d="M 21.97,8 V 48.34 L 61.36,116 96,56 h 88 V 8 Z"
   inkscape:connector-curvature="0" /><radialGradient
   r="176.75"
   gradientTransform="translate(-23.079613,-106.2699)"
   cx="34.285999"
   cy="32.014"
   gradientUnits="userSpaceOnUse"
   id="r"><stop
     id="stop130"
     offset="0"
     stop-opacity=".1"
     stop-color="#fff" /><stop
     id="stop132"
     offset="1"
     stop-opacity="0"
     stop-color="#fff" /></radialGradient><clipPath
   id="b-0"><use
     id="use5-5"
     height="100%"
     xlink:href="#a"
     overflow="visible"
     width="100%"
     style="overflow:visible"
     x="0"
     y="0" /></clipPath><clipPath
   id="clipPath963"><use
     id="use961"
     height="100%"
     xlink:href="#a"
     overflow="visible"
     width="100%"
     style="overflow:visible"
     x="0"
     y="0" /></clipPath><clipPath
   id="clipPath967"><use
     id="use965"
     height="100%"
     xlink:href="#a"
     overflow="visible"
     width="100%"
     style="overflow:visible"
     x="0"
     y="0" /></clipPath><radialGradient
   r="87.870003"
   gradientTransform="translate(-576)"
   cx="671.84003"
   cy="96.138"
   gradientUnits="userSpaceOnUse"
   id="q-94"><stop
     id="stop101-6"
     offset="0"
     stop-opacity=".2"
     stop-color="#263238" /><stop
     id="stop103-92"
     offset="1"
     stop-opacity="0"
     stop-color="#263238" /></radialGradient><clipPath
   id="clipPath974"><use
     id="use972"
     height="100%"
     xlink:href="#a"
     overflow="visible"
     width="100%"
     style="overflow:visible"
     x="0"
     y="0" /></clipPath><radialGradient
   r="78.043999"
   gradientTransform="translate(-576)"
   cx="597.88"
   cy="48.52"
   gradientUnits="userSpaceOnUse"
   id="p-2"><stop
     id="stop94-47"
     offset="0"
     stop-opacity=".2"
     stop-color="#3E2723" /><stop
     id="stop96-7"
     offset="1"
     stop-opacity="0"
     stop-color="#3E2723" /></radialGradient><clipPath
   id="clipPath981"><use
     id="use979"
     height="100%"
     xlink:href="#a"
     overflow="visible"
     width="100%"
     style="overflow:visible"
     x="0"
     y="0" /></clipPath><clipPath
   id="clipPath985"><use
     id="use983"
     height="100%"
     xlink:href="#a"
     overflow="visible"
     width="100%"
     style="overflow:visible"
     x="0"
     y="0" /></clipPath><clipPath
   id="n-5"><use
     y="0"
     x="0"
     style="overflow:visible"
     id="use83-4"
     height="100%"
     xlink:href="#m-0"
     overflow="visible"
     width="100%" /></clipPath><radialGradient
   r="84.078003"
   gradientTransform="translate(-576)"
   cx="668.17999"
   cy="55.948002"
   gradientUnits="userSpaceOnUse"
   id="l-2"><stop
     id="stop73-8"
     offset="0"
     stop-opacity=".2"
     stop-color="#3E2723" /><stop
     id="stop75-9"
     offset="1"
     stop-opacity="0"
     stop-color="#3E2723" /></radialGradient><clipPath
   id="clipPath997"><use
     id="use995"
     height="100%"
     xlink:href="#a"
     overflow="visible"
     width="100%"
     style="overflow:visible"
     x="0"
     y="0" /></clipPath><clipPath
   id="clipPath1001"><use
     id="use999"
     height="100%"
     xlink:href="#a"
     overflow="visible"
     width="100%"
     style="overflow:visible"
     x="0"
     y="0" /></clipPath><clipPath
   id="j-3"><use
     y="0"
     x="0"
     style="overflow:visible"
     id="use62-6"
     height="100%"
     xlink:href="#i-1"
     overflow="visible"
     width="100%" /></clipPath><clipPath
   id="clipPath1010"><use
     id="use1008"
     height="100%"
     xlink:href="#a"
     overflow="visible"
     width="100%"
     style="overflow:visible"
     x="0"
     y="0" /></clipPath><clipPath
   id="clipPath1017"><use
     id="use1015"
     height="100%"
     xlink:href="#a"
     overflow="visible"
     width="100%"
     style="overflow:visible"
     x="0"
     y="0" /></clipPath><clipPath
   id="f-0"><use
     y="0"
     x="0"
     style="overflow:visible"
     id="use37-5"
     height="100%"
     xlink:href="#e-1"
     overflow="visible"
     width="100%" /></clipPath><clipPath
   id="clipPath1029"><use
     id="use1027"
     height="100%"
     xlink:href="#a"
     overflow="visible"
     width="100%"
     style="overflow:visible"
     x="0"
     y="0" /></clipPath><clipPath
   id="clipPath1033"><use
     id="use1031"
     height="100%"
     xlink:href="#a"
     overflow="visible"
     width="100%"
     style="overflow:visible"
     x="0"
     y="0" /></clipPath><clipPath
   id="clipPath1043"><use
     id="use1041"
     height="100%"
     xlink:href="#a"
     overflow="visible"
     width="100%"
     style="overflow:visible"
     x="0"
     y="0" /></clipPath><clipPath
   id="clipPath1047"><use
     id="use1045"
     height="100%"
     xlink:href="#a"
     overflow="visible"
     width="100%"
     style="overflow:visible"
     x="0"
     y="0" /></clipPath><path
   inkscape:connector-curvature="0"
   d="m 8,184 h 83.77 l 38.88,-38.88 V 116 H 61.36 L 8,24.48 Z"
   id="e-1" /><path
   inkscape:connector-curvature="0"
   d="m 96,56 34.65,60 -38.88,68 H 184 V 56 Z"
   id="i-1" /><path
   inkscape:connector-curvature="0"
   d="M 21.97,8 V 48.34 L 61.36,116 96,56 h 88 V 8 Z"
   id="m-0" /><circle
   id="a"
   cy="96"
   cx="96"
   r="88" /><path
   inkscape:connector-curvature="0"
   id="e-6"
   d="m 8,184 h 83.77 l 38.88,-38.88 V 116 H 61.36 L 8,24.48 Z" /><path
   inkscape:connector-curvature="0"
   id="i-2"
   d="m 96,56 34.65,60 -38.88,68 H 184 V 56 Z" /><path
   inkscape:connector-curvature="0"
   id="m-8"
   d="M 21.97,8 V 48.34 L 61.36,116 96,56 h 88 V 8 Z" /><defs
   id="defs1820"><path
     inkscape:connector-curvature="0"
     id="path1928"
     d="M 21.97,8 V 48.34 L 61.36,116 96,56 h 88 V 8 Z" /></defs><clipPath
   id="n-7"><use
     y="0"
     x="0"
     style="overflow:visible"
     width="100%"
     overflow="visible"
     xlink:href="#m-8"
     height="100%"
     id="use1822" /></clipPath><defs
   id="defs1799"><path
     inkscape:connector-curvature="0"
     id="path1918"
     d="m 96,56 34.65,60 -38.88,68 H 184 V 56 Z" /></defs><clipPath
   id="j-6"><use
     y="0"
     x="0"
     style="overflow:visible"
     width="100%"
     overflow="visible"
     xlink:href="#i-2"
     height="100%"
     id="use1801" /></clipPath><defs
   id="defs1774"><path
     inkscape:connector-curvature="0"
     id="path1902"
     d="m 8,184 h 83.77 l 38.88,-38.88 V 116 H 61.36 L 8,24.48 Z" /></defs><clipPath
   id="f-06"><use
     y="0"
     x="0"
     style="overflow:visible"
     width="100%"
     overflow="visible"
     xlink:href="#e-6"
     height="100%"
     id="use1776" /></clipPath><linearGradient
   id="linearGradient1897"
   y2="130.33"
   gradientUnits="userSpaceOnUse"
   y1="164.5"
   x2="52.537998"
   x1="110.87"><stop
     stop-color="#055524"
     stop-opacity=".4"
     offset="0"
     id="stop1762" /><stop
     stop-color="#055524"
     stop-opacity="0"
     offset=".33"
     id="stop1764" /></linearGradient><linearGradient
   id="linearGradient1889"
   y2="44.354"
   gradientUnits="userSpaceOnUse"
   y1="75.021004"
   x2="81.836998"
   x1="29.337"><stop
     stop-color="#A52714"
     stop-opacity=".6"
     offset="0"
     id="stop1749" /><stop
     stop-color="#A52714"
     stop-opacity="0"
     offset=".66"
     id="stop1751" /></linearGradient><linearGradient
   x1="121.86"
   x2="136.55"
   y1="49.804001"
   gradientUnits="userSpaceOnUse"
   y2="114.13"
   id="linearGradient1910"><stop
     id="stop1781"
     offset="0"
     stop-opacity=".3"
     stop-color="#EA6100" /><stop
     id="stop1783"
     offset=".66"
     stop-opacity="0"
     stop-color="#EA6100" /></linearGradient><clipPath
   id="b-3"><use
     id="use5-1"
     height="100%"
     xlink:href="#a"
     overflow="visible"
     width="100%"
     style="overflow:visible"
     x="0"
     y="0" /></clipPath><clipPath
   id="clipPath1024"><use
     id="use1022"
     height="100%"
     xlink:href="#a"
     overflow="visible"
     width="100%"
     style="overflow:visible"
     x="0"
     y="0" /></clipPath><clipPath
   id="clipPath1028"><use
     id="use1026"
     height="100%"
     xlink:href="#a"
     overflow="visible"
     width="100%"
     style="overflow:visible"
     x="0"
     y="0" /></clipPath><clipPath
   id="clipPath1035"><use
     id="use1033"
     height="100%"
     xlink:href="#a"
     overflow="visible"
     width="100%"
     style="overflow:visible"
     x="0"
     y="0" /></clipPath><clipPath
   id="clipPath1039"><use
     id="use1037"
     height="100%"
     xlink:href="#a"
     overflow="visible"
     width="100%"
     style="overflow:visible"
     x="0"
     y="0" /></clipPath><clipPath
   id="f-6"><use
     width="100%"
     overflow="visible"
     xlink:href="#e-61"
     height="100%"
     id="use37-8"
     style="overflow:visible"
     x="0"
     y="0" /></clipPath><clipPath
   id="clipPath1048"><use
     id="use1046"
     height="100%"
     xlink:href="#a"
     overflow="visible"
     width="100%"
     style="overflow:visible"
     x="0"
     y="0" /></clipPath><clipPath
   id="clipPath1058"><use
     id="use1056"
     height="100%"
     xlink:href="#a"
     overflow="visible"
     width="100%"
     style="overflow:visible"
     x="0"
     y="0" /></clipPath><clipPath
   id="j-66"><use
     width="100%"
     overflow="visible"
     xlink:href="#i-59"
     height="100%"
     id="use62-4"
     style="overflow:visible"
     x="0"
     y="0" /></clipPath><radialGradient
   r="84.078003"
   gradientTransform="translate(-576)"
   cx="668.17999"
   cy="55.948002"
   gradientUnits="userSpaceOnUse"
   id="l-9"><stop
     id="stop73-5"
     offset="0"
     stop-opacity=".2"
     stop-color="#3E2723" /><stop
     id="stop75-0"
     offset="1"
     stop-opacity="0"
     stop-color="#3E2723" /></radialGradient><clipPath
   id="clipPath1073"><use
     id="use1071"
     height="100%"
     xlink:href="#a"
     overflow="visible"
     width="100%"
     style="overflow:visible"
     x="0"
     y="0" /></clipPath><clipPath
   id="clipPath1077"><use
     id="use1075"
     height="100%"
     xlink:href="#a"
     overflow="visible"
     width="100%"
     style="overflow:visible"
     x="0"
     y="0" /></clipPath><clipPath
   id="n-4"><use
     width="100%"
     overflow="visible"
     xlink:href="#m-4"
     height="100%"
     id="use83-8"
     style="overflow:visible"
     x="0"
     y="0" /></clipPath><radialGradient
   r="78.043999"
   gradientTransform="translate(-576)"
   cx="597.88"
   cy="48.52"
   gradientUnits="userSpaceOnUse"
   id="p-7"><stop
     id="stop94-1"
     offset="0"
     stop-opacity=".2"
     stop-color="#3E2723" /><stop
     id="stop96-72"
     offset="1"
     stop-opacity="0"
     stop-color="#3E2723" /></radialGradient><clipPath
   id="clipPath1092"><use
     id="use1090"
     height="100%"
     xlink:href="#a"
     overflow="visible"
     width="100%"
     style="overflow:visible"
     x="0"
     y="0" /></clipPath><radialGradient
   r="87.870003"
   gradientTransform="translate(-576)"
   cx="671.84003"
   cy="96.138"
   gradientUnits="userSpaceOnUse"
   id="q-7"><stop
     id="stop101-2"
     offset="0"
     stop-opacity=".2"
     stop-color="#263238" /><stop
     id="stop103-2"
     offset="1"
     stop-opacity="0"
     stop-color="#263238" /></radialGradient><clipPath
   id="clipPath1099"><use
     id="use1097"
     height="100%"
     xlink:href="#a"
     overflow="visible"
     width="100%"
     style="overflow:visible"
     x="0"
     y="0" /></clipPath><clipPath
   id="clipPath1103"><use
     id="use1101"
     height="100%"
     xlink:href="#a"
     overflow="visible"
     width="100%"
     style="overflow:visible"
     x="0"
     y="0" /></clipPath><clipPath
   id="clipPath1107"><use
     id="use1105"
     height="100%"
     xlink:href="#a"
     overflow="visible"
     width="100%"
     style="overflow:visible"
     x="0"
     y="0" /></clipPath><clipPath
   id="clipPath1111"><use
     id="use1109"
     height="100%"
     xlink:href="#a"
     overflow="visible"
     width="100%"
     style="overflow:visible"
     x="0"
     y="0" /></clipPath><radialGradient
   r="176.75"
   gradientTransform="translate(-7,-7)"
   cx="34.285999"
   cy="32.014"
   gradientUnits="userSpaceOnUse"
   id="r-6"><stop
     id="stop130-1"
     offset="0"
     stop-opacity=".1"
     stop-color="#fff" /><stop
     id="stop132-0"
     offset="1"
     stop-opacity="0"
     stop-color="#fff" /></radialGradient><path
   id="e-61"
   d="m 8,184 h 83.77 l 38.88,-38.88 V 116 H 61.36 L 8,24.48 Z"
   inkscape:connector-curvature="0" /><path
   id="i-59"
   d="m 96,56 34.65,60 -38.88,68 H 184 V 56 Z"
   inkscape:connector-curvature="0" /><path
   id="m-4"
   d="M 21.97,8 V 48.34 L 61.36,116 96,56 h 88 V 8 Z"
   inkscape:connector-curvature="0" /><clipPath
   id="b-9"><use
     id="use5-0"
     height="100%"
     xlink:href="#a"
     overflow="visible"
     width="100%"
     style="overflow:visible"
     x="0"
     y="0" /></clipPath><clipPath
   id="clipPath1024-7"><use
     id="use1022-7"
     height="100%"
     xlink:href="#a"
     overflow="visible"
     width="100%"
     style="overflow:visible"
     x="0"
     y="0" /></clipPath><clipPath
   id="clipPath1028-1"><use
     id="use1026-1"
     height="100%"
     xlink:href="#a"
     overflow="visible"
     width="100%"
     style="overflow:visible"
     x="0"
     y="0" /></clipPath><clipPath
   id="clipPath1035-7"><use
     id="use1033-7"
     height="100%"
     xlink:href="#a"
     overflow="visible"
     width="100%"
     style="overflow:visible"
     x="0"
     y="0" /></clipPath><clipPath
   id="clipPath1039-6"><use
     id="use1037-7"
     height="100%"
     xlink:href="#a"
     overflow="visible"
     width="100%"
     style="overflow:visible"
     x="0"
     y="0" /></clipPath><clipPath
   id="f-3"><use
     width="100%"
     overflow="visible"
     xlink:href="#e-9"
     height="100%"
     id="use37-6"
     style="overflow:visible"
     x="0"
     y="0" /></clipPath><clipPath
   id="clipPath1048-3"><use
     id="use1046-9"
     height="100%"
     xlink:href="#a"
     overflow="visible"
     width="100%"
     style="overflow:visible"
     x="0"
     y="0" /></clipPath><clipPath
   id="clipPath1058-4"><use
     id="use1056-8"
     height="100%"
     xlink:href="#a"
     overflow="visible"
     width="100%"
     style="overflow:visible"
     x="0"
     y="0" /></clipPath><clipPath
   id="j-1"><use
     width="100%"
     overflow="visible"
     xlink:href="#i-6"
     height="100%"
     id="use62-2"
     style="overflow:visible"
     x="0"
     y="0" /></clipPath><radialGradient
   r="84.078003"
   gradientTransform="translate(-576)"
   cx="668.17999"
   cy="55.948002"
   gradientUnits="userSpaceOnUse"
   id="l-93"><stop
     id="stop73-9"
     offset="0"
     stop-opacity=".2"
     stop-color="#3E2723" /><stop
     id="stop75-08"
     offset="1"
     stop-opacity="0"
     stop-color="#3E2723" /></radialGradient><clipPath
   id="clipPath1073-8"><use
     id="use1071-5"
     height="100%"
     xlink:href="#a"
     overflow="visible"
     width="100%"
     style="overflow:visible"
     x="0"
     y="0" /></clipPath><clipPath
   id="clipPath1077-0"><use
     id="use1075-9"
     height="100%"
     xlink:href="#a"
     overflow="visible"
     width="100%"
     style="overflow:visible"
     x="0"
     y="0" /></clipPath><clipPath
   id="n-63"><use
     width="100%"
     overflow="visible"
     xlink:href="#m-2"
     height="100%"
     id="use83-85"
     style="overflow:visible"
     x="0"
     y="0" /></clipPath><radialGradient
   r="78.043999"
   gradientTransform="translate(-576)"
   cx="597.88"
   cy="48.52"
   gradientUnits="userSpaceOnUse"
   id="p-6"><stop
     id="stop94-11"
     offset="0"
     stop-opacity=".2"
     stop-color="#3E2723" /><stop
     id="stop96-5"
     offset="1"
     stop-opacity="0"
     stop-color="#3E2723" /></radialGradient><clipPath
   id="clipPath1092-9"><use
     id="use1090-8"
     height="100%"
     xlink:href="#a"
     overflow="visible"
     width="100%"
     style="overflow:visible"
     x="0"
     y="0" /></clipPath><radialGradient
   r="87.870003"
   gradientTransform="translate(-576)"
   cx="671.84003"
   cy="96.138"
   gradientUnits="userSpaceOnUse"
   id="q-4"><stop
     id="stop101-8"
     offset="0"
     stop-opacity=".2"
     stop-color="#263238" /><stop
     id="stop103-1"
     offset="1"
     stop-opacity="0"
     stop-color="#263238" /></radialGradient><clipPath
   id="clipPath1099-0"><use
     id="use1097-3"
     height="100%"
     xlink:href="#a"
     overflow="visible"
     width="100%"
     style="overflow:visible"
     x="0"
     y="0" /></clipPath><clipPath
   id="clipPath1103-0"><use
     id="use1101-4"
     height="100%"
     xlink:href="#a"
     overflow="visible"
     width="100%"
     style="overflow:visible"
     x="0"
     y="0" /></clipPath><clipPath
   id="clipPath1107-4"><use
     id="use1105-4"
     height="100%"
     xlink:href="#a"
     overflow="visible"
     width="100%"
     style="overflow:visible"
     x="0"
     y="0" /></clipPath><clipPath
   id="clipPath1111-4"><use
     id="use1109-7"
     height="100%"
     xlink:href="#a"
     overflow="visible"
     width="100%"
     style="overflow:visible"
     x="0"
     y="0" /></clipPath><radialGradient
   r="176.75"
   gradientTransform="translate(-7,-7)"
   cx="34.285999"
   cy="32.014"
   gradientUnits="userSpaceOnUse"
   id="r-63"><stop
     id="stop130-17"
     offset="0"
     stop-opacity=".1"
     stop-color="#fff" /><stop
     id="stop132-5"
     offset="1"
     stop-opacity="0"
     stop-color="#fff" /></radialGradient><path
   id="e-9"
   d="m 8,184 h 83.77 l 38.88,-38.88 V 116 H 61.36 L 8,24.48 Z"
   inkscape:connector-curvature="0" /><path
   id="i-6"
   d="m 96,56 34.65,60 -38.88,68 H 184 V 56 Z"
   inkscape:connector-curvature="0" /><path
   id="m-2"
   d="M 21.97,8 V 48.34 L 61.36,116 96,56 h 88 V 8 Z"
   inkscape:connector-curvature="0" /><linearGradient
   x2="47"
   x1="1"
   gradientUnits="userSpaceOnUse"
   gradientTransform="translate(-399,87.002215)"
   id="linearGradient3764"><stop
     id="stop2"
     style="stop-color:#575757"
     offset="0" /><stop
     id="stop4"
     style="stop-color:#616161"
     offset="1" /></linearGradient><linearGradient
   x2="47"
   x1="1"
   gradientUnits="userSpaceOnUse"
   gradientTransform="translate(-255.99999,0.002213)"
   id="linearGradient3764-3"><stop
     id="stop2-6"
     style="stop-color:#575757"
     offset="0" /><stop
     id="stop4-7"
     style="stop-color:#616161"
     offset="1" /></linearGradient><linearGradient
   gradientTransform="rotate(-90,23.999998,24)"
   gradientUnits="userSpaceOnUse"
   x2="47"
   x1="1"
   id="linearGradient3764-5"><stop
     id="stop2-3"
     style="stop-color:#575757;stop-opacity:1" /><stop
     id="stop4-5"
     style="stop-color:#616161;stop-opacity:1"
     offset="1" /></linearGradient><linearGradient
   gradientUnits="userSpaceOnUse"
   y2="250.25"
   x2="36.375999"
   y1="213.875"
   x1="9.1260004"
   id="linearGradient1197"
   xlink:href="#linearGradient1195"
   inkscape:collect="always" /><filter
   inkscape:collect="always"
   style="color-interpolation-filters:sRGB"
   id="filter1156"
   x="-0.027"
   width="1.054"
   y="-0.027"
   height="1.054"><feGaussianBlur
     inkscape:collect="always"
     stdDeviation="0.45"
     id="feGaussianBlur1158" /></filter><filter
   inkscape:collect="always"
   style="color-interpolation-filters:sRGB"
   id="filter1162"
   x="-0.027"
   width="1.054"
   y="-0.027"
   height="1.054"><feGaussianBlur
     inkscape:collect="always"
     stdDeviation="0.45"
     id="feGaussianBlur1164" /></filter><filter
   height="1.054"
   y="-0.027"
   width="1.054"
   x="-0.027"
   id="filter1191"
   style="color-interpolation-filters:sRGB"
   inkscape:collect="always"><feGaussianBlur
     id="feGaussianBlur1193"
     stdDeviation="0.099999994"
     inkscape:collect="always" /></filter></defs><sodipodi:namedview
   inkscape:document-rotation="0"
   inkscape:pagecheckerboard="false"
   inkscape:current-layer="layer3"
   inkscape:window-maximized="0"
   inkscape:window-y="28"
   inkscape:window-x="1955"
   inkscape:cy="23.66727"
   inkscape:cx="30.56812"
   inkscape:zoom="16"
   showgrid="false"
   id="namedview249"
   inkscape:window-height="1542"
   inkscape:window-width="1885"
   inkscape:pageshadow="2"
   inkscape:pageopacity="1"
   guidetolerance="10"
   gridtolerance="10"
   objecttolerance="10"
   borderopacity="1"
   bordercolor="#666666"
   pagecolor="#ffffff" />

<g
   inkscape:groupmode="layer"
   id="layer4"
   inkscape:label="Template"><rect
     id="rect1158"
     y="-68.783295"
     x="-0.480793"
     width="46"
     transform="rotate(-90)"
     style="display:inline;fill:#4d5861;fill-opacity:1;stroke-width:1"
     rx="3.9999998"
     height="46" /><rect
     height="46"
     rx="3.9999998"
     style="display:inline;fill:#000000;fill-opacity:0.0980392;stroke-width:1"
     transform="rotate(-90)"
     width="46"
     x="-46.480793"
     y="-68.783295"
     id="rect1147" /></g><g
   style="display:inline"
   inkscape:groupmode="layer"
   id="g1179"
   inkscape:label="Square-Group"><g
     style="display:inline"
     inkscape:label="Square"
     transform="matrix(1.15,0,0,1.15,-3.6,-3.6)"
     id="Square"><rect
       height="40"
       rx="3.4782608"
       style="display:inline;opacity:0.2;fill:#000002;fill-opacity:1;stroke-width:0.869565;filter:url(#filter1162)"
       transform="rotate(-90)"
       width="40"
       x="-44"
       y="4"
       id="rect1160" /><rect
       id="rect1169"
       y="4"
       x="-44"
       width="40"
       transform="rotate(-90)"
       style="display:inline;fill:#4d5861;fill-opacity:1;stroke-width:0.869565"
       rx="3.4782608"
       height="40" /><path
       id="path1171"
       style="opacity:0.1;fill:#000000;fill-opacity:1;stroke-width:0.869565"
       d="M 44,10.956522 V 7.4782608 C 44,5.5513043 42.448696,4 40.521739,4 H 7.4782609 C 5.5513043,4 4,5.5513043 4,7.4782608 V 10.956522 C 4,9.0295652 5.5513043,7.4782608 7.4782609,7.4782608 H 40.521739 C 42.448696,7.4782608 44,9.0295652 44,10.956522 Z"
       inkscape:connector-curvature="0" /><path
       inkscape:connector-curvature="0"
       d="m 4,37.043478 v 3.478261 C 4,42.448696 5.551304,44 7.478261,44 H 40.521739 C 42.448696,44 44,42.448696 44,40.521739 v -3.478261 c 0,1.926957 -1.551304,3.478261 -3.478261,3.478261 H 7.478261 C 5.551304,40.521739 4,38.970435 4,37.043478 Z"
       style="opacity:0.1;fill:#000000;fill-opacity:1;stroke-width:0.869565"
       id="path1173" /><path
       id="path1175"
       style="opacity:0.1;fill:#000000;fill-opacity:1;stroke-width:0.869565"
       d="M 10.956522,4 H 7.478261 C 5.551304,4 4,5.551304 4,7.478261 V 40.521739 C 4,42.448696 5.551304,44 7.478261,44 h 3.478261 C 9.029565,44 7.478261,42.448696 7.478261,40.521739 V 7.478261 C 7.478261,5.551304 9.029565,4 10.956522,4 Z"
       inkscape:connector-curvature="0" /><path
       inkscape:connector-curvature="0"
       d="m 37.043478,4 h 3.478261 C 42.448696,4 44,5.551304 44,7.478261 V 40.521739 C 44,42.448696 42.448696,44 40.521739,44 h -3.478261 c 1.926957,0 3.478261,-1.551304 3.478261,-3.478261 V 7.478261 C 40.521739,5.551304 38.970435,4 37.043478,4 Z"
       style="opacity:0.1;fill:#000000;fill-opacity:1;stroke-width:0.869565"
       id="path1177" /></g></g><g
   transform="translate(0,-208)"
   style="display:inline"
   inkscape:label="Circle-Group"
   id="layer6"
   inkscape:groupmode="layer"><g
     style="display:inline"
     inkscape:label="Circle"
     id="Circle"><g
       id="g15"
       transform="translate(-0.499,207.5)"
       style="display:inline"><path
         d="m 36.31,5 c 5.859,4.062 9.688,10.831 9.688,18.5 0,12.426 -10.07,22.5 -22.5,22.5 -7.669,0 -14.438,-3.828 -18.5,-9.688 1.037,1.822 2.306,3.499 3.781,4.969 4.085,3.712 9.514,5.969 15.469,5.969 12.703,0 23,-10.298 23,-23 0,-5.954 -2.256,-11.384 -5.969,-15.469 C 39.81,7.306 38.132,6.037 36.31,5 Z m 4.969,3.781 c 3.854,4.113 6.219,9.637 6.219,15.719 0,12.703 -10.297,23 -23,23 -6.081,0 -11.606,-2.364 -15.719,-6.219 4.16,4.144 9.883,6.719 16.219,6.719 12.703,0 23,-10.298 23,-23 0,-6.335 -2.575,-12.06 -6.719,-16.219 z"
         style="opacity:0.05"
         id="path9"
         inkscape:connector-curvature="0" /><path
         d="m 41.28,8.781 c 3.712,4.085 5.969,9.514 5.969,15.469 0,12.703 -10.297,23 -23,23 -5.954,0 -11.384,-2.256 -15.469,-5.969 4.113,3.854 9.637,6.219 15.719,6.219 12.703,0 23,-10.298 23,-23 0,-6.081 -2.364,-11.606 -6.219,-15.719 z"
         style="opacity:0.1"
         id="path11"
         inkscape:connector-curvature="0" /><path
         d="M 31.25,2.375 C 39.865,5.529 46,13.792 46,23.505 c 0,12.426 -10.07,22.5 -22.5,22.5 -9.708,0 -17.971,-6.135 -21.12,-14.75 a 23,23 0 0 0 44.875,-7 23,23 0 0 0 -16,-21.875 z"
         style="opacity:0.2"
         id="path13"
         inkscape:connector-curvature="0" /></g><path
       inkscape:connector-curvature="0"
       id="path17-6"
       style="display:inline;fill:#4d5861;fill-opacity:1"
       d="m 23.501,208.5 c 12.703,0 23,10.297 23,23 0,12.703 -10.297,23 -23,23 -12.703,0 -23,-10.297 -23,-23 0,-12.703 10.297,-23 23,-23 z" /><path
       d="m 23.501,208.5 c 12.703,0 23,10.297 23,23 0,12.703 -10.297,23 -23,23 -12.703,0 -23,-10.297 -23,-23 0,-12.703 10.297,-23 23,-23 z"
       style="display:inline;opacity:0.4;fill:url(#linearGradient1197);fill-opacity:1"
       id="path1189"
       inkscape:connector-curvature="0" /><g
       id="g47"
       transform="translate(-0.499,207.5)"
       style="display:inline"><path
         d="m 40.03,7.531 c 3.712,4.084 5.969,9.514 5.969,15.469 0,12.703 -10.297,23 -23,23 C 17.045,46 11.615,43.744 7.53,40.031 11.708,44.322 17.54,47 23.999,47 c 12.703,0 23,-10.298 23,-23 0,-6.462 -2.677,-12.291 -6.969,-16.469 z"
         style="opacity:0.1"
         id="path45"
         inkscape:connector-curvature="0" /></g></g></g><g
   style="display:inline"
   inkscape:label="Default-Group"
   id="layer3"
   inkscape:groupmode="layer"><g
     style="display:inline"
     inkscape:label="Default"
     id="Default"><rect
       id="rect1154"
       y="4"
       x="-44"
       width="40"
       transform="rotate(-90)"
       style="opacity:0.2;fill:#000000;fill-opacity:1;stroke-width:0.869565;filter:url(#filter1156)"
       rx="3.4782608"
       height="40" /><rect
       height="40"
       rx="3.4782608"
       style="fill:#4d5861;fill-opacity:1;stroke-width:0.869565"
       transform="rotate(-90)"
       width="40"
       x="-44"
       y="4"
       id="Accent" /><path
       inkscape:connector-curvature="0"
       d="M 44,10.956522 V 7.4782608 C 44,5.5513043 42.448696,4 40.521739,4 H 7.4782609 C 5.5513043,4 4,5.5513043 4,7.4782608 V 10.956522 C 4,9.0295652 5.5513043,7.4782608 7.4782609,7.4782608 H 40.521739 C 42.448696,7.4782608 44,9.0295652 44,10.956522 Z"
       style="opacity:0.1;fill:#000000;fill-opacity:1;stroke-width:0.869565"
       id="path29-6" /><path
       id="path1162"
       style="opacity:0.1;fill:#000000;fill-opacity:1;stroke-width:0.869565"
       d="m 4,37.043478 v 3.478261 C 4,42.448696 5.551304,44 7.478261,44 H 40.521739 C 42.448696,44 44,42.448696 44,40.521739 v -3.478261 c 0,1.926957 -1.551304,3.478261 -3.478261,3.478261 H 7.478261 C 5.551304,40.521739 4,38.970435 4,37.043478 Z"
       inkscape:connector-curvature="0" /><path
       inkscape:connector-curvature="0"
       d="M 10.956522,4 H 7.478261 C 5.551304,4 4,5.551304 4,7.478261 V 40.521739 C 4,42.448696 5.551304,44 7.478261,44 h 3.478261 C 9.029565,44 7.478261,42.448696 7.478261,40.521739 V 7.478261 C 7.478261,5.551304 9.029565,4 10.956522,4 Z"
       style="opacity:0.1;fill:#000000;fill-opacity:1;stroke-width:0.869565"
       id="path1164" /><path
       id="path1166"
       style="opacity:0.1;fill:#000000;fill-opacity:1;stroke-width:0.869565"
       d="m 37.043478,4 h 3.478261 C 42.448696,4 44,5.551304 44,7.478261 V 40.521739 C 44,42.448696 42.448696,44 40.521739,44 h -3.478261 c 1.926957,0 3.478261,-1.551304 3.478261,-3.478261 V 7.478261 C 40.521739,5.551304 38.970435,4 37.043478,4 Z"
       inkscape:connector-curvature="0" /></g></g><g
   transform="translate(0,-208)"
   style="display:inline"
   inkscape:label="Icon-Group"
   id="layer1"
   inkscape:groupmode="layer">

















<g
   transform="matrix(0.75,0,0,0.75,6,57.999994)"
   id="g1321"><rect
     ry="2.2222221"
     y="229.77779"
     x="4"
     height="4.4444442"
     width="40"
     id="rect1091-3-2"
     style="fill:#808080;fill-opacity:1;stroke:none;stroke-width:0.533633;stroke-miterlimit:4;stroke-dasharray:none;stroke-opacity:1" /><rect
     ry="2.2222221"
     y="218.66667"
     x="4"
     height="4.4444442"
     width="40"
     id="rect1091-3-2-1-2"
     style="fill:#808080;fill-opacity:1;stroke:none;stroke-width:0.533633;stroke-miterlimit:4;stroke-dasharray:none;stroke-opacity:1" /><rect
     ry="2.2222221"
     y="240.88889"
     x="4"
     height="4.4444442"
     width="40"
     id="rect1091-3-2-1-7"
     style="fill:#808080;fill-opacity:1;stroke:none;stroke-width:0.533633;stroke-miterlimit:4;stroke-dasharray:none;stroke-opacity:1" /><path
     inkscape:connector-curvature="0"
     id="rect1091-6-3-5"
     d="m 6.2222224,218.66667 c -1.2311111,0 -2.2222222,0.99111 -2.2222222,2.22222 0,1.23111 0.9911111,2.22223 2.2222222,2.22223 h 9.1111106 v -4.44445 z"
     style="fill:#e6e6e6;fill-opacity:1;stroke:none;stroke-width:0.533633;stroke-miterlimit:4;stroke-dasharray:none;stroke-opacity:1" /><path
     inkscape:connector-curvature="0"
     id="rect1091-6-3-5-0"
     d="m 6.2222224,229.77778 c -1.2311111,0 -2.2222222,0.99111 -2.2222222,2.22222 0,1.23112 0.9911111,2.22223 2.2222222,2.22223 H 26.444444 v -4.44445 z"
     style="fill:#e6e6e6;fill-opacity:1;stroke:none;stroke-width:0.533633;stroke-miterlimit:4;stroke-dasharray:none;stroke-opacity:1" /><path
     inkscape:connector-curvature="0"
     id="rect1091-6-3-5-0-6"
     d="m 6.2222224,240.88889 c -1.2311111,0 -2.2222222,0.99111 -2.2222222,2.22223 0,1.23111 0.9911111,2.22222 2.2222222,2.22222 H 37.555555 v -4.44445 z"
     style="fill:#e6e6e6;fill-opacity:1;stroke:none;stroke-width:0.533633;stroke-miterlimit:4;stroke-dasharray:none;stroke-opacity:1" /><circle
     style="opacity:0.2;fill:#000000;fill-opacity:1;stroke:none;stroke-width:2.22222;stroke-miterlimit:4;stroke-dasharray:none;stroke-opacity:1;filter:url(#filter1191)"
     id="circle1189"
     cx="12.888889"
     cy="220.8889"
     r="4.4444442" /><circle
     r="4.4444442"
     cy="220.8889"
     cx="12.888889"
     id="path1114"
     style="fill:#e6e6e6;fill-opacity:1;stroke:none;stroke-width:2.22222;stroke-miterlimit:4;stroke-dasharray:none;stroke-opacity:1" /><circle
     style="fill:#0068bf;fill-opacity:1;stroke:none;stroke-width:1.97225;stroke-miterlimit:4;stroke-dasharray:none;stroke-opacity:1"
     id="circle1187"
     cx="12.888889"
     cy="220.8889"
     r="3.9445" /><circle
     r="4.4444442"
     cy="232"
     cx="24"
     id="circle1200"
     style="opacity:0.2;fill:#000000;fill-opacity:1;stroke:none;stroke-width:2.22222;stroke-miterlimit:4;stroke-dasharray:none;stroke-opacity:1;filter:url(#filter1191)" /><circle
     style="fill:#e6e6e6;fill-opacity:1;stroke:none;stroke-width:2.22222;stroke-miterlimit:4;stroke-dasharray:none;stroke-opacity:1"
     id="circle1202"
     cx="24"
     cy="232"
     r="4.4444442" /><circle
     r="3.9445"
     cy="232"
     cx="24"
     id="circle1204"
     style="fill:#0068bf;fill-opacity:1;stroke:none;stroke-width:1.97225;stroke-miterlimit:4;stroke-dasharray:none;stroke-opacity:1" /><circle
     style="opacity:0.2;fill:#000000;fill-opacity:1;stroke:none;stroke-width:2.22222;stroke-miterlimit:4;stroke-dasharray:none;stroke-opacity:1;filter:url(#filter1191)"
     id="circle1208"
     cx="35.111111"
     cy="243.11111"
     r="4.4444442" /><circle
     r="4.4444442"
     cy="243.11111"
     cx="35.111111"
     id="circle1210"
     style="fill:#e6e6e6;fill-opacity:1;stroke:none;stroke-width:2.22222;stroke-miterlimit:4;stroke-dasharray:none;stroke-opacity:1" /><circle
     style="fill:#0068bf;fill-opacity:1;stroke:none;stroke-width:1.97225;stroke-miterlimit:4;stroke-dasharray:none;stroke-opacity:1"
     id="circle1212"
     cx="35.111111"
     cy="243.11111"
     r="3.9445" /><circle
     style="opacity:0.2;fill:#000000;fill-opacity:1;stroke:none;stroke-width:1.97225;stroke-miterlimit:4;stroke-dasharray:none;stroke-opacity:1"
     id="circle1222"
     cx="24"
     cy="232"
     r="3.9445" /><circle
     r="3.9445"
     cy="243.11111"
     cx="35.111111"
     id="circle1229"
     style="opacity:0.4;fill:#000000;fill-opacity:1;stroke:none;stroke-width:1.97225;stroke-miterlimit:4;stroke-dasharray:none;stroke-opacity:1" /></g></g></svg>
