<?xml version="1.0" encoding="UTF-8" standalone="no"?>
<svg
   xmlns:dc="http://purl.org/dc/elements/1.1/"
   xmlns:cc="http://creativecommons.org/ns#"
   xmlns:rdf="http://www.w3.org/1999/02/22-rdf-syntax-ns#"
   xmlns:svg="http://www.w3.org/2000/svg"
   xmlns="http://www.w3.org/2000/svg"
   xmlns:sodipodi="http://sodipodi.sourceforge.net/DTD/sodipodi-0.dtd"
   xmlns:inkscape="http://www.inkscape.org/namespaces/inkscape"
   height="16"
   width="16"
   version="1.1"
   id="svg4"
   sodipodi:docname="security-high-symbolic.svg"
   inkscape:version="0.92.3 (2405546, 2018-03-11)">
  <metadata
     id="metadata10">
    <rdf:RDF>
      <cc:Work
         rdf:about="">
        <dc:format>image/svg+xml</dc:format>
        <dc:type
           rdf:resource="http://purl.org/dc/dcmitype/StillImage" />
      </cc:Work>
    </rdf:RDF>
  </metadata>
  <defs
     id="defs8" />
  <sodipodi:namedview
     pagecolor="#ffffff"
     bordercolor="#666666"
     borderopacity="1"
     objecttolerance="10"
     gridtolerance="10"
     guidetolerance="10"
     inkscape:pageopacity="0"
     inkscape:pageshadow="2"
     inkscape:window-width="1920"
     inkscape:window-height="1539"
     id="namedview6"
     showgrid="false"
     inkscape:zoom="20.85965"
     inkscape:cx="-11.926519"
     inkscape:cy="6.4786953"
     inkscape:window-x="0"
     inkscape:window-y="27"
     inkscape:window-maximized="0"
     inkscape:current-layer="svg4" />
  <path
     style="stroke-width:0.04536832;fill:#808080;fill-opacity:1;opacity:1"
     d="M 7.9238281 0.013671875 L 7.8554688 0.037109375 A 7.9994092 7.9994092 0 0 1 2.0488281 2.6015625 A 7.9994092 7.9994092 0 0 1 1.1347656 2.5488281 C 1.1338184 2.5573081 1.1269531 2.5636046 1.1269531 2.5722656 C 1.1269531 4.9440304 1.7552302 7.6830052 2.8496094 10.091797 C 3.7372838 12.045765 5.3333136 14.654116 7.8964844 15.974609 C 7.9290804 15.991409 7.9642919 16 8 16 C 8.035697 16 8.070919 15.991799 8.1035156 15.974609 C 10.666637 14.654116 12.26462 12.045765 13.152344 10.091797 C 14.246673 7.6830047 14.873047 4.9440304 14.873047 2.5722656 C 14.873047 2.5620906 14.864681 2.5548119 14.863281 2.5449219 A 7.9994092 7.9994092 0 0 1 14.048828 2.6015625 A 7.9994092 7.9994092 0 0 1 8.1386719 0.03515625 L 8.0761719 0.013671875 C 8.0273759 -0.003526865 7.9726444 -0.003526865 7.9238281 0.013671875 z M 8.1210938 1.0292969 A 6.9994822 6.9994822 0 0 0 8.4589844 1.359375 A 6.9994822 6.9994822 0 0 1 8.1210938 1.0292969 z M 7.6191406 1.2792969 A 6.9994822 6.9994822 0 0 1 7.3242188 1.5605469 A 6.9994822 6.9994822 0 0 0 7.6191406 1.2792969 z M 8.6972656 1.578125 A 6.9994822 6.9994822 0 0 0 8.984375 1.8085938 A 6.9994822 6.9994822 0 0 1 8.6972656 1.578125 z M 7.0761719 1.7578125 A 6.9994822 6.9994822 0 0 1 6.7753906 1.9902344 A 6.9994822 6.9994822 0 0 0 7.0761719 1.7578125 z M 9.2441406 2.0039062 A 6.9994822 6.9994822 0 0 0 9.5742188 2.21875 A 6.9994822 6.9994822 0 0 1 9.2441406 2.0039062 z M 6.5273438 2.1503906 A 6.9994822 6.9994822 0 0 1 6.1757812 2.3691406 A 6.9994822 6.9994822 0 0 0 6.5273438 2.1503906 z M 9.8320312 2.375 A 6.9994822 6.9994822 0 0 0 10.1875 2.5566406 A 6.9994822 6.9994822 0 0 1 9.8320312 2.375 z M 5.9199219 2.5 A 6.9994822 6.9994822 0 0 1 5.5625 2.6757812 A 6.9994822 6.9994822 0 0 0 5.9199219 2.5 z M 10.462891 2.6875 A 6.9994822 6.9994822 0 0 0 10.820312 2.828125 A 6.9994822 6.9994822 0 0 1 10.462891 2.6875 z M 5.2675781 2.7929688 A 6.9994822 6.9994822 0 0 1 4.8984375 2.9316406 A 6.9994822 6.9994822 0 0 0 5.2675781 2.7929688 z M 11.119141 2.9355469 A 6.9994822 6.9994822 0 0 0 11.490234 3.0390625 A 6.9994822 6.9994822 0 0 1 11.119141 2.9355469 z M 4.6386719 3.0039062 A 6.9994822 6.9994822 0 0 1 4.2285156 3.1132812 A 6.9994822 6.9994822 0 0 0 4.6386719 3.0039062 z M 11.791016 3.1152344 A 6.9994822 6.9994822 0 0 0 12.177734 3.1835938 A 6.9994822 6.9994822 0 0 1 11.791016 3.1152344 z M 3.9335938 3.1640625 A 6.9994822 6.9994822 0 0 1 3.5351562 3.2265625 A 6.9994822 6.9994822 0 0 0 3.9335938 3.1640625 z M 12.480469 3.2265625 A 6.9994822 6.9994822 0 0 0 12.857422 3.2558594 A 6.9994822 6.9994822 0 0 1 12.480469 3.2265625 z M 1.9941406 3.2285156 A 6.9994822 6.9994822 0 0 0 2.46875 3.2597656 A 6.9994822 6.9994822 0 0 1 1.9941406 3.2285156 z M 3.2265625 3.25 A 6.9994822 6.9994822 0 0 1 2.7929688 3.2753906 A 6.9994822 6.9994822 0 0 0 3.2265625 3.25 z M 6.3828125 13.925781 C 6.8412325 14.328909 7.3494627 14.689658 7.9101562 14.978516 C 7.3494628 14.689658 6.8412632 14.329036 6.3828125 13.925781 z M 9.6171875 13.925781 C 9.1585584 14.329036 8.6505265 14.689658 8.0898438 14.978516 C 8.6505266 14.689658 9.1586126 14.328909 9.6171875 13.925781 z "
     id="path2-6" />
</svg>
