<?xml version="1.0" encoding="UTF-8" standalone="no"?>
<svg
   xmlns:dc="http://purl.org/dc/elements/1.1/"
   xmlns:cc="http://creativecommons.org/ns#"
   xmlns:rdf="http://www.w3.org/1999/02/22-rdf-syntax-ns#"
   xmlns:svg="http://www.w3.org/2000/svg"
   xmlns="http://www.w3.org/2000/svg"
   xmlns:sodipodi="http://sodipodi.sourceforge.net/DTD/sodipodi-0.dtd"
   xmlns:inkscape="http://www.inkscape.org/namespaces/inkscape"
   height="16"
   width="16"
   version="1.1"
   id="svg8"
   sodipodi:docname="media-flash-symbolic.svg"
   inkscape:version="0.92.3 (2405546, 2018-03-11)">
  <metadata
     id="metadata14">
    <rdf:RDF>
      <cc:Work
         rdf:about="">
        <dc:format>image/svg+xml</dc:format>
        <dc:type
           rdf:resource="http://purl.org/dc/dcmitype/StillImage" />
        <dc:title></dc:title>
      </cc:Work>
    </rdf:RDF>
  </metadata>
  <defs
     id="defs12" />
  <sodipodi:namedview
     pagecolor="#ffffff"
     bordercolor="#666666"
     borderopacity="1"
     objecttolerance="10"
     gridtolerance="10"
     guidetolerance="10"
     inkscape:pageopacity="0"
     inkscape:pageshadow="2"
     inkscape:window-width="1920"
     inkscape:window-height="1539"
     id="namedview10"
     showgrid="true"
     inkscape:zoom="20.85965"
     inkscape:cx="0.16812185"
     inkscape:cy="17.419596"
     inkscape:window-x="1920"
     inkscape:window-y="27"
     inkscape:window-maximized="0"
     inkscape:current-layer="svg8" />
  <g
     id="g907"
     transform="translate(35.454897,24.626953)">
    <g
       transform="matrix(0.77997823,0,0,0.77997823,-7.0703481,-2.1181393)"
       id="g889">
      <path
         inkscape:connector-curvature="0"
         style="opacity:1;fill:#808080;fill-opacity:1;stroke:none;stroke-width:0.5311898;stroke-opacity:0.94117647"
         d="m -23.119141,-23.626953 v 1 h 0.957032 c 0.569396,0 1.027344,0.457947 1.027343,1.027344 v 9.945312 c 0,0.569397 -0.457947,1.027344 -1.027343,1.027344 h -7.945313 c -0.569397,0 -1.027344,-0.457947 -1.027344,-1.027344 v -9.617187 -0.328125 -1.988282 c -0.565127,0.09744 -1,0.566389 -1,1.160157 v 11.601562 c 0,0.664296 0.534923,1.1992189 1.199219,1.1992189 h 9.601563 c 0.664296,0 1.199218,-0.5349229 1.199218,-1.1992189 v -10.359375 l -2.441406,-2.441406 z"
         id="rect821" />
      <path
         inkscape:connector-curvature="0"
         style="opacity:1;fill:#808080;fill-opacity:1;stroke:none;stroke-width:0.61872202;stroke-opacity:0.94117647"
         d="m -30.617188,-27.576172 c -0.831438,0 -1.501953,0.670513 -1.501953,1.501953 v 3.382813 c 0.06605,-0.0097 0.132347,-0.01953 0.201172,-0.01953 h 0.783203 v -2.052734 h 0.01563 V -25.375 c 0,-0.665151 0.536021,-1.201172 1.201172,-1.201172 h 5.597657 c 0.665151,0 1.201171,0.536021 1.201171,1.201172 v 0.611328 0.664063 l 1,1 v -2.97461 c 0,-0.83144 -0.668561,-1.501953 -1.5,-1.501953 z"
         id="rect823" />
      <path
         inkscape:connector-curvature="0"
         style="opacity:1;fill:#808080;fill-opacity:1;stroke:none;stroke-width:0.5755049;stroke-opacity:0.94117647"
         d="m -23.119141,-24.099609 v 1.388671 l 2.982422,2.982422 v -1.388672 z"
         id="rect842" />
    </g>
    <rect
       y="-21.919867"
       x="-30.706049"
       height="2"
       width="0.92682934"
       id="rect891"
       style="opacity:1;fill:#808080;fill-opacity:1;stroke:none;stroke-width:0.71951222;stroke-opacity:0.94117647" />
    <rect
       style="opacity:1;fill:#808080;fill-opacity:1;stroke:none;stroke-width:0.71951222;stroke-opacity:0.94117647"
       id="rect893"
       width="0.92682934"
       height="2"
       x="-29.299826"
       y="-21.919867" />
    <rect
       y="-21.919867"
       x="-26.471399"
       height="2"
       width="0.92682934"
       id="rect895"
       style="opacity:1;fill:#808080;fill-opacity:1;stroke:none;stroke-width:0.71951222;stroke-opacity:0.94117647" />
    <rect
       style="opacity:1;fill:#808080;fill-opacity:1;stroke:none;stroke-width:0.71951222;stroke-opacity:0.94117647"
       id="rect897"
       width="0.92682934"
       height="2"
       x="-27.837673"
       y="-21.919867" />
  </g>
</svg>
