<?xml version="1.0" encoding="UTF-8" standalone="no"?>
<svg
   xmlns:dc="http://purl.org/dc/elements/1.1/"
   xmlns:cc="http://creativecommons.org/ns#"
   xmlns:rdf="http://www.w3.org/1999/02/22-rdf-syntax-ns#"
   xmlns:svg="http://www.w3.org/2000/svg"
   xmlns="http://www.w3.org/2000/svg"
   xmlns:sodipodi="http://sodipodi.sourceforge.net/DTD/sodipodi-0.dtd"
   xmlns:inkscape="http://www.inkscape.org/namespaces/inkscape"
   height="16"
   width="16"
   version="1.1"
   id="svg4"
   sodipodi:docname="printer-network-symbolic.svg"
   inkscape:version="0.92.3 (2405546, 2018-03-11)">
  <metadata
     id="metadata10">
    <rdf:RDF>
      <cc:Work
         rdf:about="">
        <dc:format>image/svg+xml</dc:format>
        <dc:type
           rdf:resource="http://purl.org/dc/dcmitype/StillImage" />
        <dc:title></dc:title>
      </cc:Work>
    </rdf:RDF>
  </metadata>
  <defs
     id="defs8" />
  <sodipodi:namedview
     pagecolor="#ffffff"
     bordercolor="#666666"
     borderopacity="1"
     objecttolerance="10"
     gridtolerance="10"
     guidetolerance="10"
     inkscape:pageopacity="0"
     inkscape:pageshadow="2"
     inkscape:window-width="1920"
     inkscape:window-height="1539"
     id="namedview6"
     showgrid="false"
     inkscape:zoom="20.85965"
     inkscape:cx="2.3389831"
     inkscape:cy="17.640282"
     inkscape:window-x="1920"
     inkscape:window-y="27"
     inkscape:window-maximized="0"
     inkscape:current-layer="svg4" />
  <g
     id="g847">
    <g
       transform="translate(41.825188,-2.1888493)"
       id="g830">
      <path
         style="opacity:1;fill:#808080;fill-opacity:1;stroke:none;stroke-width:0.74897337;stroke-linecap:butt;stroke-linejoin:bevel;stroke-miterlimit:4;stroke-dasharray:none;stroke-opacity:1;paint-order:fill markers stroke"
         d="m -38.418938,4.7451001 c -0.357865,0.044665 -0.595656,0.285686 -0.65625,0.5840204 l -0.875,4.3074884 c -0.06688,0.3292518 0.340457,0.6015141 0.763916,0.6015141 h 0.767334 V 7.2170955 Z m 9.187501,0 v 2.4719954 3.0210275 h 0.767334 c 0.423459,0 0.830792,-0.2722623 0.763916,-0.6015141 l -0.875,-4.3074884 c -0.06053,-0.2980436 -0.29898,-0.5389954 -0.65625,-0.5840204 z"
         id="rect895-3"
         inkscape:connector-curvature="0" />
      <path
         inkscape:connector-curvature="0"
         style="opacity:1;fill:#808080;fill-opacity:1;stroke:none;stroke-width:0.84404618;stroke-linecap:butt;stroke-linejoin:bevel;stroke-miterlimit:4;stroke-dasharray:none;stroke-opacity:1;paint-order:fill markers stroke"
         d="m -39.186271,5.771186 c -0.423459,0 -0.763916,0.3404562 -0.763916,0.763916 v 5.472168 c 0,0.42346 0.340457,0.763916 0.763916,0.763916 h 10.722168 c 0.423459,0 0.763916,-0.340456 0.763916,-0.763916 V 6.535102 c 0,-0.4234598 -0.340457,-0.763916 -0.763916,-0.763916 z m 0.2854,0.8972168 a 0.21875001,0.21875001 0 0 1 0.01538,0 0.21875001,0.21875001 0 0 1 0.21875,0.21875 0.21875001,0.21875001 0 0 1 -0.21875,0.21875 0.21875001,0.21875001 0 0 1 -0.21875,-0.21875 0.21875001,0.21875001 0 0 1 0.20337,-0.21875 z m 0.733155,0 a 0.21875001,0.21875001 0 0 1 0.01538,0 0.21875001,0.21875001 0 0 1 0.21875,0.21875 0.21875001,0.21875001 0 0 1 -0.21875,0.21875 0.21875001,0.21875001 0 0 1 -0.21875,-0.21875 0.21875001,0.21875001 0 0 1 0.20337,-0.21875 z m 0.750244,0 h 0.875 c 0.121187,0 0.21875,0.097563 0.21875,0.21875 0,0.1211874 -0.09756,0.21875 -0.21875,0.21875 h -0.875 c -0.121188,0 -0.21875,-0.097563 -0.21875,-0.21875 0,-0.1211875 0.09756,-0.21875 0.21875,-0.21875 z"
         id="rect895" />
      <path
         style="display:inline;opacity:0.5;fill:#808080;fill-opacity:1;stroke:none;stroke-width:0.06404428;stroke-linecap:butt;stroke-linejoin:bevel;stroke-miterlimit:4;stroke-dasharray:none;stroke-opacity:1;paint-order:fill markers stroke"
         d="m -37.432853,2.271186 c -0.546897,0 -0.986084,0.439188 -0.986084,0.9860841 v 3.5 5.0278319 3.5 c 0,0.546897 0.439187,0.986084 0.986084,0.986084 h 7.213623 c 0.546898,0 0.987793,-0.439187 0.987793,-0.986084 v -3.5 V 6.75727 3.2572699 c 0,-0.5468958 -0.440896,-0.9860839 -0.987793,-0.9860839 z m 0.654541,10.706787 h 5.90625 c 0.181781,0 0.328125,0.146344 0.328125,0.328125 0,0.181781 -0.146344,0.328125 -0.328125,0.328125 h -5.90625 c -0.181782,0 -0.328125,-0.146344 -0.328125,-0.328125 0,-0.181781 0.146343,-0.328125 0.328125,-0.328125 z m 0,1.3125 h 5.90625 c 0.181781,0 0.328125,0.146343 0.328125,0.328125 0,0.18178 -0.146344,0.328125 -0.328125,0.328125 h -5.90625 c -0.181782,0 -0.328125,-0.146345 -0.328125,-0.328125 0,-0.181782 0.146343,-0.328125 0.328125,-0.328125 z"
         id="rect1133"
         inkscape:connector-curvature="0" />
    </g>
    <g
       id="g838">
      <rect
         style="opacity:1;fill:#808080;fill-opacity:1;stroke:none;stroke-width:0.17721924;stroke-opacity:0.94117647"
         id="rect832"
         width="12.1"
         height="1"
         x="1.9499998"
         y="15.019031"
         ry="0.03586838" />
      <rect
         style="opacity:1;fill:#808080;fill-opacity:1;stroke:none;stroke-width:0.14334244;stroke-opacity:0.94117647"
         id="rect834"
         width="1"
         height="1"
         x="7.5"
         y="14.089151"
         ry="0" />
    </g>
  </g>
</svg>
