<?xml version="1.0" encoding="UTF-8" standalone="no"?>
<svg
   xmlns:dc="http://purl.org/dc/elements/1.1/"
   xmlns:cc="http://creativecommons.org/ns#"
   xmlns:rdf="http://www.w3.org/1999/02/22-rdf-syntax-ns#"
   xmlns:svg="http://www.w3.org/2000/svg"
   xmlns="http://www.w3.org/2000/svg"
   xmlns:sodipodi="http://sodipodi.sourceforge.net/DTD/sodipodi-0.dtd"
   xmlns:inkscape="http://www.inkscape.org/namespaces/inkscape"
   height="16"
   width="16"
   version="1.1"
   id="svg8"
   sodipodi:docname="media-optical-bd-symbolic.svg"
   inkscape:version="0.92.3 (2405546, 2018-03-11)">
  <metadata
     id="metadata14">
    <rdf:RDF>
      <cc:Work
         rdf:about="">
        <dc:format>image/svg+xml</dc:format>
        <dc:type
           rdf:resource="http://purl.org/dc/dcmitype/StillImage" />
        <dc:title></dc:title>
      </cc:Work>
    </rdf:RDF>
  </metadata>
  <defs
     id="defs12" />
  <sodipodi:namedview
     pagecolor="#ffffff"
     bordercolor="#666666"
     borderopacity="1"
     objecttolerance="10"
     gridtolerance="10"
     guidetolerance="10"
     inkscape:pageopacity="0"
     inkscape:pageshadow="2"
     inkscape:window-width="1920"
     inkscape:window-height="1539"
     id="namedview10"
     showgrid="false"
     inkscape:zoom="29.5"
     inkscape:cx="-2.564074"
     inkscape:cy="0.22646842"
     inkscape:window-x="0"
     inkscape:window-y="27"
     inkscape:window-maximized="0"
     inkscape:current-layer="svg8" />
  <g
     id="g1081">
    <path
       inkscape:connector-curvature="0"
       id="circle1280"
       d="M 8.0000008,4.710938 A 3.2897201,3.2897201 0 0 0 4.7109378,8 3.2897201,3.2897201 0 0 0 8.0000008,11.289062 3.2897201,3.2897201 0 0 0 11.289062,8 3.2897201,3.2897201 0 0 0 8.0000008,4.710938 Z m 0,2.466797 a 0.8224299,0.8224299 0 0 1 0.320312,0.06445 0.8224299,0.8224299 0 0 1 0.208985,0.128906 0.8224299,0.8224299 0 0 1 0.1621088,0.183594 0.8224299,0.8224299 0 0 1 0,0.0019 0.8224299,0.8224299 0 0 1 0.07422,0.144531 0.8224299,0.8224299 0 0 1 0,0.002 0.8224299,0.8224299 0 0 1 0.02734,0.07617 0.8224299,0.8224299 0 0 1 0,0.0019 0.8224299,0.8224299 0 0 1 0.01758,0.07813 0.8224299,0.8224299 0 0 1 0,0.002 0.8224299,0.8224299 0 0 1 0.0098,0.08008 0.8224299,0.8224299 0 0 1 0.002,0.05859 0.8224299,0.8224299 0 0 1 -0.06445,0.320312 0.8224299,0.8224299 0 0 1 -0.1289058,0.208985 0.8224299,0.8224299 0 0 1 -0.117187,0.115234 0.8224299,0.8224299 0 0 1 -0.06836,0.04687 0.8224299,0.8224299 0 0 1 -0.07031,0.04102 0.8224299,0.8224299 0 0 1 -0.234375,0.07813 0.8224299,0.8224299 0 0 1 -0.138672,0.01172 0.8224299,0.8224299 0 0 1 -0.320313,-0.06445 0.8224299,0.8224299 0 0 1 -0.208984,-0.128906 0.8224299,0.8224299 0 0 1 -0.162109,-0.185547 0.8224299,0.8224299 0 0 1 -0.04102,-0.07031 0.8224299,0.8224299 0 0 1 -0.0332,-0.07617 0.8224299,0.8224299 0 0 1 -0.02734,-0.07617 0.8224299,0.8224299 0 0 1 0,-0.0019 0.8224299,0.8224299 0 0 1 -0.01758,-0.07813 0.8224299,0.8224299 0 0 1 0,-0.002 0.8224299,0.8224299 0 0 1 -0.0098,-0.08008 0.8224299,0.8224299 0 0 1 -0.002,-0.05859 0.8224299,0.8224299 0 0 1 0.0039,-0.08203 0.8224299,0.8224299 0 0 1 0.06055,-0.238281 0.8224299,0.8224299 0 0 1 0.128907,-0.208985 0.8224299,0.8224299 0 0 1 0.628906,-0.292968 z"
       style="fill:#808080;fill-opacity:1;stroke-width:0.0328972;opacity:0.5" />
    <path
       id="circle1350"
       d="M 8 0 A 8 8 0 0 0 0 8 A 8 8 0 0 0 8 16 A 8 8 0 0 0 16 8 A 8 8 0 0 0 8 0 z M 8 0.5 A 7.5000005 7.5000005 0 0 1 15.5 8 A 7.5000005 7.5000005 0 0 1 8 15.5 A 7.5000005 7.5000005 0 0 1 0.5 8 A 7.5000005 7.5000005 0 0 1 8 0.5 z "
       style="fill:#808080;fill-opacity:1;stroke-width:0.08;opacity:1" />
    <path
       inkscape:connector-curvature="0"
       id="circle1377"
       d="M 7.9990231,4.8593749 A 3.140187,3.140187 0 0 0 4.8603508,8.0000006 3.140187,3.140187 0 0 0 7.9990231,11.140625 3.140187,3.140187 0 0 0 11.139649,8.0000006 3.140187,3.140187 0 0 0 7.9990231,4.8593749 Z m 0,2.3183601 A 0.8224299,0.8224299 0 0 1 8.8232423,8.0000006 0.8224299,0.8224299 0 0 1 7.9990231,8.8222666 0.8224299,0.8224299 0 0 1 7.1767581,8.0000006 0.8224299,0.8224299 0 0 1 7.9990231,7.177735 Z"
       style="fill:#808080;fill-opacity:1;stroke-width:0.03140187;opacity:0.6" />
    <path
       inkscape:connector-curvature="0"
       id="circle1336"
       d="M 7.9999992,5.7578119 A 2.242991,2.242991 0 0 0 5.7578123,7.9999991 2.242991,2.242991 0 0 0 7.9999992,10.242188 2.242991,2.242991 0 0 0 10.242188,7.9999991 2.242991,2.242991 0 0 0 7.9999992,5.7578119 Z m 0,1.4199222 a 0.8224299,0.8224299 0 0 1 0.8222661,0.822265 0.8224299,0.8224299 0 0 1 -0.8222661,0.822266 0.8224299,0.8224299 0 0 1 -0.8222649,-0.822266 0.8224299,0.8224299 0 0 1 0.8222649,-0.822265 z"
       style="fill:#808080;fill-opacity:1;stroke-width:0.02242991;opacity:0.7" />
    <path
       inkscape:connector-curvature="0"
       id="circle1330"
       d="M 8,6.5046731 A 1.4953271,1.4953271 0 0 0 6.504673,7.9999999 1.4953271,1.4953271 0 0 0 8,9.4953269 1.4953271,1.4953271 0 0 0 9.4953271,7.9999999 1.4953271,1.4953271 0 0 0 8,6.5046731 Z M 8,7.1775699 A 0.82242991,0.82242991 0 0 1 8.8224301,7.9999999 0.82242991,0.82242991 0 0 1 8,8.8224299 0.82242991,0.82242991 0 0 1 7.17757,7.9999999 0.82242991,0.82242991 0 0 1 8,7.1775699 Z"
       style="fill:#ffffff;fill-opacity:0.94117647;stroke-width:0.01495327" />
    <path
       inkscape:connector-curvature="0"
       id="circle1282"
       d="M 8.0000005,6.1914063 A 1.809346,1.809346 0 0 0 6.1914064,7.9999998 1.809346,1.809346 0 0 0 8.0000005,9.8085937 1.809346,1.809346 0 0 0 9.8085936,7.9999998 1.809346,1.809346 0 0 0 8.0000005,6.1914063 Z m 0,0.9863285 A 0.8224299,0.8224299 0 0 1 8.8222666,7.9999998 0.8224299,0.8224299 0 0 1 8.0000005,8.8222657 0.8224299,0.8224299 0 0 1 7.1777344,7.9999998 0.8224299,0.8224299 0 0 1 8.0000005,7.1777348 Z"
       style="fill:#808080;fill-opacity:0.50196078;stroke-width:0.01809346" />
    <path
       inkscape:connector-curvature="0"
       id="circle1379"
       d="M 7.9990229,6.2734371 A 1.7271029,1.7271029 0 0 0 6.272461,7.9999999 1.7271029,1.7271029 0 0 0 7.9990229,9.7265629 1.7271029,1.7271029 0 0 0 9.727539,7.9999999 1.7271029,1.7271029 0 0 0 7.9990229,6.2734371 Z m 0,0.9042968 a 0.8224299,0.8224299 0 0 1 0.824219,0.822266 0.8224299,0.8224299 0 0 1 -0.824219,0.822266 0.8224299,0.8224299 0 0 1 -0.822265,-0.822266 0.8224299,0.8224299 0 0 1 0.822265,-0.822266 z"
       style="fill:#808080;fill-opacity:1;stroke-width:0.01727103;opacity:0.8" />
    <path
       inkscape:connector-curvature="0"
       id="circle1338"
       d="M 8,6.765625 A 1.2336451,1.2336451 0 0 0 6.765625,8 1.2336451,1.2336451 0 0 0 8,9.234375 1.2336451,1.2336451 0 0 0 9.234375,8 1.2336451,1.2336451 0 0 0 8,6.765625 Z M 8,7.177734 A 0.8224299,0.8224299 0 0 1 8.822266,8 0.8224299,0.8224299 0 0 1 8,8.822265 0.8224299,0.8224299 0 0 1 7.177735,8 0.8224299,0.8224299 0 0 1 8,7.177734 Z"
       style="fill:#808080;fill-opacity:1;stroke-width:0.01233645;opacity:0.9" />
    <circle
       r="8"
       cy="8"
       cx="8"
       id="path1049"
       style="opacity:0.2;fill:#808080;fill-opacity:0.50196078;stroke:none;stroke-width:0.93855536;stroke-opacity:0.94117647" />
  </g>
</svg>
