<?xml version="1.0" encoding="UTF-8" standalone="no"?>
<svg
   xmlns:dc="http://purl.org/dc/elements/1.1/"
   xmlns:cc="http://creativecommons.org/ns#"
   xmlns:rdf="http://www.w3.org/1999/02/22-rdf-syntax-ns#"
   xmlns:svg="http://www.w3.org/2000/svg"
   xmlns="http://www.w3.org/2000/svg"
   xmlns:sodipodi="http://sodipodi.sourceforge.net/DTD/sodipodi-0.dtd"
   xmlns:inkscape="http://www.inkscape.org/namespaces/inkscape"
   height="16"
   width="16"
   version="1.1"
   id="svg4"
   sodipodi:docname="user-desktop-symbolic.svg"
   inkscape:version="0.92.3 (2405546, 2018-03-11)">
  <metadata
     id="metadata10">
    <rdf:RDF>
      <cc:Work
         rdf:about="">
        <dc:format>image/svg+xml</dc:format>
        <dc:type
           rdf:resource="http://purl.org/dc/dcmitype/StillImage" />
      </cc:Work>
    </rdf:RDF>
  </metadata>
  <defs
     id="defs8" />
  <sodipodi:namedview
     pagecolor="#ffffff"
     bordercolor="#666666"
     borderopacity="1"
     objecttolerance="10"
     gridtolerance="10"
     guidetolerance="10"
     inkscape:pageopacity="0"
     inkscape:pageshadow="2"
     inkscape:window-width="1920"
     inkscape:window-height="1539"
     id="namedview6"
     showgrid="false"
     inkscape:zoom="59"
     inkscape:cx="4.9063704"
     inkscape:cy="4.2938004"
     inkscape:window-x="0"
     inkscape:window-y="27"
     inkscape:window-maximized="0"
     inkscape:current-layer="svg4" />
  <path
     style="fill:#808080;fill-opacity:1;stroke:none;stroke-width:0.74147099;stroke-linecap:butt;stroke-linejoin:bevel;stroke-miterlimit:4;stroke-dasharray:none;stroke-opacity:1;paint-order:fill markers stroke"
     d="M 0.85351562 2 C 0.38098613 2 0 2.3809861 0 2.8535156 L 0 13.146484 C 0 13.619014 0.38098613 14 0.85351562 14 L 15.146484 14 C 15.619014 14 16 13.619014 16 13.146484 L 16 2.8535156 C 16 2.3809861 15.619014 2 15.146484 2 L 0.85351562 2 z M 0.5703125 2.5 L 1.4296875 2.5 C 1.469065 2.5 1.5 2.530935 1.5 2.5703125 L 1.5 3.4296875 C 1.5 3.469065 1.469065 3.5 1.4296875 3.5 L 0.5703125 3.5 C 0.53093504 3.5 0.5 3.469065 0.5 3.4296875 L 0.5 2.5703125 C 0.5 2.530935 0.53093504 2.5 0.5703125 2.5 z M 3.28125 2.5 L 14.71875 2.5 C 15.151902 2.5 15.5 2.848098 15.5 3.28125 L 15.5 12.71875 C 15.5 13.151902 15.151902 13.5 14.71875 13.5 L 3.28125 13.5 C 2.848098 13.5 2.5 13.151902 2.5 12.71875 L 2.5 3.28125 C 2.5 2.848098 2.848098 2.5 3.28125 2.5 z M 0.5703125 3.9277344 L 1.4296875 3.9277344 C 1.469065 3.9277344 1.5 3.9606225 1.5 4 L 1.5 4.8574219 C 1.5 4.8967993 1.469065 4.9277344 1.4296875 4.9277344 L 0.5703125 4.9277344 C 0.53093504 4.9277344 0.5 4.8967993 0.5 4.8574219 L 0.5 4 C 0.5 3.9606225 0.53093504 3.9277344 0.5703125 3.9277344 z M 0.5703125 5.3574219 L 1.4296875 5.3574219 C 1.469065 5.3574219 1.5 5.3883569 1.5 5.4277344 L 1.5 6.2851562 C 1.5 6.3245337 1.469065 6.3574219 1.4296875 6.3574219 L 0.5703125 6.3574219 C 0.53093504 6.3574219 0.5 6.3245341 0.5 6.2851562 L 0.5 5.4277344 C 0.5 5.3883569 0.53093504 5.3574219 0.5703125 5.3574219 z M 0.5703125 6.7851562 L 1.4296875 6.7851562 C 1.469065 6.7851562 1.5 6.8180444 1.5 6.8574219 L 1.5 7.7148438 C 1.5 7.7542212 1.469065 7.7851564 1.4296875 7.7851562 L 0.5703125 7.7851562 C 0.53093504 7.7851562 0.5 7.7542212 0.5 7.7148438 L 0.5 6.8574219 C 0.5 6.8180444 0.53093504 6.7851564 0.5703125 6.7851562 z M 0.5703125 8.2148438 L 1.4296875 8.2148438 C 1.469065 8.2148438 1.5 8.2457789 1.5 8.2851562 L 1.5 9.1425781 C 1.5 9.1819556 1.469065 9.2148436 1.4296875 9.2148438 L 0.5703125 9.2148438 C 0.53093504 9.2148438 0.5 9.1819556 0.5 9.1425781 L 0.5 8.2851562 C 0.5 8.2457791 0.53093504 8.2148438 0.5703125 8.2148438 z M 0.5703125 9.6425781 L 1.4296875 9.6425781 C 1.469065 9.6425781 1.5 9.6754662 1.5 9.7148438 L 1.5 10.572266 C 1.5 10.611643 1.469065 10.642578 1.4296875 10.642578 L 0.5703125 10.642578 C 0.53093504 10.642578 0.5 10.611643 0.5 10.572266 L 0.5 9.7148438 C 0.5 9.6754662 0.53093504 9.6425781 0.5703125 9.6425781 z M 0.5703125 11.072266 L 1.4296875 11.072266 C 1.469065 11.072266 1.5 11.103201 1.5 11.142578 L 1.5 12 C 1.5 12.039377 1.469065 12.072266 1.4296875 12.072266 L 0.5703125 12.072266 C 0.53093504 12.072266 0.5 12.039377 0.5 12 L 0.5 11.142578 C 0.5 11.103201 0.53093504 11.072266 0.5703125 11.072266 z M 0.5703125 12.5 L 1.4296875 12.5 C 1.469065 12.5 1.5 12.530935 1.5 12.570312 L 1.5 13.429688 C 1.5 13.469065 1.469065 13.5 1.4296875 13.5 L 0.5703125 13.5 C 0.53093504 13.5 0.5 13.469065 0.5 13.429688 L 0.5 12.570312 C 0.5 12.530935 0.53093504 12.5 0.5703125 12.5 z "
     id="rect823" />
  <g
     transform="matrix(0.00966818,0,0,-0.00966818,7.0264241,11.867272)"
     id="g836"
     style="fill:#808080;fill-opacity:0.80238098">
    <path
       d="M 256.77566,299.6501 408.26214,253.29738 292.38036,361.30629 265.14253,335.9264 Z M 115.88178,361.30629 -4.4419499e-6,253.29738 151.48385,299.6501 l -8.36337,36.2763 z m 123.84551,91.18548 -35.59067,154.37242 -35.60441,-154.37242 35.60441,-10.88532 35.59067,10.88532"
       style="fill:#808080;fill-opacity:0.80238098;fill-rule:evenodd;stroke:none"
       id="path14"
       inkscape:connector-curvature="0" />
    <path
       d="M 115.88178,361.30629 -4.4419499e-6,253.29738 143.12048,335.9264 Z m 90.13644,80.86952 -1.8816,164.68838 -35.60441,-154.37242 35.60441,-10.88532 1.8816,0.56936"
       style="fill:#808080;fill-opacity:0.80238098;fill-rule:evenodd;stroke:none"
       id="path16"
       inkscape:connector-curvature="0" />
    <path
       d="M 151.48385,299.6501 -4.4419499e-6,253.29738 143.12048,335.9264 Z m 115.10676,37.62301 141.67153,-83.97573 -151.48648,46.35272 8.36687,36.2763 1.44808,1.34671"
       style="fill:#808080;fill-opacity:0.80238098;fill-rule:evenodd;stroke:none"
       id="path18"
       inkscape:connector-curvature="0" />
    <path
       d="m 204.13662,412.98685 -154.167645,47.1733 117.938085,-109.92264 36.22956,-157.1017 36.21846,157.1017 117.93545,109.92264 -154.15391,-47.1733"
       style="fill:#808080;fill-opacity:0.80238098;fill-rule:evenodd;stroke:none"
       id="path20"
       inkscape:connector-curvature="0" />
    <path
       d="M 204.13662,373.48223 49.968975,460.16015 167.90706,350.23751 204.13662,193.13581 v 180.34642"
       style="fill:#808080;fill-opacity:0.80238098;fill-rule:evenodd;stroke:none"
       id="path22"
       inkscape:connector-curvature="0" />
    <path
       d="M 204.13662,373.48223 358.29053,460.16015 240.35508,350.23751 204.13662,193.13581 v 180.34642"
       style="fill:#808080;fill-opacity:0.80238098;fill-rule:evenodd;stroke:none"
       id="path24"
       inkscape:connector-curvature="0" />
  </g>
</svg>
