<?xml version="1.0" encoding="UTF-8" standalone="no"?>
<!-- Generator: Adobe Illustrator 19.0.0, SVG Export Plug-In . SVG Version: 6.00 Build 0)  -->

<svg
   xmlns:dc="http://purl.org/dc/elements/1.1/"
   xmlns:cc="http://creativecommons.org/ns#"
   xmlns:rdf="http://www.w3.org/1999/02/22-rdf-syntax-ns#"
   xmlns:svg="http://www.w3.org/2000/svg"
   xmlns="http://www.w3.org/2000/svg"
   xmlns:sodipodi="http://sodipodi.sourceforge.net/DTD/sodipodi-0.dtd"
   xmlns:inkscape="http://www.inkscape.org/namespaces/inkscape"
   version="1.1"
   id="Layer_1"
   x="0px"
   y="0px"
   viewBox="0 0 3840 1600"
   style="enable-background:new 0 0 3840 1600;"
   xml:space="preserve"
   sodipodi:docname="StarWallpaper0.svg"
   inkscape:version="0.92.3 (2405546, 2018-03-11)"><metadata
   id="metadata123"><rdf:RDF><cc:Work
       rdf:about=""><dc:format>image/svg+xml</dc:format><dc:type
         rdf:resource="http://purl.org/dc/dcmitype/StillImage" /><dc:title></dc:title></cc:Work></rdf:RDF></metadata><defs
   id="defs121" /><sodipodi:namedview
   pagecolor="#ffffff"
   bordercolor="#666666"
   borderopacity="1"
   objecttolerance="10"
   gridtolerance="10"
   guidetolerance="10"
   inkscape:pageopacity="0"
   inkscape:pageshadow="2"
   inkscape:window-width="1920"
   inkscape:window-height="939"
   id="namedview119"
   showgrid="false"
   inkscape:zoom="0.2371754"
   inkscape:cx="1761.6736"
   inkscape:cy="607.49633"
   inkscape:window-x="0"
   inkscape:window-y="27"
   inkscape:window-maximized="1"
   inkscape:current-layer="Layer_1" />
<style
   type="text/css"
   id="style2">
	.st0{fill:url(#XMLID_2_);}
	.st1{fill:none;stroke:#000000;stroke-width:4;stroke-linecap:round;stroke-linejoin:round;stroke-miterlimit:10;}
	.st2{opacity:0.5;fill:#FFFFFF;}
	.st3{fill:#FFFFFF;}
	.st4{fill:#CCE9F8;}
	.st5{fill:url(#XMLID_3_);}
	.st6{fill:url(#XMLID_4_);}
	.st7{fill:url(#XMLID_5_);}
	.st8{fill:url(#XMLID_6_);}
	.st9{fill:url(#XMLID_7_);}
	.st10{fill:url(#XMLID_8_);}
	.st11{fill:#0B4C65;}
	.st12{fill:url(#XMLID_9_);}
	.st13{fill:url(#XMLID_10_);}
	.st14{fill:url(#XMLID_11_);}
	.st15{fill:url(#XMLID_12_);}
	.st16{fill:url(#XMLID_13_);}
	.st17{opacity:0.5;}
	.st18{fill:#1387B4;}
	.st19{fill:#19B4F0;}
	.st20{fill:#0E6587;}
	.st21{fill:#7B7476;}
	.st22{fill:#BAB6B6;}
	.st23{fill:#08394C;}
	.st24{opacity:0.75;}
	.st25{fill:none;stroke:#C1272D;stroke-miterlimit:10;}
</style>
<radialGradient
   id="XMLID_2_"
   cx="1915.6217"
   cy="532.7924"
   r="1924.037"
   gradientUnits="userSpaceOnUse">
	<stop
   offset="1.076729e-007"
   style="stop-color:#19B4F0"
   id="stop4" />
	<stop
   offset="1"
   style="stop-color:#08394C"
   id="stop6" />
</radialGradient>





<linearGradient
   id="XMLID_3_"
   gradientUnits="userSpaceOnUse"
   x1="1920"
   y1="669.6364"
   x2="1920"
   y2="1607.7794">
	<stop
   offset="0"
   style="stop-color:#1387B4"
   id="stop16" />
	<stop
   offset="1"
   style="stop-color:#0E6587"
   id="stop18" />
</linearGradient>

<linearGradient
   id="XMLID_4_"
   gradientUnits="userSpaceOnUse"
   x1="1920"
   y1="802.4352"
   x2="1920"
   y2="1613.2791">
	<stop
   offset="0"
   style="stop-color:#0E6587"
   id="stop22" />
	<stop
   offset="1"
   style="stop-color:#0B4C65"
   id="stop24" />
</linearGradient>

<linearGradient
   id="XMLID_5_"
   gradientUnits="userSpaceOnUse"
   x1="1332.3617"
   y1="925"
   x2="1332.3617"
   y2="1619.1038">
	<stop
   offset="0"
   style="stop-color:#5C5759"
   id="stop28" />
	<stop
   offset="1"
   style="stop-color:#7B7476"
   id="stop30" />
</linearGradient>

<linearGradient
   id="XMLID_6_"
   gradientUnits="userSpaceOnUse"
   x1="1748.3173"
   y1="1099.0233"
   x2="1654.9662"
   y2="1624.8376">
	<stop
   offset="0"
   style="stop-color:#BAB6B6"
   id="stop34" />
	<stop
   offset="1"
   style="stop-color:#8B8989"
   id="stop36" />
</linearGradient>

<linearGradient
   id="XMLID_7_"
   gradientUnits="userSpaceOnUse"
   x1="2194.325"
   y1="1624.9437"
   x2="2096.325"
   y2="1094.9437">
	<stop
   offset="0"
   style="stop-color:#5C5759"
   id="stop40" />
	<stop
   offset="1"
   style="stop-color:#7B7476"
   id="stop42" />
</linearGradient>

<linearGradient
   id="XMLID_8_"
   gradientUnits="userSpaceOnUse"
   x1="2513.9534"
   y1="921.1321"
   x2="2513.9534"
   y2="1612.6135">
	<stop
   offset="0"
   style="stop-color:#8B8989"
   id="stop46" />
	<stop
   offset="1"
   style="stop-color:#BAB6B6"
   id="stop48" />
</linearGradient>




<linearGradient
   id="XMLID_9_"
   gradientUnits="userSpaceOnUse"
   x1="1768.9983"
   y1="1596.3418"
   x2="1768.9983"
   y2="529.6751">
	<stop
   offset="0"
   style="stop-color:#5C5759"
   id="stop55" />
	<stop
   offset="1"
   style="stop-color:#7B7476"
   id="stop57" />
</linearGradient>

<linearGradient
   id="XMLID_10_"
   gradientUnits="userSpaceOnUse"
   x1="2077.6367"
   y1="539.7378"
   x2="2077.6367"
   y2="1613.7096">
	<stop
   offset="0"
   style="stop-color:#BAB6B6"
   id="stop61" />
	<stop
   offset="1"
   style="stop-color:#8B8989"
   id="stop63" />
</linearGradient>

<linearGradient
   id="XMLID_11_"
   gradientUnits="userSpaceOnUse"
   x1="1920"
   y1="952.7735"
   x2="1920"
   y2="1605.2648">
	<stop
   offset="0"
   style="stop-color:#0B4C65"
   id="stop67" />
	<stop
   offset="1"
   style="stop-color:#08394C"
   id="stop69" />
</linearGradient>




















<g
   id="g970"><rect
     height="1600"
     width="3840"
     class="st0"
     id="XMLID_699_"
     x="0"
     y="0"
     style="fill:url(#XMLID_2_)" /><rect
     height="1600"
     width="3840"
     class="st1"
     y="0"
     id="XMLID_695_"
     x="0"
     style="fill:none;stroke:#000000;stroke-width:4;stroke-linecap:round;stroke-linejoin:round;stroke-miterlimit:10" /><path
     d="m 1920.3,863 c 1.3,-2.1 2.6,-2.1 4,0 -1.3,0 -2.6,0 -4,0 z"
     class="st4"
     id="XMLID_690_"
     inkscape:connector-curvature="0"
     style="fill:#cce9f8" /><polygon
     points="0,1351.8 0,1600 3840,1600 3840,1351.8 3840,533.3 1920,1351.8 0,533.3 "
     class="st5"
     id="XMLID_689_"
     style="fill:url(#XMLID_3_)" /><polygon
     points="0,1485.1 0,1600 3840,1600 3840,1485.1 3840,666.7 1920,1485.1 0,666.7 "
     class="st6"
     id="XMLID_688_"
     style="fill:url(#XMLID_4_)" /><polygon
     points="3840,800 3840,1600 0,1600 0,800 1920,1600 "
     class="st14"
     id="XMLID_678_"
     style="fill:url(#XMLID_11_)" /><g
     id="XMLID_675_">
	<linearGradient
   y2="1605.4791"
   x2="1594.0013"
   y1="1322.4358"
   x1="1594.0013"
   gradientUnits="userSpaceOnUse"
   id="XMLID_12_">
		<stop
   id="stop73"
   style="stop-color:#062B39"
   offset="0" />
		<stop
   id="stop75"
   style="stop-color:#08394C"
   offset="1" />
	</linearGradient>
	<polygon
   style="fill:url(#XMLID_12_)"
   points="1768.9,1535.9 1922.7,1600 1485.8,1600 1265.3,1327.2 1582.6,1458.3 1689.8,1503 "
   class="st15"
   id="XMLID_677_" />
	<linearGradient
   y2="1605.4791"
   x2="2251.1755"
   y1="1322.4358"
   x1="2251.1755"
   gradientUnits="userSpaceOnUse"
   id="XMLID_13_">
		<stop
   id="stop79"
   style="stop-color:#062B39"
   offset="0" />
		<stop
   id="stop81"
   style="stop-color:#08394C"
   offset="1" />
	</linearGradient>
	<polygon
   style="fill:url(#XMLID_13_)"
   points="2157,1502.4 2263.7,1457.9 2579.7,1325.1 2359.3,1600 1922.7,1600 1923.3,1599.8 2077.3,1535.6 "
   class="st16"
   id="XMLID_676_" />
</g><g
     id="g836"
     transform="matrix(0.96681789,0,0,-0.96681789,1722.6424,1186.7272)"><path
       inkscape:connector-curvature="0"
       id="path14"
       style="fill:#aaa8a8;fill-opacity:1;fill-rule:evenodd;stroke:none"
       d="M 256.77566,299.6501 408.26214,253.29738 292.38036,361.30629 265.14253,335.9264 Z M 115.88178,361.30629 -4.4419499e-6,253.29738 151.48385,299.6501 l -8.36337,36.2763 z m 123.84551,91.18548 -35.59067,154.37242 -35.60441,-154.37242 35.60441,-10.88532 35.59067,10.88532" /><path
       inkscape:connector-curvature="0"
       id="path16"
       style="fill:#656263;fill-opacity:1;fill-rule:evenodd;stroke:none"
       d="M 115.88178,361.30629 -4.4419499e-6,253.29738 143.12048,335.9264 Z m 90.13644,80.86952 -1.8816,164.68838 -35.60441,-154.37242 35.60441,-10.88532 1.8816,0.56936" /><path
       inkscape:connector-curvature="0"
       id="path18"
       style="fill:#7f7d7e;fill-opacity:1;fill-rule:evenodd;stroke:none"
       d="M 151.48385,299.6501 -4.4419499e-6,253.29738 143.12048,335.9264 Z m 115.10676,37.62301 141.67153,-83.97573 -151.48648,46.35272 8.36687,36.2763 1.44808,1.34671" /><path
       inkscape:connector-curvature="0"
       id="path20"
       style="fill:#19b5f1;fill-opacity:1;fill-rule:evenodd;stroke:none"
       d="m 204.13662,412.98685 -154.167645,47.1733 117.938085,-109.92264 36.22956,-157.1017 36.21846,157.1017 117.93545,109.92264 -154.15391,-47.1733" /><path
       inkscape:connector-curvature="0"
       id="path22"
       style="fill:#1575c5;fill-opacity:1;fill-rule:evenodd;stroke:none"
       d="M 204.13662,373.48223 49.968975,460.16015 167.90706,350.23751 204.13662,193.13581 v 180.34642" /><path
       inkscape:connector-curvature="0"
       id="path24"
       style="fill:#0994db;fill-opacity:1;fill-rule:evenodd;stroke:none"
       d="M 204.13662,373.48223 358.29053,460.16015 240.35508,350.23751 204.13662,193.13581 v 180.34642" /></g></g></svg>