<?xml version="1.0" encoding="UTF-8" standalone="no"?>
<svg
   xmlns:dc="http://purl.org/dc/elements/1.1/"
   xmlns:cc="http://creativecommons.org/ns#"
   xmlns:rdf="http://www.w3.org/1999/02/22-rdf-syntax-ns#"
   xmlns:svg="http://www.w3.org/2000/svg"
   xmlns="http://www.w3.org/2000/svg"
   xmlns:sodipodi="http://sodipodi.sourceforge.net/DTD/sodipodi-0.dtd"
   xmlns:inkscape="http://www.inkscape.org/namespaces/inkscape"
   height="16"
   width="16"
   version="1.1"
   id="svg4"
   sodipodi:docname="tab-new-symbolic.svg"
   inkscape:version="0.92.3 (2405546, 2018-03-11)">
  <metadata
     id="metadata10">
    <rdf:RDF>
      <cc:Work
         rdf:about="">
        <dc:format>image/svg+xml</dc:format>
        <dc:type
           rdf:resource="http://purl.org/dc/dcmitype/StillImage" />
        <dc:title />
      </cc:Work>
    </rdf:RDF>
  </metadata>
  <defs
     id="defs8" />
  <sodipodi:namedview
     pagecolor="#ffffff"
     bordercolor="#666666"
     borderopacity="1"
     objecttolerance="10"
     gridtolerance="10"
     guidetolerance="10"
     inkscape:pageopacity="0"
     inkscape:pageshadow="2"
     inkscape:window-width="960"
     inkscape:window-height="1019"
     id="namedview6"
     showgrid="false"
     inkscape:zoom="14.75"
     inkscape:cx="9.926851"
     inkscape:cy="6.9064276"
     inkscape:window-x="960"
     inkscape:window-y="27"
     inkscape:window-maximized="0"
     inkscape:current-layer="svg4"
     inkscape:pagecheckerboard="true" />
  <path
     style="opacity:1;fill:#808080;fill-opacity:1;stroke:none;stroke-width:1.1553092;stroke-linecap:butt;stroke-linejoin:bevel;stroke-miterlimit:4;stroke-dasharray:none;stroke-opacity:1;paint-order:fill markers stroke"
     d="M 3.3183594 1 C 2.0336231 1 1 2.0336231 1 3.3183594 L 1 12.681641 C 1 13.966377 2.0336231 15 3.3183594 15 L 12.681641 15 C 13.966377 15 15 13.966377 15 12.681641 L 15 3.3183594 C 15 2.0336231 13.966377 1 12.681641 1 L 3.3183594 1 z M 7.4863281 5 L 8.5136719 5 L 8.5136719 7.5097656 L 10.875 7.5097656 L 10.875 8.4902344 L 8.5136719 8.4902344 L 8.5136719 11 L 7.4863281 11 L 7.4863281 8.4902344 L 5.125 8.4902344 L 5.125 7.5097656 L 7.4863281 7.5097656 L 7.4863281 5 z "
     id="rect817" />
</svg>
