<?xml version="1.0" encoding="UTF-8" standalone="no"?>
<svg
   xmlns:dc="http://purl.org/dc/elements/1.1/"
   xmlns:cc="http://creativecommons.org/ns#"
   xmlns:rdf="http://www.w3.org/1999/02/22-rdf-syntax-ns#"
   xmlns:svg="http://www.w3.org/2000/svg"
   xmlns="http://www.w3.org/2000/svg"
   xmlns:sodipodi="http://sodipodi.sourceforge.net/DTD/sodipodi-0.dtd"
   xmlns:inkscape="http://www.inkscape.org/namespaces/inkscape"
   height="16"
   width="16"
   version="1.1"
   id="svg14"
   sodipodi:docname="image-viewer-symbolic.svg"
   inkscape:version="0.92.3 (2405546, 2018-03-11)">
  <metadata
     id="metadata20">
    <rdf:RDF>
      <cc:Work
         rdf:about="">
        <dc:format>image/svg+xml</dc:format>
        <dc:type
           rdf:resource="http://purl.org/dc/dcmitype/StillImage" />
        <dc:title />
      </cc:Work>
    </rdf:RDF>
  </metadata>
  <defs
     id="defs18">
    <clipPath
       clipPathUnits="userSpaceOnUse"
       id="clipPath1179">
      <circle
         style="display:inline;fill:#00ffff;fill-opacity:1;stroke:none;stroke-width:2.74049902;stroke-miterlimit:4;stroke-dasharray:none;stroke-opacity:1"
         id="circle1181"
         cx="128"
         cy="128"
         r="124" />
    </clipPath>
    <clipPath
       clipPathUnits="userSpaceOnUse"
       id="clipPath1175">
      <circle
         style="display:inline;fill:#00ffff;fill-opacity:1;stroke:none;stroke-width:2.74049902;stroke-miterlimit:4;stroke-dasharray:none;stroke-opacity:1"
         id="circle1177"
         cx="128"
         cy="128"
         r="124" />
    </clipPath>
  </defs>
  <sodipodi:namedview
     pagecolor="#ffffff"
     bordercolor="#666666"
     borderopacity="1"
     objecttolerance="10"
     gridtolerance="10"
     guidetolerance="10"
     inkscape:pageopacity="0"
     inkscape:pageshadow="2"
     inkscape:window-width="1920"
     inkscape:window-height="1019"
     id="namedview16"
     showgrid="false"
     inkscape:zoom="41.7193"
     inkscape:cx="7.0896545"
     inkscape:cy="6.2834204"
     inkscape:window-x="0"
     inkscape:window-y="27"
     inkscape:window-maximized="0"
     inkscape:current-layer="layer1" />
  <rect
     style="opacity:0.1;fill:#808080;fill-opacity:1;stroke:none;stroke-width:3;stroke-miterlimit:4;stroke-dasharray:none;stroke-opacity:1"
     id="rect862"
     width="16"
     height="16"
     x="0"
     y="0" />
  <g
     inkscape:groupmode="layer"
     id="layer1"
     inkscape:label="Layer 1">
    <ellipse
       style="display:inline;fill:#808080;fill-opacity:1;stroke:none;stroke-width:0.69792658;stroke-linecap:butt;stroke-linejoin:bevel;stroke-miterlimit:4;stroke-dasharray:none;stroke-opacity:1;paint-order:fill markers stroke"
       id="path843-3"
       cx="10.284657"
       cy="2.6654997"
       rx="1.9999611"
       ry="1.9830674" />
    <path
       style="display:inline;opacity:0.8;fill:#808080;fill-opacity:1;stroke:none;stroke-width:0.97913754;stroke-linecap:butt;stroke-linejoin:bevel;stroke-miterlimit:4;stroke-dasharray:none;stroke-opacity:1;paint-order:fill markers stroke"
       d="M 0.0219733,12.055652 4.0218958,5.4454272 8.0218185,12.055297 12.02174,8.0895173 16.00033,12.055652 15.999666,16 H 0 Z"
       id="rect846-5"
       inkscape:connector-curvature="0" />
    <path
       style="display:inline;opacity:0.6;fill:#808080;fill-opacity:1;stroke:none;stroke-width:0.97913754;stroke-linecap:butt;stroke-linejoin:bevel;stroke-miterlimit:4;stroke-dasharray:none;stroke-opacity:1;paint-order:fill markers stroke"
       d="M 0.02230513,12.055652 4.0222277,5.4454282 8.0221503,12.055297 15.999998,16 H 3.3184137e-4 Z"
       id="rect846-9"
       inkscape:connector-curvature="0" />
    <path
       inkscape:connector-curvature="0"
       style="opacity:1;fill:#808080;fill-opacity:1;stroke:none;stroke-width:1.24997354;stroke-linecap:butt;stroke-linejoin:bevel;stroke-miterlimit:4;stroke-dasharray:none;stroke-opacity:1;paint-order:fill markers stroke"
       d="M 6.9379085,3 A 3.9369475,3.9369475 0 0 0 3.000961,6.9369475 3.9369475,3.9369475 0 0 0 6.9379085,10.873895 3.9369475,3.9369475 0 0 0 9.3485198,10.045367 L 10.032872,10.72972 9.8579393,10.90273 11.95521,13 12.999039,11.956171 10.901769,9.8589006 10.728758,10.033834 10.046328,9.3514035 A 3.9369475,3.9369475 0 0 0 10.874856,6.9369475 3.9369475,3.9369475 0 0 0 6.9379085,3 Z m 0,1.4763553 A 2.4605922,2.4605922 0 0 1 9.3985006,6.9369475 2.4605922,2.4605922 0 0 1 6.9379085,9.3975396 2.4605922,2.4605922 0 0 1 4.4773163,6.9369475 2.4605922,2.4605922 0 0 1 6.9379085,4.4763553 Z"
       id="path824" />
    <path
       style="display:inline;opacity:0.2;fill:#808080;fill-opacity:1;stroke:none;stroke-width:0.05943796;stroke-linecap:butt;stroke-linejoin:bevel;stroke-miterlimit:4;stroke-dasharray:none;stroke-opacity:1;paint-order:fill markers stroke"
       d="M 6.9376264,4.4758296 A 2.4605922,2.4605922 0 0 0 4.478642,6.9367672 2.4605922,2.4605922 0 0 0 6.9376264,9.3977047 2.4605922,2.4605922 0 0 0 9.3985639,6.9367672 2.4605922,2.4605922 0 0 0 6.9376264,4.4758296 Z"
       id="path1099-3-6-3"
       inkscape:connector-curvature="0" />
    <path
       id="path868"
       d="M 6.9379085,3 A 3.9369475,3.9369475 0 0 0 3.000961,6.9369475 3.9369475,3.9369475 0 0 0 6.9379085,10.873895 3.9369475,3.9369475 0 0 0 9.3485198,10.045367 L 10.032872,10.72972 9.8579393,10.90273 11.95521,13 12.999039,11.956171 10.901769,9.8589006 10.728758,10.033834 10.046328,9.3514035 A 3.9369475,3.9369475 0 0 0 10.874856,6.9369475 3.9369475,3.9369475 0 0 0 6.9379085,3 Z m 0,1.4763553 A 2.4605922,2.4605922 0 0 1 9.3985006,6.9369475 2.4605922,2.4605922 0 0 1 6.9379085,9.3975396 2.4605922,2.4605922 0 0 1 4.4773163,6.9369475 2.4605922,2.4605922 0 0 1 6.9379085,4.4763553 Z"
       style="opacity:1;fill:#808080;fill-opacity:1;stroke:none;stroke-width:1.24997354;stroke-linecap:butt;stroke-linejoin:bevel;stroke-miterlimit:4;stroke-dasharray:none;stroke-opacity:1;paint-order:fill markers stroke"
       inkscape:connector-curvature="0" />
  </g>
</svg>
