<?xml version="1.0" encoding="UTF-8" standalone="no"?>
<svg
   xmlns:dc="http://purl.org/dc/elements/1.1/"
   xmlns:cc="http://creativecommons.org/ns#"
   xmlns:rdf="http://www.w3.org/1999/02/22-rdf-syntax-ns#"
   xmlns:svg="http://www.w3.org/2000/svg"
   xmlns="http://www.w3.org/2000/svg"
   xmlns:sodipodi="http://sodipodi.sourceforge.net/DTD/sodipodi-0.dtd"
   xmlns:inkscape="http://www.inkscape.org/namespaces/inkscape"
   height="16"
   width="16"
   version="1.1"
   id="svg4"
   sodipodi:docname="folder-music-symbolic.svg"
   inkscape:version="0.92.3 (2405546, 2018-03-11)">
  <metadata
     id="metadata10">
    <rdf:RDF>
      <cc:Work
         rdf:about="">
        <dc:format>image/svg+xml</dc:format>
        <dc:type
           rdf:resource="http://purl.org/dc/dcmitype/StillImage" />
      </cc:Work>
    </rdf:RDF>
  </metadata>
  <defs
     id="defs8" />
  <sodipodi:namedview
     pagecolor="#ffffff"
     bordercolor="#666666"
     borderopacity="1"
     objecttolerance="10"
     gridtolerance="10"
     guidetolerance="10"
     inkscape:pageopacity="0"
     inkscape:pageshadow="2"
     inkscape:window-width="3840"
     inkscape:window-height="1539"
     id="namedview6"
     showgrid="false"
     inkscape:zoom="3.6875"
     inkscape:cx="-121.59514"
     inkscape:cy="37.287009"
     inkscape:window-x="0"
     inkscape:window-y="27"
     inkscape:window-maximized="1"
     inkscape:current-layer="svg4" />
  <path
     style="display:inline;opacity:1;fill:#808080;fill-opacity:1;fill-rule:nonzero;stroke:none;stroke-width:0.03569153;stroke-linecap:butt;stroke-linejoin:bevel;stroke-miterlimit:4;stroke-dasharray:none;stroke-opacity:1;paint-order:fill markers stroke"
     d="M 14.017379,1.465306e-7 C 13.938309,7.5146531e-5 13.664275,0.03911015 13.408402,0.08677015 12.276888,0.29753215 5.6071835,1.6568601 5.4933235,1.6999441 c -0.1762,0.06667 -0.35099,0.225128 -0.43385,0.393374 l -0.0698,0.142588 -0.005,1.558413 h -0.0103 v 7.6317579 h -1.21504 v 0.0024 c -0.0159,-9e-4 -0.0317,-0.0018 -0.0476,-0.0024 -1.26305,-10e-7 -2.28696,1.023907 -2.28696,2.286962 0,1.263054 1.02391,2.286962 2.28696,2.286961 1.26306,1e-6 2.28696,-1.023907 2.28696,-2.286961 0,0 -0.0124,-0.412059 0,-0.470619 V 11.426077 5.9669991 c 0.0414,-0.193049 0.17036,-0.334583 0.34841,-0.382528 0.16021,-0.04314 6.5826305,-1.342661 6.7632645,-1.368472 0.170044,-0.0243 0.330985,0.03669 0.408189,0.154492 0.05206,0.07946 0.05519,0.236703 0.06296,3.098838 v 2.479284 h -1.248373 v 0.0024 c -0.01577,-9e-4 -0.03156,-0.0018 -0.04735,-0.0024 -1.263051,0 -2.2869605,1.0239069 -2.2869605,2.2869599 0,1.263055 1.0238995,2.286963 2.2869605,2.286963 1.102745,-9e-4 2.047779,-0.788668 2.247281,-1.873219 0,0 0.03968,-0.294728 0.03968,-0.413744 V 6.9629971 c 0.0067,-4.821454 3e-4,-6.46807495 -0.02566,-6.55798295 C 14.472185,0.14693915 14.27942,-2.3985347e-4 14.017219,1.4653062e-7 Z"
     id="rect834"
     inkscape:connector-curvature="0"
     sodipodi:nodetypes="ccccccccccccccccccccccccccccccccc" />
</svg>
