<?xml version="1.0" encoding="UTF-8" standalone="no"?>
<svg
   xmlns:dc="http://purl.org/dc/elements/1.1/"
   xmlns:cc="http://creativecommons.org/ns#"
   xmlns:rdf="http://www.w3.org/1999/02/22-rdf-syntax-ns#"
   xmlns:svg="http://www.w3.org/2000/svg"
   xmlns="http://www.w3.org/2000/svg"
   xmlns:sodipodi="http://sodipodi.sourceforge.net/DTD/sodipodi-0.dtd"
   xmlns:inkscape="http://www.inkscape.org/namespaces/inkscape"
   height="16"
   width="16"
   version="1.1"
   id="svg4"
   sodipodi:docname="security-low-symbolic.svg"
   inkscape:version="0.92.3 (2405546, 2018-03-11)">
  <metadata
     id="metadata10">
    <rdf:RDF>
      <cc:Work
         rdf:about="">
        <dc:format>image/svg+xml</dc:format>
        <dc:type
           rdf:resource="http://purl.org/dc/dcmitype/StillImage" />
      </cc:Work>
    </rdf:RDF>
  </metadata>
  <defs
     id="defs8" />
  <sodipodi:namedview
     pagecolor="#ffffff"
     bordercolor="#666666"
     borderopacity="1"
     objecttolerance="10"
     gridtolerance="10"
     guidetolerance="10"
     inkscape:pageopacity="0"
     inkscape:pageshadow="2"
     inkscape:window-width="1920"
     inkscape:window-height="1539"
     id="namedview6"
     showgrid="false"
     inkscape:zoom="20.85965"
     inkscape:cx="-11.926519"
     inkscape:cy="17.104435"
     inkscape:window-x="0"
     inkscape:window-y="27"
     inkscape:window-maximized="0"
     inkscape:current-layer="svg4" />
  <path
     style="stroke-width:0.04536832;fill:#808080;fill-opacity:1;opacity:1"
     d="M 7.923828,0.01328547 7.8554687,0.03672296 A 7.9994092,7.9994092 0 0 1 2.048828,2.6011761 7.9994092,7.9994092 0 0 1 1.1347655,2.5484417 c -9.472e-4,0.00848 -0.00781,0.014776 -0.00781,0.023437 0,2.3717648 0.6282771,5.1107396 1.7226563,7.5195313 0.8876744,1.953968 2.4837042,4.562319 5.046875,5.882812 0.032596,0.0168 0.067805,0.02539 0.1035131,0.02539 0.035697,0 0.070919,-0.0082 0.1035156,-0.02539 2.5631215,-1.320493 4.1611045,-3.928844 5.0488285,-5.882812 1.094329,-2.4087922 1.720703,-5.147767 1.720703,-7.5195318 0,-0.010175 -0.0084,-0.017454 -0.0098,-0.027344 a 7.9994092,7.9994092 0 0 1 -0.814419,0.05664 7.9994092,7.9994092 0 0 1 -5.9101561,-2.56640626 l -0.0625,-0.02148437 c -0.048796,-0.01719874 -0.1035276,-0.01719874 -0.1523439,0 z m 0.00977,0.99804693 c 0.042712,-0.015049 0.090113,-0.015049 0.1328124,0 l 0.054688,0.017578 a 6.9994822,6.9994822 0 0 0 5.1718756,2.2460937 6.9994822,6.9994822 0 0 0 0.710937,-0.048828 c 0.0013,0.00865 0.0098,0.014537 0.0098,0.023437 0,2.0752939 -0.548322,4.472386 -1.50586,6.5800781 -0.776795,1.7097228 -2.175276,3.9930078 -4.4180072,5.1484388 -0.02852,0.01502 -0.058604,0.02148 -0.089844,0.02148 -0.03124,0 -0.061314,-0.0068 -0.089844,-0.02148 C 5.6673821,13.822699 4.2708545,11.539414 3.4941405,9.8296917 2.5365585,7.7219996 1.986328,5.3249075 1.986328,3.2496136 c 0,-0.00758 0.00698,-0.014064 0.00781,-0.021484 a 6.9994822,6.9994822 0 0 0 0.7988307,0.046875 6.9994822,6.9994822 0 0 0 5.0800781,-2.2441406 z"
     id="path2-6"
     inkscape:connector-curvature="0" />
  <path
     style="fill:#808080;stroke-width:0.03969727;fill-opacity:1;opacity:0.5"
     d="M 7.9335938 1.0117188 L 7.8730469 1.03125 A 6.9994822 6.9994822 0 0 1 2.7929688 3.2753906 A 6.9994822 6.9994822 0 0 1 1.9941406 3.2285156 C 1.9933117 3.2359356 1.9863281 3.242421 1.9863281 3.25 C 1.9863281 5.3252939 2.5365586 7.7223861 3.4941406 9.8300781 C 4.2708545 11.539801 5.6673822 13.823085 7.9101562 14.978516 C 7.9386862 14.993216 7.96876 15 8 15 C 8.03124 15 8.0613237 14.993536 8.0898438 14.978516 C 10.332575 13.823085 11.731056 11.539801 12.507812 9.8300781 C 13.46535 7.7223861 14.013672 5.3252939 14.013672 3.25 C 14.013672 3.2411 14.005206 3.2352165 14.003906 3.2265625 A 6.9994822 6.9994822 0 0 1 13.292969 3.2753906 A 6.9994822 6.9994822 0 0 1 8.1210938 1.0292969 L 8.0664062 1.0117188 C 8.0237063 0.99666975 7.9763058 0.99666975 7.9335938 1.0117188 z M 7.2773438 3 L 8.7226562 3 L 8.7226562 3.6523438 C 8.7226562 5.9313035 8.6013316 8.0023503 8.3554688 9.8652344 L 7.6445312 9.8652344 C 7.3986684 8.0023503 7.2773438 5.9313035 7.2773438 3.6523438 L 7.2773438 3 z M 8 11.255859 C 8.2553191 11.255859 8.4642435 11.339553 8.625 11.509766 C 8.7952128 11.679978 8.8789062 11.888903 8.8789062 12.134766 C 8.8789062 12.380629 8.7952128 12.589553 8.625 12.759766 C 8.4642435 12.920522 8.2553191 13 8 13 C 7.7446809 13 7.5315409 12.920522 7.3613281 12.759766 C 7.2005716 12.589553 7.1210937 12.380629 7.1210938 12.134766 C 7.1210938 11.888903 7.2005716 11.679978 7.3613281 11.509766 C 7.5315409 11.339553 7.7446809 11.255859 8 11.255859 z "
     id="path2-6-3-5" />
</svg>
