<?xml version="1.0" encoding="UTF-8" standalone="no"?>
<svg
   xmlns:dc="http://purl.org/dc/elements/1.1/"
   xmlns:cc="http://creativecommons.org/ns#"
   xmlns:rdf="http://www.w3.org/1999/02/22-rdf-syntax-ns#"
   xmlns:svg="http://www.w3.org/2000/svg"
   xmlns="http://www.w3.org/2000/svg"
   xmlns:sodipodi="http://sodipodi.sourceforge.net/DTD/sodipodi-0.dtd"
   xmlns:inkscape="http://www.inkscape.org/namespaces/inkscape"
   height="16"
   width="16"
   version="1.1"
   id="svg8"
   sodipodi:docname="view-wrapped-symbolic.svg"
   inkscape:version="0.92.3 (2405546, 2018-03-11)">
  <metadata
     id="metadata14">
    <rdf:RDF>
      <cc:Work
         rdf:about="">
        <dc:format>image/svg+xml</dc:format>
        <dc:type
           rdf:resource="http://purl.org/dc/dcmitype/StillImage" />
      </cc:Work>
    </rdf:RDF>
  </metadata>
  <defs
     id="defs12" />
  <sodipodi:namedview
     pagecolor="#ffffff"
     bordercolor="#666666"
     borderopacity="1"
     objecttolerance="10"
     gridtolerance="10"
     guidetolerance="10"
     inkscape:pageopacity="0"
     inkscape:pageshadow="2"
     inkscape:window-width="1788"
     inkscape:window-height="1019"
     id="namedview10"
     showgrid="false"
     inkscape:zoom="29.5"
     inkscape:cx="2.6241471"
     inkscape:cy="4.2500317"
     inkscape:window-x="0"
     inkscape:window-y="27"
     inkscape:window-maximized="0"
     inkscape:current-layer="svg8" />
  <path
     style="opacity:1;fill:#808080;fill-opacity:1;stroke:none;stroke-width:0.56791806;stroke-linecap:butt;stroke-linejoin:bevel;stroke-miterlimit:4;stroke-dasharray:none;stroke-opacity:1;paint-order:fill markers stroke"
     d="M 2.6996631,8.4629224 3.4579209,9.2211795 5.3535631,7.3255373 7.2492065,9.2211795 8.0074642,8.4629224 6.1118209,6.5672783 5.3535631,5.8090224 4.5953072,6.5672783 Z"
     id="rect816-3-7-5-6"
     inkscape:connector-curvature="0" />
  <path
     inkscape:connector-curvature="0"
     style="opacity:1;fill:#808080;fill-opacity:1;stroke:none;stroke-width:1.01409066;stroke-linecap:butt;stroke-linejoin:bevel;stroke-miterlimit:4;stroke-dasharray:none;stroke-opacity:1;paint-order:fill markers stroke"
     d="M 11.182607,14.927658 H 6.3035769 c -0.2290028,0 -0.4142576,-0.184011 -0.4142576,-0.413013 V 6.4496903 C 5.2920586,6.4729181 4.8169782,6.9586889 4.8169782,7.5618406 V 14.884118 C 4.8169782,15.502189 5.314789,16 5.9328603,16 h 4.1388407 c 0.603152,0 1.087679,-0.47508 1.110906,-1.072342 z"
     id="rect849-3-7" />
  <path
     style="opacity:1;fill:#808080;fill-opacity:1;stroke:none;stroke-width:1.01409066;stroke-linecap:butt;stroke-linejoin:bevel;stroke-miterlimit:4;stroke-dasharray:none;stroke-opacity:1;paint-order:fill markers stroke"
     d="M 10.109375 11.169922 L 10.109375 14.513672 C 10.109375 14.742674 9.9243152 14.927734 9.6953125 14.927734 L 4.8164062 14.927734 C 4.8396333 15.524996 5.3245829 16 5.9277344 16 L 10.066406 16 C 10.684477 16 11.181641 15.502837 11.181641 14.884766 L 11.181641 11.171875 L 10.646484 11.707031 L 10.109375 11.169922 z "
     id="rect849-3-3-5" />
  <path
     style="opacity:1;fill:#808080;fill-opacity:1;stroke:none;stroke-width:0.56791806;stroke-linecap:butt;stroke-linejoin:bevel;stroke-miterlimit:4;stroke-dasharray:none;stroke-opacity:1;paint-order:fill markers stroke"
     d="M 13.300337,7.5370776 12.542079,6.7788204 10.646437,8.6744626 8.7507936,6.7788204 7.9925359,7.5370776 9.8881792,9.4327217 10.646437,10.190978 11.404693,9.4327217 Z"
     id="rect816-3-7-5"
     inkscape:connector-curvature="0" />
  <path
     inkscape:connector-curvature="0"
     style="opacity:1;fill:#808080;fill-opacity:1;stroke:none;stroke-width:1.01409066;stroke-linecap:butt;stroke-linejoin:bevel;stroke-miterlimit:4;stroke-dasharray:none;stroke-opacity:1;paint-order:fill markers stroke"
     d="m 4.8173934,1.0723417 h 4.8790298 c 0.2290028,0 0.4142578,0.1840109 0.4142578,0.413013 v 8.0649549 c 0.59726,-0.023228 1.072341,-0.5089985 1.072341,-1.1121503 V 1.1158821 C 11.183022,0.49781074 10.685211,-4.6470545e-8 10.06714,-4.6470545e-8 H 5.9282991 C 5.3251474,-4.6470545e-8 4.8406205,0.4750804 4.8173934,1.0723417 Z"
     id="rect849-3" />
  <path
     style="opacity:1;fill:#808080;fill-opacity:1;stroke:none;stroke-width:1.01409066;stroke-linecap:butt;stroke-linejoin:bevel;stroke-miterlimit:4;stroke-dasharray:none;stroke-opacity:1;paint-order:fill markers stroke"
     d="M 5.9335938 0 C 5.3155224 0 4.8183594 0.49716308 4.8183594 1.1152344 L 4.8183594 4.828125 L 5.3535156 4.2929688 L 5.890625 4.8300781 L 5.890625 1.4863281 C 5.890625 1.2573261 6.0756848 1.0722656 6.3046875 1.0722656 L 11.183594 1.0722656 C 11.160367 0.47500427 10.675417 2.6372254e-17 10.072266 0 L 5.9335938 0 z "
     id="rect849-3-3" />
</svg>
