<?xml version="1.0" encoding="UTF-8" standalone="no"?>
<svg
   xmlns:dc="http://purl.org/dc/elements/1.1/"
   xmlns:cc="http://creativecommons.org/ns#"
   xmlns:rdf="http://www.w3.org/1999/02/22-rdf-syntax-ns#"
   xmlns:svg="http://www.w3.org/2000/svg"
   xmlns="http://www.w3.org/2000/svg"
   xmlns:xlink="http://www.w3.org/1999/xlink"
   xmlns:sodipodi="http://sodipodi.sourceforge.net/DTD/sodipodi-0.dtd"
   xmlns:inkscape="http://www.inkscape.org/namespaces/inkscape"
   height="16"
   width="16"
   version="1.1"
   id="svg10"
   sodipodi:docname="preferences-desktop-wallpaper-symbolic.svg"
   inkscape:version="0.92.3 (2405546, 2018-03-11)">
  <metadata
     id="metadata16">
    <rdf:RDF>
      <cc:Work
         rdf:about="">
        <dc:format>image/svg+xml</dc:format>
        <dc:type
           rdf:resource="http://purl.org/dc/dcmitype/StillImage" />
        <dc:title></dc:title>
      </cc:Work>
    </rdf:RDF>
  </metadata>
  <defs
     id="defs14">
    <radialGradient
       id="XMLID_2_"
       cx="1915.6217"
       cy="532.79242"
       r="1924.037"
       gradientUnits="userSpaceOnUse"
       gradientTransform="matrix(0.13279302,0,0,0.13279302,-126.96262,21.765584)">
      <stop
         offset="1.076729e-007"
         style="stop-color:#19B4F0"
         id="stop4" />
      <stop
         offset="1"
         style="stop-color:#08394C"
         id="stop6" />
    </radialGradient>
    <clipPath
       clipPathUnits="userSpaceOnUse"
       id="clipPath1301">
      <circle
         style="display:inline;fill:#17171d;fill-opacity:1;stroke:none;stroke-width:2.34786534;stroke-miterlimit:4;stroke-dasharray:none;stroke-opacity:1"
         id="circle1303"
         cx="128"
         cy="128.00002"
         r="106.23441" />
    </clipPath>
    <linearGradient
       id="XMLID_3_"
       gradientUnits="userSpaceOnUse"
       x1="1920"
       y1="669.63641"
       x2="1920"
       y2="1607.7794">
      <stop
         offset="0"
         style="stop-color:#1387B4"
         id="stop16" />
      <stop
         offset="1"
         style="stop-color:#0E6587"
         id="stop18" />
    </linearGradient>
    <clipPath
       clipPathUnits="userSpaceOnUse"
       id="clipPath1314">
      <circle
         style="display:inline;fill:#17171d;fill-opacity:1;stroke:none;stroke-width:17.68063736;stroke-miterlimit:4;stroke-dasharray:none;stroke-opacity:1"
         id="circle1316"
         cx="1920.0001"
         cy="800.00012"
         r="799.99994" />
    </clipPath>
    <linearGradient
       id="XMLID_4_"
       gradientUnits="userSpaceOnUse"
       x1="1920"
       y1="802.43518"
       x2="1920"
       y2="1613.2791">
      <stop
         offset="0"
         style="stop-color:#0E6587"
         id="stop22" />
      <stop
         offset="1"
         style="stop-color:#0B4C65"
         id="stop24" />
    </linearGradient>
    <clipPath
       clipPathUnits="userSpaceOnUse"
       id="clipPath1310">
      <circle
         style="display:inline;fill:#17171d;fill-opacity:1;stroke:none;stroke-width:17.68063736;stroke-miterlimit:4;stroke-dasharray:none;stroke-opacity:1"
         id="circle1312"
         cx="1920.0001"
         cy="800.00012"
         r="799.99994" />
    </clipPath>
    <linearGradient
       id="XMLID_11_"
       gradientUnits="userSpaceOnUse"
       x1="1920"
       y1="952.7735"
       x2="1920"
       y2="1605.2648">
      <stop
         offset="0"
         style="stop-color:#0B4C65"
         id="stop67" />
      <stop
         offset="1"
         style="stop-color:#08394C"
         id="stop69" />
    </linearGradient>
    <clipPath
       clipPathUnits="userSpaceOnUse"
       id="clipPath1306">
      <circle
         style="display:inline;fill:#17171d;fill-opacity:1;stroke:none;stroke-width:17.68063736;stroke-miterlimit:4;stroke-dasharray:none;stroke-opacity:1"
         id="circle1308"
         cx="1920.0001"
         cy="800.00012"
         r="799.99994" />
    </clipPath>
    <linearGradient
       y2="1605.4791"
       x2="1594.0013"
       y1="1322.4358"
       x1="1594.0013"
       gradientUnits="userSpaceOnUse"
       id="XMLID_12_">
      <stop
         id="stop73-3"
         style="stop-color:#062B39"
         offset="0" />
      <stop
         id="stop75-67"
         style="stop-color:#08394C"
         offset="1" />
    </linearGradient>
    <clipPath
       clipPathUnits="userSpaceOnUse"
       id="clipPath1318">
      <circle
         style="display:inline;fill:#17171d;fill-opacity:1;stroke:none;stroke-width:17.68063736;stroke-miterlimit:4;stroke-dasharray:none;stroke-opacity:1"
         id="circle1320"
         cx="1920.0001"
         cy="800.00012"
         r="799.99994" />
    </clipPath>
    <linearGradient
       y2="1605.4791"
       x2="2251.1755"
       y1="1322.4358"
       x1="2251.1755"
       gradientUnits="userSpaceOnUse"
       id="XMLID_13_">
      <stop
         id="stop79"
         style="stop-color:#062B39"
         offset="0" />
      <stop
         id="stop81"
         style="stop-color:#08394C"
         offset="1" />
    </linearGradient>
    <clipPath
       clipPathUnits="userSpaceOnUse"
       id="clipPath1322">
      <circle
         style="display:inline;fill:#17171d;fill-opacity:1;stroke:none;stroke-width:17.68063736;stroke-miterlimit:4;stroke-dasharray:none;stroke-opacity:1"
         id="circle1324"
         cx="1920.0001"
         cy="800.00012"
         r="799.99994" />
    </clipPath>
    <clipPath
       clipPathUnits="userSpaceOnUse"
       id="clipPath1359">
      <path
         style="display:inline;fill:#003059;fill-opacity:1;stroke:none;stroke-width:19.05458832;stroke-miterlimit:4;stroke-dasharray:none;stroke-opacity:1"
         d="m 1190.3784,-3.2501633 c -96.4173,0 -174.0401,77.6229053 -174.0401,174.0402433 v 1107.82412 150.5957 c 0,96.4173 77.6228,174.0403 174.0401,174.0403 h 1131.2541 327.9893 c 96.4173,0 174.0402,-77.623 174.0402,-174.0403 V 321.38572 170.79008 c 0,-96.417338 -77.6229,-174.0402433 -174.0402,-174.0402433 H 1518.3677 Z"
         id="path1361"
         inkscape:connector-curvature="0" />
    </clipPath>
    <clipPath
       clipPathUnits="userSpaceOnUse"
       id="clipPath1400">
      <path
         style="display:inline;fill:#003059;fill-opacity:1;stroke:none;stroke-width:19.05458832;stroke-miterlimit:4;stroke-dasharray:none;stroke-opacity:1"
         d="m 1190.3785,-3.250201 c -96.4174,0 -174.0402,77.622905 -174.0402,174.040251 v 1107.82415 150.5956 c 0,96.4173 77.6228,174.0404 174.0402,174.0404 h 1131.254 327.9893 c 96.4173,0 174.0402,-77.6231 174.0402,-174.0403 V 321.38569 170.79005 c 0,-96.417346 -77.6229,-174.040251 -174.0402,-174.040251 h -1131.254 z"
         id="path1402"
         inkscape:connector-curvature="0" />
    </clipPath>
    <clipPath
       clipPathUnits="userSpaceOnUse"
       id="clipPath1404">
      <path
         style="display:inline;fill:#003059;fill-opacity:1;stroke:none;stroke-width:19.05458832;stroke-miterlimit:4;stroke-dasharray:none;stroke-opacity:1"
         d="m 1190.3785,-3.250201 c -96.4174,0 -174.0402,77.622905 -174.0402,174.040251 v 1107.82415 150.5956 c 0,96.4173 77.6228,174.0404 174.0402,174.0404 h 1131.254 327.9893 c 96.4173,0 174.0402,-77.6231 174.0402,-174.0403 V 321.38569 170.79005 c 0,-96.417346 -77.6229,-174.040251 -174.0402,-174.040251 h -1131.254 z"
         id="path1406"
         inkscape:connector-curvature="0" />
    </clipPath>
    <radialGradient
       id="XMLID_2_-2"
       cx="1915.6217"
       cy="532.79242"
       r="1924.037"
       gradientUnits="userSpaceOnUse"
       gradientTransform="matrix(0.13279302,0,0,0.13279302,-126.96262,21.765584)">
      <stop
         offset="1.076729e-007"
         style="stop-color:#19B4F0"
         id="stop4-7" />
      <stop
         offset="1"
         style="stop-color:#08394C"
         id="stop6-0" />
    </radialGradient>
    <clipPath
       clipPathUnits="userSpaceOnUse"
       id="clipPath1396">
      <path
         style="display:inline;fill:#003059;fill-opacity:1;stroke:none;stroke-width:2.53031635;stroke-miterlimit:4;stroke-dasharray:none;stroke-opacity:1"
         d="m 31.111331,21.33398 c -12.80355,0 -23.11132,10.30778 -23.11132,23.11133 v 147.11131 19.99805 c 0,12.80355 10.30777,23.11135 23.11132,23.11135 h 150.222639 43.55469 c 12.80354,0 23.11133,-10.3078 23.11133,-23.11134 V 64.44336 44.44531 c 0,-12.80355 -10.30778,-23.11133 -23.11133,-23.11133 H 74.666021 Z"
         id="path1398"
         inkscape:connector-curvature="0" />
    </clipPath>
    <linearGradient
       y2="1605.4791"
       x2="2251.1755"
       y1="1322.4358"
       x1="2251.1755"
       gradientUnits="userSpaceOnUse"
       id="XMLID_13_-6">
      <stop
         id="stop79-0"
         style="stop-color:#062B39"
         offset="0" />
      <stop
         id="stop81-6"
         style="stop-color:#08394C"
         offset="1" />
    </linearGradient>
    <linearGradient
       y2="1605.4791"
       x2="1594.0013"
       y1="1322.4358"
       x1="1594.0013"
       gradientUnits="userSpaceOnUse"
       id="XMLID_12_-2">
      <stop
         id="stop73-3-6"
         style="stop-color:#062B39"
         offset="0" />
      <stop
         id="stop75-67-1"
         style="stop-color:#08394C"
         offset="1" />
    </linearGradient>
    <linearGradient
       id="XMLID_11_-8"
       gradientUnits="userSpaceOnUse"
       x1="1920"
       y1="952.7735"
       x2="1920"
       y2="1605.2648">
      <stop
         offset="0"
         style="stop-color:#0B4C65"
         id="stop67-7" />
      <stop
         offset="1"
         style="stop-color:#08394C"
         id="stop69-9" />
    </linearGradient>
    <clipPath
       clipPathUnits="userSpaceOnUse"
       id="clipPath1359-2">
      <path
         style="display:inline;fill:#003059;fill-opacity:1;stroke:none;stroke-width:19.05458832;stroke-miterlimit:4;stroke-dasharray:none;stroke-opacity:1"
         d="m 1190.3784,-3.2501633 c -96.4173,0 -174.0401,77.6229053 -174.0401,174.0402433 v 1107.82412 150.5957 c 0,96.4173 77.6228,174.0403 174.0401,174.0403 h 1131.2541 327.9893 c 96.4173,0 174.0402,-77.623 174.0402,-174.0403 V 321.38572 170.79008 c 0,-96.417338 -77.6229,-174.0402433 -174.0402,-174.0402433 H 1518.3677 Z"
         id="path1361-0"
         inkscape:connector-curvature="0" />
    </clipPath>
    <linearGradient
       id="XMLID_4_-2"
       gradientUnits="userSpaceOnUse"
       x1="1920"
       y1="802.43518"
       x2="1920"
       y2="1613.2791">
      <stop
         offset="0"
         style="stop-color:#0E6587"
         id="stop22-3" />
      <stop
         offset="1"
         style="stop-color:#0B4C65"
         id="stop24-7" />
    </linearGradient>
    <clipPath
       clipPathUnits="userSpaceOnUse"
       id="clipPath1400-5">
      <path
         style="display:inline;fill:#003059;fill-opacity:1;stroke:none;stroke-width:19.05458832;stroke-miterlimit:4;stroke-dasharray:none;stroke-opacity:1"
         d="m 1190.3785,-3.250201 c -96.4174,0 -174.0402,77.622905 -174.0402,174.040251 v 1107.82415 150.5956 c 0,96.4173 77.6228,174.0404 174.0402,174.0404 h 1131.254 327.9893 c 96.4173,0 174.0402,-77.6231 174.0402,-174.0403 V 321.38569 170.79005 c 0,-96.417346 -77.6229,-174.040251 -174.0402,-174.040251 h -1131.254 z"
         id="path1402-9"
         inkscape:connector-curvature="0" />
    </clipPath>
    <linearGradient
       id="XMLID_3_-2"
       gradientUnits="userSpaceOnUse"
       x1="1920"
       y1="669.63641"
       x2="1920"
       y2="1607.7794">
      <stop
         offset="0"
         style="stop-color:#1387B4"
         id="stop16-2" />
      <stop
         offset="1"
         style="stop-color:#0E6587"
         id="stop18-8" />
    </linearGradient>
    <clipPath
       clipPathUnits="userSpaceOnUse"
       id="clipPath1404-9">
      <path
         style="display:inline;fill:#003059;fill-opacity:1;stroke:none;stroke-width:19.05458832;stroke-miterlimit:4;stroke-dasharray:none;stroke-opacity:1"
         d="m 1190.3785,-3.250201 c -96.4174,0 -174.0402,77.622905 -174.0402,174.040251 v 1107.82415 150.5956 c 0,96.4173 77.6228,174.0404 174.0402,174.0404 h 1131.254 327.9893 c 96.4173,0 174.0402,-77.6231 174.0402,-174.0403 V 321.38569 170.79005 c 0,-96.417346 -77.6229,-174.040251 -174.0402,-174.040251 h -1131.254 z"
         id="path1406-7"
         inkscape:connector-curvature="0" />
    </clipPath>
    <radialGradient
       id="XMLID_2_-3"
       cx="1915.6217"
       cy="532.79242"
       r="1924.037"
       gradientUnits="userSpaceOnUse"
       gradientTransform="matrix(0.13279302,0,0,0.13279302,-126.96262,21.765584)">
      <stop
         offset="1.076729e-007"
         style="stop-color:#19B4F0"
         id="stop4-6" />
      <stop
         offset="1"
         style="stop-color:#08394C"
         id="stop6-1" />
    </radialGradient>
    <clipPath
       clipPathUnits="userSpaceOnUse"
       id="clipPath1396-2">
      <path
         style="display:inline;fill:#003059;fill-opacity:1;stroke:none;stroke-width:2.53031635;stroke-miterlimit:4;stroke-dasharray:none;stroke-opacity:1"
         d="m 31.111331,21.33398 c -12.80355,0 -23.11132,10.30778 -23.11132,23.11133 v 147.11131 19.99805 c 0,12.80355 10.30777,23.11135 23.11132,23.11135 h 150.222639 43.55469 c 12.80354,0 23.11133,-10.3078 23.11133,-23.11134 V 64.44336 44.44531 c 0,-12.80355 -10.30778,-23.11133 -23.11133,-23.11133 H 74.666021 Z"
         id="path1398-9"
         inkscape:connector-curvature="0" />
    </clipPath>
    <linearGradient
       inkscape:collect="always"
       xlink:href="#XMLID_11_-8"
       id="linearGradient1102"
       gradientUnits="userSpaceOnUse"
       x1="1920"
       y1="952.7735"
       x2="1920"
       y2="1605.2648" />
  </defs>
  <sodipodi:namedview
     pagecolor="#ffffff"
     bordercolor="#666666"
     borderopacity="1"
     objecttolerance="10"
     gridtolerance="10"
     guidetolerance="10"
     inkscape:pageopacity="0"
     inkscape:pageshadow="2"
     inkscape:window-width="1920"
     inkscape:window-height="1474"
     id="namedview12"
     showgrid="false"
     inkscape:zoom="8"
     inkscape:cx="-49.564062"
     inkscape:cy="-36.583158"
     inkscape:window-x="1920"
     inkscape:window-y="27"
     inkscape:window-maximized="0"
     inkscape:current-layer="svg10" />
  <polygon
     clip-path="url(#clipPath1359-2)"
     transform="matrix(0.0108586,0,0,0.0166781,-163.04606,112.1274)"
     points="1920,1600 3840,800 3840,1600 0,1600 0,800 "
     class="st14"
     id="polygon1059"
     style="display:inline;fill:#0b4c65;fill-opacity:1" />
  <g
     id="g1098"
     transform="translate(139.7288,-112.53238)">
    <rect
       clip-path="url(#clipPath1396-2)"
       height="212.46883"
       width="509.9252"
       class="st0"
       id="XMLID_699_-3"
       x="-126.96261"
       y="21.765587"
       style="display:inline;fill:url(#XMLID_2_-3);stroke-width:0.13279302"
       transform="matrix(0.06666667,0,0,0.07496647,-140.26213,110.94015)" />
    <path
       d="m -131.72614,121.16303 c 0.0115,-0.0209 0.023,-0.0209 0.0354,0 -0.0115,0 -0.023,0 -0.0354,0 z"
       class="st4"
       id="XMLID_690_-1"
       inkscape:connector-curvature="0"
       style="display:inline;fill:#cce9f8;stroke-width:0.00938779" />
    <polygon
       clip-path="url(#clipPath1404-9)"
       transform="matrix(0.00885287,0,0,0.00995502,-148.72631,112.57184)"
       points="0,1351.8 0,1600 3840,1600 3840,1351.8 3840,533.3 1920,1351.8 0,533.3 "
       class="st5"
       id="XMLID_689_-9"
       style="display:inline;fill:url(#XMLID_3_-2)" />
    <polygon
       clip-path="url(#clipPath1400-5)"
       transform="matrix(0.00885287,0,0,0.00995502,-148.72631,112.57184)"
       points="1920,1485.1 0,666.7 0,1485.1 0,1600 3840,1600 3840,1485.1 3840,666.7 "
       class="st6"
       id="XMLID_688_-4"
       style="display:inline;fill:url(#XMLID_4_-2)" />
    <polygon
       clip-path="url(#clipPath1359-2)"
       transform="matrix(0.00885287,0,0,0.00995502,-148.72631,112.57184)"
       points="1920,1600 3840,800 3840,1600 0,1600 0,800 "
       class="st14"
       id="XMLID_678_-7"
       style="display:inline;fill:url(#linearGradient1102)" />
    <polygon
       transform="matrix(0.00885287,0,0,0.00995502,-148.72631,112.57184)"
       id="XMLID_677_-8"
       class="st15"
       points="1485.8,1600 1265.3,1327.2 1582.6,1458.3 1689.8,1503 1768.9,1535.9 1922.7,1600 "
       style="display:inline;fill:url(#XMLID_12_-2)" />
    <polygon
       transform="matrix(0.00885287,0,0,0.00995502,-148.72631,112.57184)"
       id="XMLID_676_-4"
       class="st16"
       points="1922.7,1600 1923.3,1599.8 2077.3,1535.6 2157,1502.4 2263.7,1457.9 2579.7,1325.1 2359.3,1600 "
       style="display:inline;fill:url(#XMLID_13_-6)" />
    <path
       d="m -131.27821,121.5017 1.29659,0.44612 -0.99185,-1.03954 -0.23313,0.24427 z m -1.20593,-0.59342 -0.99184,1.03954 1.29657,-0.44612 -0.0716,-0.34915 z m 1.06001,-0.87764 -0.30462,-1.48579 -0.30475,1.48579 0.30475,0.10477 0.30462,-0.10477"
       style="display:inline;fill:#aaa8a8;fill-opacity:1;fill-rule:evenodd;stroke:none;stroke-width:0.00907628"
       id="path14-5"
       inkscape:connector-curvature="0" />
    <path
       d="m -132.48414,120.90828 -0.99184,1.03954 1.22498,-0.79527 z m 0.77149,-0.77836 -0.0161,-1.58507 -0.30475,1.48579 0.30475,0.10477 0.0161,-0.005"
       style="display:inline;fill:#656263;fill-opacity:1;fill-rule:evenodd;stroke:none;stroke-width:0.00907628"
       id="path16-0"
       inkscape:connector-curvature="0" />
    <path
       d="m -132.17941,121.5017 -1.29657,0.44612 1.22498,-0.79527 z m 0.98521,-0.36211 1.21258,0.80823 -1.29659,-0.44612 0.0716,-0.34915 0.0124,-0.013"
       style="display:inline;fill:#7f7d7e;fill-opacity:1;fill-rule:evenodd;stroke:none;stroke-width:0.00907628"
       id="path18-3"
       inkscape:connector-curvature="0" />
    <path
       d="m -131.72875,120.41086 -1.31954,-0.45403 1.00944,1.05798 0.3101,1.51205 0.30999,-1.51205 1.00943,-1.05798 -1.31942,0.45403"
       style="display:inline;fill:#1a86af;fill-opacity:1;fill-rule:evenodd;stroke:none;stroke-width:0.00907628"
       id="path20-6"
       inkscape:connector-curvature="0" />
    <path
       d="m -131.72875,120.79109 -1.31954,-0.83426 1.00944,1.05798 0.3101,1.51205 v -1.73577"
       style="display:inline;fill:#165f9a;fill-opacity:1;fill-rule:evenodd;stroke:none;stroke-width:0.00907628"
       id="path22-1"
       inkscape:connector-curvature="0" />
    <path
       d="m -131.72875,120.79109 1.31942,-0.83426 -1.00943,1.05798 -0.30999,1.51205 v -1.73577"
       style="display:inline;fill:#1573a1;fill-opacity:1;fill-rule:evenodd;stroke:none;stroke-width:0.00907628"
       id="path24-0"
       inkscape:connector-curvature="0" />
    <path
       inkscape:connector-curvature="0"
       id="rect1122-3-6"
       d="m -138.20315,112.53934 c -0.78386,0 -1.42559,0.65826 -1.51471,1.51192 h 15.97812 c -0.0891,-0.85366 -0.73085,-1.51192 -1.51471,-1.51192 z m -0.18229,15.98045 c 0.0598,0.008 0.12053,0.0126 0.18229,0.0126 h 12.9487 c 0.0618,0 0.12249,-0.005 0.18229,-0.0126 z"
       style="display:inline;fill:#000000;fill-opacity:0.69603529;stroke:none;stroke-width:0.04573272;stroke-linecap:butt;stroke-linejoin:bevel;stroke-miterlimit:4;stroke-dasharray:none;stroke-opacity:1;paint-order:fill markers stroke" />
    <rect
       y="112.53238"
       x="-139.72568"
       height="1.6319925"
       width="15.989046"
       id="rect1057"
       style="opacity:1;fill:#000000;fill-opacity:1;stroke:none;stroke-width:3.10902953;stroke-miterlimit:4;stroke-dasharray:none;stroke-opacity:1" />
    <rect
       y="126.87039"
       x="-139.72881"
       height="1.6294904"
       width="1.2365122"
       id="rect1069"
       style="opacity:1;fill:#093d52;fill-opacity:1;stroke:none;stroke-width:1.94076455;stroke-miterlimit:4;stroke-dasharray:none;stroke-opacity:1" />
    <rect
       style="opacity:1;fill:#093d52;fill-opacity:1;stroke:none;stroke-width:1.94076455;stroke-miterlimit:4;stroke-dasharray:none;stroke-opacity:1"
       id="rect1079"
       width="1.2365122"
       height="1.6294904"
       x="-124.96531"
       y="126.87039" />
  </g>
</svg>
