<?xml version="1.0" encoding="UTF-8" standalone="no"?>
<svg
   xmlns:dc="http://purl.org/dc/elements/1.1/"
   xmlns:cc="http://creativecommons.org/ns#"
   xmlns:rdf="http://www.w3.org/1999/02/22-rdf-syntax-ns#"
   xmlns:svg="http://www.w3.org/2000/svg"
   xmlns="http://www.w3.org/2000/svg"
   xmlns:sodipodi="http://sodipodi.sourceforge.net/DTD/sodipodi-0.dtd"
   xmlns:inkscape="http://www.inkscape.org/namespaces/inkscape"
   height="16"
   width="16"
   version="1.1"
   id="svg8"
   sodipodi:docname="preferences-system-time-symbolic.svg"
   inkscape:version="0.92.3 (2405546, 2018-03-11)">
  <metadata
     id="metadata14">
    <rdf:RDF>
      <cc:Work
         rdf:about="">
        <dc:format>image/svg+xml</dc:format>
        <dc:type
           rdf:resource="http://purl.org/dc/dcmitype/StillImage" />
      </cc:Work>
    </rdf:RDF>
  </metadata>
  <defs
     id="defs12" />
  <sodipodi:namedview
     pagecolor="#ffffff"
     bordercolor="#666666"
     borderopacity="1"
     objecttolerance="10"
     gridtolerance="10"
     guidetolerance="10"
     inkscape:pageopacity="0"
     inkscape:pageshadow="2"
     inkscape:window-width="1920"
     inkscape:window-height="1019"
     id="namedview10"
     showgrid="false"
     inkscape:zoom="41.7193"
     inkscape:cx="6.6782376"
     inkscape:cy="8.3525546"
     inkscape:window-x="0"
     inkscape:window-y="27"
     inkscape:window-maximized="1"
     inkscape:current-layer="svg8" />
  <path
     style="display:inline;fill:#808080;fill-opacity:1;stroke:none;stroke-width:0.17680639;stroke-miterlimit:4;stroke-dasharray:none;stroke-opacity:1"
     d="M 8 0 A 8 8 0 0 0 0 8 A 8 8 0 0 0 8 16 A 8 8 0 0 0 16 8 A 8 8 0 0 0 8 0 z M 12.400391 3.1425781 L 12.857422 3.5996094 L 8.6230469 7.8339844 A 0.64516127 0.64516127 0 0 1 8.6445312 8 A 0.64516127 0.64516127 0 0 1 8.1621094 8.6230469 L 8.1621094 13.162109 L 7.8378906 13.162109 L 7.8378906 8.6230469 A 0.64516127 0.64516127 0 0 1 7.3554688 8 A 0.64516127 0.64516127 0 0 1 7.3769531 7.8339844 L 4.96875 5.4238281 L 5.4238281 4.96875 L 7.8339844 7.3769531 A 0.64516127 0.64516127 0 0 1 7.8378906 7.3769531 L 7.8378906 6.7089844 L 8.1621094 6.7089844 L 8.1621094 7.375 A 0.64516127 0.64516127 0 0 1 8.1660156 7.3769531 L 12.400391 3.1425781 z "
     id="path1090" />
</svg>
