<?xml version="1.0" encoding="UTF-8" standalone="no"?>
<svg
   xmlns:dc="http://purl.org/dc/elements/1.1/"
   xmlns:cc="http://creativecommons.org/ns#"
   xmlns:rdf="http://www.w3.org/1999/02/22-rdf-syntax-ns#"
   xmlns:svg="http://www.w3.org/2000/svg"
   xmlns="http://www.w3.org/2000/svg"
   xmlns:sodipodi="http://sodipodi.sourceforge.net/DTD/sodipodi-0.dtd"
   xmlns:inkscape="http://www.inkscape.org/namespaces/inkscape"
   height="16.002"
   width="16.002"
   version="1.1"
   id="svg4"
   sodipodi:docname="dialog-warning-symbolic.svg"
   inkscape:version="0.92.3 (2405546, 2018-03-11)">
  <metadata
     id="metadata10">
    <rdf:RDF>
      <cc:Work
         rdf:about="">
        <dc:format>image/svg+xml</dc:format>
        <dc:type
           rdf:resource="http://purl.org/dc/dcmitype/StillImage" />
        <dc:title />
      </cc:Work>
    </rdf:RDF>
  </metadata>
  <defs
     id="defs8" />
  <sodipodi:namedview
     pagecolor="#ffffff"
     bordercolor="#666666"
     borderopacity="1"
     objecttolerance="10"
     gridtolerance="10"
     guidetolerance="10"
     inkscape:pageopacity="0"
     inkscape:pageshadow="2"
     inkscape:window-width="1920"
     inkscape:window-height="1539"
     id="namedview6"
     showgrid="false"
     inkscape:zoom="31.999999"
     inkscape:cx="12.978817"
     inkscape:cy="1.4263631"
     inkscape:window-x="1920"
     inkscape:window-y="27"
     inkscape:window-maximized="0"
     inkscape:current-layer="svg4" />
  <path
     style="opacity:1;fill:#808080;fill-opacity:1;stroke:none;stroke-width:1.15470052;stroke-linecap:butt;stroke-linejoin:bevel;stroke-miterlimit:4;stroke-dasharray:none;stroke-opacity:1;paint-order:fill markers stroke"
     d="M 8.0019531 1.0722656 L 4.0019531 8.0019531 L 0.001953125 14.929688 L 8.0019531 14.929688 L 16.001953 14.929688 L 12.001953 8.0019531 L 8.0019531 1.0722656 z M 7.3203125 4.4257812 L 8.6816406 4.4257812 L 8.6816406 5.0390625 C 8.6816406 7.1812847 8.5650955 9.1277952 8.3339844 10.878906 L 7.6679688 10.878906 C 7.4368576 9.1277952 7.3203125 7.1812847 7.3203125 5.0390625 L 7.3203125 4.4257812 z M 8.0019531 12.185547 C 8.2419531 12.185547 8.4367795 12.265781 8.5878906 12.425781 C 8.7478906 12.585781 8.828125 12.780608 8.828125 13.011719 C 8.828125 13.24283 8.7478906 13.439609 8.5878906 13.599609 C 8.4367795 13.75072 8.2419531 13.826172 8.0019531 13.826172 C 7.7619531 13.826172 7.5603906 13.75072 7.4003906 13.599609 C 7.2492795 13.439609 7.1738281 13.24283 7.1738281 13.011719 C 7.1738281 12.780608 7.2492795 12.585781 7.4003906 12.425781 C 7.5603906 12.265781 7.7619531 12.185547 8.0019531 12.185547 z "
     id="path818-3-3" />
</svg>
