<?xml version="1.0" encoding="UTF-8" standalone="no"?>
<svg
   xmlns:dc="http://purl.org/dc/elements/1.1/"
   xmlns:cc="http://creativecommons.org/ns#"
   xmlns:rdf="http://www.w3.org/1999/02/22-rdf-syntax-ns#"
   xmlns:svg="http://www.w3.org/2000/svg"
   xmlns="http://www.w3.org/2000/svg"
   xmlns:sodipodi="http://sodipodi.sourceforge.net/DTD/sodipodi-0.dtd"
   xmlns:inkscape="http://www.inkscape.org/namespaces/inkscape"
   height="16"
   width="16"
   version="1.1"
   id="svg4"
   sodipodi:docname="mail-attachment-symbolic.svg"
   inkscape:version="0.92.3 (2405546, 2018-03-11)">
  <metadata
     id="metadata10">
    <rdf:RDF>
      <cc:Work
         rdf:about="">
        <dc:format>image/svg+xml</dc:format>
        <dc:type
           rdf:resource="http://purl.org/dc/dcmitype/StillImage" />
      </cc:Work>
    </rdf:RDF>
  </metadata>
  <defs
     id="defs8" />
  <sodipodi:namedview
     pagecolor="#ffffff"
     bordercolor="#666666"
     borderopacity="1"
     objecttolerance="10"
     gridtolerance="10"
     guidetolerance="10"
     inkscape:pageopacity="0"
     inkscape:pageshadow="2"
     inkscape:window-width="1920"
     inkscape:window-height="1539"
     id="namedview6"
     showgrid="false"
     inkscape:zoom="14.75"
     inkscape:cx="8.4067797"
     inkscape:cy="8"
     inkscape:window-x="0"
     inkscape:window-y="27"
     inkscape:window-maximized="0"
     inkscape:current-layer="svg4" />
  <path
     style="color:#000000;font-style:normal;font-variant:normal;font-weight:normal;font-stretch:normal;font-size:medium;line-height:normal;font-family:sans-serif;font-variant-ligatures:normal;font-variant-position:normal;font-variant-caps:normal;font-variant-numeric:normal;font-variant-alternates:normal;font-feature-settings:normal;text-indent:0;text-align:start;text-decoration:none;text-decoration-line:none;text-decoration-style:solid;text-decoration-color:#000000;letter-spacing:normal;word-spacing:normal;text-transform:none;writing-mode:lr-tb;direction:ltr;text-orientation:mixed;dominant-baseline:auto;baseline-shift:baseline;text-anchor:start;white-space:normal;shape-padding:0;clip-rule:nonzero;display:inline;overflow:visible;visibility:visible;opacity:1;isolation:auto;mix-blend-mode:normal;color-interpolation:sRGB;color-interpolation-filters:linearRGB;solid-color:#000000;solid-opacity:1;vector-effect:none;fill:#808080;fill-opacity:1;fill-rule:nonzero;stroke:none;stroke-width:1.38834;stroke-linecap:butt;stroke-linejoin:bevel;stroke-miterlimit:4;stroke-dasharray:none;stroke-dashoffset:0;stroke-opacity:1;paint-order:fill markers stroke;color-rendering:auto;image-rendering:auto;shape-rendering:auto;text-rendering:auto;enable-background:accumulate"
     d="m 10.368584,3.0337018 c 0,-1.114148 -0.9195529,-2.033702 -2.0337013,-2.033702 H 7.6651171 c -1.1141483,0 -2.0337012,0.919554 -2.0337012,2.033702 v 2.703467 h 1.38834 v -2.703467 c 0,-0.369022 0.2763389,-0.645361 0.6453612,-0.645361 h 0.6697656 c 0.3690224,0 0.6453612,0.276339 0.6453612,0.645361 v 4.834786 c 0,0.3690224 -0.2763388,0.6453612 -0.6453612,0.6453612 H 7.713926 v 1.3883401 h 0.6209567 c 1.1141484,0 2.0337013,-0.9195529 2.0337013,-2.0337013 z m 0,7.2318422 H 8.9802439 v 2.700755 c 0,0.369022 -0.2763388,0.645361 -0.6453612,0.645361 H 7.6651171 c -0.3690223,0 -0.6453612,-0.276339 -0.6453612,-0.645361 V 8.1315133 c 0,-0.3690227 0.2763389,-0.6426497 0.6453612,-0.6426497 H 8.2860738 V 6.1005238 H 7.6651171 c -1.1141483,0 -2.0337012,0.9168411 -2.0337012,2.0309895 V 12.966299 C 5.6314159,14.080447 6.5509688,15 7.6651171,15 h 0.6697656 c 1.1141484,0 2.0337013,-0.919553 2.0337013,-2.033701 z"
     id="rect819-7"
     inkscape:connector-curvature="0" />
</svg>
