<?xml version="1.0" encoding="UTF-8" standalone="no"?>
<svg
   xmlns:dc="http://purl.org/dc/elements/1.1/"
   xmlns:cc="http://creativecommons.org/ns#"
   xmlns:rdf="http://www.w3.org/1999/02/22-rdf-syntax-ns#"
   xmlns:svg="http://www.w3.org/2000/svg"
   xmlns="http://www.w3.org/2000/svg"
   xmlns:sodipodi="http://sodipodi.sourceforge.net/DTD/sodipodi-0.dtd"
   xmlns:inkscape="http://www.inkscape.org/namespaces/inkscape"
   height="16"
   width="16"
   version="1.1"
   id="svg10"
   sodipodi:docname="network-wireless-hotspot-symbolic.svg"
   inkscape:version="0.92.3 (2405546, 2018-03-11)">
  <metadata
     id="metadata16">
    <rdf:RDF>
      <cc:Work
         rdf:about="">
        <dc:format>image/svg+xml</dc:format>
        <dc:type
           rdf:resource="http://purl.org/dc/dcmitype/StillImage" />
        <dc:title />
      </cc:Work>
    </rdf:RDF>
  </metadata>
  <defs
     id="defs14" />
  <sodipodi:namedview
     pagecolor="#ffffff"
     bordercolor="#666666"
     borderopacity="1"
     objecttolerance="10"
     gridtolerance="10"
     guidetolerance="10"
     inkscape:pageopacity="0"
     inkscape:pageshadow="2"
     inkscape:window-width="1920"
     inkscape:window-height="1019"
     id="namedview12"
     showgrid="false"
     inkscape:zoom="4"
     inkscape:cx="-15.869821"
     inkscape:cy="24.905822"
     inkscape:window-x="0"
     inkscape:window-y="27"
     inkscape:window-maximized="1"
     inkscape:current-layer="svg10" />
  <g
     id="g839"
     transform="matrix(0.79069582,0,0,0.8031267,-17.168251,-12.91256)">
    <circle
       r="2.1694915"
       cy="27.254238"
       cx="31.830509"
       id="path833"
       style="opacity:1;fill:#808080;fill-opacity:1;stroke:#ffffff;stroke-width:0.2;stroke-miterlimit:4;stroke-dasharray:none;stroke-opacity:0" />
    <rect
       y="28.677965"
       x="31.254238"
       height="7.3220339"
       width="1.1525424"
       id="rect835"
       style="opacity:1;fill:#808080;fill-opacity:1;stroke:none;stroke-width:0.2;stroke-miterlimit:4;stroke-dasharray:none;stroke-opacity:1" />
  </g>
  <path
     inkscape:connector-curvature="0"
     style="opacity:0.4;fill:#808080;fill-opacity:1;fill-rule:nonzero;stroke:none;stroke-width:5.54306364;stroke-linecap:butt;stroke-linejoin:bevel;stroke-miterlimit:4;stroke-dasharray:none;stroke-opacity:1;paint-order:fill markers stroke"
     d="m 13.656854,3.5147186 a 8,8 0 0 0 -11.3137082,0 8,8 0 0 0 0,11.3137084 L 8,9.1715729 13.656854,14.828427 a 8,8 0 0 0 0,-11.3137084 z"
     id="path1082" />
  <path
     inkscape:connector-curvature="0"
     style="opacity:0.4;fill:#808080;fill-opacity:1;fill-rule:nonzero;stroke:none;stroke-width:4.50373936;stroke-linecap:butt;stroke-linejoin:bevel;stroke-miterlimit:4;stroke-dasharray:none;stroke-opacity:1;paint-order:fill markers stroke"
     d="m 12.596194,4.5753788 a 6.5,6.5 0 0 0 -9.192388,0 6.5,6.5 0 0 0 0,9.1923882 L 8,9.1715729 12.596194,13.767767 a 6.5,6.5 0 0 0 0,-9.1923882 z"
     id="path1082-3" />
  <path
     inkscape:connector-curvature="0"
     style="opacity:0.4;fill:#808080;fill-opacity:1;fill-rule:nonzero;stroke:none;stroke-width:3.46441483;stroke-linecap:butt;stroke-linejoin:bevel;stroke-miterlimit:4;stroke-dasharray:none;stroke-opacity:1;paint-order:fill markers stroke"
     d="m 11.535534,5.636039 a 5,5 0 0 0 -7.0710679,0 5,5 0 0 0 0,7.071068 L 8,9.1715729 11.535534,12.707107 a 5,5 0 0 0 0,-7.071068 z"
     id="path1082-3-6" />
  <path
     inkscape:connector-curvature="0"
     style="opacity:0.4;fill:#808080;fill-opacity:1;fill-rule:nonzero;stroke:none;stroke-width:2.42509031;stroke-linecap:butt;stroke-linejoin:bevel;stroke-miterlimit:4;stroke-dasharray:none;stroke-opacity:1;paint-order:fill markers stroke"
     d="m 10.474874,6.6966992 a 3.5,3.5 0 0 0 -4.9497477,0 3.5,3.5 0 0 0 0,4.9497478 L 8,9.1715729 10.474874,11.646447 a 3.5,3.5 0 0 0 0,-4.9497478 z"
     id="path1082-3-6-1" />
</svg>
