<?xml version="1.0" encoding="UTF-8" standalone="no"?>
<svg
   xmlns:dc="http://purl.org/dc/elements/1.1/"
   xmlns:cc="http://creativecommons.org/ns#"
   xmlns:rdf="http://www.w3.org/1999/02/22-rdf-syntax-ns#"
   xmlns:svg="http://www.w3.org/2000/svg"
   xmlns="http://www.w3.org/2000/svg"
   xmlns:sodipodi="http://sodipodi.sourceforge.net/DTD/sodipodi-0.dtd"
   xmlns:inkscape="http://www.inkscape.org/namespaces/inkscape"
   height="16"
   width="16.003"
   version="1.1"
   id="svg6"
   sodipodi:docname="network-error-symbolic.svg"
   inkscape:version="0.92.3 (2405546, 2018-03-11)">
  <metadata
     id="metadata12">
    <rdf:RDF>
      <cc:Work
         rdf:about="">
        <dc:format>image/svg+xml</dc:format>
        <dc:type
           rdf:resource="http://purl.org/dc/dcmitype/StillImage" />
        <dc:title></dc:title>
      </cc:Work>
    </rdf:RDF>
  </metadata>
  <defs
     id="defs10" />
  <sodipodi:namedview
     pagecolor="#ffffff"
     bordercolor="#666666"
     borderopacity="1"
     objecttolerance="10"
     gridtolerance="10"
     guidetolerance="10"
     inkscape:pageopacity="0"
     inkscape:pageshadow="2"
     inkscape:window-width="1920"
     inkscape:window-height="1474"
     id="namedview8"
     showgrid="false"
     inkscape:zoom="29.5"
     inkscape:cx="9.3670055"
     inkscape:cy="6.388237"
     inkscape:window-x="1920"
     inkscape:window-y="27"
     inkscape:window-maximized="0"
     inkscape:current-layer="svg6" />
  <path
     style="opacity:1;fill:#808080;fill-opacity:1;stroke:none;stroke-width:0.61498493;stroke-opacity:0.94117647"
     d="m 3.6288003,7.49418 c -0.3382816,0 -0.6103508,0.27207 -0.6103508,0.610351 v 2.454428 H 3.8517828 V 8.856485 c 0,-0.293178 0.2357934,-0.528971 0.5289709,-0.528972 h 7.2753913 c 0.293177,0 0.528971,0.235794 0.528971,0.528972 v 1.702474 H 13.01845 V 8.104531 c 0,-0.338281 -0.27207,-0.610351 -0.610352,-0.610351 z"
     id="rect881"
     inkscape:connector-curvature="0" />
  <rect
     ry="0.7584067"
     y="9.9576283"
     x="0.94217777"
     height="4"
     width="5"
     id="rect835"
     style="opacity:1;fill:#808080;fill-opacity:1;stroke:none;stroke-width:0.61672848;stroke-opacity:0.94117647" />
  <rect
     style="opacity:1;fill:#808080;fill-opacity:1;stroke:none;stroke-width:0.12703721;stroke-opacity:0.94117647"
     id="rect839"
     width="1"
     height="2"
     x="7.5184493"
     y="5.5677972"
     ry="0" />
  <rect
     style="opacity:1;fill:#808080;fill-opacity:1;stroke:none;stroke-width:0.61672848;stroke-opacity:0.94117647"
     id="rect843"
     width="5"
     height="4"
     x="5.5184493"
     y="2.0423713"
     ry="0.7584067" />
  <path
     style="opacity:1;fill:#808080;fill-opacity:1;stroke:none;stroke-width:0.19361369;stroke-linecap:butt;stroke-linejoin:bevel;stroke-miterlimit:10.00000095;stroke-dasharray:none;stroke-opacity:1;paint-order:fill markers stroke"
     d="m 12.61167,10.533535 a 2.4745763,2.5084746 0 0 0 -2.474576,2.508474 2.4745763,2.5084746 0 0 0 2.474576,2.508475 2.4745763,2.5084746 0 0 0 2.474576,-2.508475 2.4745763,2.5084746 0 0 0 -2.474576,-2.508474 z m 0,0.313559 a 2.1652542,2.1949153 0 0 1 2.165254,2.194915 2.1652542,2.1949153 0 0 1 -2.165254,2.194916 2.1652542,2.1949153 0 0 1 -2.165254,-2.194916 2.1652542,2.1949153 0 0 1 2.165254,-2.194915 z"
     id="path823"
     inkscape:connector-curvature="0" />
  <text
     xml:space="preserve"
     style="font-style:normal;font-variant:normal;font-weight:normal;font-stretch:normal;font-size:4.41749573px;line-height:1.25;font-family:'Star Labs';-inkscape-font-specification:'Star Labs';letter-spacing:0px;word-spacing:0px;fill:#808080;fill-opacity:1;stroke:none;stroke-width:0.1104374"
     x="12.066056"
     y="14.462161"
     id="text843"
     transform="scale(0.99322027,1.006826)"><tspan
       sodipodi:role="line"
       id="tspan841"
       x="12.066056"
       y="14.462161"
       style="fill:#808080;fill-opacity:1;stroke-width:0.1104374">!</tspan></text>
</svg>
