<?xml version="1.0" encoding="UTF-8" standalone="no"?>
<svg
   xmlns:dc="http://purl.org/dc/elements/1.1/"
   xmlns:cc="http://creativecommons.org/ns#"
   xmlns:rdf="http://www.w3.org/1999/02/22-rdf-syntax-ns#"
   xmlns:svg="http://www.w3.org/2000/svg"
   xmlns="http://www.w3.org/2000/svg"
   xmlns:sodipodi="http://sodipodi.sourceforge.net/DTD/sodipodi-0.dtd"
   xmlns:inkscape="http://www.inkscape.org/namespaces/inkscape"
   height="16"
   width="16"
   version="1.1"
   id="svg4"
   sodipodi:docname="network-cellular-signal-none-secure-symbolic.svg"
   inkscape:version="0.92.3 (2405546, 2018-03-11)">
  <metadata
     id="metadata10">
    <rdf:RDF>
      <cc:Work
         rdf:about="">
        <dc:format>image/svg+xml</dc:format>
        <dc:type
           rdf:resource="http://purl.org/dc/dcmitype/StillImage" />
      </cc:Work>
    </rdf:RDF>
  </metadata>
  <defs
     id="defs8" />
  <sodipodi:namedview
     pagecolor="#ffffff"
     bordercolor="#666666"
     borderopacity="1"
     objecttolerance="10"
     gridtolerance="10"
     guidetolerance="10"
     inkscape:pageopacity="0"
     inkscape:pageshadow="2"
     inkscape:window-width="1920"
     inkscape:window-height="1539"
     id="namedview6"
     showgrid="false"
     inkscape:zoom="14.75"
     inkscape:cx="-25.402921"
     inkscape:cy="15.925089"
     inkscape:window-x="1920"
     inkscape:window-y="27"
     inkscape:window-maximized="0"
     inkscape:current-layer="svg4" />
  <path
     style="opacity:0.5;fill:#808080;fill-opacity:1;stroke:none;stroke-width:1.09383595;stroke-linecap:butt;stroke-linejoin:bevel;stroke-miterlimit:4;stroke-dasharray:none;stroke-opacity:1;paint-order:fill markers stroke"
     d="M 12.800781 0 L 12.800781 3.1992188 L 9.5996094 3.1992188 L 9.5996094 6.4003906 L 6.4003906 6.4003906 L 6.4003906 9.5996094 L 3.1992188 9.5996094 L 3.1992188 16 L 6.4003906 16 L 9.5996094 16 L 12.800781 16 L 16 16 L 16 0 L 12.800781 0 z "
     id="rect817" />
  <rect
     style="opacity:1;fill:#808080;fill-opacity:1;stroke:none;stroke-width:0.63152647;stroke-linecap:butt;stroke-linejoin:bevel;stroke-miterlimit:4;stroke-dasharray:none;stroke-opacity:1;paint-order:fill markers stroke"
     id="rect817-7"
     width="3.2"
     height="3.2"
     x="-2.3841858e-07"
     y="12.8" />
  <g
     transform="matrix(0.4375,0,0,0.4375,-1.1381836,0)"
     id="g820">
    <path
       inkscape:connector-curvature="0"
       id="path1177"
       d="M 8,0 A 4.25,4.25 0 0 0 3.75,4.25 v 8.5 H 5.5 v -8.6 a 2.5,2.5 0 0 1 2.5,-2.5 2.5,2.5 0 0 1 2.5,2.5 v 8.6 h 1.75 V 4.25 A 4.25,4.25 0 0 0 8,0 Z"
       style="opacity:0.9;fill:#808080;fill-opacity:1;fill-rule:nonzero;stroke:none;stroke-width:0.08975382;stroke-linecap:butt;stroke-linejoin:bevel;stroke-miterlimit:4;stroke-dasharray:none;stroke-opacity:1;paint-order:fill markers stroke" />
    <path
       inkscape:connector-curvature="0"
       id="path1177-5"
       d="M 8,0.775 A 3.375,3.375 0 0 0 4.625,4.15 v 8.6 H 5.5 v -8.6 a 2.5,2.5 0 0 1 2.5,-2.5 2.5,2.5 0 0 1 2.5,2.5 v 8.6 h 0.875 V 4.15 A 3.375,3.375 0 0 0 8,0.775 Z"
       style="display:inline;opacity:0.9;fill:#808080;fill-opacity:1;fill-rule:nonzero;stroke:none;stroke-width:0.0712751;stroke-linecap:butt;stroke-linejoin:bevel;stroke-miterlimit:4;stroke-dasharray:none;stroke-opacity:1;paint-order:fill markers stroke" />
    <path
       id="rect1106-3"
       d="M 2.6015625,6.7128906 V 16 H 13.398438 V 6.7128906 Z M 8,9.0292969 a 1.25,1.25 0 0 1 1.25,1.2500001 1.25,1.25 0 0 1 -0.3867188,0.902344 v 2.097656 H 7.1367188 V 11.179688 A 1.25,1.25 0 0 1 6.75,10.279297 1.25,1.25 0 0 1 8,9.0292969 Z"
       style="display:inline;opacity:1;fill:#808080;fill-opacity:1;fill-rule:nonzero;stroke:none;stroke-width:0.46368098;stroke-linecap:butt;stroke-linejoin:bevel;stroke-miterlimit:4;stroke-dasharray:none;stroke-opacity:1;paint-order:fill markers stroke"
       inkscape:connector-curvature="0" />
  </g>
</svg>
