<?xml version="1.0" encoding="UTF-8" standalone="no"?>
<svg
   xmlns:dc="http://purl.org/dc/elements/1.1/"
   xmlns:cc="http://creativecommons.org/ns#"
   xmlns:rdf="http://www.w3.org/1999/02/22-rdf-syntax-ns#"
   xmlns:svg="http://www.w3.org/2000/svg"
   xmlns="http://www.w3.org/2000/svg"
   xmlns:sodipodi="http://sodipodi.sourceforge.net/DTD/sodipodi-0.dtd"
   xmlns:inkscape="http://www.inkscape.org/namespaces/inkscape"
   height="16"
   width="16"
   version="1.1"
   id="svg4"
   sodipodi:docname="document-print-symbolic.svg"
   inkscape:version="0.92.3 (2405546, 2018-03-11)">
  <metadata
     id="metadata10">
    <rdf:RDF>
      <cc:Work
         rdf:about="">
        <dc:format>image/svg+xml</dc:format>
        <dc:type
           rdf:resource="http://purl.org/dc/dcmitype/StillImage" />
      </cc:Work>
    </rdf:RDF>
  </metadata>
  <defs
     id="defs8" />
  <sodipodi:namedview
     pagecolor="#ffffff"
     bordercolor="#666666"
     borderopacity="1"
     objecttolerance="10"
     gridtolerance="10"
     guidetolerance="10"
     inkscape:pageopacity="0"
     inkscape:pageshadow="2"
     inkscape:window-width="1920"
     inkscape:window-height="1539"
     id="namedview6"
     showgrid="false"
     inkscape:zoom="29.5"
     inkscape:cx="0.94875493"
     inkscape:cy="15.961843"
     inkscape:window-x="0"
     inkscape:window-y="27"
     inkscape:window-maximized="0"
     inkscape:current-layer="svg4" />
  <path
     style="opacity:1;fill:#808080;fill-opacity:1;stroke:none;stroke-width:0.85596955;stroke-linecap:butt;stroke-linejoin:bevel;stroke-miterlimit:4;stroke-dasharray:none;stroke-opacity:1;paint-order:fill markers stroke"
     d="m 2.7499997,2.8273305 c -0.4089897,0.051046 -0.6807506,0.3264983 -0.75,0.6674519 L 0.99999966,8.4176262 C 0.92357376,8.793914 1.3890926,9.1050712 1.8730466,9.1050712 H 2.7499997 V 5.652468 Z m 10.5000003,0 V 5.652468 9.1050712 h 0.876953 c 0.483954,0 0.949477,-0.3111572 0.873047,-0.687445 L 14,3.4947824 C 13.93082,3.1541611 13.658309,2.8787876 13.25,2.8273305 Z"
     id="rect895-3"
     inkscape:connector-curvature="0" />
  <path
     style="opacity:1;fill:#808080;fill-opacity:1;stroke:none;stroke-width:0.96462417;stroke-linecap:butt;stroke-linejoin:bevel;stroke-miterlimit:4;stroke-dasharray:none;stroke-opacity:1;paint-order:fill markers stroke"
     d="M 1.8730469 4 C 1.3890929 4 1 4.3890929 1 4.8730469 L 1 11.126953 C 1 11.610907 1.3890929 12 1.8730469 12 L 14.126953 12 C 14.610907 12 15 11.610907 15 11.126953 L 15 4.8730469 C 15 4.3890929 14.610907 4 14.126953 4 L 1.8730469 4 z M 7.5664062 5 L 8.4335938 5 L 8.4335938 5.390625 C 8.4335938 6.7580009 8.3604084 8.0014101 8.2128906 9.1191406 L 7.7871094 9.1191406 C 7.6395916 8.0014101 7.5664063 6.7580009 7.5664062 5.390625 L 7.5664062 5 z M 2.1992188 5.0253906 A 0.25 0.25 0 0 1 2.2167969 5.0253906 A 0.25 0.25 0 0 1 2.4667969 5.2753906 A 0.25 0.25 0 0 1 2.2167969 5.5253906 A 0.25 0.25 0 0 1 1.9667969 5.2753906 A 0.25 0.25 0 0 1 2.1992188 5.0253906 z M 3.0371094 5.0253906 A 0.25 0.25 0 0 1 3.0546875 5.0253906 A 0.25 0.25 0 0 1 3.3046875 5.2753906 A 0.25 0.25 0 0 1 3.0546875 5.5253906 A 0.25 0.25 0 0 1 2.8046875 5.2753906 A 0.25 0.25 0 0 1 3.0371094 5.0253906 z M 3.8945312 5.0253906 L 4.8945312 5.0253906 C 5.0330313 5.0253906 5.1445312 5.1368906 5.1445312 5.2753906 C 5.1445312 5.4138906 5.0330313 5.5253906 4.8945312 5.5253906 L 3.8945312 5.5253906 C 3.7560312 5.5253906 3.6445315 5.4138906 3.6445312 5.2753906 C 3.6445312 5.1368906 3.7560312 5.0253906 3.8945312 5.0253906 z M 8 9.953125 C 8.1531915 9.953125 8.2785461 10.003341 8.375 10.105469 C 8.4771277 10.207596 8.5273437 10.332951 8.5273438 10.480469 C 8.5273438 10.627986 8.4771277 10.753341 8.375 10.855469 C 8.2785461 10.951923 8.1531915 11 8 11 C 7.8468085 11 7.7193152 10.951923 7.6171875 10.855469 C 7.5207336 10.753341 7.4726562 10.627986 7.4726562 10.480469 C 7.4726562 10.332951 7.5207336 10.207596 7.6171875 10.105469 C 7.7193152 10.003341 7.8468085 9.953125 8 9.953125 z "
     id="rect895" />
  <path
     style="display:inline;opacity:0.5;fill:#808080;fill-opacity:1;stroke:none;stroke-width:0.07319346;stroke-linecap:butt;stroke-linejoin:bevel;stroke-miterlimit:4;stroke-dasharray:none;stroke-opacity:1;paint-order:fill markers stroke"
     d="M 3.8769531 0 C 3.2519281 0 2.75 0.50192907 2.75 1.1269531 L 2.75 5.1269531 L 2.75 10.873047 L 2.75 14.873047 C 2.75 15.498072 3.2519281 16 3.8769531 16 L 12.121094 16 C 12.74612 16 13.25 15.498072 13.25 14.873047 L 13.25 10.873047 L 13.25 5.1269531 L 13.25 1.1269531 C 13.25 0.50192928 12.746119 1.4802974e-16 12.121094 0 L 3.8769531 0 z M 7.5664062 5 L 8.4335938 5 L 8.4335938 5.390625 C 8.4335938 6.7580009 8.3604084 8.0014101 8.2128906 9.1191406 L 7.7871094 9.1191406 C 7.6395916 8.0014101 7.5664063 6.7580009 7.5664062 5.390625 L 7.5664062 5 z M 8 9.953125 C 8.1531915 9.953125 8.2785461 10.003341 8.375 10.105469 C 8.4771277 10.207596 8.5273437 10.332951 8.5273438 10.480469 C 8.5273438 10.627986 8.4771277 10.753341 8.375 10.855469 C 8.2785461 10.951923 8.1531915 11 8 11 C 7.8468085 11 7.7193152 10.951923 7.6171875 10.855469 C 7.5207336 10.753341 7.4726562 10.627986 7.4726562 10.480469 C 7.4726562 10.332951 7.5207336 10.207596 7.6171875 10.105469 C 7.7193152 10.003341 7.8468085 9.953125 8 9.953125 z M 4.625 12.236328 L 11.375 12.236328 C 11.58275 12.236328 11.75 12.403578 11.75 12.611328 C 11.75 12.819078 11.58275 12.986328 11.375 12.986328 L 4.625 12.986328 C 4.417249 12.986328 4.25 12.819078 4.25 12.611328 C 4.25 12.403578 4.417249 12.236328 4.625 12.236328 z M 4.625 13.736328 L 11.375 13.736328 C 11.58275 13.736328 11.75 13.903577 11.75 14.111328 C 11.75 14.319077 11.58275 14.486328 11.375 14.486328 L 4.625 14.486328 C 4.417249 14.486328 4.25 14.319077 4.25 14.111328 C 4.25 13.903577 4.417249 13.736328 4.625 13.736328 z "
     id="rect1133" />
</svg>
