<?xml version="1.0" encoding="UTF-8" standalone="no"?>
<svg
   xmlns:dc="http://purl.org/dc/elements/1.1/"
   xmlns:cc="http://creativecommons.org/ns#"
   xmlns:rdf="http://www.w3.org/1999/02/22-rdf-syntax-ns#"
   xmlns:svg="http://www.w3.org/2000/svg"
   xmlns="http://www.w3.org/2000/svg"
   xmlns:sodipodi="http://sodipodi.sourceforge.net/DTD/sodipodi-0.dtd"
   xmlns:inkscape="http://www.inkscape.org/namespaces/inkscape"
   height="16"
   width="16"
   version="1.1"
   id="svg4"
   sodipodi:docname="security-high-symbolic.svg"
   inkscape:version="0.92.3 (2405546, 2018-03-11)">
  <metadata
     id="metadata10">
    <rdf:RDF>
      <cc:Work
         rdf:about="">
        <dc:format>image/svg+xml</dc:format>
        <dc:type
           rdf:resource="http://purl.org/dc/dcmitype/StillImage" />
      </cc:Work>
    </rdf:RDF>
  </metadata>
  <defs
     id="defs8" />
  <sodipodi:namedview
     pagecolor="#ffffff"
     bordercolor="#666666"
     borderopacity="1"
     objecttolerance="10"
     gridtolerance="10"
     guidetolerance="10"
     inkscape:pageopacity="0"
     inkscape:pageshadow="2"
     inkscape:window-width="1920"
     inkscape:window-height="1539"
     id="namedview6"
     showgrid="false"
     inkscape:zoom="20.85965"
     inkscape:cx="-2.818025"
     inkscape:cy="6.4786953"
     inkscape:window-x="0"
     inkscape:window-y="27"
     inkscape:window-maximized="0"
     inkscape:current-layer="svg4" />
  <path
     style="stroke-width:0.04536832;fill:#808080;fill-opacity:1;opacity:1"
     d="M 7.923828,0.01328547 7.8554687,0.03672296 A 7.9994092,7.9994092 0 0 1 2.048828,2.6011761 7.9994092,7.9994092 0 0 1 1.1347655,2.5484417 c -9.472e-4,0.00848 -0.00781,0.014776 -0.00781,0.023437 0,2.3717648 0.6282771,5.1107396 1.7226563,7.5195313 0.8876744,1.953968 2.4837042,4.562319 5.046875,5.882812 0.032596,0.0168 0.067805,0.02539 0.1035131,0.02539 0.035697,0 0.070919,-0.0082 0.1035156,-0.02539 2.5631215,-1.320493 4.1611045,-3.928844 5.0488285,-5.882812 1.094329,-2.4087922 1.720703,-5.147767 1.720703,-7.5195318 0,-0.010175 -0.0084,-0.017454 -0.0098,-0.027344 a 7.9994092,7.9994092 0 0 1 -0.814419,0.05664 7.9994092,7.9994092 0 0 1 -5.9101561,-2.56640626 l -0.0625,-0.02148437 c -0.048796,-0.01719874 -0.1035276,-0.01719874 -0.1523439,0 z m 0.00977,0.99804693 c 0.042712,-0.015049 0.090113,-0.015049 0.1328124,0 l 0.054688,0.017578 a 6.9994822,6.9994822 0 0 0 5.1718756,2.2460937 6.9994822,6.9994822 0 0 0 0.710937,-0.048828 c 0.0013,0.00865 0.0098,0.014537 0.0098,0.023437 0,2.0752939 -0.548322,4.472386 -1.50586,6.5800781 -0.776795,1.7097228 -2.175276,3.9930078 -4.4180072,5.1484388 -0.02852,0.01502 -0.058604,0.02148 -0.089844,0.02148 -0.03124,0 -0.061314,-0.0068 -0.089844,-0.02148 C 5.6673821,13.822699 4.2708545,11.539414 3.4941405,9.8296917 2.5365585,7.7219996 1.986328,5.3249075 1.986328,3.2496136 c 0,-0.00758 0.00698,-0.014064 0.00781,-0.021484 a 6.9994822,6.9994822 0 0 0 0.7988307,0.046875 6.9994822,6.9994822 0 0 0 5.0800781,-2.2441406 z"
     id="path2-6"
     inkscape:connector-curvature="0" />
  <path
     style="fill:#808080;stroke-width:0.03969727;fill-opacity:1;opacity:0.5"
     d="m 7.9333188,1.0112855 -0.05981,0.020507 a 6.9994822,6.9994822 0 0 1 -5.0804341,2.2437304 6.9994822,6.9994822 0 0 1 -0.799746,-0.04614 c -8.289e-4,0.00742 -0.0068,0.012927 -0.0068,0.020506 0,2.0752939 0.549631,4.4731193 1.507213,6.5808113 0.7767139,1.7097228 2.172914,3.9916508 4.415688,5.1470818 0.02853,0.0147 0.05933,0.02222 0.09057,0.02222 0.03124,0 0.06205,-0.0072 0.09057,-0.02222 2.2427313,-1.155431 3.6406403,-3.437359 4.4173973,-5.1470818 0.957538,-2.107692 1.505504,-4.5055174 1.505504,-6.5808113 0,-0.0089 -0.0073,-0.01527 -0.0086,-0.023924 A 6.9994822,6.9994822 0 0 1 13.292279,3.2755219 6.9994822,6.9994822 0 0 1 8.1212757,1.0300826 l -0.05469,-0.018798 c -0.0427,-0.015049 -0.09058,-0.015049 -0.133292,0 z"
     id="path2-6-3-5"
     inkscape:connector-curvature="0" />
</svg>
