<?xml version="1.0" encoding="UTF-8" standalone="no"?>
<svg
   xmlns:dc="http://purl.org/dc/elements/1.1/"
   xmlns:cc="http://creativecommons.org/ns#"
   xmlns:rdf="http://www.w3.org/1999/02/22-rdf-syntax-ns#"
   xmlns:svg="http://www.w3.org/2000/svg"
   xmlns="http://www.w3.org/2000/svg"
   xmlns:sodipodi="http://sodipodi.sourceforge.net/DTD/sodipodi-0.dtd"
   xmlns:inkscape="http://www.inkscape.org/namespaces/inkscape"
   height="16"
   width="16"
   version="1.1"
   id="svg4"
   sodipodi:docname="software-installed-symbolic.svg"
   inkscape:version="0.92.3 (2405546, 2018-03-11)">
  <metadata
     id="metadata10">
    <rdf:RDF>
      <cc:Work
         rdf:about="">
        <dc:format>image/svg+xml</dc:format>
        <dc:type
           rdf:resource="http://purl.org/dc/dcmitype/StillImage" />
        <dc:title></dc:title>
      </cc:Work>
    </rdf:RDF>
  </metadata>
  <defs
     id="defs8">
    <clipPath
       clipPathUnits="userSpaceOnUse"
       id="clipPath865">
      <circle
         style="opacity:1;fill:#ff8080;fill-opacity:1;stroke:none;stroke-width:0.81669122;stroke-linecap:butt;stroke-linejoin:bevel;stroke-miterlimit:10.00000095;stroke-dasharray:none;stroke-opacity:1;paint-order:fill markers stroke"
         id="circle867"
         cx="8"
         cy="8"
         r="8" />
    </clipPath>
  </defs>
  <sodipodi:namedview
     pagecolor="#ffffff"
     bordercolor="#666666"
     borderopacity="1"
     objecttolerance="10"
     gridtolerance="10"
     guidetolerance="10"
     inkscape:pageopacity="0"
     inkscape:pageshadow="2"
     inkscape:window-width="1920"
     inkscape:window-height="1474"
     id="namedview6"
     showgrid="false"
     inkscape:zoom="41.7193"
     inkscape:cx="10.68976"
     inkscape:cy="6.9115575"
     inkscape:window-x="1920"
     inkscape:window-y="27"
     inkscape:window-maximized="0"
     inkscape:current-layer="svg4" />
  <path
     style="opacity:1;fill:#808080;fill-opacity:1;stroke:none;stroke-width:0.62168556;stroke-linecap:butt;stroke-linejoin:bevel;stroke-miterlimit:10.00000095;stroke-dasharray:none;stroke-opacity:1;paint-order:fill markers stroke"
     d="M 7.9100077,0.01808272 A 8,8 0 0 0 -0.08999234,8.0180827 8,8 0 0 0 7.9100077,16.018083 8,8 0 0 0 15.910008,8.0180827 8,8 0 0 0 7.9100077,0.01808272 Z m 0,0.99999998 a 7,7 0 0 1 7.0000003,7 7,7 0 0 1 -7.0000003,7.0000003 7,7 0 0 1 -7.00000004,-7.0000003 7,7 0 0 1 7.00000004,-7 z"
     id="path823"
     inkscape:connector-curvature="0" />
  <path
     transform="matrix(0.87234617,0,0,0.87234617,-0.15067526,1.3066217)"
     inkscape:connector-curvature="0"
     style="display:inline;overflow:visible;visibility:visible;opacity:1;fill:#808080;fill-opacity:1;fill-rule:evenodd;stroke:none;stroke-width:0.07074449;stroke-linecap:butt;stroke-linejoin:round;stroke-miterlimit:4;stroke-dasharray:none;stroke-dashoffset:0;stroke-opacity:1;marker:none;marker-start:none;marker-mid:none;marker-end:none;enable-background:accumulate"
     d="M 21.328125,-4.7460938 13.519531,3.0488281 V 3 L 5.6113281,10.894531 3.6875,8.9238281 2.4804688,10.166016 5.6796875,13 13.486328,5.2539062 21.294922,-2.4921875 Z"
     id="path10465"
     clip-path="url(#clipPath865)" />
</svg>
