<?xml version="1.0" encoding="UTF-8" standalone="no"?>
<svg
   xmlns:dc="http://purl.org/dc/elements/1.1/"
   xmlns:cc="http://creativecommons.org/ns#"
   xmlns:rdf="http://www.w3.org/1999/02/22-rdf-syntax-ns#"
   xmlns:svg="http://www.w3.org/2000/svg"
   xmlns="http://www.w3.org/2000/svg"
   xmlns:sodipodi="http://sodipodi.sourceforge.net/DTD/sodipodi-0.dtd"
   xmlns:inkscape="http://www.inkscape.org/namespaces/inkscape"
   height="16"
   width="16"
   version="1.1"
   id="svg4"
   sodipodi:docname="task-due-symbolic.svg"
   inkscape:version="0.92.3 (2405546, 2018-03-11)">
  <metadata
     id="metadata10">
    <rdf:RDF>
      <cc:Work
         rdf:about="">
        <dc:format>image/svg+xml</dc:format>
        <dc:type
           rdf:resource="http://purl.org/dc/dcmitype/StillImage" />
      </cc:Work>
    </rdf:RDF>
  </metadata>
  <defs
     id="defs8" />
  <sodipodi:namedview
     pagecolor="#ffffff"
     bordercolor="#666666"
     borderopacity="1"
     objecttolerance="10"
     gridtolerance="10"
     guidetolerance="10"
     inkscape:pageopacity="0"
     inkscape:pageshadow="2"
     inkscape:window-width="1898"
     inkscape:window-height="1174"
     id="namedview6"
     showgrid="false"
     inkscape:zoom="29.495844"
     inkscape:cx="-0.63197015"
     inkscape:cy="10.382679"
     inkscape:window-x="248"
     inkscape:window-y="215"
     inkscape:window-maximized="0"
     inkscape:current-layer="svg4" />
  <path
     style="display:inline;opacity:0.2;fill:#808080;fill-opacity:1;stroke:none;stroke-width:0.08539237;stroke-linecap:butt;stroke-linejoin:bevel;stroke-miterlimit:4;stroke-dasharray:none;stroke-opacity:1;paint-order:fill markers stroke"
     d="M 4.6054688 0.5234375 C 4.0909502 0.5234375 3.6777344 0.70766675 3.6777344 0.93359375 L 3.6777344 1.4746094 L 3.1894531 1.4746094 C 2.4602561 1.4746094 1.875 2.0598663 1.875 2.7890625 L 1.875 14.160156 C 1.875 14.889351 2.4602581 15.476562 3.1894531 15.476562 L 12.808594 15.476562 C 13.53779 15.476562 14.124999 14.889351 14.125 14.160156 L 14.125 2.7890625 C 14.125 2.0598664 13.53779 1.4746094 12.808594 1.4746094 L 12.322266 1.4746094 L 12.322266 0.93359375 C 12.322266 0.70766675 11.907097 0.5234375 11.392578 0.5234375 L 4.6054688 0.5234375 z M 9.84375 8.1347656 L 10.710938 8.1347656 L 10.710938 8.5253906 C 10.710938 9.8927665 10.637752 11.136176 10.490234 12.253906 L 10.064453 12.253906 C 9.9169354 11.136176 9.84375 9.8927665 9.84375 8.5253906 L 9.84375 8.1347656 z M 10.277344 13.087891 C 10.430535 13.087891 10.55589 13.138107 10.652344 13.240234 C 10.754471 13.342362 10.804688 13.467717 10.804688 13.615234 C 10.804687 13.762752 10.754471 13.888107 10.652344 13.990234 C 10.55589 14.086688 10.430535 14.134766 10.277344 14.134766 C 10.124152 14.134766 9.9966589 14.086688 9.8945312 13.990234 C 9.7980773 13.888107 9.75 13.762752 9.75 13.615234 C 9.75 13.467717 9.7980773 13.342362 9.8945312 13.240234 C 9.9966589 13.138107 10.124152 13.087891 10.277344 13.087891 z "
     id="rect1133-3" />
  <path
     style="display:inline;opacity:1;fill:#808080;fill-opacity:1;stroke:none;stroke-width:0.07319346;stroke-linecap:butt;stroke-linejoin:bevel;stroke-miterlimit:4;stroke-dasharray:none;stroke-opacity:1;paint-order:fill markers stroke"
     d="M 3.8769531 2.4746094 C 3.2519279 2.4746094 2.75 2.9784905 2.75 3.6035156 L 2.75 13.347656 C 2.75 13.97268 3.2519285 14.476563 3.8769531 14.476562 L 12.123047 14.476562 C 12.748072 14.476562 13.25 13.97268 13.25 13.347656 L 13.25 3.6035156 C 13.25 2.9784905 12.748072 2.4746094 12.123047 2.4746094 L 3.8769531 2.4746094 z M 4.625 3.9882812 L 11.375 3.9882812 C 11.582751 3.9882812 11.75 4.1555316 11.75 4.3632812 C 11.75 4.5710318 11.582751 4.7382813 11.375 4.7382812 L 4.625 4.7382812 C 4.41725 4.7382812 4.25 4.5710318 4.25 4.3632812 C 4.25 4.1555316 4.41725 3.9882812 4.625 3.9882812 z M 4.625 5.4882812 L 11.375 5.4882812 C 11.582751 5.4882812 11.75 5.6555308 11.75 5.8632812 C 11.75 6.0710308 11.582751 6.2382812 11.375 6.2382812 L 4.625 6.2382812 C 4.41725 6.2382812 4.25 6.0710309 4.25 5.8632812 C 4.25 5.6555307 4.41725 5.4882813 4.625 5.4882812 z M 4.625 6.9882812 L 11.375 6.9882812 C 11.582751 6.9882812 11.75 7.1555314 11.75 7.3632812 C 11.75 7.5710314 11.582751 7.7382812 11.375 7.7382812 L 4.625 7.7382812 C 4.41725 7.7382812 4.25 7.5710314 4.25 7.3632812 C 4.25 7.1555314 4.41725 6.9882812 4.625 6.9882812 z M 9.84375 8.1347656 L 10.710938 8.1347656 L 10.710938 8.5253906 C 10.710938 9.8927665 10.637752 11.136176 10.490234 12.253906 L 10.064453 12.253906 C 9.9169354 11.136176 9.84375 9.8927665 9.84375 8.5253906 L 9.84375 8.1347656 z M 4.625 8.4882812 L 7.625 8.4882812 C 7.83275 8.4882812 8 8.6555312 8 8.8632812 C 8 9.0710313 7.83275 9.2382812 7.625 9.2382812 L 4.625 9.2382812 C 4.41725 9.2382812 4.25 9.0710313 4.25 8.8632812 C 4.25 8.6555312 4.41725 8.4882812 4.625 8.4882812 z M 10.277344 13.087891 C 10.430535 13.087891 10.55589 13.138107 10.652344 13.240234 C 10.754471 13.342362 10.804688 13.467717 10.804688 13.615234 C 10.804687 13.762752 10.754471 13.888107 10.652344 13.990234 C 10.55589 14.086688 10.430535 14.134766 10.277344 14.134766 C 10.124152 14.134766 9.9966589 14.086688 9.8945312 13.990234 C 9.7980773 13.888107 9.75 13.762752 9.75 13.615234 C 9.75 13.467717 9.7980773 13.342362 9.8945312 13.240234 C 9.9966589 13.138107 10.124152 13.087891 10.277344 13.087891 z "
     id="rect1133" />
</svg>
