<?xml version="1.0" encoding="UTF-8" standalone="no"?>
<svg
   xmlns:dc="http://purl.org/dc/elements/1.1/"
   xmlns:cc="http://creativecommons.org/ns#"
   xmlns:rdf="http://www.w3.org/1999/02/22-rdf-syntax-ns#"
   xmlns:svg="http://www.w3.org/2000/svg"
   xmlns="http://www.w3.org/2000/svg"
   xmlns:sodipodi="http://sodipodi.sourceforge.net/DTD/sodipodi-0.dtd"
   xmlns:inkscape="http://www.inkscape.org/namespaces/inkscape"
   height="16"
   width="16"
   version="1.1"
   id="svg4"
   sodipodi:docname="task-past-due-symbolic.svg"
   inkscape:version="0.92.3 (2405546, 2018-03-11)">
  <metadata
     id="metadata10">
    <rdf:RDF>
      <cc:Work
         rdf:about="">
        <dc:format>image/svg+xml</dc:format>
        <dc:type
           rdf:resource="http://purl.org/dc/dcmitype/StillImage" />
      </cc:Work>
    </rdf:RDF>
  </metadata>
  <defs
     id="defs8" />
  <sodipodi:namedview
     pagecolor="#ffffff"
     bordercolor="#666666"
     borderopacity="1"
     objecttolerance="10"
     gridtolerance="10"
     guidetolerance="10"
     inkscape:pageopacity="0"
     inkscape:pageshadow="2"
     inkscape:window-width="1920"
     inkscape:window-height="1539"
     id="namedview6"
     showgrid="false"
     inkscape:zoom="41.713423"
     inkscape:cx="2.7193153"
     inkscape:cy="3.143442"
     inkscape:window-x="1920"
     inkscape:window-y="27"
     inkscape:window-maximized="0"
     inkscape:current-layer="svg4" />
  <path
     style="display:inline;opacity:0.2;fill:#808080;fill-opacity:1;stroke:none;stroke-width:0.08539237;stroke-linecap:butt;stroke-linejoin:bevel;stroke-miterlimit:4;stroke-dasharray:none;stroke-opacity:1;paint-order:fill markers stroke"
     d="M 4.6054688 0.52539062 C 4.0909498 0.52539062 3.6777344 0.70766675 3.6777344 0.93359375 L 3.6777344 1.4746094 L 3.1894531 1.4746094 C 2.4602561 1.4746094 1.875 2.0598665 1.875 2.7890625 L 1.875 14.160156 C 1.875 14.889351 2.4602581 15.476562 3.1894531 15.476562 L 12.808594 15.476562 C 13.53779 15.476562 14.124999 14.889351 14.125 14.160156 L 14.125 2.7890625 C 14.125 2.0598665 13.53779 1.4746094 12.808594 1.4746094 L 12.322266 1.4746094 L 12.322266 0.93359375 C 12.322266 0.70766675 11.907097 0.52539062 11.392578 0.52539062 L 4.6054688 0.52539062 z M 10.242188 8.0878906 C 10.775521 8.0878906 11.185062 8.2258921 11.46875 8.5039062 C 11.752438 8.7762467 11.894531 9.1231106 11.894531 9.5429688 C 11.894531 9.7528978 11.856962 9.9430685 11.783203 10.113281 C 11.715118 10.27782 11.627333 10.422052 11.519531 10.546875 C 11.417404 10.666024 11.279402 10.808117 11.103516 10.972656 C 10.848196 11.210954 10.658026 11.430325 10.533203 11.628906 C 10.40838 11.821814 10.354072 12.060062 10.371094 12.34375 L 9.765625 12.34375 C 9.7542775 12.230275 9.75 12.150859 9.75 12.105469 C 9.75 11.782064 9.814816 11.514617 9.9453125 11.304688 C 10.075809 11.094758 10.26598 10.867019 10.515625 10.623047 C 10.725554 10.407444 10.876017 10.231873 10.966797 10.095703 C 11.063251 9.9538592 11.111328 9.7845191 11.111328 9.5859375 C 11.111328 9.3135971 11.029773 9.1088265 10.865234 8.9726562 C 10.700695 8.8308123 10.472955 8.7597656 10.183594 8.7597656 C 9.9623172 8.7597656 9.7575465 8.7994736 9.5703125 8.8789062 C 9.3887522 8.9583389 9.1818429 9.0753241 8.9492188 9.2285156 L 8.6601562 8.6074219 C 9.1424258 8.2613226 9.6691379 8.0878906 10.242188 8.0878906 z M 10.107422 13.142578 C 10.260613 13.142578 10.388107 13.194747 10.490234 13.296875 C 10.592362 13.399003 10.642578 13.522404 10.642578 13.669922 C 10.642578 13.811766 10.592362 13.934982 10.490234 14.037109 C 10.388107 14.133563 10.260613 14.181641 10.107422 14.181641 C 9.9542304 14.181641 9.826737 14.133563 9.7246094 14.037109 C 9.6281555 13.934982 9.5800781 13.811766 9.5800781 13.669922 C 9.5800781 13.522404 9.6281555 13.399003 9.7246094 13.296875 C 9.826737 13.194747 9.9542304 13.142578 10.107422 13.142578 z "
     id="rect1133-3-7" />
  <path
     style="display:inline;opacity:1;fill:#808080;fill-opacity:1;stroke:none;stroke-width:0.07319346;stroke-linecap:butt;stroke-linejoin:bevel;stroke-miterlimit:4;stroke-dasharray:none;stroke-opacity:1;paint-order:fill markers stroke"
     d="M 3.8769531 2.4746094 C 3.2519281 2.4746094 2.75 2.9784906 2.75 3.6035156 L 2.75 13.347656 C 2.75 13.97268 3.2519291 14.476563 3.8769531 14.476562 L 12.123047 14.476562 C 12.748072 14.476562 13.25 13.97268 13.25 13.347656 L 13.25 3.6035156 C 13.25 2.9784906 12.748072 2.4746094 12.123047 2.4746094 L 3.8769531 2.4746094 z M 4.625 3.9882812 L 11.375 3.9882812 C 11.582751 3.9882812 11.75 4.1555312 11.75 4.3632812 C 11.75 4.5710312 11.582751 4.7382812 11.375 4.7382812 L 4.625 4.7382812 C 4.41725 4.7382812 4.25 4.5710313 4.25 4.3632812 C 4.25 4.1555313 4.41725 3.9882812 4.625 3.9882812 z M 4.625 5.4882812 L 11.375 5.4882812 C 11.582751 5.4882812 11.75 5.6555302 11.75 5.8632812 C 11.75 6.0710302 11.582751 6.2382812 11.375 6.2382812 L 4.625 6.2382812 C 4.41725 6.2382812 4.25 6.0710303 4.25 5.8632812 C 4.25 5.6555302 4.41725 5.4882812 4.625 5.4882812 z M 4.625 6.9882812 L 11.375 6.9882812 C 11.582751 6.9882812 11.75 7.1555313 11.75 7.3632812 C 11.75 7.5710312 11.582751 7.7382812 11.375 7.7382812 L 4.625 7.7382812 C 4.41725 7.7382812 4.25 7.5710312 4.25 7.3632812 C 4.25 7.1555313 4.41725 6.9882812 4.625 6.9882812 z M 10.242188 8.0878906 C 10.775521 8.0878906 11.185062 8.2258921 11.46875 8.5039062 C 11.752438 8.7762467 11.894531 9.1231106 11.894531 9.5429688 C 11.894531 9.7528978 11.856962 9.9430685 11.783203 10.113281 C 11.715118 10.27782 11.627333 10.422052 11.519531 10.546875 C 11.417404 10.666024 11.279402 10.808117 11.103516 10.972656 C 10.848196 11.210954 10.658026 11.430325 10.533203 11.628906 C 10.40838 11.821814 10.354072 12.060062 10.371094 12.34375 L 9.765625 12.34375 C 9.7542775 12.230275 9.75 12.150859 9.75 12.105469 C 9.75 11.782064 9.814816 11.514617 9.9453125 11.304688 C 10.075809 11.094758 10.26598 10.867019 10.515625 10.623047 C 10.725554 10.407444 10.876017 10.231873 10.966797 10.095703 C 11.063251 9.9538592 11.111328 9.7845191 11.111328 9.5859375 C 11.111328 9.3135971 11.029773 9.1088265 10.865234 8.9726562 C 10.700695 8.8308123 10.472955 8.7597656 10.183594 8.7597656 C 9.9623172 8.7597656 9.7575465 8.7994736 9.5703125 8.8789062 C 9.3887522 8.9583389 9.1818429 9.0753241 8.9492188 9.2285156 L 8.6601562 8.6074219 C 9.1424258 8.2613226 9.6691379 8.0878906 10.242188 8.0878906 z M 4.625 8.4882812 L 7.625 8.4882812 C 7.83275 8.4882812 8 8.6555312 8 8.8632812 C 8 9.0710313 7.83275 9.2382812 7.625 9.2382812 L 4.625 9.2382812 C 4.41725 9.2382812 4.25 9.0710313 4.25 8.8632812 C 4.25 8.6555312 4.41725 8.4882812 4.625 8.4882812 z M 10.107422 13.142578 C 10.260613 13.142578 10.388107 13.194747 10.490234 13.296875 C 10.592362 13.399003 10.642578 13.522404 10.642578 13.669922 C 10.642578 13.811766 10.592362 13.934982 10.490234 14.037109 C 10.388107 14.133563 10.260613 14.181641 10.107422 14.181641 C 9.9542304 14.181641 9.826737 14.133563 9.7246094 14.037109 C 9.6281555 13.934982 9.5800781 13.811766 9.5800781 13.669922 C 9.5800781 13.522404 9.6281555 13.399003 9.7246094 13.296875 C 9.826737 13.194747 9.9542304 13.142578 10.107422 13.142578 z "
     id="rect1133-36" />
</svg>
