<?xml version="1.0" encoding="UTF-8" standalone="no"?>
<svg
   xmlns:dc="http://purl.org/dc/elements/1.1/"
   xmlns:cc="http://creativecommons.org/ns#"
   xmlns:rdf="http://www.w3.org/1999/02/22-rdf-syntax-ns#"
   xmlns:svg="http://www.w3.org/2000/svg"
   xmlns="http://www.w3.org/2000/svg"
   xmlns:sodipodi="http://sodipodi.sourceforge.net/DTD/sodipodi-0.dtd"
   xmlns:inkscape="http://www.inkscape.org/namespaces/inkscape"
   height="16"
   width="16.011"
   version="1.1"
   id="svg4"
   sodipodi:docname="weather-windy-symbolic.svg"
   inkscape:version="0.92.3 (2405546, 2018-03-11)">
  <metadata
     id="metadata10">
    <rdf:RDF>
      <cc:Work
         rdf:about="">
        <dc:format>image/svg+xml</dc:format>
        <dc:type
           rdf:resource="http://purl.org/dc/dcmitype/StillImage" />
      </cc:Work>
    </rdf:RDF>
  </metadata>
  <defs
     id="defs8" />
  <sodipodi:namedview
     pagecolor="#ffffff"
     bordercolor="#666666"
     borderopacity="1"
     objecttolerance="10"
     gridtolerance="10"
     guidetolerance="10"
     inkscape:pageopacity="0"
     inkscape:pageshadow="2"
     inkscape:window-width="1920"
     inkscape:window-height="1539"
     id="namedview6"
     showgrid="false"
     inkscape:zoom="14.75"
     inkscape:cx="7.3497047"
     inkscape:cy="15.901247"
     inkscape:window-x="1920"
     inkscape:window-y="27"
     inkscape:window-maximized="0"
     inkscape:current-layer="svg4" />
  <g
     id="g921"
     transform="matrix(0.4594246,0,0,0.4594246,4.5997458,5.3232154)">
    <path
       id="rect816-3"
       d="m 19.734375,-4.5527344 a 5,5 0 0 0 -4.904297,5.00000002 h 2 a 3,3 0 0 1 2.941406,-3.00000002 3,3 0 0 1 3.054688,2.92578128 v 0.0742187 A 3,3 0 0 1 20,3.4414062 v 0.00586 H 15.835938 0 -10 v 2 H 0 19.857422 20 v -0.00781 a 5,5 0 0 0 4.826172,-4.99218748 v -0.125 A 5,5 0 0 0 19.734375,-4.5527344 Z"
       style="opacity:1;fill:#808080;fill-opacity:1;stroke:none;stroke-width:1.36729479;stroke-linecap:butt;stroke-linejoin:bevel;stroke-miterlimit:4;stroke-dasharray:none;stroke-opacity:1;paint-order:fill markers stroke"
       inkscape:connector-curvature="0" />
    <path
       id="rect816-3-7"
       d="m -10,6.2050781 v 2 H 0 15.835938 20 v 0.00586 a 3,3 0 0 1 2.826172,2.9941409 v 0.07422 a 3,3 0 0 1 -3.054688,2.925781 3,3 0 0 1 -2.941406,-3 h -2 a 5,5 0 0 0 4.904297,5 5,5 0 0 0 5.091797,-4.875 v -0.125 A 5,5 0 0 0 20,6.2128906 v -0.00781 H 19.857422 0 Z"
       style="opacity:1;fill:#808080;fill-opacity:1;stroke:none;stroke-width:1.36729479;stroke-linecap:butt;stroke-linejoin:bevel;stroke-miterlimit:4;stroke-dasharray:none;stroke-opacity:1;paint-order:fill markers stroke"
       inkscape:connector-curvature="0" />
    <path
       id="rect816-3-7-5"
       d="m 5.898041,19.261764 a 4.028007,4.028007 0 0 1 -3.95091,-4.028008 h 1.611204 a 2.4168042,2.4168042 0 0 0 2.369601,2.416805 2.4168042,2.4168042 0 0 0 2.460859,-2.357013 v -0.05979 A 2.4168042,2.4168042 0 0 0 6.112029,12.821672 v -0.0048 H 2.757453 -10 V 11.20567 H 5.997168 6.112029 v 0.0063 a 4.028007,4.028007 0 0 1 3.88797,4.021744 v 0.100707 a 4.028007,4.028007 0 0 1 -4.101958,3.927311 z"
       style="opacity:1;fill:#808080;fill-opacity:1;stroke:none;stroke-width:1.10149455;stroke-linecap:butt;stroke-linejoin:bevel;stroke-miterlimit:4;stroke-dasharray:none;stroke-opacity:1;paint-order:fill markers stroke"
       inkscape:connector-curvature="0" />
    <path
       id="rect816-3-7-5-3"
       d="m 5.898041,-7.608994 a 4.028007,4.028007 0 0 0 -3.95091,4.0280077 h 1.611204 a 2.4168042,2.4168042 0 0 1 2.369601,-2.4168047 2.4168042,2.4168042 0 0 1 2.460859,2.3570127 v 0.05979 a 2.4168042,2.4168042 0 0 1 -2.276766,2.412086 v 0.0048 H 2.757453 -10 V 0.44709974 H 5.997168 6.112029 v -0.0063 a 4.028007,4.028007 0 0 0 3.88797,-4.02174404 v -0.100707 A 4.028007,4.028007 0 0 0 5.898041,-7.608962 Z"
       style="opacity:1;fill:#808080;fill-opacity:1;stroke:none;stroke-width:1.10149455;stroke-linecap:butt;stroke-linejoin:bevel;stroke-miterlimit:4;stroke-dasharray:none;stroke-opacity:1;paint-order:fill markers stroke"
       inkscape:connector-curvature="0" />
  </g>
</svg>
