<?xml version="1.0" encoding="UTF-8" standalone="no"?>
<svg
   xmlns:dc="http://purl.org/dc/elements/1.1/"
   xmlns:cc="http://creativecommons.org/ns#"
   xmlns:rdf="http://www.w3.org/1999/02/22-rdf-syntax-ns#"
   xmlns:svg="http://www.w3.org/2000/svg"
   xmlns="http://www.w3.org/2000/svg"
   xmlns:sodipodi="http://sodipodi.sourceforge.net/DTD/sodipodi-0.dtd"
   xmlns:inkscape="http://www.inkscape.org/namespaces/inkscape"
   height="16"
   width="16"
   version="1.1"
   id="svg4"
   sodipodi:docname="weather-severe-alert-symbolic.svg"
   inkscape:version="0.92.3 (2405546, 2018-03-11)">
  <metadata
     id="metadata10">
    <rdf:RDF>
      <cc:Work
         rdf:about="">
        <dc:format>image/svg+xml</dc:format>
        <dc:type
           rdf:resource="http://purl.org/dc/dcmitype/StillImage" />
        <dc:title />
      </cc:Work>
    </rdf:RDF>
  </metadata>
  <defs
     id="defs8" />
  <sodipodi:namedview
     pagecolor="#ffffff"
     bordercolor="#666666"
     borderopacity="1"
     objecttolerance="10"
     gridtolerance="10"
     guidetolerance="10"
     inkscape:pageopacity="0"
     inkscape:pageshadow="2"
     inkscape:window-width="1920"
     inkscape:window-height="1539"
     id="namedview6"
     showgrid="false"
     inkscape:zoom="59"
     inkscape:cx="5.4898133"
     inkscape:cy="10.316218"
     inkscape:window-x="1920"
     inkscape:window-y="27"
     inkscape:window-maximized="0"
     inkscape:current-layer="svg4" />
  <path
     style="opacity:1;fill:#808080;fill-opacity:1;stroke:none;stroke-width:0.44185147;stroke-linecap:butt;stroke-linejoin:bevel;stroke-miterlimit:4;stroke-dasharray:none;stroke-opacity:1;paint-order:fill markers stroke"
     d="M 9.875 0 A 4.6222223 4.4340474 0 0 0 5.9902344 2.171875 A 3.1824362 3.0528763 0 0 0 5.0078125 2.0390625 A 3.1824362 3.0528763 0 0 0 1.8828125 5.1308594 A 3.1824362 3.0528763 0 0 0 1.890625 5.2617188 C 0.8166184 5.4294035 1.4802974e-16 6.3115084 0 7.390625 L 0 7.8339844 C 0 9.0334334 1.0074594 10 2.2578125 10 L 13.742188 10 C 14.99254 10 16 9.0334334 16 7.8339844 L 16 7.390625 C 16 6.4408184 15.364071 5.644753 14.480469 5.3515625 A 4.6222223 4.4340474 0 0 0 14.582031 4.4335938 L 14.580078 4.3242188 A 4.6222223 4.4340474 0 0 0 9.875 0 z M 7.5234375 1.7109375 L 8.4765625 1.7109375 L 8.4765625 2.1386719 C 8.4765625 3.6382274 8.3941996 5.0007848 8.2324219 6.2265625 L 7.7675781 6.2265625 C 7.6058004 5.0007848 7.5234375 3.6382274 7.5234375 2.1386719 L 7.5234375 1.7109375 z M 8 7.1425781 C 8.168 7.1425781 8.3043785 7.1985469 8.4101562 7.3105469 C 8.5221562 7.4225469 8.578125 7.5589254 8.578125 7.7207031 C 8.578125 7.8824809 8.5221562 8.0188594 8.4101562 8.1308594 C 8.3043785 8.2366371 8.168 8.2890625 8 8.2890625 C 7.832 8.2890625 7.6920781 8.2366371 7.5800781 8.1308594 C 7.4743004 8.0188594 7.421875 7.8824809 7.421875 7.7207031 C 7.421875 7.5589254 7.4743004 7.4225469 7.5800781 7.3105469 C 7.6920781 7.1985469 7.832 7.1425781 8 7.1425781 z "
     id="rect834" />
</svg>
