<?xml version="1.0" encoding="UTF-8" standalone="no"?>
<svg
   xmlns:dc="http://purl.org/dc/elements/1.1/"
   xmlns:cc="http://creativecommons.org/ns#"
   xmlns:rdf="http://www.w3.org/1999/02/22-rdf-syntax-ns#"
   xmlns:svg="http://www.w3.org/2000/svg"
   xmlns="http://www.w3.org/2000/svg"
   xmlns:sodipodi="http://sodipodi.sourceforge.net/DTD/sodipodi-0.dtd"
   xmlns:inkscape="http://www.inkscape.org/namespaces/inkscape"
   height="16.079"
   width="16.015"
   version="1.1"
   id="svg10"
   sodipodi:docname="find-location-symbolic.svg"
   inkscape:version="0.92.3 (2405546, 2018-03-11)">
  <metadata
     id="metadata16">
    <rdf:RDF>
      <cc:Work
         rdf:about="">
        <dc:format>image/svg+xml</dc:format>
        <dc:type
           rdf:resource="http://purl.org/dc/dcmitype/StillImage" />
      </cc:Work>
    </rdf:RDF>
  </metadata>
  <defs
     id="defs14" />
  <sodipodi:namedview
     pagecolor="#ffffff"
     bordercolor="#666666"
     borderopacity="1"
     objecttolerance="10"
     gridtolerance="10"
     guidetolerance="10"
     inkscape:pageopacity="0"
     inkscape:pageshadow="2"
     inkscape:window-width="1920"
     inkscape:window-height="1539"
     id="namedview12"
     showgrid="false"
     inkscape:zoom="29.355059"
     inkscape:cx="8.7040545"
     inkscape:cy="9.1756127"
     inkscape:window-x="0"
     inkscape:window-y="27"
     inkscape:window-maximized="0"
     inkscape:current-layer="svg10" />
  <g
     id="g851"
     transform="matrix(1.2499952,0,0,1.2499952,-2.0022272,-2.0093184)">
    <circle
       r="1.7899137"
       cy="8.0395002"
       cx="8.0074997"
       id="path1114-7"
       style="fill:#808080;fill-opacity:1;stroke:none;stroke-width:0.89495683;stroke-miterlimit:4;stroke-dasharray:none;stroke-opacity:1" />
    <path
       inkscape:connector-curvature="0"
       id="path1114-7-4"
       d="M 8.0075893,2.2862061 A 5.753294,5.753294 0 0 0 2.2542954,8.0395001 5.753294,5.753294 0 0 0 8.0075893,13.792794 5.753294,5.753294 0 0 0 13.760883,8.0395001 5.753294,5.753294 0 0 0 8.0075893,2.2862061 Z m 0,0.5753294 A 5.1779646,5.1779646 0 0 1 13.185554,8.0395001 5.1779646,5.1779646 0 0 1 8.0075893,13.217465 5.1779646,5.1779646 0 0 1 2.8296248,8.0395001 5.1779646,5.1779646 0 0 1 8.0075893,2.8615355 Z"
       style="fill:#808080;fill-opacity:1;stroke:none;stroke-width:2.876647;stroke-miterlimit:4;stroke-dasharray:none;stroke-opacity:1" />
    <path
       id="rect816-3-7-5"
       d="M 3.7226562,2.0390625 2.0078125,3.7539062 3.515625,5.2617188 A 5.2881265,5.2881265 0 0 1 5.2285156,3.5449219 Z m 8.5703128,0 -1.507813,1.5078125 a 5.2881265,5.2881265 0 0 1 1.716797,1.7128906 L 14.007812,3.7539062 Z M 12.5,10.816406 a 5.2881265,5.2881265 0 0 1 -1.710938,1.71875 l 1.503907,1.503906 1.714843,-1.71289 z m -8.9863281,0.002 -1.5058594,1.507813 1.7148437,1.71289 1.5078126,-1.507812 A 5.2881265,5.2881265 0 0 1 3.5136719,10.818359 Z"
       style="opacity:1;fill:#808080;fill-opacity:1;stroke:none;stroke-width:1.2838254;stroke-linecap:butt;stroke-linejoin:bevel;stroke-miterlimit:4;stroke-dasharray:none;stroke-opacity:1;paint-order:fill markers stroke"
       inkscape:connector-curvature="0" />
  </g>
</svg>
