<?xml version="1.0" encoding="UTF-8" standalone="no"?>
<svg
   xmlns:dc="http://purl.org/dc/elements/1.1/"
   xmlns:cc="http://creativecommons.org/ns#"
   xmlns:rdf="http://www.w3.org/1999/02/22-rdf-syntax-ns#"
   xmlns:svg="http://www.w3.org/2000/svg"
   xmlns="http://www.w3.org/2000/svg"
   xmlns:sodipodi="http://sodipodi.sourceforge.net/DTD/sodipodi-0.dtd"
   xmlns:inkscape="http://www.inkscape.org/namespaces/inkscape"
   height="16"
   width="16"
   version="1.1"
   id="svg4"
   sodipodi:docname="folder-symbolic.svg"
   inkscape:version="0.92.3 (2405546, 2018-03-11)">
  <metadata
     id="metadata10">
    <rdf:RDF>
      <cc:Work
         rdf:about="">
        <dc:format>image/svg+xml</dc:format>
        <dc:type
           rdf:resource="http://purl.org/dc/dcmitype/StillImage" />
      </cc:Work>
    </rdf:RDF>
  </metadata>
  <defs
     id="defs8" />
  <sodipodi:namedview
     pagecolor="#ffffff"
     bordercolor="#666666"
     borderopacity="1"
     objecttolerance="10"
     gridtolerance="10"
     guidetolerance="10"
     inkscape:pageopacity="0"
     inkscape:pageshadow="2"
     inkscape:window-width="1920"
     inkscape:window-height="1539"
     id="namedview6"
     showgrid="false"
     inkscape:zoom="29.5"
     inkscape:cx="-4.6897866"
     inkscape:cy="-0.38511516"
     inkscape:window-x="0"
     inkscape:window-y="27"
     inkscape:window-maximized="0"
     inkscape:current-layer="svg4" />
  <g
     id="g818"
     transform="translate(-2e-8,-0.4477123)">
    <path
       sodipodi:nodetypes="sccssssssss"
       inkscape:connector-curvature="0"
       id="rect1188"
       d="m 1.920697,1.7549016 h 2.7328976 l 1.2549019,1.254902 h 8.1708065 c 0.803359,0 1.450109,0.6467212 1.450109,1.450081 v 9.2305294 c 0,0.80336 -0.64675,1.450109 -1.450109,1.450109 H 1.920697 c -0.8033603,0 -1.45010893,-0.646749 -1.45010893,-1.450109 V 3.2050103 c 0,-0.8033598 0.64674863,-1.4501087 1.45010893,-1.4501087 z"
       style="fill:none;fill-opacity:1;stroke:#808080;stroke-width:0.94117647;stroke-miterlimit:4;stroke-dasharray:none;stroke-opacity:1" />
    <path
       sodipodi:nodetypes="sccssssssss"
       inkscape:connector-curvature="0"
       id="rect1188-3"
       d="M 1.6488017,5.5196078 H 5.490196 l 1.2549019,-1.254902 h 7.6061011 c 0.652729,0 1.178213,0.5254836 1.178213,1.1782132 v 8.51939 c 0,0.65273 -0.525484,1.178214 -1.178213,1.178214 H 1.6488017 c -0.6527304,0 -1.17821366,-0.525484 -1.17821366,-1.178214 V 6.6977934 c 0,-0.6527297 0.52548326,-1.1781856 1.17821366,-1.1781856 z"
       style="fill:none;fill-opacity:1;stroke:#808080;stroke-width:0.94117647;stroke-miterlimit:4;stroke-dasharray:none;stroke-opacity:1" />
  </g>
</svg>
