<?xml version="1.0" encoding="UTF-8" standalone="no"?>
<svg
   xmlns:dc="http://purl.org/dc/elements/1.1/"
   xmlns:cc="http://creativecommons.org/ns#"
   xmlns:rdf="http://www.w3.org/1999/02/22-rdf-syntax-ns#"
   xmlns:svg="http://www.w3.org/2000/svg"
   xmlns="http://www.w3.org/2000/svg"
   xmlns:sodipodi="http://sodipodi.sourceforge.net/DTD/sodipodi-0.dtd"
   xmlns:inkscape="http://www.inkscape.org/namespaces/inkscape"
   height="16"
   width="16"
   version="1.1"
   id="svg4"
   sodipodi:docname="folder-videos-symbolic.svg"
   inkscape:version="0.92.3 (2405546, 2018-03-11)">
  <metadata
     id="metadata10">
    <rdf:RDF>
      <cc:Work
         rdf:about="">
        <dc:format>image/svg+xml</dc:format>
        <dc:type
           rdf:resource="http://purl.org/dc/dcmitype/StillImage" />
      </cc:Work>
    </rdf:RDF>
  </metadata>
  <defs
     id="defs8" />
  <sodipodi:namedview
     pagecolor="#ffffff"
     bordercolor="#666666"
     borderopacity="1"
     objecttolerance="10"
     gridtolerance="10"
     guidetolerance="10"
     inkscape:pageopacity="0"
     inkscape:pageshadow="2"
     inkscape:window-width="1920"
     inkscape:window-height="1539"
     id="namedview6"
     showgrid="false"
     inkscape:zoom="41.7193"
     inkscape:cx="12.341861"
     inkscape:cy="8.5865594"
     inkscape:window-x="0"
     inkscape:window-y="27"
     inkscape:window-maximized="0"
     inkscape:current-layer="svg4" />
  <path
     id="rect819"
     style="fill:#808080;fill-opacity:1;stroke:none;stroke-width:0.49018681;stroke-linecap:butt;stroke-linejoin:bevel;stroke-miterlimit:4;stroke-dasharray:none;stroke-opacity:1;paint-order:fill markers stroke"
     d="m -7.1068114,-13.247897 v 7.5000004 l -15.9999996,-3.75 z m -14.3186446,-1.25 h 8.637289 c 0.931471,0 1.681356,0.937356 1.681356,2.101695 v 5.7966104 c 0,1.164339 -0.749885,2.101695 -1.681356,2.101695 h -8.637289 c -0.931471,0 -1.681355,-0.937356 -1.681355,-2.101695 v -5.7966104 c 0,-1.164339 0.749884,-2.101695 1.681355,-2.101695 z"
     inkscape:connector-curvature="0" />
  <path
     style="fill:#808080;fill-opacity:1;stroke:none;stroke-width:0.92186189;stroke-linecap:butt;stroke-linejoin:bevel;stroke-miterlimit:4;stroke-dasharray:none;stroke-opacity:1;paint-order:fill markers stroke"
     d="M 10.253906 0 C 9.9755743 0 9.733032 0.12405178 9.5605469 0.31445312 L 6.7929688 0.31445312 L 4.1328125 2.9746094 L 1.2714844 2.9746094 C 0.78675406 2.9746094 0.39648438 3.3648791 0.39648438 3.8496094 L 0.39648438 9.6523438 C 0.39648438 10.137074 0.78675406 10.527344 1.2714844 10.527344 L 3.84375 10.527344 L 2.375 16 L 3.6816406 16 L 5.1464844 10.527344 L 5.2207031 10.527344 L 5.2207031 16 L 6.4785156 16 L 6.4785156 10.527344 L 6.5527344 10.527344 L 8.0195312 16 L 9.3222656 16 L 7.8574219 10.527344 L 9.5917969 10.527344 C 10.076527 10.527344 10.466797 10.137074 10.466797 9.6523438 L 10.466797 8.6386719 L 10.939453 8.6386719 L 12.333984 9.8984375 L 13.59375 9.8984375 L 13.59375 3.6054688 L 12.333984 3.6054688 L 10.939453 4.8632812 L 10.466797 4.8632812 L 10.466797 3.8496094 C 10.466797 3.3648791 10.076527 2.9746094 9.5917969 2.9746094 L 5.9140625 2.9746094 L 7.3144531 1.5742188 L 9.5605469 1.5742188 C 9.7329971 1.7640072 9.9760873 1.8886719 10.253906 1.8886719 L 14.660156 1.8886719 C 15.183155 1.8886719 15.603516 1.4663579 15.603516 0.94335938 C 15.603516 0.42036088 15.183155 -3.202441e-17 14.660156 0 L 10.253906 0 z "
     id="rect847" />
</svg>
