<?xml version="1.0" encoding="UTF-8" standalone="no"?>
<svg
   xmlns:dc="http://purl.org/dc/elements/1.1/"
   xmlns:cc="http://creativecommons.org/ns#"
   xmlns:rdf="http://www.w3.org/1999/02/22-rdf-syntax-ns#"
   xmlns:svg="http://www.w3.org/2000/svg"
   xmlns="http://www.w3.org/2000/svg"
   xmlns:sodipodi="http://sodipodi.sourceforge.net/DTD/sodipodi-0.dtd"
   xmlns:inkscape="http://www.inkscape.org/namespaces/inkscape"
   height="16"
   width="16"
   version="1.1"
   id="svg4"
   sodipodi:docname="folder-documents-symbolic.svg"
   inkscape:version="0.92.3 (2405546, 2018-03-11)">
  <metadata
     id="metadata10">
    <rdf:RDF>
      <cc:Work
         rdf:about="">
        <dc:format>image/svg+xml</dc:format>
        <dc:type
           rdf:resource="http://purl.org/dc/dcmitype/StillImage" />
      </cc:Work>
    </rdf:RDF>
  </metadata>
  <defs
     id="defs8" />
  <sodipodi:namedview
     pagecolor="#ffffff"
     bordercolor="#666666"
     borderopacity="1"
     objecttolerance="10"
     gridtolerance="10"
     guidetolerance="10"
     inkscape:pageopacity="0"
     inkscape:pageshadow="2"
     inkscape:window-width="1920"
     inkscape:window-height="1019"
     id="namedview6"
     showgrid="false"
     inkscape:zoom="10.429825"
     inkscape:cx="-3.0461711"
     inkscape:cy="9.1419376"
     inkscape:window-x="0"
     inkscape:window-y="27"
     inkscape:window-maximized="1"
     inkscape:current-layer="svg4" />
  <path
     inkscape:connector-curvature="0"
     style="display:inline;opacity:1;fill:#808080;fill-opacity:1;stroke:none;stroke-width:0.09759128;stroke-linecap:butt;stroke-linejoin:bevel;stroke-miterlimit:4;stroke-dasharray:none;stroke-opacity:1;paint-order:fill markers stroke"
     d="M 2.5039057,0 C 1.6705387,0 0.99999965,0.6705388 0.99999965,1.5039054 V 14.496095 C 0.99999965,15.329461 1.6705396,16 2.5039057,16 H 13.496095 C 14.329461,16 15,15.329461 15,14.496095 V 1.5039054 C 15,0.6705388 14.329461,0 13.496095,0 Z M 3.4999996,2.0175777 H 12.5 c 0.277001,0 0.500001,0.2229998 0.500001,0.4999995 0,0.2770005 -0.223,0.5000004 -0.500001,0.5000004 H 3.4999996 c -0.277,0 -0.5,-0.2229999 -0.5,-0.5000004 0,-0.2769997 0.223,-0.4999995 0.5,-0.4999995 z m 0,1.9999998 H 12.5 c 0.277001,0 0.500001,0.2229998 0.500001,0.5000004 0,0.2769996 -0.223,0.4999995 -0.500001,0.4999995 H 3.4999996 c -0.277,0 -0.5,-0.2229999 -0.5,-0.4999995 0,-0.2770006 0.223,-0.5000004 0.5,-0.5000004 z m 0,1.9999998 H 12.5 c 0.277001,0 0.500001,0.2230007 0.500001,0.5000004 0,0.2770005 -0.223,0.5000003 -0.500001,0.5000003 H 3.4999996 c -0.277,0 -0.5,-0.2229998 -0.5,-0.5000003 0,-0.2769997 0.223,-0.5000004 0.5,-0.5000004 z m 0,2.0000006 h 4 c 0.277,0 0.5,0.2229999 0.5,0.4999996 0,0.2770005 -0.223,0.5000005 -0.5,0.5000005 h -4 c -0.277,0 -0.5,-0.223 -0.5,-0.5000005 0,-0.2769997 0.223,-0.4999996 0.5,-0.4999996 z"
     id="rect1133" />
</svg>
