<?xml version="1.0" encoding="UTF-8" standalone="no"?>
<svg
   xmlns:dc="http://purl.org/dc/elements/1.1/"
   xmlns:cc="http://creativecommons.org/ns#"
   xmlns:rdf="http://www.w3.org/1999/02/22-rdf-syntax-ns#"
   xmlns:svg="http://www.w3.org/2000/svg"
   xmlns="http://www.w3.org/2000/svg"
   xmlns:sodipodi="http://sodipodi.sourceforge.net/DTD/sodipodi-0.dtd"
   xmlns:inkscape="http://www.inkscape.org/namespaces/inkscape"
   height="16"
   width="16"
   version="1.1"
   id="svg8"
   sodipodi:docname="folder-templates-symbolic.svg"
   inkscape:version="0.92.3 (2405546, 2018-03-11)">
  <metadata
     id="metadata14">
    <rdf:RDF>
      <cc:Work
         rdf:about="">
        <dc:format>image/svg+xml</dc:format>
        <dc:type
           rdf:resource="http://purl.org/dc/dcmitype/StillImage" />
      </cc:Work>
    </rdf:RDF>
  </metadata>
  <defs
     id="defs12">
    <inkscape:perspective
       sodipodi:type="inkscape:persp3d"
       inkscape:vp_x="0 : 8 : 1"
       inkscape:vp_y="0 : 1000 : 0"
       inkscape:vp_z="16 : 8 : 1"
       inkscape:persp3d-origin="8 : 5.3333333 : 1"
       id="perspective875" />
    <filter
       style="color-interpolation-filters:sRGB"
       inkscape:label="Drop Shadow"
       id="filter8447">
      <feFlood
         flood-opacity="0.498039"
         flood-color="rgb(0,0,0)"
         result="flood"
         id="feFlood8437" />
      <feComposite
         in="flood"
         in2="SourceGraphic"
         operator="in"
         result="composite1"
         id="feComposite8439" />
      <feGaussianBlur
         in="composite1"
         stdDeviation="0.5"
         result="blur"
         id="feGaussianBlur8441" />
      <feOffset
         dx="0"
         dy="0"
         result="offset"
         id="feOffset8443" />
      <feComposite
         in="offset"
         in2="SourceGraphic"
         operator="out"
         result="composite2"
         id="feComposite8445" />
    </filter>
  </defs>
  <sodipodi:namedview
     pagecolor="#ffffff"
     bordercolor="#666666"
     borderopacity="1"
     objecttolerance="10"
     gridtolerance="10"
     guidetolerance="10"
     inkscape:pageopacity="0"
     inkscape:pageshadow="2"
     inkscape:window-width="1920"
     inkscape:window-height="1539"
     id="namedview10"
     showgrid="false"
     inkscape:zoom="41.7193"
     inkscape:cx="7.9490923"
     inkscape:cy="11.963926"
     inkscape:window-x="1920"
     inkscape:window-y="27"
     inkscape:window-maximized="0"
     inkscape:current-layer="svg8" />
  <rect
     style="fill:#808080;fill-opacity:1;stroke:none;stroke-width:0.38867566;stroke-linecap:butt;stroke-linejoin:bevel;stroke-miterlimit:4;stroke-dasharray:none;stroke-opacity:1;paint-order:fill markers stroke"
     id="rect891"
     width="1.0958904"
     height="3.2876711"
     x="7.452055"
     y="-0.023969466" />
  <path
     style="fill:#808080;fill-opacity:1;stroke:none;stroke-width:0.44715559;stroke-linecap:butt;stroke-linejoin:bevel;stroke-miterlimit:4;stroke-dasharray:none;stroke-opacity:1;paint-order:fill markers stroke"
     d="M 8.0000001,2.713899 A 2.739726,2.739726 0 0 0 5.2602741,5.4536255 2.739726,2.739726 0 0 0 8.0000001,8.1933515 2.739726,2.739726 0 0 0 10.739726,5.4536255 2.739726,2.739726 0 0 0 8.0000001,2.713899 Z m 0,1.0958904 A 1.6438356,1.6438356 0 0 1 9.6438357,5.4536255 1.6438356,1.6438356 0 0 1 8.0000001,7.0974611 1.6438356,1.6438356 0 0 1 6.3561645,5.4536255 1.6438356,1.6438356 0 0 1 8.0000001,3.8097894 Z"
     id="path893-3"
     inkscape:connector-curvature="0" />
  <path
     style="fill:#808080;fill-opacity:1;stroke:none;stroke-width:0.63470465;stroke-linecap:butt;stroke-linejoin:bevel;stroke-miterlimit:4;stroke-dasharray:none;stroke-opacity:1;paint-order:fill markers stroke"
     d="M 6.3925781 7.2246094 L 5.1835938 11.740234 L 5.1835938 15.976562 L 7.4511719 7.5078125 L 6.3925781 7.2246094 z "
     id="rect891-6" />
  <path
     style="fill:#808080;fill-opacity:1;stroke:none;stroke-width:0.63470465;stroke-linecap:butt;stroke-linejoin:bevel;stroke-miterlimit:4;stroke-dasharray:none;stroke-opacity:1;paint-order:fill markers stroke"
     d="M 9.6074219 7.2246094 L 8.5488281 7.5078125 L 10.816406 15.976562 L 10.816406 11.740234 L 9.6074219 7.2246094 z "
     id="rect891-6-7" />
  <path
     style="fill:#808080;fill-opacity:1;stroke:none;stroke-width:0.55373454;stroke-linecap:butt;stroke-linejoin:bevel;stroke-miterlimit:4;stroke-dasharray:none;stroke-opacity:1;paint-order:fill markers stroke"
     d="M 4.2871094 8.1933594 A 4 4 0 0 0 4.2988281 8.21875 L 4.2988281 8.1933594 L 4.2871094 8.1933594 z M 5.3945312 8.1933594 L 5.3945312 9.7421875 A 4 4 0 0 0 8 10.714844 A 4 4 0 0 0 10.619141 9.7324219 L 10.619141 8.1933594 L 10.607422 8.1933594 A 3 3 0 0 1 8 9.7148438 A 3 3 0 0 1 5.3945312 8.1933594 z "
     id="path999" />
</svg>
