<?xml version="1.0" encoding="UTF-8" standalone="no"?>
<svg
   xmlns:dc="http://purl.org/dc/elements/1.1/"
   xmlns:cc="http://creativecommons.org/ns#"
   xmlns:rdf="http://www.w3.org/1999/02/22-rdf-syntax-ns#"
   xmlns:svg="http://www.w3.org/2000/svg"
   xmlns="http://www.w3.org/2000/svg"
   xmlns:sodipodi="http://sodipodi.sourceforge.net/DTD/sodipodi-0.dtd"
   xmlns:inkscape="http://www.inkscape.org/namespaces/inkscape"
   height="16"
   width="16"
   version="1.1"
   id="svg4"
   sodipodi:docname="folder-documents-symbolic.svg"
   inkscape:version="0.92.3 (2405546, 2018-03-11)">
  <metadata
     id="metadata10">
    <rdf:RDF>
      <cc:Work
         rdf:about="">
        <dc:format>image/svg+xml</dc:format>
        <dc:type
           rdf:resource="http://purl.org/dc/dcmitype/StillImage" />
      </cc:Work>
    </rdf:RDF>
  </metadata>
  <defs
     id="defs8" />
  <sodipodi:namedview
     pagecolor="#ffffff"
     bordercolor="#666666"
     borderopacity="1"
     objecttolerance="10"
     gridtolerance="10"
     guidetolerance="10"
     inkscape:pageopacity="0"
     inkscape:pageshadow="2"
     inkscape:window-width="1920"
     inkscape:window-height="1539"
     id="namedview6"
     showgrid="false"
     inkscape:zoom="20.85965"
     inkscape:cx="15.269025"
     inkscape:cy="-6.8940641"
     inkscape:window-x="635"
     inkscape:window-y="187"
     inkscape:window-maximized="0"
     inkscape:current-layer="svg4" />
  <path
     style="opacity:0.93999999;fill:#1a1a1a;fill-opacity:1;stroke:none;stroke-width:0.09759127;stroke-linecap:butt;stroke-linejoin:bevel;stroke-miterlimit:4;stroke-dasharray:none;stroke-opacity:1;paint-order:fill markers stroke"
     d="M 2.5039062 0 C 1.6705387 0 1 0.67053886 1 1.5039062 L 1 14.496094 C 1 15.329461 1.6705387 16 2.5039062 16 L 13.496094 16 C 14.329461 16 15 15.329461 15 14.496094 L 15 1.5039062 C 15 0.67053886 14.329461 -1.4802974e-16 13.496094 0 L 2.5039062 0 z M 3.5 2.0175781 L 12.5 2.0175781 C 12.777 2.0175781 13 2.2405781 13 2.5175781 C 13 2.7945781 12.777 3.0175781 12.5 3.0175781 L 3.5 3.0175781 C 3.223 3.0175781 3 2.7945781 3 2.5175781 C 3 2.2405781 3.223 2.0175781 3.5 2.0175781 z M 3.5 4.0175781 L 12.5 4.0175781 C 12.777 4.0175781 13 4.2405781 13 4.5175781 C 13 4.7945781 12.777 5.0175781 12.5 5.0175781 L 3.5 5.0175781 C 3.223 5.0175781 3 4.7945781 3 4.5175781 C 3 4.2405781 3.223 4.0175781 3.5 4.0175781 z M 3.5 6.0175781 L 12.5 6.0175781 C 12.777 6.0175781 13 6.2405781 13 6.5175781 C 13 6.7945781 12.777 7.0175781 12.5 7.0175781 L 3.5 7.0175781 C 3.223 7.0175781 3 6.7945781 3 6.5175781 C 3 6.2405781 3.223 6.0175781 3.5 6.0175781 z M 3.5 8.0175781 L 7.5 8.0175781 C 7.777 8.0175781 8 8.2405781 8 8.5175781 C 8 8.7945781 7.777 9.0175781 7.5 9.0175781 L 3.5 9.0175781 C 3.223 9.0175781 3 8.7945781 3 8.5175781 C 3 8.2405781 3.223 8.0175781 3.5 8.0175781 z "
     id="rect1133" />
</svg>
