<?xml version="1.0" encoding="UTF-8" standalone="no"?>
<svg
   xmlns:dc="http://purl.org/dc/elements/1.1/"
   xmlns:cc="http://creativecommons.org/ns#"
   xmlns:rdf="http://www.w3.org/1999/02/22-rdf-syntax-ns#"
   xmlns:svg="http://www.w3.org/2000/svg"
   xmlns="http://www.w3.org/2000/svg"
   xmlns:sodipodi="http://sodipodi.sourceforge.net/DTD/sodipodi-0.dtd"
   xmlns:inkscape="http://www.inkscape.org/namespaces/inkscape"
   height="16.001"
   width="16"
   version="1.1"
   id="svg4"
   sodipodi:docname="user-trash-symbolic-fill.svg"
   inkscape:version="0.92.3 (2405546, 2018-03-11)">
  <metadata
     id="metadata10">
    <rdf:RDF>
      <cc:Work
         rdf:about="">
        <dc:format>image/svg+xml</dc:format>
        <dc:type
           rdf:resource="http://purl.org/dc/dcmitype/StillImage" />
      </cc:Work>
    </rdf:RDF>
  </metadata>
  <defs
     id="defs8" />
  <sodipodi:namedview
     pagecolor="#ffffff"
     bordercolor="#666666"
     borderopacity="1"
     objecttolerance="10"
     gridtolerance="10"
     guidetolerance="10"
     inkscape:pageopacity="0"
     inkscape:pageshadow="2"
     inkscape:window-width="978"
     inkscape:window-height="1019"
     id="namedview6"
     showgrid="false"
     inkscape:zoom="20.858347"
     inkscape:cx="7.1504691"
     inkscape:cy="8.2439075"
     inkscape:window-x="942"
     inkscape:window-y="27"
     inkscape:window-maximized="0"
     inkscape:current-layer="svg4" />
  <path
     style="display:inline;opacity:1;fill:#7f7f7f;fill-opacity:1;stroke:none;stroke-width:0.03935132;stroke-linecap:butt;stroke-linejoin:bevel;stroke-miterlimit:4;stroke-dasharray:none;stroke-opacity:1;paint-order:fill markers stroke"
     d="M 7.6035156 6.2402344 C 7.2674807 6.2402344 6.9980469 6.5096682 6.9980469 6.8457031 L 6.9980469 7.6953125 L 12.642578 7.6953125 L 12.642578 6.8457031 C 12.642578 6.5096682 12.37119 6.2402344 12.035156 6.2402344 L 7.6035156 6.2402344 z M 8.0058594 7.0527344 L 11.634766 7.0527344 C 11.746459 7.0527344 11.835937 7.1422124 11.835938 7.2539062 C 11.835938 7.3655998 11.746458 7.4570313 11.634766 7.4570312 L 8.0058594 7.4570312 C 7.8941658 7.4570312 7.8046875 7.3656001 7.8046875 7.2539062 C 7.8046875 7.1422127 7.8941655 7.0527344 8.0058594 7.0527344 z "
     id="rect1133-6" />
  <path
     style="display:inline;opacity:1;fill:#7f7f7f;fill-opacity:1;stroke:none;stroke-width:0.03935132;stroke-linecap:butt;stroke-linejoin:bevel;stroke-miterlimit:4;stroke-dasharray:none;stroke-opacity:1;paint-order:fill markers stroke"
     d="M 9.2851562 2.4667969 C 8.9491214 2.4667969 8.6777344 2.7381839 8.6777344 3.0742188 L 8.6777344 7.796875 L 14.324219 7.796875 L 14.324219 3.0742188 C 14.324219 2.7381838 14.052832 2.4667969 13.716797 2.4667969 L 9.2851562 2.4667969 z M 9.6855469 3.28125 L 13.314453 3.28125 C 13.426147 3.28125 13.517578 3.370728 13.517578 3.4824219 C 13.517578 3.5941154 13.426146 3.6835937 13.314453 3.6835938 L 9.6855469 3.6835938 C 9.5738533 3.6835938 9.484375 3.5941158 9.484375 3.4824219 C 9.484375 3.3707283 9.573853 3.28125 9.6855469 3.28125 z M 9.6855469 4.0878906 L 13.314453 4.0878906 C 13.426147 4.0878906 13.517578 4.1773686 13.517578 4.2890625 C 13.517578 4.4007561 13.426146 4.4902344 13.314453 4.4902344 L 9.6855469 4.4902344 C 9.5738533 4.4902344 9.484375 4.4007564 9.484375 4.2890625 C 9.484375 4.177369 9.573853 4.0878906 9.6855469 4.0878906 z M 9.6855469 4.8945312 L 13.314453 4.8945312 C 13.426147 4.8945312 13.517578 4.9840092 13.517578 5.0957031 C 13.517578 5.2073967 13.426146 5.296875 13.314453 5.296875 L 9.6855469 5.296875 C 9.5738533 5.296875 9.484375 5.207397 9.484375 5.0957031 C 9.484375 4.9840096 9.573853 4.8945312 9.6855469 4.8945312 z M 9.6855469 5.7011719 L 11.298828 5.7011719 C 11.410522 5.7011719 11.5 5.7906499 11.5 5.9023438 C 11.5 6.0140372 11.410521 6.1035156 11.298828 6.1035156 L 9.6855469 6.1035156 C 9.5738533 6.1035156 9.484375 6.0140375 9.484375 5.9023438 C 9.484375 5.7906502 9.573853 5.7011719 9.6855469 5.7011719 z "
     id="rect1133" />
  <path
     style="display:inline;opacity:1;fill:#7f7f7f;fill-opacity:1;stroke:none;stroke-width:0.03935132;stroke-linecap:butt;stroke-linejoin:bevel;stroke-miterlimit:4;stroke-dasharray:none;stroke-opacity:1;paint-order:fill markers stroke"
     d="M 2.6347656 3.8632812 C 2.2987308 3.8632812 2.0292969 4.1327151 2.0292969 4.46875 L 2.0292969 7.796875 L 7.6738281 7.796875 L 7.6738281 4.46875 C 7.6738281 4.1327151 7.4043942 3.8632812 7.0683594 3.8632812 L 2.6347656 3.8632812 z M 3.0371094 4.6757812 L 6.6660156 4.6757812 C 6.7777092 4.6757812 6.8671875 4.7672124 6.8671875 4.8789062 C 6.8671875 4.9905998 6.7777095 5.0800781 6.6660156 5.0800781 L 3.0371094 5.0800781 C 2.9254159 5.0800781 2.8359375 4.9906001 2.8359375 4.8789062 C 2.8359375 4.7672127 2.9254155 4.6757812 3.0371094 4.6757812 z M 3.0371094 5.4824219 L 6.6660156 5.4824219 C 6.7777092 5.4824219 6.8671875 5.573853 6.8671875 5.6855469 C 6.8671875 5.7972405 6.7777095 5.8867187 6.6660156 5.8867188 L 3.0371094 5.8867188 C 2.9254159 5.8867188 2.8359375 5.7972408 2.8359375 5.6855469 C 2.8359375 5.5738534 2.9254155 5.4824219 3.0371094 5.4824219 z M 3.0371094 6.2890625 L 6.6660156 6.2890625 C 6.7777092 6.2890625 6.8671875 6.3804936 6.8671875 6.4921875 C 6.8671875 6.603881 6.7777095 6.6933594 6.6660156 6.6933594 L 3.0371094 6.6933594 C 2.9254159 6.6933594 2.8359375 6.6038814 2.8359375 6.4921875 C 2.8359375 6.3804939 2.9254155 6.2890625 3.0371094 6.2890625 z M 3.0371094 7.0957031 L 4.6503906 7.0957031 C 4.7620841 7.0957031 4.8515625 7.1851811 4.8515625 7.296875 C 4.8515625 7.4085686 4.7620845 7.5 4.6503906 7.5 L 3.0371094 7.5 C 2.9254159 7.5 2.8359375 7.4085689 2.8359375 7.296875 C 2.8359375 7.1851815 2.9254155 7.0957031 3.0371094 7.0957031 z "
     id="rect1133-3" />
  <path
     style="fill:#7f7f7f;fill-opacity:1;stroke:none;stroke-width:0.07877508;stroke-linecap:butt;stroke-linejoin:bevel;stroke-miterlimit:4;stroke-dasharray:none;stroke-opacity:1;paint-order:fill markers stroke;opacity:1"
     d="M 2.546875 0 C 1.6899499 0 1 0.68994996 1 1.546875 L 1 14.453125 C 1 15.31005 1.6899499 16 2.546875 16 L 13.453125 16 C 14.31005 16 15 15.31005 15 14.453125 L 15 1.546875 C 15 0.68994996 14.31005 -1.4802974e-16 13.453125 0 L 2.546875 0 z M 2.171875 0.64648438 L 13.828125 0.64648438 C 14.173659 0.64648438 14.451172 0.92399698 14.451172 1.2695312 L 14.451172 6.4726562 C 14.451172 6.8181905 14.173659 7.0976562 13.828125 7.0976562 L 2.171875 7.0976562 C 1.8263407 7.0976562 1.5488281 6.8181906 1.5488281 6.4726562 L 1.5488281 1.2695312 C 1.5488281 0.92399698 1.8263407 0.64648437 2.171875 0.64648438 z M 7.015625 8.3222656 L 8.4003906 8.3222656 L 8.9941406 8.3222656 L 9.4296875 9.0761719 L 9.875 8.8183594 L 9.6699219 10.521484 L 8.09375 9.8476562 L 8.5390625 9.5898438 L 8.0253906 8.6992188 L 8.0058594 8.6660156 L 7.8144531 8.9960938 L 6.7871094 10.777344 L 5.8964844 10.263672 L 6.9238281 8.4824219 L 7.015625 8.3222656 z M 10.3125 10.605469 L 11.341797 12.386719 L 11.433594 12.546875 L 10.740234 13.746094 L 10.443359 14.259766 L 9.5742188 14.259766 L 9.5742188 14.775391 L 8.203125 13.746094 L 9.5742188 12.71875 L 9.5742188 13.232422 L 10.603516 13.232422 L 10.640625 13.232422 L 10.451172 12.902344 L 9.421875 11.121094 L 10.3125 10.605469 z M 6.1425781 10.863281 L 6.3476562 12.564453 L 5.9023438 12.308594 L 5.3886719 13.199219 L 5.3691406 13.232422 L 5.75 13.232422 L 7.8066406 13.232422 L 7.8066406 14.259766 L 5.75 14.259766 L 5.5664062 14.259766 L 4.875 13.060547 L 4.578125 12.546875 L 5.0117188 11.792969 L 4.5664062 11.537109 L 6.1425781 10.863281 z "
     id="rect1096-3" />
</svg>
