<?xml version="1.0" encoding="UTF-8" standalone="no"?>
<svg
   xmlns:dc="http://purl.org/dc/elements/1.1/"
   xmlns:cc="http://creativecommons.org/ns#"
   xmlns:rdf="http://www.w3.org/1999/02/22-rdf-syntax-ns#"
   xmlns:svg="http://www.w3.org/2000/svg"
   xmlns="http://www.w3.org/2000/svg"
   xmlns:sodipodi="http://sodipodi.sourceforge.net/DTD/sodipodi-0.dtd"
   xmlns:inkscape="http://www.inkscape.org/namespaces/inkscape"
   height="16"
   width="16"
   version="1.1"
   id="svg4"
   sodipodi:docname="document-open-symbolic.svg"
   inkscape:version="0.92.3 (2405546, 2018-03-11)">
  <metadata
     id="metadata10">
    <rdf:RDF>
      <cc:Work
         rdf:about="">
        <dc:format>image/svg+xml</dc:format>
        <dc:type
           rdf:resource="http://purl.org/dc/dcmitype/StillImage" />
      </cc:Work>
    </rdf:RDF>
  </metadata>
  <defs
     id="defs8" />
  <sodipodi:namedview
     pagecolor="#ffffff"
     bordercolor="#666666"
     borderopacity="1"
     objecttolerance="10"
     gridtolerance="10"
     guidetolerance="10"
     inkscape:pageopacity="0"
     inkscape:pageshadow="2"
     inkscape:window-width="1920"
     inkscape:window-height="1019"
     id="namedview6"
     showgrid="false"
     inkscape:zoom="10.429825"
     inkscape:cx="-17.042517"
     inkscape:cy="1.6626409"
     inkscape:window-x="0"
     inkscape:window-y="27"
     inkscape:window-maximized="0"
     inkscape:current-layer="svg4" />
  <path
     style="fill:none;fill-opacity:1;stroke:#808080;stroke-width:0.94117647;stroke-miterlimit:4;stroke-dasharray:none;stroke-opacity:1"
     d="m 1.920697,1.3071889 h 2.732897 l 1.254902,1.254902 h 8.170807 c 0.803359,0 1.450109,0.646722 1.450109,1.450081 v 9.2305301 c 0,0.80336 -0.64675,1.450109 -1.450109,1.450109 H 1.920697 c -0.803361,0 -1.450109,-0.646749 -1.450109,-1.450109 V 2.7572979 c 0,-0.80336 0.646748,-1.450109 1.450109,-1.450109 z"
     id="rect1188"
     inkscape:connector-curvature="0"
     sodipodi:nodetypes="sccssssssss" />
  <path
     style="fill:none;fill-opacity:1;stroke:#808080;stroke-width:0.94117647;stroke-miterlimit:4;stroke-dasharray:none;stroke-opacity:1"
     d="m 1.648801,5.0718959 h 3.841395 l 1.254902,-1.254902 h 7.606101 c 0.652729,0 1.178213,0.525483 1.178213,1.178213 v 8.5193901 c 0,0.65273 -0.525484,1.178214 -1.178213,1.178214 H 1.648801 c -0.65273,0 -1.178213,-0.525484 -1.178213,-1.178214 V 6.2500809 c 0,-0.65273 0.525483,-1.178185 1.178213,-1.178185 z"
     id="rect1188-3"
     inkscape:connector-curvature="0"
     sodipodi:nodetypes="sccssssssss" />
  <path
     inkscape:connector-curvature="0"
     style="display:inline;opacity:1;fill:#808080;fill-opacity:1;stroke:none;stroke-width:0.03659673;stroke-linecap:butt;stroke-linejoin:bevel;stroke-miterlimit:4;stroke-dasharray:none;stroke-opacity:1;paint-order:fill markers stroke"
     d="m 5.938965,6.2549022 c -0.3125125,0 -0.563965,0.251452 -0.563965,0.563964 v 4.8720708 c 0,0.312512 0.2514525,0.563966 0.563965,0.563966 h 4.12207 c 0.312513,0 0.563965,-0.251453 0.563965,-0.563965 V 6.8188662 c 0,-0.312512 -0.251452,-0.563964 -0.563965,-0.563964 z M 6.3125,7.0114932 h 3.375 c 0.1038755,0 0.1875005,0.08363 0.1875005,0.1875 0,0.103875 -0.083625,0.1875 -0.1875005,0.1875 h -3.375 c -0.103875,0 -0.1875,-0.08363 -0.1875,-0.1875 0,-0.103875 0.083625,-0.1875 0.1875,-0.1875 z m 0,0.75 h 3.375 c 0.1038755,0 0.1875005,0.08363 0.1875005,0.1875 0,0.103875 -0.083625,0.1875 -0.1875005,0.1875 h -3.375 c -0.103875,0 -0.1875,-0.08363 -0.1875,-0.1875 0,-0.103875 0.083625,-0.1875 0.1875,-0.1875 z m 0,0.75 h 3.375 c 0.1038755,0 0.1875005,0.08363 0.1875005,0.1875 0,0.103875 -0.083625,0.1875 -0.1875005,0.1875 h -3.375 c -0.103875,0 -0.1875,-0.08363 -0.1875,-0.1875 0,-0.103875 0.083625,-0.1875 0.1875,-0.1875 z m 0,0.750001 h 1.5 c 0.103875,0 0.1875,0.08362 0.1875,0.1875 0,0.103875 -0.083625,0.1875 -0.1875,0.1875 h -1.5 c -0.103875,0 -0.1875,-0.08363 -0.1875,-0.1875 0,-0.103875 0.083625,-0.1875 0.1875,-0.1875 z"
     id="rect1133" />
</svg>
