<?xml version="1.0" encoding="UTF-8" standalone="no"?>
<svg
   xmlns:dc="http://purl.org/dc/elements/1.1/"
   xmlns:cc="http://creativecommons.org/ns#"
   xmlns:rdf="http://www.w3.org/1999/02/22-rdf-syntax-ns#"
   xmlns:svg="http://www.w3.org/2000/svg"
   xmlns="http://www.w3.org/2000/svg"
   xmlns:sodipodi="http://sodipodi.sourceforge.net/DTD/sodipodi-0.dtd"
   xmlns:inkscape="http://www.inkscape.org/namespaces/inkscape"
   height="16"
   width="16"
   version="1.1"
   id="svg4"
   sodipodi:docname="document-print-symbolic.svg"
   inkscape:version="0.92.3 (2405546, 2018-03-11)">
  <metadata
     id="metadata10">
    <rdf:RDF>
      <cc:Work
         rdf:about="">
        <dc:format>image/svg+xml</dc:format>
        <dc:type
           rdf:resource="http://purl.org/dc/dcmitype/StillImage" />
      </cc:Work>
    </rdf:RDF>
  </metadata>
  <defs
     id="defs8" />
  <sodipodi:namedview
     pagecolor="#ffffff"
     bordercolor="#666666"
     borderopacity="1"
     objecttolerance="10"
     gridtolerance="10"
     guidetolerance="10"
     inkscape:pageopacity="0"
     inkscape:pageshadow="2"
     inkscape:window-width="1920"
     inkscape:window-height="1539"
     id="namedview6"
     showgrid="false"
     inkscape:zoom="29.5"
     inkscape:cx="7.3894329"
     inkscape:cy="-0.61585229"
     inkscape:window-x="0"
     inkscape:window-y="27"
     inkscape:window-maximized="0"
     inkscape:current-layer="svg4" />
  <path
     style="opacity:1;fill:#808080;fill-opacity:1;stroke:none;stroke-width:0.85596955;stroke-linecap:butt;stroke-linejoin:bevel;stroke-miterlimit:4;stroke-dasharray:none;stroke-opacity:1;paint-order:fill markers stroke"
     d="m 2.7499997,2.8273305 c -0.4089897,0.051046 -0.6807506,0.3264983 -0.75,0.6674519 L 0.99999966,8.4176262 C 0.92357376,8.793914 1.3890926,9.1050712 1.8730466,9.1050712 H 2.7499997 V 5.652468 Z m 10.5000003,0 V 5.652468 9.1050712 h 0.876953 c 0.483954,0 0.949477,-0.3111572 0.873047,-0.687445 L 14,3.4947824 C 13.93082,3.1541611 13.658309,2.8787876 13.25,2.8273305 Z"
     id="rect895-3"
     inkscape:connector-curvature="0" />
  <path
     style="opacity:1;fill:#808080;fill-opacity:1;stroke:none;stroke-width:0.96462417;stroke-linecap:butt;stroke-linejoin:bevel;stroke-miterlimit:4;stroke-dasharray:none;stroke-opacity:1;paint-order:fill markers stroke"
     d="M 1.8730469 4 C 1.3890929 4 1 4.3890929 1 4.8730469 L 1 11.126953 C 1 11.610907 1.3890929 12 1.8730469 12 L 14.126953 12 C 14.610907 12 15 11.610907 15 11.126953 L 15 4.8730469 C 15 4.3890929 14.610907 4 14.126953 4 L 1.8730469 4 z M 2.1992188 5.0253906 A 0.25 0.25 0 0 1 2.2167969 5.0253906 A 0.25 0.25 0 0 1 2.4667969 5.2753906 A 0.25 0.25 0 0 1 2.2167969 5.5253906 A 0.25 0.25 0 0 1 1.9667969 5.2753906 A 0.25 0.25 0 0 1 2.1992188 5.0253906 z M 3.0371094 5.0253906 A 0.25 0.25 0 0 1 3.0546875 5.0253906 A 0.25 0.25 0 0 1 3.3046875 5.2753906 A 0.25 0.25 0 0 1 3.0546875 5.5253906 A 0.25 0.25 0 0 1 2.8046875 5.2753906 A 0.25 0.25 0 0 1 3.0371094 5.0253906 z M 3.8945312 5.0253906 L 4.8945312 5.0253906 C 5.0330313 5.0253906 5.1445312 5.1368906 5.1445312 5.2753906 C 5.1445312 5.4138906 5.0330312 5.5253906 4.8945312 5.5253906 L 3.8945312 5.5253906 C 3.7560312 5.5253906 3.6445314 5.4138906 3.6445312 5.2753906 C 3.6445312 5.1368906 3.7560312 5.0253906 3.8945312 5.0253906 z "
     id="rect895" />
  <path
     style="display:inline;opacity:0.5;fill:#808080;fill-opacity:1;stroke:none;stroke-width:0.07319346;stroke-linecap:butt;stroke-linejoin:bevel;stroke-miterlimit:4;stroke-dasharray:none;stroke-opacity:1;paint-order:fill markers stroke"
     d="M 3.876953,2.5e-7 C 3.251928,2.5e-7 2.75,0.50192935 2.75,1.1269534 v 4 5.7460936 4 C 2.75,15.498072 3.251928,16 3.876953,16 h 8.244141 C 12.74612,16 13.25,15.498072 13.25,14.873047 v -4 -5.7460937 -4 C 13.25,0.50192945 12.746119,2.5e-7 12.121094,2.5e-7 Z M 4.625,12.236328 h 6.75 c 0.20775,0 0.375,0.16725 0.375,0.375 0,0.20775 -0.16725,0.375 -0.375,0.375 h -6.75 c -0.207751,0 -0.375,-0.16725 -0.375,-0.375 0,-0.20775 0.167249,-0.375 0.375,-0.375 z m 0,1.5 h 6.75 c 0.20775,0 0.375,0.167249 0.375,0.375 0,0.207749 -0.16725,0.375 -0.375,0.375 h -6.75 c -0.207751,0 -0.375,-0.167251 -0.375,-0.375 0,-0.207751 0.167249,-0.375 0.375,-0.375 z"
     id="rect1133"
     inkscape:connector-curvature="0" />
</svg>
