<?xml version="1.0" encoding="UTF-8" standalone="no"?>
<svg
   xmlns:dc="http://purl.org/dc/elements/1.1/"
   xmlns:cc="http://creativecommons.org/ns#"
   xmlns:rdf="http://www.w3.org/1999/02/22-rdf-syntax-ns#"
   xmlns:svg="http://www.w3.org/2000/svg"
   xmlns="http://www.w3.org/2000/svg"
   xmlns:sodipodi="http://sodipodi.sourceforge.net/DTD/sodipodi-0.dtd"
   xmlns:inkscape="http://www.inkscape.org/namespaces/inkscape"
   height="16"
   width="16"
   version="1.1"
   id="svg4"
   sodipodi:docname="edit-redo-rtl-symbolic.svg"
   inkscape:version="0.92.3 (2405546, 2018-03-11)">
  <metadata
     id="metadata10">
    <rdf:RDF>
      <cc:Work
         rdf:about="">
        <dc:format>image/svg+xml</dc:format>
        <dc:type
           rdf:resource="http://purl.org/dc/dcmitype/StillImage" />
      </cc:Work>
    </rdf:RDF>
  </metadata>
  <defs
     id="defs8" />
  <sodipodi:namedview
     pagecolor="#ffffff"
     bordercolor="#666666"
     borderopacity="1"
     objecttolerance="10"
     gridtolerance="10"
     guidetolerance="10"
     inkscape:pageopacity="0"
     inkscape:pageshadow="2"
     inkscape:window-width="1920"
     inkscape:window-height="1539"
     id="namedview6"
     showgrid="false"
     inkscape:zoom="10.429825"
     inkscape:cx="22.394838"
     inkscape:cy="-24.448739"
     inkscape:window-x="1920"
     inkscape:window-y="27"
     inkscape:window-maximized="0"
     inkscape:current-layer="svg4" />
  <path
     style="opacity:1;fill:#808080;fill-opacity:1;stroke:none;stroke-width:0.80910057;stroke-linecap:butt;stroke-linejoin:bevel;stroke-miterlimit:4;stroke-dasharray:none;stroke-opacity:1;paint-order:fill markers stroke"
     d="M 15.25,10.607414 A 6.5,6.5 0 0 0 8.7499995,4.1074147 6.5,6.5 0 0 0 2.2617185,10.261712 L 1.3222654,9.3222585 0.75000039,9.8925719 2.1777212,11.322272 2.7500004,11.892572 3.3222655,11.322258 4.7500003,9.8925721 4.1777212,9.3222728 3.2695182,10.230476 a 5.5,5.5 0 0 1 5.4804688,-5.1230468 5.5,5.5 0 0 1 5.5,5.4999998 5.5,5.5 0 0 1 -0.158203,1.285156 h 1.023438 A 6.5,6.5 0 0 0 15.25,10.607414 Z"
     id="path823-3"
     inkscape:connector-curvature="0" />
  <path
     inkscape:connector-curvature="0"
     style="opacity:1;fill:#808080;fill-opacity:1;stroke:none;stroke-width:0.80910057;stroke-linecap:butt;stroke-linejoin:bevel;stroke-miterlimit:4;stroke-dasharray:none;stroke-opacity:1;paint-order:fill markers stroke"
     d="m 7.0641296,35.644027 a 6.5,6.5 0 0 0 -6.50000042,6.5 6.5,6.5 0 0 0 6.50000042,6.5 6.5,6.5 0 0 0 6.5000004,-6.5 6.5,6.5 0 0 0 -6.5000004,-6.5 z m 0,1 a 5.5,5.5 0 0 1 5.5000004,5.5 5.5,5.5 0 0 1 -5.5000004,5.5 5.5,5.5 0 0 1 -5.5000004,-5.5 5.5,5.5 0 0 1 5.5000004,-5.5 z"
     id="path823-3-6" />
  <path
     style="opacity:1;fill:#ff0000;fill-opacity:1;stroke:none;stroke-width:0.42798746;stroke-linecap:butt;stroke-linejoin:bevel;stroke-miterlimit:4;stroke-dasharray:none;stroke-opacity:1;paint-order:fill markers stroke"
     d="m 6.3498436,46.144027 -0.5714284,0.571428 1.4285704,1.428571 -1.4285704,1.428572 0.5714284,0.571429 1.428573,-1.428572 0.571427,-0.571429 -0.571427,-0.571428 z"
     id="rect816-3-7-5-7"
     inkscape:connector-curvature="0" />
</svg>
