<?xml version="1.0" encoding="UTF-8" standalone="no"?>
<svg
   xmlns:dc="http://purl.org/dc/elements/1.1/"
   xmlns:cc="http://creativecommons.org/ns#"
   xmlns:rdf="http://www.w3.org/1999/02/22-rdf-syntax-ns#"
   xmlns:svg="http://www.w3.org/2000/svg"
   xmlns="http://www.w3.org/2000/svg"
   xmlns:sodipodi="http://sodipodi.sourceforge.net/DTD/sodipodi-0.dtd"
   xmlns:inkscape="http://www.inkscape.org/namespaces/inkscape"
   height="16"
   width="16"
   version="1.1"
   id="svg4"
   sodipodi:docname="edit-find-replace-symbolic.svg"
   inkscape:version="0.92.3 (2405546, 2018-03-11)">
  <metadata
     id="metadata10">
    <rdf:RDF>
      <cc:Work
         rdf:about="">
        <dc:format>image/svg+xml</dc:format>
        <dc:type
           rdf:resource="http://purl.org/dc/dcmitype/StillImage" />
      </cc:Work>
    </rdf:RDF>
  </metadata>
  <defs
     id="defs8" />
  <sodipodi:namedview
     pagecolor="#ffffff"
     bordercolor="#666666"
     borderopacity="1"
     objecttolerance="10"
     gridtolerance="10"
     guidetolerance="10"
     inkscape:pageopacity="0"
     inkscape:pageshadow="2"
     inkscape:window-width="1920"
     inkscape:window-height="1539"
     id="namedview6"
     showgrid="false"
     inkscape:zoom="22.627417"
     inkscape:cx="-3.0013859"
     inkscape:cy="0.42879862"
     inkscape:window-x="1920"
     inkscape:window-y="27"
     inkscape:window-maximized="0"
     inkscape:current-layer="svg4" />
  <path
     style="opacity:1;fill:#808080;fill-opacity:1;stroke:none;stroke-width:0.13779043;stroke-linecap:butt;stroke-linejoin:bevel;stroke-miterlimit:4;stroke-dasharray:none;stroke-opacity:1;paint-order:fill markers stroke"
     d="m 3.4882759,11.153347 0.0054,0.0054 -0.246346,0.921529 -0.248175,0.919703 0.921527,-0.24635 0.921526,-0.24635 0.0054,0.0054 L 8.9242259,8.436101 13.000845,4.3594818 11.641363,3.0000013 7.5647439,7.0766189 Z m 0.487225,0.487224 0.385034,0.385033 -0.529194,0.335766 -0.53102,0.33759 0.339415,-0.529195 z"
     id="path818-3"
     inkscape:connector-curvature="0" />
  <path
     style="fill:#808080;fill-opacity:1;stroke:none;stroke-width:0.06901704;stroke-linecap:butt;stroke-linejoin:bevel;stroke-miterlimit:4;stroke-dasharray:none;stroke-opacity:1;paint-order:fill markers stroke"
     d="M 7.0165645,2.9999998 A 4.0165674,4.0165674 0 0 0 2.9999977,7.016567 4.0165674,4.0165674 0 0 0 7.0165645,11.033134 4.0165674,4.0165674 0 0 0 11.033132,7.016567 4.0165674,4.0165674 0 0 0 7.0165645,2.9999998 Z m 0,0.5020708 A 3.5144965,3.5144965 0 0 1 10.531061,7.016567 3.5144965,3.5144965 0 0 1 7.0165645,10.531063 3.5144965,3.5144965 0 0 1 3.5020684,7.016567 3.5144965,3.5144965 0 0 1 7.0165645,3.5020706 Z"
     id="path1099"
     inkscape:connector-curvature="0" />
  <circle
     style="display:inline;fill:#ffffff;fill-opacity:0.39215686;stroke:none;stroke-width:0.06038991;stroke-linecap:butt;stroke-linejoin:bevel;stroke-miterlimit:4;stroke-dasharray:none;stroke-opacity:1;paint-order:fill markers stroke;opacity:0.2"
     id="path1099-3-6"
     cx="7.0165644"
     cy="7.0165672"
     r="3.5144963" />
  <g
     id="g1151"
     transform="matrix(-0.07100355,-0.07100355,0.07100355,-0.07100355,-2.4432689,11.40242)"
     style="fill:#808080;fill-opacity:1">
    <rect
       ry="0"
       y="92.5"
       x="-115"
       height="10"
       width="30"
       id="rect1132"
       style="fill:#808080;fill-opacity:1;stroke:none;stroke-width:0.60001528;stroke-linecap:butt;stroke-linejoin:bevel;stroke-miterlimit:4;stroke-dasharray:none;stroke-opacity:1;paint-order:fill markers stroke" />
    <rect
       ry="0"
       y="95"
       x="-85"
       height="5"
       width="10"
       id="rect1132-7"
       style="display:inline;fill:#808080;fill-opacity:1;stroke:none;stroke-width:0.24495521;stroke-linecap:butt;stroke-linejoin:bevel;stroke-miterlimit:4;stroke-dasharray:none;stroke-opacity:1;paint-order:fill markers stroke" />
  </g>
</svg>
