<?xml version="1.0" encoding="UTF-8" standalone="no"?>
<svg
   xmlns:dc="http://purl.org/dc/elements/1.1/"
   xmlns:cc="http://creativecommons.org/ns#"
   xmlns:rdf="http://www.w3.org/1999/02/22-rdf-syntax-ns#"
   xmlns:svg="http://www.w3.org/2000/svg"
   xmlns="http://www.w3.org/2000/svg"
   xmlns:sodipodi="http://sodipodi.sourceforge.net/DTD/sodipodi-0.dtd"
   xmlns:inkscape="http://www.inkscape.org/namespaces/inkscape"
   height="16"
   width="16"
   version="1.1"
   id="svg4"
   sodipodi:docname="mark-location-symbolic.svg"
   inkscape:version="0.92.3 (2405546, 2018-03-11)">
  <metadata
     id="metadata10">
    <rdf:RDF>
      <cc:Work
         rdf:about="">
        <dc:format>image/svg+xml</dc:format>
        <dc:type
           rdf:resource="http://purl.org/dc/dcmitype/StillImage" />
      </cc:Work>
    </rdf:RDF>
  </metadata>
  <defs
     id="defs8" />
  <sodipodi:namedview
     pagecolor="#ffffff"
     bordercolor="#666666"
     borderopacity="1"
     objecttolerance="10"
     gridtolerance="10"
     guidetolerance="10"
     inkscape:pageopacity="0"
     inkscape:pageshadow="2"
     inkscape:window-width="1920"
     inkscape:window-height="1539"
     id="namedview6"
     showgrid="false"
     inkscape:zoom="59"
     inkscape:cx="5.0243537"
     inkscape:cy="7.7077225"
     inkscape:window-x="0"
     inkscape:window-y="27"
     inkscape:window-maximized="0"
     inkscape:current-layer="svg4" />
  <path
     style="color:#000000;display:inline;overflow:visible;visibility:visible;fill:#808080;fill-opacity:1;fill-rule:nonzero;stroke:none;stroke-width:0.38088405;marker:none;enable-background:accumulate"
     d="M 8,6.0761286e-4 C 5.2128604,6.0761286e-4 2.953125,2.2603433 2.953125,5.0474826 2.953125,9.193312 6.9194015,15.915475 8,15.998655 9.0805986,16.081845 13.046875,9.1101264 13.046875,5.0474826 13.046875,2.2603433 10.787139,6.0761286e-4 8,6.0761286e-4 Z M 8,1.2193576 A 3.8265133,3.8265133 0 0 1 11.826172,5.0474826 3.8265133,3.8265133 0 0 1 8,8.8736545 3.8265133,3.8265133 0 0 1 4.1738281,5.0474826 3.8265133,3.8265133 0 0 1 8,1.2193576 Z"
     id="path14659-1"
     inkscape:connector-curvature="0" />
</svg>
