<?xml version="1.0" encoding="UTF-8" standalone="no"?>
<svg
   xmlns:dc="http://purl.org/dc/elements/1.1/"
   xmlns:cc="http://creativecommons.org/ns#"
   xmlns:rdf="http://www.w3.org/1999/02/22-rdf-syntax-ns#"
   xmlns:svg="http://www.w3.org/2000/svg"
   xmlns="http://www.w3.org/2000/svg"
   xmlns:sodipodi="http://sodipodi.sourceforge.net/DTD/sodipodi-0.dtd"
   xmlns:inkscape="http://www.inkscape.org/namespaces/inkscape"
   height="16"
   width="16"
   version="1.1"
   id="svg4"
   sodipodi:docname="view-app-grid-symbolic.svg"
   inkscape:version="0.92.3 (2405546, 2018-03-11)">
  <metadata
     id="metadata10">
    <rdf:RDF>
      <cc:Work
         rdf:about="">
        <dc:format>image/svg+xml</dc:format>
        <dc:type
           rdf:resource="http://purl.org/dc/dcmitype/StillImage" />
        <dc:title></dc:title>
      </cc:Work>
    </rdf:RDF>
  </metadata>
  <defs
     id="defs8" />
  <sodipodi:namedview
     pagecolor="#ffffff"
     bordercolor="#666666"
     borderopacity="1"
     objecttolerance="10"
     gridtolerance="10"
     guidetolerance="10"
     inkscape:pageopacity="0"
     inkscape:pageshadow="2"
     inkscape:window-width="1920"
     inkscape:window-height="1019"
     id="namedview6"
     showgrid="false"
     inkscape:pagecheckerboard="true"
     inkscape:zoom="14.75"
     inkscape:cx="8"
     inkscape:cy="-2.8474576"
     inkscape:window-x="0"
     inkscape:window-y="27"
     inkscape:window-maximized="1"
     inkscape:current-layer="svg4" />
  <path
     d="m -19.110254,0.3559322 c -0.537,0 -0.805,0 -0.805,0.625 v 0.75 c 0,0.625 0.268,0.625 0.805,0.625 h 0.39 c 0.537,0 0.805,0 0.805,-0.625 v -0.75 c 0,-0.603 -0.268,-0.625 -0.805,-0.625 z m 4,0 c -0.537,0 -0.805,0 -0.805,0.625 v 0.75 c 0,0.625 0.268,0.625 0.805,0.625 h 0.39 c 0.537,0 0.805,0 0.805,-0.625 v -0.75 c 0,-0.603 -0.268,-0.625 -0.805,-0.625 z m 4,0 c -0.537,0 -0.805,0 -0.805,0.625 v 0.75 c 0,0.625 0.268,0.625 0.805,0.625 h 0.39 c 0.537,0 0.8049998,0 0.8049998,-0.625 v -0.75 c 0,-0.603 -0.2679998,-0.625 -0.8049998,-0.625 z m -8,4 c -0.537,0 -0.805,0 -0.805,0.625 v 0.75 c 0,0.625 0.268,0.625 0.805,0.625 h 0.39 c 0.537,0 0.805,0 0.805,-0.625 v -0.75 c 0,-0.603 -0.268,-0.625 -0.805,-0.625 z m 4,0 c -0.537,0 -0.805,0 -0.805,0.625 v 0.75 c 0,0.625 0.268,0.625 0.805,0.625 h 0.39 c 0.537,0 0.805,0 0.805,-0.625 v -0.75 c 0,-0.603 -0.268,-0.625 -0.805,-0.625 z m 4,0 c -0.537,0 -0.805,0 -0.805,0.625 v 0.75 c 0,0.625 0.268,0.625 0.805,0.625 h 0.39 c 0.537,0 0.8049998,0 0.8049998,-0.625 v -0.75 c 0,-0.603 -0.2679998,-0.625 -0.8049998,-0.625 z m -8,4 c -0.537,0 -0.805,0 -0.805,0.625 v 0.75 c 0,0.6249998 0.268,0.6249998 0.805,0.6249998 h 0.39 c 0.537,0 0.805,0 0.805,-0.6249998 v -0.75 c 0,-0.603 -0.268,-0.625 -0.805,-0.625 z m 4,0 c -0.537,0 -0.805,0 -0.805,0.625 v 0.75 c 0,0.6249998 0.268,0.6249998 0.805,0.6249998 h 0.39 c 0.537,0 0.805,0 0.805,-0.6249998 v -0.75 c 0,-0.603 -0.268,-0.625 -0.805,-0.625 z m 4,0 c -0.537,0 -0.805,0 -0.805,0.625 v 0.75 c 0,0.6249998 0.268,0.6249998 0.805,0.6249998 h 0.39 c 0.537,0 0.8049998,0 0.8049998,-0.6249998 v -0.75 c 0,-0.603 -0.2679998,-0.625 -0.8049998,-0.625 z"
     style="color:#000000;overflow:visible;fill:#808080;marker:none"
     overflow="visible"
     id="path2"
     inkscape:connector-curvature="0" />
  <path
     style="fill:#ffffff;fill-opacity:1;stroke:none;stroke-width:2.45816851;stroke-miterlimit:4;stroke-dasharray:none;stroke-opacity:1"
     d="M 7.9999993,2 A 6.0000002,6.0000002 0 0 0 2.0000003,8 6.0000002,6.0000002 0 0 0 7.9999993,14 6.0000002,6.0000002 0 0 0 14,8 6.0000002,6.0000002 0 0 0 7.9999993,2 Z m 0,0.75 A 5.2500002,5.2500002 0 0 1 13.25,8 5.2500002,5.2500002 0 0 1 7.9999993,13.25 5.2500002,5.2500002 0 0 1 2.7500013,8 5.2500002,5.2500002 0 0 1 7.9999993,2.75 Z"
     id="path820"
     inkscape:connector-curvature="0" />
</svg>
