<?xml version="1.0" encoding="UTF-8" standalone="no"?>
<svg
   xmlns:dc="http://purl.org/dc/elements/1.1/"
   xmlns:cc="http://creativecommons.org/ns#"
   xmlns:rdf="http://www.w3.org/1999/02/22-rdf-syntax-ns#"
   xmlns:svg="http://www.w3.org/2000/svg"
   xmlns="http://www.w3.org/2000/svg"
   xmlns:sodipodi="http://sodipodi.sourceforge.net/DTD/sodipodi-0.dtd"
   xmlns:inkscape="http://www.inkscape.org/namespaces/inkscape"
   height="16"
   width="16"
   version="1.1"
   id="svg4"
   sodipodi:docname="view-app-grid-symbolic.svg"
   inkscape:version="0.92.3 (2405546, 2018-03-11)">
  <metadata
     id="metadata10">
    <rdf:RDF>
      <cc:Work
         rdf:about="">
        <dc:format>image/svg+xml</dc:format>
        <dc:type
           rdf:resource="http://purl.org/dc/dcmitype/StillImage" />
        <dc:title />
      </cc:Work>
    </rdf:RDF>
  </metadata>
  <defs
     id="defs8" />
  <sodipodi:namedview
     pagecolor="#ffffff"
     bordercolor="#666666"
     borderopacity="1"
     objecttolerance="10"
     gridtolerance="10"
     guidetolerance="10"
     inkscape:pageopacity="0"
     inkscape:pageshadow="2"
     inkscape:window-width="1920"
     inkscape:window-height="1539"
     id="namedview6"
     showgrid="false"
     inkscape:pagecheckerboard="true"
     inkscape:zoom="59"
     inkscape:cx="5.836443"
     inkscape:cy="10.406361"
     inkscape:window-x="0"
     inkscape:window-y="27"
     inkscape:window-maximized="0"
     inkscape:current-layer="svg4" />
  <path
     style="fill:#808080;fill-opacity:1;stroke:none;stroke-width:3.27755761;stroke-miterlimit:4;stroke-dasharray:none;stroke-opacity:1"
     d="M 7.9999999,0 A 8,8 0 0 0 0,8 8,8 0 0 0 7.9999999,16 8,8 0 0 0 16,8 8,8 0 0 0 7.9999999,0 Z m 0,1 A 7,7 0 0 1 15,8 7,7 0 0 1 7.9999999,15 7,7 0 0 1 1,8 7,7 0 0 1 7.9999999,1 Z"
     id="path820"
     inkscape:connector-curvature="0" />
  <text
     xml:space="preserve"
     style="font-style:normal;font-weight:normal;font-size:40px;line-height:1.25;font-family:sans-serif;letter-spacing:0px;word-spacing:0px;fill:#000000;fill-opacity:1;stroke:none"
     x="-10.522708"
     y="8.6412954"
     id="text840"><tspan
       sodipodi:role="line"
       id="tspan838"
       x="-10.522708"
       y="44.031921" /></text>
  <g
     id="g838"
     transform="translate(0.34879582,0.50000017)">
    <rect
       transform="rotate(45)"
       y="-1.3569176"
       x="9.4635191"
       height="1"
       width="4"
       id="rect819"
       style="fill:#808080;fill-opacity:1;stroke:none;stroke-width:0.40972376;stroke-miterlimit:4;stroke-dasharray:none;stroke-opacity:1" />
    <rect
       transform="rotate(135)"
       y="-10.463519"
       x="-1.3569176"
       height="1"
       width="4"
       id="rect819-3"
       style="fill:#808080;fill-opacity:1;stroke:none;stroke-width:0.40972376;stroke-miterlimit:4;stroke-dasharray:none;stroke-opacity:1" />
  </g>
</svg>
