<?xml version="1.0" encoding="UTF-8" standalone="no"?>
<svg
   xmlns:dc="http://purl.org/dc/elements/1.1/"
   xmlns:cc="http://creativecommons.org/ns#"
   xmlns:rdf="http://www.w3.org/1999/02/22-rdf-syntax-ns#"
   xmlns:svg="http://www.w3.org/2000/svg"
   xmlns="http://www.w3.org/2000/svg"
   xmlns:sodipodi="http://sodipodi.sourceforge.net/DTD/sodipodi-0.dtd"
   xmlns:inkscape="http://www.inkscape.org/namespaces/inkscape"
   height="16"
   width="16"
   version="1.1"
   id="svg4"
   sodipodi:docname="document-new-symbolic.svg"
   inkscape:version="0.92.3 (2405546, 2018-03-11)">
  <metadata
     id="metadata10">
    <rdf:RDF>
      <cc:Work
         rdf:about="">
        <dc:format>image/svg+xml</dc:format>
        <dc:type
           rdf:resource="http://purl.org/dc/dcmitype/StillImage" />
      </cc:Work>
    </rdf:RDF>
  </metadata>
  <defs
     id="defs8" />
  <sodipodi:namedview
     pagecolor="#ffffff"
     bordercolor="#666666"
     borderopacity="1"
     objecttolerance="10"
     gridtolerance="10"
     guidetolerance="10"
     inkscape:pageopacity="0"
     inkscape:pageshadow="2"
     inkscape:window-width="3840"
     inkscape:window-height="1539"
     id="namedview6"
     showgrid="false"
     inkscape:zoom="29.5"
     inkscape:cx="4.1481143"
     inkscape:cy="-1.4610255"
     inkscape:window-x="0"
     inkscape:window-y="27"
     inkscape:window-maximized="1"
     inkscape:current-layer="svg4" />
  <path
     style="display:inline;opacity:1;fill:#808080;fill-opacity:1;stroke:none;stroke-width:0.09759128;stroke-linecap:butt;stroke-linejoin:bevel;stroke-miterlimit:4;stroke-dasharray:none;stroke-opacity:1;paint-order:fill markers stroke"
     d="M 2.5039062 0 C 1.6705393 0 1 0.6705397 1 1.5039062 L 1 14.496094 C 1 15.32946 1.6705402 16 2.5039062 16 L 13.496094 16 C 14.32946 16 15 15.32946 15 14.496094 L 15 1.5039062 C 15 0.6705397 14.32946 -2.9605947e-16 13.496094 0 L 2.5039062 0 z M 3.5 2.0175781 L 12.5 2.0175781 C 12.777001 2.0175781 13 2.2405784 13 2.5175781 C 13 2.7945786 12.777001 3.0175781 12.5 3.0175781 L 3.5 3.0175781 C 3.223 3.0175781 3 2.7945786 3 2.5175781 C 3 2.2405784 3.223 2.0175781 3.5 2.0175781 z M 3.5 4.0175781 L 12.5 4.0175781 C 12.777001 4.0175781 13 4.2405775 13 4.5175781 C 13 4.7945777 12.777001 5.0175781 12.5 5.0175781 L 3.5 5.0175781 C 3.223 5.0175781 3 4.7945777 3 4.5175781 C 3 4.2405775 3.223 4.0175781 3.5 4.0175781 z M 3.5 6.0175781 L 12.5 6.0175781 C 12.777001 6.0175781 13 6.2405784 13 6.5175781 C 13 6.7945786 12.777001 7.0175781 12.5 7.0175781 L 3.5 7.0175781 C 3.223 7.0175781 3 6.7945786 3 6.5175781 C 3 6.2405784 3.223 6.0175781 3.5 6.0175781 z M 3.5 8.0175781 L 7.5 8.0175781 C 7.777 8.0175781 8 8.2405784 8 8.5175781 C 8 8.7945786 7.777 9.0175781 7.5 9.0175781 L 3.5 9.0175781 C 3.223 9.0175781 3 8.7945786 3 8.5175781 C 3 8.2405784 3.223 8.0175781 3.5 8.0175781 z M 9.4101562 9 L 10.609375 9 L 10.609375 11.400391 L 13.009766 11.400391 L 13.009766 12.599609 L 10.609375 12.599609 L 10.609375 15 L 9.4101562 15 L 9.4101562 12.599609 L 7.0097656 12.599609 L 7.0097656 11.400391 L 9.4101562 11.400391 L 9.4101562 9 z "
     id="rect1133" />
</svg>
