<?xml version="1.0" encoding="UTF-8" standalone="no"?>
<svg
   xmlns:dc="http://purl.org/dc/elements/1.1/"
   xmlns:cc="http://creativecommons.org/ns#"
   xmlns:rdf="http://www.w3.org/1999/02/22-rdf-syntax-ns#"
   xmlns:svg="http://www.w3.org/2000/svg"
   xmlns="http://www.w3.org/2000/svg"
   xmlns:sodipodi="http://sodipodi.sourceforge.net/DTD/sodipodi-0.dtd"
   xmlns:inkscape="http://www.inkscape.org/namespaces/inkscape"
   height="16"
   width="16"
   version="1.1"
   id="svg4"
   sodipodi:docname="edit-copy-symbolic.svg"
   inkscape:version="0.92.3 (2405546, 2018-03-11)">
  <metadata
     id="metadata10">
    <rdf:RDF>
      <cc:Work
         rdf:about="">
        <dc:format>image/svg+xml</dc:format>
        <dc:type
           rdf:resource="http://purl.org/dc/dcmitype/StillImage" />
      </cc:Work>
    </rdf:RDF>
  </metadata>
  <defs
     id="defs8" />
  <sodipodi:namedview
     pagecolor="#ffffff"
     bordercolor="#666666"
     borderopacity="1"
     objecttolerance="10"
     gridtolerance="10"
     guidetolerance="10"
     inkscape:pageopacity="0"
     inkscape:pageshadow="2"
     inkscape:window-width="1898"
     inkscape:window-height="1174"
     id="namedview6"
     showgrid="false"
     inkscape:zoom="29.495844"
     inkscape:cx="5.0257536"
     inkscape:cy="4.8437544"
     inkscape:window-x="253"
     inkscape:window-y="114"
     inkscape:window-maximized="0"
     inkscape:current-layer="svg4" />
  <path
     style="display:inline;opacity:0.2;fill:#808080;fill-opacity:1;stroke:none;stroke-width:0.07319346;stroke-linecap:butt;stroke-linejoin:bevel;stroke-miterlimit:4;stroke-dasharray:none;stroke-opacity:1;paint-order:fill markers stroke"
     d="M 1.1289062 0 C 0.50388145 0 0 0.50192823 0 1.1269531 L 0 10.873047 C 0 11.498072 0.50388145 12 1.1289062 12 L 5.4980469 12 L 5.4980469 5.1269531 C 5.4980469 4.5019282 6.0038813 4 6.6289062 4 L 10.5 4 L 10.5 1.1269531 C 10.5 0.50192823 9.9980709 -1.4802974e-16 9.3730469 0 L 1.1289062 0 z "
     id="rect1133-6" />
  <path
     inkscape:connector-curvature="0"
     style="display:inline;opacity:1;fill:#808080;fill-opacity:1;stroke:none;stroke-width:0.07319346;stroke-linecap:butt;stroke-linejoin:bevel;stroke-miterlimit:4;stroke-dasharray:none;stroke-opacity:1;paint-order:fill markers stroke"
     d="m 6.6279298,3.9999998 c -0.6250252,0 -1.1279296,0.502904 -1.1279296,1.1279291 V 14.872071 C 5.5000002,15.497095 6.0029052,16 6.6279298,16 H 14.872071 C 15.497096,16 16,15.497095 16,14.872071 V 5.1279289 C 16,4.5029038 15.497096,3.9999998 14.872071,3.9999998 Z M 7.3750002,5.5131831 H 14.125 c 0.207751,0 0.375001,0.1672498 0.375001,0.3749995 0,0.2077506 -0.16725,0.3750004 -0.375001,0.3750004 H 7.3750002 c -0.20775,0 -0.375,-0.1672498 -0.375,-0.3750004 0,-0.2077497 0.16725,-0.3749995 0.375,-0.3749995 z m 0,1.4999998 H 14.125 c 0.207751,0 0.375001,0.1672499 0.375001,0.3750004 0,0.2077496 -0.16725,0.3749996 -0.375001,0.3749996 H 7.3750002 c -0.20775,0 -0.375,-0.16725 -0.375,-0.3749996 0,-0.2077505 0.16725,-0.3750004 0.375,-0.3750004 z m 0,1.4999993 H 14.125 c 0.207751,0 0.375001,0.1672512 0.375001,0.3750011 0,0.2077501 -0.16725,0.3750001 -0.375001,0.3750001 H 7.3750002 c -0.20775,0 -0.375,-0.16725 -0.375,-0.3750001 0,-0.2077499 0.16725,-0.3750011 0.375,-0.3750011 z m 0,1.5000018 H 10.375 c 0.20775,0 0.375,0.16725 0.375,0.375 0,0.20775 -0.16725,0.375 -0.375,0.375 H 7.3750002 c -0.20775,0 -0.375,-0.16725 -0.375,-0.375 0,-0.20775 0.16725,-0.375 0.375,-0.375 z"
     id="rect1133" />
</svg>
