<?xml version="1.0" encoding="UTF-8" standalone="no"?>
<svg
   xmlns:dc="http://purl.org/dc/elements/1.1/"
   xmlns:cc="http://creativecommons.org/ns#"
   xmlns:rdf="http://www.w3.org/1999/02/22-rdf-syntax-ns#"
   xmlns:svg="http://www.w3.org/2000/svg"
   xmlns="http://www.w3.org/2000/svg"
   xmlns:sodipodi="http://sodipodi.sourceforge.net/DTD/sodipodi-0.dtd"
   xmlns:inkscape="http://www.inkscape.org/namespaces/inkscape"
   height="15.974"
   width="16"
   version="1.1"
   id="svg8"
   sodipodi:docname="edit-cut-symbolic.svg"
   inkscape:version="0.92.3 (2405546, 2018-03-11)">
  <metadata
     id="metadata14">
    <rdf:RDF>
      <cc:Work
         rdf:about="">
        <dc:format>image/svg+xml</dc:format>
        <dc:type
           rdf:resource="http://purl.org/dc/dcmitype/StillImage" />
      </cc:Work>
    </rdf:RDF>
  </metadata>
  <defs
     id="defs12" />
  <sodipodi:namedview
     pagecolor="#ffffff"
     bordercolor="#666666"
     borderopacity="1"
     objecttolerance="10"
     gridtolerance="10"
     guidetolerance="10"
     inkscape:pageopacity="0"
     inkscape:pageshadow="2"
     inkscape:window-width="1920"
     inkscape:window-height="1539"
     id="namedview10"
     showgrid="false"
     inkscape:zoom="11.313709"
     inkscape:cx="26.487852"
     inkscape:cy="13.781249"
     inkscape:window-x="1920"
     inkscape:window-y="27"
     inkscape:window-maximized="0"
     inkscape:current-layer="svg8" />
  <path
     style="opacity:1;fill:#808080;fill-opacity:1;stroke:none;stroke-width:0.91833055;stroke-linecap:butt;stroke-linejoin:bevel;stroke-miterlimit:4;stroke-dasharray:none;stroke-opacity:1;paint-order:fill markers stroke"
     d="m 7.4672958,0.98700912 c 0,0 -0.3846665,-9e-5 -0.5649885,0.041253 -0.1483333,0.034009 -0.318703,0.1896022 -0.3013272,0.340786 0.1237202,1.073995 0.4525273,5.4669248 0.5596077,6.9036222 L 6.9991625,9.1318119 6.7247394,10.88238 c 0,0 -0.1804068,0.154775 -0.4161185,0.157838 A 1.8761176,2.0735334 5 0 0 5.657539,10.848301 l -0.046634,-0.0036 A 1.8761176,2.0735334 5 0 0 3.6038505,12.78898 1.8761176,2.0735334 5 0 0 5.3185459,14.982569 1.8761176,2.0735334 5 0 0 7.2269515,13.62301 c 3.328e-4,6.68e-4 0.016142,0.0287 0.016142,0.0287 l 0.03946,-0.211647 a 1.8761176,2.0735334 5 0 0 0.053809,-0.288771 l 0.3963887,-2.12364 0.2672485,-0.451991 0.2672486,0.451991 0.3963888,2.12364 a 2.0735334,1.8761176 85 0 0 0.053809,0.288771 l 0.03946,0.211647 c 0,0 0.01581,-0.02803 0.016142,-0.0287 a 2.0735334,1.8761176 85 0 0 1.9084059,1.359559 2.0735334,1.8761176 85 0 0 1.714695,-2.193589 2.0735334,1.8761176 85 0 0 -2.007054,-1.944279 l -0.04663,0.0036 A 2.0735334,1.8761176 85 0 0 9.6913777,11.040218 C 9.455666,11.037155 9.2752591,10.88238 9.2752591,10.88238 L 9.0008362,9.1318119 8.8394108,8.2726706 C 8.9464918,6.8359732 9.2752983,2.4430415 9.3990185,1.3690484 9.41643,1.2178673 9.2460245,1.0622709 9.0976913,1.0282624 8.917369,0.98692832 8.5327027,0.98700912 8.5327027,0.98700912 L 7.9999993,3.8155389 Z M 7.9910312,7.5480504 A 0.45916528,0.45916528 0 0 1 8.4591646,7.996454 V 8.007216 A 0.45916528,0.45916528 0 0 1 8.0035866,8.4663812 0.45916528,0.45916528 0 0 1 7.540834,8.0125965 0.45916528,0.45916528 0 0 1 7.9910312,7.5480504 Z M 5.4835584,11.450955 a 1.325151,1.4645908 5 0 1 0.00179,0 1.325151,1.4645908 5 0 1 0.0843,0.0018 l 0.034078,0.0018 a 1.325151,1.4645908 5 0 1 0.7551117,0.353341 c 0.1682197,0.365935 0.2589848,0.558673 0.432261,0.914744 a 1.325151,1.4645908 5 0 1 0.00359,0.29774 1.325151,1.4645908 5 0 1 -1.4295106,1.354178 1.325151,1.4645908 5 0 1 -1.2124834,-1.547889 1.325151,1.4645908 5 0 1 1.330862,-1.375702 z m 5.0310876,0 a 1.4645908,1.325151 85 0 1 1.332656,1.375703 1.4645908,1.325151 85 0 1 -1.212484,1.547889 1.4645908,1.325151 85 0 1 -1.4295099,-1.354179 1.4645908,1.325151 85 0 1 0.00359,-0.295946 c 0.1732764,-0.35607 0.265835,-0.550601 0.4340547,-0.916537 a 1.4645908,1.325151 85 0 1 0.7533182,-0.353342 l 0.03408,-0.0018 a 1.4645908,1.325151 85 0 1 0.0843,-0.0018 z"
     id="rect926"
     inkscape:connector-curvature="0" />
</svg>
