<?xml version="1.0" encoding="UTF-8" standalone="no"?>
<svg
   xmlns:dc="http://purl.org/dc/elements/1.1/"
   xmlns:cc="http://creativecommons.org/ns#"
   xmlns:rdf="http://www.w3.org/1999/02/22-rdf-syntax-ns#"
   xmlns:svg="http://www.w3.org/2000/svg"
   xmlns="http://www.w3.org/2000/svg"
   xmlns:sodipodi="http://sodipodi.sourceforge.net/DTD/sodipodi-0.dtd"
   xmlns:inkscape="http://www.inkscape.org/namespaces/inkscape"
   height="16"
   width="16"
   version="1.1"
   id="svg4"
   sodipodi:docname="document-edit-symbolic.svg"
   inkscape:version="0.92.3 (2405546, 2018-03-11)">
  <metadata
     id="metadata10">
    <rdf:RDF>
      <cc:Work
         rdf:about="">
        <dc:format>image/svg+xml</dc:format>
        <dc:type
           rdf:resource="http://purl.org/dc/dcmitype/StillImage" />
      </cc:Work>
    </rdf:RDF>
  </metadata>
  <defs
     id="defs8" />
  <sodipodi:namedview
     pagecolor="#ffffff"
     bordercolor="#666666"
     borderopacity="1"
     objecttolerance="10"
     gridtolerance="10"
     guidetolerance="10"
     inkscape:pageopacity="0"
     inkscape:pageshadow="2"
     inkscape:window-width="1920"
     inkscape:window-height="1539"
     id="namedview6"
     showgrid="false"
     inkscape:zoom="22.627417"
     inkscape:cx="5.3955071"
     inkscape:cy="0.42879862"
     inkscape:window-x="0"
     inkscape:window-y="27"
     inkscape:window-maximized="0"
     inkscape:current-layer="svg4" />
  <path
     style="opacity:1;fill:#808080;fill-opacity:1;stroke:none;stroke-width:0.13779043;stroke-linecap:butt;stroke-linejoin:bevel;stroke-miterlimit:4;stroke-dasharray:none;stroke-opacity:1;paint-order:fill markers stroke"
     d="m 3.4882759,11.153347 0.0054,0.0054 -0.246346,0.921529 -0.248175,0.919703 0.921527,-0.24635 0.921526,-0.24635 0.0054,0.0054 L 8.9242259,8.436101 13.000845,4.3594818 11.641363,3.0000013 7.5647439,7.0766189 Z m 0.487225,0.487224 0.385034,0.385033 -0.529194,0.335766 -0.53102,0.33759 0.339415,-0.529195 z"
     id="path818-3"
     inkscape:connector-curvature="0" />
  <g
     id="g817"
     transform="matrix(0.375,0,0,0.375,2.9991549,3.0000013)">
    <path
       inkscape:connector-curvature="0"
       id="rect816-3-7-5"
       d="m 0,11.833334 1.190477,-1.190476 2.976189,2.976189 2.9761908,-2.976189 1.190477,1.190476 L 5.357143,14.809526 4.166666,16 2.976192,14.809526 Z"
       style="opacity:1;fill:#808080;fill-opacity:1;stroke:none;stroke-width:0.89164054;stroke-linecap:butt;stroke-linejoin:bevel;stroke-miterlimit:4;stroke-dasharray:none;stroke-opacity:1;paint-order:fill markers stroke" />
    <path
       id="rect849-3"
       d="M 13.318359,1.683594 H 5.658203 c -0.359538,0 -0.650391,0.2889 -0.650391,0.648437 v 12.66211 C 4.070103,14.957673 3.324219,14.195005 3.324219,13.248047 V 1.751953 C 3.324219,0.781571 4.10579,0 5.076172,0 h 6.498047 c 0.946958,0 1.707673,0.745884 1.74414,1.683594 z"
       style="opacity:1;fill:#808080;fill-opacity:1;stroke:none;stroke-width:1.59213877;stroke-linecap:butt;stroke-linejoin:bevel;stroke-miterlimit:4;stroke-dasharray:none;stroke-opacity:1;paint-order:fill markers stroke"
       inkscape:connector-curvature="0" />
    <path
       id="rect849-3-3"
       d="M 5.0683594,0 C 4.1214018,0 3.3606858,0.74588375 3.3242188,1.6835938 h 7.6601562 c 0.359538,0 0.650391,0.2889005 0.650391,0.6484374 v 6.7695313 h 1.683593 V 1.7519531 C 13.318359,0.78157112 12.536788,0 11.566406,0 Z"
       style="opacity:1;fill:#808080;fill-opacity:1;stroke:none;stroke-width:1.59213877;stroke-linecap:butt;stroke-linejoin:bevel;stroke-miterlimit:4;stroke-dasharray:none;stroke-opacity:1;paint-order:fill markers stroke"
       inkscape:connector-curvature="0" />
  </g>
</svg>
