<?xml version="1.0" encoding="UTF-8" standalone="no"?>
<svg
   xmlns:dc="http://purl.org/dc/elements/1.1/"
   xmlns:cc="http://creativecommons.org/ns#"
   xmlns:rdf="http://www.w3.org/1999/02/22-rdf-syntax-ns#"
   xmlns:svg="http://www.w3.org/2000/svg"
   xmlns="http://www.w3.org/2000/svg"
   xmlns:sodipodi="http://sodipodi.sourceforge.net/DTD/sodipodi-0.dtd"
   xmlns:inkscape="http://www.inkscape.org/namespaces/inkscape"
   height="16"
   width="16"
   version="1.1"
   id="svg4"
   sodipodi:docname="format-text-bold-symbolic.svg"
   inkscape:version="0.92.3 (2405546, 2018-03-11)">
  <metadata
     id="metadata10">
    <rdf:RDF>
      <cc:Work
         rdf:about="">
        <dc:format>image/svg+xml</dc:format>
        <dc:type
           rdf:resource="http://purl.org/dc/dcmitype/StillImage" />
      </cc:Work>
    </rdf:RDF>
  </metadata>
  <defs
     id="defs8" />
  <sodipodi:namedview
     pagecolor="#ffffff"
     bordercolor="#666666"
     borderopacity="1"
     objecttolerance="10"
     gridtolerance="10"
     guidetolerance="10"
     inkscape:pageopacity="0"
     inkscape:pageshadow="2"
     inkscape:window-width="3137"
     inkscape:window-height="1539"
     id="namedview6"
     showgrid="false"
     inkscape:zoom="29.5"
     inkscape:cx="7.1311737"
     inkscape:cy="14.169633"
     inkscape:window-x="703"
     inkscape:window-y="27"
     inkscape:window-maximized="0"
     inkscape:current-layer="svg4" />
  <g
     aria-label="B"
     style="font-style:normal;font-variant:normal;font-weight:normal;font-stretch:normal;font-size:19.55307198px;line-height:1.25;font-family:'Star Labs';-inkscape-font-specification:'Star Labs';letter-spacing:0px;word-spacing:0px;fill:#808080;fill-opacity:1;stroke:none;stroke-width:1;stroke-miterlimit:4;stroke-dasharray:none;stroke-opacity:1"
     id="text819">
    <path
       d="m 2.9944136,1.3324024 q 2.0335195,-0.3324022 4.086592,-0.3324022 2.698324,0 3.9692734,0.9972067 1.290503,0.9972066 1.290503,2.6396647 0,2.1508379 -2.013966,2.9720669 2.67877,0.7821229 2.67877,3.3631285 0,1.857542 -1.486033,2.952514 Q 10.053073,15 6.9441341,15 4.5782124,15 2.9944136,14.628491 Z m 3.6955306,1.3296089 q -0.9385475,0 -1.7988826,0.1173184 v 4.2039105 h 2.170391 q 1.7793295,0 2.6201116,-0.4888268 0.8407818,-0.5083799 0.8407818,-1.622905 0,-1.0754189 -0.8798879,-1.642458 Q 8.7821229,2.6620113 6.6899442,2.6620113 Z M 4.8910616,13.103352 q 1.0167597,0.175977 2.2094971,0.175977 2.1508379,0 3.0502793,-0.606145 0.899441,-0.606145 0.899441,-1.798882 0,-1.2122909 -0.879888,-1.7597769 Q 9.3100558,8.567039 7.4916201,8.567039 H 4.8910616 Z"
       style="fill:#808080;fill-opacity:1;stroke:#808080;stroke-width:1;stroke-miterlimit:4;stroke-dasharray:none;stroke-opacity:1"
       id="path823"
       inkscape:connector-curvature="0" />
  </g>
</svg>
