<?xml version="1.0" encoding="UTF-8" standalone="no"?>
<svg
   xmlns:dc="http://purl.org/dc/elements/1.1/"
   xmlns:cc="http://creativecommons.org/ns#"
   xmlns:rdf="http://www.w3.org/1999/02/22-rdf-syntax-ns#"
   xmlns:svg="http://www.w3.org/2000/svg"
   xmlns="http://www.w3.org/2000/svg"
   xmlns:sodipodi="http://sodipodi.sourceforge.net/DTD/sodipodi-0.dtd"
   xmlns:inkscape="http://www.inkscape.org/namespaces/inkscape"
   height="16"
   width="16"
   version="1.1"
   id="svg4"
   sodipodi:docname="view-dual-symbolic.svg"
   inkscape:version="0.92.3 (2405546, 2018-03-11)">
  <metadata
     id="metadata10">
    <rdf:RDF>
      <cc:Work
         rdf:about="">
        <dc:format>image/svg+xml</dc:format>
        <dc:type
           rdf:resource="http://purl.org/dc/dcmitype/StillImage" />
      </cc:Work>
    </rdf:RDF>
  </metadata>
  <defs
     id="defs8" />
  <sodipodi:namedview
     pagecolor="#ffffff"
     bordercolor="#666666"
     borderopacity="1"
     objecttolerance="10"
     gridtolerance="10"
     guidetolerance="10"
     inkscape:pageopacity="0"
     inkscape:pageshadow="2"
     inkscape:window-width="3840"
     inkscape:window-height="1539"
     id="namedview6"
     showgrid="false"
     inkscape:zoom="41.7193"
     inkscape:cx="6.8245359"
     inkscape:cy="5.8070022"
     inkscape:window-x="0"
     inkscape:window-y="27"
     inkscape:window-maximized="1"
     inkscape:current-layer="svg4" />
  <g
     id="g846"
     transform="matrix(0.66666666,0,0,0.66666666,4.0536721,2.4971754)">
    <path
       id="rect1133"
       d="m 15.291562,2.2542371 c 0.625025,0 1.12793,0.502904 1.12793,1.1279291 v 9.7441418 c 0,0.625024 -0.502905,1.127929 -1.12793,1.127929 H 7.0474207 c -0.625025,0 -1.127929,-0.502905 -1.127929,-1.127929 V 3.3821662 c 0,-0.6250251 0.502904,-1.1279291 1.127929,-1.1279291 z m -0.74707,1.5131833 H 7.7944917 c -0.207751,0 -0.375001,0.1672498 -0.375001,0.3749995 0,0.2077506 0.16725,0.3750004 0.375001,0.3750004 h 6.7500003 c 0.20775,0 0.375,-0.1672498 0.375,-0.3750004 0,-0.2077497 -0.16725,-0.3749995 -0.375,-0.3749995 z m 0,1.4999998 H 7.7944917 c -0.207751,0 -0.375001,0.16725 -0.375001,0.375 0,0.20775 0.16725,0.375 0.375001,0.375 h 6.7500003 c 0.20775,0 0.375,-0.16725 0.375,-0.375 0,-0.20775 -0.16725,-0.375 -0.375,-0.375 z m 0,1.499999 H 7.7944917 c -0.207751,0 -0.375001,0.167252 -0.375001,0.375001 0,0.207751 0.16725,0.375001 0.375001,0.375001 h 6.7500003 c 0.20775,0 0.375,-0.16725 0.375,-0.375001 0,-0.207749 -0.16725,-0.375001 -0.375,-0.375001 z m 0,1.500002 h -3 c -0.20775,0 -0.375,0.16725 -0.375,0.375 0,0.2077496 0.16725,0.3749996 0.375,0.3749996 h 3 c 0.20775,0 0.375,-0.16725 0.375,-0.3749996 0,-0.20775 -0.16725,-0.375 -0.375,-0.375 z"
       style="display:inline;opacity:1;fill:#808080;fill-opacity:1;stroke:none;stroke-width:0.07319346;stroke-linecap:butt;stroke-linejoin:bevel;stroke-miterlimit:4;stroke-dasharray:none;stroke-opacity:1;paint-order:fill markers stroke"
       inkscape:connector-curvature="0" />
    <path
       id="rect1133-3"
       d="m -3.4525783,2.254237 c -0.625025,0 -1.12793,0.502904 -1.12793,1.1279291 v 9.7441419 c 0,0.625024 0.502905,1.127929 1.12793,1.127929 h 8.244141 c 0.625025,0 1.127929,-0.502905 1.127929,-1.127929 V 3.3821661 c 0,-0.6250251 -0.502904,-1.1279291 -1.127929,-1.1279291 z m 0.74707,1.5131833 h 6.75 c 0.207751,0 0.375001,0.1672498 0.375001,0.3749995 0,0.2077506 -0.16725,0.3750003 -0.375001,0.3750003 h -6.75 c -0.20775,0 -0.375,-0.1672498 -0.375,-0.3750004 0,-0.2077496 0.16725,-0.3749994 0.375,-0.3749994 z m 0,1.4999998 h 6.75 c 0.207751,0 0.375001,0.16725 0.375001,0.375 0,0.20775 -0.16725,0.375 -0.375001,0.375 h -6.75 c -0.20775,0 -0.375,-0.16725 -0.375,-0.375 0,-0.20775 0.16725,-0.375 0.375,-0.375 z m 0,1.499999 h 6.75 c 0.207751,0 0.375001,0.167252 0.375001,0.375001 0,0.207751 -0.16725,0.375001 -0.375001,0.375001 h -6.75 c -0.20775,0 -0.375,-0.16725 -0.375,-0.375001 0,-0.207749 0.16725,-0.375001 0.375,-0.375001 z m 0,1.500002 h 3 c 0.20775,0 0.375,0.1672499 0.375,0.375 0,0.20775 -0.16725,0.375 -0.375,0.375 h -3 c -0.20775,0 -0.375,-0.16725 -0.375,-0.375 0,-0.2077501 0.16725,-0.375 0.375,-0.375 z"
       style="display:inline;opacity:1;fill:#808080;fill-opacity:1;stroke:none;stroke-width:0.07319346;stroke-linecap:butt;stroke-linejoin:bevel;stroke-miterlimit:4;stroke-dasharray:none;stroke-opacity:1;paint-order:fill markers stroke"
       inkscape:connector-curvature="0" />
  </g>
</svg>
