<?xml version="1.0" encoding="UTF-8" standalone="no"?>
<svg
   xmlns:dc="http://purl.org/dc/elements/1.1/"
   xmlns:cc="http://creativecommons.org/ns#"
   xmlns:rdf="http://www.w3.org/1999/02/22-rdf-syntax-ns#"
   xmlns:svg="http://www.w3.org/2000/svg"
   xmlns="http://www.w3.org/2000/svg"
   xmlns:sodipodi="http://sodipodi.sourceforge.net/DTD/sodipodi-0.dtd"
   xmlns:inkscape="http://www.inkscape.org/namespaces/inkscape"
   height="16"
   width="16"
   version="1.1"
   id="svg4"
   sodipodi:docname="edit-find-symbolic.svg"
   inkscape:version="0.92.3 (2405546, 2018-03-11)">
  <metadata
     id="metadata10">
    <rdf:RDF>
      <cc:Work
         rdf:about="">
        <dc:format>image/svg+xml</dc:format>
        <dc:type
           rdf:resource="http://purl.org/dc/dcmitype/StillImage" />
        <dc:title />
      </cc:Work>
    </rdf:RDF>
  </metadata>
  <defs
     id="defs8" />
  <sodipodi:namedview
     pagecolor="#ffffff"
     bordercolor="#666666"
     borderopacity="1"
     objecttolerance="10"
     gridtolerance="10"
     guidetolerance="10"
     inkscape:pageopacity="0"
     inkscape:pageshadow="2"
     inkscape:window-width="960"
     inkscape:window-height="1019"
     id="namedview6"
     showgrid="false"
     inkscape:zoom="29.5"
     inkscape:cx="10.279652"
     inkscape:cy="8.658763"
     inkscape:window-x="960"
     inkscape:window-y="27"
     inkscape:window-maximized="0"
     inkscape:current-layer="svg4"
     inkscape:pagecheckerboard="true" />
  <path
     style="fill:#808080;fill-opacity:1;stroke:none;stroke-width:0.09662379;stroke-linecap:butt;stroke-linejoin:bevel;stroke-miterlimit:4;stroke-dasharray:none;stroke-opacity:1;paint-order:fill markers stroke"
     d="M 6.6230469 1 A 5.6231913 5.6231913 0 0 0 1 6.6230469 A 5.6231913 5.6231913 0 0 0 6.6230469 12.246094 A 5.6231913 5.6231913 0 0 0 10.339844 10.837891 L 11.271484 11.769531 L 11.023438 12.017578 L 14.005859 15 L 15 14.005859 L 12.017578 11.023438 L 11.769531 11.271484 L 10.835938 10.337891 A 5.6231913 5.6231913 0 0 0 12.246094 6.6230469 A 5.6231913 5.6231913 0 0 0 6.6230469 1 z M 6.6230469 1.703125 A 4.9202924 4.9202924 0 0 1 11.542969 6.6230469 A 4.9202924 4.9202924 0 0 1 6.6230469 11.542969 A 4.9202924 4.9202924 0 0 1 1.703125 6.6230469 A 4.9202924 4.9202924 0 0 1 6.6230469 1.703125 z "
     id="path1099" />
</svg>
