<?xml version="1.0" encoding="UTF-8" standalone="no"?>
<svg
   xmlns:dc="http://purl.org/dc/elements/1.1/"
   xmlns:cc="http://creativecommons.org/ns#"
   xmlns:rdf="http://www.w3.org/1999/02/22-rdf-syntax-ns#"
   xmlns:svg="http://www.w3.org/2000/svg"
   xmlns="http://www.w3.org/2000/svg"
   xmlns:sodipodi="http://sodipodi.sourceforge.net/DTD/sodipodi-0.dtd"
   xmlns:inkscape="http://www.inkscape.org/namespaces/inkscape"
   height="16"
   width="16"
   version="1.1"
   id="svg10"
   sodipodi:docname="folder-saved-search-symbolic.svg"
   inkscape:version="0.92.3 (2405546, 2018-03-11)">
  <metadata
     id="metadata16">
    <rdf:RDF>
      <cc:Work
         rdf:about="">
        <dc:format>image/svg+xml</dc:format>
        <dc:type
           rdf:resource="http://purl.org/dc/dcmitype/StillImage" />
      </cc:Work>
    </rdf:RDF>
  </metadata>
  <defs
     id="defs14" />
  <sodipodi:namedview
     pagecolor="#ffffff"
     bordercolor="#666666"
     borderopacity="1"
     objecttolerance="10"
     gridtolerance="10"
     guidetolerance="10"
     inkscape:pageopacity="0"
     inkscape:pageshadow="2"
     inkscape:window-width="1920"
     inkscape:window-height="1539"
     id="namedview12"
     showgrid="false"
     inkscape:zoom="45.254834"
     inkscape:cx="11.917681"
     inkscape:cy="4.84449"
     inkscape:window-x="1920"
     inkscape:window-y="27"
     inkscape:window-maximized="0"
     inkscape:current-layer="svg10" />
  <path
     style="fill:none;fill-opacity:1;stroke:#808080;stroke-width:0.94117647;stroke-miterlimit:4;stroke-dasharray:none;stroke-opacity:1"
     d="m 1.920697,1.3071893 h 2.7328976 l 1.2549019,1.254902 h 8.1708065 c 0.803359,0 1.450109,0.6467212 1.450109,1.450081 v 9.2305297 c 0,0.80336 -0.64675,1.450109 -1.450109,1.450109 H 1.920697 c -0.8033603,0 -1.45010895,-0.646749 -1.45010895,-1.450109 V 2.757298 c 0,-0.8033598 0.64674865,-1.4501087 1.45010895,-1.4501087 z"
     id="rect1188"
     inkscape:connector-curvature="0"
     sodipodi:nodetypes="sccssssssss" />
  <path
     style="fill:none;fill-opacity:1;stroke:#808080;stroke-width:0.94117647;stroke-miterlimit:4;stroke-dasharray:none;stroke-opacity:1"
     d="M 1.6488017,5.0718955 H 5.490196 l 1.2549019,-1.254902 h 7.6061011 c 0.652729,0 1.178213,0.5254836 1.178213,1.1782132 v 8.5193903 c 0,0.65273 -0.525484,1.178214 -1.178213,1.178214 H 1.6488017 c -0.65273042,0 -1.17821368,-0.525484 -1.17821368,-1.178214 V 6.2500811 c 0,-0.6527297 0.52548326,-1.1781856 1.17821368,-1.1781856 z"
     id="rect1188-3"
     inkscape:connector-curvature="0"
     sodipodi:nodetypes="sccssssssss" />
  <g
     style="display:inline"
     id="g1158"
     transform="matrix(0.06024851,0,0,0.06024851,12.440689,-2.9329954)">
    <path
       inkscape:connector-curvature="0"
       id="path1099"
       d="m -83.5,152.5 a 40,40 0 0 0 -40,40 40,40 0 0 0 40,40 40,40 0 0 0 40,-40 40,40 0 0 0 -40,-40 z m 0,5 a 35,35 0 0 1 35,35 35,35 0 0 1 -35,35 35,35 0 0 1 -35,-35 35,35 0 0 1 35,-35 z"
       style="fill:#17171d;fill-opacity:1;stroke:none;stroke-width:0.68732351;stroke-linecap:butt;stroke-linejoin:bevel;stroke-miterlimit:4;stroke-dasharray:none;stroke-opacity:1;paint-order:fill markers stroke" />
    <circle
       r="35"
       cy="192.5"
       cx="-83.5"
       id="path1099-3-6"
       style="display:inline;fill:#ffffff;fill-opacity:0.39215686;stroke:none;stroke-width:0.60140806;stroke-linecap:butt;stroke-linejoin:bevel;stroke-miterlimit:4;stroke-dasharray:none;stroke-opacity:1;paint-order:fill markers stroke" />
    <g
       transform="rotate(-135,-39.940082,154.89337)"
       id="g1151">
      <rect
         style="fill:#17171d;fill-opacity:0.9948235;stroke:none;stroke-width:0.60001528;stroke-linecap:butt;stroke-linejoin:bevel;stroke-miterlimit:4;stroke-dasharray:none;stroke-opacity:1;paint-order:fill markers stroke"
         id="rect1132"
         width="30"
         height="10"
         x="-115"
         y="92.5"
         ry="0" />
      <rect
         style="display:inline;fill:#17171d;fill-opacity:0.9948235;stroke:none;stroke-width:0.24495521;stroke-linecap:butt;stroke-linejoin:bevel;stroke-miterlimit:4;stroke-dasharray:none;stroke-opacity:1;paint-order:fill markers stroke"
         id="rect1132-7"
         width="10"
         height="5"
         x="-85"
         y="95"
         ry="0" />
    </g>
  </g>
</svg>
