<?xml version="1.0" encoding="UTF-8" standalone="no"?>
<svg
   xmlns:dc="http://purl.org/dc/elements/1.1/"
   xmlns:cc="http://creativecommons.org/ns#"
   xmlns:rdf="http://www.w3.org/1999/02/22-rdf-syntax-ns#"
   xmlns:svg="http://www.w3.org/2000/svg"
   xmlns="http://www.w3.org/2000/svg"
   xmlns:sodipodi="http://sodipodi.sourceforge.net/DTD/sodipodi-0.dtd"
   xmlns:inkscape="http://www.inkscape.org/namespaces/inkscape"
   height="16.001"
   width="16"
   version="1.1"
   id="svg4"
   sodipodi:docname="user-trash-symbolic.svg"
   inkscape:version="0.92.3 (2405546, 2018-03-11)">
  <metadata
     id="metadata10">
    <rdf:RDF>
      <cc:Work
         rdf:about="">
        <dc:format>image/svg+xml</dc:format>
        <dc:type
           rdf:resource="http://purl.org/dc/dcmitype/StillImage" />
      </cc:Work>
    </rdf:RDF>
  </metadata>
  <defs
     id="defs8" />
  <sodipodi:namedview
     pagecolor="#ffffff"
     bordercolor="#666666"
     borderopacity="1"
     objecttolerance="10"
     gridtolerance="10"
     guidetolerance="10"
     inkscape:pageopacity="0"
     inkscape:pageshadow="2"
     inkscape:window-width="1920"
     inkscape:window-height="1539"
     id="namedview6"
     showgrid="false"
     inkscape:zoom="41.716694"
     inkscape:cx="-1.2172409"
     inkscape:cy="12.878727"
     inkscape:window-x="0"
     inkscape:window-y="27"
     inkscape:window-maximized="0"
     inkscape:current-layer="svg4" />
  <path
     style="display:inline;opacity:0.93999999;fill:#666666;fill-opacity:1;stroke:none;stroke-width:0.03935132;stroke-linecap:butt;stroke-linejoin:bevel;stroke-miterlimit:4;stroke-dasharray:none;stroke-opacity:1;paint-order:fill markers stroke"
     d="M 9.2851562 2.4667969 C 8.9491214 2.4667969 8.6777344 2.7381839 8.6777344 3.0742188 L 8.6777344 6.2402344 L 7.6738281 6.2402344 L 7.6738281 4.46875 C 7.6738281 4.1327151 7.4043942 3.8632812 7.0683594 3.8632812 L 2.6347656 3.8632812 C 2.2987308 3.8632812 2.0292969 4.1327151 2.0292969 4.46875 L 2.0292969 7.1308594 L 2.9511719 7.1308594 C 2.9789992 7.1164088 3.0034703 7.0957031 3.0371094 7.0957031 L 4.6503906 7.0957031 C 4.6840296 7.0957031 4.7085008 7.1164088 4.7363281 7.1308594 L 7.8554688 7.1308594 C 7.8923724 7.085295 7.9423916 7.0527344 8.0058594 7.0527344 L 8.6777344 7.0527344 L 8.6777344 7.1308594 L 14.324219 7.1308594 L 14.324219 3.0742188 C 14.324219 2.7381837 14.052832 2.4667969 13.716797 2.4667969 L 9.2851562 2.4667969 z M 9.6855469 3.28125 L 13.314453 3.28125 C 13.426147 3.28125 13.517578 3.370728 13.517578 3.4824219 C 13.517578 3.5941154 13.426146 3.6835937 13.314453 3.6835938 L 9.6855469 3.6835938 C 9.5738533 3.6835938 9.484375 3.5941158 9.484375 3.4824219 C 9.484375 3.3707283 9.573853 3.28125 9.6855469 3.28125 z M 9.6855469 4.0878906 L 13.314453 4.0878906 C 13.426147 4.0878906 13.517578 4.1773686 13.517578 4.2890625 C 13.517578 4.4007561 13.426146 4.4902344 13.314453 4.4902344 L 9.6855469 4.4902344 C 9.5738533 4.4902344 9.484375 4.4007564 9.484375 4.2890625 C 9.484375 4.177369 9.573853 4.0878906 9.6855469 4.0878906 z M 3.0371094 4.6757812 L 6.6660156 4.6757812 C 6.7777092 4.6757812 6.8671875 4.7672124 6.8671875 4.8789062 C 6.8671875 4.9905998 6.7777095 5.0800781 6.6660156 5.0800781 L 3.0371094 5.0800781 C 2.9254159 5.0800781 2.8359375 4.9906001 2.8359375 4.8789062 C 2.8359375 4.7672127 2.9254155 4.6757812 3.0371094 4.6757812 z M 9.6855469 4.8945312 L 13.314453 4.8945312 C 13.426147 4.8945312 13.517578 4.9840092 13.517578 5.0957031 C 13.517578 5.2073967 13.426146 5.296875 13.314453 5.296875 L 9.6855469 5.296875 C 9.5738533 5.296875 9.484375 5.207397 9.484375 5.0957031 C 9.484375 4.9840096 9.573853 4.8945312 9.6855469 4.8945312 z M 3.0371094 5.4824219 L 6.6660156 5.4824219 C 6.7777092 5.4824219 6.8671875 5.573853 6.8671875 5.6855469 C 6.8671875 5.7972405 6.7777095 5.8867187 6.6660156 5.8867188 L 3.0371094 5.8867188 C 2.9254159 5.8867188 2.8359375 5.7972408 2.8359375 5.6855469 C 2.8359375 5.5738534 2.9254155 5.4824219 3.0371094 5.4824219 z M 9.6855469 5.7011719 L 11.298828 5.7011719 C 11.410522 5.7011719 11.5 5.7906499 11.5 5.9023438 C 11.5 6.0140372 11.410521 6.1035156 11.298828 6.1035156 L 9.6855469 6.1035156 C 9.5738533 6.1035156 9.484375 6.0140374 9.484375 5.9023438 C 9.484375 5.7906502 9.573853 5.7011719 9.6855469 5.7011719 z M 3.0371094 6.2890625 L 6.6660156 6.2890625 C 6.7777092 6.2890625 6.8671875 6.3804936 6.8671875 6.4921875 C 6.8671875 6.603881 6.7777095 6.6933594 6.6660156 6.6933594 L 3.0371094 6.6933594 C 2.9254159 6.6933594 2.8359375 6.6038814 2.8359375 6.4921875 C 2.8359375 6.3804939 2.9254155 6.2890625 3.0371094 6.2890625 z "
     id="rect1133-3" />
  <path
     style="display:inline;fill:#000000;fill-opacity:1;stroke:none;stroke-width:0.07877508;stroke-linecap:butt;stroke-linejoin:bevel;stroke-miterlimit:4;stroke-dasharray:none;stroke-opacity:1;paint-order:fill markers stroke"
     d="m 2.5468751,4.9966034e-4 c -0.856925,0 -1.546875,0.68994992966 -1.546875,1.54687503966 V 14.453625 c 0,0.856926 0.68995,1.546875 1.546875,1.546875 H 13.453125 C 14.31005,16.0005 15,15.310551 15,14.453625 V 1.5473747 C 15,0.69044958 14.31005,4.9966034e-4 13.453125,4.9966034e-4 Z M 2.1718751,0.64698404 H 13.828125 c 0.345534,0 0.623047,0.27751256 0.623047,0.62304686 v 5.203125 c 0,0.3455342 -0.277513,0.625 -0.623047,0.625 H 2.1718751 c -0.3455341,0 -0.623047,-0.2794658 -0.623047,-0.625 v -5.203125 c 0,-0.34553429 0.2775129,-0.62304686 0.623047,-0.62304686 z m 4.84375,7.67578126 h 1.384766 0.59375 L 9.4296871,9.0766716 9.875,8.818859 9.6699219,10.521984 8.0937501,9.8481559 8.5390621,9.5903434 8.0234371,8.6997184 8.0058591,8.6665153 7.8144531,8.9965934 6.7851561,10.777844 5.8945311,10.264172 6.9238281,8.4829216 Z m 3.2968749,2.2832037 1.029297,1.78125 0.0918,0.160156 -0.69336,1.199219 -0.296875,0.513671 H 9.5742191 v 0.515626 l -1.371094,-1.029297 1.371094,-1.027344 v 0.513672 h 1.0273429 0.03906 l -0.189453,-0.330078 -1.0292969,-1.78125 z m -4.1699219,0.257812 0.205078,1.701172 -0.445312,-0.255859 -0.5136721,0.890625 -0.019531,0.0332 H 5.75 7.806641 v 1.027343 H 5.7500001 5.5664061 L 4.873047,13.061047 4.576172,12.547375 5.0117191,11.793469 4.5664061,11.537609 Z"
     id="rect1096"
     inkscape:connector-curvature="0" />
</svg>
