<?xml version="1.0" encoding="UTF-8" standalone="no"?>
<svg
   xmlns:dc="http://purl.org/dc/elements/1.1/"
   xmlns:cc="http://creativecommons.org/ns#"
   xmlns:rdf="http://www.w3.org/1999/02/22-rdf-syntax-ns#"
   xmlns:svg="http://www.w3.org/2000/svg"
   xmlns="http://www.w3.org/2000/svg"
   xmlns:sodipodi="http://sodipodi.sourceforge.net/DTD/sodipodi-0.dtd"
   xmlns:inkscape="http://www.inkscape.org/namespaces/inkscape"
   height="16.001"
   width="16"
   version="1.1"
   id="svg4"
   sodipodi:docname="user-trash-symbolic.svg"
   inkscape:version="0.92.3 (2405546, 2018-03-11)">
  <metadata
     id="metadata10">
    <rdf:RDF>
      <cc:Work
         rdf:about="">
        <dc:format>image/svg+xml</dc:format>
        <dc:type
           rdf:resource="http://purl.org/dc/dcmitype/StillImage" />
      </cc:Work>
    </rdf:RDF>
  </metadata>
  <defs
     id="defs8" />
  <sodipodi:namedview
     pagecolor="#ffffff"
     bordercolor="#666666"
     borderopacity="1"
     objecttolerance="10"
     gridtolerance="10"
     guidetolerance="10"
     inkscape:pageopacity="0"
     inkscape:pageshadow="2"
     inkscape:window-width="1920"
     inkscape:window-height="1539"
     id="namedview6"
     showgrid="false"
     inkscape:zoom="20.858347"
     inkscape:cx="-14.755759"
     inkscape:cy="14.776598"
     inkscape:window-x="0"
     inkscape:window-y="27"
     inkscape:window-maximized="0"
     inkscape:current-layer="svg4" />
  <path
     style="display:inline;fill:#000000;fill-opacity:1;stroke:none;stroke-width:0.07877508;stroke-linecap:butt;stroke-linejoin:bevel;stroke-miterlimit:4;stroke-dasharray:none;stroke-opacity:1;paint-order:fill markers stroke"
     d="m 2.5468751,4.9966034e-4 c -0.856925,0 -1.546875,0.68994992966 -1.546875,1.54687503966 V 14.453625 c 0,0.856926 0.68995,1.546875 1.546875,1.546875 H 13.453125 C 14.31005,16.0005 15,15.310551 15,14.453625 V 1.5473747 C 15,0.69044958 14.31005,4.9966034e-4 13.453125,4.9966034e-4 Z M 2.1718751,0.64698404 H 13.828125 c 0.345534,0 0.623047,0.27751256 0.623047,0.62304686 v 5.203125 c 0,0.3455342 -0.277513,0.625 -0.623047,0.625 H 2.1718751 c -0.3455341,0 -0.623047,-0.2794658 -0.623047,-0.625 v -5.203125 c 0,-0.34553429 0.2775129,-0.62304686 0.623047,-0.62304686 z m 4.84375,7.67578126 h 1.384766 0.59375 L 9.4296871,9.0766716 9.875,8.818859 9.6699219,10.521984 8.0937501,9.8481559 8.5390621,9.5903434 8.0234371,8.6997184 8.0058591,8.6665153 7.8144531,8.9965934 6.7851561,10.777844 5.8945311,10.264172 6.9238281,8.4829216 Z m 3.2968749,2.2832037 1.029297,1.78125 0.0918,0.160156 -0.69336,1.199219 -0.296875,0.513671 H 9.5742191 v 0.515626 l -1.371094,-1.029297 1.371094,-1.027344 v 0.513672 h 1.0273429 0.03906 l -0.189453,-0.330078 -1.0292969,-1.78125 z m -4.1699219,0.257812 0.205078,1.701172 -0.445312,-0.255859 -0.5136721,0.890625 -0.019531,0.0332 H 5.75 7.806641 v 1.027343 H 5.7500001 5.5664061 L 4.873047,13.061047 4.576172,12.547375 5.0117191,11.793469 4.5664061,11.537609 Z"
     id="rect1096"
     inkscape:connector-curvature="0" />
</svg>
