<?xml version="1.0" encoding="UTF-8" standalone="no"?>
<svg
   xmlns:dc="http://purl.org/dc/elements/1.1/"
   xmlns:cc="http://creativecommons.org/ns#"
   xmlns:rdf="http://www.w3.org/1999/02/22-rdf-syntax-ns#"
   xmlns:svg="http://www.w3.org/2000/svg"
   xmlns="http://www.w3.org/2000/svg"
   xmlns:sodipodi="http://sodipodi.sourceforge.net/DTD/sodipodi-0.dtd"
   xmlns:inkscape="http://www.inkscape.org/namespaces/inkscape"
   height="16"
   width="16"
   version="1.1"
   id="svg4"
   sodipodi:docname="video-x-generic-symbolic.svg"
   inkscape:version="0.92.3 (2405546, 2018-03-11)">
  <metadata
     id="metadata10">
    <rdf:RDF>
      <cc:Work
         rdf:about="">
        <dc:format>image/svg+xml</dc:format>
        <dc:type
           rdf:resource="http://purl.org/dc/dcmitype/StillImage" />
      </cc:Work>
    </rdf:RDF>
  </metadata>
  <defs
     id="defs8" />
  <sodipodi:namedview
     pagecolor="#ffffff"
     bordercolor="#666666"
     borderopacity="1"
     objecttolerance="10"
     gridtolerance="10"
     guidetolerance="10"
     inkscape:pageopacity="0"
     inkscape:pageshadow="2"
     inkscape:window-width="1920"
     inkscape:window-height="1539"
     id="namedview6"
     showgrid="false"
     inkscape:zoom="22.627417"
     inkscape:cx="29.688422"
     inkscape:cy="-0.19058913"
     inkscape:window-x="1920"
     inkscape:window-y="27"
     inkscape:window-maximized="0"
     inkscape:current-layer="svg4" />
  <path
     style="fill:#b20903;fill-opacity:1;stroke:none;stroke-width:1.16473985;stroke-linecap:butt;stroke-linejoin:bevel;stroke-miterlimit:4;stroke-dasharray:none;stroke-opacity:1;paint-order:fill markers stroke"
     d="M 0 0 L 0 16 L 1 16 A 0.5 0.5 0 0 1 1.5 15.5 A 0.5 0.5 0 0 1 2 16 L 2.5 16 L 2.5 13.564453 C 2.5 13.251941 3.0268522 13 3.6816406 13 L 12.318359 13 C 12.973147 13 13.5 13.251941 13.5 13.564453 L 13.5 16 L 14 16 A 0.5 0.5 0 0 1 14.5 15.5 A 0.5 0.5 0 0 1 15 16 L 16 16 L 16 0 L 15 0 A 0.5 0.5 0 0 1 14.5 0.5 A 0.5 0.5 0 0 1 14 0 L 13.5 0 L 13.5 2.4355469 C 13.5 2.7480589 12.973147 3 12.318359 3 L 3.6816406 3 C 3.0268522 3 2.5 2.7480589 2.5 2.4355469 L 2.5 0 L 2 0 A 0.5 0.5 0 0 1 1.5 0.5 A 0.5 0.5 0 0 1 1 0 L 0 0 z M 1.5 1.5 A 0.5 0.5 0 0 1 2 2 A 0.5 0.5 0 0 1 1.5 2.5 A 0.5 0.5 0 0 1 1 2 A 0.5 0.5 0 0 1 1.5 1.5 z M 14.5 1.5 A 0.5 0.5 0 0 1 15 2 A 0.5 0.5 0 0 1 14.5 2.5 A 0.5 0.5 0 0 1 14 2 A 0.5 0.5 0 0 1 14.5 1.5 z M 1.5 3.5 A 0.5 0.5 0 0 1 2 4 A 0.5 0.5 0 0 1 1.5 4.5 A 0.5 0.5 0 0 1 1 4 A 0.5 0.5 0 0 1 1.5 3.5 z M 14.5 3.5 A 0.5 0.5 0 0 1 15 4 A 0.5 0.5 0 0 1 14.5 4.5 A 0.5 0.5 0 0 1 14 4 A 0.5 0.5 0 0 1 14.5 3.5 z M 3.6816406 4 L 12.318359 4 C 12.973147 4 13.5 4.3352692 13.5 4.7519531 L 13.5 11.248047 C 13.5 11.66473 12.973147 12 12.318359 12 L 3.6816406 12 C 3.0268522 12 2.5 11.66473 2.5 11.248047 L 2.5 4.7519531 C 2.5 4.3352692 3.0268522 4 3.6816406 4 z M 1.5 5.5 A 0.5 0.5 0 0 1 2 6 A 0.5 0.5 0 0 1 1.5 6.5 A 0.5 0.5 0 0 1 1 6 A 0.5 0.5 0 0 1 1.5 5.5 z M 14.5 5.5 A 0.5 0.5 0 0 1 15 6 A 0.5 0.5 0 0 1 14.5 6.5 A 0.5 0.5 0 0 1 14 6 A 0.5 0.5 0 0 1 14.5 5.5 z M 1.5 7.5 A 0.5 0.5 0 0 1 2 8 A 0.5 0.5 0 0 1 1.5 8.5 A 0.5 0.5 0 0 1 1 8 A 0.5 0.5 0 0 1 1.5 7.5 z M 14.5 7.5 A 0.5 0.5 0 0 1 15 8 A 0.5 0.5 0 0 1 14.5 8.5 A 0.5 0.5 0 0 1 14 8 A 0.5 0.5 0 0 1 14.5 7.5 z M 1.5 9.5 A 0.5 0.5 0 0 1 2 10 A 0.5 0.5 0 0 1 1.5 10.5 A 0.5 0.5 0 0 1 1 10 A 0.5 0.5 0 0 1 1.5 9.5 z M 14.5 9.5 A 0.5 0.5 0 0 1 15 10 A 0.5 0.5 0 0 1 14.5 10.5 A 0.5 0.5 0 0 1 14 10 A 0.5 0.5 0 0 1 14.5 9.5 z M 1.5 11.5 A 0.5 0.5 0 0 1 2 12 A 0.5 0.5 0 0 1 1.5 12.5 A 0.5 0.5 0 0 1 1 12 A 0.5 0.5 0 0 1 1.5 11.5 z M 14.5 11.5 A 0.5 0.5 0 0 1 15 12 A 0.5 0.5 0 0 1 14.5 12.5 A 0.5 0.5 0 0 1 14 12 A 0.5 0.5 0 0 1 14.5 11.5 z M 1.5 13.5 A 0.5 0.5 0 0 1 2 14 A 0.5 0.5 0 0 1 1.5 14.5 A 0.5 0.5 0 0 1 1 14 A 0.5 0.5 0 0 1 1.5 13.5 z M 14.5 13.5 A 0.5 0.5 0 0 1 15 14 A 0.5 0.5 0 0 1 14.5 14.5 A 0.5 0.5 0 0 1 14 14 A 0.5 0.5 0 0 1 14.5 13.5 z "
     id="rect823" />
</svg>
