<?xml version="1.0" encoding="UTF-8" standalone="no"?>
<svg
   xmlns:dc="http://purl.org/dc/elements/1.1/"
   xmlns:cc="http://creativecommons.org/ns#"
   xmlns:rdf="http://www.w3.org/1999/02/22-rdf-syntax-ns#"
   xmlns:svg="http://www.w3.org/2000/svg"
   xmlns="http://www.w3.org/2000/svg"
   xmlns:sodipodi="http://sodipodi.sourceforge.net/DTD/sodipodi-0.dtd"
   xmlns:inkscape="http://www.inkscape.org/namespaces/inkscape"
   height="16"
   width="16.05"
   version="1.1"
   id="svg10"
   sodipodi:docname="audio-input-microphone-high-symbolic.svg"
   inkscape:version="0.92.3 (2405546, 2018-03-11)">
  <metadata
     id="metadata16">
    <rdf:RDF>
      <cc:Work
         rdf:about="">
        <dc:format>image/svg+xml</dc:format>
        <dc:type
           rdf:resource="http://purl.org/dc/dcmitype/StillImage" />
        <dc:title></dc:title>
      </cc:Work>
    </rdf:RDF>
  </metadata>
  <defs
     id="defs14" />
  <sodipodi:namedview
     pagecolor="#ffffff"
     bordercolor="#666666"
     borderopacity="1"
     objecttolerance="10"
     gridtolerance="10"
     guidetolerance="10"
     inkscape:pageopacity="0"
     inkscape:pageshadow="2"
     inkscape:window-width="1920"
     inkscape:window-height="1474"
     id="namedview12"
     showgrid="false"
     inkscape:zoom="64"
     inkscape:cx="5.5961935"
     inkscape:cy="7.6540533"
     inkscape:window-x="0"
     inkscape:window-y="27"
     inkscape:window-maximized="0"
     inkscape:current-layer="svg10" />
  <g
     id="g8"
     transform="translate(-23.661017,-24.542373)"
     style="color:#000000;fill:#808080">
    <path
       d="m 15.343,4.926 0.707,0.707 -0.354,0.354 a 2.999,2.999 0 0 0 0,4.242 l 0.354,0.353 -0.707,0.707 -0.354,-0.353 a 4,4 0 0 1 0,-5.656 z"
       style="font-weight:400;line-height:normal;font-family:sans-serif;font-variant-ligatures:normal;font-variant-position:normal;font-variant-caps:normal;font-variant-numeric:normal;font-variant-alternates:normal;font-feature-settings:normal;text-indent:0;text-align:start;text-decoration:none;text-decoration-line:none;text-decoration-style:solid;text-decoration-color:#000000;text-transform:none;text-orientation:mixed;white-space:normal;shape-padding:0;overflow:visible;isolation:auto;mix-blend-mode:normal"
       font-weight="400"
       overflow="visible"
       id="path2"
       inkscape:connector-curvature="0" />
    <path
       d="m 13.221,2.805 0.707,0.707 -0.353,0.353 a 5.999,5.999 0 0 0 0,8.485 l 0.353,0.353 -0.707,0.707 -0.353,-0.353 a 7,7 0 0 1 0,-9.899 z"
       style="font-weight:400;line-height:normal;font-family:sans-serif;font-variant-ligatures:normal;font-variant-position:normal;font-variant-caps:normal;font-variant-numeric:normal;font-variant-alternates:normal;font-feature-settings:normal;text-indent:0;text-align:start;text-decoration:none;text-decoration-line:none;text-decoration-style:solid;text-decoration-color:#000000;text-transform:none;text-orientation:mixed;white-space:normal;shape-padding:0;overflow:visible;isolation:auto;mix-blend-mode:normal"
       font-weight="400"
       overflow="visible"
       id="path4"
       inkscape:connector-curvature="0" />
    <path
       d="M 4.496,0 C 3.087,0 2,0.842 2,2.537 V 8.461 C 2,10.156 3.087,11 4.496,11 5.906,11 6.99,10.154 6.99,8.46 V 2.538 C 6.99,0.845 5.905,0 4.496,0 Z m 0,0.998 c 0.505,0 0.856,0.142 1.088,0.361 0.232,0.22 0.408,0.545 0.408,1.178 V 8.461 C 5.992,9.094 5.816,9.419 5.584,9.639 5.352,9.858 5.001,10.002 4.496,10.002 3.991,10.002 3.638,9.859 3.406,9.641 3.175,9.421 2.998,9.095 2.998,8.461 V 2.537 c 0,-0.634 0.177,-0.959 0.408,-1.178 0.232,-0.218 0.585,-0.36 1.09,-0.36 z M 0,7 v 1.5 c 0,2.321 1.748,4.199 4,4.45 v 2.073 A 7.576,7.576 0 0 0 2,15.459 V 16 H 7 V 15.459 A 7.856,7.856 0 0 0 5,15.025 V 12.95 C 7.252,12.7 9,10.822 9,8.501 V 7 H 8 V 8.5 A 3.482,3.482 0 0 1 5,11.951 V 11.5 H 4 v 0.451 A 3.482,3.482 0 0 1 1,8.5 V 7 Z"
       style="overflow:visible;marker:none"
       overflow="visible"
       id="path6"
       inkscape:connector-curvature="0" />
  </g>
  <rect
     style="opacity:1;fill:#808080;fill-opacity:1;stroke:none;stroke-width:0.13110614;stroke-miterlimit:4;stroke-dasharray:none;stroke-opacity:1"
     id="rect823"
     width="2.7796609"
     height="8.7457628"
     x="3.2203391"
     y="1.4237287"
     ry="1.6428504" />
  <rect
     style="opacity:1;fill:#808080;fill-opacity:1;stroke:none;stroke-width:0.2;stroke-miterlimit:4;stroke-dasharray:none;stroke-opacity:1"
     id="rect825"
     width="5.3559322"
     height="1.0169492"
     x="1.9322034"
     y="14.983051"
     ry="0.50847459"
     rx="0" />
  <rect
     rx="0"
     ry="0.28813562"
     y="4.3220339"
     x="-15.81356"
     height="0.57627124"
     width="5.3559322"
     id="rect827"
     style="opacity:1;fill:#808080;fill-opacity:1;stroke:none;stroke-width:0.15055454;stroke-miterlimit:4;stroke-dasharray:none;stroke-opacity:1"
     transform="rotate(-90)" />
  <path
     style="color:#000000;font-style:normal;font-variant:normal;font-weight:normal;font-stretch:normal;font-size:medium;line-height:normal;font-family:sans-serif;font-variant-ligatures:normal;font-variant-position:normal;font-variant-caps:normal;font-variant-numeric:normal;font-variant-alternates:normal;font-feature-settings:normal;text-indent:0;text-align:start;text-decoration:none;text-decoration-line:none;text-decoration-style:solid;text-decoration-color:#000000;letter-spacing:normal;word-spacing:normal;text-transform:none;writing-mode:lr-tb;direction:ltr;text-orientation:mixed;dominant-baseline:auto;baseline-shift:baseline;text-anchor:start;white-space:normal;shape-padding:0;clip-rule:nonzero;display:inline;overflow:visible;visibility:visible;opacity:1;isolation:auto;mix-blend-mode:normal;color-interpolation:sRGB;color-interpolation-filters:linearRGB;solid-color:#000000;solid-opacity:1;vector-effect:none;fill:#808080;fill-opacity:1;fill-rule:nonzero;stroke:none;stroke-width:0.69999999;stroke-linecap:round;stroke-linejoin:round;stroke-miterlimit:10.00000095;stroke-dasharray:none;stroke-dashoffset:0;stroke-opacity:1;color-rendering:auto;image-rendering:auto;shape-rendering:auto;text-rendering:auto;enable-background:accumulate"
     d="m 6.9602993,9.2976445 a 0.35003499,0.35003499 0 0 0 -0.697266,-0.0098 c -0.105246,0.9112805 -0.809588,1.5917985 -1.654296,1.5917985 -0.841663,0 -1.550339,-0.68092 -1.650391,-1.5898455 a 0.35003499,0.35003499 0 1 0 -0.695313,0.07617 c 0.135807,1.2337345 1.127753,2.2128955 2.345704,2.2128955 1.220058,0 2.207393,-0.979563 2.349609,-2.2109385 a 0.35003499,0.35003499 0 0 0 0.002,-0.07031 z"
     id="path4078-0-7-6-2-9-1"
     inkscape:connector-curvature="0" />
  <path
     inkscape:connector-curvature="0"
     id="path835"
     d="m 7.8739321,3.4464802 a 0.35003499,0.35003499 0 0 0 -0.0098,0.697266 c 0.9112805,0.105246 1.5917985,0.809588 1.5917985,1.6542962 0,0.841663 -0.68092,1.550339 -1.5898455,1.650391 a 0.35003499,0.35003499 0 1 0 0.07617,0.695313 c 1.2337345,-0.135807 2.2128959,-1.127753 2.2128959,-2.345704 0,-1.2200582 -0.9795634,-2.2073932 -2.2109389,-2.3496092 a 0.35003499,0.35003499 0 0 0 -0.07031,-0.002 z"
     style="color:#000000;font-style:normal;font-variant:normal;font-weight:normal;font-stretch:normal;font-size:medium;line-height:normal;font-family:sans-serif;font-variant-ligatures:normal;font-variant-position:normal;font-variant-caps:normal;font-variant-numeric:normal;font-variant-alternates:normal;font-feature-settings:normal;text-indent:0;text-align:start;text-decoration:none;text-decoration-line:none;text-decoration-style:solid;text-decoration-color:#000000;letter-spacing:normal;word-spacing:normal;text-transform:none;writing-mode:lr-tb;direction:ltr;text-orientation:mixed;dominant-baseline:auto;baseline-shift:baseline;text-anchor:start;white-space:normal;shape-padding:0;clip-rule:nonzero;display:inline;overflow:visible;visibility:visible;opacity:1;isolation:auto;mix-blend-mode:normal;color-interpolation:sRGB;color-interpolation-filters:linearRGB;solid-color:#000000;solid-opacity:1;vector-effect:none;fill:#808080;fill-opacity:1;fill-rule:nonzero;stroke:none;stroke-width:0.69999999;stroke-linecap:round;stroke-linejoin:round;stroke-miterlimit:10.00000095;stroke-dasharray:none;stroke-dashoffset:0;stroke-opacity:1;color-rendering:auto;image-rendering:auto;shape-rendering:auto;text-rendering:auto;enable-background:accumulate" />
  <path
     style="color:#000000;font-style:normal;font-variant:normal;font-weight:normal;font-stretch:normal;font-size:medium;line-height:normal;font-family:sans-serif;font-variant-ligatures:normal;font-variant-position:normal;font-variant-caps:normal;font-variant-numeric:normal;font-variant-alternates:normal;font-feature-settings:normal;text-indent:0;text-align:start;text-decoration:none;text-decoration-line:none;text-decoration-style:solid;text-decoration-color:#000000;letter-spacing:normal;word-spacing:normal;text-transform:none;writing-mode:lr-tb;direction:ltr;text-orientation:mixed;dominant-baseline:auto;baseline-shift:baseline;text-anchor:start;white-space:normal;shape-padding:0;clip-rule:nonzero;display:inline;overflow:visible;visibility:visible;opacity:1;isolation:auto;mix-blend-mode:normal;color-interpolation:sRGB;color-interpolation-filters:linearRGB;solid-color:#000000;solid-opacity:1;vector-effect:none;fill:#808080;fill-opacity:1;fill-rule:nonzero;stroke:none;stroke-width:0.69999999;stroke-linecap:round;stroke-linejoin:round;stroke-miterlimit:10.00000095;stroke-dasharray:none;stroke-dashoffset:0;stroke-opacity:1;color-rendering:auto;image-rendering:auto;shape-rendering:auto;text-rendering:auto;enable-background:accumulate"
     d="m 9.0084685,1.9464646 a 0.35003499,0.35003499 0 0 0 -0.0098,0.6972656 c 1.7147735,0.198045 3.0175775,1.5372536 3.0175775,3.1562496 0,1.614019 -1.303206,2.959937 -3.0156245,3.148437 a 0.35003499,0.35003499 0 1 0 0.07617,0.695313 c 2.0372225,-0.224254 3.6386715,-1.853443 3.6386715,-3.84375 0,-1.9943452 -1.60185,-3.6165483 -3.6367185,-3.8515621 a 0.35003499,0.35003499 0 0 0 -0.07031,-0.00195 z"
     id="path4078-0-7-6-2-9-1-2"
     inkscape:connector-curvature="0" />
</svg>
