<?xml version="1.0" encoding="UTF-8" standalone="no"?>
<svg
   xmlns:dc="http://purl.org/dc/elements/1.1/"
   xmlns:cc="http://creativecommons.org/ns#"
   xmlns:rdf="http://www.w3.org/1999/02/22-rdf-syntax-ns#"
   xmlns:svg="http://www.w3.org/2000/svg"
   xmlns="http://www.w3.org/2000/svg"
   xmlns:sodipodi="http://sodipodi.sourceforge.net/DTD/sodipodi-0.dtd"
   xmlns:inkscape="http://www.inkscape.org/namespaces/inkscape"
   height="16"
   width="16"
   version="1.1"
   id="svg4"
   sodipodi:docname="network-cellular-signal-none-secure-symbolic.svg"
   inkscape:version="0.92.3 (2405546, 2018-03-11)">
  <metadata
     id="metadata10">
    <rdf:RDF>
      <cc:Work
         rdf:about="">
        <dc:format>image/svg+xml</dc:format>
        <dc:type
           rdf:resource="http://purl.org/dc/dcmitype/StillImage" />
      </cc:Work>
    </rdf:RDF>
  </metadata>
  <defs
     id="defs8" />
  <sodipodi:namedview
     pagecolor="#ffffff"
     bordercolor="#666666"
     borderopacity="1"
     objecttolerance="10"
     gridtolerance="10"
     guidetolerance="10"
     inkscape:pageopacity="0"
     inkscape:pageshadow="2"
     inkscape:window-width="1920"
     inkscape:window-height="1539"
     id="namedview6"
     showgrid="false"
     inkscape:zoom="14.75"
     inkscape:cx="-12.521565"
     inkscape:cy="15.925089"
     inkscape:window-x="1920"
     inkscape:window-y="27"
     inkscape:window-maximized="0"
     inkscape:current-layer="svg4" />
  <rect
     style="opacity:0.5;fill:#808080;fill-opacity:1;stroke:none;stroke-width:1.09383595;stroke-linecap:butt;stroke-linejoin:bevel;stroke-miterlimit:4;stroke-dasharray:none;stroke-opacity:1;paint-order:fill markers stroke"
     id="rect817"
     width="3.2"
     height="9.6000004"
     x="6.4000001"
     y="6.4000001" />
  <rect
     style="opacity:0.5;fill:#808080;fill-opacity:1;stroke:none;stroke-width:0.89311326;stroke-linecap:butt;stroke-linejoin:bevel;stroke-miterlimit:4;stroke-dasharray:none;stroke-opacity:1;paint-order:fill markers stroke"
     id="rect817-3"
     width="3.2"
     height="6.4000001"
     x="3.1999998"
     y="9.6000004" />
  <rect
     style="opacity:0.5;fill:#808080;fill-opacity:1;stroke:none;stroke-width:1.26305294;stroke-linecap:butt;stroke-linejoin:bevel;stroke-miterlimit:4;stroke-dasharray:none;stroke-opacity:1;paint-order:fill markers stroke"
     id="rect817-6"
     width="3.2"
     height="12.8"
     x="9.6000004"
     y="3.2" />
  <rect
     style="opacity:1;fill:#808080;fill-opacity:1;stroke:none;stroke-width:0.63152647;stroke-linecap:butt;stroke-linejoin:bevel;stroke-miterlimit:4;stroke-dasharray:none;stroke-opacity:1;paint-order:fill markers stroke"
     id="rect817-7"
     width="3.2"
     height="3.2"
     x="-2.3841858e-07"
     y="12.8" />
  <rect
     style="opacity:0.5;fill:#808080;fill-opacity:1;stroke:none;stroke-width:1.41213608;stroke-linecap:butt;stroke-linejoin:bevel;stroke-miterlimit:4;stroke-dasharray:none;stroke-opacity:1;paint-order:fill markers stroke"
     id="rect817-5"
     width="3.2"
     height="16"
     x="12.8"
     y="0" />
  <path
     style="fill:#808080;fill-opacity:1;stroke:none;stroke-width:0.03129256;stroke-miterlimit:10;stroke-dasharray:none;stroke-opacity:1"
     d="M 2.694216,0 C 1.779189,0 1.03406,0.7534144 1.033684,1.6769404 c 6e-6,0.01475 0.0061,0.02798 0.0066,0.04266 H 0 v 4.983238 H 5.388526 V 1.7196014 H 4.348232 c 3.91e-4,-0.01468 0.0066,-0.02792 0.0066,-0.04266 C 4.354466,0.7534144 3.609338,0 2.69431,0 Z m 0,0.3724711 c 0.71555,0 1.291017,0.58228233 1.291343,1.3044693 -8e-6,0.01478 -0.006,0.02797 -0.0066,0.04266 h -2.5712 c -4.97e-4,-0.01469 -0.0066,-0.02789 -0.0066,-0.04266 3.93e-4,-0.72212997 0.577475,-1.3044693 1.292983,-1.3044693 z m 0,2.3283553 a 0.61907158,0.5776646 0 0 1 0.618598,0.577576 0.61907158,0.5776646 0 0 1 -0.29207,0.490611 l 0.446309,1.678582 H 1.921379 L 2.366048,3.7673734 A 0.61907158,0.5776646 0 0 1 2.075619,3.2784024 0.61907158,0.5776646 0 0 1 2.694216,2.7008264 Z"
     id="rect1093"
     inkscape:connector-curvature="0" />
</svg>
