<?xml version="1.0" encoding="UTF-8" standalone="no"?>
<svg
   xmlns:dc="http://purl.org/dc/elements/1.1/"
   xmlns:cc="http://creativecommons.org/ns#"
   xmlns:rdf="http://www.w3.org/1999/02/22-rdf-syntax-ns#"
   xmlns:svg="http://www.w3.org/2000/svg"
   xmlns="http://www.w3.org/2000/svg"
   xmlns:sodipodi="http://sodipodi.sourceforge.net/DTD/sodipodi-0.dtd"
   xmlns:inkscape="http://www.inkscape.org/namespaces/inkscape"
   height="16"
   width="16"
   version="1.1"
   id="svg8"
   sodipodi:docname="rotation-allowed-symbolic.svg"
   inkscape:version="0.92.3 (2405546, 2018-03-11)">
  <metadata
     id="metadata14">
    <rdf:RDF>
      <cc:Work
         rdf:about="">
        <dc:format>image/svg+xml</dc:format>
        <dc:type
           rdf:resource="http://purl.org/dc/dcmitype/StillImage" />
        <dc:title></dc:title>
      </cc:Work>
    </rdf:RDF>
  </metadata>
  <defs
     id="defs12" />
  <sodipodi:namedview
     pagecolor="#ffffff"
     bordercolor="#666666"
     borderopacity="1"
     objecttolerance="10"
     gridtolerance="10"
     guidetolerance="10"
     inkscape:pageopacity="0"
     inkscape:pageshadow="2"
     inkscape:window-width="1920"
     inkscape:window-height="1474"
     id="namedview10"
     showgrid="false"
     inkscape:zoom="29.5"
     inkscape:cx="-0.31748917"
     inkscape:cy="3.9810597"
     inkscape:window-x="0"
     inkscape:window-y="27"
     inkscape:window-maximized="0"
     inkscape:current-layer="svg8" />
  <path
     style="opacity:1;fill:#808080;fill-opacity:1;stroke:none;stroke-width:0.80841184;stroke-linecap:butt;stroke-linejoin:bevel;stroke-miterlimit:4;stroke-dasharray:none;stroke-opacity:1;paint-order:fill markers stroke"
     d="M 14.475325,7.0480921 A 6.4889386,6.5 0 0 0 7.986385,0.54809309 6.4889386,6.5 0 0 0 1.5091455,6.7023901 L 0.57129115,5.7629371 0,6.3332501 l 1.4252914,1.4297 0.5713051,0.5703 0.5712911,-0.570314 1.4253054,-1.429686 -0.5713051,-0.570299 -0.9066575,0.908203 a 5.4906404,5.5 0 0 1 5.4711427,-5.123047 5.4906404,5.5 0 0 1 5.4906409,5.5 5.4906404,5.5 0 0 1 -0.157935,1.285156 h 1.021697 a 6.4889386,6.5 0 0 0 0.134549,-1.285171 z"
     id="path823-3"
     inkscape:connector-curvature="0" />
  <path
     style="fill:#808080;fill-opacity:1;stroke:none;stroke-width:0.04657165;stroke-miterlimit:10;stroke-dasharray:none;stroke-opacity:1;opacity:0.5"
     d="m 7.9999321,3.2711839 c -1.3584816,0 -2.4647281,1.124024 -2.4652857,2.501837 1e-5,0.02201 0.00906,0.04174 0.0098,0.06365 H 4 v 7.4345181 h 8 V 5.8366719 h -1.544458 c 5.81e-4,-0.0219 0.0098,-0.04166 0.0098,-0.06365 -5.4e-4,-1.377814 -1.106784,-2.501838 -2.4652675,-2.501838 z m 0,0.555692 c 1.0623319,0 1.9166899,0.86871 1.9171739,1.946145 -1.2e-5,0.02205 -0.0089,0.04173 -0.0098,0.06365 H 6.0900104 c -6.84e-4,-0.02191 -0.0098,-0.04161 -0.0098,-0.06365 5.84e-4,-1.07735 0.8573409,-1.946145 1.9196097,-1.946145 z m 0,3.473685 A 0.91909603,0.86182087 0 0 1 8.9183249,8.1622502 0.91909603,0.86182087 0 0 1 8.4847073,8.8941952 L 9.147314,11.39848 H 6.8525497 L 7.5127217,8.8917482 A 0.91909603,0.86182087 0 0 1 7.0815409,8.1622502 0.91909603,0.86182087 0 0 1 7.9999321,7.3005609 Z"
     id="rect1093"
     inkscape:connector-curvature="0" />
  <path
     inkscape:connector-curvature="0"
     id="path833"
     d="M 1.4741499,9.9539044 A 6.5115877,5.9905568 0 0 0 7.9857382,15.94446 6.5115877,5.9905568 0 0 0 14.485586,10.272512 L 15.426714,11.138334 16,10.61272 14.569733,9.2950746 13.996434,8.7694725 13.423149,9.2950875 11.992869,10.61272 12.566168,11.138321 13.475991,10.3013 A 5.5098051,5.0689327 0 0 1 7.98575,15.022823 5.5098051,5.0689327 0 0 1 2.4759457,9.9538904 5.5098051,5.0689327 0 0 1 2.6344307,8.7694604 H 1.6091682 a 6.5115877,5.9905568 0 0 0 -0.1350183,1.184444 z"
     style="opacity:1;fill:#808080;fill-opacity:1;stroke:none;stroke-width:0.77743876;stroke-linecap:butt;stroke-linejoin:bevel;stroke-miterlimit:4;stroke-dasharray:none;stroke-opacity:1;paint-order:fill markers stroke" />
</svg>
