<?xml version="1.0" encoding="UTF-8" standalone="no"?>
<svg
   xmlns:dc="http://purl.org/dc/elements/1.1/"
   xmlns:cc="http://creativecommons.org/ns#"
   xmlns:rdf="http://www.w3.org/1999/02/22-rdf-syntax-ns#"
   xmlns:svg="http://www.w3.org/2000/svg"
   xmlns="http://www.w3.org/2000/svg"
   xmlns:sodipodi="http://sodipodi.sourceforge.net/DTD/sodipodi-0.dtd"
   xmlns:inkscape="http://www.inkscape.org/namespaces/inkscape"
   height="16"
   width="16"
   version="1.1"
   id="svg4"
   sodipodi:docname="weather-few-clouds-symbolic.svg"
   inkscape:version="0.92.3 (2405546, 2018-03-11)">
  <metadata
     id="metadata10">
    <rdf:RDF>
      <cc:Work
         rdf:about="">
        <dc:format>image/svg+xml</dc:format>
        <dc:type
           rdf:resource="http://purl.org/dc/dcmitype/StillImage" />
        <dc:title></dc:title>
      </cc:Work>
    </rdf:RDF>
  </metadata>
  <defs
     id="defs8" />
  <sodipodi:namedview
     pagecolor="#ffffff"
     bordercolor="#666666"
     borderopacity="1"
     objecttolerance="10"
     gridtolerance="10"
     guidetolerance="10"
     inkscape:pageopacity="0"
     inkscape:pageshadow="2"
     inkscape:window-width="1920"
     inkscape:window-height="1474"
     id="namedview6"
     showgrid="false"
     inkscape:zoom="41.7193"
     inkscape:cx="4.461533"
     inkscape:cy="7.8324333"
     inkscape:window-x="0"
     inkscape:window-y="27"
     inkscape:window-maximized="0"
     inkscape:current-layer="svg4" />
  <path
     style="opacity:1;fill:none;fill-opacity:1;stroke:#808080;stroke-width:0.42652452;stroke-linecap:butt;stroke-linejoin:bevel;stroke-miterlimit:4;stroke-dasharray:none;stroke-opacity:1;paint-order:fill markers stroke"
     d="M 9.824982,3.2139866 A 4.4990126,4.244919 0 0 0 6.0438121,5.2930769 3.0976053,2.9226599 0 0 0 5.0866897,5.1655257 3.0976053,2.9226599 0 0 0 2.0463416,8.1247243 3.0976053,2.9226599 0 0 0 2.0531576,8.249725 C 1.0077767,8.4102578 0.21326227,9.254912 0.21326227,10.288 v 0.426023 c 0,1.148288 0.97975933,2.072714 2.19678293,2.072714 H 13.589956 c 1.217022,0 2.196782,-0.924426 2.196782,-2.072714 V 10.288 c 0,-0.9092935 -0.618893,-1.6708549 -1.478942,-1.9515393 a 4.4990126,4.244919 0 0 0 0.09869,-0.8788315 l -0.0015,-0.1045891 A 4.4990126,4.244919 0 0 0 9.8249432,3.2139866 Z"
     id="rect834"
     inkscape:connector-curvature="0" />
</svg>
