<?xml version="1.0" encoding="UTF-8" standalone="no"?>
<svg
   xmlns:dc="http://purl.org/dc/elements/1.1/"
   xmlns:cc="http://creativecommons.org/ns#"
   xmlns:rdf="http://www.w3.org/1999/02/22-rdf-syntax-ns#"
   xmlns:svg="http://www.w3.org/2000/svg"
   xmlns="http://www.w3.org/2000/svg"
   xmlns:sodipodi="http://sodipodi.sourceforge.net/DTD/sodipodi-0.dtd"
   xmlns:inkscape="http://www.inkscape.org/namespaces/inkscape"
   height="16"
   width="16.001"
   version="1.1"
   id="svg6"
   sodipodi:docname="weather-severe-alert-symbolic.svg"
   inkscape:version="0.92.3 (2405546, 2018-03-11)">
  <metadata
     id="metadata12">
    <rdf:RDF>
      <cc:Work
         rdf:about="">
        <dc:format>image/svg+xml</dc:format>
        <dc:type
           rdf:resource="http://purl.org/dc/dcmitype/StillImage" />
        <dc:title />
      </cc:Work>
    </rdf:RDF>
  </metadata>
  <defs
     id="defs10">
    <filter
       style="color-interpolation-filters:sRGB"
       inkscape:label="Drop Shadow"
       id="filter1128">
      <feFlood
         flood-opacity="0.498039"
         flood-color="rgb(0,0,0)"
         result="flood"
         id="feFlood1118" />
      <feComposite
         in="flood"
         in2="SourceGraphic"
         operator="in"
         result="composite1"
         id="feComposite1120" />
      <feGaussianBlur
         in="composite1"
         stdDeviation="5"
         result="blur"
         id="feGaussianBlur1122" />
      <feOffset
         dx="0"
         dy="0"
         result="offset"
         id="feOffset1124" />
      <feComposite
         in="SourceGraphic"
         in2="offset"
         operator="over"
         result="composite2"
         id="feComposite1126" />
    </filter>
    <filter
       style="color-interpolation-filters:sRGB"
       inkscape:label="Drop Shadow"
       id="filter1128-3">
      <feFlood
         flood-opacity="0.498039"
         flood-color="rgb(0,0,0)"
         result="flood"
         id="feFlood1118-6" />
      <feComposite
         in="flood"
         in2="SourceGraphic"
         operator="in"
         result="composite1"
         id="feComposite1120-7" />
      <feGaussianBlur
         in="composite1"
         stdDeviation="5"
         result="blur"
         id="feGaussianBlur1122-5" />
      <feOffset
         dx="0"
         dy="0"
         result="offset"
         id="feOffset1124-3" />
      <feComposite
         in="SourceGraphic"
         in2="offset"
         operator="over"
         result="composite2"
         id="feComposite1126-5" />
    </filter>
  </defs>
  <sodipodi:namedview
     pagecolor="#ffffff"
     bordercolor="#666666"
     borderopacity="1"
     objecttolerance="10"
     gridtolerance="10"
     guidetolerance="10"
     inkscape:pageopacity="0"
     inkscape:pageshadow="2"
     inkscape:window-width="1920"
     inkscape:window-height="1474"
     id="namedview8"
     showgrid="false"
     inkscape:zoom="41.7193"
     inkscape:cx="7.5822578"
     inkscape:cy="3.2950706"
     inkscape:window-x="1920"
     inkscape:window-y="27"
     inkscape:window-maximized="0"
     inkscape:current-layer="svg6" />
  <path
     style="opacity:1;fill:#808080;fill-opacity:1;stroke:none;stroke-width:0.44185147;stroke-linecap:butt;stroke-linejoin:bevel;stroke-miterlimit:4;stroke-dasharray:none;stroke-opacity:1;paint-order:fill markers stroke"
     d="M 9.8754997,3.001345 A 4.6222223,4.4340474 0 0 0 5.9907341,5.17322 3.1824362,3.0528763 0 0 0 5.0083122,5.0404076 3.1824362,3.0528763 0 0 0 1.8852653,8.1302513 3.1824362,3.0528763 0 0 0 1.8911247,8.2611107 C 0.81711818,8.4287957 4.9972534e-4,9.3109009 4.9972534e-4,10.390017 v 0.445312 c 0,1.199449 1.00745937466,2.164063 2.25781247466,2.164063 H 13.744641 c 1.250352,0 2.255859,-0.964614 2.255859,-2.164063 v -0.445312 c 0,-0.9498061 -0.635929,-1.7458716 -1.519531,-2.0390626 a 4.6222223,4.4340474 0 0 0 0.101562,-0.9179687 l -0.002,-0.109375 A 4.6222223,4.4340474 0 0 0 9.8754997,3.001345 Z M 7.5669059,4.9993919 H 8.4340935 V 5.39197 c 0,1.3673759 -0.073185,2.6088321 -0.2207032,3.7265626 H 7.7876091 C 7.6400913,8.0008021 7.566906,6.7593459 7.5669059,5.39197 Z M 8.0004997,9.95447 c 0.1531915,0 0.2785461,0.050216 0.375,0.152344 0.1021277,0.102127 0.1523437,0.227482 0.1523438,0.375 0,0.147517 -0.050216,0.270919 -0.1523438,0.373047 -0.096454,0.09645 -0.2218085,0.144531 -0.375,0.144531 -0.1531915,0 -0.2806848,-0.04808 -0.3828125,-0.144531 -0.096454,-0.102128 -0.1445313,-0.22553 -0.1445313,-0.373047 0,-0.147518 0.048077,-0.272873 0.1445313,-0.375 0.1021277,-0.102128 0.229621,-0.1523439 0.3828125,-0.152344 z"
     id="rect834"
     inkscape:connector-curvature="0" />
</svg>
