<?xml version="1.0" encoding="UTF-8" standalone="no"?>
<svg
   xmlns:dc="http://purl.org/dc/elements/1.1/"
   xmlns:cc="http://creativecommons.org/ns#"
   xmlns:rdf="http://www.w3.org/1999/02/22-rdf-syntax-ns#"
   xmlns:svg="http://www.w3.org/2000/svg"
   xmlns="http://www.w3.org/2000/svg"
   xmlns:sodipodi="http://sodipodi.sourceforge.net/DTD/sodipodi-0.dtd"
   xmlns:inkscape="http://www.inkscape.org/namespaces/inkscape"
   height="16"
   width="16"
   version="1.1"
   id="svg8"
   sodipodi:docname="mail-reply-all-symbolic.svg"
   inkscape:version="0.92.3 (2405546, 2018-03-11)">
  <metadata
     id="metadata14">
    <rdf:RDF>
      <cc:Work
         rdf:about="">
        <dc:format>image/svg+xml</dc:format>
        <dc:type
           rdf:resource="http://purl.org/dc/dcmitype/StillImage" />
      </cc:Work>
    </rdf:RDF>
  </metadata>
  <defs
     id="defs12" />
  <sodipodi:namedview
     pagecolor="#ffffff"
     bordercolor="#666666"
     borderopacity="1"
     objecttolerance="10"
     gridtolerance="10"
     guidetolerance="10"
     inkscape:pageopacity="0"
     inkscape:pageshadow="2"
     inkscape:window-width="2800"
     inkscape:window-height="1539"
     id="namedview10"
     showgrid="false"
     inkscape:zoom="59"
     inkscape:cx="8.9658277"
     inkscape:cy="6.4484065"
     inkscape:window-x="0"
     inkscape:window-y="27"
     inkscape:window-maximized="0"
     inkscape:current-layer="svg8" />
  <path
     style="opacity:1;fill:#808080;fill-opacity:1;stroke:none;stroke-width:0.89164054;stroke-linecap:butt;stroke-linejoin:bevel;stroke-miterlimit:4;stroke-dasharray:none;stroke-opacity:1;paint-order:fill markers stroke"
     d="M 4.166666,16 5.357142,14.809523 2.380953,11.833334 5.357142,8.8571432 4.166666,7.6666662 1.190474,10.642857 0,11.833334 1.190474,13.023808 Z"
     id="rect816-3-7-5"
     inkscape:connector-curvature="0" />
  <g
     id="g820">
    <path
       id="rect849-3"
       d="m 14.316406,2.6816406 v 7.6601564 c 0,0.359538 -0.2889,0.650391 -0.648437,0.650391 H 1.0058594 c 0.036468,0.937709 0.7991353,1.683593 1.7460937,1.683593 H 14.248047 C 15.218429,12.675781 16,11.89421 16,10.923828 V 4.4257812 C 16,3.4788228 15.254116,2.7181082 14.316406,2.6816406 Z"
       style="opacity:1;fill:#808080;fill-opacity:1;stroke:none;stroke-width:1.59213877;stroke-linecap:butt;stroke-linejoin:bevel;stroke-miterlimit:4;stroke-dasharray:none;stroke-opacity:1;paint-order:fill markers stroke"
       inkscape:connector-curvature="0" />
    <path
       sodipodi:nodetypes="ccccccc"
       inkscape:connector-curvature="0"
       id="rect816-3-7-5-6-7"
       d="M 14.316413,5.8925582 16,5.8925572 V 1.68359 L 15.999999,0 l -1.683587,2e-6 1e-6,1.683584 z"
       style="opacity:1;fill:#808080;fill-opacity:1;stroke:none;stroke-width:0.89164054;stroke-linecap:butt;stroke-linejoin:bevel;stroke-miterlimit:4;stroke-dasharray:none;stroke-opacity:1;paint-order:fill markers stroke" />
  </g>
  <path
     style="opacity:1;fill:#808080;fill-opacity:1;stroke:none;stroke-width:1.59213877;stroke-linecap:butt;stroke-linejoin:bevel;stroke-miterlimit:4;stroke-dasharray:none;stroke-opacity:1;paint-order:fill markers stroke"
     d="M 10.03125 2.6816406 L 10.03125 10.341797 C 10.03125 10.701335 9.7423495 10.992187 9.3828125 10.992188 L 1.4414062 10.992188 L 1.4414062 12.675781 L 9.9628906 12.675781 C 10.933273 12.675781 11.714844 11.89421 11.714844 10.923828 L 11.714844 4.4257812 C 11.714844 3.4788229 10.96896 2.7181082 10.03125 2.6816406 z "
     id="rect849-3-6" />
  <path
     style="opacity:1;fill:#808080;fill-opacity:1;stroke:none;stroke-width:0.89164054;stroke-linecap:butt;stroke-linejoin:bevel;stroke-miterlimit:4;stroke-dasharray:none;stroke-opacity:1;paint-order:fill markers stroke"
     d="m 10.032155,5.8925582 1.683587,-1e-6 V 1.68359 L 11.715741,0 l -1.683587,2e-6 10e-7,1.683584 z"
     id="rect816-3-7-5-6-7-7"
     inkscape:connector-curvature="0"
     sodipodi:nodetypes="ccccccc" />
</svg>
