<?xml version="1.0" encoding="UTF-8" standalone="no"?>
<svg
   xmlns:dc="http://purl.org/dc/elements/1.1/"
   xmlns:cc="http://creativecommons.org/ns#"
   xmlns:rdf="http://www.w3.org/1999/02/22-rdf-syntax-ns#"
   xmlns:svg="http://www.w3.org/2000/svg"
   xmlns="http://www.w3.org/2000/svg"
   xmlns:sodipodi="http://sodipodi.sourceforge.net/DTD/sodipodi-0.dtd"
   xmlns:inkscape="http://www.inkscape.org/namespaces/inkscape"
   height="16"
   width="16"
   version="1.1"
   id="svg8"
   sodipodi:docname="preferences-system-notifications-symbolic.svg"
   inkscape:version="0.92.3 (2405546, 2018-03-11)">
  <metadata
     id="metadata14">
    <rdf:RDF>
      <cc:Work
         rdf:about="">
        <dc:format>image/svg+xml</dc:format>
        <dc:type
           rdf:resource="http://purl.org/dc/dcmitype/StillImage" />
        <dc:title></dc:title>
      </cc:Work>
    </rdf:RDF>
  </metadata>
  <defs
     id="defs12" />
  <sodipodi:namedview
     pagecolor="#ffffff"
     bordercolor="#666666"
     borderopacity="1"
     objecttolerance="10"
     gridtolerance="10"
     guidetolerance="10"
     inkscape:pageopacity="0"
     inkscape:pageshadow="2"
     inkscape:window-width="1920"
     inkscape:window-height="1539"
     id="namedview10"
     showgrid="false"
     inkscape:zoom="7.375"
     inkscape:cx="5.0508475"
     inkscape:cy="21.868369"
     inkscape:window-x="1920"
     inkscape:window-y="27"
     inkscape:window-maximized="0"
     inkscape:current-layer="svg8" />
  <g
     id="g906"
     transform="translate(-2.4406779,23.122659)">
    <path
       inkscape:connector-curvature="0"
       id="path858"
       d="m 8.6018105,-9.9736515 a 1.9915611,1.9915611 0 0 0 -0.1523437,0.7617188 1.9915611,1.9915611 0 0 0 1.9921872,1.9921874 1.9915611,1.9915611 0 0 0 1.990235,-1.9921874 1.9915611,1.9915611 0 0 0 -0.152344,-0.7617188 z"
       style="opacity:1;fill:#808080;fill-opacity:1;stroke:none;stroke-width:1.33949578;stroke-opacity:0.94117647" />
    <circle
       r="1"
       style="opacity:1;fill:#808080;fill-opacity:1;stroke:none;stroke-width:0.67258579;stroke-opacity:0.94117647"
       id="circle862"
       cx="10.440678"
       cy="-22.025574" />
    <path
       inkscape:connector-curvature="0"
       id="circle838"
       d="m 10.440773,-21.56768 a 5.3108296,5.3108296 0 0 0 -5.3082359,5.269338 c -5.6e-5,0.0037 -0.0027,0.0066 -0.0027,0.01036 v 0.03112 5.186357 c 0,0.394121 0.319002,0.710531 0.713125,0.710531 h 9.1980029 c 0.394121,0 0.710531,-0.31641 0.710531,-0.710531 v -5.186344 a 5.3108296,5.3108296 0 0 0 0,-0.03112 c 0,-0.0028 -0.0026,-0.0049 -0.0026,-0.0078 A 5.3108296,5.3108296 0 0 0 10.44066,-21.5677 Z m 0,0.700157 a 4.6469663,4.6469663 0 0 1 4.644383,4.613265 c 2.6e-5,0.0027 0.0026,0.0054 0.0026,0.0078 a 4.6469663,4.6469663 0 0 1 0,0.02593 v 4.538064 c 0,0.344855 -0.277508,0.622362 -0.622363,0.622362 H 6.4187601 c -0.344856,0 -0.624956,-0.277507 -0.624956,-0.622362 v -4.538064 -0.02593 c 0,-0.0032 0.0025,-0.0072 0.0027,-0.01036 a 4.6469663,4.6469663 0 0 1 4.6443829,-4.610673 z"
       style="opacity:1;fill:#808080;fill-opacity:1;stroke:none;stroke-width:0.89025372;stroke-opacity:0.94117647" />
  </g>
</svg>
