<?xml version="1.0" encoding="UTF-8" standalone="no"?>
<svg
   xmlns:dc="http://purl.org/dc/elements/1.1/"
   xmlns:cc="http://creativecommons.org/ns#"
   xmlns:rdf="http://www.w3.org/1999/02/22-rdf-syntax-ns#"
   xmlns:svg="http://www.w3.org/2000/svg"
   xmlns="http://www.w3.org/2000/svg"
   xmlns:sodipodi="http://sodipodi.sourceforge.net/DTD/sodipodi-0.dtd"
   xmlns:inkscape="http://www.inkscape.org/namespaces/inkscape"
   height="16"
   width="16"
   version="1.1"
   id="svg4"
   sodipodi:docname="edit-paste-symbolic.svg"
   inkscape:version="0.92.3 (2405546, 2018-03-11)">
  <metadata
     id="metadata10">
    <rdf:RDF>
      <cc:Work
         rdf:about="">
        <dc:format>image/svg+xml</dc:format>
        <dc:type
           rdf:resource="http://purl.org/dc/dcmitype/StillImage" />
      </cc:Work>
    </rdf:RDF>
  </metadata>
  <defs
     id="defs8" />
  <sodipodi:namedview
     pagecolor="#ffffff"
     bordercolor="#666666"
     borderopacity="1"
     objecttolerance="10"
     gridtolerance="10"
     guidetolerance="10"
     inkscape:pageopacity="0"
     inkscape:pageshadow="2"
     inkscape:window-width="1898"
     inkscape:window-height="1174"
     id="namedview6"
     showgrid="false"
     inkscape:zoom="29.495844"
     inkscape:cx="1.3487075"
     inkscape:cy="1.9531522"
     inkscape:window-x="253"
     inkscape:window-y="114"
     inkscape:window-maximized="0"
     inkscape:current-layer="svg4" />
  <g
     id="g818"
     transform="translate(0,0.47558594)">
    <path
       id="rect1133"
       d="M 3.8779296,1.9999999 C 3.2529044,1.9999999 2.75,2.5029039 2.75,3.127929 v 9.744142 C 2.75,13.497095 3.252905,14 3.8779296,14 H 12.122071 C 12.747096,14 13.25,13.497095 13.25,12.872071 V 3.127929 c 0,-0.6250251 -0.502904,-1.1279291 -1.127929,-1.1279291 z M 4.625,3.5131832 h 6.75 c 0.207751,0 0.375001,0.1672498 0.375001,0.3749995 0,0.2077506 -0.16725,0.3750004 -0.375001,0.3750004 h -6.75 c -0.20775,0 -0.375,-0.1672498 -0.375,-0.3750004 0,-0.2077497 0.16725,-0.3749995 0.375,-0.3749995 z m 0,1.4999998 h 6.75 c 0.207751,0 0.375001,0.1672499 0.375001,0.3750004 0,0.2077496 -0.16725,0.3749996 -0.375001,0.3749996 H 4.625 C 4.41725,5.763183 4.25,5.595933 4.25,5.3881834 4.25,5.1804329 4.41725,5.013183 4.625,5.013183 Z m 0,1.4999993 h 6.75 c 0.207751,0 0.375001,0.1672512 0.375001,0.3750011 0,0.2077501 -0.16725,0.3750001 -0.375001,0.3750001 h -6.75 c -0.20775,0 -0.375,-0.16725 -0.375,-0.3750001 0,-0.2077499 0.16725,-0.3750011 0.375,-0.3750011 z m 0,1.5000018 h 2.9999998 c 0.20775,0 0.375,0.16725 0.375,0.375 0,0.20775 -0.16725,0.375 -0.375,0.375 H 4.625 c -0.20775,0 -0.375,-0.16725 -0.375,-0.375 0,-0.20775 0.16725,-0.375 0.375,-0.375 z"
       style="display:inline;opacity:1;fill:#808080;fill-opacity:1;stroke:none;stroke-width:0.07319346;stroke-linecap:butt;stroke-linejoin:bevel;stroke-miterlimit:4;stroke-dasharray:none;stroke-opacity:1;paint-order:fill markers stroke"
       inkscape:connector-curvature="0" />
    <path
       id="rect1133-3"
       d="m 4.6054688,0.04882812 c -0.5145186,0 -0.9277344,0.18227613 -0.9277344,0.40820313 V 1 H 3.1894531 C 2.4602561,1 1.875,1.5852569 1.875,2.3144531 V 13.683594 C 1.875,14.412789 2.4602581,15 3.1894531,15 H 12.808594 C 13.53779,15 14.124999,14.412789 14.125,13.683594 V 2.3144531 C 14.125,1.585257 13.53779,1 12.808594,1 H 12.322266 V 0.45703125 c 0,-0.225927 -0.415169,-0.40820313 -0.929688,-0.40820313 z"
       style="display:inline;opacity:0.2;fill:#808080;fill-opacity:1;stroke:none;stroke-width:0.08539237;stroke-linecap:butt;stroke-linejoin:bevel;stroke-miterlimit:4;stroke-dasharray:none;stroke-opacity:1;paint-order:fill markers stroke"
       inkscape:connector-curvature="0" />
  </g>
</svg>
