<?xml version="1.0" encoding="UTF-8" standalone="no"?>
<svg
   xmlns:dc="http://purl.org/dc/elements/1.1/"
   xmlns:cc="http://creativecommons.org/ns#"
   xmlns:rdf="http://www.w3.org/1999/02/22-rdf-syntax-ns#"
   xmlns:svg="http://www.w3.org/2000/svg"
   xmlns="http://www.w3.org/2000/svg"
   xmlns:sodipodi="http://sodipodi.sourceforge.net/DTD/sodipodi-0.dtd"
   xmlns:inkscape="http://www.inkscape.org/namespaces/inkscape"
   height="16"
   width="16"
   version="1.1"
   id="svg8"
   sodipodi:docname="media-playlist-repeat-symbolic.svg"
   inkscape:version="0.92.3 (2405546, 2018-03-11)">
  <metadata
     id="metadata14">
    <rdf:RDF>
      <cc:Work
         rdf:about="">
        <dc:format>image/svg+xml</dc:format>
        <dc:type
           rdf:resource="http://purl.org/dc/dcmitype/StillImage" />
      </cc:Work>
    </rdf:RDF>
  </metadata>
  <defs
     id="defs12" />
  <sodipodi:namedview
     pagecolor="#ffffff"
     bordercolor="#666666"
     borderopacity="1"
     objecttolerance="10"
     gridtolerance="10"
     guidetolerance="10"
     inkscape:pageopacity="0"
     inkscape:pageshadow="2"
     inkscape:window-width="1920"
     inkscape:window-height="1539"
     id="namedview10"
     showgrid="false"
     inkscape:zoom="14.75"
     inkscape:cx="3.9546182"
     inkscape:cy="12.337906"
     inkscape:window-x="1920"
     inkscape:window-y="27"
     inkscape:window-maximized="0"
     inkscape:current-layer="svg8" />
  <path
     style="opacity:1;fill:#808080;fill-opacity:1;stroke:none;stroke-width:1.01409066;stroke-linecap:butt;stroke-linejoin:bevel;stroke-miterlimit:4;stroke-dasharray:none;stroke-opacity:1;paint-order:fill markers stroke"
     d="M 14.927734 6.8164062 L 14.927734 11.695312 C 14.927734 11.924316 14.742674 12.109375 14.513672 12.109375 L 11.416016 12.109375 L 10.203125 12.109375 L 8.734375 12.109375 L 7.6621094 12.109375 L 7.6621094 12.111328 L 1.4863281 12.111328 C 1.257326 12.111328 1.0722656 11.926269 1.0722656 11.697266 L 1.0722656 6.8183594 C 0.47500431 6.8415865 1.4802974e-16 7.3245827 0 7.9277344 L 0 12.066406 C 0 12.684477 0.49716305 13.183594 1.1152344 13.183594 L 8.4375 13.183594 C 8.4409602 13.183594 8.4438132 13.181672 8.4472656 13.181641 L 8.734375 13.181641 L 10.203125 13.181641 L 11.416016 13.181641 L 14.884766 13.181641 C 15.502837 13.181641 16 12.684477 16 12.066406 L 16 7.9277344 C 16 7.3245829 15.524996 6.8396333 14.927734 6.8164062 z "
     id="rect849-3-7" />
  <path
     inkscape:connector-curvature="0"
     style="opacity:1;fill:#808080;fill-opacity:1;stroke:none;stroke-width:1.01409066;stroke-linecap:butt;stroke-linejoin:bevel;stroke-miterlimit:4;stroke-dasharray:none;stroke-opacity:1;paint-order:fill markers stroke"
     d="m 2.056997e-7,8.0721157 c 0,0.603151 0.4750802843003,1.087679 1.0723416943003,1.110906 v -4.87903 c 0,-0.2290027 0.1840111,-0.4142575 0.4130132,-0.4142575 H 5.7971139 V 2.8173931 H 1.1158824 C 0.49781106,2.8173931 2.056997e-7,3.3152038 2.056997e-7,3.9332752 Z"
     id="rect849-3-3-5" />
  <path
     style="opacity:1;fill:#808080;fill-opacity:1;stroke:none;stroke-width:0.56791806;stroke-linecap:butt;stroke-linejoin:bevel;stroke-miterlimit:4;stroke-dasharray:none;stroke-opacity:1;paint-order:fill markers stroke"
     d="M 8.4629222,0.6996633 9.2211793,1.4579211 7.3255371,3.3535633 9.2211793,5.2492067 8.4629222,6.0074644 6.5672781,4.1118211 5.8090222,3.3535633 6.5672781,2.5953074 Z"
     id="rect816-3-7-5"
     inkscape:connector-curvature="0" />
  <path
     inkscape:connector-curvature="0"
     style="opacity:1;fill:#808080;fill-opacity:1;stroke:none;stroke-width:1.01409066;stroke-linecap:butt;stroke-linejoin:bevel;stroke-miterlimit:4;stroke-dasharray:none;stroke-opacity:1;paint-order:fill markers stroke"
     d="M 14.927658,9.1826067 V 4.3035771 c 0,-0.2290028 -0.184011,-0.4142576 -0.413013,-0.4142576 H 6.4496901 C 6.4729179,3.2920588 6.9586887,2.8169784 7.5618404,2.8169784 H 14.884118 C 15.502189,2.8169784 16,3.3147892 16,3.9328605 v 4.1388412 c 0,0.603151 -0.47508,1.087678 -1.072342,1.110905 z"
     id="rect849-3" />
</svg>
