<?xml version="1.0" encoding="UTF-8" standalone="no"?>
<svg
   xmlns:dc="http://purl.org/dc/elements/1.1/"
   xmlns:cc="http://creativecommons.org/ns#"
   xmlns:rdf="http://www.w3.org/1999/02/22-rdf-syntax-ns#"
   xmlns:svg="http://www.w3.org/2000/svg"
   xmlns="http://www.w3.org/2000/svg"
   xmlns:sodipodi="http://sodipodi.sourceforge.net/DTD/sodipodi-0.dtd"
   xmlns:inkscape="http://www.inkscape.org/namespaces/inkscape"
   height="16"
   width="16"
   version="1.1"
   id="svg8"
   sodipodi:docname="media-playlist-repeat-one-symbolic.svg"
   inkscape:version="0.92.3 (2405546, 2018-03-11)">
  <metadata
     id="metadata14">
    <rdf:RDF>
      <cc:Work
         rdf:about="">
        <dc:format>image/svg+xml</dc:format>
        <dc:type
           rdf:resource="http://purl.org/dc/dcmitype/StillImage" />
      </cc:Work>
    </rdf:RDF>
  </metadata>
  <defs
     id="defs12" />
  <sodipodi:namedview
     pagecolor="#ffffff"
     bordercolor="#666666"
     borderopacity="1"
     objecttolerance="10"
     gridtolerance="10"
     guidetolerance="10"
     inkscape:pageopacity="0"
     inkscape:pageshadow="2"
     inkscape:window-width="1920"
     inkscape:window-height="1539"
     id="namedview10"
     showgrid="false"
     inkscape:zoom="29.5"
     inkscape:cx="-6.968324"
     inkscape:cy="10.030266"
     inkscape:window-x="1920"
     inkscape:window-y="27"
     inkscape:window-maximized="0"
     inkscape:current-layer="svg8" />
  <g
     id="g819"
     transform="matrix(-1,0,0,1,16,0)">
    <path
       id="rect849-3-7"
       d="m 14.927734,6.8164062 v 4.8789058 c 0,0.229004 -0.18506,0.414063 -0.414062,0.414063 H 11.416016 10.203125 8.734375 7.6621094 v 0.002 H 1.4863281 c -0.2290021,0 -0.4140625,-0.185059 -0.4140625,-0.414062 V 6.8183594 C 0.47500431,6.8415865 0,7.3245827 0,7.9277344 v 4.1386716 c 0,0.618071 0.49716305,1.117188 1.1152344,1.117188 H 8.4375 c 0.00346,0 0.00631,-0.0019 0.00977,-0.002 h 0.2871094 1.4687496 1.212891 3.46875 C 15.502837,13.181641 16,12.684477 16,12.066406 V 7.9277344 C 16,7.3245829 15.524996,6.8396333 14.927734,6.8164062 Z"
       style="opacity:1;fill:#808080;fill-opacity:1;stroke:none;stroke-width:1.01409066;stroke-linecap:butt;stroke-linejoin:bevel;stroke-miterlimit:4;stroke-dasharray:none;stroke-opacity:1;paint-order:fill markers stroke"
       inkscape:connector-curvature="0" />
    <path
       id="rect849-3-3-5"
       d="m 2.056997e-7,8.0721157 c 0,0.603151 0.4750802843003,1.087679 1.0723416943003,1.110906 v -4.87903 c 0,-0.2290027 0.1840111,-0.4142575 0.4130132,-0.4142575 H 5.7971139 V 2.8173931 H 1.1158824 C 0.49781106,2.8173931 2.056997e-7,3.3152038 2.056997e-7,3.9332752 Z"
       style="opacity:1;fill:#808080;fill-opacity:1;stroke:none;stroke-width:1.01409066;stroke-linecap:butt;stroke-linejoin:bevel;stroke-miterlimit:4;stroke-dasharray:none;stroke-opacity:1;paint-order:fill markers stroke"
       inkscape:connector-curvature="0" />
    <path
       inkscape:connector-curvature="0"
       id="rect816-3-7-5"
       d="M 8.4629222,0.6996633 9.2211793,1.4579211 7.3255371,3.3535633 9.2211793,5.2492067 8.4629222,6.0074644 6.5672781,4.1118211 5.8090222,3.3535633 6.5672781,2.5953074 Z"
       style="opacity:1;fill:#808080;fill-opacity:1;stroke:none;stroke-width:0.56791806;stroke-linecap:butt;stroke-linejoin:bevel;stroke-miterlimit:4;stroke-dasharray:none;stroke-opacity:1;paint-order:fill markers stroke" />
    <path
       id="rect849-3"
       d="M 14.927658,9.1826067 V 4.3035771 c 0,-0.2290028 -0.184011,-0.4142576 -0.413013,-0.4142576 H 6.4496901 C 6.4729179,3.2920588 6.9586887,2.8169784 7.5618404,2.8169784 H 14.884118 C 15.502189,2.8169784 16,3.3147892 16,3.9328605 v 4.1388412 c 0,0.603151 -0.47508,1.087678 -1.072342,1.110905 z"
       style="opacity:1;fill:#808080;fill-opacity:1;stroke:none;stroke-width:1.01409066;stroke-linecap:butt;stroke-linejoin:bevel;stroke-miterlimit:4;stroke-dasharray:none;stroke-opacity:1;paint-order:fill markers stroke"
       inkscape:connector-curvature="0" />
  </g>
  <text
     xml:space="preserve"
     style="font-style:normal;font-weight:normal;font-size:35.7142868px;line-height:1.25;font-family:sans-serif;letter-spacing:0px;word-spacing:0px;fill:#808080;fill-opacity:1;stroke:none;stroke-width:0.89285713"
     x="6.3571429"
     y="11.042373"
     id="text821"><tspan
       sodipodi:role="line"
       id="tspan819"
       x="6.3571429"
       y="11.042373"
       style="font-style:normal;font-variant:normal;font-weight:normal;font-stretch:normal;font-size:7.14285707px;font-family:'Star Labs';-inkscape-font-specification:'Star Labs';fill:#808080;fill-opacity:1;stroke-width:0.89285713">1</tspan></text>
</svg>
