<?xml version="1.0" encoding="UTF-8" standalone="no"?>
<svg
   xmlns:dc="http://purl.org/dc/elements/1.1/"
   xmlns:cc="http://creativecommons.org/ns#"
   xmlns:rdf="http://www.w3.org/1999/02/22-rdf-syntax-ns#"
   xmlns:svg="http://www.w3.org/2000/svg"
   xmlns="http://www.w3.org/2000/svg"
   xmlns:sodipodi="http://sodipodi.sourceforge.net/DTD/sodipodi-0.dtd"
   xmlns:inkscape="http://www.inkscape.org/namespaces/inkscape"
   height="16"
   width="16"
   version="1.1"
   id="svg4"
   sodipodi:docname="folder-symbolic.svg"
   inkscape:version="0.92.3 (2405546, 2018-03-11)">
  <metadata
     id="metadata10">
    <rdf:RDF>
      <cc:Work
         rdf:about="">
        <dc:format>image/svg+xml</dc:format>
        <dc:type
           rdf:resource="http://purl.org/dc/dcmitype/StillImage" />
      </cc:Work>
    </rdf:RDF>
  </metadata>
  <defs
     id="defs8" />
  <sodipodi:namedview
     pagecolor="#ffffff"
     bordercolor="#666666"
     borderopacity="1"
     objecttolerance="10"
     gridtolerance="10"
     guidetolerance="10"
     inkscape:pageopacity="0"
     inkscape:pageshadow="2"
     inkscape:window-width="960"
     inkscape:window-height="1019"
     id="namedview6"
     showgrid="false"
     inkscape:zoom="3.6875"
     inkscape:cx="11.997563"
     inkscape:cy="-19.484609"
     inkscape:window-x="960"
     inkscape:window-y="27"
     inkscape:window-maximized="0"
     inkscape:current-layer="svg4" />
  <g
     id="g818">
    <path
       sodipodi:nodetypes="sccssssssss"
       inkscape:connector-curvature="0"
       id="rect1188"
       d="m 1.920697,1.3071889 h 2.732897 l 1.254902,1.254902 h 8.170807 c 0.803359,0 1.450109,0.646722 1.450109,1.450081 v 9.2305301 c 0,0.80336 -0.64675,1.450109 -1.450109,1.450109 H 1.920697 c -0.803361,0 -1.450109,-0.646749 -1.450109,-1.450109 V 2.7572979 c 0,-0.80336 0.646748,-1.450109 1.450109,-1.450109 z"
       style="opacity:0.5;fill:#808080;fill-opacity:1;stroke:none;stroke-width:0.94117647;stroke-miterlimit:4;stroke-dasharray:none;stroke-opacity:1" />
    <path
       sodipodi:nodetypes="sccssssssss"
       inkscape:connector-curvature="0"
       id="rect1188-3"
       d="m 1.648801,5.0718959 h 3.841395 l 1.254902,-1.254902 h 7.606101 c 0.652729,0 1.178213,0.525483 1.178213,1.178213 v 8.5193901 c 0,0.65273 -0.525484,1.178214 -1.178213,1.178214 H 1.648801 c -0.65273,0 -1.178213,-0.525484 -1.178213,-1.178214 V 6.2500809 c 0,-0.65273 0.525483,-1.178185 1.178213,-1.178185 z"
       style="fill:#808080;fill-opacity:1;stroke:none;stroke-width:0.94117647;stroke-miterlimit:4;stroke-dasharray:none;stroke-opacity:1" />
  </g>
</svg>
