<?xml version="1.0" encoding="UTF-8" standalone="no"?>
<svg
   xmlns:dc="http://purl.org/dc/elements/1.1/"
   xmlns:cc="http://creativecommons.org/ns#"
   xmlns:rdf="http://www.w3.org/1999/02/22-rdf-syntax-ns#"
   xmlns:svg="http://www.w3.org/2000/svg"
   xmlns="http://www.w3.org/2000/svg"
   xmlns:sodipodi="http://sodipodi.sourceforge.net/DTD/sodipodi-0.dtd"
   xmlns:inkscape="http://www.inkscape.org/namespaces/inkscape"
   height="16"
   width="16"
   version="1.1"
   id="svg8"
   sodipodi:docname="folder-templates-symbolic.svg"
   inkscape:version="0.92.3 (2405546, 2018-03-11)">
  <metadata
     id="metadata14">
    <rdf:RDF>
      <cc:Work
         rdf:about="">
        <dc:format>image/svg+xml</dc:format>
        <dc:type
           rdf:resource="http://purl.org/dc/dcmitype/StillImage" />
      </cc:Work>
    </rdf:RDF>
  </metadata>
  <defs
     id="defs12" />
  <sodipodi:namedview
     pagecolor="#ffffff"
     bordercolor="#666666"
     borderopacity="1"
     objecttolerance="10"
     gridtolerance="10"
     guidetolerance="10"
     inkscape:pageopacity="0"
     inkscape:pageshadow="2"
     inkscape:window-width="1920"
     inkscape:window-height="1019"
     id="namedview10"
     showgrid="false"
     inkscape:zoom="1.84375"
     inkscape:cx="-73.344995"
     inkscape:cy="27.784401"
     inkscape:window-x="0"
     inkscape:window-y="27"
     inkscape:window-maximized="1"
     inkscape:current-layer="svg8" />
  <g
     id="g1115"
     transform="matrix(0.16,0,0,0.16,24.457802,10.319957)"
     style="display:inline;fill:#808080;fill-opacity:0.98431373">
    <rect
       y="-64.499733"
       x="-103.48438"
       height="20.547264"
       width="6.8490882"
       id="rect891"
       style="fill:#808080;fill-opacity:0.98431373;stroke:none;stroke-width:2.42914248;stroke-linecap:butt;stroke-linejoin:bevel;stroke-miterlimit:4;stroke-dasharray:none;stroke-opacity:1;paint-order:fill markers stroke" />
    <path
       inkscape:connector-curvature="0"
       id="path893-3"
       d="m -100.05986,-47.388626 a 17.12272,17.12272 0 0 0 -17.12268,17.12272 17.12272,17.12272 0 0 0 17.12268,17.12272 17.12272,17.12272 0 0 0 17.122749,-17.12272 17.12272,17.12272 0 0 0 -17.122749,-17.12272 z m 0,6.849085 a 10.273632,10.273632 0 0 1 10.273663,10.273635 10.273632,10.273632 0 0 1 -10.273663,10.273635 10.273632,10.273632 0 0 1 -10.27359,-10.273635 10.273632,10.273632 0 0 1 10.27359,-10.273635 z"
       style="fill:#808080;fill-opacity:0.98431373;stroke:none;stroke-width:2.79462981;stroke-linecap:butt;stroke-linejoin:bevel;stroke-miterlimit:4;stroke-dasharray:none;stroke-opacity:1;paint-order:fill markers stroke" />
    <path
       id="rect891-6"
       d="m -110.1059,-19.197623 -7.55587,28.2217152 V 35.500265 l 14.17184,-52.927928 z"
       style="fill:#808080;fill-opacity:0.98431373;stroke:none;stroke-width:3.96677256;stroke-linecap:butt;stroke-linejoin:bevel;stroke-miterlimit:4;stroke-dasharray:none;stroke-opacity:1;paint-order:fill markers stroke"
       inkscape:connector-curvature="0" />
    <path
       id="rect891-6-7"
       d="m -90.013814,-19.197623 -6.615968,1.76996 14.171905,52.927928 V 9.0240922 Z"
       style="fill:#808080;fill-opacity:0.98431373;stroke:none;stroke-width:3.96677256;stroke-linecap:butt;stroke-linejoin:bevel;stroke-miterlimit:4;stroke-dasharray:none;stroke-opacity:1;paint-order:fill markers stroke"
       inkscape:connector-curvature="0" />
    <path
       id="path999"
       d="m -123.26465,-13.143136 a 24.999172,24.999172 0 0 0 0.0731,0.158682 v -0.158682 z m 6.92115,0 v 9.6798545 a 24.999172,24.999172 0 0 0 16.28364,6.0788986 24.999172,24.999172 0 0 0 16.369086,-6.1399279 v -9.6188252 h -0.07312 a 18.749379,18.749379 0 0 1 -16.295836,9.5089664 18.749379,18.749379 0 0 1 -16.28365,-9.5089664 z"
       style="fill:#808080;fill-opacity:0.98431373;stroke:none;stroke-width:3.46072626;stroke-linecap:butt;stroke-linejoin:bevel;stroke-miterlimit:4;stroke-dasharray:none;stroke-opacity:1;paint-order:fill markers stroke"
       inkscape:connector-curvature="0" />
  </g>
</svg>
