<?xml version="1.0" encoding="UTF-8" standalone="no"?>
<svg
   xmlns:dc="http://purl.org/dc/elements/1.1/"
   xmlns:cc="http://creativecommons.org/ns#"
   xmlns:rdf="http://www.w3.org/1999/02/22-rdf-syntax-ns#"
   xmlns:svg="http://www.w3.org/2000/svg"
   xmlns="http://www.w3.org/2000/svg"
   xmlns:sodipodi="http://sodipodi.sourceforge.net/DTD/sodipodi-0.dtd"
   xmlns:inkscape="http://www.inkscape.org/namespaces/inkscape"
   height="16"
   width="16"
   version="1.1"
   id="svg16"
   sodipodi:docname="network-server-symbolic.svg"
   inkscape:version="0.92.3 (2405546, 2018-03-11)">
  <metadata
     id="metadata22">
    <rdf:RDF>
      <cc:Work
         rdf:about="">
        <dc:format>image/svg+xml</dc:format>
        <dc:type
           rdf:resource="http://purl.org/dc/dcmitype/StillImage" />
      </cc:Work>
    </rdf:RDF>
  </metadata>
  <defs
     id="defs20" />
  <sodipodi:namedview
     pagecolor="#ffffff"
     bordercolor="#666666"
     borderopacity="1"
     objecttolerance="10"
     gridtolerance="10"
     guidetolerance="10"
     inkscape:pageopacity="0"
     inkscape:pageshadow="2"
     inkscape:window-width="1920"
     inkscape:window-height="1539"
     id="namedview18"
     showgrid="false"
     inkscape:zoom="20.85965"
     inkscape:cx="13.691773"
     inkscape:cy="2.1623109"
     inkscape:window-x="1920"
     inkscape:window-y="27"
     inkscape:window-maximized="0"
     inkscape:current-layer="svg16" />
  <path
     style="display:inline;fill:#808080;fill-opacity:1;stroke:none;stroke-width:0.07877508;stroke-linecap:butt;stroke-linejoin:bevel;stroke-miterlimit:4;stroke-dasharray:none;stroke-opacity:1;paint-order:fill markers stroke"
     d="M 2.546875 0 C 1.6899499 0 1 0.6899499 1 1.546875 L 1 14.453125 C 1 15.31005 1.6899499 16 2.546875 16 L 13.453125 16 C 14.31005 16 15 15.31005 15 14.453125 L 15 1.546875 C 15 0.6899499 14.31005 0 13.453125 0 L 2.546875 0 z M 3.4316406 1 L 12.568359 1 C 13.084504 1 13.5 1.4154962 13.5 1.9316406 L 13.5 2.0683594 C 13.5 2.5845038 13.084504 3 12.568359 3 L 3.4316406 3 C 2.9154962 3 2.5 2.5845038 2.5 2.0683594 L 2.5 1.9316406 C 2.5 1.4154962 2.9154962 1 3.4316406 1 z M 12.169922 1.5 A 0.5 0.5 0 0 0 11.669922 2 A 0.5 0.5 0 0 0 12.169922 2.5 A 0.5 0.5 0 0 0 12.669922 2 A 0.5 0.5 0 0 0 12.169922 1.5 z M 3.4316406 4 L 12.568359 4 C 13.084504 4 13.5 4.4154962 13.5 4.9316406 L 13.5 5.0683594 C 13.5 5.5845038 13.084504 6 12.568359 6 L 3.4316406 6 C 2.9154962 6 2.5 5.5845038 2.5 5.0683594 L 2.5 4.9316406 C 2.5 4.4154962 2.9154962 4 3.4316406 4 z M 12.169922 4.5 A 0.5 0.5 0 0 0 11.669922 5 A 0.5 0.5 0 0 0 12.169922 5.5 A 0.5 0.5 0 0 0 12.669922 5 A 0.5 0.5 0 0 0 12.169922 4.5 z M 3.4316406 7 L 12.568359 7 C 13.084504 7 13.5 7.4154962 13.5 7.9316406 L 13.5 8.0683594 C 13.5 8.5845038 13.084504 9 12.568359 9 L 3.4316406 9 C 2.9154962 9 2.5 8.5845038 2.5 8.0683594 L 2.5 7.9316406 C 2.5 7.4154962 2.9154962 7 3.4316406 7 z M 12.169922 7.5 A 0.5 0.5 0 0 0 11.669922 8 A 0.5 0.5 0 0 0 12.169922 8.5 A 0.5 0.5 0 0 0 12.669922 8 A 0.5 0.5 0 0 0 12.169922 7.5 z M 8 11.5 A 0.5 0.5 0 0 1 8.5 12 A 0.5 0.5 0 0 1 8 12.5 A 0.5 0.5 0 0 1 7.5 12 A 0.5 0.5 0 0 1 8 11.5 z "
     id="rect1096-7" />
</svg>
