<?xml version="1.0" encoding="UTF-8" standalone="no"?>
<svg
   xmlns:dc="http://purl.org/dc/elements/1.1/"
   xmlns:cc="http://creativecommons.org/ns#"
   xmlns:rdf="http://www.w3.org/1999/02/22-rdf-syntax-ns#"
   xmlns:svg="http://www.w3.org/2000/svg"
   xmlns="http://www.w3.org/2000/svg"
   xmlns:sodipodi="http://sodipodi.sourceforge.net/DTD/sodipodi-0.dtd"
   xmlns:inkscape="http://www.inkscape.org/namespaces/inkscape"
   height="16"
   width="16"
   version="1.1"
   id="svg6"
   sodipodi:docname="contact-new-symbolic.svg"
   inkscape:version="0.92.3 (2405546, 2018-03-11)">
  <metadata
     id="metadata12">
    <rdf:RDF>
      <cc:Work
         rdf:about="">
        <dc:format>image/svg+xml</dc:format>
        <dc:type
           rdf:resource="http://purl.org/dc/dcmitype/StillImage" />
        <dc:title />
      </cc:Work>
    </rdf:RDF>
  </metadata>
  <defs
     id="defs10" />
  <sodipodi:namedview
     pagecolor="#ffffff"
     bordercolor="#666666"
     borderopacity="1"
     objecttolerance="10"
     gridtolerance="10"
     guidetolerance="10"
     inkscape:pageopacity="0"
     inkscape:pageshadow="2"
     inkscape:window-width="1920"
     inkscape:window-height="1539"
     id="namedview8"
     showgrid="false"
     inkscape:zoom="14.75"
     inkscape:cx="0.19830007"
     inkscape:cy="-3.0164356"
     inkscape:window-x="1920"
     inkscape:window-y="27"
     inkscape:window-maximized="0"
     inkscape:current-layer="svg6" />
  <g
     id="g830"
     transform="translate(17.423728,-1.8648207)">
    <path
       id="circle832"
       d="m -9.4238281,1.8652344 a 5,5 0 0 0 -4.9999999,5 5,5 0 0 0 4.9999999,4.9999996 5,5 0 0 0 5,-4.9999996 5,5 0 0 0 -5,-5 z m -0.5136719,2 h 1.0292969 V 6.375 h 2.359375 v 0.9785156 h -2.359375 V 9.8652344 H -9.9375 V 7.3535156 h -2.361328 V 6.375 H -9.9375 Z"
       style="opacity:1;fill:#808080;fill-opacity:1;stroke:none;stroke-width:0.66032714;stroke-opacity:0.94117647"
       inkscape:connector-curvature="0" />
    <path
       inkscape:connector-curvature="0"
       id="rect841"
       d="m -11.670798,13.481594 c -2.713364,0 -4.971261,1.863241 -5.583985,4.382813 h 15.662109 c -0.612722,-2.519572 -2.87062,-4.382813 -5.583983,-4.382813 z"
       style="opacity:1;fill:#808080;fill-opacity:1;stroke:none;stroke-width:0.64956862;stroke-opacity:0.94117647" />
  </g>
</svg>
