<?xml version="1.0" encoding="UTF-8" standalone="no"?>
<svg
   xmlns:dc="http://purl.org/dc/elements/1.1/"
   xmlns:cc="http://creativecommons.org/ns#"
   xmlns:rdf="http://www.w3.org/1999/02/22-rdf-syntax-ns#"
   xmlns:svg="http://www.w3.org/2000/svg"
   xmlns="http://www.w3.org/2000/svg"
   xmlns:sodipodi="http://sodipodi.sourceforge.net/DTD/sodipodi-0.dtd"
   xmlns:inkscape="http://www.inkscape.org/namespaces/inkscape"
   height="16"
   width="16"
   version="1.1"
   id="svg4"
   sodipodi:docname="process-stop-symbolic.svg"
   inkscape:version="0.92.3 (2405546, 2018-03-11)">
  <metadata
     id="metadata10">
    <rdf:RDF>
      <cc:Work
         rdf:about="">
        <dc:format>image/svg+xml</dc:format>
        <dc:type
           rdf:resource="http://purl.org/dc/dcmitype/StillImage" />
      </cc:Work>
    </rdf:RDF>
  </metadata>
  <defs
     id="defs8" />
  <sodipodi:namedview
     pagecolor="#ffffff"
     bordercolor="#666666"
     borderopacity="1"
     objecttolerance="10"
     gridtolerance="10"
     guidetolerance="10"
     inkscape:pageopacity="0"
     inkscape:pageshadow="2"
     inkscape:window-width="1920"
     inkscape:window-height="1539"
     id="namedview6"
     showgrid="false"
     inkscape:zoom="20.85965"
     inkscape:cx="-0.039384084"
     inkscape:cy="18.807971"
     inkscape:window-x="0"
     inkscape:window-y="27"
     inkscape:window-maximized="0"
     inkscape:current-layer="svg4" />
  <path
     style="opacity:1;fill:#808080;fill-opacity:1;stroke:none;stroke-width:0.86973059;stroke-linecap:butt;stroke-linejoin:bevel;stroke-miterlimit:4;stroke-dasharray:none;stroke-opacity:1;paint-order:fill markers stroke"
     d="M 4.6855469 0 L 0 4.6855469 L 0 4.6875 L 0 11.314453 L 4.6855469 16 L 4.6875 16 L 11.314453 16 L 16 11.314453 L 16 4.6875 L 16 4.6855469 L 11.314453 0 L 4.6875 0 L 4.6855469 0 z M 5.5136719 2 L 5.515625 2 L 10.486328 2 L 14 5.5136719 L 14 5.515625 L 14 10.486328 L 10.486328 14 L 5.515625 14 L 5.5136719 14 L 2 10.486328 L 2 5.515625 L 2 5.5136719 L 5.5136719 2 z "
     id="rect873" />
  <g
     transform="matrix(0.44444445,0,0,0.44444445,-31.803147,-352.22602)"
     id="g14737"
     style="display:inline;fill:#808080;fill-opacity:1">
    <rect
       transform="matrix(0.11256791,-0.11256791,0.11256791,0.11256791,84.730265,785.78188)"
       ry="4.0159969"
       y="99.164566"
       x="-114.11272"
       height="26.458334"
       width="6.6145835"
       id="rect11872-3-23"
       style="fill:#808080;fill-opacity:1;stroke:none;stroke-width:0.13126431" />
    <rect
       transform="matrix(0.15919506,0,0,0.15919506,84.730265,785.78188)"
       ry="4.0159969"
       y="103.3639"
       x="71.294487"
       height="26.458334"
       width="6.6145835"
       id="rect11872-3-8"
       style="fill:#808080;fill-opacity:1;stroke:none;stroke-width:0.13126431" />
    <rect
       transform="matrix(0.15919506,0,0,0.15919506,84.730265,785.78188)"
       ry="4.0159969"
       y="103.3639"
       x="53.097767"
       height="26.458334"
       width="6.6145835"
       id="rect11872-3-7"
       style="fill:#808080;fill-opacity:1;stroke:none;stroke-width:0.13126431" />
    <rect
       transform="matrix(0.15919506,0,0,0.15919506,84.730265,785.78188)"
       ry="4.0159969"
       y="103.3639"
       x="34.901054"
       height="26.458334"
       width="6.6145835"
       id="rect11872-3-9"
       style="fill:#808080;fill-opacity:1;stroke:none;stroke-width:0.13126431" />
    <rect
       transform="matrix(0.15919506,0,0,0.15919506,84.730265,785.78188)"
       ry="4.0159969"
       y="103.3639"
       x="16.704338"
       height="26.458334"
       width="6.6145835"
       id="rect11872-3-20"
       style="fill:#808080;fill-opacity:1;stroke:none;stroke-width:0.13126431" />
    <rect
       transform="matrix(0.15919506,0,0,0.15919506,84.730265,785.78188)"
       ry="4.0159969"
       y="136.7726"
       x="71.294487"
       height="26.458334"
       width="6.6145835"
       id="rect11872-3-1"
       style="fill:#808080;fill-opacity:1;stroke:none;stroke-width:0.13126431" />
    <rect
       transform="matrix(0.15919506,0,0,0.15919506,84.730265,785.78188)"
       ry="4.0159969"
       y="136.7726"
       x="53.097767"
       height="26.458334"
       width="6.6145835"
       id="rect11872-3-6"
       style="fill:#808080;fill-opacity:1;stroke:none;stroke-width:0.13126431" />
    <rect
       transform="matrix(0.15919506,0,0,0.15919506,84.730265,785.78188)"
       ry="4.0159969"
       y="136.7726"
       x="34.901054"
       height="26.458334"
       width="6.6145835"
       id="rect11872-3-2"
       style="fill:#808080;fill-opacity:1;stroke:none;stroke-width:0.13126431" />
    <rect
       transform="matrix(0.15919506,0,0,0.15919506,84.730265,785.78188)"
       ry="4.0159969"
       y="136.7726"
       x="16.704338"
       height="26.458334"
       width="6.6145835"
       id="rect11872-3"
       style="fill:#808080;fill-opacity:1;stroke:none;stroke-width:0.13126431" />
    <rect
       transform="matrix(0.15919506,0,0,0.15919506,84.730265,785.78188)"
       ry="4.0159969"
       y="119.93462"
       x="67.987198"
       height="26.458334"
       width="13.229167"
       id="rect11872-2"
       style="fill:#808080;fill-opacity:1;stroke:none;stroke-width:0.18563578" />
    <rect
       transform="matrix(0.15919506,0,0,0.15919506,84.730265,785.78188)"
       ry="2.2310183"
       y="96.414894"
       x="67.987198"
       height="14.698475"
       width="13.229167"
       id="rect11872-2-0"
       style="fill:#808080;fill-opacity:1;stroke:none;stroke-width:0.13836192" />
    <rect
       transform="matrix(0.15919506,0,0,0.15919506,84.730265,785.78188)"
       ry="4.0159969"
       y="119.93462"
       x="49.790474"
       height="26.458334"
       width="13.229167"
       id="rect11872-6"
       style="fill:#808080;fill-opacity:1;stroke:none;stroke-width:0.18563578" />
    <rect
       transform="matrix(0.15919506,0,0,0.15919506,84.730265,785.78188)"
       ry="3.4074814"
       y="88.664078"
       x="49.790474"
       height="22.449291"
       width="13.229167"
       id="rect11872-6-7"
       style="fill:#808080;fill-opacity:1;stroke:none;stroke-width:0.17099434" />
    <rect
       transform="matrix(0.15919506,0,0,0.15919506,84.730265,785.78188)"
       ry="4.0159969"
       y="119.93462"
       x="31.593763"
       height="26.458334"
       width="13.229167"
       id="rect11872-5"
       style="fill:#808080;fill-opacity:1;stroke:none;stroke-width:0.18563578" />
    <rect
       transform="matrix(0.15919506,0,0,0.15919506,84.730265,785.78188)"
       ry="4.0159969"
       y="84.655037"
       x="31.593763"
       height="26.458334"
       width="13.229167"
       id="rect11872-5-2"
       style="fill:#808080;fill-opacity:1;stroke:none;stroke-width:0.18563578" />
    <rect
       transform="matrix(0.15919506,0,0,0.15919506,84.730265,785.78188)"
       ry="4.2092805"
       y="207.47025"
       x="23.302017"
       height="18.520834"
       width="52.916668"
       id="rect11793"
       style="fill:#808080;fill-opacity:1;stroke:none;stroke-width:0.18290386" />
    <rect
       transform="matrix(0.15919506,0,0,0.15919506,84.730265,785.78188)"
       ry="3.0066288"
       y="198.47456"
       x="27.270767"
       height="13.229167"
       width="44.979168"
       id="rect11793-3"
       style="fill:#808080;fill-opacity:1;stroke:none;stroke-width:0.14251755" />
    <rect
       transform="matrix(0.15919506,0,0,0.15919506,84.730265,785.78188)"
       ry="6.0132575"
       y="174.18477"
       x="16.687433"
       height="26.458334"
       width="66.145836"
       id="rect11793-7"
       style="fill:#808080;fill-opacity:1;stroke:none;stroke-width:0.24441558" />
    <rect
       transform="matrix(0.15919506,0,0,0.15919506,84.730265,785.78188)"
       ry="0"
       y="155.66418"
       x="16.687433"
       height="26.458334"
       width="66.145836"
       id="rect11793-7-5"
       style="fill:#808080;fill-opacity:1;stroke:none;stroke-width:0.24441558" />
    <circle
       transform="matrix(0.15919506,0,0,0.15919506,84.730265,785.78188)"
       r="13.229167"
       cy="168.89336"
       cx="15.105418"
       id="path11855"
       style="fill:#808080;fill-opacity:1;stroke:none;stroke-width:0.20463447;stroke-opacity:1" />
    <rect
       transform="matrix(0.15919506,0,0,0.15919506,84.730265,785.78188)"
       ry="4.0159969"
       y="119.93462"
       x="13.397047"
       height="26.458334"
       width="13.229167"
       id="rect11872"
       style="fill:#808080;fill-opacity:1;stroke:none;stroke-width:0.18563578" />
    <rect
       transform="matrix(0.15919506,0,0,0.15919506,84.730265,785.78188)"
       ry="3.4886169"
       y="88.129539"
       x="13.397047"
       height="22.983829"
       width="13.229167"
       id="rect11872-1"
       style="fill:#808080;fill-opacity:1;stroke:none;stroke-width:0.17301814" />
    <rect
       transform="matrix(0.11256791,-0.11256791,0.11256791,0.11256791,84.730265,785.78188)"
       ry="4.0159969"
       y="83.687027"
       x="-117.42002"
       height="26.458334"
       width="13.229167"
       id="rect11872-9"
       style="fill:#808080;fill-opacity:1;stroke:none;stroke-width:0.18563578" />
  </g>
</svg>
