<?xml version="1.0" encoding="UTF-8" standalone="no"?>
<svg
   xmlns:dc="http://purl.org/dc/elements/1.1/"
   xmlns:cc="http://creativecommons.org/ns#"
   xmlns:rdf="http://www.w3.org/1999/02/22-rdf-syntax-ns#"
   xmlns:svg="http://www.w3.org/2000/svg"
   xmlns="http://www.w3.org/2000/svg"
   xmlns:sodipodi="http://sodipodi.sourceforge.net/DTD/sodipodi-0.dtd"
   xmlns:inkscape="http://www.inkscape.org/namespaces/inkscape"
   height="16"
   width="16"
   version="1.1"
   id="svg12"
   sodipodi:docname="drive-multidisk-symbolic.svg"
   inkscape:version="0.92.3 (2405546, 2018-03-11)">
  <metadata
     id="metadata18">
    <rdf:RDF>
      <cc:Work
         rdf:about="">
        <dc:format>image/svg+xml</dc:format>
        <dc:type
           rdf:resource="http://purl.org/dc/dcmitype/StillImage" />
        <dc:title />
      </cc:Work>
    </rdf:RDF>
  </metadata>
  <defs
     id="defs16">
    <clipPath
       id="clip261-3">
      <path
         inkscape:connector-curvature="0"
         d="m 103,95 h 28.8125 v 26 H 103 Z m 0,0"
         id="path1591-7" />
    </clipPath>
    <clipPath
       id="clip1-8">
      <path
         inkscape:connector-curvature="0"
         d="M 0,0 H 131.8125 V 194.17187 H 0 Z m 0,0"
         id="path2-4" />
    </clipPath>
    <clipPath
       id="clip261-3-3">
      <path
         inkscape:connector-curvature="0"
         d="m 103,95 h 28.8125 v 26 H 103 Z m 0,0"
         id="path1591-7-6" />
    </clipPath>
    <clipPath
       id="clip1-8-3">
      <path
         inkscape:connector-curvature="0"
         d="M 0,0 H 131.8125 V 194.17187 H 0 Z m 0,0"
         id="path2-4-6" />
    </clipPath>
  </defs>
  <sodipodi:namedview
     pagecolor="#ffffff"
     bordercolor="#666666"
     borderopacity="1"
     objecttolerance="10"
     gridtolerance="10"
     guidetolerance="10"
     inkscape:pageopacity="0"
     inkscape:pageshadow="2"
     inkscape:window-width="1920"
     inkscape:window-height="1539"
     id="namedview14"
     showgrid="false"
     inkscape:zoom="22.627417"
     inkscape:cx="-5.2879788"
     inkscape:cy="14.546954"
     inkscape:window-x="20"
     inkscape:window-y="30"
     inkscape:window-maximized="0"
     inkscape:current-layer="svg12" />
  <g
     id="g1672"
     transform="matrix(0.98856948,0,0,0.98856948,23.317254,19.001)">
    <g
       id="g1638">
      <path
         style="fill:#808080;fill-opacity:1;stroke:none;stroke-width:0.07903568;stroke-linecap:butt;stroke-linejoin:bevel;stroke-miterlimit:4;stroke-dasharray:none;stroke-opacity:1;paint-order:fill markers stroke"
         d="m -21,-19.220703 c -0.312176,0 -0.5625,0.252277 -0.5625,0.564453 v 12.875 c 0,0.3121752 0.250324,0.5644531 0.5625,0.5644531 h 1.580078 v -0.3222656 h -1.08789 c -0.362297,0 -0.65625,-0.2939533 -0.65625,-0.65625 V -18.240234 c 0,-0.362566 0.293953,-0.65625 0.65625,-0.65625 h 7.753906 c 0.362568,0 0.65625,0.293684 0.65625,0.65625 v 1.28125 h 0.404297 v -1.697266 c 0,-0.312176 -0.250325,-0.564453 -0.5625,-0.564453 z"
         id="path1083"
         inkscape:connector-curvature="0" />
      <path
         style="fill:#808080;fill-opacity:1;fill-rule:nonzero;stroke:none;stroke-width:0.06880426"
         d="m -20.460158,-7.4250835 c 0.04704,0 0.08708,0.00376 0.12632,-0.00105 0.05725,-0.007 0.09702,-0.040314 0.107776,-0.098368 0.01155,-0.062624 0.01586,-0.1343838 -0.04757,-0.1655599 -0.04918,-0.024192 -0.11342,-0.018546 -0.171204,-0.02392 -0.0043,-2.757e-4 -0.01451,0.018546 -0.01478,0.028489 -0.001,0.084933 -5.36e-4,0.1698617 -5.36e-4,0.2604361 m 5.36e-4,0.14379 v 0.4241143 h -0.2005 v -1.017551 c 0.162605,0.00914 0.328433,0.00914 0.491306,0.031176 0.09541,0.012901 0.144865,0.1042816 0.150509,0.2171641 0.0073,0.1400265 -0.03306,0.213938 -0.156691,0.2714537 0.142984,0.035473 0.142716,0.1467465 0.150778,0.2539847 0.0062,0.081433 0.0129,0.162872 0.01962,0.2486089 -0.03359,0 -0.08117,-0.00481 -0.127396,0.00105 -0.07445,0.00967 -0.09004,-0.030099 -0.09138,-0.091111 -0.0016,-0.068803 -0.003,-0.1378769 -0.0099,-0.2064144 -0.01102,-0.1112686 -0.03736,-0.132769 -0.149972,-0.1325003 -0.02312,0 -0.04649,0 -0.07633,0"
         id="path1097"
         inkscape:connector-curvature="0" />
      <path
         style="fill:#808080;fill-opacity:1;fill-rule:nonzero;stroke:none;stroke-width:0.06880426"
         d="m -19.715943,-7.2374859 c 0.007,0.063971 0.01129,0.1279341 0.02204,0.1908255 0.0081,0.047307 0.0422,0.08412 0.08923,0.072566 0.03198,-0.00805 0.07794,-0.045959 0.07982,-0.0731 0.0086,-0.1268576 0.0083,-0.2547908 0,-0.3816492 -0.0018,-0.026879 -0.04811,-0.064234 -0.08009,-0.072295 -0.0473,-0.011825 -0.0809,0.025802 -0.08896,0.072295 -0.01102,0.062895 -0.01506,0.1268584 -0.02204,0.191362 m -0.196737,-0.011825 c 0.0097,-0.058326 0.01559,-0.1300837 0.03414,-0.1980821 0.03682,-0.1343829 0.13062,-0.1932438 0.288386,-0.1905559 0.14379,0.00245 0.227108,0.062895 0.259897,0.1967378 0.03359,0.1362646 0.03494,0.2738728 -0.004,0.4093313 -0.04059,0.1424465 -0.138146,0.2021118 -0.307469,0.1935117 -0.13949,-0.007 -0.223613,-0.079822 -0.248877,-0.2203886 -0.01049,-0.058326 -0.01398,-0.1179887 -0.02204,-0.190555"
         id="path1103"
         inkscape:connector-curvature="0" />
      <path
         style="fill:#808080;fill-opacity:1;fill-rule:nonzero;stroke:none;stroke-width:0.06880426"
         d="m -19.734375,-12.34375 -0.896484,1.765625 h 1.292968 v -1.765625 z"
         id="path1127"
         inkscape:connector-curvature="0" />
      <g
         id="g1605"
         transform="translate(6.5849319,-17.942835)">
        <path
           id="path1241"
           d="m -25.457876,0.90326405 c -0.312176,0 -0.562411,0.25194455 -0.562411,0.56412055 V 14.343014 c 0,0.312175 0.250235,0.564121 0.562411,0.564121 h 8.745583 c 0.312175,0 0.562411,-0.251946 0.562411,-0.564121 V 1.4673846 c 0,-0.312176 -0.250236,-0.56412055 -0.562411,-0.56412055 z m 0.494033,0.32308685 h 7.752387 c 0.362568,0 0.656433,0.2938651 0.656433,0.6564314 V 13.927616 c 0,0.362296 -0.293865,0.656431 -0.656433,0.656431 h -7.752387 c -0.362296,0 -0.656431,-0.294135 -0.656431,-0.656431 V 1.8827823 c 0,-0.3625663 0.294135,-0.6564314 0.656431,-0.6564314 z"
           style="fill:#808080;fill-opacity:1;stroke:none;stroke-width:0.07903568;stroke-linecap:butt;stroke-linejoin:bevel;stroke-miterlimit:4;stroke-dasharray:none;stroke-opacity:1;paint-order:fill markers stroke"
           inkscape:connector-curvature="0" />
        <path
           style="fill:#808080;fill-opacity:1;fill-rule:nonzero;stroke:none;stroke-width:0.06880426"
           d="m -23.577625,2.7802217 -0.247534,-1.0739915 -0.247803,1.0739915 0.247803,0.075793 0.247534,-0.075793 m -0.861666,0.6345581 -0.8063,0.7514715 1.054103,-0.32252 -0.05833,-0.2523718 z m 0.980192,0.4289515 1.054103,0.32252 -0.8063,-0.7514715 -0.18948,0.1765797 z m 0,0"
           id="path1243"
           inkscape:connector-curvature="0" />
        <path
           style="fill:#808080;fill-opacity:1;fill-rule:nonzero;stroke:none;stroke-width:0.06880426"
           d="m -23.812258,2.8522513 -0.0129,-1.1460211 -0.247803,1.0742603 0.247803,0.075524 0.0129,-0.00376 m -0.627033,0.5625294 -0.8063,0.7514715 0.99578,-0.5748918 z m 0,0"
           id="path1245"
           inkscape:connector-curvature="0" />
        <path
           style="fill:#808080;fill-opacity:1;fill-rule:nonzero;stroke:none;stroke-width:0.06880426"
           d="m -23.390833,3.5819527 0.985837,0.5842986 -1.054103,-0.32252 0.05833,-0.2523718 0.0099,-0.00941 m -0.800655,0.261779 -1.054103,0.3225199 0.99578,-0.5748918 z m 0,0"
           id="path1247"
           inkscape:connector-curvature="0" />
        <path
           style="fill:#808080;fill-opacity:1;fill-rule:nonzero;stroke:none;stroke-width:0.06880426"
           d="m -23.825159,3.05517 -1.072648,-0.328164 0.820545,0.7646411 0.252103,1.093074 0.251834,-1.093074 0.820545,-0.7646411 -1.072379,0.328164"
           id="path1249"
           inkscape:connector-curvature="0" />
        <path
           style="fill:#808080;fill-opacity:1;fill-rule:nonzero;stroke:none;stroke-width:0.06880426"
           d="m -23.825159,3.3301183 -1.072648,-0.6031123 0.820545,0.7646411 0.252103,1.093074 z m 0,0"
           id="path1251"
           inkscape:connector-curvature="0" />
        <path
           style="fill:#808080;fill-opacity:1;fill-rule:nonzero;stroke:none;stroke-width:0.06880426"
           d="m -23.825159,3.3301183 1.072379,-0.6031123 -0.820545,0.7646411 -0.251834,1.093074 V 3.3301183"
           id="path1253"
           inkscape:connector-curvature="0" />
        <path
           style="fill:#808080;fill-opacity:1;fill-rule:nonzero;stroke:none;stroke-width:0.06880426"
           d="m -24.917158,12.698519 c 0.04704,0 0.08708,0.0038 0.12632,-0.0011 0.05725,-0.007 0.09703,-0.04031 0.107776,-0.09837 0.01155,-0.06262 0.01586,-0.134384 -0.04757,-0.16556 -0.04918,-0.02419 -0.11342,-0.01855 -0.171204,-0.02392 -0.0043,-2.76e-4 -0.01451,0.01855 -0.01478,0.02849 -10e-4,0.08493 -5.36e-4,0.169862 -5.36e-4,0.260436 m 5.36e-4,0.14379 v 0.424114 h -0.2005 v -1.017551 c 0.162605,0.0091 0.328433,0.0091 0.491306,0.03118 0.09541,0.0129 0.144865,0.104282 0.150509,0.217164 0.0073,0.140027 -0.03306,0.213938 -0.156691,0.271454 0.142984,0.03547 0.142716,0.146747 0.150778,0.253985 0.0062,0.08143 0.0129,0.162872 0.01962,0.248609 -0.03359,0 -0.08117,-0.0048 -0.127396,10e-4 -0.07445,0.0097 -0.09004,-0.0301 -0.09138,-0.09111 -0.0016,-0.0688 -0.003,-0.137877 -0.0099,-0.206414 -0.01102,-0.111269 -0.03736,-0.132769 -0.149972,-0.132501 -0.02311,0 -0.04649,0 -0.07633,0"
           id="path1255"
           inkscape:connector-curvature="0" />
        <path
           style="fill:#808080;fill-opacity:1;fill-rule:nonzero;stroke:none;stroke-width:0.06880426"
           d="m -22.993327,13.268304 h -0.197542 v -0.449648 c -0.07149,0 -0.135459,-0.0038 -0.198619,0.0027 -0.01532,0.0016 -0.03843,0.03629 -0.03898,0.05645 -0.004,0.1024 -0.0019,0.205068 -0.0019,0.307469 0,0.0258 0,0.05133 0,0.0817 h -0.199694 v -1.00465 h 0.197007 v 0.376272 h 0.23947 v -0.376272 h 0.200232 z m 0,0"
           id="path1257"
           inkscape:connector-curvature="0" />
        <path
           style="fill:#808080;fill-opacity:1;fill-rule:nonzero;stroke:none;stroke-width:0.06880426"
           d="m -22.869156,12.959759 h 0.191093 c 0.0038,0.02284 0.0065,0.04354 0.01049,0.06423 0.01425,0.07686 0.04892,0.109926 0.123632,0.112616 0.06235,0.0022 0.112882,-0.02123 0.134921,-0.08386 0.02231,-0.06343 -0.0032,-0.131158 -0.06773,-0.163142 -0.06128,-0.03064 -0.127664,-0.05053 -0.191092,-0.07741 -0.163411,-0.06934 -0.222539,-0.18948 -0.182225,-0.36176 0.025,-0.106969 0.09326,-0.172549 0.196738,-0.191899 0.06612,-0.0121 0.137608,-0.01237 0.204262,-0.0025 0.149703,0.02284 0.223076,0.125246 0.210714,0.281668 h -0.1876 c -0.0024,-0.01586 -0.0048,-0.03172 -0.0073,-0.04731 -0.0083,-0.05537 -0.03763,-0.100249 -0.09488,-0.09649 -0.03951,0.0027 -0.09031,0.02473 -0.112075,0.05537 -0.03306,0.04596 -0.02688,0.106432 0.01747,0.150241 0.02123,0.0207 0.05106,0.03441 0.07874,0.04704 0.06692,0.03064 0.136802,0.05537 0.202381,0.08842 0.11987,0.06047 0.166367,0.154273 0.14836,0.287581 -0.01774,0.13304 -0.08816,0.221195 -0.214208,0.243771 -0.07821,0.01398 -0.161528,0.0172 -0.240008,0.0067 -0.166366,-0.02231 -0.24619,-0.140027 -0.221732,-0.313382"
           id="path1259"
           inkscape:connector-curvature="0" />
        <path
           style="fill:#808080;fill-opacity:1;fill-rule:nonzero;stroke:none;stroke-width:0.06880426"
           d="m -24.172943,12.886116 c 0.007,0.06397 0.01129,0.127934 0.02204,0.190826 0.0081,0.04731 0.0422,0.08412 0.08923,0.07257 0.03198,-0.0081 0.07794,-0.04596 0.07982,-0.0731 0.0086,-0.126858 0.0083,-0.254791 0,-0.381649 -0.0018,-0.02688 -0.04811,-0.06423 -0.08009,-0.07229 -0.0473,-0.01182 -0.0809,0.0258 -0.08896,0.07229 -0.01102,0.0629 -0.01506,0.126858 -0.02204,0.191362 m -0.196737,-0.01182 c 0.0097,-0.05833 0.01559,-0.130084 0.03413,-0.198082 0.03682,-0.134383 0.13062,-0.193244 0.288386,-0.190556 0.14379,0.0025 0.227108,0.06289 0.259897,0.196738 0.03359,0.136265 0.03494,0.273873 -0.004,0.409331 -0.04059,0.142447 -0.138146,0.202112 -0.307469,0.193512 -0.13949,-0.007 -0.223613,-0.07982 -0.248877,-0.220389 -0.01049,-0.05833 -0.01398,-0.117988 -0.02204,-0.190555"
           id="path1261"
           inkscape:connector-curvature="0" />
        <path
           style="fill:#808080;fill-opacity:1;fill-rule:nonzero;stroke:none;stroke-width:0.06880426"
           d="m -21.688196,12.778611 c 0,-0.15481 0,-0.30962 0,-0.464429 2.69e-4,-0.0083 8.07e-4,-0.01694 0.0025,-0.025 0.0025,-0.01155 0.0129,-0.02016 0.02473,-0.02096 0.0121,-5.5e-4 0.02419,-5.5e-4 0.03602,-5.5e-4 0.135458,0 0.271185,0 0.406643,0 0.0081,0 0.0091,0.001 0.0091,0.0089 0,0.04542 0,0.09084 0,0.135996 0,0.0089 -8.07e-4,0.0097 -0.0097,0.0097 -0.09998,0 -0.199962,0 -0.299944,-2.75e-4 -0.0056,0 -0.0078,0.0022 -0.0078,0.0081 0,0.08359 -2.68e-4,0.167442 -5.36e-4,0.251028 0,0.0073 0.0018,0.0091 0.0094,0.0091 0.10025,0 0.200232,-2.75e-4 0.300481,0 0.0067,0 0.01021,-0.0016 0.01155,-0.0091 0.0062,-0.03602 0.01398,-0.07149 0.02634,-0.105894 0.02284,-0.06423 0.05644,-0.121751 0.101862,-0.172549 0.03521,-0.03924 0.07606,-0.07203 0.121752,-0.09783 0.0387,-0.02177 0.07982,-0.03682 0.123096,-0.04623 0.05805,-0.01263 0.116375,-0.0129 0.174698,-0.0018 0.03413,0.0062 0.06719,0.0172 0.09864,0.03145 0.05886,0.02688 0.109657,0.0645 0.152928,0.112075 0.02177,0.02365 0.04192,0.04892 0.05751,0.07714 0.0094,0.01666 0.01694,0.03413 0.02526,0.05107 0.006,0.01237 0.006,0.01237 -0.0078,0.01237 -0.043,0 -0.08574,0 -0.12847,0 -0.0056,0 -0.0097,-0.0013 -0.01344,-0.0062 -0.01532,-0.01962 -0.02957,-0.04059 -0.04838,-0.05751 -0.04086,-0.03709 -0.08762,-0.06343 -0.141103,-0.07714 -0.05294,-0.01343 -0.106431,-0.01343 -0.159378,8.05e-4 -0.06235,0.01694 -0.115301,0.04999 -0.15911,0.09783 -0.03441,0.03709 -0.05913,0.07982 -0.07606,0.127396 -0.01559,0.04515 -0.02284,0.09165 -0.0215,0.139758 0.0016,0.06584 0.018,0.127663 0.05106,0.184374 0.03198,0.05456 0.07445,0.09864 0.129814,0.129546 0.06423,0.03629 0.13304,0.04918 0.205876,0.03817 0.05214,-0.0078 0.09917,-0.02876 0.141909,-0.05966 0.02661,-0.01908 0.04892,-0.04219 0.06773,-0.06907 0.0043,-0.0062 0.0089,-0.0086 0.01667,-0.0083 0.04488,2.76e-4 0.08977,-2.75e-4 0.134651,-2.75e-4 0.0075,0 0.0083,0.0013 0.0051,0.0081 -0.0075,0.01532 -0.01424,0.03091 -0.02257,0.04569 -0.01612,0.02849 -0.03655,0.05402 -0.05859,0.07821 -0.02392,0.02634 -0.05053,0.04972 -0.08009,0.06988 -0.03816,0.02634 -0.07929,0.04731 -0.123633,0.06101 -0.05805,0.01747 -0.117182,0.02365 -0.177386,0.01693 -0.03145,-0.0035 -0.06208,-0.01048 -0.09219,-0.02043 -0.05026,-0.01666 -0.09541,-0.04193 -0.137071,-0.07445 -0.0309,-0.02392 -0.05778,-0.05214 -0.08197,-0.08278 -0.04139,-0.05241 -0.07068,-0.111001 -0.08896,-0.175237 -0.0073,-0.0258 -0.01183,-0.05241 -0.0172,-0.07874 -0.0013,-0.0056 -0.0032,-0.0083 -0.0091,-0.0083 -0.0091,2.76e-4 -0.01827,0 -0.02715,0 -0.09246,0 -0.184643,0 -0.276829,0 -0.0083,0 -0.0097,0.0013 -0.0097,0.0091 0,0.138952 0,0.277905 0,0.416858 0,0.0046 0,0.0086 0,0.01317 2.69e-4,0.0046 -0.0022,0.0065 -0.0067,0.0065 -0.04865,0 -0.09729,-2.76e-4 -0.146209,-2.76e-4 -0.0048,0 -0.0067,-0.0024 -0.0067,-0.007 0,-0.0078 0,-0.01586 0,-0.02365 0,-0.152121 0,-0.304243 0,-0.456365"
           id="path1263"
           inkscape:connector-curvature="0" />
        <path
           style="fill:#808080;fill-opacity:1;fill-rule:nonzero;stroke:none;stroke-width:0.06880426"
           d="m -20.552656,12.655784 c -0.01613,0 -0.03225,-2.75e-4 -0.04837,0 -0.0067,2.76e-4 -0.01155,-0.0018 -0.01532,-0.0075 -0.01263,-0.01881 -0.02902,-0.03333 -0.04838,-0.04461 -0.03118,-0.01747 -0.06423,-0.02473 -0.09998,-0.01881 -0.03898,0.0067 -0.07041,0.0258 -0.09541,0.05563 -0.0172,0.02043 -0.02902,0.04408 -0.03521,0.07042 -0.01102,0.04596 -0.0065,0.09084 0.01639,0.132233 0.02284,0.04193 0.05671,0.07149 0.104013,0.08143 0.06262,0.01317 0.114226,-0.006 0.154541,-0.05563 0.01666,-0.02069 0.0086,-0.0172 0.03413,-0.01747 0.02849,0 0.05671,0 0.0852,0 0.0094,0 0.01021,8.05e-4 0.007,0.0099 -0.0097,0.02902 -0.02445,0.05537 -0.043,0.07955 -0.02607,0.03333 -0.05778,0.05994 -0.09622,0.07794 -0.04193,0.01962 -0.08574,0.02796 -0.132233,0.02338 -0.04435,-0.0046 -0.08466,-0.01989 -0.120676,-0.04542 -0.03252,-0.02312 -0.05967,-0.05161 -0.07929,-0.08654 -0.03816,-0.06719 -0.05026,-0.138951 -0.03521,-0.215012 0.0099,-0.05161 0.03171,-0.09756 0.06639,-0.137072 0.03037,-0.03441 0.06665,-0.06047 0.110464,-0.07553 0.04703,-0.01613 0.09514,-0.01908 0.14379,-0.0065 0.06182,0.01586 0.110195,0.05053 0.147821,0.101592 0.01559,0.02096 0.02741,0.04408 0.03736,0.06827 0.0032,0.0078 0.0016,0.0097 -0.0067,0.0097 -0.01694,0 -0.03413,0 -0.05107,0"
           id="path1265"
           inkscape:connector-curvature="0" />
        <path
           style="fill:#808080;fill-opacity:1;fill-rule:nonzero;stroke:none;stroke-width:0.06880426"
           d="m -19.607673,12.339715 c -0.0011,-8.05e-4 -0.0018,-0.0013 -0.003,-0.0022 l -0.02607,0.02796 c 5.36e-4,5.51e-4 0.0013,0.0013 0.0018,0.0022 h 0.02715 z m 0.498562,0.151048 c -0.01182,0.01075 -0.02445,0.02257 -0.03763,0.03386 -0.0062,0.0053 -0.0081,0.01129 -0.0065,0.01908 h 0.04408 z m -0.220119,-0.179806 c 2.68e-4,-0.0027 2.68e-4,-0.0046 2.68e-4,-0.0067 2.68e-4,-0.01263 2.68e-4,-0.01263 -0.0121,-0.01263 -0.02849,0 -0.05698,0 -0.08547,0 -0.0035,0 -0.007,2.76e-4 -0.01021,5.51e-4 v 0.01882 z m 0.167173,0.821082 c 0.0018,-0.02284 -0.01747,-0.05107 -0.05107,-0.05188 -0.02795,-5.51e-4 -0.0516,0.02339 -0.05187,0.0516 0,0.02849 0.02312,0.0516 0.0516,0.05188 0.02876,0 0.05133,-0.02258 0.05133,-0.0516 m -0.388368,-0.764372 h 0.377886 c -0.0027,-0.01075 -0.0097,-0.01747 -0.01774,-0.02312 -0.03279,-0.02258 -0.07096,-0.02903 -0.110464,-0.03602 v 0.03037 h -0.165022 v -0.03709 c -0.0215,0.0027 -0.04192,0.0053 -0.06208,0.0081 -0.0053,8.06e-4 -0.01075,0.0016 -0.01559,0.0038 -0.003,0.0011 -0.0067,0.0043 -0.0067,0.007 -8.07e-4,0.01532 -2.68e-4,0.03064 -2.68e-4,0.04704 m 0.114494,0.416051 c -0.06128,-0.06584 -0.121751,-0.131158 -0.182224,-0.196199 -5.37e-4,2.74e-4 -0.0013,5.5e-4 -0.0022,10e-4 0.01075,0.116645 0.02123,0.233558 0.03198,0.352622 0.0516,-0.05321 0.101594,-0.104819 0.152391,-0.157497 m 0.216088,0.190555 c 0.01102,-0.134652 0.0215,-0.266349 0.03225,-0.398312 -8.07e-4,-8.06e-4 -0.0016,-0.0013 -0.0022,-0.0022 -0.0038,0.0022 -0.0078,0.0038 -0.01075,0.0067 -0.05294,0.05456 -0.105893,0.109118 -0.15884,0.163948 -0.01237,0.0129 -0.02473,0.02607 -0.03763,0.03951 0.05886,0.06316 0.117182,0.126052 0.177117,0.190286 m -0.349666,0.173086 h 0.260167 c 0.0025,-0.06935 0.01881,-0.09084 0.08359,-0.112077 0.0053,-0.01398 0.0013,-0.02445 -0.0091,-0.03547 -0.0473,-0.04972 -0.0938,-0.100518 -0.140296,-0.150778 -0.01371,-0.01478 -0.02741,-0.02957 -0.04139,-0.04435 -0.0013,0.0013 -0.0025,0.0018 -0.0032,0.0027 -0.05376,0.05563 -0.107506,0.11127 -0.160722,0.167173 -0.0025,0.0025 -0.0038,0.0073 -0.0035,0.01102 0.0022,0.02822 0.0048,0.05617 0.0073,0.08439 0.0022,0.0258 0.0048,0.05133 0.0073,0.07741 m 0.395893,-0.74718 h -0.463085 c -2.69e-4,10e-4 -5.37e-4,0.0016 -5.37e-4,0.0022 0.004,0.04274 0.0083,0.0852 0.01183,0.127665 5.36e-4,0.0075 0.0038,0.01263 0.0086,0.01774 0.05294,0.05671 0.105625,0.113688 0.158572,0.170397 0.01398,0.01505 0.02795,0.02984 0.04219,0.04488 0.04139,-0.04274 0.08225,-0.08493 0.123095,-0.127127 -5.36e-4,-5.5e-4 -8.06e-4,-0.0013 -0.001,-0.0022 h -0.173086 c 0,-0.01935 -2.69e-4,-0.03735 2.69e-4,-0.05537 0,-0.0018 0.0038,-0.0051 0.006,-0.0051 0.0637,-2.75e-4 0.127395,0 0.191093,-2.75e-4 0.0051,0 0.0067,0.0018 0.0067,0.0067 -2.68e-4,0.0078 0,0.01532 0,0.02365 0.0016,-8.06e-4 0.0025,-0.0011 0.003,-0.0016 0.02096,-0.0215 0.04192,-0.043 0.06262,-0.06478 0.0022,-0.0022 0.003,-0.0065 0.0032,-0.0097 2.68e-4,-0.01559 0,-0.03145 0,-0.04731 v -0.02473 c 0.006,0 0.01075,-2.76e-4 0.01639,-5.51e-4 0.0013,-0.01828 0.003,-0.03629 0.0043,-0.05456 m -0.413364,0.779692 c -0.0046,-8.05e-4 -0.0073,-0.0013 -0.01049,-0.0018 -0.0051,-0.05617 -0.01021,-0.112077 -0.01559,-0.170398 -0.108313,0.111807 -0.215014,0.222537 -0.322789,0.334075 -0.006,-0.0075 -0.01155,-0.01478 -0.01774,-0.02257 0.0094,-0.0097 0.01855,-0.01908 0.02796,-0.02876 0.07096,-0.0731 0.14164,-0.146478 0.212594,-0.219851 0.03064,-0.03145 0.06128,-0.06316 0.09165,-0.09514 0.0027,-0.0027 0.0043,-0.0075 0.004,-0.01155 -0.003,-0.03655 -0.0062,-0.0731 -0.0094,-0.109925 -0.0032,-0.03575 -0.0067,-0.07149 -0.0099,-0.107237 -0.0027,-0.02929 -0.0051,-0.05859 -0.0078,-0.08789 -0.0027,-0.02929 -0.0073,-0.05886 -0.0078,-0.08842 -2.67e-4,-0.01908 -0.0097,-0.03037 -0.02123,-0.04274 -0.07686,-0.08251 -0.153466,-0.165023 -0.230064,-0.247803 -0.02177,-0.02312 -0.04354,-0.04649 -0.06504,-0.06988 -0.0022,-0.0025 -0.0038,-0.0062 -0.004,-0.0091 -5.36e-4,-0.01102 -2.68e-4,-0.02204 -2.68e-4,-0.03547 0.105087,0.112881 0.208832,0.224151 0.314188,0.33757 -0.0032,-0.03574 -0.0062,-0.0688 -0.0094,-0.102938 h -0.04112 c 0,-0.0099 -2.69e-4,-0.01881 2.68e-4,-0.02768 2.69e-4,-0.0013 0.004,-0.0035 0.0065,-0.0038 0.0097,-2.76e-4 0.01962,2.74e-4 0.02929,-2.76e-4 0.0025,-2.74e-4 0.0062,-0.0027 0.0067,-0.0048 0.0056,-0.02312 0.02204,-0.03735 0.04031,-0.04999 5.38e-4,-5.49e-4 0.0011,-8.04e-4 0.0016,-0.0011 0.01666,-0.0091 0.01666,-0.0091 0.01747,-0.02876 0.0027,-2.76e-4 0.0056,-8.07e-4 0.0083,-5.51e-4 0.04274,0.0027 0.08466,-0.0056 0.12659,-0.01075 0.0032,-2.77e-4 0.006,-0.0038 0.0086,-0.0056 -2.68e-4,-8.06e-4 -5.36e-4,-0.0016 -8.06e-4,-0.0025 h 0.163948 c -0.0038,0.01425 0.006,0.01451 0.01532,0.01639 0.02796,0.0053 0.0559,0.01049 0.08225,0.02257 0.01747,0.0081 0.03413,0.01694 0.0473,0.03225 0.01183,-0.0097 0.025,-0.01666 0.04004,-0.01236 0.0091,0.0027 0.01855,0.0073 0.02526,0.01371 0.01398,0.01343 0.01532,0.03602 0.0046,0.05268 -0.01129,0.018 -0.03118,0.02392 -0.05725,0.01613 -0.0013,0.01639 -0.0027,0.03225 -0.004,0.04945 0.0097,0 0.01828,2.75e-4 0.02688,-2.76e-4 0.0022,0 0.0046,-0.0025 0.0062,-0.0043 0.03521,-0.03628 0.07042,-0.07257 0.105626,-0.10912 0.05564,-0.05725 0.11127,-0.114763 0.166905,-0.172279 8.06e-4,-8.03e-4 0.0016,-0.0016 0.0038,-0.0038 0,0.01371 0.0022,0.02634 -5.36e-4,0.0379 -0.0016,0.0073 -0.01021,0.0129 -0.01586,0.01882 -0.06531,0.06746 -0.13062,0.135189 -0.196199,0.20265 -0.0018,0.0022 -0.004,0.0043 -0.006,0.0065 -0.0073,0.0075 -0.0172,0.01398 -0.02069,0.02312 -0.0035,0.0086 0,0.01962 0,0.02984 0,0.02957 0,0.05939 0,0.09058 h -0.07982 c -0.0018,0.02312 -0.0038,0.04488 -0.0056,0.06692 -0.0027,0.03413 -0.0056,0.06854 -0.0086,0.10267 -0.0018,0.025 -0.0035,0.04972 -0.0056,0.07472 -0.0027,0.03359 -0.0056,0.06692 -0.0081,0.100251 -0.0022,0.02688 -0.0043,0.05402 -0.006,0.0809 -2.69e-4,0.003 0.0013,0.007 0.0035,0.0091 0.07552,0.08144 0.151048,0.162604 0.226839,0.243772 0.02043,0.02204 0.04112,0.04435 0.06209,0.06719 -0.0062,0.0073 -0.01236,0.01425 -0.01908,0.02231 -0.06611,-0.07122 -0.131427,-0.141639 -0.198349,-0.213669 -0.0013,0.02043 -0.0053,0.0379 -0.01506,0.05402 -0.01774,0.0301 -0.05698,0.04945 -0.09165,0.04542 -0.03172,-0.0038 -0.0559,-0.01882 -0.07337,-0.04515 -0.0013,-0.0018 -0.0046,-0.004 -0.007,-0.004 -0.07337,-2.74e-4 -0.147015,0 -0.220389,0 -8.06e-4,0 -0.0016,5.51e-4 -0.0035,0.0011 v 0.04623 h -0.06047 z m 0,0"
           id="path1267"
           inkscape:connector-curvature="0" />
        <path
           style="fill:#808080;fill-opacity:1;fill-rule:nonzero;stroke:none;stroke-width:0.06880426"
           d="m -19.180065,13.133113 c 0,0.01855 -0.01532,0.03386 -0.03413,0.03359 -0.01827,-5.51e-4 -0.03333,-0.01559 -0.03333,-0.03386 0,-0.01935 0.01425,-0.03333 0.03386,-0.03333 0.01935,0 0.0336,0.01398 0.0336,0.03359"
           id="path1269"
           inkscape:connector-curvature="0" />
        <path
           style="fill:#808080;fill-opacity:1;fill-rule:nonzero;stroke:none;stroke-width:0.06880426"
           d="m -17.104649,13.251909 c -0.132502,0.01694 -0.327088,-0.02795 -0.455022,-0.199156 -0.127932,-0.170937 -0.136264,-0.398851 -0.0215,-0.577044 0.117988,-0.183836 0.317682,-0.248609 0.476522,-0.230332 v 0.151853 c -0.111,-0.0129 -0.2091,0.01639 -0.29188,0.09246 -0.05376,0.04945 -0.08815,0.110463 -0.104551,0.182761 h 0.295107 v 0.152121 h -0.295375 c 0.02151,0.09111 0.06935,0.163142 0.145134,0.21582 0.07552,0.05241 0.159916,0.07122 0.251565,0.05967 z m 0,0"
           id="path1271"
           inkscape:connector-curvature="0" />
        <path
           style="fill:#808080;fill-opacity:1;fill-rule:nonzero;stroke:none;stroke-width:0.06880426"
           d="M -17.962283,12.245915 V 12.3975 c -0.128202,-0.01478 -0.237321,0.02339 -0.32252,0.120676 -0.06208,0.07123 -0.09031,0.155615 -0.08493,0.249685 0.006,0.103743 0.04972,0.189748 0.130353,0.255597 0.08036,0.06584 0.173622,0.0895 0.277098,0.07633 v 0.151853 c -0.141641,0.01882 -0.344291,-0.03252 -0.471417,-0.216627 -0.121751,-0.176041 -0.118257,-0.41175 0.0094,-0.585642 0.130082,-0.177116 0.329238,-0.221464 0.462009,-0.203456"
           id="path1273"
           inkscape:connector-curvature="0" />
        <g
           style="clip-rule:nonzero;opacity:0.5;fill:#808080;fill-opacity:1"
           id="g1277"
           clip-path="url(#clip1-8-3)"
           transform="matrix(0.06880426,0,0,0.06880426,-25.617028,1.2267512)">
          <path
             inkscape:connector-curvature="0"
             id="path1275"
             d="M 122.19531,194.12891 H 9.539062 C 4.273438,194.12891 0,189.85547 0,184.58984 V 9.539062 C 0,4.269531 4.273438,0 9.539062,0 H 122.19531 c 5.26953,0 9.53906,4.269531 9.53906,9.539062 V 184.58984 c 0,5.26563 -4.26953,9.53907 -9.53906,9.53907"
             style="fill:#808080;fill-opacity:1;fill-rule:nonzero;stroke:none" />
        </g>
        <path
           style="fill:#808080;fill-opacity:1;fill-rule:nonzero;stroke:none;stroke-width:0.06880426"
           d="m -18.554645,9.5453469 0.884511,-1.7660654"
           id="path1279"
           inkscape:connector-curvature="0" />
        <g
           transform="matrix(0.06880426,0,0,0.06880426,-25.619716,1.2267508)"
           clip-path="url(#clip261-3-3)"
           id="g1283"
           style="clip-rule:nonzero;fill:#808080;fill-opacity:1">
          <path
             style="fill:#808080;fill-opacity:1;fill-rule:nonzero;stroke:none"
             d="M 131.95312,95.234375 H 117 l -13.03906,25.667965 h 27.99218 z m 0,0"
             id="path1281"
             inkscape:connector-curvature="0" />
        </g>
        <path
           style="fill:#808080;fill-opacity:1;fill-rule:nonzero;stroke:none;stroke-width:0.06880426"
           d="m -24.191221,7.7792827 -0.897143,1.7660651 h 1.651033 l 0.884512,-1.7660651 z m 0,0"
           id="path1285"
           inkscape:connector-curvature="0" />
        <path
           style="fill:#808080;fill-opacity:1;fill-rule:nonzero;stroke:none;stroke-width:0.06880426"
           d="m -18.554647,9.5453478 0.884511,-1.7660651"
           id="path1287"
           inkscape:connector-curvature="0" />
        <path
           style="fill:#808080;fill-opacity:1;fill-rule:nonzero;stroke:none;stroke-width:0.06880426"
           d="m -17.71932,7.7792827 h -4.708523 l -0.896875,1.7660651 h 4.721156"
           id="path1289"
           inkscape:connector-curvature="0" />
      </g>
      <path
         style="clip-rule:nonzero;opacity:0.5;fill:#808080;fill-opacity:1;fill-rule:nonzero;stroke:none;stroke-width:0.06880426"
         d="m -20.510378,-18.913057 c -0.362298,0 -0.65625,0.293684 -0.65625,0.65625 v 12.0449217 c 0,0.3622978 0.293952,0.65625 0.65625,0.65625 h 1.068359 V -16.368135 c 0,-0.362566 0.293953,-0.65625 0.65625,-0.65625 h 6.683594 v -1.232422 c 0,-0.362566 -0.293684,-0.65625 -0.65625,-0.65625 z"
         id="path1569"
         inkscape:connector-curvature="0" />
    </g>
  </g>
</svg>
