<?xml version="1.0" encoding="UTF-8" standalone="no"?>
<svg
   xmlns:dc="http://purl.org/dc/elements/1.1/"
   xmlns:cc="http://creativecommons.org/ns#"
   xmlns:rdf="http://www.w3.org/1999/02/22-rdf-syntax-ns#"
   xmlns:svg="http://www.w3.org/2000/svg"
   xmlns="http://www.w3.org/2000/svg"
   xmlns:sodipodi="http://sodipodi.sourceforge.net/DTD/sodipodi-0.dtd"
   xmlns:inkscape="http://www.inkscape.org/namespaces/inkscape"
   height="16"
   width="16"
   version="1.1"
   id="svg10"
   sodipodi:docname="drive-harddisk-system-symbolic.svg"
   inkscape:version="0.92.3 (2405546, 2018-03-11)">
  <metadata
     id="metadata16">
    <rdf:RDF>
      <cc:Work
         rdf:about="">
        <dc:format>image/svg+xml</dc:format>
        <dc:type
           rdf:resource="http://purl.org/dc/dcmitype/StillImage" />
        <dc:title></dc:title>
      </cc:Work>
    </rdf:RDF>
  </metadata>
  <defs
     id="defs14" />
  <sodipodi:namedview
     pagecolor="#ffffff"
     bordercolor="#666666"
     borderopacity="1"
     objecttolerance="10"
     gridtolerance="10"
     guidetolerance="10"
     inkscape:pageopacity="0"
     inkscape:pageshadow="2"
     inkscape:window-width="1920"
     inkscape:window-height="1539"
     id="namedview12"
     showgrid="false"
     inkscape:zoom="14.75"
     inkscape:cx="2.3389831"
     inkscape:cy="8"
     inkscape:window-x="1920"
     inkscape:window-y="27"
     inkscape:window-maximized="0"
     inkscape:current-layer="svg10" />
  <g
     id="g869"
     transform="translate(29.491525,0.94915227)">
    <path
       id="rect881"
       d="m -25.889963,-0.94915254 c -1.164339,0 -2.101562,0.9372235 -2.101562,2.10156244 V 12.949285 c 0,1.164339 0.937223,2.101563 2.101562,2.101563 h 8.796875 c 1.164339,0 2.101563,-0.937224 2.101563,-2.101563 V 1.1524099 c 0,-1.16433894 -0.937224,-2.10156244 -2.101563,-2.10156244 z m 0.369141,0.5 h 8.058594 c 1.091567,0 1.970703,0.8771822 1.970703,1.96874994 V 12.580145 c 0,1.091568 -0.879136,1.970703 -1.970703,1.970703 h -8.058594 c -1.091568,0 -1.970703,-0.879135 -1.970703,-1.970703 V 1.5195974 c 0,-1.09156774 0.879135,-1.96874994 1.970703,-1.96874994 z"
       style="opacity:1;fill:#808080;fill-opacity:1;stroke:none;stroke-width:0.60521454;stroke-opacity:0.94117647"
       inkscape:connector-curvature="0" />
    <path
       inkscape:connector-curvature="0"
       id="path853"
       d="m -21.491525,3.9657704 a 5,5 0 0 0 -5,5 5,5 0 0 0 5,4.9999996 5,5 0 0 0 5,-4.9999996 5,5 0 0 0 -5,-5 z m 0,0.5 a 4.5,4.5 0 0 1 4.5,4.5 4.5,4.5 0 0 1 -4.5,4.4999996 4.5,4.5 0 0 1 -4.5,-4.4999996 4.5,4.5 0 0 1 4.5,-4.5 z"
       style="opacity:1;fill:#808080;fill-opacity:1;stroke:none;stroke-width:0.78112334;stroke-opacity:0.94117647" />
    <path
       inkscape:connector-curvature="0"
       id="path858"
       d="m -21.491525,6.9657702 a 2,2 0 0 0 -2,2 2,2 0 0 0 2,1.9999998 2,2 0 0 0 2,-1.9999998 2,2 0 0 0 -2,-2 z m 0,1 a 1,1 0 0 1 1,1 1,1 0 0 1 -1,1 1,1 0 0 1 -1,-1 1,1 0 0 1 1,-1 z"
       style="opacity:1;fill:#808080;fill-opacity:1;stroke:none;stroke-width:0.27362949;stroke-opacity:0.94117647" />
    <rect
       transform="rotate(-45)"
       y="-9.1590624"
       x="-18.82748"
       height="1"
       width="2"
       id="rect863"
       style="opacity:1;fill:#808080;fill-opacity:1;stroke:none;stroke-width:0.10661567;stroke-opacity:0.94117647" />
  </g>
</svg>
