<?xml version="1.0" encoding="UTF-8" standalone="no"?>
<svg
   xmlns:dc="http://purl.org/dc/elements/1.1/"
   xmlns:cc="http://creativecommons.org/ns#"
   xmlns:rdf="http://www.w3.org/1999/02/22-rdf-syntax-ns#"
   xmlns:svg="http://www.w3.org/2000/svg"
   xmlns="http://www.w3.org/2000/svg"
   xmlns:sodipodi="http://sodipodi.sourceforge.net/DTD/sodipodi-0.dtd"
   xmlns:inkscape="http://www.inkscape.org/namespaces/inkscape"
   height="16"
   width="16"
   version="1.1"
   id="svg8"
   sodipodi:docname="drive-harddisk-usb-symbolic.svg"
   inkscape:version="0.92.3 (2405546, 2018-03-11)">
  <metadata
     id="metadata14">
    <rdf:RDF>
      <cc:Work
         rdf:about="">
        <dc:format>image/svg+xml</dc:format>
        <dc:type
           rdf:resource="http://purl.org/dc/dcmitype/StillImage" />
        <dc:title></dc:title>
      </cc:Work>
    </rdf:RDF>
  </metadata>
  <defs
     id="defs12">
    <clipPath
       clipPathUnits="userSpaceOnUse"
       id="clipPath844">
      <rect
         style="opacity:1;fill:#008080;fill-opacity:1;stroke:none;stroke-width:1.10936391;stroke-linecap:butt;stroke-linejoin:bevel;stroke-miterlimit:10.00000095;stroke-dasharray:none;stroke-opacity:1;paint-order:fill markers stroke"
         id="rect847"
         width="12.291875"
         height="12.466972"
         x="0.99531424"
         y="0.1680488" />
    </clipPath>
  </defs>
  <sodipodi:namedview
     pagecolor="#ffffff"
     bordercolor="#666666"
     borderopacity="1"
     objecttolerance="10"
     gridtolerance="10"
     guidetolerance="10"
     inkscape:pageopacity="0"
     inkscape:pageshadow="2"
     inkscape:window-width="1920"
     inkscape:window-height="1539"
     id="namedview10"
     showgrid="false"
     inkscape:zoom="14.75"
     inkscape:cx="2.3389831"
     inkscape:cy="16.135593"
     inkscape:window-x="1920"
     inkscape:window-y="27"
     inkscape:window-maximized="0"
     inkscape:current-layer="svg8" />
  <g
     id="g840"
     transform="matrix(1.2017212,0,0,1.2017212,4.6553658,-0.20565612)"
     clip-path="url(#clipPath844)">
    <path
       id="path66"
       d="M 1.65625,1.0214844 V 3.1347656 H 1.1875 C 1.0818407,3.1347656 1,3.2199084 1,3.3222656 V 7.6308594 C 1.0066,8.4266057 1.5488434,9.097555 2.2851562,9.2890625 v 0.234375 0.2050781 0.1972656 0.2050778 0.197266 0.205078 c 0,0.168395 0.080957,0.313798 0.203125,0.40625 V 16 h 0.5957032 v -5.064453 c 0.1254704,-0.09245 0.2050781,-0.237856 0.2050781,-0.40625 V 10.326172 10.126953 9.921875 9.7246094 9.5195312 9.2851562 C 4.0253755,9.093649 4.5664062,8.4226994 4.5664062,7.6269531 V 3.3222656 c 0,-0.1056592 -0.087096,-0.1875 -0.1894531,-0.1875 h -0.46875 V 1.0214844 H 3.6523438 1.9140625 Z M 2.7871094,4.9101562 2.9941406,5.25 H 2.8398438 V 6.2246094 L 3.0566406,6.0898438 c 0.042924,-0.029716 0.070312,-0.077426 0.070312,-0.1269532 V 5.6738281 H 3.0410156 V 5.3984375 h 0.2734375 v 0.2753906 h -0.085937 v 0.2890625 c 0,0.085848 -0.0465,0.1666648 -0.1191406,0.2128906 L 2.8398438,6.34375 v 0.546875 c 0.1221684,0.026415 0.2148437,0.1329464 0.2148437,0.2617188 0,0.1452814 -0.1203435,0.2636718 -0.265625,0.2636718 -0.1452815,0 -0.2636719,-0.1183904 -0.2636719,-0.2636718 0,-0.1287723 0.092675,-0.2386058 0.2148438,-0.2617188 V 6.6210938 L 2.46875,6.453125 C 2.3928084,6.4068991 2.3496094,6.3260824 2.3496094,6.2402344 V 5.9960938 c -0.05283,-0.023113 -0.091662,-0.075937 -0.1015625,-0.1386719 0,-0.079245 0.065287,-0.1445313 0.1445312,-0.1445313 0.079244,0 0.1464844,0.065287 0.1464844,0.1445313 0,0.062735 -0.04092,0.1169077 -0.09375,0.1367187 v 0.2441406 c 0,0.05283 0.027388,0.098586 0.070312,0.125 l 0.21875,0.1347657 V 5.25 h -0.15625 z"
       style="fill:#808080;fill-opacity:1;stroke-width:0.03301852"
       inkscape:connector-curvature="0" />
    <path
       id="rect68"
       d="m 2.7597656,1.0214844 v 0.00195 h 0.099609 v -0.00195 z m 0.099609,0.00195 V 1.3144531 H 2.6484375 V 1.4902344 H 2.859375 v 0.1015625 0.1484375 0.039063 H 2.6484375 V 1.9550781 H 2.859375 v 0.1015625 0.1503906 0.039063 H 2.6484375 V 2.4238281 H 2.859375 v 0.099609 0.1484375 0.039063 H 2.6484375 V 2.8867188 H 2.859375 V 3.1347656 H 2.7597656 V 2.9863281 H 2.5488281 V 2.6132812 h 0.2109375 v -0.089844 -0.00391 H 2.5488281 V 2.1464844 h 0.2109375 v -0.089844 -0.00195 H 2.5488281 V 1.6816406 h 0.2109375 v -0.089844 -0.00391 H 2.5488281 V 1.2148438 H 2.7597656 V 1.0234375 H 1.921875 1.9179688 1.6640625 v 2.1132813 h 0.2539063 0.00391 1.7324219 0.2578125 V 1.0234375 H 3.6542969 Z"
       style="fill:#808080;fill-opacity:1;stroke-width:0.03301852"
       inkscape:connector-curvature="0" />
    <g
       style="fill:#808080;fill-opacity:1"
       id="g960">
      <rect
         style="fill:#808080;fill-opacity:1;stroke-width:0.03301852"
         id="rect82"
         height="0.2047148"
         width="0.39952406"
         y="-10.530168"
         x="-3.2914855"
         transform="scale(-1)" />
      <rect
         style="fill:#808080;fill-opacity:1;stroke-width:0.03301852"
         id="rect84"
         height="0.2047148"
         width="0.39952406"
         y="-10.530168"
         x="-2.6839447"
         transform="scale(-1)" />
      <rect
         style="fill:#808080;fill-opacity:1;stroke-width:0.03301852"
         id="rect86"
         height="0.2047148"
         width="0.39952406"
         y="-10.127342"
         x="-3.2914855"
         transform="scale(-1)" />
      <rect
         style="fill:#808080;fill-opacity:1;stroke-width:0.03301852"
         id="rect88"
         height="0.2047148"
         width="0.39952406"
         y="-10.127342"
         x="-2.6839447"
         transform="scale(-1)" />
      <rect
         style="fill:#808080;fill-opacity:1;stroke-width:0.03301852"
         id="rect90"
         height="0.2047148"
         width="0.39952406"
         y="-9.7278185"
         x="-3.2914855"
         transform="scale(-1)" />
      <rect
         style="fill:#808080;fill-opacity:1;stroke-width:0.03301852"
         id="rect92"
         height="0.2047148"
         width="0.39952406"
         y="-9.7278185"
         x="-2.6839447"
         transform="scale(-1)" />
    </g>
  </g>
  <path
     inkscape:connector-curvature="0"
     style="opacity:1;fill:#808080;fill-opacity:1;stroke:none;stroke-width:0.60521454;stroke-opacity:0.94117647"
     d="M 3.601562,-2e-7 C 2.437223,-2e-7 1.5,0.93722326 1.5,2.1015622 V 13.898437 C 1.5,15.062776 2.437223,16 3.601562,16 h 8.796875 C 13.562776,16 14.5,15.062776 14.5,13.898437 V 2.1015622 C 14.5,0.93722326 13.562776,-2e-7 12.398437,-2e-7 Z m 0.369141,0.5 h 8.058594 C 13.120864,0.4999998 14,1.377182 14,2.4687497 V 13.529297 C 14,14.620865 13.120864,15.5 12.029297,15.5 H 3.970703 C 2.879135,15.5 2,14.620865 2,13.529297 V 2.4687497 C 2,1.377182 2.879135,0.4999998 3.970703,0.4999998 Z"
     id="rect881" />
</svg>
