<?xml version="1.0" encoding="UTF-8" standalone="no"?>
<svg
   xmlns:dc="http://purl.org/dc/elements/1.1/"
   xmlns:cc="http://creativecommons.org/ns#"
   xmlns:rdf="http://www.w3.org/1999/02/22-rdf-syntax-ns#"
   xmlns:svg="http://www.w3.org/2000/svg"
   xmlns="http://www.w3.org/2000/svg"
   xmlns:sodipodi="http://sodipodi.sourceforge.net/DTD/sodipodi-0.dtd"
   xmlns:inkscape="http://www.inkscape.org/namespaces/inkscape"
   height="16"
   width="16"
   version="1.1"
   id="svg4"
   sodipodi:docname="input-gaming-symbolic.svg"
   inkscape:version="0.92.3 (2405546, 2018-03-11)">
  <metadata
     id="metadata10">
    <rdf:RDF>
      <cc:Work
         rdf:about="">
        <dc:format>image/svg+xml</dc:format>
        <dc:type
           rdf:resource="http://purl.org/dc/dcmitype/StillImage" />
      </cc:Work>
    </rdf:RDF>
  </metadata>
  <defs
     id="defs8" />
  <sodipodi:namedview
     pagecolor="#ffffff"
     bordercolor="#666666"
     borderopacity="1"
     objecttolerance="10"
     gridtolerance="10"
     guidetolerance="10"
     inkscape:pageopacity="0"
     inkscape:pageshadow="2"
     inkscape:window-width="1920"
     inkscape:window-height="1019"
     id="namedview6"
     showgrid="false"
     inkscape:zoom="29.5"
     inkscape:cx="12.777693"
     inkscape:cy="8.9053414"
     inkscape:window-x="0"
     inkscape:window-y="27"
     inkscape:window-maximized="1"
     inkscape:current-layer="svg4" />
  <path
     style="fill:#808080;fill-opacity:1;stroke:none;stroke-width:0.07617781;stroke-miterlimit:10;stroke-dasharray:none;stroke-opacity:1"
     d="M 12.435547 3 A 5.1101179 2.3506963 76.553135 0 0 12.269531 3.0214844 A 5.1101179 2.3506963 76.553135 0 0 11.496094 3.5585938 L 4.5039062 3.5585938 A 2.3506963 5.110117 13.446866 0 0 3.7304688 3.0214844 A 2.3506963 5.110117 13.446866 0 0 3.5644531 3.0019531 A 2.3506963 5.110117 13.446866 0 0 0.2734375 7.5292969 A 2.3506963 5.110117 13.446866 0 0 1.4238281 12.978516 A 2.3506963 5.110117 13.446866 0 0 4.5644531 9.5644531 L 11.435547 9.5644531 A 5.1101179 2.3506963 76.553135 0 0 14.576172 12.978516 A 5.1101179 2.3506963 76.553135 0 0 15.726562 7.5292969 A 5.1101179 2.3506963 76.553135 0 0 12.435547 3 z M 13.244141 4.9707031 A 0.56984776 0.56166166 0 0 1 13.814453 5.5332031 A 0.56984776 0.56166166 0 0 1 13.244141 6.09375 A 0.56984776 0.56166166 0 0 1 12.673828 5.5332031 A 0.56984776 0.56166166 0 0 1 13.244141 4.9707031 z M 7.9375 4.9804688 L 8.2148438 6.1601562 L 7.953125 6.2382812 L 7.9375 6.2441406 L 7.6621094 6.1601562 L 7.9375 4.9804688 z M 2.8671875 5.2949219 A 0.96888387 0.94434518 0 0 1 3.8359375 6.2402344 A 0.96888387 0.94434518 0 0 1 2.8671875 7.1835938 A 0.96888387 0.94434518 0 0 1 1.8984375 6.2402344 A 0.96888387 0.94434518 0 0 1 2.8671875 5.2949219 z M 2.8671875 5.4121094 A 0.85000002 0.8284722 0 0 0 2.015625 6.2402344 A 0.85000002 0.8284722 0 0 0 2.8671875 7.0683594 A 0.85000002 0.8284722 0 0 0 3.7167969 6.2402344 A 0.85000002 0.8284722 0 0 0 2.8671875 5.4121094 z M 2.8671875 5.5097656 A 0.75 0.73100483 0 0 1 3.6171875 6.2402344 A 0.75 0.73100483 0 0 1 2.8671875 6.9707031 A 0.75 0.73100483 0 0 1 2.1171875 6.2402344 A 0.75 0.73100483 0 0 1 2.8671875 5.5097656 z M 6.7421875 6.1015625 L 7.9375 6.4628906 L 9.1347656 6.1015625 L 8.21875 6.9414062 L 7.9375 8.1425781 L 7.6582031 6.9414062 L 6.7421875 6.1015625 z M 12.03125 6.1035156 A 0.56984776 0.56166166 0 0 1 12.599609 6.6660156 A 0.56984776 0.56166166 0 0 1 12.03125 7.2265625 A 0.56984776 0.56166166 0 0 1 11.460938 6.6660156 A 0.56984776 0.56166166 0 0 1 12.03125 6.1035156 z M 14.388672 6.1035156 A 0.56984776 0.56166166 0 0 1 14.958984 6.6660156 A 0.56984776 0.56166166 0 0 1 14.388672 7.2265625 A 0.56984776 0.56166166 0 0 1 13.818359 6.6660156 A 0.56984776 0.56166166 0 0 1 14.388672 6.1035156 z M 7.2539062 6.8574219 L 7.4648438 7.0507812 L 7.5292969 7.328125 L 6.3554688 7.6835938 L 7.2539062 6.8574219 z M 8.6230469 6.8574219 L 9.5214844 7.6835938 L 8.3457031 7.328125 L 8.4121094 7.0507812 L 8.421875 7.0410156 L 8.6230469 6.8574219 z M 13.244141 7.140625 A 0.56984776 0.56166166 0 0 1 13.814453 7.7011719 A 0.56984776 0.56166166 0 0 1 13.244141 8.2636719 A 0.56984776 0.56166166 0 0 1 12.673828 7.7011719 A 0.56984776 0.56166166 0 0 1 13.244141 7.140625 z "
     id="path1093" />
</svg>
