<?xml version="1.0" encoding="UTF-8" standalone="no"?>
<svg
   xmlns:dc="http://purl.org/dc/elements/1.1/"
   xmlns:cc="http://creativecommons.org/ns#"
   xmlns:rdf="http://www.w3.org/1999/02/22-rdf-syntax-ns#"
   xmlns:svg="http://www.w3.org/2000/svg"
   xmlns="http://www.w3.org/2000/svg"
   xmlns:sodipodi="http://sodipodi.sourceforge.net/DTD/sodipodi-0.dtd"
   xmlns:inkscape="http://www.inkscape.org/namespaces/inkscape"
   height="16"
   width="16"
   version="1.1"
   id="svg4"
   sodipodi:docname="video-x-generic-symbolic.svg"
   inkscape:version="0.92.3 (2405546, 2018-03-11)">
  <metadata
     id="metadata10">
    <rdf:RDF>
      <cc:Work
         rdf:about="">
        <dc:format>image/svg+xml</dc:format>
        <dc:type
           rdf:resource="http://purl.org/dc/dcmitype/StillImage" />
      </cc:Work>
    </rdf:RDF>
  </metadata>
  <defs
     id="defs8" />
  <sodipodi:namedview
     pagecolor="#ffffff"
     bordercolor="#666666"
     borderopacity="1"
     objecttolerance="10"
     gridtolerance="10"
     guidetolerance="10"
     inkscape:pageopacity="0"
     inkscape:pageshadow="2"
     inkscape:window-width="1920"
     inkscape:window-height="1539"
     id="namedview6"
     showgrid="false"
     inkscape:zoom="29.5"
     inkscape:cx="18.478136"
     inkscape:cy="4.5708471"
     inkscape:window-x="1920"
     inkscape:window-y="27"
     inkscape:window-maximized="0"
     inkscape:current-layer="svg4" />
  <path
     style="display:inline;fill:#4d4d4d;fill-opacity:1;stroke:none;stroke-width:0.13620472;stroke-miterlimit:4;stroke-dasharray:none;stroke-opacity:1"
     d="M -4.9999999e-8,0 V 16 H 0.70000005 V 15.65 H 1.4000001 V 16 H 14.6 v -0.35 h 0.7 V 16 H 16 V 0 H 15.3 V 0.35 H 14.6 V 0 H 1.4000001 V 0.35 H 0.70000005 V 0 Z M 0.70000005,0.65 H 1.4000001 v 0.7 H 0.70000005 Z M 14.6,0.65 h 0.7 v 0.7 H 14.6 Z M 2.1000001,0.7 H 13.9 V 7.65 H 2.1000001 Z M 0.70000005,1.65 H 1.4000001 v 0.7 H 0.70000005 Z M 14.6,1.65 h 0.7 v 0.7 h -0.7 z m -13.89999995,1 H 1.4000001 v 0.7 H 0.70000005 Z M 14.6,2.65 h 0.7 v 0.7 h -0.7 z m -13.89999995,1 H 1.4000001 v 0.7 H 0.70000005 Z M 14.6,3.65 h 0.7 v 0.7 h -0.7 z m -13.89999995,1 H 1.4000001 v 0.7 H 0.70000005 Z M 14.6,4.65 h 0.7 v 0.7 h -0.7 z m -13.89999995,1 H 1.4000001 v 0.7 H 0.70000005 Z M 14.6,5.65 h 0.7 v 0.7 h -0.7 z m -13.89999995,1 H 1.4000001 v 0.7 H 0.70000005 Z M 14.6,6.65 h 0.7 v 0.7 h -0.7 z m -13.89999995,1 H 1.4000001 v 0.7 H 0.70000005 Z M 14.6,7.65 h 0.7 v 0.7 H 14.6 Z M 2.1000001,8.35 H 13.9 V 15.3 H 2.1000001 Z M 0.70000005,8.65 H 1.4000001 v 0.7 H 0.70000005 Z M 14.6,8.65 h 0.7 v 0.7 h -0.7 z m -13.89999995,1 H 1.4000001 v 0.7 H 0.70000005 Z M 14.6,9.65 h 0.7 v 0.7 h -0.7 z m -13.89999995,1 H 1.4000001 v 0.7 H 0.70000005 Z M 14.6,10.65 h 0.7 v 0.7 h -0.7 z m -13.89999995,1 H 1.4000001 v 0.7 H 0.70000005 Z M 14.6,11.65 h 0.7 v 0.7 h -0.7 z m -13.89999995,1 H 1.4000001 v 0.7 H 0.70000005 Z M 14.6,12.65 h 0.7 v 0.7 h -0.7 z m -13.89999995,1 H 1.4000001 v 0.7 H 0.70000005 Z M 14.6,13.65 h 0.7 v 0.7 h -0.7 z m -13.89999995,1 H 1.4000001 v 0.7 H 0.70000005 Z M 14.6,14.65 h 0.7 v 0.7 h -0.7 z"
     id="rect1162"
     inkscape:connector-curvature="0" />
</svg>
