<?xml version="1.0" encoding="UTF-8" standalone="no"?>
<svg
   xmlns:dc="http://purl.org/dc/elements/1.1/"
   xmlns:cc="http://creativecommons.org/ns#"
   xmlns:rdf="http://www.w3.org/1999/02/22-rdf-syntax-ns#"
   xmlns:svg="http://www.w3.org/2000/svg"
   xmlns="http://www.w3.org/2000/svg"
   xmlns:sodipodi="http://sodipodi.sourceforge.net/DTD/sodipodi-0.dtd"
   xmlns:inkscape="http://www.inkscape.org/namespaces/inkscape"
   height="16"
   width="16"
   version="1.1"
   id="svg4"
   sodipodi:docname="x-office-calendar-symbolic.svg"
   inkscape:version="0.92.3 (2405546, 2018-03-11)">
  <metadata
     id="metadata10">
    <rdf:RDF>
      <cc:Work
         rdf:about="">
        <dc:format>image/svg+xml</dc:format>
        <dc:type
           rdf:resource="http://purl.org/dc/dcmitype/StillImage" />
      </cc:Work>
    </rdf:RDF>
  </metadata>
  <defs
     id="defs8">
    <clipPath
       clipPathUnits="userSpaceOnUse"
       id="clipPath1158">
      <circle
         style="display:inline;fill:#ffe680;fill-opacity:1;stroke:none;stroke-width:2.74049902;stroke-miterlimit:4;stroke-dasharray:none;stroke-opacity:1"
         id="circle1160"
         cx="124"
         cy="128"
         r="124" />
    </clipPath>
    <clipPath
       clipPathUnits="userSpaceOnUse"
       id="clipPath1155">
      <circle
         style="display:inline;fill:#003059;fill-opacity:1;stroke:none;stroke-width:2.74049902;stroke-miterlimit:4;stroke-dasharray:none;stroke-opacity:1"
         id="circle1157"
         cx="-331.61942"
         cy="199.17514"
         r="124" />
    </clipPath>
    <clipPath
       clipPathUnits="userSpaceOnUse"
       id="clipPath1155-6">
      <circle
         style="display:inline;fill:#003059;fill-opacity:1;stroke:none;stroke-width:2.74049902;stroke-miterlimit:4;stroke-dasharray:none;stroke-opacity:1"
         id="circle1157-2"
         cx="-331.61942"
         cy="199.17514"
         r="124" />
    </clipPath>
    <clipPath
       clipPathUnits="userSpaceOnUse"
       id="clipPath1155-1">
      <circle
         style="display:inline;fill:#003059;fill-opacity:1;stroke:none;stroke-width:2.74049902;stroke-miterlimit:4;stroke-dasharray:none;stroke-opacity:1"
         id="circle1157-27"
         cx="-331.61942"
         cy="199.17514"
         r="124" />
    </clipPath>
    <clipPath
       clipPathUnits="userSpaceOnUse"
       id="clipPath1155-9">
      <circle
         style="display:inline;fill:#003059;fill-opacity:1;stroke:none;stroke-width:2.74049902;stroke-miterlimit:4;stroke-dasharray:none;stroke-opacity:1"
         id="circle1157-3"
         cx="-331.61942"
         cy="199.17514"
         r="124" />
    </clipPath>
    <clipPath
       clipPathUnits="userSpaceOnUse"
       id="clipPath1158-1">
      <circle
         style="display:inline;fill:#ffe680;fill-opacity:1;stroke:none;stroke-width:2.74049902;stroke-miterlimit:4;stroke-dasharray:none;stroke-opacity:1"
         id="circle1160-8"
         cx="124"
         cy="128"
         r="124" />
    </clipPath>
    <clipPath
       clipPathUnits="userSpaceOnUse"
       id="clipPath1158-1-2">
      <circle
         style="display:inline;fill:#ffe680;fill-opacity:1;stroke:none;stroke-width:2.74049902;stroke-miterlimit:4;stroke-dasharray:none;stroke-opacity:1"
         id="circle1160-8-0"
         cx="124"
         cy="128"
         r="124" />
    </clipPath>
  </defs>
  <sodipodi:namedview
     pagecolor="#ffffff"
     bordercolor="#666666"
     borderopacity="1"
     objecttolerance="10"
     gridtolerance="10"
     guidetolerance="10"
     inkscape:pageopacity="0"
     inkscape:pageshadow="2"
     inkscape:window-width="1920"
     inkscape:window-height="1539"
     id="namedview6"
     showgrid="false"
     inkscape:zoom="41.7193"
     inkscape:cx="14.421132"
     inkscape:cy="5.2303299"
     inkscape:window-x="1920"
     inkscape:window-y="27"
     inkscape:window-maximized="0"
     inkscape:current-layer="svg4" />
  <path
     style="display:inline;fill:#808080;fill-opacity:1;stroke:none;stroke-width:0.17680639;stroke-miterlimit:4;stroke-dasharray:none;stroke-opacity:1;opacity:0.5"
     d="M 8 0 A 8 8 0 0 0 0.29296875 5.8554688 L 0.64453125 5.8554688 L 0.64453125 10.144531 L 0.30078125 10.144531 A 8 8 0 0 0 8 16 A 8 8 0 0 0 15.707031 10.144531 L 15.355469 10.144531 L 15.355469 5.8554688 L 15.699219 5.8554688 A 8 8 0 0 0 8 0 z M 5.390625 4.9199219 C 6.0099798 4.9199219 6.4836652 5.0832746 6.8105469 5.4101562 C 7.1431633 5.7313032 7.3085938 6.1825073 7.3085938 6.7617188 C 7.3085937 7.1516829 7.200343 7.5477851 6.9824219 7.9492188 C 6.7645007 8.3449176 6.5010836 8.7145077 6.1914062 9.0585938 C 5.8817289 9.4026796 5.4835489 9.8130774 4.9960938 10.289062 L 7.4121094 10.289062 L 7.3789062 10.984375 L 3.6542969 10.984375 L 3.6542969 10.693359 C 3.774727 10.567195 3.9727781 10.371221 4.2480469 10.107422 C 4.7068282 9.66011 5.0805738 9.2762251 5.3730469 8.9550781 C 5.66552 8.6339312 5.9165953 8.2868223 6.1230469 7.9140625 C 6.3352332 7.5355679 6.4414063 7.1619469 6.4414062 6.7949219 C 6.4414063 6.4336316 6.3393887 6.149811 6.1386719 5.9433594 C 5.937955 5.7369078 5.6642739 5.6347656 5.3144531 5.6347656 C 4.8614066 5.6347656 4.4081247 5.8124132 3.9550781 6.1679688 L 3.6191406 5.5566406 C 3.8542661 5.350189 4.1237917 5.1929449 4.4277344 5.0839844 C 4.7374118 4.9750238 5.0580085 4.9199219 5.390625 4.9199219 z M 10.324219 4.9199219 C 10.714183 4.9199219 11.051028 4.987241 11.332031 5.1191406 C 11.613035 5.2453055 11.825381 5.4229531 11.96875 5.6523438 C 12.112119 5.8817344 12.183594 6.1390429 12.183594 6.4257812 C 12.183594 6.9705841 11.858966 7.4503781 11.210938 7.8632812 C 11.577962 8.0353242 11.863862 8.2375309 12.070312 8.4726562 C 12.276765 8.7077818 12.380859 9.024223 12.380859 9.4199219 C 12.380859 9.7468036 12.29509 10.036734 12.123047 10.289062 C 11.956739 10.535658 11.715803 10.729678 11.400391 10.873047 C 11.090713 11.010681 10.729309 11.080078 10.316406 11.080078 C 9.6569084 11.080078 9.1546329 10.937129 8.8105469 10.650391 C 8.4664609 10.357918 8.2949219 9.9720793 8.2949219 9.4960938 C 8.2949219 9.169212 8.3990172 8.8710965 8.6054688 8.6015625 C 8.8119203 8.3320285 9.0631203 8.1053875 9.3613281 7.921875 C 9.0803246 7.7613015 8.8597922 7.569359 8.6992188 7.3457031 C 8.54438 7.1220472 8.4667969 6.8382266 8.4667969 6.4941406 C 8.4667969 6.190198 8.5504886 5.9185946 8.7167969 5.6777344 C 8.8888399 5.4368742 9.1154808 5.2510403 9.3964844 5.1191406 C 9.6832227 4.987241 9.9916021 4.9199219 10.324219 4.9199219 z M 10.324219 5.5917969 C 10.020276 5.5917969 9.7772625 5.6693801 9.59375 5.8242188 C 9.4159722 5.9790574 9.3261719 6.1852949 9.3261719 6.4433594 C 9.3261719 6.7243629 9.4241586 6.9448953 9.6191406 7.1054688 C 9.8198575 7.2603074 10.111864 7.4154738 10.496094 7.5703125 C 11.046631 7.2778394 11.322266 6.9042184 11.322266 6.4511719 C 11.322266 6.2045769 11.234418 6.0023703 11.056641 5.8417969 C 10.878863 5.6754886 10.633896 5.5917969 10.324219 5.5917969 z M 10.041016 8.2324219 C 9.4503343 8.5363645 9.1542969 8.9385753 9.1542969 9.4375 C 9.1542969 9.7127688 9.2502058 9.9435657 9.4394531 10.132812 C 9.6344352 10.316326 9.9285197 10.408203 10.324219 10.408203 C 10.708448 10.408203 10.998377 10.320356 11.193359 10.142578 C 11.394076 9.9590657 11.494141 9.7263161 11.494141 9.4453125 C 11.494141 9.2331261 11.428775 9.0554785 11.296875 8.9121094 C 11.17071 8.7687402 11.021652 8.6564586 10.849609 8.5761719 C 10.683301 8.4958851 10.413775 8.3815258 10.041016 8.2324219 z "
     id="path1090" />
  <path
     style="display:inline;fill:#808080;fill-opacity:1;stroke:none;stroke-width:0.17680639;stroke-miterlimit:4;stroke-dasharray:none;stroke-opacity:1"
     d="M 0.64453125 8 L 0.64453125 10.144531 L 0.30078125 10.144531 A 8.0000001 8.0000001 0 0 0 8 16 A 8.0000001 8.0000001 0 0 0 15.707031 10.144531 L 15.355469 10.144531 L 15.355469 8 L 11.449219 8 C 11.697503 8.1418358 11.914037 8.2946745 12.070312 8.4726562 C 12.276765 8.7077818 12.380859 9.024223 12.380859 9.4199219 C 12.380859 9.7468036 12.29509 10.036734 12.123047 10.289062 C 11.956739 10.535658 11.715803 10.729678 11.400391 10.873047 C 11.090713 11.010681 10.729309 11.080078 10.316406 11.080078 C 9.6569084 11.080078 9.1546329 10.937129 8.8105469 10.650391 C 8.4664609 10.357918 8.2949219 9.9720793 8.2949219 9.4960938 C 8.2949219 9.169212 8.3990172 8.8710965 8.6054688 8.6015625 C 8.7859181 8.3659758 9.0072643 8.1698692 9.2578125 8 L 6.9511719 8 C 6.7389718 8.3761431 6.487476 8.7296273 6.1914062 9.0585938 C 5.8817289 9.4026796 5.4835489 9.8130774 4.9960938 10.289062 L 7.4121094 10.289062 L 7.3789062 10.984375 L 3.6542969 10.984375 L 3.6542969 10.693359 C 3.774727 10.567195 3.9727781 10.371221 4.2480469 10.107422 C 4.7068282 9.66011 5.0805738 9.2762251 5.3730469 8.9550781 C 5.6421826 8.6595566 5.872065 8.3392264 6.0683594 8 L 0.64453125 8 z M 10.041016 8.2324219 C 9.4503343 8.5363645 9.1542969 8.9385753 9.1542969 9.4375 C 9.1542969 9.7127688 9.2502058 9.9435657 9.4394531 10.132812 C 9.6344352 10.316326 9.9285197 10.408203 10.324219 10.408203 C 10.708448 10.408203 10.998377 10.320356 11.193359 10.142578 C 11.394076 9.9590657 11.494141 9.7263161 11.494141 9.4453125 C 11.494141 9.2331261 11.428775 9.0554785 11.296875 8.9121094 C 11.17071 8.7687402 11.021652 8.6564586 10.849609 8.5761719 C 10.683301 8.4958851 10.413775 8.3815258 10.041016 8.2324219 z "
     id="path1090-3-6" />
</svg>
