<?xml version="1.0" encoding="UTF-8" standalone="no"?>
<svg
   xmlns:dc="http://purl.org/dc/elements/1.1/"
   xmlns:cc="http://creativecommons.org/ns#"
   xmlns:rdf="http://www.w3.org/1999/02/22-rdf-syntax-ns#"
   xmlns:svg="http://www.w3.org/2000/svg"
   xmlns="http://www.w3.org/2000/svg"
   xmlns:sodipodi="http://sodipodi.sourceforge.net/DTD/sodipodi-0.dtd"
   xmlns:inkscape="http://www.inkscape.org/namespaces/inkscape"
   height="16"
   width="16"
   version="1.1"
   id="svg4"
   sodipodi:docname="folder-saved-search-symbolic.svg"
   inkscape:version="0.92.3 (2405546, 2018-03-11)">
  <metadata
     id="metadata10">
    <rdf:RDF>
      <cc:Work
         rdf:about="">
        <dc:format>image/svg+xml</dc:format>
        <dc:type
           rdf:resource="http://purl.org/dc/dcmitype/StillImage" />
      </cc:Work>
    </rdf:RDF>
  </metadata>
  <defs
     id="defs8" />
  <sodipodi:namedview
     pagecolor="#ffffff"
     bordercolor="#666666"
     borderopacity="1"
     objecttolerance="10"
     gridtolerance="10"
     guidetolerance="10"
     inkscape:pageopacity="0"
     inkscape:pageshadow="2"
     inkscape:window-width="1920"
     inkscape:window-height="1019"
     id="namedview6"
     showgrid="false"
     inkscape:zoom="29.5"
     inkscape:cx="11.944758"
     inkscape:cy="6.1479725"
     inkscape:window-x="0"
     inkscape:window-y="27"
     inkscape:window-maximized="1"
     inkscape:current-layer="svg4" />
  <path
     style="opacity:0.5;fill:#808080;fill-opacity:1;stroke:none;stroke-width:0.94117647;stroke-miterlimit:4;stroke-dasharray:none;stroke-opacity:1"
     d="M 1.9199219 1.3066406 C 1.1165609 1.3066406 0.47070312 1.9544525 0.47070312 2.7578125 L 0.47070312 13.242188 C 0.47070312 14.045547 1.1165609 14.693359 1.9199219 14.693359 L 14.080078 14.693359 C 14.883437 14.693359 15.529297 14.045547 15.529297 13.242188 L 15.529297 4.0117188 C 15.529297 3.2083598 14.883437 2.5625 14.080078 2.5625 L 5.9082031 2.5625 L 4.6542969 1.3066406 L 1.9199219 1.3066406 z M 6.9375 4.2558594 A 3.9369475 3.9369475 0 0 1 10.875 8.1914062 A 3.9369475 3.9369475 0 0 1 10.046875 10.605469 L 10.728516 11.289062 L 10.902344 11.113281 L 13 13.210938 L 11.955078 14.255859 L 9.8574219 12.158203 L 10.033203 11.984375 L 9.3476562 11.300781 A 3.9369475 3.9369475 0 0 1 6.9375 12.128906 A 3.9369475 3.9369475 0 0 1 3 8.1914062 A 3.9369475 3.9369475 0 0 1 6.9375 4.2558594 z M 6.9375 5.7304688 A 2.4605922 2.4605922 0 0 0 4.4765625 8.1914062 A 2.4605922 2.4605922 0 0 0 6.9375 10.652344 A 2.4605922 2.4605922 0 0 0 9.3984375 8.1914062 A 2.4605922 2.4605922 0 0 0 6.9375 5.7304688 z "
     id="rect1188-36" />
  <path
     style="fill:#808080;fill-opacity:1;stroke:none;stroke-width:0.94117647;stroke-miterlimit:4;stroke-dasharray:none;stroke-opacity:1"
     d="M 6.7441406 3.8164062 L 6.2402344 4.3222656 A 3.9369475 3.9369475 0 0 1 6.9375 4.2558594 A 3.9369475 3.9369475 0 0 1 10.875 8.1914062 A 3.9369475 3.9369475 0 0 1 10.046875 10.605469 L 10.728516 11.289062 L 10.902344 11.113281 L 13 13.210938 L 11.955078 14.255859 L 9.8574219 12.158203 L 10.033203 11.984375 L 9.3476562 11.300781 A 3.9369475 3.9369475 0 0 1 6.9375 12.128906 A 3.9369475 3.9369475 0 0 1 3 8.1914062 A 3.9369475 3.9369475 0 0 1 4.5449219 5.0722656 L 1.6484375 5.0722656 C 0.9957075 5.0722656 0.47070313 5.59727 0.47070312 6.25 L 0.47070312 13.513672 C 0.47070313 14.166402 0.9957075 14.693359 1.6484375 14.693359 L 14.351562 14.693359 C 15.004291 14.693359 15.529297 14.166402 15.529297 13.513672 L 15.529297 4.9960938 C 15.529297 4.3433637 15.004292 3.8164062 14.351562 3.8164062 L 6.7441406 3.8164062 z M 6.9375 5.7304688 A 2.4605922 2.4605922 0 0 0 4.4765625 8.1914062 A 2.4605922 2.4605922 0 0 0 6.9375 10.652344 A 2.4605922 2.4605922 0 0 0 9.3984375 8.1914062 A 2.4605922 2.4605922 0 0 0 6.9375 5.7304688 z "
     id="rect1188-3-7" />
  <path
     style="display:inline;opacity:0.2;fill:#808080;fill-opacity:1;stroke:none;stroke-width:0.05943796;stroke-linecap:butt;stroke-linejoin:bevel;stroke-miterlimit:4;stroke-dasharray:none;stroke-opacity:1;paint-order:fill markers stroke"
     d="M 6.9375,5.7304688 A 2.4605922,2.4605922 0 0 0 4.4785155,8.1914058 2.4605922,2.4605922 0 0 0 6.9375,10.652343 2.4605922,2.4605922 0 0 0 9.398437,8.1914058 2.4605922,2.4605922 0 0 0 6.9375,5.7304688 Z"
     id="path1099-3-6-3"
     inkscape:connector-curvature="0" />
</svg>
