<?xml version="1.0" encoding="UTF-8" standalone="no"?>
<svg
   xmlns:dc="http://purl.org/dc/elements/1.1/"
   xmlns:cc="http://creativecommons.org/ns#"
   xmlns:rdf="http://www.w3.org/1999/02/22-rdf-syntax-ns#"
   xmlns:svg="http://www.w3.org/2000/svg"
   xmlns="http://www.w3.org/2000/svg"
   xmlns:sodipodi="http://sodipodi.sourceforge.net/DTD/sodipodi-0.dtd"
   xmlns:inkscape="http://www.inkscape.org/namespaces/inkscape"
   height="16"
   width="16"
   version="1.1"
   id="svg4"
   sodipodi:docname="folder-saved-search-symbolic.svg"
   inkscape:version="0.92.3 (2405546, 2018-03-11)">
  <metadata
     id="metadata10">
    <rdf:RDF>
      <cc:Work
         rdf:about="">
        <dc:format>image/svg+xml</dc:format>
        <dc:type
           rdf:resource="http://purl.org/dc/dcmitype/StillImage" />
      </cc:Work>
    </rdf:RDF>
  </metadata>
  <defs
     id="defs8" />
  <sodipodi:namedview
     pagecolor="#ffffff"
     bordercolor="#666666"
     borderopacity="1"
     objecttolerance="10"
     gridtolerance="10"
     guidetolerance="10"
     inkscape:pageopacity="0"
     inkscape:pageshadow="2"
     inkscape:window-width="1920"
     inkscape:window-height="1019"
     id="namedview6"
     showgrid="false"
     inkscape:zoom="29.5"
     inkscape:cx="12.641642"
     inkscape:cy="5.1063566"
     inkscape:window-x="0"
     inkscape:window-y="27"
     inkscape:window-maximized="1"
     inkscape:current-layer="svg4" />
  <g
     id="g829"
     transform="translate(-27.389831,9.2881358)">
    <path
       sodipodi:nodetypes="sccssssssss"
       inkscape:connector-curvature="0"
       id="rect1188"
       d="m 29.310528,-7.9809469 h 2.732897 l 1.254902,1.254902 h 8.170807 c 0.803359,0 1.450109,0.646722 1.450109,1.450081 v 9.2305302 c 0,0.80336 -0.64675,1.450109 -1.450109,1.450109 H 29.310528 c -0.803361,0 -1.450109,-0.646749 -1.450109,-1.450109 V -6.5308379 c 0,-0.80336 0.646748,-1.450109 1.450109,-1.450109 z"
       style="fill:none;fill-opacity:1;stroke:#808080;stroke-width:0.94117647;stroke-miterlimit:4;stroke-dasharray:none;stroke-opacity:1" />
    <path
       sodipodi:nodetypes="sccssssssss"
       inkscape:connector-curvature="0"
       id="rect1188-3"
       d="m 29.038632,-4.2162399 h 3.841395 l 1.254902,-1.254902 h 7.606101 c 0.652729,0 1.178213,0.525483 1.178213,1.178213 v 8.5193902 c 0,0.65273 -0.525484,1.178214 -1.178213,1.178214 H 29.038632 c -0.65273,0 -1.178213,-0.525484 -1.178213,-1.178214 v -7.2645162 c 0,-0.65273 0.525483,-1.178185 1.178213,-1.178185 z"
       style="fill:none;fill-opacity:1;stroke:#808080;stroke-width:0.94117647;stroke-miterlimit:4;stroke-dasharray:none;stroke-opacity:1" />
  </g>
  <path
     style="fill:#808080;fill-opacity:1;stroke:none;stroke-width:0.06901703;stroke-linecap:butt;stroke-linejoin:bevel;stroke-miterlimit:4;stroke-dasharray:none;stroke-opacity:1;paint-order:fill markers stroke"
     d="M 7.0165641,3 A 4.0165676,4.0165676 0 0 0 2.9999965,7.0165676 4.0165676,4.0165676 0 0 0 7.0165641,11.033135 4.0165676,4.0165676 0 0 0 11.033132,7.0165676 4.0165676,4.0165676 0 0 0 7.0165641,3 Z m 0,0.5020709 A 3.5144967,3.5144967 0 0 1 10.531061,7.0165676 3.5144967,3.5144967 0 0 1 7.0165641,10.531064 3.5144967,3.5144967 0 0 1 3.5020675,7.0165676 3.5144967,3.5144967 0 0 1 7.0165641,3.5020709 Z"
     id="path1099"
     inkscape:connector-curvature="0" />
  <circle
     style="display:inline;fill:#ffffff;fill-opacity:0.39215686;stroke:none;stroke-width:0.0603899;stroke-linecap:butt;stroke-linejoin:bevel;stroke-miterlimit:4;stroke-dasharray:none;stroke-opacity:1;paint-order:fill markers stroke"
     id="path1099-3-6"
     cx="7.0165644"
     cy="7.0165677"
     r="3.5144966" />
  <g
     id="g1151"
     transform="matrix(-0.07100355,-0.07100355,0.07100355,-0.07100355,-2.4432696,11.40242)"
     style="fill:#808080;fill-opacity:1">
    <rect
       ry="0"
       y="92.5"
       x="-115"
       height="10"
       width="30"
       id="rect1132"
       style="fill:#808080;fill-opacity:1;stroke:none;stroke-width:0.60001528;stroke-linecap:butt;stroke-linejoin:bevel;stroke-miterlimit:4;stroke-dasharray:none;stroke-opacity:1;paint-order:fill markers stroke" />
    <rect
       ry="0"
       y="95"
       x="-85"
       height="5"
       width="10"
       id="rect1132-7"
       style="display:inline;fill:#808080;fill-opacity:1;stroke:none;stroke-width:0.24495521;stroke-linecap:butt;stroke-linejoin:bevel;stroke-miterlimit:4;stroke-dasharray:none;stroke-opacity:1;paint-order:fill markers stroke" />
  </g>
</svg>
