<?xml version="1.0" encoding="UTF-8" standalone="no"?>
<svg
   xmlns:dc="http://purl.org/dc/elements/1.1/"
   xmlns:cc="http://creativecommons.org/ns#"
   xmlns:rdf="http://www.w3.org/1999/02/22-rdf-syntax-ns#"
   xmlns:svg="http://www.w3.org/2000/svg"
   xmlns="http://www.w3.org/2000/svg"
   xmlns:sodipodi="http://sodipodi.sourceforge.net/DTD/sodipodi-0.dtd"
   xmlns:inkscape="http://www.inkscape.org/namespaces/inkscape"
   height="16"
   width="16"
   version="1.1"
   id="svg4"
   sodipodi:docname="preferences-desktop-online-accounts-symbolic.svg"
   inkscape:version="0.92.3 (2405546, 2018-03-11)">
  <metadata
     id="metadata10">
    <rdf:RDF>
      <cc:Work
         rdf:about="">
        <dc:format>image/svg+xml</dc:format>
        <dc:type
           rdf:resource="http://purl.org/dc/dcmitype/StillImage" />
      </cc:Work>
    </rdf:RDF>
  </metadata>
  <defs
     id="defs8" />
  <sodipodi:namedview
     pagecolor="#ffffff"
     bordercolor="#666666"
     borderopacity="1"
     objecttolerance="10"
     gridtolerance="10"
     guidetolerance="10"
     inkscape:pageopacity="0"
     inkscape:pageshadow="2"
     inkscape:window-width="1920"
     inkscape:window-height="1539"
     id="namedview6"
     showgrid="false"
     inkscape:zoom="9.6171875"
     inkscape:cx="-22.754485"
     inkscape:cy="7.8954943"
     inkscape:window-x="1920"
     inkscape:window-y="27"
     inkscape:window-maximized="0"
     inkscape:current-layer="svg4" />
  <path
     d="m 9.1145763,-19.281152 c -2.158,0.002 -3.992,1.331 -4.869,3.232 l -0.06,0.13 -0.14,0.01 c -1.993,0.145 -3.57100003,1.87 -3.57100003,3.968 0,2.1929996 1.71600003,3.9919996 3.83700003,3.9919996 h 9.2849997 c 1.592,0 2.878,-1.35 2.878,-2.9879996 a 2.958,2.958 0 0 0 -1.805,-2.734 l -0.137,-0.059 -0.01,-0.148 c -0.135,-2.994 -2.487,-5.4 -5.4039997,-5.403 z m 0,1 c 2.3679997,0.002 4.2919997,1.952 4.4049997,4.447 v 0.01 l 0.05,0.776 0.704,0.296 a 1.944,1.944 0 0 1 1.195,1.815 c 0.01,1.1139996 -0.846,1.9879996 -1.87,1.9879996 H 4.3115763 c -1.556,0 -2.838,-1.3199996 -2.838,-2.9919996 0,-1.597 1.185,-2.866 2.645,-2.973 l 0.722,-0.05 0.31,-0.663 v -0.004 c 0.73,-1.58 2.214,-2.648 3.962,-2.65 z"
     font-weight="400"
     overflow="visible"
     style="color:#000000;font-weight:400;line-height:normal;font-family:sans-serif;-inkscape-font-specification:sans-serif;text-indent:0;text-align:start;text-decoration:none;text-decoration-line:none;text-transform:none;overflow:visible;fill:#808080;marker:none"
     id="path2"
     inkscape:connector-curvature="0" />
  <path
     style="opacity:1;fill:#808080;fill-opacity:1;stroke:none;stroke-width:0.67503119;stroke-opacity:0.94117647"
     d="m -9.9674354,-21.737416 a 4.7845037,3.0992739 0 0 0 -4.7851556,3.09961 4.7845037,3.0992739 0 0 0 0.06055,0.470703 4.7845037,3.0992739 0 0 0 -1.6875,2.357422 4.7845037,3.0992739 0 0 0 4.783203,3.099609 4.7845037,3.0992739 0 0 0 3.2167961,-0.810547 4.7845037,3.0992739 0 0 0 3.2148439,0.810547 4.7845037,3.0992739 0 0 0 4.78515605,-3.099609 4.7845037,3.0992739 0 0 0 -2.37304705,-2.673828 2.6537532,1.9951575 0 0 0 0.320312,-0.949219 2.6537532,1.9951575 0 0 0 -2.654297,-1.994141 2.6537532,1.9951575 0 0 0 -1.7109369,0.470704 4.7845037,3.0992739 0 0 0 -3.1699215,-0.781251 z m 0.197266,0.564454 a 4.1864407,2.7118646 0 0 1 2.7753895,0.683593 2.322034,1.7457628 0 0 1 1.4960939,-0.412109 2.322034,1.7457628 0 0 1 2.322266,1.746094 2.322034,1.7457628 0 0 1 -0.28125,0.830078 4.1864407,2.7118646 0 0 1 2.078125,2.337891 4.1864407,2.7118646 0 0 1 -4.1875,2.71289 4.1864407,2.7118646 0 0 1 -2.8124999,-0.708985 4.1864407,2.7118646 0 0 1 -2.8144521,0.708985 4.1864407,2.7118646 0 0 1 -4.185547,-2.71289 4.1864407,2.7118646 0 0 1 1.474609,-2.0625 4.1864407,2.7118646 0 0 1 -0.05078,-0.41211 4.1864407,2.7118646 0 0 1 4.1855456,-2.710937 z"
     id="ellipse831"
     inkscape:connector-curvature="0" />
  <ellipse
     style="opacity:1;fill:#808080;fill-opacity:1;stroke:none;stroke-opacity:0.94117647"
     id="path874-3"
     cx="-20.677965"
     cy="-10.237288"
     rx="4.3050847"
     ry="2.2372882" />
  <ellipse
     ry="2.2372882"
     rx="4.3050847"
     cy="-10.237288"
     cx="-24.915255"
     id="ellipse893"
     style="opacity:1;fill:#808080;fill-opacity:1;stroke:none;stroke-opacity:0.94117647" />
  <ellipse
     ry="2.2372882"
     rx="4.3050847"
     cy="-12.949153"
     cx="-27.322033"
     id="ellipse895"
     style="opacity:1;fill:#808080;fill-opacity:1;stroke:none;stroke-opacity:0.94117647" />
  <ellipse
     style="opacity:1;fill:#808080;fill-opacity:1;stroke:none;stroke-opacity:0.94117647"
     id="ellipse897"
     cx="-21.923611"
     cy="-13.455711"
     rx="4.3050847"
     ry="2.2372882" />
  <ellipse
     ry="2.2372882"
     rx="4.3050847"
     cy="-15.661017"
     cx="-25.423729"
     id="ellipse899"
     style="opacity:1;fill:#808080;fill-opacity:1;stroke:none;stroke-opacity:0.94117647" />
  <circle
     style="opacity:1;fill:#808080;fill-opacity:1;stroke:none;stroke-width:0.80554199;stroke-opacity:0.94117647"
     id="circle903"
     cx="-26.646851"
     cy="2.6036642"
     r="2.5" />
  <circle
     r="2.5"
     cy="-0.17822409"
     cx="-28.812021"
     id="circle905"
     style="opacity:1;fill:#808080;fill-opacity:1;stroke:none;stroke-width:0.80554199;stroke-opacity:0.94117647" />
  <circle
     style="opacity:1;fill:#808080;fill-opacity:1;stroke:none;stroke-width:0.80554199;stroke-opacity:0.94117647"
     id="circle907"
     cx="-25.889387"
     cy="0.96141839"
     r="2.5" />
  <path
     style="opacity:1;fill:#808080;fill-opacity:1;stroke:none;stroke-width:1.48173964;stroke-opacity:0.94117647"
     d="m -11.240187,-11.735808 a 3.9031826,3.9031826 0 0 0 -3.903182,3.903183 3.9031826,3.9031826 0 0 0 0.262244,1.405756 3.9031826,3.9031826 0 0 0 -1.396607,2.204688 c -0.147197,0.345921 -0.228702,0.7273836 -0.228702,1.1282636 v 0.801982 c 0,1.58988501 1.279563,2.86945001 2.869448,2.86945001 h 4.6655248 a 3.9031826,3.9031826 0 0 0 0.429959,0.02745 3.9031826,3.9031826 0 0 0 0.405565,-0.02745 h 4.372784 c 1.237742,0 2.279078,-0.778501 2.683438,-1.87230801 a 3.9031826,3.9031826 0 0 0 0.57328104,-2.033926 3.9031826,3.9031826 0 0 0 -2.36935504,-3.5890966 3.9031826,3.9031826 0 0 0 -3.7995032,-3.0402141 3.9031826,3.9031826 0 0 0 -1.1801038,0.1890603 3.9031826,3.9031826 0 0 0 -3.3847908,-1.9668382 z m 0.600724,1.353917 a 3.046849,3.046849 0 0 1 2.6407468,1.5338284 3.046849,3.046849 0 0 1 0.920907,-0.1463693 3.046849,3.046849 0 0 1 2.970079,2.3754529 3.046849,3.046849 0 0 1 1.847913,2.799313 3.046849,3.046849 0 0 1 -0.445206,1.5765206 c -0.312706,0.859524 -1.127702,1.47284101 -2.097961,1.47284101 h -3.415285 a 3.046849,3.046849 0 0 1 -0.314084,0.02134 3.046849,3.046849 0 0 1 -0.344579,-0.02134 H -12.51177 c -1.241073,0 -2.238232,-0.99715701 -2.238232,-2.23823001 V -3.636703 c 0,-0.316661 0.06545,-0.617833 0.182961,-0.890414 a 3.046849,3.046849 0 0 1 1.085574,-1.713741 3.046849,3.046849 0 0 1 -0.204309,-1.094721 3.046849,3.046849 0 0 1 3.046313,-3.046312 z"
     id="rect929"
     inkscape:connector-curvature="0" />
  <circle
     style="opacity:1;fill:#808080;fill-opacity:1;stroke:none;stroke-width:0.69300932;stroke-opacity:0.94117647"
     id="path874"
     cx="-35.44854"
     cy="9.4338894"
     r="2.1507547" />
  <ellipse
     cy="9.3552284"
     cx="-33.081806"
     id="circle901"
     style="opacity:1;fill:#808080;fill-opacity:1;stroke:none;stroke-width:0.86809736;stroke-opacity:0.94117647"
     rx="2.7021945"
     ry="2.6861107" />
  <rect
     style="opacity:1;fill:#808080;fill-opacity:1;stroke:none;stroke-width:0.74121469;stroke-opacity:0.94117647"
     id="rect909"
     width="10"
     height="2.5563114"
     x="-39.526711"
     y="10.027359"
     ry="1.1211892" />
  <rect
     ry="1.1211892"
     y="9.0203047"
     x="-38.854534"
     height="2.5563114"
     width="7.279563"
     id="rect955"
     style="opacity:1;fill:#808080;fill-opacity:1;stroke:none;stroke-width:0.63240701;stroke-opacity:0.94117647" />
  <circle
     r="2.1507547"
     cy="9.4338894"
     cx="-35.44854"
     id="circle957"
     style="opacity:1;fill:#808080;fill-opacity:1;stroke:none;stroke-width:0.69300932;stroke-opacity:0.94117647" />
  <ellipse
     ry="2.6861107"
     rx="2.7021945"
     style="opacity:1;fill:#808080;fill-opacity:1;stroke:none;stroke-width:0.86809736;stroke-opacity:0.94117647"
     id="ellipse959"
     cx="-33.081806"
     cy="9.3552284" />
  <rect
     ry="1.1211892"
     y="10.027359"
     x="-39.526711"
     height="2.5563114"
     width="10"
     id="rect961"
     style="opacity:1;fill:#808080;fill-opacity:1;stroke:none;stroke-width:0.74121469;stroke-opacity:0.94117647" />
  <rect
     style="opacity:1;fill:#808080;fill-opacity:1;stroke:none;stroke-width:0.63240701;stroke-opacity:0.94117647"
     id="rect963"
     width="7.279563"
     height="2.5563114"
     x="-38.854534"
     y="9.0203047"
     ry="1.1211892" />
  <path
     style="opacity:1;fill:#808080;fill-opacity:1;stroke:none;stroke-width:1.10881495;stroke-opacity:0.94117647"
     d="M 10.312474,3.2671874 A 4.3235112,4.2977771 0 0 0 7.421849,4.3734374 3.4412075,3.4412075 0 0 0 6.524975,4.2515624 3.4412075,3.4412075 0 0 0 3.1531,7.0078126 3.4412075,3.4412075 0 0 0 3.15,7.0296876 H 2.868749 c -0.982733,0 -1.769917,0.7841168 -1.787499,1.7624991 C 0.444778,9.0672097 0,9.6962187 0,10.435938 v 0.503125 c 0,0.99382 0.799926,1.79375 1.793749,1.79375 H 14.20625 c 0.993822,0 1.79375,-0.79993 1.79375,-1.79375 V 10.435938 C 16,9.5385106 15.336462,8.8303137 14.478125,8.6953117 A 4.3235112,4.2977771 0 0 0 14.634349,7.567187 4.3235112,4.2977771 0 0 0 10.312474,3.2671874 Z m -0.231249,0.475 a 3.89116,3.8679992 0 0 1 3.890624,3.86875 3.89116,3.8679992 0 0 1 -0.140624,1.0156253 c 0.772504,0.121501 1.36875,0.75794 1.36875,1.5656243 v 0.453125 c 0,0.89444 -0.718059,1.615626 -1.612501,1.615626 H 2.415599 c -0.894442,0 -1.615624,-0.721186 -1.615624,-1.615626 v -0.453125 c 0,-0.6657473 0.402174,-1.2306043 0.975,-1.4781243 0.01582,-0.8805444 0.72179,-1.5874996 1.60625,-1.5874996 h 0.253124 a 3.0970867,3.0970867 0 0 1 0.0031,-0.01875 3.0970867,3.0970867 0 0 1 3.034375,-2.4812502 3.0970867,3.0970867 0 0 1 0.809376,0.109375 3.89116,3.8679992 0 0 1 2.6,-0.9937501 z"
     id="circle981"
     inkscape:connector-curvature="0" />
</svg>
