<?xml version="1.0" encoding="UTF-8" standalone="no"?>
<svg
   xmlns:dc="http://purl.org/dc/elements/1.1/"
   xmlns:cc="http://creativecommons.org/ns#"
   xmlns:rdf="http://www.w3.org/1999/02/22-rdf-syntax-ns#"
   xmlns:svg="http://www.w3.org/2000/svg"
   xmlns="http://www.w3.org/2000/svg"
   xmlns:sodipodi="http://sodipodi.sourceforge.net/DTD/sodipodi-0.dtd"
   xmlns:inkscape="http://www.inkscape.org/namespaces/inkscape"
   height="16"
   width="16"
   version="1.1"
   id="svg8"
   sodipodi:docname="audio-card-symbolic.svg"
   inkscape:version="0.92.3 (2405546, 2018-03-11)">
  <metadata
     id="metadata14">
    <rdf:RDF>
      <cc:Work
         rdf:about="">
        <dc:format>image/svg+xml</dc:format>
        <dc:type
           rdf:resource="http://purl.org/dc/dcmitype/StillImage" />
        <dc:title />
      </cc:Work>
    </rdf:RDF>
  </metadata>
  <defs
     id="defs12" />
  <sodipodi:namedview
     pagecolor="#ffffff"
     bordercolor="#666666"
     borderopacity="1"
     objecttolerance="10"
     gridtolerance="10"
     guidetolerance="10"
     inkscape:pageopacity="0"
     inkscape:pageshadow="2"
     inkscape:window-width="960"
     inkscape:window-height="1019"
     id="namedview10"
     showgrid="false"
     inkscape:zoom="10.429825"
     inkscape:cx="3.1824786"
     inkscape:cy="5.6171399"
     inkscape:window-x="960"
     inkscape:window-y="27"
     inkscape:window-maximized="0"
     inkscape:current-layer="svg8" />
  <path
     style="opacity:1;fill:#808080;fill-opacity:1;stroke:none;stroke-width:0.4068113;stroke-opacity:0.94117647"
     d="M 4.3808594 0.5 C 2.2317074 0.5 0.5 2.2297543 0.5 4.3789062 L 0.5 11.621094 C 0.5 13.770246 2.2317074 15.5 4.3808594 15.5 L 11.621094 15.5 C 13.770246 15.5 15.5 13.770246 15.5 11.621094 L 15.5 4.3789062 C 15.5 2.2297543 13.770246 0.5 11.621094 0.5 L 4.3808594 0.5 z M 12.513672 2 C 12.710322 1.99982 12.853976 2.1111312 12.910156 2.3046875 C 12.929622 2.3721185 12.934788 3.6065658 12.929688 7.2226562 L 12.929688 11.175781 C 12.929688 11.265043 12.900391 11.486328 12.900391 11.486328 C 12.750763 12.299742 12.041903 12.891903 11.214844 12.892578 C 10.267548 12.892578 9.5 12.123073 9.5 11.175781 C 9.5 10.228492 10.267556 9.4609375 11.214844 9.4609375 C 11.226684 9.4613375 11.23817 9.4622166 11.25 9.4628906 L 11.25 9.4609375 L 12.185547 9.4609375 L 12.185547 7.6015625 C 12.179717 5.4549612 12.177712 5.3369387 12.138672 5.2773438 C 12.08077 5.1889927 11.959563 5.1438844 11.832031 5.1621094 C 11.696554 5.1814677 6.8799231 6.155145 6.7597656 6.1875 C 6.6262281 6.2234588 6.5290969 6.3298227 6.4980469 6.4746094 L 6.4980469 10.570312 L 6.4980469 11.931641 C 6.4887469 11.975561 6.4980469 12.285156 6.4980469 12.285156 C 6.4980469 13.232446 5.7304981 14.000001 4.7832031 14 C 3.8359155 14.000001 3.0683594 13.232446 3.0683594 12.285156 C 3.0683594 11.337865 3.8359155 10.570312 4.7832031 10.570312 C 4.7951281 10.570712 4.8083875 10.571592 4.8203125 10.572266 L 4.8203125 10.570312 L 5.7304688 10.570312 L 5.7304688 4.8457031 L 5.7382812 4.8457031 L 5.7421875 3.6777344 L 5.7949219 3.5703125 C 5.8570669 3.444128 5.9869906 3.3253926 6.1191406 3.2753906 C 6.2045356 3.2430776 11.208004 2.2225247 12.056641 2.0644531 C 12.248545 2.0287071 12.454362 2.0000562 12.513672 2 z "
     id="rect845" />
</svg>
