<?xml version="1.0" encoding="UTF-8" standalone="no"?>
<svg
   xmlns:dc="http://purl.org/dc/elements/1.1/"
   xmlns:cc="http://creativecommons.org/ns#"
   xmlns:rdf="http://www.w3.org/1999/02/22-rdf-syntax-ns#"
   xmlns:svg="http://www.w3.org/2000/svg"
   xmlns="http://www.w3.org/2000/svg"
   xmlns:sodipodi="http://sodipodi.sourceforge.net/DTD/sodipodi-0.dtd"
   xmlns:inkscape="http://www.inkscape.org/namespaces/inkscape"
   height="16"
   width="16"
   version="1.1"
   id="svg8"
   sodipodi:docname="audio-card-symbolic.svg"
   inkscape:version="0.92.3 (2405546, 2018-03-11)">
  <metadata
     id="metadata14">
    <rdf:RDF>
      <cc:Work
         rdf:about="">
        <dc:format>image/svg+xml</dc:format>
        <dc:type
           rdf:resource="http://purl.org/dc/dcmitype/StillImage" />
        <dc:title></dc:title>
      </cc:Work>
    </rdf:RDF>
  </metadata>
  <defs
     id="defs12" />
  <sodipodi:namedview
     pagecolor="#ffffff"
     bordercolor="#666666"
     borderopacity="1"
     objecttolerance="10"
     gridtolerance="10"
     guidetolerance="10"
     inkscape:pageopacity="0"
     inkscape:pageshadow="2"
     inkscape:window-width="1920"
     inkscape:window-height="1539"
     id="namedview10"
     showgrid="false"
     inkscape:zoom="14.75"
     inkscape:cx="-0.0039621138"
     inkscape:cy="5.6171399"
     inkscape:window-x="1920"
     inkscape:window-y="27"
     inkscape:window-maximized="0"
     inkscape:current-layer="svg8" />
  <path
     style="opacity:1;fill:#808080;fill-opacity:1;stroke:none;stroke-width:0.4068113;stroke-opacity:0.94117647"
     d="m 4.3808591,0.49999985 c -2.149152,0 -3.88085895,1.72975405 -3.88085895,3.87890605 V 11.621094 C 0.50000015,13.770246 2.2317071,15.5 4.3808591,15.5 H 11.621094 C 13.770246,15.5 15.5,13.770246 15.5,11.621094 V 4.3789059 c 0,-2.149152 -1.729754,-3.87890605 -3.878906,-3.87890605 z m 8.3007809,1.50000005 -0.002,1.265625 v 4.986328 1.341797 0.347656 a 1.6884755,1.6884755 0 0 1 -1.6875,1.6875001 1.6884755,1.6884755 0 0 1 -1.6894529,-1.6875001 1.6884755,1.6884755 0 0 1 1.6894529,-1.689453 1.6884755,1.6884755 0 0 1 0.03516,0.002 v -0.002 h 0.808593 v -3.375 l -5.1386719,2.103516 v 3.6425781 1.341797 0.347656 a 1.6884755,1.6884755 0 0 1 -1.6875,1.6875 1.6884755,1.6884755 0 0 1 -1.689453,-1.6875 1.6884755,1.6884755 0 0 1 1.689453,-1.689453 1.6884755,1.6884755 0 0 1 0.03516,0.002 v -0.002 h 0.808593 V 7.3261719 4.7929689 Z"
     id="rect845"
     inkscape:connector-curvature="0" />
</svg>
