<?xml version="1.0" encoding="UTF-8" standalone="no"?>
<svg
   xmlns:dc="http://purl.org/dc/elements/1.1/"
   xmlns:cc="http://creativecommons.org/ns#"
   xmlns:rdf="http://www.w3.org/1999/02/22-rdf-syntax-ns#"
   xmlns:svg="http://www.w3.org/2000/svg"
   xmlns="http://www.w3.org/2000/svg"
   xmlns:sodipodi="http://sodipodi.sourceforge.net/DTD/sodipodi-0.dtd"
   xmlns:inkscape="http://www.inkscape.org/namespaces/inkscape"
   height="16"
   width="16"
   version="1.1"
   id="svg4"
   sodipodi:docname="drive-removable-media-symbolic.svg"
   inkscape:version="0.92.3 (2405546, 2018-03-11)">
  <metadata
     id="metadata10">
    <rdf:RDF>
      <cc:Work
         rdf:about="">
        <dc:format>image/svg+xml</dc:format>
        <dc:type
           rdf:resource="http://purl.org/dc/dcmitype/StillImage" />
        <dc:title></dc:title>
      </cc:Work>
    </rdf:RDF>
  </metadata>
  <defs
     id="defs8" />
  <sodipodi:namedview
     pagecolor="#ffffff"
     bordercolor="#666666"
     borderopacity="1"
     objecttolerance="10"
     gridtolerance="10"
     guidetolerance="10"
     inkscape:pageopacity="0"
     inkscape:pageshadow="2"
     inkscape:window-width="1920"
     inkscape:window-height="1539"
     id="namedview6"
     showgrid="false"
     inkscape:zoom="14.75"
     inkscape:cx="2.3389831"
     inkscape:cy="8"
     inkscape:window-x="1920"
     inkscape:window-y="27"
     inkscape:window-maximized="0"
     inkscape:current-layer="svg4" />
  <path
     inkscape:connector-curvature="0"
     style="opacity:1;fill:#808080;fill-opacity:1;stroke:none;stroke-width:0.52956271;stroke-opacity:0.94117647"
     d="m 4.1513671,0.9999999 c -1.018797,0 -1.838867,0.82007 -1.838867,1.838867 V 13.161132 C 2.3125001,14.179929 3.1325701,15 4.1513671,15 H 11.848632 C 12.867429,15 13.6875,14.179929 13.6875,13.161132 V 2.8388669 c 0,-1.018797 -0.820071,-1.838867 -1.838868,-1.838867 z m 0.322998,0.4375 h 7.0512699 c 0.955121,0 1.724365,0.767534 1.724365,1.722656 v 9.6779781 c 0,0.955122 -0.769244,1.724366 -1.724365,1.724366 H 4.4743651 c -0.955122,0 -1.724365,-0.769244 -1.724365,-1.724366 V 3.1601559 c 0,-0.955122 0.769243,-1.722656 1.724365,-1.722656 z"
     id="rect881-6" />
  <rect
     style="opacity:1;fill:#808080;fill-opacity:1;stroke:none;stroke-width:0.31790897;stroke-opacity:0.94117647"
     id="rect847"
     width="10.945791"
     height="0.85198104"
     x="2.4588649"
     y="11.268795" />
  <rect
     y="12.76032"
     x="4"
     height="0.85198104"
     width="8"
     id="rect843"
     style="opacity:1;fill:#808080;fill-opacity:1;stroke:none;stroke-width:0.27178419;stroke-opacity:0.94117647" />
</svg>
