<?xml version="1.0" encoding="UTF-8" standalone="no"?>
<svg
   xmlns:dc="http://purl.org/dc/elements/1.1/"
   xmlns:cc="http://creativecommons.org/ns#"
   xmlns:rdf="http://www.w3.org/1999/02/22-rdf-syntax-ns#"
   xmlns:svg="http://www.w3.org/2000/svg"
   xmlns="http://www.w3.org/2000/svg"
   xmlns:sodipodi="http://sodipodi.sourceforge.net/DTD/sodipodi-0.dtd"
   xmlns:inkscape="http://www.inkscape.org/namespaces/inkscape"
   height="16"
   width="16"
   version="1.1"
   id="svg4"
   sodipodi:docname="drive-removable-media-symbolic.svg"
   inkscape:version="0.92.3 (2405546, 2018-03-11)">
  <metadata
     id="metadata10">
    <rdf:RDF>
      <cc:Work
         rdf:about="">
        <dc:format>image/svg+xml</dc:format>
        <dc:type
           rdf:resource="http://purl.org/dc/dcmitype/StillImage" />
        <dc:title></dc:title>
      </cc:Work>
    </rdf:RDF>
  </metadata>
  <defs
     id="defs8" />
  <sodipodi:namedview
     pagecolor="#ffffff"
     bordercolor="#666666"
     borderopacity="1"
     objecttolerance="10"
     gridtolerance="10"
     guidetolerance="10"
     inkscape:pageopacity="0"
     inkscape:pageshadow="2"
     inkscape:window-width="960"
     inkscape:window-height="1019"
     id="namedview6"
     showgrid="false"
     inkscape:zoom="41.7193"
     inkscape:cx="7.8492034"
     inkscape:cy="10.719835"
     inkscape:window-x="960"
     inkscape:window-y="27"
     inkscape:window-maximized="0"
     inkscape:current-layer="svg4"
     inkscape:pagecheckerboard="true" />
  <path
     style="fill:#808080;fill-opacity:1;stroke-width:0.06388468"
     d="M 7.9394531 0.00390625 L 7.9394531 0.375 L 7.53125 0.375 L 7.53125 1.0957031 L 7.9394531 1.0957031 L 7.9394531 1.1035156 L 7.9394531 1.2773438 L 7.53125 1.2773438 L 7.53125 2 L 7.9394531 2 L 7.9394531 2.0019531 L 7.9394531 2.1757812 L 7.53125 2.1757812 L 7.53125 2.8984375 L 7.9394531 2.8984375 L 7.9394531 2.90625 L 7.9394531 3.0800781 L 7.53125 3.0800781 L 7.53125 3.8007812 L 7.9394531 3.8007812 L 7.9394531 4.0878906 L 8.1328125 4.0878906 L 8.1328125 3.609375 L 7.7246094 3.609375 L 7.7246094 3.2695312 L 8.1328125 3.2695312 L 8.1328125 3.1933594 L 8.1328125 2.90625 L 8.1328125 2.7128906 L 7.7246094 2.7128906 L 7.7246094 2.3691406 L 8.1328125 2.3691406 L 8.1328125 2.2929688 L 8.1328125 2.0019531 L 8.1328125 1.8066406 L 7.7246094 1.8066406 L 7.7246094 1.4667969 L 8.1328125 1.4667969 L 8.1328125 1.390625 L 8.1328125 1.1035156 L 8.1328125 0.90625 L 7.7246094 0.90625 L 7.7246094 0.56640625 L 8.1328125 0.56640625 L 8.1328125 0.00390625 L 7.9394531 0.00390625 z M 10.169922 0.00390625 L 10.169922 4.0917969 L 9.6699219 4.0917969 L 6.3183594 4.0917969 L 6.3105469 4.0917969 L 5.8203125 4.0917969 L 4.9121094 4.0917969 C 4.7076785 4.0917969 4.5507812 4.257036 4.5507812 4.4550781 L 4.5507812 12.791016 C 4.563547 14.330637 5.612482 15.629469 7.0371094 16 L 8.9785156 15.992188 C 10.403144 15.621657 11.449219 14.322824 11.449219 12.783203 L 11.449219 4.4550781 C 11.449219 4.2506472 11.282025 4.0917969 11.083984 4.0917969 L 10.175781 4.0917969 L 10.175781 0.00390625 L 10.169922 0.00390625 z M 8.0078125 7.5273438 L 8.4082031 8.1855469 L 8.109375 8.1855469 L 8.109375 10.070312 L 8.5292969 9.8105469 C 8.6123463 9.7530525 8.6660156 9.6602784 8.6660156 9.5644531 L 8.6660156 9.0058594 L 8.4980469 9.0058594 L 8.4980469 8.4726562 L 9.0273438 8.4726562 L 9.0273438 9.0058594 L 8.8613281 9.0058594 L 8.8613281 9.5644531 C 8.8613281 9.7305528 8.771405 9.8871236 8.6308594 9.9765625 L 8.109375 10.300781 L 8.109375 11.359375 C 8.3457482 11.410485 8.5253906 11.616084 8.5253906 11.865234 C 8.5253906 12.146328 8.2928104 12.376953 8.0117188 12.376953 C 7.7306261 12.376953 7.5019531 12.146328 7.5019531 11.865234 C 7.5019531 11.616084 7.6796424 11.404094 7.9160156 11.359375 L 7.9160156 10.837891 L 7.390625 10.513672 C 7.2436917 10.424233 7.1601563 10.267663 7.1601562 10.101562 L 7.1601562 9.6289062 C 7.0579405 9.5841869 6.9839991 9.4827084 6.9648438 9.3613281 C 6.9648438 9.2080043 7.0908178 9.0800781 7.2441406 9.0800781 C 7.3974634 9.0800781 7.5273438 9.2080053 7.5273438 9.3613281 C 7.5273438 9.4827084 7.4479192 9.586669 7.3457031 9.625 L 7.3457031 10.097656 C 7.3457031 10.199872 7.399373 10.288738 7.4824219 10.339844 L 7.90625 10.599609 L 7.90625 8.1855469 L 7.6035156 8.1855469 L 8.0078125 7.5273438 z "
     id="path66" />
  <rect
     style="opacity:0.8;fill:#808080;fill-opacity:1;fill-rule:nonzero;stroke:none;stroke-width:0.11140276;stroke-linecap:butt;stroke-linejoin:bevel;stroke-miterlimit:4;stroke-dasharray:none;stroke-opacity:1;paint-order:fill markers stroke"
     id="rect5160-7"
     width="4.3571124"
     height="4.0888047"
     x="5.8195548"
     y="0.0037788399" />
</svg>
