<?xml version="1.0" encoding="UTF-8" standalone="no"?>
<svg
   xmlns:dc="http://purl.org/dc/elements/1.1/"
   xmlns:cc="http://creativecommons.org/ns#"
   xmlns:rdf="http://www.w3.org/1999/02/22-rdf-syntax-ns#"
   xmlns:svg="http://www.w3.org/2000/svg"
   xmlns="http://www.w3.org/2000/svg"
   xmlns:sodipodi="http://sodipodi.sourceforge.net/DTD/sodipodi-0.dtd"
   xmlns:inkscape="http://www.inkscape.org/namespaces/inkscape"
   height="16"
   width="16"
   version="1.1"
   id="svg4"
   sodipodi:docname="input-gaming-symbolic.svg"
   inkscape:version="0.92.3 (2405546, 2018-03-11)">
  <metadata
     id="metadata10">
    <rdf:RDF>
      <cc:Work
         rdf:about="">
        <dc:format>image/svg+xml</dc:format>
        <dc:type
           rdf:resource="http://purl.org/dc/dcmitype/StillImage" />
        <dc:title></dc:title>
      </cc:Work>
    </rdf:RDF>
  </metadata>
  <defs
     id="defs8" />
  <sodipodi:namedview
     pagecolor="#ffffff"
     bordercolor="#666666"
     borderopacity="1"
     objecttolerance="10"
     gridtolerance="10"
     guidetolerance="10"
     inkscape:pageopacity="0"
     inkscape:pageshadow="2"
     inkscape:window-width="1920"
     inkscape:window-height="1019"
     id="namedview6"
     showgrid="false"
     inkscape:zoom="64"
     inkscape:cx="8.8772443"
     inkscape:cy="9.8496583"
     inkscape:window-x="0"
     inkscape:window-y="27"
     inkscape:window-maximized="1"
     inkscape:current-layer="svg4"
     inkscape:pagecheckerboard="true" />
  <g
     inkscape:groupmode="layer"
     id="layer2"
     inkscape:label="Layer 0" />
  <g
     inkscape:groupmode="layer"
     id="layer3"
     inkscape:label="Layer 2" />
  <g
     inkscape:groupmode="layer"
     id="layer4"
     inkscape:label="Layer 3" />
  <g
     inkscape:groupmode="layer"
     id="layer5"
     inkscape:label="Layer 4" />
  <g
     inkscape:groupmode="layer"
     id="layer6"
     inkscape:label="Layer 5" />
  <g
     inkscape:groupmode="layer"
     id="layer7"
     inkscape:label="Layer 6" />
  <g
     inkscape:groupmode="layer"
     id="layer1"
     inkscape:label="Layer 1" />
  <path
     style="opacity:1;fill:#808080;fill-opacity:1;fill-rule:evenodd;stroke:none;stroke-width:0.06601805;stroke-linecap:round;stroke-linejoin:round;stroke-miterlimit:4;stroke-dasharray:none;stroke-opacity:1"
     d="M 3.9804688 4.2675781 C 3.8790756 4.2675781 3.7988281 4.3497792 3.7988281 4.4511719 L 3.7988281 6.0195312 L 3.8144531 6 A 0.077830897 0.077830897 0 0 1 3.8769531 5.9707031 L 4.4121094 5.9804688 A 0.077830897 0.077830897 0 0 1 4.4902344 6.0585938 L 4.4902344 6.6386719 A 0.077830897 0.077830897 0 0 1 4.4121094 6.7167969 L 3.875 6.7148438 A 0.077830897 0.077830897 0 0 1 3.8144531 6.6855469 L 3.7988281 6.6660156 L 3.7988281 9.2792969 C 3.7988281 9.3806899 3.8790761 9.4609375 3.9804688 9.4609375 L 4.8183594 9.4609375 A 1.0700969 1.0700969 0 0 1 4.59375 8.8066406 A 1.0700969 1.0700969 0 0 1 5.6640625 7.7363281 A 1.0700969 1.0700969 0 0 1 6.734375 8.8066406 A 1.0700969 1.0700969 0 0 1 6.5078125 9.4609375 L 9.4433594 9.4609375 A 1.0700969 1.0700969 0 0 1 9.2207031 8.8066406 A 1.0700969 1.0700969 0 0 1 10.291016 7.7363281 A 1.0700969 1.0700969 0 0 1 11.359375 8.8066406 A 1.0700969 1.0700969 0 0 1 11.136719 9.4609375 L 12.019531 9.4609375 C 12.120924 9.4609375 12.203125 9.3806889 12.203125 9.2792969 L 12.203125 4.4511719 C 12.203125 4.349779 12.120924 4.2675781 12.019531 4.2675781 L 8.5332031 4.2675781 C 8.5152261 4.2972251 8.4826565 4.3164062 8.4453125 4.3164062 L 7.5 4.3164062 C 7.462756 4.3164062 7.4301154 4.2970921 7.4121094 4.2675781 L 3.9804688 4.2675781 z M 8 5.5507812 L 8.1445312 6.1679688 L 8.0078125 6.2089844 L 8 6.2109375 L 7.8554688 6.1679688 L 8 5.5507812 z M 11.523438 5.8339844 A 0.5436781 0.5436781 0 0 1 11.525391 5.8339844 A 0.5436781 0.5436781 0 0 1 11.564453 5.8339844 A 0.5436781 0.5436781 0 0 1 12.107422 6.3769531 A 0.5436781 0.5436781 0 0 1 11.564453 6.9199219 A 0.5436781 0.5436781 0 0 1 11.019531 6.3769531 A 0.5436781 0.5436781 0 0 1 11.523438 5.8339844 z M 7.3769531 6.1367188 L 8 6.3242188 L 8.6230469 6.1367188 L 8.1464844 6.5761719 L 8 7.203125 L 7.8535156 6.5761719 L 7.3769531 6.1367188 z M 7.6425781 6.53125 L 7.7539062 6.6328125 L 7.7871094 6.7773438 L 7.1738281 6.9628906 L 7.6425781 6.53125 z M 8.3574219 6.53125 L 8.8261719 6.9628906 L 8.2128906 6.7773438 L 8.2460938 6.6328125 L 8.2519531 6.6269531 L 8.3574219 6.53125 z "
     id="rect3225-3" />
  <path
     style="fill:#808080;fill-opacity:1;fill-rule:evenodd;stroke:none;stroke-width:0.06601805;stroke-linecap:butt;stroke-linejoin:miter;stroke-miterlimit:4;stroke-dasharray:none;stroke-opacity:1"
     d="M 0.83203125 5.7519531 C 0.46957895 7.7368091 0.2325263 9.8592666 0.0546875 10.791016 C -0.2242592 12.2525 2.2185014 13.481942 3.1445312 11.792969 C 3.8180624 10.564526 4.5428102 9.0850275 4.6054688 8.9570312 A 1.0700969 1.0700969 0 0 1 4.5957031 8.8320312 L 0.83203125 5.7519531 z "
     id="path3206-6" />
  <path
     id="path3258-7"
     style="fill:#808080;fill-opacity:1;fill-rule:evenodd;stroke:none;stroke-width:0.06601805;stroke-linecap:butt;stroke-linejoin:miter;stroke-miterlimit:4;stroke-dasharray:none;stroke-opacity:1;opacity:0.8"
     d="m 11.564711,3.9953193 h 2.1885 L 13.581699,3.7133272 c -0.11245,-0.1848849 -0.40477,-0.3220948 -0.922738,-0.3220948 -0.517968,0 -0.810288,0.1372099 -0.922738,0.3220948 z"
     sodipodi:nodetypes="ccscsc"
     inkscape:connector-curvature="0" />
  <path
     sodipodi:nodetypes="ccscsc"
     d="M 2.1668475,3.9953193 H 4.3553479 L 4.1838356,3.7133272 C 4.0713858,3.5284423 3.7790658,3.3912324 3.261098,3.3912324 c -0.5179683,0 -0.8102884,0.1372099 -0.9227382,0.3220948 z"
     style="fill:#808080;fill-opacity:1;fill-rule:evenodd;stroke:none;stroke-width:0.06601805;stroke-linecap:butt;stroke-linejoin:miter;stroke-miterlimit:4;stroke-dasharray:none;stroke-opacity:1;opacity:0.8"
     id="path3234-5"
     inkscape:connector-curvature="0" />
  <path
     style="fill:#808080;fill-opacity:1;fill-rule:evenodd;stroke:none;stroke-width:0.06601805;stroke-linecap:butt;stroke-linejoin:miter;stroke-miterlimit:4;stroke-dasharray:none;stroke-opacity:1"
     d="M 3.2617188 3.546875 C 2.6101681 3.546875 2.1513887 3.6856007 2.0996094 3.953125 C 2.0478308 4.2206492 1.9969534 4.5817358 1.8847656 5.3066406 L 2.8828125 5.3066406 L 2.8828125 5.1835938 A 0.077830897 0.077830897 0 0 1 2.9609375 5.1054688 L 3.5410156 5.1054688 A 0.077830897 0.077830897 0 0 1 3.6191406 5.1816406 L 3.6210938 5.3066406 L 4.6367188 5.3066406 C 4.5245309 4.5817358 4.4736537 4.2206492 4.421875 3.953125 C 4.3700958 3.6856007 3.9132694 3.546875 3.2617188 3.546875 z "
     id="path3229-3" />
  <path
     style="opacity:1;fill:#808080;fill-opacity:1;fill-rule:evenodd;stroke:none;stroke-width:0.06601805;stroke-linecap:round;stroke-linejoin:round;stroke-miterlimit:4;stroke-dasharray:none;stroke-opacity:1"
     d="M 3.265625 3.8691406 A 2.5026453 2.5026453 0 0 0 0.76367188 6.3730469 A 2.5026453 2.5026453 0 0 0 3.265625 8.875 A 2.5026453 2.5026453 0 0 0 4.6582031 8.4492188 A 1.0700969 1.0700969 0 0 1 5.3242188 7.7929688 A 2.5026453 2.5026453 0 0 0 5.7675781 6.3730469 A 2.5026453 2.5026453 0 0 0 3.265625 3.8691406 z M 2.9453125 5.1054688 A 0.077830897 0.077830897 0 0 1 2.9472656 5.1054688 A 0.077830897 0.077830897 0 0 1 2.9609375 5.1054688 L 3.5410156 5.1054688 A 0.077830897 0.077830897 0 0 1 3.6191406 5.1816406 L 3.6289062 5.71875 A 0.077830897 0.077830897 0 0 1 3.5996094 5.78125 L 3.3066406 6.0117188 A 0.077830897 0.077830897 0 0 1 3.2109375 6.0117188 L 2.9160156 5.78125 A 0.077830897 0.077830897 0 0 1 2.8847656 5.71875 L 2.8828125 5.1835938 A 0.077830897 0.077830897 0 0 1 2.9453125 5.1054688 z M 2.6308594 5.9648438 A 0.077830897 0.077830897 0 0 1 2.6933594 5.9941406 L 2.9238281 6.2871094 A 0.077830897 0.077830897 0 0 1 2.9238281 6.3847656 L 2.6933594 6.6796875 A 0.077830897 0.077830897 0 0 1 2.6328125 6.7089844 L 2.0957031 6.7109375 A 0.077830897 0.077830897 0 0 1 2.0175781 6.6328125 L 2.0175781 6.0527344 A 0.077830897 0.077830897 0 0 1 2.09375 5.9746094 L 2.6308594 5.9648438 z M 3.8691406 5.9707031 A 0.077830897 0.077830897 0 0 1 3.8769531 5.9707031 L 4.4121094 5.9804688 A 0.077830897 0.077830897 0 0 1 4.4902344 6.0585938 L 4.4902344 6.6386719 A 0.077830897 0.077830897 0 0 1 4.4121094 6.7167969 L 3.875 6.7148438 A 0.077830897 0.077830897 0 0 1 3.8144531 6.6855469 L 3.5820312 6.390625 A 0.077830897 0.077830897 0 0 1 3.5820312 6.2929688 L 3.8144531 6 A 0.077830897 0.077830897 0 0 1 3.8691406 5.9707031 z M 3.2402344 6.6542969 A 0.077830897 0.077830897 0 0 1 3.2421875 6.6542969 A 0.077830897 0.077830897 0 0 1 3.3007812 6.6699219 L 3.59375 6.9003906 A 0.077830897 0.077830897 0 0 1 3.6230469 6.9628906 L 3.6132812 7.5 A 0.077830897 0.077830897 0 0 1 3.5351562 7.5761719 L 2.9550781 7.5761719 A 0.077830897 0.077830897 0 0 1 2.8769531 7.4980469 L 2.8789062 6.9628906 A 0.077830897 0.077830897 0 0 1 2.9101562 6.9003906 L 3.2050781 6.6699219 A 0.077830897 0.077830897 0 0 1 3.2402344 6.6542969 z "
     id="path2416-5" />
  <path
     style="fill:#808080;fill-opacity:1;fill-rule:evenodd;stroke:none;stroke-width:0.06601805;stroke-linecap:butt;stroke-linejoin:miter;stroke-miterlimit:4;stroke-dasharray:none;stroke-opacity:1"
     d="M 12.658203 3.546875 C 12.006652 3.546875 11.549826 3.6856007 11.498047 3.953125 C 11.446267 4.2206492 11.395391 4.5817358 11.283203 5.3066406 L 12.199219 5.3066406 A 0.5436781 0.5436781 0 0 1 12.189453 5.2070312 A 0.5436781 0.5436781 0 0 1 12.732422 4.6640625 A 0.5436781 0.5436781 0 0 1 13.277344 5.2070312 A 0.5436781 0.5436781 0 0 1 13.267578 5.3066406 L 14.035156 5.3066406 C 13.922968 4.5817358 13.872092 4.2206492 13.820312 3.953125 C 13.768534 3.6856007 13.309753 3.546875 12.658203 3.546875 z "
     id="path3260-6" />
  <path
     style="opacity:1;fill:#808080;fill-opacity:1;fill-rule:evenodd;stroke:none;stroke-width:0.06601806;stroke-linecap:round;stroke-linejoin:round;stroke-miterlimit:4;stroke-dasharray:none;stroke-opacity:1"
     d="M 5.6640625 7.21875 A 1.5878855 1.5878855 0 0 0 4.0761719 8.8066406 A 1.5878855 1.5878855 0 0 0 5.6640625 10.394531 A 1.5878855 1.5878855 0 0 0 7.2519531 8.8066406 A 1.5878855 1.5878855 0 0 0 5.6640625 7.21875 z M 5.6640625 7.7363281 A 1.0700969 1.0700969 0 0 1 6.734375 8.8066406 A 1.0700969 1.0700969 0 0 1 5.6640625 9.8769531 A 1.0700969 1.0700969 0 0 1 4.59375 8.8066406 A 1.0700969 1.0700969 0 0 1 5.6640625 7.7363281 z "
     id="path3208-2" />
  <circle
     style="opacity:0.8;fill:#808080;fill-opacity:1;fill-rule:evenodd;stroke:none;stroke-width:0.06601806;stroke-linecap:round;stroke-linejoin:round;stroke-miterlimit:4;stroke-dasharray:none;stroke-opacity:1"
     id="path3210-9"
     cx="5.6645021"
     cy="8.8062668"
     r="1.0700969" />
  <path
     style="fill:#808080;fill-opacity:1;fill-rule:evenodd;stroke:none;stroke-width:0.06601805;stroke-linecap:butt;stroke-linejoin:miter;stroke-miterlimit:4;stroke-dasharray:none;stroke-opacity:1"
     d="M 15.166016 5.7519531 L 14.445312 6.3417969 A 0.5436781 0.5436781 0 0 1 14.445312 6.3769531 A 0.5436781 0.5436781 0 0 1 13.902344 6.9199219 A 0.5436781 0.5436781 0 0 1 13.761719 6.9023438 L 13.234375 7.3339844 A 0.5436781 0.5436781 0 0 1 13.277344 7.546875 A 0.5436781 0.5436781 0 0 1 12.732422 8.0898438 A 0.5436781 0.5436781 0 0 1 12.427734 7.9941406 L 11.357422 8.8710938 A 1.0700969 1.0700969 0 0 1 11.357422 8.8847656 C 11.365646 8.9015966 12.154155 10.517415 12.853516 11.792969 C 13.779546 13.481942 16.232639 12.25049 15.943359 10.791016 C 15.76552 9.8937848 15.528468 7.7368091 15.166016 5.7519531 z "
     id="path3223-1" />
  <path
     style="opacity:1;fill:#808080;fill-opacity:1;fill-rule:evenodd;stroke:none;stroke-width:0.06601805;stroke-linecap:round;stroke-linejoin:round;stroke-miterlimit:4;stroke-dasharray:none;stroke-opacity:1"
     d="M 12.732422 3.8691406 A 2.5026453 2.5026453 0 0 0 10.230469 6.3730469 A 2.5026453 2.5026453 0 0 0 10.689453 7.8144531 A 1.0700969 1.0700969 0 0 1 11.283203 8.4082031 A 2.5026453 2.5026453 0 0 0 12.732422 8.875 A 2.5026453 2.5026453 0 0 0 15.236328 6.3730469 A 2.5026453 2.5026453 0 0 0 12.732422 3.8691406 z M 12.732422 4.6640625 A 0.5436781 0.5436781 0 0 1 13.277344 5.2070312 A 0.5436781 0.5436781 0 0 1 12.732422 5.7519531 A 0.5436781 0.5436781 0 0 1 12.189453 5.2070312 A 0.5436781 0.5436781 0 0 1 12.732422 4.6640625 z M 11.523438 5.8339844 A 0.5436781 0.5436781 0 0 1 11.525391 5.8339844 A 0.5436781 0.5436781 0 0 1 11.564453 5.8339844 A 0.5436781 0.5436781 0 0 1 11.617188 5.8359375 A 0.5436781 0.5436781 0 0 1 11.619141 5.8359375 A 0.5436781 0.5436781 0 0 1 11.625 5.8378906 A 0.5436781 0.5436781 0 0 1 11.775391 5.8769531 A 0.5436781 0.5436781 0 0 1 11.824219 5.9003906 A 0.5436781 0.5436781 0 0 1 11.953125 5.9980469 A 0.5436781 0.5436781 0 0 1 11.955078 6 A 0.5436781 0.5436781 0 0 1 11.990234 6.0390625 A 0.5436781 0.5436781 0 0 1 11.990234 6.0410156 A 0.5436781 0.5436781 0 0 1 12.070312 6.1796875 A 0.5436781 0.5436781 0 0 1 12.070312 6.1816406 A 0.5436781 0.5436781 0 0 1 12.105469 6.3378906 A 0.5436781 0.5436781 0 0 1 12.107422 6.3769531 A 0.5436781 0.5436781 0 0 1 12.095703 6.484375 A 0.5436781 0.5436781 0 0 1 12.064453 6.5878906 A 0.5436781 0.5436781 0 0 1 12.011719 6.6835938 A 0.5436781 0.5436781 0 0 1 11.941406 6.7675781 A 0.5436781 0.5436781 0 0 1 11.900391 6.8027344 A 0.5436781 0.5436781 0 0 1 11.810547 6.8613281 A 0.5436781 0.5436781 0 0 1 11.759766 6.8828125 A 0.5436781 0.5436781 0 0 1 11.65625 6.9121094 A 0.5436781 0.5436781 0 0 1 11.564453 6.9199219 A 0.5436781 0.5436781 0 0 1 11.457031 6.9101562 A 0.5436781 0.5436781 0 0 1 11.455078 6.9101562 A 0.5436781 0.5436781 0 0 1 11.404297 6.8964844 A 0.5436781 0.5436781 0 0 1 11.402344 6.8964844 A 0.5436781 0.5436781 0 0 1 11.353516 6.8769531 A 0.5436781 0.5436781 0 0 1 11.351562 6.8769531 A 0.5436781 0.5436781 0 0 1 11.257812 6.8261719 A 0.5436781 0.5436781 0 0 1 11.255859 6.8261719 A 0.5436781 0.5436781 0 0 1 11.214844 6.7929688 A 0.5436781 0.5436781 0 0 1 11.212891 6.7929688 A 0.5436781 0.5436781 0 0 1 11.105469 6.671875 A 0.5436781 0.5436781 0 0 1 11.105469 6.6699219 A 0.5436781 0.5436781 0 0 1 11.080078 6.6230469 A 0.5436781 0.5436781 0 0 1 11.056641 6.5742188 A 0.5436781 0.5436781 0 0 1 11.039062 6.5234375 A 0.5436781 0.5436781 0 0 1 11.039062 6.5214844 A 0.5436781 0.5436781 0 0 1 11.027344 6.4707031 A 0.5436781 0.5436781 0 0 1 11.027344 6.46875 A 0.5436781 0.5436781 0 0 1 11.019531 6.3769531 A 0.5436781 0.5436781 0 0 1 11.0625 6.1660156 A 0.5436781 0.5436781 0 0 1 11.085938 6.1152344 A 0.5436781 0.5436781 0 0 1 11.185547 5.9863281 A 0.5436781 0.5436781 0 0 1 11.269531 5.9199219 A 0.5436781 0.5436781 0 0 1 11.316406 5.8925781 A 0.5436781 0.5436781 0 0 1 11.417969 5.8535156 A 0.5436781 0.5436781 0 0 1 11.523438 5.8339844 z M 13.863281 5.8339844 A 0.5436781 0.5436781 0 0 1 13.902344 5.8339844 A 0.5436781 0.5436781 0 0 1 14.445312 6.3769531 A 0.5436781 0.5436781 0 0 1 13.902344 6.9199219 A 0.5436781 0.5436781 0 0 1 13.359375 6.3769531 A 0.5436781 0.5436781 0 0 1 13.863281 5.8339844 z M 12.732422 7.0019531 A 0.5436781 0.5436781 0 0 1 13.277344 7.546875 A 0.5436781 0.5436781 0 0 1 12.732422 8.0898438 A 0.5436781 0.5436781 0 0 1 12.189453 7.546875 A 0.5436781 0.5436781 0 0 1 12.732422 7.0019531 z "
     id="path3221-2" />
  <path
     inkscape:connector-curvature="0"
     id="path14-0"
     style="fill:#808080;fill-opacity:1;fill-rule:evenodd;stroke:none;stroke-width:0.00401818;opacity:0.8"
     d="M 8.2130729,6.7772898 8.8261933,6.9622006 8.357178,6.5313303 8.2469367,6.632576 Z M 7.6428247,6.5313303 7.1738094,6.9622006 7.7869191,6.7772898 7.7530695,6.632576 Z M 8.144072,6.1675723 8.0000238,5.5517483 7.8559199,6.1675723 8.0000238,6.2109961 8.144072,6.1675723" />
  <path
     inkscape:connector-curvature="0"
     id="path20-6"
     style="fill:#808080;fill-opacity:1;fill-rule:evenodd;stroke:none;stroke-width:0.00401818;opacity:0.8"
     d="M 8.0000238,6.3251657 7.3760518,6.1369815 7.8533897,6.575486 8.0000238,7.2021977 8.1466129,6.575486 8.6239402,6.1369815 8.0000238,6.3251657" />
  <circle
     r="0.5436781"
     cy="5.2076316"
     cx="12.73308"
     id="circle1053"
     style="opacity:0.8;fill:#808080;fill-opacity:1;fill-rule:evenodd;stroke:none;stroke-width:0.06601805;stroke-linecap:round;stroke-linejoin:round;stroke-miterlimit:4;stroke-dasharray:none;stroke-opacity:1" />
  <circle
     id="path3246-6"
     style="opacity:0.8;fill:#808080;fill-opacity:1;fill-rule:evenodd;stroke:none;stroke-width:0.06601805;stroke-linecap:round;stroke-linejoin:round;stroke-miterlimit:4;stroke-dasharray:none;stroke-opacity:1"
     cx="12.73308"
     cy="7.5463095"
     r="0.5436781" />
  <circle
     transform="scale(-1)"
     id="path3248-1"
     style="fill:#808080;fill-opacity:1;fill-rule:evenodd;stroke:none;stroke-width:0.06601805;stroke-linecap:round;stroke-linejoin:round;stroke-miterlimit:4;stroke-dasharray:none;stroke-opacity:1;opacity:0.8"
     cx="-13.902417"
     cy="-6.3769708"
     r="0.5436781" />
  <circle
     style="fill:#808080;fill-opacity:1;fill-rule:evenodd;stroke:none;stroke-width:0.06601805;stroke-linecap:round;stroke-linejoin:round;stroke-miterlimit:4;stroke-dasharray:none;stroke-opacity:1;opacity:0.8"
     id="path3250-8"
     transform="scale(-1)"
     cx="-11.56374"
     cy="-6.3769708"
     r="0.5436781" />
  <path
     style="opacity:1;fill:#808080;fill-opacity:1;fill-rule:evenodd;stroke:none;stroke-width:0.06601806;stroke-linecap:round;stroke-linejoin:round;stroke-miterlimit:4;stroke-dasharray:none;stroke-opacity:1"
     d="M 10.291016 7.21875 A 1.5878855 1.5878855 0 0 0 8.703125 8.8066406 A 1.5878855 1.5878855 0 0 0 10.291016 10.394531 A 1.5878855 1.5878855 0 0 0 11.878906 8.8066406 A 1.5878855 1.5878855 0 0 0 10.291016 7.21875 z M 10.291016 7.7363281 A 1.0700969 1.0700969 0 0 1 11.359375 8.8066406 A 1.0700969 1.0700969 0 0 1 10.291016 9.8769531 A 1.0700969 1.0700969 0 0 1 9.2207031 8.8066406 A 1.0700969 1.0700969 0 0 1 10.291016 7.7363281 z "
     id="path3289-7" />
  <circle
     id="path3293-9"
     style="opacity:0.8;fill:#808080;fill-opacity:1;fill-rule:evenodd;stroke:none;stroke-width:0.06601806;stroke-linecap:round;stroke-linejoin:round;stroke-miterlimit:4;stroke-dasharray:none;stroke-opacity:1"
     cx="10.290082"
     cy="8.8062668"
     r="1.0700969" />
  <path
     sodipodi:type="inkscape:offset"
     inkscape:radius="1.1788157"
     inkscape:original="M 318.6875 524.46875 L 315.1875 528.90625 L 318.6875 533.375 L 326.8125 533.40625 L 326.8125 524.625 L 318.6875 524.46875 z "
     style="fill:#808080;fill-opacity:1;fill-rule:evenodd;stroke:none;stroke-width:1;stroke-linecap:round;stroke-linejoin:round;stroke-miterlimit:4;stroke-opacity:1;opacity:0.8"
     id="path3322-0"
     d="m 318.71094,523.29102 a 1.1789336,1.1789336 0 0 0 -0.94922,0.44726 l -3.5,4.4375 a 1.1789336,1.1789336 0 0 0 -0.002,1.45703 l 3.5,4.46875 a 1.1789336,1.1789336 0 0 0 0.92382,0.45313 l 8.125,0.0312 a 1.1789336,1.1789336 0 0 0 1.1836,-1.17969 V 524.625 a 1.1789336,1.1789336 0 0 0 -1.15625,-1.17773 z"
     transform="matrix(0.06601805,0,0,0.06601805,-17.164065,-28.575614)" />
  <path
     d="m 318.71094,523.29102 a 1.1789336,1.1789336 0 0 0 -0.94922,0.44726 l -3.5,4.4375 a 1.1789336,1.1789336 0 0 0 -0.002,1.45703 l 3.5,4.46875 a 1.1789336,1.1789336 0 0 0 0.92382,0.45313 l 8.125,0.0312 a 1.1789336,1.1789336 0 0 0 1.1836,-1.17969 V 524.625 a 1.1789336,1.1789336 0 0 0 -1.15625,-1.17773 z"
     id="path3324-2"
     style="fill:#808080;fill-opacity:1;fill-rule:evenodd;stroke:none;stroke-width:1;stroke-linecap:round;stroke-linejoin:round;stroke-miterlimit:4;stroke-opacity:1;opacity:0.8"
     inkscape:original="M 318.6875 524.46875 L 315.1875 528.90625 L 318.6875 533.375 L 326.8125 533.40625 L 326.8125 524.625 L 318.6875 524.46875 z "
     inkscape:radius="1.1788157"
     sodipodi:type="inkscape:offset"
     transform="matrix(-0.06601805,0,0,0.06601805,23.671265,-28.58148)" />
  <path
     d="m 318.71094,523.29102 a 1.1789336,1.1789336 0 0 0 -0.94922,0.44726 l -3.5,4.4375 a 1.1789336,1.1789336 0 0 0 -0.002,1.45703 l 3.5,4.46875 a 1.1789336,1.1789336 0 0 0 0.92382,0.45313 l 8.125,0.0312 a 1.1789336,1.1789336 0 0 0 1.1836,-1.17969 V 524.625 a 1.1789336,1.1789336 0 0 0 -1.15625,-1.17773 z"
     id="path3332-3"
     style="fill:#808080;fill-opacity:1;fill-rule:evenodd;stroke:none;stroke-width:1;stroke-linecap:round;stroke-linejoin:round;stroke-miterlimit:4;stroke-opacity:1;opacity:0.8"
     inkscape:original="M 318.6875 524.46875 L 315.1875 528.90625 L 318.6875 533.375 L 326.8125 533.40625 L 326.8125 524.625 L 318.6875 524.46875 z "
     inkscape:radius="1.1788157"
     sodipodi:type="inkscape:offset"
     transform="matrix(0,0.06601805,-0.06601805,0,38.170036,-14.076842)" />
  <path
     transform="matrix(0,-0.06601805,-0.06601805,0,38.175902,26.758487)"
     sodipodi:type="inkscape:offset"
     inkscape:radius="1.1788157"
     inkscape:original="M 318.6875 524.46875 L 315.1875 528.90625 L 318.6875 533.375 L 326.8125 533.40625 L 326.8125 524.625 L 318.6875 524.46875 z "
     style="fill:#808080;fill-opacity:1;fill-rule:evenodd;stroke:none;stroke-width:1;stroke-linecap:round;stroke-linejoin:round;stroke-miterlimit:4;stroke-opacity:1;opacity:0.8"
     id="path3334-7"
     d="m 318.71094,523.29102 a 1.1789336,1.1789336 0 0 0 -0.94922,0.44726 l -3.5,4.4375 a 1.1789336,1.1789336 0 0 0 -0.002,1.45703 l 3.5,4.46875 a 1.1789336,1.1789336 0 0 0 0.92382,0.45313 l 8.125,0.0312 a 1.1789336,1.1789336 0 0 0 1.1836,-1.17969 V 524.625 a 1.1789336,1.1789336 0 0 0 -1.15625,-1.17773 z" />
</svg>
