<?xml version="1.0" encoding="UTF-8" standalone="no"?>
<svg
   xmlns:dc="http://purl.org/dc/elements/1.1/"
   xmlns:cc="http://creativecommons.org/ns#"
   xmlns:rdf="http://www.w3.org/1999/02/22-rdf-syntax-ns#"
   xmlns:svg="http://www.w3.org/2000/svg"
   xmlns="http://www.w3.org/2000/svg"
   xmlns:sodipodi="http://sodipodi.sourceforge.net/DTD/sodipodi-0.dtd"
   xmlns:inkscape="http://www.inkscape.org/namespaces/inkscape"
   height="16"
   width="16"
   version="1.1"
   id="svg8"
   sodipodi:docname="input-tablet-symbolic.svg"
   inkscape:version="0.92.3 (2405546, 2018-03-11)">
  <metadata
     id="metadata14">
    <rdf:RDF>
      <cc:Work
         rdf:about="">
        <dc:format>image/svg+xml</dc:format>
        <dc:type
           rdf:resource="http://purl.org/dc/dcmitype/StillImage" />
        <dc:title></dc:title>
      </cc:Work>
    </rdf:RDF>
  </metadata>
  <defs
     id="defs12" />
  <sodipodi:namedview
     pagecolor="#ffffff"
     bordercolor="#666666"
     borderopacity="1"
     objecttolerance="10"
     gridtolerance="10"
     guidetolerance="10"
     inkscape:pageopacity="0"
     inkscape:pageshadow="2"
     inkscape:window-width="1920"
     inkscape:window-height="1474"
     id="namedview10"
     showgrid="false"
     inkscape:zoom="41.7193"
     inkscape:cx="1.0952173"
     inkscape:cy="5.6165933"
     inkscape:window-x="1920"
     inkscape:window-y="27"
     inkscape:window-maximized="0"
     inkscape:current-layer="svg8" />
  <path
     style="opacity:1;fill:#808080;fill-opacity:1;stroke:none;stroke-width:1.54431212;stroke-opacity:0.94117647"
     d="M 1.0000001,15.169922 C 1.0000001,15.629337 1.3687111,16 1.8281251,16 L 14.169922,16 C 14.629337,16 15,15.629337 15,15.169922 l 0,-8.3417971 c 0,-0.459415 -0.370663,-0.828125 -0.830078,-0.828125 H 1.8281251 c -0.459415,0 -0.828125,0.36871 -0.828125,0.828125 z M 1.5371101,11 a 0.25,0.25 0 0 1 0.123046,-0.214843 V 6.4999999 l 12.6953129,0 V 15.5 l -12.6953129,0 V 11.214844 A 0.25,0.25 0 0 1 1.5371101,11 Z"
     id="rect830"
     inkscape:connector-curvature="0" />
  <rect
     style="opacity:1;fill:#808080;fill-opacity:1;stroke:none;stroke-width:0.2428928;stroke-opacity:0.94117647"
     id="rect853"
     width="9.1198483"
     height="0.62711865"
     x="6.4280915"
     y="-1.9037602"
     transform="rotate(90)" />
  <path
     style="display:inline;opacity:1;fill:#808080;fill-opacity:1;stroke:none;stroke-width:0.19288662;stroke-linecap:butt;stroke-linejoin:bevel;stroke-miterlimit:4;stroke-dasharray:none;stroke-opacity:1;paint-order:fill markers stroke"
     d="m 2.684571,12.525794 0.0076,0.007 -0.3448261,1.290093 -0.347386,1.287531 1.2899201,-0.344877 1.289918,-0.344877 0.0076,0.007 L 10.293698,8.7206689 16,3.0136179 14.097047,1.1104178 8.3907454,6.8174689 Z m 0.682,0.682082 0.538957,0.539021 -0.740747,0.470061 -0.7433021,0.472608 0.4751011,-0.740852 z"
     id="path818-3"
     inkscape:connector-curvature="0" />
</svg>
