<?xml version="1.0" encoding="UTF-8" standalone="no"?>
<svg
   xmlns:dc="http://purl.org/dc/elements/1.1/"
   xmlns:cc="http://creativecommons.org/ns#"
   xmlns:rdf="http://www.w3.org/1999/02/22-rdf-syntax-ns#"
   xmlns:svg="http://www.w3.org/2000/svg"
   xmlns="http://www.w3.org/2000/svg"
   xmlns:sodipodi="http://sodipodi.sourceforge.net/DTD/sodipodi-0.dtd"
   xmlns:inkscape="http://www.inkscape.org/namespaces/inkscape"
   height="16"
   width="16"
   version="1.1"
   id="svg4"
   sodipodi:docname="phone-apple-iphone-symbolic.svg"
   inkscape:version="0.92.3 (2405546, 2018-03-11)">
  <metadata
     id="metadata10">
    <rdf:RDF>
      <cc:Work
         rdf:about="">
        <dc:format>image/svg+xml</dc:format>
        <dc:type
           rdf:resource="http://purl.org/dc/dcmitype/StillImage" />
        <dc:title></dc:title>
      </cc:Work>
    </rdf:RDF>
  </metadata>
  <defs
     id="defs8" />
  <sodipodi:namedview
     pagecolor="#ffffff"
     bordercolor="#666666"
     borderopacity="1"
     objecttolerance="10"
     gridtolerance="10"
     guidetolerance="10"
     inkscape:pageopacity="0"
     inkscape:pageshadow="2"
     inkscape:window-width="1920"
     inkscape:window-height="1539"
     id="namedview6"
     showgrid="false"
     inkscape:zoom="14.75"
     inkscape:cx="6.5520093"
     inkscape:cy="8.2467532"
     inkscape:window-x="1920"
     inkscape:window-y="27"
     inkscape:window-maximized="0"
     inkscape:current-layer="svg4" />
  <g
     id="g820">
    <path
       id="rect830"
       d="M 3.8300781 1 C 3.3706631 1 3 1.3687103 3 1.828125 L 3 14.169922 C 3 14.629337 3.3706631 15 3.8300781 15 L 12.171875 15 C 12.63129 15 13 14.629337 13 14.169922 L 13 1.828125 C 13 1.3687103 12.63129 1 12.171875 1 L 3.8300781 1 z M 8 1.5371094 A 0.25 0.25 0 0 1 8.2148438 1.6601562 L 12.5 1.6601562 L 12.5 14.355469 L 3.5 14.355469 L 3.5 1.6601562 L 7.7851562 1.6601562 A 0.25 0.25 0 0 1 8 1.5371094 z "
       style="opacity:1;fill:#808080;fill-opacity:1;stroke:none;stroke-width:1.54431212;stroke-opacity:0.94117647" />
    <path
       inkscape:connector-curvature="0"
       id="path868"
       d="m 10.999999,1.1777344 v 0.00781 h -6 v -0.00391 H 4.3007802 l -0.00781,0.00977 0.7070312,0.9941407 h 5.9999976 l -0.0078,-0.00977 h 0.0078 v 0.00977 L 11.70703,1.1914044 11.69723,1.1777324 Z M 7.9824209,1.5253906 a 0.25,0.25 0 0 1 0.017578,0 0.25,0.25 0 0 1 0.25,0.25 0.25,0.25 0 0 1 -0.25,0.25 0.25,0.25 0 0 1 -0.25,-0.25 0.25,0.25 0 0 1 0.232422,-0.25 z"
       style="opacity:1;fill:#808080;fill-opacity:1;stroke:none;stroke-width:0.38663432;stroke-opacity:0.94117647" />
  </g>
</svg>
