<?xml version="1.0" encoding="UTF-8" standalone="no"?>
<!-- Generator: Adobe Illustrator 21.0.2, SVG Export Plug-In . SVG Version: 6.00 Build 0)  -->

<svg
   xmlns:a="http://ns.adobe.com/AdobeSVGViewerExtensions/3.0/"
   xmlns:dc="http://purl.org/dc/elements/1.1/"
   xmlns:cc="http://creativecommons.org/ns#"
   xmlns:rdf="http://www.w3.org/1999/02/22-rdf-syntax-ns#"
   xmlns:svg="http://www.w3.org/2000/svg"
   xmlns="http://www.w3.org/2000/svg"
   xmlns:xlink="http://www.w3.org/1999/xlink"
   xmlns:sodipodi="http://sodipodi.sourceforge.net/DTD/sodipodi-0.dtd"
   xmlns:inkscape="http://www.inkscape.org/namespaces/inkscape"
   version="1.1"
   id="Layer_1"
   x="0px"
   y="0px"
   viewBox="0 0 256 256"
   enable-background="new 0 0 256 256"
   xml:space="preserve"
   sodipodi:docname="text-x-vala.svg"
   inkscape:version="0.92.3 (2405546, 2018-03-11)"
   inkscape:label="Shadow"><metadata
   id="metadata253"><rdf:RDF><cc:Work
       rdf:about=""><dc:format>image/svg+xml</dc:format><dc:type
         rdf:resource="http://purl.org/dc/dcmitype/StillImage" /><dc:title /></cc:Work></rdf:RDF></metadata><defs
   id="defs251">
	
	
<clipPath
   id="b"><use
     width="100%"
     overflow="visible"
     xlink:href="#a"
     height="100%"
     id="use5" /></clipPath><linearGradient
   x1="29.337"
   x2="81.836998"
   y1="75.021004"
   gradientUnits="userSpaceOnUse"
   y2="44.354"
   id="c"><stop
     id="stop10"
     offset="0"
     stop-opacity=".6"
     stop-color="#A52714" /><stop
     id="stop12"
     offset=".66"
     stop-opacity="0"
     stop-color="#A52714" /></linearGradient><clipPath
   id="clipPath1232"><use
     width="100%"
     overflow="visible"
     xlink:href="#a"
     height="100%"
     id="use1230" /></clipPath><clipPath
   id="clipPath1236"><use
     width="100%"
     overflow="visible"
     xlink:href="#a"
     height="100%"
     id="use1234" /></clipPath><linearGradient
   x1="110.87"
   x2="52.537998"
   y1="164.5"
   gradientUnits="userSpaceOnUse"
   y2="130.33"
   id="d"><stop
     id="stop23"
     offset="0"
     stop-opacity=".4"
     stop-color="#055524" /><stop
     id="stop25"
     offset=".33"
     stop-opacity="0"
     stop-color="#055524" /></linearGradient><clipPath
   id="clipPath1244"><use
     width="100%"
     overflow="visible"
     xlink:href="#a"
     height="100%"
     id="use1242" /></clipPath><clipPath
   id="clipPath1248"><use
     width="100%"
     overflow="visible"
     xlink:href="#a"
     height="100%"
     id="use1246" /></clipPath><clipPath
   id="f"><use
     y="0"
     x="0"
     style="overflow:visible"
     id="use37"
     height="100%"
     xlink:href="#e"
     overflow="visible"
     width="100%" /></clipPath><linearGradient
   x1="121.86"
   x2="136.55"
   y1="49.804001"
   gradientUnits="userSpaceOnUse"
   y2="114.13"
   id="g"><stop
     id="stop42"
     offset="0"
     stop-opacity=".3"
     stop-color="#EA6100" /><stop
     id="stop44"
     offset=".66"
     stop-opacity="0"
     stop-color="#EA6100" /></linearGradient><clipPath
   id="clipPath1258"><use
     width="100%"
     overflow="visible"
     xlink:href="#a"
     height="100%"
     id="use1256" /></clipPath><clipPath
   id="clipPath1269"><use
     width="100%"
     overflow="visible"
     xlink:href="#a"
     height="100%"
     id="use1267" /></clipPath><clipPath
   id="j"><use
     y="0"
     x="0"
     style="overflow:visible"
     id="use62"
     height="100%"
     xlink:href="#i"
     overflow="visible"
     width="100%" /></clipPath><radialGradient
   id="l"
   gradientUnits="userSpaceOnUse"
   cy="55.948"
   cx="668.18"
   gradientTransform="translate(-576)"
   r="84.078"><stop
     stop-color="#3E2723"
     stop-opacity=".2"
     offset="0"
     id="stop73" /><stop
     stop-color="#3E2723"
     stop-opacity="0"
     offset="1"
     id="stop75" /></radialGradient><clipPath
   id="clipPath1285"><use
     width="100%"
     overflow="visible"
     xlink:href="#a"
     height="100%"
     id="use1283" /></clipPath><clipPath
   id="clipPath1289"><use
     width="100%"
     overflow="visible"
     xlink:href="#a"
     height="100%"
     id="use1287" /></clipPath><clipPath
   id="n"><use
     y="0"
     x="0"
     style="overflow:visible"
     id="use83"
     height="100%"
     xlink:href="#m"
     overflow="visible"
     width="100%" /></clipPath><radialGradient
   id="p"
   gradientUnits="userSpaceOnUse"
   cy="48.52"
   cx="597.88"
   gradientTransform="translate(-576)"
   r="78.044"><stop
     stop-color="#3E2723"
     stop-opacity=".2"
     offset="0"
     id="stop94" /><stop
     stop-color="#3E2723"
     stop-opacity="0"
     offset="1"
     id="stop96" /></radialGradient><clipPath
   id="clipPath1305"><use
     width="100%"
     overflow="visible"
     xlink:href="#a"
     height="100%"
     id="use1303" /></clipPath><radialGradient
   id="q"
   gradientUnits="userSpaceOnUse"
   cy="96.138"
   cx="671.84"
   gradientTransform="translate(-576)"
   r="87.87"><stop
     stop-color="#263238"
     stop-opacity=".2"
     offset="0"
     id="stop101" /><stop
     stop-color="#263238"
     stop-opacity="0"
     offset="1"
     id="stop103" /></radialGradient><clipPath
   id="clipPath1312"><use
     width="100%"
     overflow="visible"
     xlink:href="#a"
     height="100%"
     id="use1310" /></clipPath><clipPath
   id="clipPath1316"><use
     width="100%"
     overflow="visible"
     xlink:href="#a"
     height="100%"
     id="use1314" /></clipPath><clipPath
   id="clipPath1320"><use
     width="100%"
     overflow="visible"
     xlink:href="#a"
     height="100%"
     id="use1318" /></clipPath><clipPath
   id="clipPath1324"><use
     width="100%"
     overflow="visible"
     xlink:href="#a"
     height="100%"
     id="use1322" /></clipPath><path
   inkscape:connector-curvature="0"
   d="m 8,184 h 83.77 l 38.88,-38.88 V 116 H 61.36 L 8,24.48 Z"
   id="e" /><path
   inkscape:connector-curvature="0"
   d="m 96,56 34.65,60 -38.88,68 H 184 V 56 Z"
   id="i" /><path
   inkscape:connector-curvature="0"
   d="M 21.97,8 V 48.34 L 61.36,116 96,56 h 88 V 8 Z"
   id="m" /><clipPath
   id="b-1"><use
     width="100%"
     overflow="visible"
     xlink:href="#a"
     height="100%"
     id="use5-7" /></clipPath><clipPath
   id="clipPath1232-2"><use
     width="100%"
     overflow="visible"
     xlink:href="#a"
     height="100%"
     id="use1230-2" /></clipPath><clipPath
   id="clipPath1236-6"><use
     width="100%"
     overflow="visible"
     xlink:href="#a"
     height="100%"
     id="use1234-1" /></clipPath><clipPath
   id="clipPath1244-1"><use
     width="100%"
     overflow="visible"
     xlink:href="#a"
     height="100%"
     id="use1242-5" /></clipPath><clipPath
   id="clipPath1248-9"><use
     width="100%"
     overflow="visible"
     xlink:href="#a"
     height="100%"
     id="use1246-4" /></clipPath><clipPath
   id="f-9"><use
     y="0"
     x="0"
     style="overflow:visible"
     id="use37-0"
     height="100%"
     xlink:href="#e-8"
     overflow="visible"
     width="100%" /></clipPath><clipPath
   id="clipPath1258-7"><use
     width="100%"
     overflow="visible"
     xlink:href="#a"
     height="100%"
     id="use1256-7" /></clipPath><clipPath
   id="clipPath1269-1"><use
     width="100%"
     overflow="visible"
     xlink:href="#a"
     height="100%"
     id="use1267-1" /></clipPath><clipPath
   id="j-5"><use
     y="0"
     x="0"
     style="overflow:visible"
     id="use62-9"
     height="100%"
     xlink:href="#i-5"
     overflow="visible"
     width="100%" /></clipPath><radialGradient
   id="l-7"
   gradientUnits="userSpaceOnUse"
   cy="55.948"
   cx="668.18"
   gradientTransform="translate(-576)"
   r="84.078"><stop
     stop-color="#3E2723"
     stop-opacity=".2"
     offset="0"
     id="stop73-7" /><stop
     stop-color="#3E2723"
     stop-opacity="0"
     offset="1"
     id="stop75-6" /></radialGradient><clipPath
   id="clipPath1285-7"><use
     width="100%"
     overflow="visible"
     xlink:href="#a"
     height="100%"
     id="use1283-3" /></clipPath><clipPath
   id="clipPath1289-6"><use
     width="100%"
     overflow="visible"
     xlink:href="#a"
     height="100%"
     id="use1287-5" /></clipPath><clipPath
   id="n-6"><use
     y="0"
     x="0"
     style="overflow:visible"
     id="use83-3"
     height="100%"
     xlink:href="#m-6"
     overflow="visible"
     width="100%" /></clipPath><radialGradient
   id="p-9"
   gradientUnits="userSpaceOnUse"
   cy="48.52"
   cx="597.88"
   gradientTransform="translate(-576)"
   r="78.044"><stop
     stop-color="#3E2723"
     stop-opacity=".2"
     offset="0"
     id="stop94-4" /><stop
     stop-color="#3E2723"
     stop-opacity="0"
     offset="1"
     id="stop96-8" /></radialGradient><clipPath
   id="clipPath1305-1"><use
     width="100%"
     overflow="visible"
     xlink:href="#a"
     height="100%"
     id="use1303-2" /></clipPath><radialGradient
   id="q-9"
   gradientUnits="userSpaceOnUse"
   cy="96.138"
   cx="671.84"
   gradientTransform="translate(-576)"
   r="87.87"><stop
     stop-color="#263238"
     stop-opacity=".2"
     offset="0"
     id="stop101-3" /><stop
     stop-color="#263238"
     stop-opacity="0"
     offset="1"
     id="stop103-9" /></radialGradient><clipPath
   id="clipPath1312-0"><use
     width="100%"
     overflow="visible"
     xlink:href="#a"
     height="100%"
     id="use1310-8" /></clipPath><clipPath
   id="clipPath1316-8"><use
     width="100%"
     overflow="visible"
     xlink:href="#a"
     height="100%"
     id="use1314-5" /></clipPath><clipPath
   id="clipPath1320-0"><use
     width="100%"
     overflow="visible"
     xlink:href="#a"
     height="100%"
     id="use1318-9" /></clipPath><clipPath
   id="clipPath1324-6"><use
     width="100%"
     overflow="visible"
     xlink:href="#a"
     height="100%"
     id="use1322-3" /></clipPath><path
   inkscape:connector-curvature="0"
   d="m 8,184 h 83.77 l 38.88,-38.88 V 116 H 61.36 L 8,24.48 Z"
   id="e-8" /><path
   inkscape:connector-curvature="0"
   d="m 96,56 34.65,60 -38.88,68 H 184 V 56 Z"
   id="i-5" /><path
   inkscape:connector-curvature="0"
   d="M 21.97,8 V 48.34 L 61.36,116 96,56 h 88 V 8 Z"
   id="m-6" /><radialGradient
   id="r"
   gradientUnits="userSpaceOnUse"
   cy="32.014"
   cx="34.285999"
   gradientTransform="translate(-23.079613,-106.2699)"
   r="176.75"><stop
     stop-color="#fff"
     stop-opacity=".1"
     offset="0"
     id="stop130" /><stop
     stop-color="#fff"
     stop-opacity="0"
     offset="1"
     id="stop132" /></radialGradient><clipPath
   id="b-0"><use
     y="0"
     x="0"
     style="overflow:visible"
     width="100%"
     overflow="visible"
     xlink:href="#a"
     height="100%"
     id="use5-5" /></clipPath><clipPath
   id="clipPath963"><use
     y="0"
     x="0"
     style="overflow:visible"
     width="100%"
     overflow="visible"
     xlink:href="#a"
     height="100%"
     id="use961" /></clipPath><clipPath
   id="clipPath967"><use
     y="0"
     x="0"
     style="overflow:visible"
     width="100%"
     overflow="visible"
     xlink:href="#a"
     height="100%"
     id="use965" /></clipPath><radialGradient
   id="q-94"
   gradientUnits="userSpaceOnUse"
   cy="96.138"
   cx="671.84003"
   gradientTransform="translate(-576)"
   r="87.870003"><stop
     stop-color="#263238"
     stop-opacity=".2"
     offset="0"
     id="stop101-6" /><stop
     stop-color="#263238"
     stop-opacity="0"
     offset="1"
     id="stop103-92" /></radialGradient><clipPath
   id="clipPath974"><use
     y="0"
     x="0"
     style="overflow:visible"
     width="100%"
     overflow="visible"
     xlink:href="#a"
     height="100%"
     id="use972" /></clipPath><radialGradient
   id="p-2"
   gradientUnits="userSpaceOnUse"
   cy="48.52"
   cx="597.88"
   gradientTransform="translate(-576)"
   r="78.043999"><stop
     stop-color="#3E2723"
     stop-opacity=".2"
     offset="0"
     id="stop94-47" /><stop
     stop-color="#3E2723"
     stop-opacity="0"
     offset="1"
     id="stop96-7" /></radialGradient><clipPath
   id="clipPath981"><use
     y="0"
     x="0"
     style="overflow:visible"
     width="100%"
     overflow="visible"
     xlink:href="#a"
     height="100%"
     id="use979" /></clipPath><clipPath
   id="clipPath985"><use
     y="0"
     x="0"
     style="overflow:visible"
     width="100%"
     overflow="visible"
     xlink:href="#a"
     height="100%"
     id="use983" /></clipPath><clipPath
   id="n-5"><use
     width="100%"
     overflow="visible"
     xlink:href="#m-0"
     height="100%"
     id="use83-4"
     style="overflow:visible"
     x="0"
     y="0" /></clipPath><radialGradient
   id="l-2"
   gradientUnits="userSpaceOnUse"
   cy="55.948002"
   cx="668.17999"
   gradientTransform="translate(-576)"
   r="84.078003"><stop
     stop-color="#3E2723"
     stop-opacity=".2"
     offset="0"
     id="stop73-8" /><stop
     stop-color="#3E2723"
     stop-opacity="0"
     offset="1"
     id="stop75-9" /></radialGradient><clipPath
   id="clipPath997"><use
     y="0"
     x="0"
     style="overflow:visible"
     width="100%"
     overflow="visible"
     xlink:href="#a"
     height="100%"
     id="use995" /></clipPath><clipPath
   id="clipPath1001"><use
     y="0"
     x="0"
     style="overflow:visible"
     width="100%"
     overflow="visible"
     xlink:href="#a"
     height="100%"
     id="use999" /></clipPath><clipPath
   id="j-3"><use
     width="100%"
     overflow="visible"
     xlink:href="#i-1"
     height="100%"
     id="use62-6"
     style="overflow:visible"
     x="0"
     y="0" /></clipPath><clipPath
   id="clipPath1010"><use
     y="0"
     x="0"
     style="overflow:visible"
     width="100%"
     overflow="visible"
     xlink:href="#a"
     height="100%"
     id="use1008" /></clipPath><clipPath
   id="clipPath1017"><use
     y="0"
     x="0"
     style="overflow:visible"
     width="100%"
     overflow="visible"
     xlink:href="#a"
     height="100%"
     id="use1015" /></clipPath><clipPath
   id="f-0"><use
     width="100%"
     overflow="visible"
     xlink:href="#e-1"
     height="100%"
     id="use37-5"
     style="overflow:visible"
     x="0"
     y="0" /></clipPath><clipPath
   id="clipPath1029"><use
     y="0"
     x="0"
     style="overflow:visible"
     width="100%"
     overflow="visible"
     xlink:href="#a"
     height="100%"
     id="use1027" /></clipPath><clipPath
   id="clipPath1033"><use
     y="0"
     x="0"
     style="overflow:visible"
     width="100%"
     overflow="visible"
     xlink:href="#a"
     height="100%"
     id="use1031" /></clipPath><clipPath
   id="clipPath1043"><use
     y="0"
     x="0"
     style="overflow:visible"
     width="100%"
     overflow="visible"
     xlink:href="#a"
     height="100%"
     id="use1041" /></clipPath><clipPath
   id="clipPath1047"><use
     y="0"
     x="0"
     style="overflow:visible"
     width="100%"
     overflow="visible"
     xlink:href="#a"
     height="100%"
     id="use1045" /></clipPath><path
   id="e-1"
   d="m 8,184 h 83.77 l 38.88,-38.88 V 116 H 61.36 L 8,24.48 Z"
   inkscape:connector-curvature="0" /><path
   id="i-1"
   d="m 96,56 34.65,60 -38.88,68 H 184 V 56 Z"
   inkscape:connector-curvature="0" /><path
   id="m-0"
   d="M 21.97,8 V 48.34 L 61.36,116 96,56 h 88 V 8 Z"
   inkscape:connector-curvature="0" /><circle
   r="88"
   cx="96"
   cy="96"
   id="a" /><path
   d="m8 184h83.77l38.88-38.88v-29.12h-69.29l-53.36-91.52z"
   id="e-6" /><path
   d="m96 56l34.65 60-38.88 68h92.23v-128z"
   id="i-2" /><path
   d="m21.97 8v40.34l39.39 67.66 34.64-60h88v-48z"
   id="m-8" /><defs
   id="defs1820"><path
     d="M 21.97,8 V 48.34 L 61.36,116 96,56 h 88 V 8 Z"
     id="path1928"
     inkscape:connector-curvature="0" /></defs><clipPath
   id="n-7"><use
     id="use1822"
     height="100%"
     xlink:href="#m-8"
     overflow="visible"
     width="100%"
     style="overflow:visible"
     x="0"
     y="0" /></clipPath><defs
   id="defs1799"><path
     d="m 96,56 34.65,60 -38.88,68 H 184 V 56 Z"
     id="path1918"
     inkscape:connector-curvature="0" /></defs><clipPath
   id="j-6"><use
     id="use1801"
     height="100%"
     xlink:href="#i-2"
     overflow="visible"
     width="100%"
     style="overflow:visible"
     x="0"
     y="0" /></clipPath><defs
   id="defs1774"><path
     d="m 8,184 h 83.77 l 38.88,-38.88 V 116 H 61.36 L 8,24.48 Z"
     id="path1902"
     inkscape:connector-curvature="0" /></defs><clipPath
   id="f-06"><use
     id="use1776"
     height="100%"
     xlink:href="#e-6"
     overflow="visible"
     width="100%"
     style="overflow:visible"
     x="0"
     y="0" /></clipPath><linearGradient
   x1="110.87"
   x2="52.537998"
   y1="164.5"
   gradientUnits="userSpaceOnUse"
   y2="130.33"
   id="linearGradient1897"><stop
     id="stop1762"
     offset="0"
     stop-opacity=".4"
     stop-color="#055524" /><stop
     id="stop1764"
     offset=".33"
     stop-opacity="0"
     stop-color="#055524" /></linearGradient><linearGradient
   x1="29.337"
   x2="81.836998"
   y1="75.021004"
   gradientUnits="userSpaceOnUse"
   y2="44.354"
   id="linearGradient1889"><stop
     id="stop1749"
     offset="0"
     stop-opacity=".6"
     stop-color="#A52714" /><stop
     id="stop1751"
     offset=".66"
     stop-opacity="0"
     stop-color="#A52714" /></linearGradient><linearGradient
   id="linearGradient1910"
   y2="114.13"
   gradientUnits="userSpaceOnUse"
   y1="49.804001"
   x2="136.55"
   x1="121.86"><stop
     stop-color="#EA6100"
     stop-opacity=".3"
     offset="0"
     id="stop1781" /><stop
     stop-color="#EA6100"
     stop-opacity="0"
     offset=".66"
     id="stop1783" /></linearGradient><clipPath
   id="b-3"><use
     y="0"
     x="0"
     style="overflow:visible"
     width="100%"
     overflow="visible"
     xlink:href="#a"
     height="100%"
     id="use5-1" /></clipPath><clipPath
   id="clipPath1024"><use
     y="0"
     x="0"
     style="overflow:visible"
     width="100%"
     overflow="visible"
     xlink:href="#a"
     height="100%"
     id="use1022" /></clipPath><clipPath
   id="clipPath1028"><use
     y="0"
     x="0"
     style="overflow:visible"
     width="100%"
     overflow="visible"
     xlink:href="#a"
     height="100%"
     id="use1026" /></clipPath><clipPath
   id="clipPath1035"><use
     y="0"
     x="0"
     style="overflow:visible"
     width="100%"
     overflow="visible"
     xlink:href="#a"
     height="100%"
     id="use1033" /></clipPath><clipPath
   id="clipPath1039"><use
     y="0"
     x="0"
     style="overflow:visible"
     width="100%"
     overflow="visible"
     xlink:href="#a"
     height="100%"
     id="use1037" /></clipPath><clipPath
   id="f-6"><use
     y="0"
     x="0"
     style="overflow:visible"
     id="use37-8"
     height="100%"
     xlink:href="#e-61"
     overflow="visible"
     width="100%" /></clipPath><clipPath
   id="clipPath1048"><use
     y="0"
     x="0"
     style="overflow:visible"
     width="100%"
     overflow="visible"
     xlink:href="#a"
     height="100%"
     id="use1046" /></clipPath><clipPath
   id="clipPath1058"><use
     y="0"
     x="0"
     style="overflow:visible"
     width="100%"
     overflow="visible"
     xlink:href="#a"
     height="100%"
     id="use1056" /></clipPath><clipPath
   id="j-66"><use
     y="0"
     x="0"
     style="overflow:visible"
     id="use62-4"
     height="100%"
     xlink:href="#i-59"
     overflow="visible"
     width="100%" /></clipPath><radialGradient
   id="l-9"
   gradientUnits="userSpaceOnUse"
   cy="55.948002"
   cx="668.17999"
   gradientTransform="translate(-576)"
   r="84.078003"><stop
     stop-color="#3E2723"
     stop-opacity=".2"
     offset="0"
     id="stop73-5" /><stop
     stop-color="#3E2723"
     stop-opacity="0"
     offset="1"
     id="stop75-0" /></radialGradient><clipPath
   id="clipPath1073"><use
     y="0"
     x="0"
     style="overflow:visible"
     width="100%"
     overflow="visible"
     xlink:href="#a"
     height="100%"
     id="use1071" /></clipPath><clipPath
   id="clipPath1077"><use
     y="0"
     x="0"
     style="overflow:visible"
     width="100%"
     overflow="visible"
     xlink:href="#a"
     height="100%"
     id="use1075" /></clipPath><clipPath
   id="n-4"><use
     y="0"
     x="0"
     style="overflow:visible"
     id="use83-8"
     height="100%"
     xlink:href="#m-4"
     overflow="visible"
     width="100%" /></clipPath><radialGradient
   id="p-7"
   gradientUnits="userSpaceOnUse"
   cy="48.52"
   cx="597.88"
   gradientTransform="translate(-576)"
   r="78.043999"><stop
     stop-color="#3E2723"
     stop-opacity=".2"
     offset="0"
     id="stop94-1" /><stop
     stop-color="#3E2723"
     stop-opacity="0"
     offset="1"
     id="stop96-72" /></radialGradient><clipPath
   id="clipPath1092"><use
     y="0"
     x="0"
     style="overflow:visible"
     width="100%"
     overflow="visible"
     xlink:href="#a"
     height="100%"
     id="use1090" /></clipPath><radialGradient
   id="q-7"
   gradientUnits="userSpaceOnUse"
   cy="96.138"
   cx="671.84003"
   gradientTransform="translate(-576)"
   r="87.870003"><stop
     stop-color="#263238"
     stop-opacity=".2"
     offset="0"
     id="stop101-2" /><stop
     stop-color="#263238"
     stop-opacity="0"
     offset="1"
     id="stop103-2" /></radialGradient><clipPath
   id="clipPath1099"><use
     y="0"
     x="0"
     style="overflow:visible"
     width="100%"
     overflow="visible"
     xlink:href="#a"
     height="100%"
     id="use1097" /></clipPath><clipPath
   id="clipPath1103"><use
     y="0"
     x="0"
     style="overflow:visible"
     width="100%"
     overflow="visible"
     xlink:href="#a"
     height="100%"
     id="use1101" /></clipPath><clipPath
   id="clipPath1107"><use
     y="0"
     x="0"
     style="overflow:visible"
     width="100%"
     overflow="visible"
     xlink:href="#a"
     height="100%"
     id="use1105" /></clipPath><clipPath
   id="clipPath1111"><use
     y="0"
     x="0"
     style="overflow:visible"
     width="100%"
     overflow="visible"
     xlink:href="#a"
     height="100%"
     id="use1109" /></clipPath><radialGradient
   id="r-6"
   gradientUnits="userSpaceOnUse"
   cy="32.014"
   cx="34.285999"
   gradientTransform="translate(-7,-7)"
   r="176.75"><stop
     stop-color="#fff"
     stop-opacity=".1"
     offset="0"
     id="stop130-1" /><stop
     stop-color="#fff"
     stop-opacity="0"
     offset="1"
     id="stop132-0" /></radialGradient><path
   inkscape:connector-curvature="0"
   d="m 8,184 h 83.77 l 38.88,-38.88 V 116 H 61.36 L 8,24.48 Z"
   id="e-61" /><path
   inkscape:connector-curvature="0"
   d="m 96,56 34.65,60 -38.88,68 H 184 V 56 Z"
   id="i-59" /><path
   inkscape:connector-curvature="0"
   d="M 21.97,8 V 48.34 L 61.36,116 96,56 h 88 V 8 Z"
   id="m-4" /><clipPath
   id="b-9"><use
     y="0"
     x="0"
     style="overflow:visible"
     width="100%"
     overflow="visible"
     xlink:href="#a"
     height="100%"
     id="use5-0" /></clipPath><clipPath
   id="clipPath1024-7"><use
     y="0"
     x="0"
     style="overflow:visible"
     width="100%"
     overflow="visible"
     xlink:href="#a"
     height="100%"
     id="use1022-7" /></clipPath><clipPath
   id="clipPath1028-1"><use
     y="0"
     x="0"
     style="overflow:visible"
     width="100%"
     overflow="visible"
     xlink:href="#a"
     height="100%"
     id="use1026-1" /></clipPath><clipPath
   id="clipPath1035-7"><use
     y="0"
     x="0"
     style="overflow:visible"
     width="100%"
     overflow="visible"
     xlink:href="#a"
     height="100%"
     id="use1033-7" /></clipPath><clipPath
   id="clipPath1039-6"><use
     y="0"
     x="0"
     style="overflow:visible"
     width="100%"
     overflow="visible"
     xlink:href="#a"
     height="100%"
     id="use1037-7" /></clipPath><clipPath
   id="f-3"><use
     y="0"
     x="0"
     style="overflow:visible"
     id="use37-6"
     height="100%"
     xlink:href="#e-9"
     overflow="visible"
     width="100%" /></clipPath><clipPath
   id="clipPath1048-3"><use
     y="0"
     x="0"
     style="overflow:visible"
     width="100%"
     overflow="visible"
     xlink:href="#a"
     height="100%"
     id="use1046-9" /></clipPath><clipPath
   id="clipPath1058-4"><use
     y="0"
     x="0"
     style="overflow:visible"
     width="100%"
     overflow="visible"
     xlink:href="#a"
     height="100%"
     id="use1056-8" /></clipPath><clipPath
   id="j-1"><use
     y="0"
     x="0"
     style="overflow:visible"
     id="use62-2"
     height="100%"
     xlink:href="#i-6"
     overflow="visible"
     width="100%" /></clipPath><radialGradient
   id="l-93"
   gradientUnits="userSpaceOnUse"
   cy="55.948002"
   cx="668.17999"
   gradientTransform="translate(-576)"
   r="84.078003"><stop
     stop-color="#3E2723"
     stop-opacity=".2"
     offset="0"
     id="stop73-9" /><stop
     stop-color="#3E2723"
     stop-opacity="0"
     offset="1"
     id="stop75-08" /></radialGradient><clipPath
   id="clipPath1073-8"><use
     y="0"
     x="0"
     style="overflow:visible"
     width="100%"
     overflow="visible"
     xlink:href="#a"
     height="100%"
     id="use1071-5" /></clipPath><clipPath
   id="clipPath1077-0"><use
     y="0"
     x="0"
     style="overflow:visible"
     width="100%"
     overflow="visible"
     xlink:href="#a"
     height="100%"
     id="use1075-9" /></clipPath><clipPath
   id="n-63"><use
     y="0"
     x="0"
     style="overflow:visible"
     id="use83-85"
     height="100%"
     xlink:href="#m-2"
     overflow="visible"
     width="100%" /></clipPath><radialGradient
   id="p-6"
   gradientUnits="userSpaceOnUse"
   cy="48.52"
   cx="597.88"
   gradientTransform="translate(-576)"
   r="78.043999"><stop
     stop-color="#3E2723"
     stop-opacity=".2"
     offset="0"
     id="stop94-11" /><stop
     stop-color="#3E2723"
     stop-opacity="0"
     offset="1"
     id="stop96-5" /></radialGradient><clipPath
   id="clipPath1092-9"><use
     y="0"
     x="0"
     style="overflow:visible"
     width="100%"
     overflow="visible"
     xlink:href="#a"
     height="100%"
     id="use1090-8" /></clipPath><radialGradient
   id="q-4"
   gradientUnits="userSpaceOnUse"
   cy="96.138"
   cx="671.84003"
   gradientTransform="translate(-576)"
   r="87.870003"><stop
     stop-color="#263238"
     stop-opacity=".2"
     offset="0"
     id="stop101-8" /><stop
     stop-color="#263238"
     stop-opacity="0"
     offset="1"
     id="stop103-1" /></radialGradient><clipPath
   id="clipPath1099-0"><use
     y="0"
     x="0"
     style="overflow:visible"
     width="100%"
     overflow="visible"
     xlink:href="#a"
     height="100%"
     id="use1097-3" /></clipPath><clipPath
   id="clipPath1103-0"><use
     y="0"
     x="0"
     style="overflow:visible"
     width="100%"
     overflow="visible"
     xlink:href="#a"
     height="100%"
     id="use1101-4" /></clipPath><clipPath
   id="clipPath1107-4"><use
     y="0"
     x="0"
     style="overflow:visible"
     width="100%"
     overflow="visible"
     xlink:href="#a"
     height="100%"
     id="use1105-4" /></clipPath><clipPath
   id="clipPath1111-4"><use
     y="0"
     x="0"
     style="overflow:visible"
     width="100%"
     overflow="visible"
     xlink:href="#a"
     height="100%"
     id="use1109-7" /></clipPath><radialGradient
   id="r-63"
   gradientUnits="userSpaceOnUse"
   cy="32.014"
   cx="34.285999"
   gradientTransform="translate(-7,-7)"
   r="176.75"><stop
     stop-color="#fff"
     stop-opacity=".1"
     offset="0"
     id="stop130-17" /><stop
     stop-color="#fff"
     stop-opacity="0"
     offset="1"
     id="stop132-5" /></radialGradient><path
   inkscape:connector-curvature="0"
   d="m 8,184 h 83.77 l 38.88,-38.88 V 116 H 61.36 L 8,24.48 Z"
   id="e-9" /><path
   inkscape:connector-curvature="0"
   d="m 96,56 34.65,60 -38.88,68 H 184 V 56 Z"
   id="i-6" /><path
   inkscape:connector-curvature="0"
   d="M 21.97,8 V 48.34 L 61.36,116 96,56 h 88 V 8 Z"
   id="m-2" /><filter
   y="-0.25"
   height="1.5"
   inkscape:menu-tooltip="Darkens the edge with an inner blur and adds a flexible glow"
   inkscape:menu="Shadows and Glows"
   inkscape:label="Dark and Glow"
   style="color-interpolation-filters:sRGB;"
   id="filter1161"><feGaussianBlur
     stdDeviation="5"
     result="result6"
     id="feGaussianBlur1151" /><feComposite
     result="result8"
     in="SourceGraphic"
     operator="atop"
     in2="result6"
     id="feComposite1153" /><feComposite
     result="result9"
     operator="over"
     in2="SourceAlpha"
     in="result8"
     id="feComposite1155" /><feColorMatrix
     values="1 0 0 0 0 0 1 0 0 0 0 0 1 0 0 0 0 0 1 0 "
     result="result10"
     id="feColorMatrix1157" /><feBlend
     in="result10"
     mode="normal"
     in2="result6"
     id="feBlend1159" /></filter><filter
   inkscape:label="Inset"
   inkscape:menu="Shadows and Glows"
   inkscape:menu-tooltip="Shadowy outer bevel"
   style="color-interpolation-filters:sRGB;"
   id="filter1179"><feMorphology
     result="result1"
     in="SourceAlpha"
     operator="dilate"
     radius="3.6"
     id="feMorphology1167" /><feGaussianBlur
     stdDeviation="3.6"
     in="result1"
     result="result0"
     id="feGaussianBlur1169" /><feDiffuseLighting
     surfaceScale="-5"
     id="feDiffuseLighting1173"><feDistantLight
       elevation="45"
       azimuth="225"
       id="feDistantLight1171" /></feDiffuseLighting><feComposite
     in2="result0"
     operator="in"
     result="result91"
     id="feComposite1175" /><feComposite
     in="SourceGraphic"
     in2="result91"
     id="feComposite1177" /></filter><clipPath
   clipPathUnits="userSpaceOnUse"
   id="clipPath1201"><rect
     style="display:inline;fill:#d38d5f;fill-opacity:1;stroke:none;stroke-width:3.15937901;stroke-linecap:butt;stroke-linejoin:bevel;stroke-miterlimit:4;stroke-dasharray:none;stroke-opacity:1;paint-order:fill markers stroke"
     id="rect1203"
     width="200"
     height="240"
     x="-219.50002"
     y="-92.5"
     ry="19.5"
     transform="scale(-1)" /></clipPath><clipPath
   clipPathUnits="userSpaceOnUse"
   id="clipPath1201-3"><rect
     style="display:inline;fill:#d38d5f;fill-opacity:1;stroke:none;stroke-width:3.15937901;stroke-linecap:butt;stroke-linejoin:bevel;stroke-miterlimit:4;stroke-dasharray:none;stroke-opacity:1;paint-order:fill markers stroke"
     id="rect1203-6"
     width="200"
     height="240"
     x="-219.50002"
     y="-92.5"
     ry="19.5"
     transform="scale(-1)" /></clipPath><filter
   inkscape:label="Inset"
   inkscape:menu="Shadows and Glows"
   inkscape:menu-tooltip="Shadowy outer bevel"
   style="color-interpolation-filters:sRGB"
   id="filter1179-7"><feMorphology
     result="result1"
     in="SourceAlpha"
     operator="dilate"
     radius="3.6"
     id="feMorphology1167-5" /><feGaussianBlur
     stdDeviation="3.6"
     in="result1"
     result="result0"
     id="feGaussianBlur1169-3" /><feDiffuseLighting
     surfaceScale="-5"
     id="feDiffuseLighting1173-5"><feDistantLight
       elevation="45"
       azimuth="225"
       id="feDistantLight1171-6" /></feDiffuseLighting><feComposite
     in2="result0"
     operator="in"
     result="result91"
     id="feComposite1175-2" /><feComposite
     in="SourceGraphic"
     in2="result91"
     id="feComposite1177-9" /></filter><linearGradient
   gradientTransform="matrix(0.25,0,0,0.25,-236.5,131)"
   id="XMLID_4_-5"
   gradientUnits="userSpaceOnUse"
   x1="29.0532"
   y1="29.0532"
   x2="226.9471"
   y2="226.9471"><stop
     offset="0"
     style="stop-color: rgb(255, 255, 255);"
     id="stop4106-9" /><stop
     offset="1"
     style="stop-color: rgb(218, 218, 218);"
     id="stop4107-7" /><a:midPointStop
     offset="0"
     style="stop-color:#FFFFFF"
     id="midPointStop4108" /><a:midPointStop
     offset="0.5"
     style="stop-color:#FFFFFF"
     id="midPointStop4109" /><a:midPointStop
     offset="1"
     style="stop-color:#DADADA"
     id="midPointStop4110" /></linearGradient><linearGradient
   gradientTransform="matrix(0.25,0,0,0.25,-236.75,131)"
   id="XMLID_3_-6"
   gradientUnits="userSpaceOnUse"
   x1="128.9995"
   y1="11"
   x2="128.9995"
   y2="245.0005"><stop
     offset="0"
     style="stop-color: rgb(73, 73, 73);"
     id="stop4098-0" /><stop
     offset="1"
     style="stop-color: rgb(0, 0, 0);"
     id="stop4099-9" /><a:midPointStop
     offset="0"
     style="stop-color:#494949"
     id="midPointStop4100" /><a:midPointStop
     offset="0.5"
     style="stop-color:#494949"
     id="midPointStop4101" /><a:midPointStop
     offset="1"
     style="stop-color:#000000"
     id="midPointStop4102" /></linearGradient></defs><sodipodi:namedview
   pagecolor="#ffffff"
   bordercolor="#666666"
   borderopacity="1"
   objecttolerance="10"
   gridtolerance="10"
   guidetolerance="10"
   inkscape:pageopacity="0"
   inkscape:pageshadow="2"
   inkscape:window-width="1920"
   inkscape:window-height="1019"
   id="namedview249"
   showgrid="false"
   inkscape:zoom="2.8284271"
   inkscape:cx="53.540865"
   inkscape:cy="116.37538"
   inkscape:window-x="0"
   inkscape:window-y="27"
   inkscape:window-maximized="0"
   inkscape:current-layer="layer1"
   inkscape:pagecheckerboard="true" />

<g
   inkscape:groupmode="layer"
   id="layer2"
   inkscape:label="Background"
   style="display:none"><circle
     style="display:inline;fill:#ffffff;fill-opacity:1;stroke:none;stroke-width:2.74049902;stroke-miterlimit:4;stroke-dasharray:none;stroke-opacity:1"
     id="path1090"
     cx="128"
     cy="128"
     r="124" /></g><g
   inkscape:groupmode="layer"
   id="layer1"
   inkscape:label="Icon"
   style="display:inline"><path
     style="display:inline;fill:#f9f9f9;fill-opacity:1;stroke:none;stroke-width:3.15937901;stroke-linecap:butt;stroke-linejoin:bevel;stroke-miterlimit:4;stroke-dasharray:none;stroke-opacity:1;paint-order:fill markers stroke;filter:url(#filter1179)"
     d="m 43,-143.5 h 161 c 10.803,0 19.5,8.697 19.5,19.5 V 77 c 0,10.803 -8.697,19.5 -19.5,19.5 H 43 C 32.197,96.5 23.5,87.803 23.5,77 v -201 c 0,-10.803 8.697,-19.5 19.5,-19.5 z"
     transform="rotate(180,123.75001,50.25)"
     id="rect1096-9"
     inkscape:connector-curvature="0"
     clip-path="url(#clipPath1201)" /><path
     style="display:inline;fill:#f9f9f9;fill-opacity:1;stroke:none;stroke-width:3.15937901;stroke-linecap:butt;stroke-linejoin:bevel;stroke-miterlimit:4;stroke-dasharray:none;stroke-opacity:1;paint-order:fill markers stroke"
     d="m 43,-143.5 h 161 c 10.803,0 19.5,8.697 19.5,19.5 V 77 c 0,10.803 -8.697,19.5 -19.5,19.5 H 43 C 32.197,96.5 23.5,87.803 23.5,77 v -201 c 0,-10.803 8.697,-19.5 19.5,-19.5 z"
     transform="rotate(180,123.75001,50.25)"
     id="rect1096-9-1"
     inkscape:connector-curvature="0"
     clip-path="url(#clipPath1201-3)" /><g
     id="g1146"
     transform="matrix(1.3379039,0,0,1.3379039,-46.615693,-50.685793)"><flowRoot
       xml:space="preserve"
       id="flowRoot851"
       style="font-style:normal;font-weight:normal;font-size:40px;line-height:1.25;font-family:sans-serif;letter-spacing:0px;word-spacing:0px;display:inline;fill:#0068bf;fill-opacity:1;stroke:none"
       transform="translate(84.94155,220.51444)"><flowRegion
         style="fill:#0068bf;fill-opacity:1"
         id="flowRegion853"><rect
           style="fill:#0068bf;fill-opacity:1"
           id="rect855"
           width="143.8"
           height="87.199997"
           x="41.599998"
           y="-64.400002" /></flowRegion><flowPara
         id="flowPara857"
         style="font-style:normal;font-variant:normal;font-weight:normal;font-stretch:normal;font-size:32px;font-family:'Star Labs';-inkscape-font-specification:'Star Labs';fill:#0068bf;fill-opacity:1">.vala</flowPara></flowRoot><path
       inkscape:connector-curvature="0"
       style="font-style:normal;font-variant:normal;font-weight:normal;font-stretch:normal;font-size:12.80000019px;font-family:'Bitstream Vera Sans Mono';-inkscape-font-specification:'Bitstream Vera Sans Mono';fill:#808080;fill-opacity:1;stroke:none;stroke-width:2.72919679"
       d="m 74.9086,72.266774 v 0.511724 h 1.19404 v 4.093795 c 0,0.517046 0.10132,0.911509 0.34114,1.194006 0.24255,0.282523 0.58367,0.426446 1.02345,0.426446 h 0.93817 v -0.597004 h -0.8529 c -0.23718,0 -0.38911,-0.08802 -0.51172,-0.255862 -0.12,-0.167845 -0.17066,-0.437115 -0.17066,-0.767586 v -4.605519 z m 59.10417,0 v 0.511724 h 1.19403 v 4.093795 c 0,0.517046 0.10132,0.911509 0.34114,1.194006 0.24256,0.282523 0.5837,0.426446 1.02345,0.426446 h 0.93817 v -0.597004 h -0.85289 c -0.23719,0 -0.38912,-0.08802 -0.51173,-0.255862 -0.12,-0.167845 -0.17066,-0.437115 -0.17066,-0.767586 v -4.605519 z m 4.94666,0 v 0.511724 h 1.19403 v 4.093795 c 0,0.517046 0.10132,0.911509 0.34114,1.194006 0.24256,0.282523 0.5837,0.426446 1.02345,0.426446 h 0.93817 v -0.597004 h -0.85287 c -0.23718,0 -0.38914,-0.08802 -0.51172,-0.255862 -0.12,-0.167845 -0.17066,-0.437115 -0.17066,-0.767586 v -4.605519 z m 24.64807,0 v 0.511724 h 1.19401 v 4.093795 c 0,0.517046 0.10132,0.911509 0.34116,1.194006 0.24256,0.282523 0.58368,0.426446 1.02345,0.426446 h 0.93815 v -0.597004 h -0.85287 c -0.23718,0 -0.38911,-0.08802 -0.51172,-0.255862 -0.12,-0.167845 -0.25587,-0.437115 -0.25587,-0.767586 v -4.605519 z m 7.67587,0 v 2.302759 c -0.11719,-0.221321 -0.22133,-0.397124 -0.42645,-0.511724 -0.2052,-0.117185 -0.49839,-0.17066 -0.76759,-0.17066 -0.53838,0 -0.96746,0.266531 -1.27931,0.682307 -0.31182,0.413115 -0.42644,0.978136 -0.42644,1.705731 0,0.738265 0.11718,1.284659 0.42644,1.705757 0.31185,0.418437 0.73827,0.682307 1.27931,0.682307 0.26653,0 0.56502,-0.05603 0.76759,-0.17066 0.2052,-0.117185 0.30384,-0.290506 0.42645,-0.511724 v 0.511724 h 0.76758 V 72.26662 Z m -71.812,0.255862 v 5.970109 h 1.19403 c 0.91151,0 1.61513,-0.199829 2.0469,-0.682308 0.43177,-0.485064 0.68228,-1.284633 0.68228,-2.30276 0,-1.023448 -0.25049,-1.732391 -0.68228,-2.217455 -0.43177,-0.485063 -1.13539,-0.767586 -2.0469,-0.767586 z m 24.64805,0 v 5.970109 h 0.76759 v -2.814484 h 2.21748 v 2.814484 h 0.85286 v -5.970109 h -0.85286 v 2.473317 h -2.21748 v -2.473317 z m 24.05104,0 0.93817,5.970109 h 0.76759 l 0.76759,-3.496792 0.85286,3.496792 h 0.76759 l 0.85289,-5.970109 h -0.76759 l -0.59702,4.861381 -0.68229,-3.240929 h -0.85289 l -0.68228,3.240929 -0.59703,-4.861381 z m -47.84622,0.682282 h 0.34116 c 0.68229,0 1.18337,0.176033 1.44987,0.511724 0.2692,0.333158 0.42645,0.908848 0.42645,1.791035 0,0.874205 -0.15736,1.540521 -0.42645,1.87634 -0.26916,0.333158 -0.77024,0.42642 -1.44987,0.42642 h -0.34116 z m -27.97426,0.682307 c -0.69295,0 -1.22867,0.266532 -1.62045,0.682308 -0.38914,0.415776 -0.59703,0.970127 -0.59703,1.705731 0,0.735604 0.20802,1.28998 0.59703,1.705756 0.39178,0.415776 0.9275,0.682308 1.62045,0.682308 0.21851,0 0.47442,-0.02687 0.68231,-0.0852 0.21057,-0.05603 0.39978,-0.141236 0.597,-0.255862 v -0.767587 c -0.17322,0.165287 -0.39446,0.261184 -0.597,0.341167 -0.20264,0.07727 -0.42645,0.0852 -0.68231,0.0852 -0.45843,0 -0.77291,-0.127931 -1.02345,-0.426446 -0.24793,-0.301149 -0.42644,-0.727595 -0.42644,-1.279311 0,-0.554351 0.17859,-0.980796 0.42644,-1.27931 0.24793,-0.298489 0.56236,-0.42642 1.02345,-0.42642 0.24793,0 0.48773,0.0077 0.68231,0.0852 0.19727,0.07727 0.40245,0.253303 0.597,0.426445 v -0.852891 c -0.20801,-0.117185 -0.3918,-0.199828 -0.597,-0.255862 -0.2052,-0.05603 -0.46644,-0.0852 -0.68231,-0.0852 z m 9.21104,0 c -0.23463,0 -0.43177,0.03198 -0.68231,0.0852 -0.24793,0.05066 -0.49573,0.151982 -0.76758,0.255862 v 0.767586 c 0.24255,-0.138677 0.51172,-0.269167 0.76758,-0.341141 0.25586,-0.0719 0.43177,-0.0852 0.68231,-0.0852 0.39178,0 0.6743,0.09339 0.85287,0.255862 0.17859,0.159914 0.33848,0.410429 0.34116,0.767587 v 0.0852 H 81.7316 c -0.64766,0 -1.11407,0.167846 -1.44989,0.426445 -0.33316,0.258524 -0.51173,0.610334 -0.51173,1.108728 0,0.431767 0.15455,0.764926 0.42645,1.023449 0.27185,0.255862 0.65296,0.426445 1.10873,0.426445 0.34114,0 0.61565,-0.13049 0.85286,-0.255862 0.23975,-0.127931 0.43978,-0.330497 0.59703,-0.597029 v 0.682385 h 0.68228 V 75.93412 c 0,-0.391776 0.0427,-0.658308 0,-0.852866 -0.0427,-0.197269 -0.15454,-0.378471 -0.25586,-0.511724 -0.16247,-0.218506 -0.33316,-0.402446 -0.597,-0.511724 -0.26119,-0.109253 -0.65299,-0.17066 -1.02345,-0.17066 z m 5.11724,0 c -0.53838,0 -0.90352,0.191897 -1.19403,0.426446 -0.2905,0.231811 -0.42642,0.509063 -0.42642,0.938144 0,0.338506 0.0611,0.655647 0.25586,0.852891 0.19446,0.194455 0.51439,0.258523 0.93815,0.341141 l 0.25586,0.0852 h 0.0852 c 0.65296,0.13049 0.93815,0.426446 0.93815,0.767587 0,0.237184 -0.0773,0.378471 -0.25587,0.511724 -0.17859,0.13049 -0.44241,0.17066 -0.76758,0.17066 -0.22388,0 -0.43177,-0.01535 -0.68228,-0.0852 -0.25049,-0.0719 -0.57835,-0.199828 -0.8529,-0.341166 v 0.767586 c 0.28253,0.09339 0.61034,0.210575 0.8529,0.255862 0.24255,0.0481 0.46106,0.0852 0.68228,0.0852 0.5597,0 0.96483,-0.178591 1.27931,-0.426445 0.3145,-0.250489 0.51172,-0.581012 0.51172,-1.023449 0,-0.333158 -0.15198,-0.644977 -0.34114,-0.852865 -0.18652,-0.208016 -0.40244,-0.271854 -0.76758,-0.341167 l -0.34115,-0.0852 c -0.48775,-0.09339 -0.81556,-0.157355 -0.93817,-0.255862 -0.12255,-0.09851 -0.17066,-0.311819 -0.17066,-0.511725 0,-0.221064 0.0934,-0.319827 0.25587,-0.426445 0.16528,-0.109253 0.43443,-0.17066 0.76758,-0.17066 0.22132,0 0.4691,0.02303 0.68231,0.0852 0.21313,0.06141 0.38646,0.133304 0.597,0.255862 v -0.682307 c -0.21313,-0.08802 -0.46108,-0.213134 -0.68228,-0.255863 -0.22132,-0.04529 -0.44243,-0.0852 -0.68231,-0.0852 z m 4.94666,0 c -0.53836,0 -0.9888,0.191897 -1.27931,0.426446 -0.2905,0.231811 -0.42642,0.509063 -0.42642,0.938144 0,0.338506 0.14661,0.655647 0.34114,0.852891 0.19446,0.194455 0.51439,0.258523 0.93817,0.341141 l 0.25587,0.0852 c 0.65296,0.13049 1.02344,0.426446 1.02344,0.767587 0,0.237184 -0.0773,0.378471 -0.25586,0.511724 -0.17859,0.13049 -0.44243,0.17066 -0.76758,0.17066 -0.22388,0 -0.51708,-0.01535 -0.76759,-0.0852 -0.25049,-0.0719 -0.49307,-0.199828 -0.76759,-0.341166 v 0.767586 c 0.2825,0.09339 0.52503,0.210575 0.76759,0.255862 0.24256,0.0481 0.54637,0.0852 0.76759,0.0852 0.55969,0 0.9648,-0.178591 1.27931,-0.426445 0.31448,-0.250489 0.42642,-0.581012 0.42642,-1.023449 0,-0.333158 -0.0665,-0.644977 -0.25587,-0.852865 -0.18652,-0.208016 -0.48772,-0.271854 -0.85286,-0.341167 l -0.25586,-0.0852 c -0.48775,-0.09339 -0.81556,-0.157355 -0.93817,-0.255862 -0.12256,-0.09851 -0.17066,-0.311819 -0.17066,-0.511725 0,-0.221064 0.0934,-0.319827 0.25586,-0.426445 0.16529,-0.109253 0.43443,-0.17066 0.76759,-0.17066 0.22132,0 0.38379,0.02303 0.597,0.0852 0.21313,0.06141 0.47173,0.133304 0.68231,0.255862 v -0.682307 c -0.21314,-0.08802 -0.46109,-0.213134 -0.68231,-0.255863 -0.22132,-0.04529 -0.44244,-0.0852 -0.68231,-0.0852 z m 14.84001,0 c -0.63966,0 -1.15138,0.255863 -1.53517,0.682308 -0.3838,0.42642 -0.59701,0.991466 -0.59701,1.705731 0,0.732943 0.20521,1.287319 0.59701,1.705756 0.3918,0.415776 0.92484,0.682308 1.62047,0.682308 0.24256,0 0.50904,-0.02687 0.76759,-0.0852 0.26119,-0.05603 0.573,-0.141236 0.85287,-0.255862 v -0.767587 c -0.29051,0.151982 -0.59701,0.266532 -0.85287,0.341167 -0.25586,0.07471 -0.53306,0.0852 -0.76759,0.0852 -0.46375,0 -0.76758,-0.07471 -1.02344,-0.341141 -0.25331,-0.266532 -0.42645,-0.706308 -0.42645,-1.194032 h 3.24093 v -0.341141 c 0,-0.668977 -0.18115,-1.233998 -0.51172,-1.620478 -0.32784,-0.386454 -0.79425,-0.597003 -1.36462,-0.597003 z m 4.1791,0 c -0.16785,0 -0.29319,0.0852 -0.42645,0.170661 -0.13049,0.08264 -0.2533,0.18115 -0.34114,0.341141 v -0.341141 h -0.6823 v 4.434859 h 0.6823 v -2.558622 c 0,-0.610334 0.0102,-0.946153 0.0852,-1.108728 0.0773,-0.165287 0.23182,-0.255862 0.42645,-0.255862 0.19727,0 0.35181,0.02047 0.42642,0.17066 0.0773,0.149168 0.0852,0.554377 0.0852,1.194032 v 2.558622 h 0.68231 v -2.558622 c -3e-5,-0.610333 0.0934,-0.946153 0.17066,-1.108727 0.0798,-0.165287 0.21313,-0.255863 0.42645,-0.255863 0.18652,0 0.27185,0.01535 0.34114,0.170661 0.0719,0.151982 0.17066,0.562385 0.17066,1.194032 v 2.558621 h 0.597 v -2.558621 c 0,-0.770248 -0.0205,-1.343277 -0.17066,-1.620452 -0.14661,-0.279862 -0.40777,-0.426446 -0.76759,-0.426446 -0.19727,0 -0.37046,0.07727 -0.51172,0.17066 -0.13868,0.09058 -0.25049,0.234626 -0.34114,0.42642 -0.0747,-0.189338 -0.2052,-0.333132 -0.34114,-0.42642 -0.13331,-0.09339 -0.30919,-0.17066 -0.51173,-0.17066 z m 5.54366,0 c -0.621,0 -1.12206,0.279862 -1.44987,0.682308 -0.32783,0.402446 -0.51172,0.943492 -0.51172,1.705731 0,0.764925 0.18396,1.38859 0.51172,1.791035 0.32781,0.399785 0.82887,0.597029 1.44987,0.597029 0.62367,0 1.12206,-0.19727 1.4499,-0.597029 0.32781,-0.402445 0.42644,-1.02611 0.42644,-1.791035 0,-0.762239 -0.096,-1.303285 -0.42644,-1.705731 -0.32784,-0.402446 -0.82889,-0.682308 -1.4499,-0.682308 z m 14.92531,0 c -0.63965,0 -1.15138,0.255863 -1.53517,0.682308 -0.38379,0.42642 -0.59703,0.991466 -0.59703,1.705731 0,0.732943 0.2052,1.287319 0.59703,1.705756 0.39178,0.415776 0.92481,0.682308 1.62045,0.682308 0.24256,0 0.50907,-0.02687 0.76759,-0.0852 0.26118,-0.05603 0.48772,-0.141236 0.76759,-0.255862 v -0.767587 c -0.29051,0.151982 -0.51173,0.266532 -0.76759,0.341167 -0.25586,0.07471 -0.53304,0.0852 -0.76759,0.0852 -0.46375,0 -0.85286,-0.07471 -1.10873,-0.341141 -0.2533,-0.266532 -0.34116,-0.706308 -0.34116,-1.194032 h 3.15565 v -0.341141 c 0,-0.668977 -0.096,-1.233998 -0.42645,-1.620478 -0.32783,-0.386454 -0.79424,-0.597003 -1.36459,-0.597003 z m 14.58415,0 c -0.62101,0 -1.03678,0.279862 -1.36462,0.682308 -0.32781,0.402446 -0.51172,0.943492 -0.51172,1.705731 0,0.764925 0.18396,1.38859 0.51172,1.791035 0.32784,0.399785 0.74361,0.597029 1.36462,0.597029 0.62366,0 1.12206,-0.19727 1.44987,-0.597029 0.32783,-0.402445 0.51172,-1.02611 0.51172,-1.791035 0,-0.762239 -0.18115,-1.303285 -0.51172,-1.705731 -0.32781,-0.402446 -0.82887,-0.682308 -1.44987,-0.682308 z m 9.89332,0 c -0.62098,0 -1.12206,0.279862 -1.44987,0.682308 -0.32784,0.402446 -0.51172,0.943492 -0.51172,1.705731 0,0.764925 0.18396,1.38859 0.51172,1.791035 0.32781,0.399785 0.82889,0.597029 1.44987,0.597029 0.62369,0 1.12208,-0.19727 1.44989,-0.597029 0.32784,-0.402445 0.42645,-1.02611 0.42645,-1.791035 0,-0.762239 -0.096,-1.303285 -0.42645,-1.705731 -0.32781,-0.402446 -0.82889,-0.682308 -1.44989,-0.682308 z m 6.14069,0 c -0.34912,0 -0.68228,0.0852 -0.93814,0.255863 -0.25331,0.167845 -0.47442,0.450419 -0.59703,0.767586 v -0.852865 h -0.68228 v 4.434936 h 0.68228 v -2.217481 c 0,-0.543707 0.18396,-0.991466 0.42644,-1.279311 0.24256,-0.287845 0.56502,-0.42642 1.02345,-0.42642 0.19446,0 0.34915,0.02942 0.51173,0.0852 0.16247,0.05603 0.35447,0.218507 0.51172,0.341141 V 74.22829 c -0.14405,-0.09595 -0.26919,-0.210575 -0.42645,-0.255862 -0.15735,-0.04529 -0.33047,-0.0852 -0.51172,-0.0852 z m 17.99566,0.341141 v 1.279311 h 0.93817 v -1.279311 z m -73.26189,0.341167 c 0.36248,0 0.57569,0.114626 0.76759,0.341141 0.19471,0.22388 0.33047,0.506403 0.34116,0.93817 h -2.38806 c 0.0427,-0.415776 0.11207,-0.703621 0.34117,-0.93817 0.22925,-0.234625 0.58367,-0.341141 0.93814,-0.341141 z m 9.72276,0 c 0.37581,0 0.661,0.135863 0.85289,0.42642 0.1919,0.290532 0.25587,0.708969 0.25587,1.279311 0,0.567707 -0.064,0.986144 -0.25587,1.279311 -0.19189,0.290531 -0.47708,0.426445 -0.85289,0.426445 -0.37312,0 -0.66097,-0.135863 -0.85286,-0.426445 -0.1919,-0.293167 -0.25586,-0.711604 -0.25586,-1.279311 0,-0.570342 0.064,-0.988779 0.25586,-1.279311 0.19189,-0.290506 0.47974,-0.42642 0.85286,-0.42642 z m 14.84001,0 c 0.36248,0 0.66099,0.114626 0.85289,0.341141 0.19446,0.22388 0.33047,0.506403 0.34114,0.93817 h -2.47334 c 0.0427,-0.415776 0.19727,-0.703621 0.42644,-0.93817 0.22926,-0.234625 0.4984,-0.341141 0.85287,-0.341141 z m 14.66945,0 c 0.37578,0 0.66097,0.135863 0.85286,0.42642 0.1919,0.290532 0.34114,0.708969 0.34114,1.279311 0,0.567707 -0.14916,0.986144 -0.34114,1.279311 -0.19189,0.290531 -0.47708,0.426445 -0.85286,0.426445 -0.37313,0 -0.66097,-0.135863 -0.85289,-0.426445 -0.1919,-0.293167 -0.25587,-0.711604 -0.25587,-1.279311 0,-0.570342 0.064,-0.988779 0.25587,-1.279311 0.19189,-0.290506 0.47976,-0.42642 0.85289,-0.42642 z m 9.89332,0 c 0.37581,0 0.66099,0.135863 0.85289,0.42642 0.1919,0.290532 0.25586,0.708969 0.25586,1.279311 0,0.567707 -0.064,0.986144 -0.25586,1.279311 -0.1919,0.290531 -0.47708,0.426445 -0.85289,0.426445 -0.37313,0 -0.66097,-0.135863 -0.85287,-0.426445 -0.19189,-0.293167 -0.25586,-0.711604 -0.25586,-1.279311 0,-0.570342 0.064,-0.988779 0.25586,-1.279311 0.1919,-0.290506 0.47974,-0.42642 0.85287,-0.42642 z m 14.66945,0 c 0.35447,0 0.58367,0.133304 0.76758,0.42642 0.18653,0.290532 0.25587,0.711629 0.25587,1.279311 0,0.565046 -0.0693,0.986144 -0.25587,1.279311 -0.18396,0.293192 -0.41311,0.426445 -0.76758,0.426445 -0.35447,0 -0.67164,-0.135863 -0.85289,-0.426445 -0.18115,-0.290506 -0.25587,-0.708943 -0.25587,-1.279311 0,-0.570342 0.0747,-0.988779 0.25587,-1.279311 0.18115,-0.290506 0.49842,-0.42642 0.85289,-0.42642 z m -89.04004,1.705731 c 0.16196,-0.03787 0.38246,0 0.597,0 h 0.25586 0.68231 v 0.17066 c -0.003,0.495733 -0.10925,0.82623 -0.34116,1.108728 -0.23182,0.279862 -0.61832,0.426445 -1.02345,0.426445 -0.28785,0 -0.51971,-0.02047 -0.68229,-0.17066 -0.16247,-0.149168 -0.17066,-0.413115 -0.17066,-0.682282 0,-0.298515 0.0399,-0.533063 0.25587,-0.682308 0.10925,-0.07599 0.26451,-0.132536 0.42644,-0.17066 z m 39.40277,1.023449 v 1.194032 h 0.93815 v -1.194032 z m 59.10417,0 v 1.194032 h 0.93817 v -1.194032 z m -98.33638,5.202548 v 0.938144 h 0.76758 v -0.938144 z m 3.49679,0 v 6.225971 h 0.76758 v -0.511725 c 0.12256,0.221321 0.30916,0.394463 0.51173,0.511725 0.2052,0.114626 0.41578,0.17066 0.68231,0.17066 0.54102,0 0.97012,-0.263871 1.27931,-0.682308 0.31182,-0.421098 0.5117,-0.967492 0.51172,-1.705756 -2e-5,-0.727596 -0.20264,-1.292616 -0.51172,-1.705731 -0.30919,-0.415776 -0.74095,-0.682308 -1.27931,-0.682308 -0.27186,0 -0.47442,0.05322 -0.68231,0.17066 -0.2052,0.117185 -0.39446,0.293167 -0.51173,0.511725 v -2.30276 z m 14.84,0 v 6.225971 h 0.68231 v -0.511725 c 0.12256,0.221321 0.30916,0.394463 0.51173,0.511725 0.2052,0.114626 0.41577,0.17066 0.68228,0.17066 0.54104,0 0.97015,-0.263871 1.27931,-0.682308 0.31184,-0.421098 0.51172,-0.967492 0.51172,-1.705756 0,-0.727596 -0.20264,-1.292616 -0.51172,-1.705731 -0.30916,-0.415776 -0.74093,-0.682308 -1.27931,-0.682308 -0.27185,0 -0.4744,0.05322 -0.68228,0.17066 -0.2052,0.117185 -0.39447,0.293167 -0.51173,0.511725 v -2.30276 z m 6.56714,0 v 0.938144 h 0.68228 v -0.938144 z m 26.01264,0 c -0.66363,0 -1.13805,0.14405 -1.36459,0.341141 -0.22388,0.194455 -0.34114,0.605011 -0.34114,1.194032 v 0.938144 c 0,0.399785 -0.0292,0.615681 -0.17066,0.767586 -0.14124,0.151983 -0.47708,0.255863 -0.85287,0.255863 h -0.17066 v 0.597028 h 0.17066 c 0.37313,0 0.71161,0.101322 0.85287,0.255863 0.14405,0.15454 0.17066,0.36514 0.17066,0.767586 v 1.023449 c 0,0.588995 0.11718,0.911509 0.34114,1.108727 0.22644,0.19727 0.70096,0.341141 1.36462,0.341141 h 0.25586 v -0.597003 h -0.34117 c -0.37312,0 -0.56768,-0.05603 -0.68231,-0.17066 -0.11181,-0.114626 -0.17066,-0.386454 -0.17066,-0.767586 v -0.938145 c 3e-5,-0.415776 -0.0507,-0.748934 -0.17066,-0.938169 -0.12,-0.189338 -0.38645,-0.269193 -0.6823,-0.341142 0.29319,-0.06652 0.56236,-0.237184 0.6823,-0.426445 0.12256,-0.189338 0.17066,-0.519707 0.17066,-0.93817 v -0.938144 c 0,-0.378471 0.0586,-0.652986 0.17066,-0.767587 0.11463,-0.117185 0.30916,-0.17066 0.68231,-0.17066 h 0.34114 v -0.597003 z m -60.12761,0.17066 c -0.75958,2.5e-5 -1.36459,0.306523 -1.79104,0.852891 -0.42642,0.543707 -0.597,1.24198 -0.597,2.217455 0,0.978161 0.17603,1.759052 0.597,2.302759 0.42113,0.541047 1.03412,0.852891 1.79104,0.852891 0.3145,0 0.5837,-0.06934 0.85289,-0.17066 0.27185,-0.10388 0.55169,-0.311845 0.76759,-0.511724 V 85.656911 H 72.1794 v 0.682308 h 0.85289 v 1.620426 c -0.10925,0.08802 -0.2052,0.127931 -0.34117,0.17066 -0.1333,0.03991 -0.33316,0.0852 -0.51172,0.0852 -0.52772,0 -0.93815,-0.199828 -1.19401,-0.597003 -0.2533,-0.399785 -0.34116,-1.047448 -0.34116,-1.87634 0,-0.81556 0.0801,-1.385903 0.34116,-1.791035 0.26385,-0.407767 0.66895,-0.597003 1.19401,-0.597003 0.2533,0 0.54104,-0.01279 0.76758,0.0852 0.22644,0.09595 0.46642,0.306523 0.68231,0.511724 V 83.09826 c -0.21313,-0.143795 -0.45308,-0.271854 -0.68231,-0.341141 -0.22925,-0.0719 -0.51704,-0.0852 -0.76758,-0.0852 z m 24.30691,0 c -0.67164,2.5e-5 -1.20468,0.255862 -1.53518,0.767586 -0.32781,0.51175 -0.51172,1.260659 -0.51172,2.30276 0,1.044787 0.18396,1.879 0.51172,2.388064 0.32784,0.509063 0.86088,0.767586 1.53518,0.767586 0.67429,0 1.12205,-0.255862 1.44989,-0.767586 0.3305,-0.511725 0.51172,-1.348624 0.51172,-2.388064 0,-1.042101 -0.18115,-1.79101 -0.51172,-2.30276 -0.32784,-0.511699 -0.7756,-0.767561 -1.44989,-0.767586 z m -21.32184,0.0852 v 5.970109 h 3.66735 v -0.682308 h -2.81449 v -5.287801 z m 45.20232,0.255862 v 1.279311 h -1.19403 v 0.511724 h 1.19403 v 2.473317 c 0,0.541047 0.11463,0.887535 0.34114,1.108754 0.22644,0.22132 0.64232,0.341141 1.19404,0.341141 h 0.85286 v -0.597004 h -0.85286 c -0.31185,0 -0.47176,-0.03991 -0.59703,-0.17066 -0.12538,-0.130489 -0.25587,-0.35181 -0.25587,-0.682307 v -2.473318 h 1.70576 v -0.511724 h -1.70576 v -1.279311 z m -23.88048,0.341141 c 0.41045,0 0.67429,0.135863 0.85289,0.511724 0.18115,0.375811 0.25586,0.999475 0.25586,1.876314 0,0.876866 -0.0747,1.50053 -0.25586,1.87634 -0.1786,0.373124 -0.44244,0.597003 -0.85289,0.597003 -0.40777,0 -0.75692,-0.22132 -0.93815,-0.597003 -0.17859,-0.37581 -0.25586,-1.002135 -0.25586,-1.87634 0,-0.876839 0.0773,-1.500503 0.25586,-1.876314 0.18115,-0.375784 0.53038,-0.511724 0.93815,-0.511724 z m 14.92531,0.767587 c -0.63966,0 -1.15138,0.255862 -1.53518,0.682307 -0.38379,0.42642 -0.59703,0.991466 -0.59703,1.705731 0,0.732943 0.20521,1.287319 0.59703,1.705756 0.39178,0.415776 0.92482,0.682308 1.62045,0.682308 0.24256,0 0.50907,-0.02687 0.76759,-0.0852 0.26119,-0.05603 0.48773,-0.141236 0.76759,-0.255862 v -0.767587 c -0.29051,0.151982 -0.51173,0.266532 -0.76759,0.341167 -0.25586,0.07471 -0.53304,0.0852 -0.76759,0.0852 -0.46375,0 -0.85286,-0.07471 -1.10872,-0.341141 -0.25331,-0.266532 -0.34117,-0.706282 -0.34117,-1.194032 h 3.15565 v -0.341141 c 0,-0.668977 -0.096,-1.233998 -0.42644,-1.620478 -0.32784,-0.386454 -0.79425,-0.597003 -1.36459,-0.597003 z m 5.2878,0 c -0.69295,0 -1.22865,0.266531 -1.62045,0.682307 -0.38912,0.415776 -0.59701,0.970127 -0.59701,1.705731 0,0.735604 0.20776,1.28998 0.59701,1.705756 0.3918,0.415776 0.9275,0.682308 1.62045,0.682308 0.2185,0 0.47442,-0.02687 0.6823,-0.0852 0.21058,-0.05603 0.39979,-0.141236 0.59701,-0.255862 v -0.767587 c -0.17322,0.165287 -0.39444,0.261184 -0.59701,0.341167 -0.20264,0.07727 -0.42644,0.0852 -0.6823,0.0852 -0.45841,0 -0.77291,-0.127931 -1.02345,-0.426446 -0.24793,-0.301149 -0.42642,-0.727595 -0.42642,-1.27931 0,-0.554351 0.17859,-0.980797 0.42642,-1.279311 0.24793,-0.298489 0.56236,-0.42642 1.02345,-0.42642 0.24793,0 0.48775,0.0077 0.6823,0.0852 0.19727,0.07727 0.40245,0.253303 0.59701,0.426445 v -0.852891 c -0.20802,-0.117185 -0.47706,-0.199828 -0.68228,-0.255862 -0.20521,-0.05603 -0.38114,-0.0852 -0.59703,-0.0852 z m -36.41771,0.17066 v 0.511724 h 1.10873 v 3.326208 h -1.44987 v 0.596927 h 3.66735 v -0.597004 h -1.4499 v -3.837932 z m 24.73335,0 v 0.511724 h 1.27931 v 4.00849 c 0,0.333158 -0.13586,0.602351 -0.25586,0.767587 -0.12,0.167845 -0.27185,0.255862 -0.51172,0.255862 h -0.93817 v 0.597029 h 1.02344 c 0.43976,0 0.78624,-0.144051 1.02345,-0.426446 0.23975,-0.279862 0.34114,-0.674299 0.34114,-1.194032 v -4.520214 z m -18.25152,0.511724 c 0.35447,0 0.58636,0.135863 0.76759,0.42642 0.18115,0.290531 0.25586,0.708968 0.25586,1.279311 0,0.570368 -0.0747,0.988805 -0.25586,1.279311 -0.18115,0.290531 -0.41312,0.426445 -0.76759,0.426445 -0.35713,0 -0.66897,-0.133304 -0.85286,-0.426445 -0.18397,-0.293167 -0.25587,-0.714265 -0.25587,-1.279311 0,-0.567682 0.0719,-0.98878 0.25587,-1.279311 0.18396,-0.293167 0.49573,-0.42642 0.85286,-0.42642 z m 14.75473,0 c 0.35447,0 0.67164,0.135863 0.85287,0.42642 0.18115,0.290531 0.25586,0.708968 0.25586,1.279311 0,0.570368 -0.0747,0.988805 -0.25586,1.279311 -0.18116,0.290531 -0.4984,0.426445 -0.85287,0.426445 -0.35713,0 -0.5837,-0.133304 -0.76759,-0.426445 -0.18396,-0.293167 -0.34114,-0.714265 -0.34114,-1.279311 0,-0.567682 0.15736,-0.98878 0.34114,-1.279311 0.18397,-0.293167 0.41046,-0.42642 0.76759,-0.42642 z m 9.80804,0 c 0.36248,0 0.661,0.114626 0.85289,0.341141 0.19446,0.223879 0.33047,0.506402 0.34114,0.93817 H 110.047 c 0.0425,-0.415776 0.19727,-0.703621 0.42645,-0.93817 0.22925,-0.234626 0.49839,-0.341141 0.85286,-0.341141 z m -20.29839,2.729179 v 1.193956 h 1.02345 V 87.5332 Z m 8.69931,5.202548 v 6.225895 h 0.68231 v -0.511725 c 0.12256,0.221321 0.30916,0.394463 0.51173,0.511725 0.2052,0.114626 0.41577,0.17066 0.68228,0.17066 0.54104,0 0.97015,-0.263871 1.27931,-0.682308 0.31184,-0.421098 0.51172,-0.967466 0.51172,-1.705731 0,-0.72762 -0.20264,-1.292641 -0.51172,-1.705756 -0.30916,-0.415776 -0.74093,-0.682308 -1.27931,-0.682308 -0.27185,0 -0.4744,0.05322 -0.68228,0.17066 -0.2052,0.117185 -0.39447,0.293167 -0.51173,0.511725 v -2.30276 z m 4.77611,0 v 0.511725 h 1.194 v 4.093795 c 0,0.517046 0.10133,0.911509 0.34117,1.194006 0.24256,0.282523 0.58367,0.426446 1.02345,0.426446 h 0.93814 V 98.36479 h -0.85286 c -0.23719,0 -0.38912,-0.08802 -0.51173,-0.255862 -0.12,-0.167845 -0.25586,-0.437115 -0.25586,-0.767586 v -4.60552 z m 6.48183,0 v 0.938145 h 0.68231 v -0.938145 z m 34.45612,0 v 0.938145 h 0.76758 v -0.938145 z m 14.7547,0 v 0.938145 h 0.76758 v -0.938145 z m -30.02116,0.511725 v 1.279311 h -1.19403 v 0.511724 h 1.19403 v 2.473317 c 0,0.541046 0.11463,0.887535 0.34114,1.108753 0.22644,0.221321 0.64232,0.341142 1.19404,0.341142 h 0.93817 V 98.36479 h -0.85289 c -0.31182,0 -0.55702,-0.03991 -0.68229,-0.17066 -0.12537,-0.130489 -0.17066,-0.35181 -0.17066,-0.682307 v -2.473318 h 1.70576 v -0.511724 h -1.70568 V 93.24747 Z m 9.89335,0 v 1.279311 h -1.19403 v 0.511724 h 1.19403 v 2.473317 c 0,0.541046 0.11463,0.887535 0.34114,1.108753 0.22644,0.221321 0.64232,0.341142 1.19403,0.341142 h 0.85287 V 98.36479 h -0.85287 c -0.31184,0 -0.47176,-0.03991 -0.59703,-0.17066 -0.12537,-0.130489 -0.25586,-0.35181 -0.25586,-0.682307 v -2.473318 h 1.70576 v -0.511724 h -1.70576 V 93.24747 Z m 29.50943,0 v 1.279311 h -1.19403 v 0.511724 h 1.19403 v 2.473317 c 0,0.541046 0.11463,0.887535 0.34114,1.108753 0.22644,0.221321 0.64232,0.341142 1.19403,0.341142 h 0.93817 V 98.36479 h -0.85289 c -0.31182,0 -0.55704,-0.03991 -0.68228,-0.17066 -0.12537,-0.130489 -0.17066,-0.35181 -0.17066,-0.682307 v -2.473318 h 1.70576 V 94.526781 H 170.3452 V 93.24747 Z m -77.7821,1.108727 c -0.26653,0 -0.56236,0.05322 -0.76759,0.17066 -0.20264,0.114627 -0.30384,0.290506 -0.42644,0.511725 v -0.511725 h -0.76759 v 6.140696 h 0.76759 v -2.217638 c 0.11718,0.221321 0.22387,0.394463 0.42644,0.511725 0.2052,0.114626 0.49573,0.17066 0.76759,0.17066 0.53838,0 0.97015,-0.269193 1.27931,-0.682308 0.30916,-0.415776 0.42642,-0.978135 0.42644,-1.705731 -2e-5,-0.740951 -0.11718,-1.287319 -0.42644,-1.705756 -0.3065,-0.418437 -0.73827,-0.682308 -1.27931,-0.682308 z m 24.90391,0 c -0.69295,0 -1.22865,0.266532 -1.62045,0.682308 -0.38912,0.415776 -0.59701,0.970127 -0.59701,1.705731 0,0.735604 0.20776,1.28998 0.59701,1.705756 0.3918,0.415776 0.9275,0.682308 1.62045,0.682308 0.2185,0 0.47442,-0.02661 0.6823,-0.0852 0.21058,-0.05603 0.39979,-0.141236 0.59701,-0.255862 v -0.767587 c -0.17322,0.165287 -0.39444,0.261159 -0.59701,0.341141 -0.20264,0.07727 -0.42644,0.0852 -0.6823,0.0852 -0.45841,0 -0.77291,-0.127931 -1.02345,-0.426445 -0.24793,-0.301176 -0.42642,-0.727596 -0.42642,-1.279311 0,-0.554377 0.17859,-0.980797 0.42642,-1.279311 0.24793,-0.298489 0.56236,-0.42642 1.02345,-0.426446 0.24793,2.6e-5 0.48775,0.0077 0.6823,0.0852 0.19727,0.07727 0.40245,0.253303 0.59701,0.426419 V 94.69731 c -0.20802,-0.117185 -0.47706,-0.199828 -0.68228,-0.255862 -0.20521,-0.05603 -0.38114,-0.0852 -0.59703,-0.0852 z m 9.38162,0 c -0.53839,0 -0.9035,0.191897 -1.19403,0.426446 -0.29051,0.231811 -0.42642,0.509063 -0.42642,0.938144 0,0.338506 0.0614,0.655647 0.25586,0.852891 0.19445,0.194455 0.51438,0.258523 0.93814,0.341141 l 0.25587,0.0852 h 0.0852 c 0.65298,0.13049 0.93817,0.426446 0.93817,0.767587 0,0.237184 -0.0773,0.378471 -0.25586,0.511724 -0.1786,0.13049 -0.44244,0.17066 -0.76759,0.17066 -0.22388,0 -0.43177,-0.01535 -0.68231,-0.0852 -0.25049,-0.0719 -0.57835,-0.199828 -0.85286,-0.341141 v 0.767587 c 0.28249,0.09339 0.61033,0.210574 0.85286,0.255862 0.24256,0.0481 0.46109,0.0852 0.68231,0.0852 0.5597,0 0.9648,-0.178592 1.27931,-0.426446 0.31451,-0.250489 0.51172,-0.581011 0.51172,-1.023448 0,-0.333159 -0.15198,-0.644978 -0.34114,-0.852866 -0.18652,-0.208016 -0.40244,-0.271853 -0.76758,-0.341166 l -0.34114,-0.0852 c -0.48775,-0.09339 -0.81557,-0.157356 -0.93817,-0.255863 -0.12256,-0.09851 -0.17066,-0.311819 -0.17066,-0.511724 0,-0.221065 0.0934,-0.319828 0.25586,-0.426446 0.16528,-0.109253 0.43443,-0.17066 0.76758,-0.17066 0.22132,0 0.46908,0.02303 0.68231,0.0852 0.21314,0.06141 0.38646,0.133304 0.59701,0.255862 V 94.69731 c -0.21314,-0.08802 -0.46109,-0.213133 -0.68229,-0.255862 -0.22132,-0.04529 -0.44243,-0.0852 -0.6823,-0.0852 z m 9.72276,0 c -0.23462,0 -0.51704,0.03198 -0.76758,0.0852 -0.24794,0.05066 -0.49574,0.151983 -0.76759,0.255863 v 0.767586 c 0.24256,-0.138677 0.51172,-0.269167 0.76759,-0.341141 0.25586,-0.0719 0.51704,-0.0852 0.76758,-0.0852 0.3918,0 0.6743,0.09339 0.85287,0.255862 0.17859,0.159914 0.2533,0.410429 0.25586,0.767587 v 0.0852 h -1.02345 c -0.64764,0 -1.11405,0.167845 -1.44987,0.426445 -0.33316,0.258523 -0.51172,0.610334 -0.51172,1.108728 0,0.431767 0.15454,0.764925 0.42642,1.023449 0.27188,0.255862 0.65298,0.426445 1.10875,0.426445 0.34114,0 0.61566,-0.13049 0.85287,-0.255862 0.23974,-0.127931 0.43975,-0.330497 0.597,-0.597029 v 0.682308 h 0.76759 v -2.558622 c 0,-0.391776 -0.0425,-0.658308 -0.0852,-0.852865 -0.0427,-0.19727 -0.15454,-0.378472 -0.25586,-0.511725 -0.16247,-0.218506 -0.33316,-0.402445 -0.597,-0.511724 -0.26121,-0.109253 -0.56771,-0.17066 -0.93817,-0.17066 z m 15.35173,0 c -0.69295,0 -1.22867,0.266532 -1.62045,0.682308 -0.38914,0.415776 -0.59703,0.970127 -0.59703,1.705731 0,0.735604 0.20802,1.28998 0.59703,1.705756 0.39178,0.415776 0.9275,0.682308 1.62045,0.682308 0.21851,0 0.47442,-0.02661 0.68231,-0.0852 0.21057,-0.05603 0.39978,-0.141236 0.597,-0.255862 v -0.767587 c -0.17322,0.165287 -0.39446,0.261184 -0.597,0.341141 -0.20264,0.07727 -0.42645,0.0852 -0.68231,0.0852 -0.45843,0 -0.77291,-0.127931 -1.02345,-0.426445 -0.24793,-0.30115 -0.42644,-0.727596 -0.42644,-1.279311 0,-0.554351 0.17859,-0.980797 0.42644,-1.279311 0.24793,-0.298489 0.56236,-0.42642 1.02345,-0.42642 0.24793,0 0.48775,0.0077 0.68231,0.0852 0.19727,0.07727 0.40245,0.253304 0.597,0.426446 v -0.852891 c -0.20801,-0.117185 -0.39177,-0.199829 -0.597,-0.255863 -0.2052,-0.05603 -0.46644,-0.0852 -0.68231,-0.0852 z m 14.66943,0 c -0.3065,0 -0.62899,0.122558 -0.85287,0.255863 -0.22388,0.130489 -0.38113,0.341166 -0.51172,0.597003 v -0.68228 h -0.68231 v 4.434859 h 0.68231 v -2.473343 c 0,-0.455742 0.0719,-0.866196 0.25586,-1.108728 0.18652,-0.245116 0.50906,-0.341141 0.85286,-0.341141 0.30118,0 0.54105,0.06652 0.68231,0.255862 0.14124,0.189338 0.17066,0.535699 0.17066,0.938145 v 2.729205 h 0.76759 v -2.729205 c 0,-0.607673 -0.11463,-1.066076 -0.34114,-1.36459 -0.22388,-0.301175 -0.56771,-0.511724 -1.02345,-0.511724 z m -71.04439,0.17066 v 2.72918 c 0,0.607673 0.11719,1.06344 0.34115,1.364615 0.22387,0.298489 0.56502,0.511725 1.02344,0.511725 0.30118,0 0.54371,-0.122558 0.76759,-0.255863 0.22644,-0.133304 0.46641,-0.33848 0.597,-0.597028 v 0.682154 h 0.68231 v -4.434936 h -0.68231 v 2.473317 c 0,0.455767 -0.15735,0.863535 -0.34114,1.108753 -0.18396,0.242558 -0.4211,0.341141 -0.76758,0.341141 -0.29852,0 -0.53839,-0.06652 -0.68231,-0.255862 -0.14124,-0.189338 -0.17066,-0.535724 -0.17066,-0.93817 v -2.729179 z m 15.01057,0 v 0.511725 h 1.19403 v 3.326208 h -1.44989 v 0.59685 h 3.58207 v -0.597003 h -1.44987 v -3.837933 z m 34.45611,0 v 0.511725 h 1.19404 v 3.326208 h -1.4499 v 0.59685 h 3.66735 v -0.597003 h -1.44987 v -3.837933 z m 14.84001,0 v 0.511725 h 1.10873 v 3.326208 h -1.44987 v 0.59685 h 3.66735 v -0.597003 h -1.4499 v -3.837933 z m -67.37703,0.511725 c 0.35447,0 0.58899,0.135863 0.76758,0.42642 0.18116,0.290531 0.25587,0.708968 0.25587,1.279311 0,0.570368 -0.0747,0.988805 -0.25587,1.27931 -0.17859,0.290506 -0.41311,0.426446 -0.76758,0.426446 -0.35716,0 -0.66898,-0.133304 -0.85289,-0.426446 -0.18397,-0.293166 -0.25586,-0.714264 -0.25586,-1.27931 0,-0.567682 0.0719,-0.98878 0.25586,-1.279311 0.18396,-0.293167 0.49573,-0.42642 0.85289,-0.42642 z m 9.80804,0 c 0.35447,0 0.67164,0.135863 0.85287,0.42642 0.18115,0.290531 0.25586,0.708968 0.25586,1.279311 0,0.570368 -0.0747,0.988805 -0.25586,1.27931 -0.18116,0.290506 -0.4984,0.426446 -0.85287,0.426446 -0.35713,0 -0.5837,-0.133304 -0.76759,-0.426446 -0.18396,-0.293166 -0.34114,-0.714264 -0.34114,-1.27931 0,-0.567682 0.15736,-0.98878 0.34114,-1.279311 0.18397,-0.293167 0.41046,-0.42642 0.76759,-0.42642 z m 33.85909,1.705731 c 0.16196,-0.03787 0.38246,0 0.59702,0 h 0.25587 0.68228 v 0.17066 c -0.003,0.495733 -0.10925,0.82623 -0.34114,1.108727 -0.23181,0.279862 -0.53304,0.426446 -0.93817,0.426446 -0.28785,0 -0.51971,-0.02047 -0.68228,-0.17066 -0.16248,-0.149168 -0.25587,-0.413115 -0.25587,-0.682308 0,-0.298489 0.12538,-0.533038 0.34115,-0.682282 0.10925,-0.07599 0.1791,-0.132537 0.34114,-0.17066 z m -9.63746,6.226 v 0.93814 h 0.76758 v -0.93814 z m 10.57563,0 c -0.40245,0.62898 -0.74093,1.27398 -0.93817,1.87631 -0.19727,0.60235 -0.25587,1.19669 -0.25587,1.79104 0,0.597 0.0586,1.18868 0.25587,1.79103 0.19727,0.59969 0.53572,1.24201 0.93817,1.87631 h 0.597 c -0.35447,-0.61299 -0.59168,-1.2713 -0.76759,-1.87631 -0.17322,-0.60501 -0.25586,-1.1807 -0.25586,-1.79103 0,-0.613 0.0826,-1.18869 0.25586,-1.79104 0.17578,-0.60501 0.41312,-1.26864 0.76759,-1.87631 z m 18.9338,0 v 0.93814 h 0.76758 v -0.93814 z m 14.49886,0 v 7.33469 h 1.70573 v -0.59715 h -0.93814 v -6.14069 h 0.93814 v -0.597 z m 4.43494,0 v 0.59685 h 0.93817 v 6.14069 h -0.93817 v 0.597 h 1.70575 v -7.3347 z m -29.16829,0.51172 v 1.27931 h -1.19403 v 0.51173 h 1.19403 v 2.47331 c 0,0.54105 0.11463,0.88754 0.34114,1.10876 0.22644,0.22132 0.55704,0.34114 1.10875,0.34114 h 0.93815 v -0.59701 h -0.85287 c -0.31182,0 -0.55703,-0.0399 -0.6823,-0.17066 -0.12538,-0.13049 -0.17066,-0.35181 -0.17066,-0.6823 v -2.47332 h 1.70575 v -0.51173 h -1.70575 v -1.27931 z m -29.42415,1.10873 c -0.16785,0 -0.29317,0.0852 -0.42645,0.17066 -0.13049,0.0826 -0.2533,0.18115 -0.34114,0.34114 v -0.34114 h -0.6823 v 4.43471 h 0.6823 v -2.55863 c 0,-0.61033 0.0102,-0.94615 0.0852,-1.10872 0.0773,-0.16529 0.23181,-0.25587 0.42644,-0.25587 0.19727,0 0.35181,0.0205 0.42645,0.17066 0.0773,0.14917 0.0852,0.55436 0.0852,1.19401 v 2.55862 h 0.68231 v -2.55862 c 0,-0.61033 0.008,-0.94615 0.0852,-1.10873 0.0798,-0.16528 0.29849,-0.25586 0.51172,-0.25586 0.18653,0 0.27186,0.0153 0.34114,0.17066 0.0719,0.15198 0.0852,0.56236 0.0852,1.19401 v 2.55862 h 0.6823 v -2.55862 c 0,-0.77025 -0.0205,-1.34328 -0.17066,-1.62045 -0.14661,-0.27984 -0.40779,-0.42642 -0.76758,-0.42645 -0.19727,3e-5 -0.37049,0.0773 -0.51173,0.17066 -0.13868,0.0906 -0.25049,0.23463 -0.34116,0.42645 -0.0747,-0.18934 -0.20521,-0.33316 -0.34115,-0.42645 -0.1333,-0.0934 -0.30915,-0.17066 -0.51172,-0.17066 z m 5.37311,0 c -0.23463,0 -0.43177,0.032 -0.68231,0.0852 -0.24793,0.0507 -0.49574,0.15198 -0.76759,0.25586 v 0.76759 c 0.24256,-0.13868 0.51173,-0.2692 0.76759,-0.34114 0.25586,-0.0719 0.43177,-0.0852 0.68231,-0.0852 0.39177,0 0.67429,0.0934 0.85286,0.25586 0.17859,0.15991 0.33861,0.41043 0.34117,0.76758 v 0.0852 h -1.02345 c -0.64767,0 -1.11408,0.16785 -1.4499,0.42645 -0.33315,0.25852 -0.51172,0.61033 -0.51172,1.10873 0,0.43176 0.15454,0.76492 0.42645,1.02345 0.27185,0.25586 0.65296,0.42644 1.10872,0.42644 0.34114,0 0.61566,-0.13049 0.85287,-0.25586 0.23974,-0.12793 0.43977,-0.3305 0.59703,-0.59703 v 0.68223 h 0.68228 v -2.55862 c 0,-0.39178 0.0427,-0.65831 0,-0.85286 -0.0427,-0.19727 -0.15454,-0.37848 -0.25586,-0.51173 -0.16248,-0.21851 -0.33316,-0.40244 -0.59701,-0.51172 -0.26118,-0.10926 -0.65298,-0.17066 -1.02344,-0.17066 z m 10.40507,0 c -0.3065,0 -0.62902,0.12256 -0.8529,0.25586 -0.22387,0.13049 -0.38113,0.34114 -0.51172,0.597 v -0.68228 h -0.76759 v 4.43478 h 0.76759 v -2.47334 c 0,-0.45574 0.0719,-0.8662 0.25586,-1.10873 0.18653,-0.24511 0.50907,-0.34114 0.85289,-0.34114 0.30118,0 0.45575,0.0665 0.59701,0.25586 0.14123,0.18934 0.25586,0.5357 0.25586,0.93815 v 2.7292 h 0.68231 v -2.7292 c 0,-0.60767 -0.11463,-1.06608 -0.34117,-1.36459 -0.22388,-0.30118 -0.4824,-0.51173 -0.93814,-0.51173 z m 9.55218,0 c -0.53839,0 -0.98881,0.19189 -1.27932,0.42644 -0.2905,0.23181 -0.42644,0.50907 -0.42644,0.93815 0,0.3385 0.0614,0.65564 0.25586,0.85289 0.19446,0.19445 0.51441,0.25852 0.93817,0.34114 l 0.25586,0.0852 h 0.0852 c 0.65298,0.13049 0.93816,0.42645 0.93816,0.76759 0,0.23718 -0.0773,0.37847 -0.25586,0.51172 -0.17859,0.13049 -0.44243,0.17066 -0.76758,0.17066 -0.22388,0 -0.43177,-0.0153 -0.68231,-0.0852 -0.25049,-0.0719 -0.49307,-0.19983 -0.76759,-0.34114 v 0.76759 c 0.28252,0.0934 0.52506,0.21057 0.76759,0.25586 0.24256,0.0481 0.46109,0.0852 0.68231,0.0852 0.55969,0 0.9648,-0.17859 1.27931,-0.42645 0.3145,-0.25049 0.51172,-0.58101 0.51172,-1.02345 0,-0.33315 -0.0665,-0.64497 -0.25586,-0.85286 -0.18652,-0.20802 -0.48773,-0.27186 -0.85287,-0.34117 l -0.34116,-0.0852 c -0.48773,-0.0934 -0.73026,-0.15735 -0.85287,-0.25586 -0.12256,-0.0985 -0.17066,-0.31182 -0.17066,-0.51172 0,-0.22107 0.008,-0.31981 0.17066,-0.42642 0.16529,-0.10926 0.43443,-0.17066 0.76759,-0.17066 0.22132,0 0.46907,0.023 0.68231,0.0852 0.21313,0.0614 0.38645,0.1333 0.597,0.25586 v -0.68231 c -0.21313,-0.088 -0.37579,-0.21313 -0.597,-0.25586 -0.22132,-0.0453 -0.44244,-0.0852 -0.68231,-0.0852 z m 10.91679,0 c -0.34915,0 -0.68231,0.0852 -0.93817,0.25586 -0.2533,0.16785 -0.38912,0.45042 -0.51172,0.76759 v -0.85287 h -0.76759 v 4.43478 h 0.76759 v -2.21748 c 0,-0.5437 0.0985,-0.99146 0.34114,-1.27931 0.24255,-0.28782 0.56504,-0.42642 1.02345,-0.42642 0.19471,0 0.43445,0.0294 0.59702,0.0852 0.16248,0.056 0.26917,0.21851 0.42642,0.34114 v -0.76758 c -0.14405,-0.0959 -0.26916,-0.21058 -0.42642,-0.25587 -0.15735,-0.0453 -0.33049,-0.0852 -0.51172,-0.0852 z m 9.04045,0 c -0.30649,0 -0.5437,0.12256 -0.76758,0.25586 -0.22388,0.13049 -0.46641,0.34114 -0.597,0.597 v -0.68228 h -0.68231 v 4.43478 h 0.68231 v -2.47334 c 0,-0.45574 0.15735,-0.8662 0.34114,-1.10873 0.18652,-0.24511 0.42378,-0.34114 0.76758,-0.34114 0.30118,0 0.54105,0.0665 0.68231,0.25586 0.14124,0.18934 0.17066,0.5357 0.17066,0.93815 v 2.7292 h 0.76759 v -2.7292 c 0,-0.60767 -0.11463,-1.06608 -0.34114,-1.36459 -0.22388,-0.30118 -0.56771,-0.51173 -1.02345,-0.51173 z m 4.26438,0 c -0.52239,0 -0.88218,0.26387 -1.19403,0.68231 -0.31182,0.41843 -0.51172,1.00211 -0.51172,1.70573 0,0.70096 0.19983,1.20204 0.51172,1.62047 0.31185,0.41844 0.67164,0.68229 1.19403,0.68229 0.29051,0 0.56502,-0.13331 0.76759,-0.25587 0.20264,-0.12255 0.39444,-0.26118 0.51172,-0.51172 v 0.51172 c 0,0.4691 -0.15991,0.80758 -0.34116,1.02345 -0.18115,0.21595 -0.45574,0.34117 -0.85287,0.34117 -0.17859,0 -0.38379,-0.0266 -0.597,-0.0852 -0.21313,-0.0586 -0.42112,-0.13331 -0.68231,-0.25586 v 0.68205 c 0.22132,0.0719 0.46109,0.1333 0.68231,0.17066 0.22132,0.0374 0.39444,0.0852 0.597,0.0852 0.61566,0 1.13273,-0.16529 1.4499,-0.51173 0.31716,-0.34646 0.42642,-0.86353 0.42642,-1.53517 v -4.17907 h -0.68229 v 0.597 c -0.12537,-0.23974 -0.31184,-0.4824 -0.51172,-0.597 -0.19983,-0.11463 -0.47974,-0.17066 -0.76759,-0.17066 z m 19.87197,0 c -0.23462,0 -0.43179,0.032 -0.6823,0.0852 -0.24793,0.0507 -0.49574,0.15198 -0.76759,0.25586 v 0.76759 c 0.24256,-0.13868 0.42644,-0.2692 0.68231,-0.34114 0.25586,-0.0719 0.51704,-0.0852 0.76758,-0.0852 0.39178,0 0.6743,0.0934 0.85287,0.25586 0.17859,0.15991 0.2533,0.41043 0.25586,0.76758 v 0.0851 h -0.93817 c -0.64764,0 -1.11405,0.16785 -1.44987,0.42642 -0.33316,0.25855 -0.51172,0.61034 -0.51172,1.10876 0,0.43176 0.0693,0.7649 0.34114,1.02345 0.27185,0.25586 0.65299,0.42642 1.10873,0.42642 0.34114,0 0.61565,-0.13049 0.85289,-0.25587 0.23974,-0.12793 0.43975,-0.33047 0.597,-0.597 v 0.68231 h 0.0852 v -4.26438 c -0.0819,-0.0535 -0.16094,-0.13126 -0.25586,-0.17066 -0.26121,-0.10925 -0.56768,-0.17066 -0.93815,-0.17066 z m -60.46877,0.17066 v 0.51172 h 1.19403 v 3.32621 H 124.29 v 0.59677 h 3.66735 v -0.597 h -1.44987 v -3.83793 z m 29.59473,0 v 0.51172 h 1.10873 v 3.32621 h -1.4499 v 0.59677 h 3.66738 v -0.597 h -1.4499 v -3.83793 z m 11.17263,0.51172 c 0.34383,0 0.58902,0.13868 0.76759,0.42642 0.18115,0.28519 0.34116,0.72762 0.34116,1.27931 0,0.54906 -0.15991,0.90353 -0.34116,1.19403 -0.17859,0.29051 -0.42908,0.42645 -0.76759,0.42645 -0.36245,0 -0.57569,-0.13868 -0.76759,-0.42645 -0.18933,-0.2905 -0.34114,-0.64231 -0.34114,-1.19403 0,-0.55169 0.15199,-0.99412 0.34114,-1.27931 0.18934,-0.28782 0.4078,-0.42642 0.76759,-0.42642 z m -44.69058,1.70573 c 0.16197,-0.0379 0.38247,0 0.59701,0 h 0.25586 0.68231 v 0.17066 c -0.003,0.49574 -0.10926,0.82623 -0.34117,1.10876 -0.23181,0.27983 -0.61834,0.42642 -1.02345,0.42642 -0.28784,0 -0.51971,-0.0205 -0.68228,-0.17066 -0.16247,-0.14917 -0.17066,-0.41309 -0.17066,-0.68229 0,-0.29851 0.0399,-0.53306 0.25586,-0.6823 0.10926,-0.076 0.26451,-0.13254 0.42645,-0.17066 z m 64.05083,0 c 0.16196,-0.0379 0.29718,0 0.51172,0 h 0.25586 0.68231 v 0.17066 c -0.003,0.49574 -0.10925,0.82623 -0.34114,1.10876 -0.23181,0.27983 -0.53306,0.42642 -0.93817,0.42642 -0.28784,0 -0.51973,-0.0205 -0.68231,-0.17066 -0.16247,-0.14917 -0.25586,-0.41309 -0.25586,-0.68229 0,-0.29851 0.12537,-0.53306 0.34117,-0.6823 0.10925,-0.076 0.26451,-0.13254 0.42642,-0.17066 z m -62.60096,6.226 v 2.30276 c -0.11718,-0.22132 -0.30649,-0.39712 -0.51172,-0.51173 -0.2052,-0.11718 -0.41312,-0.17066 -0.68228,-0.17066 -0.53839,0 -0.9675,0.26654 -1.27931,0.68229 -0.31185,0.41311 -0.51173,0.97816 -0.51173,1.70576 0,0.73826 0.20264,1.28463 0.51173,1.70575 0.31181,0.41844 0.73826,0.68228 1.27931,0.68228 0.2665,0 0.47971,-0.056 0.68228,-0.17066 0.2052,-0.11718 0.38911,-0.2905 0.51172,-0.51172 v 0.51172 h 0.76759 v -6.22597 z m 33.17681,0 v 0.93814 h 0.76758 v -0.93814 z m 16.03404,0 c -0.47709,0 -0.88222,0.10925 -1.10876,0.34114 -0.22388,0.23181 -0.34114,0.61834 -0.34114,1.10873 v 0.34116 h -1.19403 v 0.51173 h 1.19403 v 3.92298 h 0.76759 v -3.92321 h 1.53517 v -0.51172 h -1.53517 v -0.42645 c 0,-0.27451 0.0693,-0.49039 0.17066,-0.597 0.10388,-0.10926 0.24793,-0.17066 0.51172,-0.17066 h 0.85287 v -0.59703 z m 4.43493,0 c -0.40244,0.62899 -0.74092,1.27399 -0.93817,1.87631 -0.19727,0.60235 -0.25586,1.1967 -0.25586,1.79104 0,0.59703 0.0586,1.18871 0.25586,1.79104 0.19727,0.59969 0.53573,1.242 0.93817,1.87631 h 0.597 c -0.35447,-0.61299 -0.59168,-1.2713 -0.76758,-1.87631 -0.17322,-0.60502 -0.25586,-1.1807 -0.25586,-1.79104 0,-0.61299 0.0826,-1.18869 0.25586,-1.79104 0.17603,-0.60498 0.41311,-1.26864 0.76758,-1.87631 z m 3.41149,0.25586 v 2.21746 h 0.68231 v -2.21746 z m 1.44989,0 v 2.21746 h 0.76759 v -2.21746 z m 2.64393,0 v 5.96988 h 0.76758 v -2.81448 h 2.21746 v -0.68231 h -2.21746 v -2.47332 z m -67.8035,0.25586 v 1.27931 h -1.19401 v 0.51173 h 1.19401 v 2.47332 c 0,0.54105 0.11462,0.88753 0.34116,1.10875 0.22644,0.22132 0.64232,0.34114 1.19401,0.34114 h 0.85289 v -0.597 h -0.76759 c -0.31184,0 -0.55703,-0.0399 -0.6823,-0.17066 -0.12538,-0.13049 -0.17066,-0.35181 -0.17066,-0.68231 v -2.47334 h 1.62047 v -0.51173 h -1.62047 v -1.27931 z m 19.70138,0 v 1.27931 h -1.194 v 0.51173 h 1.194 v 2.47332 c 0,0.54105 0.11463,0.88753 0.34117,1.10875 0.22644,0.22132 0.64232,0.34114 1.19401,0.34114 h 0.85289 v -0.597 h -0.76759 c -0.31184,0 -0.55704,-0.0399 -0.68231,-0.17066 -0.12537,-0.13049 -0.17066,-0.35181 -0.17066,-0.68231 v -2.47334 h 1.62048 v -0.51173 H 135.889 v -1.27931 z m 29.59474,0 v 1.27931 h -1.19403 v 0.51173 h 1.19403 v 2.47332 c 0,0.54105 0.11462,0.88753 0.34114,1.10875 0.22644,0.22132 0.55704,0.34114 1.10875,0.34114 h 0.93815 v -0.597 h -0.85287 c -0.31184,0 -0.55704,-0.0399 -0.68231,-0.17066 -0.12537,-0.13049 -0.17066,-0.35181 -0.17066,-0.68231 v -2.47334 h 1.70576 v -0.51173 h -1.70576 v -1.27931 z m -53.38992,1.10873 c -0.53836,0 -0.98878,0.1919 -1.27931,0.42645 -0.29051,0.23181 -0.42642,0.50906 -0.42642,0.93814 0,0.33851 0.14661,0.65565 0.34114,0.85289 0.19446,0.19446 0.51439,0.25853 0.93817,0.34115 l 0.25586,0.0852 c 0.65299,0.13049 1.02345,0.42644 1.02345,0.76758 0,0.23719 -0.0773,0.37848 -0.25586,0.51173 -0.17859,0.13049 -0.44244,0.17066 -0.76759,0.17066 -0.22388,0 -0.51707,-0.0153 -0.76758,-0.0852 -0.25049,-0.0719 -0.49307,-0.19983 -0.76759,-0.34114 v 0.76758 c 0.2825,0.0934 0.52506,0.21058 0.76759,0.25586 0.24255,0.0478 0.54637,0.0852 0.76758,0.0852 0.5597,0 0.96481,-0.1786 1.27931,-0.42645 0.31448,-0.25049 0.42642,-0.58101 0.42642,-1.02345 0,-0.33313 -0.0665,-0.64498 -0.25586,-0.85286 -0.18652,-0.20802 -0.48772,-0.27186 -0.85286,-0.34114 l -0.25587,-0.0852 c -0.48775,-0.0934 -0.81556,-0.15735 -0.93817,-0.25586 -0.12255,-0.0985 -0.17066,-0.31184 -0.17066,-0.51172 0,-0.22132 0.0934,-0.31983 0.25587,-0.42645 0.16528,-0.10925 0.43443,-0.17066 0.76758,-0.17066 0.22132,0 0.3838,0.023 0.59703,0.0852 0.21314,0.0614 0.47174,0.1333 0.68228,0.25587 v -0.68232 c -0.21313,-0.088 -0.46108,-0.21313 -0.68228,-0.25586 -0.22132,-0.0453 -0.44243,-0.0852 -0.68231,-0.0852 z m 14.66945,0 c -0.621,0 -1.03678,0.27986 -1.36462,0.68231 -0.32781,0.40245 -0.51172,0.94349 -0.51172,1.70573 0,0.76493 0.18397,1.38859 0.51172,1.79104 0.32784,0.39978 0.74362,0.59703 1.36462,0.59703 0.62366,0 1.12206,-0.19727 1.44987,-0.59703 0.32783,-0.40245 0.51172,-1.02611 0.51172,-1.79104 0,-0.76224 -0.18115,-1.30328 -0.51172,-1.70573 -0.32781,-0.40245 -0.82887,-0.68231 -1.44987,-0.68231 z m 19.95725,0 c -0.26653,0 -0.47708,0.0532 -0.68231,0.17066 -0.20264,0.11463 -0.38911,0.29053 -0.51172,0.51173 v -0.51173 h -0.76759 v 6.1407 h 0.76759 v -2.21779 c 0.11718,0.22132 0.30916,0.39444 0.51172,0.51172 0.2052,0.11463 0.41046,0.17066 0.68231,0.17066 0.53836,0 0.97013,-0.26919 1.27931,-0.6823 0.30916,-0.41578 0.42642,-0.97814 0.42642,-1.70576 0,-0.74093 -0.11718,-1.28729 -0.42642,-1.70573 -0.3065,-0.41844 -0.73826,-0.68231 -1.27931,-0.68231 z m 5.88483,0 c -0.34915,0 -0.68231,0.0852 -0.93817,0.25586 -0.2533,0.16785 -0.38912,0.45045 -0.51172,0.76759 v -0.85287 h -0.76759 v 4.43471 h 0.76759 v -2.21748 c 0,-0.54368 0.0985,-0.99144 0.34114,-1.27931 0.24255,-0.28782 0.56504,-0.42642 1.02345,-0.42642 0.19471,0 0.43445,0.0292 0.59702,0.0852 0.16248,0.056 0.26917,0.21851 0.42642,0.34114 v -0.76759 c -0.14405,-0.096 -0.26916,-0.21057 -0.42642,-0.25586 -0.15735,-0.0453 -0.33049,-0.0852 -0.51172,-0.0852 z m 9.04045,0 c -0.30649,0 -0.5437,0.12256 -0.76758,0.25586 -0.22388,0.13049 -0.46641,0.34117 -0.597,0.59701 v -0.68229 h -0.68231 v 4.43471 h 0.68231 v -2.47334 c 0,-0.45574 0.15735,-0.8662 0.34114,-1.10873 0.18652,-0.24512 0.42378,-0.34114 0.76758,-0.34114 0.30118,0 0.54105,0.0665 0.68231,0.25586 0.14124,0.18934 0.17066,0.5357 0.17066,0.93815 v 2.7292 h 0.76759 v -2.7292 c 0,-0.60765 -0.11463,-1.06608 -0.34114,-1.36459 -0.22388,-0.30115 -0.56771,-0.51173 -1.02345,-0.51173 z m -31.64163,0.17066 v 2.72921 c 0,0.60767 0.11719,1.06341 0.34117,1.36459 0.22388,0.29851 0.56502,0.51172 1.02345,0.51172 0.30117,0 0.62899,-0.12255 0.85286,-0.25586 0.22644,-0.1333 0.38114,-0.33848 0.51173,-0.597 v 0.68197 h 0.68231 v -4.43494 h -0.68231 v 2.47332 c 0,0.45577 -0.0719,0.86354 -0.25586,1.10876 -0.18397,0.24255 -0.50641,0.34114 -0.85287,0.34114 -0.29851,0 -0.53838,-0.0665 -0.68231,-0.25586 -0.14123,-0.18909 -0.17066,-0.5357 -0.17066,-0.93817 v -2.72919 z m 24.90394,0 v 0.51173 h 1.10873 v 3.32621 h -1.4499 v 0.59669 h 3.66738 v -0.597 h -1.4499 v -3.83794 z m -33.1768,0.51175 c 0.35447,0 0.66897,0.13331 0.85286,0.42642 0.18652,0.29054 0.25586,0.71163 0.25586,1.27931 0,0.56505 -0.0693,0.98615 -0.25586,1.27932 -0.18396,0.29319 -0.49839,0.42644 -0.85286,0.42644 -0.35448,0 -0.58636,-0.13586 -0.76759,-0.42644 -0.18115,-0.29051 -0.25586,-0.70895 -0.25586,-1.27932 0,-0.57034 0.0747,-0.98877 0.25586,-1.27931 0.18115,-0.2905 0.41311,-0.42642 0.76759,-0.42642 z m 5.03196,0 c 0.37578,0 0.66097,0.13586 0.85287,0.42642 0.19189,0.29054 0.34114,0.70897 0.34114,1.27931 0,0.56771 -0.14917,0.98615 -0.34114,1.27932 -0.1919,0.29053 -0.47709,0.42644 -0.85287,0.42644 -0.37315,0 -0.66099,-0.13586 -0.85289,-0.42644 -0.1919,-0.29317 -0.25586,-0.71161 -0.25586,-1.27932 0,-0.57034 0.064,-0.98877 0.25586,-1.27931 0.1919,-0.2905 0.47974,-0.42642 0.85289,-0.42642 z m 19.87195,0 c 0.35447,0 0.58902,0.13586 0.76758,0.42642 0.18115,0.29054 0.25586,0.70897 0.25586,1.27931 0,0.57037 -0.0747,0.98881 -0.25586,1.27932 -0.17859,0.29053 -0.41311,0.42644 -0.76758,0.42644 -0.35714,0 -0.66896,-0.1333 -0.85287,-0.42644 -0.18396,-0.29317 -0.25586,-0.71427 -0.25586,-1.27932 0,-0.56768 0.0719,-0.98877 0.25586,-1.27931 0.18396,-0.29317 0.49573,-0.42642 0.85287,-0.42642 z m -5.54367,2.72918 v 1.1937 h 0.93815 v -1.19403 z m 5.37311,15.6076 c -0.637,2e-5 -1.12475,0.24511 -1.4499,0.76758 -0.32515,0.5224 -0.42644,1.282 -0.42644,2.30276 0,1.01813 0.10132,1.78039 0.42644,2.30276 0.32515,0.5224 0.8129,0.85289 1.4499,0.85289 0.63699,0 1.12472,-0.33049 1.44987,-0.85289 0.32783,-0.52237 0.51172,-1.28463 0.51172,-2.30276 0,-1.02076 -0.18396,-1.78036 -0.51172,-2.30276 -0.32515,-0.52237 -0.81288,-0.76756 -1.44987,-0.76758 z m -25.33036,0.34116 v 1.27931 h -1.19403 v 0.51173 h 1.19403 v 2.47332 c 0,0.54104 0.11463,0.88753 0.34114,1.10875 0.22644,0.22132 0.64232,0.34114 1.19404,0.34114 h 0.85286 v -0.597 h -0.85286 c -0.31185,0 -0.47176,-0.0399 -0.59703,-0.17066 -0.12538,-0.13049 -0.25587,-0.35181 -0.25587,-0.68231 v -2.47334 h 1.70576 v -0.51173 h -1.70576 v -1.27931 z m 25.33036,0.25587 c 0.37844,0 0.66897,0.27717 0.85286,0.68228 0.18653,0.40513 0.25587,0.96217 0.25587,1.79103 0,0.82623 -0.0693,1.47121 -0.25587,1.87634 -0.18396,0.40511 -0.47442,0.59701 -0.85286,0.59701 -0.37581,0 -0.66632,-0.1919 -0.85289,-0.59701 -0.18397,-0.40513 -0.25587,-1.05011 -0.25587,-1.87634 0,-0.82886 0.0719,-1.3859 0.25587,-1.79103 0.18652,-0.40511 0.47708,-0.68228 0.85289,-0.68228 z m -33.26209,0.85286 c -0.34914,0 -0.6823,0.0852 -0.93817,0.25586 -0.2533,0.16785 -0.38911,0.45045 -0.51172,0.76759 v -0.85287 h -0.76759 v 4.43461 h 0.76759 v -2.21748 c 0,-0.54369 0.0985,-0.99144 0.34114,-1.27931 0.24256,-0.28782 0.56505,-0.42642 1.02345,-0.42642 0.19446,0 0.43443,0.0292 0.59703,0.0852 0.16247,0.056 0.26917,0.2185 0.42642,0.34114 v -0.76759 c -0.14405,-0.096 -0.26919,-0.21057 -0.42642,-0.25586 -0.15736,-0.0453 -0.3305,-0.0852 -0.51173,-0.0852 z m 3.83794,0 c -0.63966,0 -1.15138,0.25586 -1.53518,0.68231 -0.38379,0.42644 -0.51172,0.99146 -0.51172,1.70573 0,0.73294 0.2052,1.28732 0.597,1.70576 0.3918,0.41577 0.92484,0.6823 1.62046,0.6823 0.24255,0 0.50906,-0.0266 0.76758,-0.0852 0.26119,-0.056 0.48775,-0.14124 0.76759,-0.25586 v -0.76759 c -0.29051,0.15198 -0.59701,0.26653 -0.85287,0.34114 -0.25586,0.0747 -0.44776,0.0852 -0.6823,0.0852 -0.46376,0 -0.85287,-0.0747 -1.10873,-0.34117 -0.25331,-0.26653 -0.34114,-0.70626 -0.34114,-1.19401 h 3.15562 v -0.34116 c 0,-0.66896 -0.18115,-1.23398 -0.51172,-1.62046 -0.32784,-0.38645 -0.79425,-0.597 -1.36459,-0.597 z m 15.86345,0 c -0.34915,0 -0.68231,0.0852 -0.93817,0.25586 -0.2533,0.16785 -0.38911,0.45045 -0.51172,0.76759 v -0.85287 h -0.76759 v 4.43461 h 0.76759 v -2.21748 c 0,-0.54369 0.0985,-0.99144 0.34114,-1.27931 0.24256,-0.28782 0.56502,-0.42642 1.02345,-0.42642 0.19471,0 0.43443,0.0292 0.59703,0.0852 0.16247,0.056 0.26916,0.2185 0.42642,0.34114 v -0.76759 c -0.14405,-0.096 -0.2692,-0.21057 -0.42642,-0.25586 -0.15736,-0.0453 -0.3305,-0.0852 -0.51173,-0.0852 z m 4.0938,0 c -0.3065,0 -0.54371,0.12256 -0.76759,0.25586 -0.22388,0.13049 -0.38113,0.34117 -0.51172,0.59701 v -0.68229 h -0.76759 v 4.43461 h 0.76759 v -2.47335 c 0,-0.45574 0.0719,-0.86617 0.25586,-1.10872 0.18652,-0.24512 0.42376,-0.34114 0.76758,-0.34114 0.30118,0 0.54105,0.0665 0.68229,0.25586 0.14123,0.18934 0.25586,0.5357 0.25586,0.93814 v 2.72921 h 0.68231 v -2.72921 c 0,-0.60765 -0.11463,-1.06607 -0.34114,-1.36459 -0.22388,-0.30115 -0.56771,-0.51172 -1.02345,-0.51172 z m -11.85497,0.17066 v 2.72921 c 0,0.60767 0.11719,1.06341 0.34117,1.36459 0.22388,0.29851 0.56502,0.51172 1.02345,0.51172 0.30117,0 0.5437,-0.12256 0.76758,-0.25586 0.22644,-0.13331 0.38114,-0.33848 0.51173,-0.59701 v 0.68188 h 0.76759 v -4.43496 h -0.76759 v 2.47334 c 0,0.45577 -0.0719,0.86353 -0.25586,1.10873 -0.18397,0.24255 -0.50641,0.34116 -0.85289,0.34116 -0.29849,0 -0.45309,-0.0665 -0.59701,-0.25586 -0.14123,-0.18934 -0.25586,-0.53572 -0.25586,-0.93817 v -2.72918 z m 25.7568,0.17066 v 1.27931 h 1.02345 v -1.27931 z m -33.85908,0.34117 c 0.36245,0 0.66097,0.11462 0.85286,0.34114 0.19446,0.22388 0.24512,0.5064 0.25586,0.93817 h -2.38803 c 0.0425,-0.41578 0.19727,-0.70362 0.42642,-0.93817 0.22925,-0.23463 0.49842,-0.34114 0.85289,-0.34114 z m 29.42415,0.42642 c -0.14405,2e-5 -0.23719,0.064 -0.34117,0.17066 -0.10132,0.10669 -0.17066,0.19445 -0.17066,0.34116 0,0.15454 0.0719,0.32515 0.17066,0.42642 0.10132,0.10133 0.1919,0.0852 0.34117,0.0852 0.15198,2e-5 0.32249,-0.0665 0.42642,-0.17066 0.10669,-0.10388 0.17066,-0.1919 0.17066,-0.34115 0,-0.1466 -0.064,-0.23462 -0.17066,-0.34114 -0.1067,-0.10669 -0.27718,-0.17066 -0.42642,-0.17066 z m 4.52021,2.30276 v 0.85289 l -0.42642,1.53517 h 0.59701 l 0.85286,-1.53517 v -0.85289 z m -60.21289,5.20203 v 0.59701 h 0.25586 c 0.37579,0 0.56769,0.0532 0.68231,0.17066 0.11463,0.11718 0.17066,0.3918 0.17066,0.76758 v 0.93817 c 0,0.41844 0.0507,0.74894 0.17066,0.93817 0.12256,0.18934 0.38912,0.3598 0.68231,0.42642 -0.29585,0.0719 -0.56239,0.15198 -0.68231,0.34117 -0.12,0.18934 -0.17066,0.52239 -0.17066,0.93814 v 0.93817 c 0,0.37579 -0.056,0.65033 -0.17066,0.76759 -0.11462,0.11718 -0.30652,0.17066 -0.68231,0.17066 h -0.25586 v 0.597 h 0.17066 c 0.66363,0 1.14071,-0.14379 1.36459,-0.34114 0.22388,-0.19727 0.34114,-0.51971 0.34114,-1.10875 v -1.02345 c 0,-0.40242 0.0294,-0.61299 0.17066,-0.76759 0.14405,-0.15454 0.47708,-0.25586 0.85287,-0.25586 h 0.25586 v -0.597 h -0.25586 c -0.37579,0 -0.70894,-0.10388 -0.85287,-0.25586 -0.14123,-0.15199 -0.17066,-0.36781 -0.17066,-0.76759 v -0.93817 c 0,-0.589 -0.11718,-0.99945 -0.34114,-1.19401 -0.22388,-0.19727 -0.70096,-0.34114 -1.36459,-0.34116 z m -19.70139,10.23449 v 0.597 h 0.25587 c 0.37578,0 0.56768,0.0532 0.6823,0.17066 0.11463,0.11719 0.17066,0.39181 0.17066,0.76759 v 0.93817 c 0,0.41844 0.0507,0.74893 0.17066,0.93817 0.12256,0.18934 0.38912,0.35979 0.68231,0.42642 -0.29585,0.0719 -0.56238,0.15198 -0.68231,0.34117 -0.12,0.18933 -0.17066,0.52239 -0.17066,0.93814 v 0.93817 c 0,0.37578 -0.056,0.65033 -0.17066,0.76759 -0.11462,0.11718 -0.30652,0.17066 -0.6823,0.17066 h -0.25587 v 0.597 h 0.17066 c 0.66363,0 1.14071,-0.14405 1.36459,-0.34114 0.22388,-0.19727 0.34115,-0.51971 0.34115,-1.10873 v -1.02345 c 0,-0.40244 0.0294,-0.61302 0.17066,-0.76758 0.14379,-0.15454 0.47708,-0.25587 0.85286,-0.25587 h 0.25586 v -0.59702 H 73.203 c -0.37578,2e-5 -0.70894,-0.10388 -0.85286,-0.25587 -0.14124,-0.15198 -0.17066,-0.36777 -0.17066,-0.76758 v -0.93815 c 0,-0.58902 -0.11719,-0.99945 -0.34115,-1.19403 -0.22388,-0.19727 -0.70096,-0.34114 -1.36459,-0.34114 z"
       id="path3236" /></g></g><g
   inkscape:groupmode="layer"
   id="layer6"
   inkscape:label="Shadow"
   style="display:none"
   sodipodi:insensitive="true"><g
     id="g2548"
     style="display:inline"
     transform="translate(-2.960187,1.58543)"><path
       d="m 256.36019,128.41457 c 0,-33.900005 -13.5,-64.500005 -35.4,-86.900002 -0.4,-0.3 -0.7,-0.7 -1.1,-1 21.3,22.299997 34.5,52.599997 34.5,86.000002 0,68.5 -55.2,124 -123.4,124 -32.900003,0 -62.900003,-13 -85.000003,-34.1 0.3,0.3 0.6,0.6 0.9,0.9 22.2,21.7 52.6,35.1 86.000003,35.1 68.2,0 123.5,-55.5 123.5,-124 z"
       id="path238"
       inkscape:connector-curvature="0"
       style="display:inline;opacity:0.1" /><path
       d="m 219.86019,40.414568 c -0.7,-0.6 -1.4,-1.3 -2,-1.9 -0.7,-0.6 -1.4,-1.2 -2.1,-1.9 19.1,21.799997 30.7,50.499997 30.7,81.800002 0,68.5 -55.2,124 -123.4,124 -30.900003,0 -59.200003,-11.4 -80.900003,-30.3 0.6,0.7 1.2,1.4 1.9,2.1 0.6,0.7 1.3,1.4 1.9,2 22.1,21.1 52.1,34.1 85.000003,34.1 68.2,0 123.4,-55.5 123.4,-124 0,-33.300005 -13.1,-63.600005 -34.5,-85.900002 z"
       id="path240"
       inkscape:connector-curvature="0"
       style="display:inline;opacity:0.2" /><path
       d="m 220.96019,41.514568 c 21.9,22.399997 35.4,53.099997 35.4,86.900002 0,68.5 -55.2,124 -123.4,124 -33.500003,0 -63.800003,-13.4 -86.000003,-35.1 22.4,22.9 53.600003,37.1 88.000003,37.1 68.2,0 123.4,-55.5 123.4,-124 -0.1,-34.900005 -14.4,-66.400005 -37.4,-88.900002 z"
       id="path236"
       inkscape:connector-curvature="0"
       style="display:inline;opacity:0.05" /></g></g></svg>