<?xml version="1.0" encoding="UTF-8" standalone="no"?>
<svg
   xmlns:dc="http://purl.org/dc/elements/1.1/"
   xmlns:cc="http://creativecommons.org/ns#"
   xmlns:rdf="http://www.w3.org/1999/02/22-rdf-syntax-ns#"
   xmlns:svg="http://www.w3.org/2000/svg"
   xmlns="http://www.w3.org/2000/svg"
   xmlns:sodipodi="http://sodipodi.sourceforge.net/DTD/sodipodi-0.dtd"
   xmlns:inkscape="http://www.inkscape.org/namespaces/inkscape"
   height="16"
   width="16"
   version="1.1"
   id="svg4"
   sodipodi:docname="send-to-symbolic.svg"
   inkscape:version="0.92.3 (2405546, 2018-03-11)">
  <metadata
     id="metadata10">
    <rdf:RDF>
      <cc:Work
         rdf:about="">
        <dc:format>image/svg+xml</dc:format>
        <dc:type
           rdf:resource="http://purl.org/dc/dcmitype/StillImage" />
      </cc:Work>
    </rdf:RDF>
  </metadata>
  <defs
     id="defs8" />
  <sodipodi:namedview
     pagecolor="#ffffff"
     bordercolor="#666666"
     borderopacity="1"
     objecttolerance="10"
     gridtolerance="10"
     guidetolerance="10"
     inkscape:pageopacity="0"
     inkscape:pageshadow="2"
     inkscape:window-width="3840"
     inkscape:window-height="1539"
     id="namedview6"
     showgrid="false"
     inkscape:zoom="41.7193"
     inkscape:cx="2.1293603"
     inkscape:cy="6.9901033"
     inkscape:window-x="0"
     inkscape:window-y="27"
     inkscape:window-maximized="1"
     inkscape:current-layer="svg4" />
  <g
     transform="matrix(0.1,0,0,0.1,-4.8,-4.8000001)"
     id="g1100"
     style="fill:#808080;fill-opacity:1">
    <path
       inkscape:connector-curvature="0"
       id="path1307"
       d="M 153.11914,75.363281 87.835938,107.91211 A 25,25 0 0 0 73,103 a 25,25 0 0 0 -25,25 25,25 0 0 0 25,25 25,25 0 0 0 14.832031,-4.91211 l 65.271489,32.54297 A 30.000001,30.000001 0 0 1 173.375,154.61719 L 119.99023,128 173.38477,101.37891 A 30.000001,30.000001 0 0 1 153.11914,75.363281 Z M 89.708984,109.44336 a 25.000005,25.000005 0 0 1 0.09375,0.082 25,25 0 0 0 -0.09375,-0.082 z m 1.720704,1.70898 a 25.000005,25.000005 0 0 1 0.160156,0.17188 25,25 0 0 0 -0.160156,-0.17188 z m 1.546874,1.86914 a 25.000005,25.000005 0 0 1 0.210938,0.27735 25,25 0 0 0 -0.210938,-0.27735 z m 1.355469,2.00391 a 25.000005,25.000005 0 0 1 0.177735,0.27149 l -0.01563,-0.008 a 25,25 0 0 0 -0.16211,-0.26367 z M 73,115.5 A 12.5,12.5 0 0 1 85.5,128 12.5,12.5 0 0 1 73,140.5 12.5,12.5 0 0 1 60.5,128 12.5,12.5 0 0 1 73,115.5 Z m 22.589844,1.86133 a 25.000001,25.000001 0 0 1 0.103515,0.21484 25,25 0 0 0 -0.103515,-0.21484 z m 0.914062,2.21289 a 25.000001,25.000001 0 0 1 0.136719,0.37305 25,25 0 0 0 -0.136719,-0.37305 z m 0.685547,2.24023 a 25.000001,25.000001 0 0 1 0.158203,0.61914 25,25 0 0 0 -0.158203,-0.61914 z m 0.478516,2.31641 a 25.000001,25.000001 0 0 1 0.128906,0.86133 25,25 0 0 0 -0.128906,-0.86133 z m 0.255859,2.31445 a 25.000001,25.000001 0 0 1 0.06055,0.70117 A 25.000001,25.000001 0 0 1 98,128 25,25 0 0 0 97.92383,126.44531 Z m -0.03906,3.76172 a 25.000005,25.000005 0 0 1 -0.109375,0.9043 25,25 0 0 0 0.109375,-0.9043 z m -0.365235,2.5625 a 25.000005,25.000005 0 0 1 -0.136719,0.61524 25,25 0 0 0 0.136719,-0.61524 z m -0.621093,2.49024 a 25.000005,25.000005 0 0 1 -0.128907,0.39062 25,25 0 0 0 0.128907,-0.39062 z m -0.876954,2.41992 a 25.000005,25.000005 0 0 1 -0.06836,0.15625 25,25 0 0 0 0.06836,-0.15625 z m -2.371093,4.36914 a 25.000001,25.000001 0 0 1 -0.134766,0.18945 25,25 0 0 0 0.134766,-0.18945 z m -1.533203,2.02148 a 25.000001,25.000001 0 0 1 -0.07031,0.082 25,25 0 0 0 0.07031,-0.082 z"
       style="opacity:1;fill:#808080;fill-opacity:1;stroke:none;stroke-width:17.11767387;stroke-linecap:butt;stroke-linejoin:bevel;stroke-miterlimit:4;stroke-dasharray:none;stroke-opacity:1;paint-order:fill markers stroke" />
    <path
       inkscape:connector-curvature="0"
       id="path1171-3"
       d="m 183,48.000002 a 25,25 0 0 0 -25,25 25,25 0 0 0 25,25 25,25 0 0 0 25,-25 25,25 0 0 0 -25,-25 z m 0,12.5 a 12.5,12.5 0 0 1 12.5,12.5 12.5,12.5 0 0 1 -12.5,12.5 12.5,12.5 0 0 1 -12.5,-12.5 12.5,12.5 0 0 1 12.5,-12.5 z"
       style="opacity:1;fill:#808080;fill-opacity:1;fill-rule:nonzero;stroke:none;stroke-width:0.58456546;stroke-linecap:butt;stroke-linejoin:bevel;stroke-miterlimit:4;stroke-dasharray:none;stroke-opacity:1;paint-order:fill markers stroke" />
    <path
       inkscape:connector-curvature="0"
       id="path1171-5"
       d="m 183,158 a 25,25 0 0 0 -25,25 25,25 0 0 0 25,25 25,25 0 0 0 25,-25 25,25 0 0 0 -25,-25 z m 0,12.5 A 12.5,12.5 0 0 1 195.5,183 12.5,12.5 0 0 1 183,195.5 12.5,12.5 0 0 1 170.5,183 12.5,12.5 0 0 1 183,170.5 Z"
       style="opacity:1;fill:#808080;fill-opacity:1;fill-rule:nonzero;stroke:none;stroke-width:0.58456546;stroke-linecap:butt;stroke-linejoin:bevel;stroke-miterlimit:4;stroke-dasharray:none;stroke-opacity:1;paint-order:fill markers stroke" />
  </g>
</svg>
