<?xml version="1.0" encoding="UTF-8" standalone="no"?>
<svg
   xmlns:dc="http://purl.org/dc/elements/1.1/"
   xmlns:cc="http://creativecommons.org/ns#"
   xmlns:rdf="http://www.w3.org/1999/02/22-rdf-syntax-ns#"
   xmlns:svg="http://www.w3.org/2000/svg"
   xmlns="http://www.w3.org/2000/svg"
   xmlns:sodipodi="http://sodipodi.sourceforge.net/DTD/sodipodi-0.dtd"
   xmlns:inkscape="http://www.inkscape.org/namespaces/inkscape"
   height="16"
   width="16"
   version="1.1"
   id="svg8"
   sodipodi:docname="preferences-system-details-symbolic.svg"
   inkscape:version="0.92.3 (2405546, 2018-03-11)">
  <metadata
     id="metadata14">
    <rdf:RDF>
      <cc:Work
         rdf:about="">
        <dc:format>image/svg+xml</dc:format>
        <dc:type
           rdf:resource="http://purl.org/dc/dcmitype/StillImage" />
        <dc:title></dc:title>
      </cc:Work>
    </rdf:RDF>
  </metadata>
  <defs
     id="defs12" />
  <sodipodi:namedview
     pagecolor="#ffffff"
     bordercolor="#666666"
     borderopacity="1"
     objecttolerance="10"
     gridtolerance="10"
     guidetolerance="10"
     inkscape:pageopacity="0"
     inkscape:pageshadow="2"
     inkscape:window-width="1920"
     inkscape:window-height="1539"
     id="namedview10"
     showgrid="false"
     inkscape:zoom="20.85965"
     inkscape:cx="-1.4961724"
     inkscape:cy="16.118056"
     inkscape:window-x="1920"
     inkscape:window-y="27"
     inkscape:window-maximized="0"
     inkscape:current-layer="svg8" />
  <path
     style="opacity:1;fill:#808080;fill-opacity:1;stroke:none;stroke-width:0.08072932;stroke-opacity:0.94117647"
     d="m 8.0000002,-2e-7 a 8,8 0 0 0 -7.99999995,8 A 8,8 0 0 0 8.0000002,16 8,8 0 0 0 16,7.9999998 a 8,8 0 0 0 -7.9999998,-8 z m 0,1.5 A 6.5,6.5 0 0 1 14.5,7.9999998 6.5,6.5 0 0 1 8.0000002,14.5 a 6.5,6.5 0 0 1 -6.5,-6.5000002 6.5,6.5 0 0 1 6.5,-6.5 z"
     id="path1119"
     inkscape:connector-curvature="0" />
  <text
     xml:space="preserve"
     style="font-style:normal;font-variant:normal;font-weight:normal;font-stretch:normal;font-size:12.80000019px;line-height:1.25;font-family:'Star Labs';-inkscape-font-specification:'Star Labs';letter-spacing:0px;word-spacing:0px;fill:#808080;fill-opacity:1;stroke:none;stroke-width:0.1"
     x="6.4320002"
     y="12.6976"
     id="text1123"><tspan
       sodipodi:role="line"
       id="tspan1121"
       x="6.4320002"
       y="12.6976"
       style="fill:#808080;fill-opacity:1;stroke-width:0.1">i</tspan></text>
</svg>
