<?xml version="1.0" encoding="UTF-8" standalone="no"?>
<svg
   xmlns:dc="http://purl.org/dc/elements/1.1/"
   xmlns:cc="http://creativecommons.org/ns#"
   xmlns:rdf="http://www.w3.org/1999/02/22-rdf-syntax-ns#"
   xmlns:svg="http://www.w3.org/2000/svg"
   xmlns="http://www.w3.org/2000/svg"
   xmlns:sodipodi="http://sodipodi.sourceforge.net/DTD/sodipodi-0.dtd"
   xmlns:inkscape="http://www.inkscape.org/namespaces/inkscape"
   height="16"
   width="16"
   version="1.1"
   id="svg12"
   sodipodi:docname="preferences-desktop-display-symbolic.svg"
   inkscape:version="0.92.3 (2405546, 2018-03-11)">
  <metadata
     id="metadata18">
    <rdf:RDF>
      <cc:Work
         rdf:about="">
        <dc:format>image/svg+xml</dc:format>
        <dc:type
           rdf:resource="http://purl.org/dc/dcmitype/StillImage" />
        <dc:title></dc:title>
      </cc:Work>
    </rdf:RDF>
  </metadata>
  <defs
     id="defs16" />
  <sodipodi:namedview
     pagecolor="#ffffff"
     bordercolor="#666666"
     borderopacity="1"
     objecttolerance="10"
     gridtolerance="10"
     guidetolerance="10"
     inkscape:pageopacity="0"
     inkscape:pageshadow="2"
     inkscape:window-width="1920"
     inkscape:window-height="1539"
     id="namedview14"
     showgrid="false"
     inkscape:zoom="32"
     inkscape:cx="2.3757796"
     inkscape:cy="8.1371031"
     inkscape:window-x="1920"
     inkscape:window-y="27"
     inkscape:window-maximized="0"
     inkscape:current-layer="svg12" />
  <g
     id="g881"
     transform="translate(34.113281,19.722656)">
    <g
       transform="translate(-9.75,-6.4375)"
       id="g852">
      <path
         style="opacity:1;fill:#808080;fill-opacity:1;stroke:none;stroke-width:0.71170908;stroke-opacity:0.94117647"
         d="m -22.058594,-12.785156 c -1.277017,0 -2.304687,1.02767 -2.304687,2.304687 v 7.3906252 c 0,1.277017 1.02767,2.3046876 2.304687,2.3046876 h 11.390625 c 1.2770172,0 2.3046878,-1.0276706 2.3046878,-2.3046876 v -7.3906252 c 0,-1.277017 -1.0276706,-2.304687 -2.3046878,-2.304687 z m 0.798828,1 h 9.792969 c 1.064181,0 1.9218751,0.857694 1.9218751,1.921875 v 6.1582029 c 0,1.0641807 -0.8576941,1.9199219 -1.9218751,1.9199219 h -9.792969 c -1.06418,0 -1.921875,-0.8557412 -1.921875,-1.9199219 V -9.863281 c 0,-1.064181 0.857695,-1.921875 1.921875,-1.921875 z"
         id="rect828"
         inkscape:connector-curvature="0" />
      <g
         id="g1097"
         transform="matrix(0.05753698,0,0,0.05753698,-23.730891,-14.14989)"
         style="fill:#808080;fill-opacity:1">
        <circle
           r="15.555555"
           cy="128"
           cx="128.05"
           id="path1114-7"
           style="fill:#808080;fill-opacity:1;stroke:none;stroke-width:7.77777767;stroke-miterlimit:4;stroke-dasharray:none;stroke-opacity:1" />
        <path
           inkscape:connector-curvature="0"
           id="path1114-5-7"
           d="m 120.29316,58.474611 a 70,70 0 0 0 -20.23046,5.4414 l 0.85546,1.48243 c 2.15445,3.73159 0.88396,8.4686 -2.847647,10.62304 -3.73161,2.15445 -8.46861,0.88591 -10.62305,-2.8457 l -0.82422,-1.42969 a 70,70 0 0 0 -14.83984,14.75977 l 1.48047,0.85351 c 3.73161,2.15444 5.00014,6.89339 2.8457,10.625 -2.15445,3.731609 -6.89144,5.000149 -10.62305,2.845709 l -1.47656,-0.851569 a 70,70 0 0 0 -5.48047,20.228519 h 1.76367 c 4.30889,0 7.77735,3.46846 7.77735,7.77734 0,4.3089 -3.46846,7.77735 -7.77735,7.77735 h -1.73242 a 70,70 0 0 0 5.44141,20.23242 l 1.48437,-0.85742 c 3.73161,-2.15445 8.46861,-0.88396 10.62305,2.84765 2.15445,3.73161 0.88591,8.4686 -2.8457,10.62305 l -1.42969,0.82422 a 70,70 0 0 0 14.75976,14.83984 l 0.85352,-1.48047 c 2.15444,-3.7316 6.89144,-5.00014 10.62305,-2.8457 3.731607,2.15445 5.002097,6.89144 2.847647,10.62305 l -0.85156,1.47656 a 70,70 0 0 0 20.22656,5.48047 v -1.76367 c 0,-4.30889 3.46846,-7.77735 7.77735,-7.77735 4.30889,0 7.77734,3.46846 7.77734,7.77735 v 1.72265 a 70,70 0 0 0 20.2168,-5.46093 l -0.83985,-1.45508 c -2.15445,-3.73161 -0.8859,-8.4686 2.84571,-10.62305 3.73161,-2.15444 8.47056,-0.8859 10.625,2.8457 l 0.80078,1.38672 a 70,70 0 0 0 14.80469,-14.75 l -1.42188,-0.82031 c -3.73161,-2.15445 -5.00015,-6.89144 -2.8457,-10.62305 2.15444,-3.73161 6.89146,-5.0021 10.62304,-2.84765 l 1.40821,0.8125 a 70,70 0 0 0 5.48828,-20.1875 h -1.70508 c -4.30889,0 -7.77734,-3.46845 -7.77734,-7.77735 0,-4.30888 3.46845,-7.77734 7.77734,-7.77734 h 1.72266 a 70,70 0 0 0 -5.46094,-20.214849 l -1.45313,0.837899 c -3.7316,2.15445 -8.46859,0.8859 -10.62304,-2.845709 -2.15444,-3.73161 -0.88591,-8.47056 2.8457,-10.625 l 1.38477,-0.79883 a 70,70 0 0 0 -14.74805,-14.80468 l -0.82031,1.41992 c -2.15444,3.73161 -6.89339,5.00014 -10.625,2.8457 -3.73161,-2.15445 -5.00016,-6.89144 -2.84571,-10.62304 l 0.8125,-1.40821 a 70,70 0 0 0 -20.18945,-5.48828 v 1.70508 c 0,4.30889 -3.46845,7.77734 -7.77734,7.77734 -4.30889,0 -7.77735,-3.46845 -7.77735,-7.77734 z m 7.77735,14.50976 a 55,55 0 0 1 55,54.999999 55,55 0 0 1 -55,55 55,55 0 0 1 -54.999997,-55 55,55 0 0 1 54.999997,-54.999999 z"
           style="fill:#808080;fill-opacity:1;stroke:none;stroke-width:35;stroke-miterlimit:4;stroke-dasharray:none;stroke-opacity:1" />
        <path
           inkscape:connector-curvature="0"
           id="path1114-7-4"
           d="m 128.05078,78 a 50,50 0 0 0 -49.999999,50 50,50 0 0 0 49.999999,50 50,50 0 0 0 50,-50 50,50 0 0 0 -50,-50 z m 0,5 a 45,45 0 0 1 45,45 45,45 0 0 1 -45,45 45,45 0 0 1 -44.999999,-45 45,45 0 0 1 44.999999,-45 z"
           style="fill:#808080;fill-opacity:1;stroke:none;stroke-width:25;stroke-miterlimit:4;stroke-dasharray:none;stroke-opacity:1" />
      </g>
    </g>
    <g
       id="g869">
      <g
         id="g864">
        <rect
           ry="0"
           y="-7.2226562"
           x="-27.113281"
           height="2"
           width="2"
           id="rect854"
           style="opacity:1;fill:#808080;fill-opacity:1;stroke:none;stroke-width:0.26510641;stroke-opacity:0.94117647" />
        <rect
           y="-5.2226562"
           x="-31.113281"
           height="1"
           width="10"
           id="rect860"
           style="opacity:1;fill:#808080;fill-opacity:1;stroke:none;stroke-width:0.38835412;stroke-opacity:0.94117647" />
      </g>
    </g>
  </g>
</svg>
