<?xml version="1.0" encoding="UTF-8" standalone="no"?>
<svg
   xmlns:dc="http://purl.org/dc/elements/1.1/"
   xmlns:cc="http://creativecommons.org/ns#"
   xmlns:rdf="http://www.w3.org/1999/02/22-rdf-syntax-ns#"
   xmlns:svg="http://www.w3.org/2000/svg"
   xmlns="http://www.w3.org/2000/svg"
   xmlns:sodipodi="http://sodipodi.sourceforge.net/DTD/sodipodi-0.dtd"
   xmlns:inkscape="http://www.inkscape.org/namespaces/inkscape"
   height="16"
   width="16.003"
   version="1.1"
   id="svg4"
   sodipodi:docname="network-wired-offline-symbolic.svg"
   inkscape:version="0.92.3 (2405546, 2018-03-11)">
  <metadata
     id="metadata10">
    <rdf:RDF>
      <cc:Work
         rdf:about="">
        <dc:format>image/svg+xml</dc:format>
        <dc:type
           rdf:resource="http://purl.org/dc/dcmitype/StillImage" />
        <dc:title />
      </cc:Work>
    </rdf:RDF>
  </metadata>
  <defs
     id="defs8" />
  <sodipodi:namedview
     pagecolor="#ffffff"
     bordercolor="#666666"
     borderopacity="1"
     objecttolerance="10"
     gridtolerance="10"
     guidetolerance="10"
     inkscape:pageopacity="0"
     inkscape:pageshadow="2"
     inkscape:window-width="1920"
     inkscape:window-height="1474"
     id="namedview6"
     showgrid="false"
     inkscape:zoom="59"
     inkscape:cx="4.4725676"
     inkscape:cy="5.8473913"
     inkscape:window-x="1920"
     inkscape:window-y="27"
     inkscape:window-maximized="0"
     inkscape:current-layer="svg4" />
  <path
     style="opacity:0.5;fill:#808080;fill-opacity:1;stroke:none;stroke-width:0.61498493;stroke-opacity:0.94117647"
     d="M 6.2519531 1.7617188 C 5.8317958 1.7617188 5.4941406 2.0993739 5.4941406 2.5195312 L 5.4941406 5.0039062 C 5.4941406 5.4240636 5.8317958 5.7617188 6.2519531 5.7617188 L 7.4941406 5.7617188 L 7.4941406 7.2128906 L 3.6054688 7.2128906 C 3.2671878 7.2128906 2.9941406 7.4859378 2.9941406 7.8242188 L 2.9941406 10.238281 L 1.7246094 10.238281 C 1.3044521 10.238281 0.96679688 10.575936 0.96679688 10.996094 L 0.96679688 13.480469 C 0.96679687 13.900626 1.3044521 14.238281 1.7246094 14.238281 L 5.2070312 14.238281 C 5.6271886 14.238281 5.9667969 13.900626 5.9667969 13.480469 L 5.9667969 10.996094 C 5.9667969 10.575936 5.6271886 10.238281 5.2070312 10.238281 L 3.828125 10.238281 L 3.828125 8.5761719 C 3.828125 8.2829939 4.0642439 8.046876 4.3574219 8.046875 L 11.632812 8.046875 C 11.92599 8.046875 12.162109 8.2829939 12.162109 8.5761719 L 12.162109 10.238281 L 10.794922 10.238281 C 10.374765 10.238281 10.037109 10.575936 10.037109 10.996094 L 10.037109 13.480469 C 10.037109 13.900626 10.374765 14.238281 10.794922 14.238281 L 14.279297 14.238281 C 14.699454 14.238281 15.037109 13.900626 15.037109 13.480469 L 15.037109 10.996094 C 15.037109 10.575936 14.699454 10.238281 14.279297 10.238281 L 12.994141 10.238281 L 12.994141 7.8242188 C 12.994141 7.4859377 12.723048 7.2128906 12.384766 7.2128906 L 8.4941406 7.2128906 L 8.4941406 5.7617188 L 9.7363281 5.7617188 C 10.156485 5.7617188 10.494141 5.4240636 10.494141 5.0039062 L 10.494141 2.5195312 C 10.494141 2.0993739 10.156485 1.7617188 9.7363281 1.7617188 L 6.2519531 1.7617188 z "
     id="rect881" />
  <g
     transform="translate(0.00150032)"
     id="g827">
    <rect
       transform="rotate(-135)"
       y="-6"
       x="-12.313708"
       height="12"
       width="2"
       id="rect816-3-7-5"
       style="opacity:1;fill:#808080;fill-opacity:1;stroke:none;stroke-width:1.05910194;stroke-linecap:butt;stroke-linejoin:bevel;stroke-miterlimit:4;stroke-dasharray:none;stroke-opacity:1;paint-order:fill markers stroke" />
    <rect
       transform="rotate(-45)"
       y="5.3137083"
       x="-1.0000001"
       height="12"
       width="2"
       id="rect816-3-7-5-2"
       style="opacity:1;fill:#808080;fill-opacity:1;stroke:none;stroke-width:1.05910194;stroke-linecap:butt;stroke-linejoin:bevel;stroke-miterlimit:4;stroke-dasharray:none;stroke-opacity:1;paint-order:fill markers stroke" />
  </g>
</svg>
