<?xml version="1.0" encoding="UTF-8" standalone="no"?>
<svg
   xmlns:dc="http://purl.org/dc/elements/1.1/"
   xmlns:cc="http://creativecommons.org/ns#"
   xmlns:rdf="http://www.w3.org/1999/02/22-rdf-syntax-ns#"
   xmlns:svg="http://www.w3.org/2000/svg"
   xmlns="http://www.w3.org/2000/svg"
   xmlns:sodipodi="http://sodipodi.sourceforge.net/DTD/sodipodi-0.dtd"
   xmlns:inkscape="http://www.inkscape.org/namespaces/inkscape"
   height="16"
   width="16"
   version="1.1"
   id="svg8"
   sodipodi:docname="mail-send-receive-symbolic.svg"
   inkscape:version="0.92.3 (2405546, 2018-03-11)">
  <metadata
     id="metadata14">
    <rdf:RDF>
      <cc:Work
         rdf:about="">
        <dc:format>image/svg+xml</dc:format>
        <dc:type
           rdf:resource="http://purl.org/dc/dcmitype/StillImage" />
      </cc:Work>
    </rdf:RDF>
  </metadata>
  <defs
     id="defs12" />
  <sodipodi:namedview
     pagecolor="#ffffff"
     bordercolor="#666666"
     borderopacity="1"
     objecttolerance="10"
     gridtolerance="10"
     guidetolerance="10"
     inkscape:pageopacity="0"
     inkscape:pageshadow="2"
     inkscape:window-width="2800"
     inkscape:window-height="1539"
     id="namedview10"
     showgrid="false"
     inkscape:zoom="20.85965"
     inkscape:cx="-3.1925059"
     inkscape:cy="8.3406846"
     inkscape:window-x="0"
     inkscape:window-y="27"
     inkscape:window-maximized="0"
     inkscape:current-layer="svg8" />
  <path
     style="opacity:1;fill:#808080;fill-opacity:1;stroke:none;stroke-width:0.89164054;stroke-linecap:butt;stroke-linejoin:bevel;stroke-miterlimit:4;stroke-dasharray:none;stroke-opacity:1;paint-order:fill markers stroke"
     d="M 11.833334,16 10.642858,14.809523 13.619047,11.833334 10.642858,8.8571432 11.833334,7.6666662 14.809526,10.642857 16,11.833334 14.809526,13.023808 Z"
     id="rect816-3-7-5"
     inkscape:connector-curvature="0" />
  <path
     style="opacity:1;fill:#808080;fill-opacity:1;stroke:none;stroke-width:1.59213877;stroke-linecap:butt;stroke-linejoin:bevel;stroke-miterlimit:4;stroke-dasharray:none;stroke-opacity:1;paint-order:fill markers stroke"
     d="M 0 8 L 0 10.923828 C -1.4802974e-16 11.89421 0.78157112 12.675781 1.7519531 12.675781 L 13.248047 12.675781 C 14.195005 12.675781 14.957671 11.929896 14.994141 10.992188 L 2.3320312 10.992188 C 1.9724943 10.992187 1.6835938 10.701335 1.6835938 10.341797 L 1.6835938 8 L 0 8 z "
     id="rect849-3" />
  <path
     style="opacity:1;fill:#808080;fill-opacity:1;stroke:none;stroke-width:0.89164054;stroke-linecap:butt;stroke-linejoin:bevel;stroke-miterlimit:4;stroke-dasharray:none;stroke-opacity:1;paint-order:fill markers stroke"
     d="M 4.166666,0 5.357142,1.190477 2.380953,4.166666 5.357142,7.1428568 4.166666,8.3333338 1.190474,5.357143 0,4.166666 1.190474,2.976192 Z"
     id="rect816-3-7-5-6"
     inkscape:connector-curvature="0" />
  <path
     style="opacity:1;fill:#808080;fill-opacity:1;stroke:none;stroke-width:1.59213877;stroke-linecap:butt;stroke-linejoin:bevel;stroke-miterlimit:4;stroke-dasharray:none;stroke-opacity:1;paint-order:fill markers stroke"
     d="M 2.7519531 3.3242188 C 1.8049947 3.3242187 1.0423274 4.0701035 1.0058594 5.0078125 L 13.667969 5.0078125 C 14.027506 5.0078125 14.316406 5.2986651 14.316406 5.6582031 L 14.316406 8 L 16 8 L 16 5.0761719 C 16 4.1057899 15.218429 3.3242188 14.248047 3.3242188 L 2.7519531 3.3242188 z "
     id="rect849-3-7" />
</svg>
