<?xml version="1.0" encoding="UTF-8" standalone="no"?>
<svg
   xmlns:dc="http://purl.org/dc/elements/1.1/"
   xmlns:cc="http://creativecommons.org/ns#"
   xmlns:rdf="http://www.w3.org/1999/02/22-rdf-syntax-ns#"
   xmlns:svg="http://www.w3.org/2000/svg"
   xmlns="http://www.w3.org/2000/svg"
   xmlns:sodipodi="http://sodipodi.sourceforge.net/DTD/sodipodi-0.dtd"
   xmlns:inkscape="http://www.inkscape.org/namespaces/inkscape"
   height="16"
   width="16"
   version="1.1"
   id="svg4"
   sodipodi:docname="view-app-grid-symbolic (copy).svg"
   inkscape:version="0.92.4 (5da689c313, 2019-01-14)">
  <metadata
     id="metadata10">
    <rdf:RDF>
      <cc:Work
         rdf:about="">
        <dc:format>image/svg+xml</dc:format>
        <dc:type
           rdf:resource="http://purl.org/dc/dcmitype/StillImage" />
        <dc:title />
      </cc:Work>
    </rdf:RDF>
  </metadata>
  <defs
     id="defs8">
    <linearGradient
       id="linear-gradient-6-8"
       x1="-8778.8066"
       y1="-6369.4072"
       x2="-8547.9189"
       y2="-6368.8652"
       gradientTransform="matrix(1.219,0.123,-0.123,1.219,10533.536,9729.872)"
       gradientUnits="userSpaceOnUse">
      <stop
         offset="0"
         stop-color="#002079"
         id="stop45-79" />
      <stop
         offset="0.995"
         stop-color="#000f40"
         id="stop47-2" />
    </linearGradient>
  </defs>
  <sodipodi:namedview
     pagecolor="#ffffff"
     bordercolor="#666666"
     borderopacity="1"
     objecttolerance="10"
     gridtolerance="10"
     guidetolerance="10"
     inkscape:pageopacity="0"
     inkscape:pageshadow="2"
     inkscape:window-width="1885"
     inkscape:window-height="1536"
     id="namedview6"
     showgrid="false"
     inkscape:pagecheckerboard="true"
     inkscape:zoom="29.5"
     inkscape:cx="14.894666"
     inkscape:cy="0.49811548"
     inkscape:window-x="1955"
     inkscape:window-y="27"
     inkscape:window-maximized="0"
     inkscape:current-layer="svg4" />
  <path
     style="display:inline;fill:#ffffff;fill-opacity:1;stroke-width:0.09149861"
     d="M 1.6425781 0 C 0.73273699 0 0 0.73273699 0 1.6425781 L 0 14.357422 C 0 15.267263 0.73273699 16 1.6425781 16 L 14.357422 16 C 15.267263 16 16 15.267263 16 14.357422 L 16 1.6425781 C 16 0.73273699 15.267263 0 14.357422 0 L 1.6425781 0 z M 2.0390625 0.5 L 13.960938 0.5 C 14.813914 0.5 15.5 1.1860864 15.5 2.0390625 L 15.5 13.960938 C 15.5 14.813914 14.813914 15.5 13.960938 15.5 L 2.0390625 15.5 C 1.1860864 15.5 0.5 14.813914 0.5 13.960938 L 0.5 2.0390625 C 0.5 1.1860864 1.1860864 0.5 2.0390625 0.5 z "
     id="rect1101" />
</svg>
