<?xml version="1.0" encoding="UTF-8" standalone="no"?>
<svg
   xmlns:dc="http://purl.org/dc/elements/1.1/"
   xmlns:cc="http://creativecommons.org/ns#"
   xmlns:rdf="http://www.w3.org/1999/02/22-rdf-syntax-ns#"
   xmlns:svg="http://www.w3.org/2000/svg"
   xmlns="http://www.w3.org/2000/svg"
   xmlns:sodipodi="http://sodipodi.sourceforge.net/DTD/sodipodi-0.dtd"
   xmlns:inkscape="http://www.inkscape.org/namespaces/inkscape"
   height="16"
   width="16"
   version="1.1"
   id="svg6"
   sodipodi:docname="avatar-default-symbolic.svg"
   inkscape:version="0.92.3 (2405546, 2018-03-11)">
  <metadata
     id="metadata12">
    <rdf:RDF>
      <cc:Work
         rdf:about="">
        <dc:format>image/svg+xml</dc:format>
        <dc:type
           rdf:resource="http://purl.org/dc/dcmitype/StillImage" />
        <dc:title></dc:title>
      </cc:Work>
    </rdf:RDF>
  </metadata>
  <defs
     id="defs10" />
  <sodipodi:namedview
     pagecolor="#ffffff"
     bordercolor="#666666"
     borderopacity="1"
     objecttolerance="10"
     gridtolerance="10"
     guidetolerance="10"
     inkscape:pageopacity="0"
     inkscape:pageshadow="2"
     inkscape:window-width="1920"
     inkscape:window-height="1474"
     id="namedview8"
     showgrid="false"
     inkscape:zoom="14.75"
     inkscape:cx="8.4067797"
     inkscape:cy="-24.542373"
     inkscape:window-x="0"
     inkscape:window-y="27"
     inkscape:window-maximized="0"
     inkscape:current-layer="svg6" />
  <path
     style="opacity:1;fill:#808080;fill-opacity:1;stroke:none;stroke-width:0.14006411;stroke-opacity:0.94117647"
     d="M 7.8761055,-5.4701669e-7 A 5.575221,5.9388139 0 0 0 2.3008845,5.9388129 5.575221,5.9388139 0 0 0 7.8761055,11.877627 5.575221,5.9388139 0 0 0 13.451326,5.9388129 5.575221,5.9388139 0 0 0 7.8761055,-5.4701669e-7 Z m 0,0.65986810701669 A 4.955752,5.2789456 0 0 1 12.831857,5.9388129 4.955752,5.2789456 0 0 1 7.8761055,11.21776 4.955752,5.2789456 0 0 1 2.920354,5.9388129 4.955752,5.2789456 0 0 1 7.8761055,0.65986756 Z"
     id="path1119"
     inkscape:connector-curvature="0" />
  <path
     style="opacity:1;fill:#808080;fill-opacity:1;stroke:none;stroke-width:0.07727651;stroke-opacity:0.94117647"
     d="m 3.1856066,12.603483 c -1.2107789,0 -2.18560702,1.194622 -2.18560702,2.678394 V 16 C 1.1413753,15.980155 1.2849172,15.968811 1.4307679,15.968811 H 1.5384604 V 15.64403 c 0,-1.318907 0.866422,-2.38068 1.9426686,-2.38068 h 9.037741 c 1.076247,0 1.942669,1.061773 1.942669,2.38068 v 0.324781 h 0.53846 v -0.686934 c 0,-1.483772 -0.974829,-2.678394 -2.185607,-2.678394 z"
     id="rect1130"
     inkscape:connector-curvature="0" />
</svg>
