<?xml version="1.0" encoding="UTF-8" standalone="no"?>
<svg
   xmlns:dc="http://purl.org/dc/elements/1.1/"
   xmlns:cc="http://creativecommons.org/ns#"
   xmlns:rdf="http://www.w3.org/1999/02/22-rdf-syntax-ns#"
   xmlns:svg="http://www.w3.org/2000/svg"
   xmlns="http://www.w3.org/2000/svg"
   xmlns:sodipodi="http://sodipodi.sourceforge.net/DTD/sodipodi-0.dtd"
   xmlns:inkscape="http://www.inkscape.org/namespaces/inkscape"
   height="16"
   width="16"
   version="1.1"
   id="svg8"
   sodipodi:docname="battery-caution-symbolic.svg"
   inkscape:version="0.92.3 (2405546, 2018-03-11)">
  <metadata
     id="metadata14">
    <rdf:RDF>
      <cc:Work
         rdf:about="">
        <dc:format>image/svg+xml</dc:format>
        <dc:type
           rdf:resource="http://purl.org/dc/dcmitype/StillImage" />
      </cc:Work>
    </rdf:RDF>
  </metadata>
  <defs
     id="defs12">
    <clipPath
       clipPathUnits="userSpaceOnUse"
       id="clipPath954">
      <rect
         style="opacity:1;fill:#aa0000;fill-opacity:1;stroke:none;stroke-width:1.13153362;stroke-linecap:butt;stroke-linejoin:bevel;stroke-miterlimit:4;stroke-dasharray:none;stroke-opacity:1;paint-order:fill markers stroke"
         id="rect956"
         width="8"
         height="4"
         x="4"
         y="-15"
         ry="0" />
    </clipPath>
    <clipPath
       clipPathUnits="userSpaceOnUse"
       id="clipPath958">
      <rect
         style="opacity:1;fill:#aa0000;fill-opacity:1;stroke:none;stroke-width:1.26509309;stroke-linecap:butt;stroke-linejoin:bevel;stroke-miterlimit:4;stroke-dasharray:none;stroke-opacity:1;paint-order:fill markers stroke"
         id="rect960"
         width="8"
         height="5"
         x="34.915253"
         y="5.8262711"
         ry="0" />
    </clipPath>
    <clipPath
       clipPathUnits="userSpaceOnUse"
       id="clipPath962">
      <rect
         style="opacity:1;fill:#aa0000;fill-opacity:1;stroke:none;stroke-width:1.13153362;stroke-linecap:butt;stroke-linejoin:bevel;stroke-miterlimit:4;stroke-dasharray:none;stroke-opacity:1;paint-order:fill markers stroke"
         id="rect964"
         width="8"
         height="4"
         x="-26.983051"
         y="16.588984"
         ry="0" />
    </clipPath>
    <clipPath
       clipPathUnits="userSpaceOnUse"
       id="clipPath958-3">
      <rect
         style="opacity:1;fill:#aa0000;fill-opacity:1;stroke:none;stroke-width:1.26509309;stroke-linecap:butt;stroke-linejoin:bevel;stroke-miterlimit:4;stroke-dasharray:none;stroke-opacity:1;paint-order:fill markers stroke"
         id="rect960-6"
         width="8"
         height="5"
         x="34.915253"
         y="5.8262711"
         ry="0" />
    </clipPath>
  </defs>
  <sodipodi:namedview
     pagecolor="#ffffff"
     bordercolor="#666666"
     borderopacity="1"
     objecttolerance="10"
     gridtolerance="10"
     guidetolerance="10"
     inkscape:pageopacity="0"
     inkscape:pageshadow="2"
     inkscape:window-width="1920"
     inkscape:window-height="1539"
     id="namedview10"
     showgrid="false"
     inkscape:zoom="32"
     inkscape:cx="-5.3284777"
     inkscape:cy="5.7567418"
     inkscape:window-x="0"
     inkscape:window-y="27"
     inkscape:window-maximized="0"
     inkscape:current-layer="svg8" />
  <path
     inkscape:connector-curvature="0"
     style="opacity:1;fill:#808080;fill-opacity:1;stroke:none;stroke-width:2.60913873;stroke-linecap:butt;stroke-linejoin:bevel;stroke-miterlimit:4;stroke-dasharray:none;stroke-opacity:1;paint-order:fill markers stroke"
     d="M 6.28125,0 C 5.6686331,0 5.161488,0.42718537 5.0332031,1 H 4.28125 C 3.5712264,1 3,1.5712264 3,2.28125 v 12.4375 C 3,15.428774 3.5712264,16 4.28125,16 h 7.4375 C 12.428774,16 13,15.428774 13,14.71875 V 2.28125 C 13,1.5712264 12.428774,1 11.71875,1 H 10.966797 C 10.838512,0.42718537 10.331367,0 9.71875,0 Z M 5.1113281,2 H 10.888672 C 11.504026,2 12,2.4959744 12,3.1113281 V 13.888672 C 12,14.504026 11.504026,15 10.888672,15 H 5.1113281 C 4.4959744,15 4,14.504026 4,13.888672 V 3.1113281 C 4,2.4959744 4.4959744,2 5.1113281,2 Z"
     id="rect846" />
  <path
     style="opacity:0.5;fill:#808080;fill-opacity:1;stroke:none;stroke-width:2.1725421;stroke-linecap:butt;stroke-linejoin:bevel;stroke-miterlimit:4;stroke-dasharray:none;stroke-opacity:1;paint-order:fill markers stroke"
     d="M 10.888672,15 C 11.504026,15 12,14.504026 12,13.888672 V 12.5 l -8,0 v 1.388672 C 4.000001,14.504026 4.495975,15 5.111329,15 Z"
     id="rect846-3-5-6-7"
     inkscape:connector-curvature="0" />
</svg>
