<?xml version="1.0" encoding="UTF-8" standalone="no"?>
<svg
   xmlns:dc="http://purl.org/dc/elements/1.1/"
   xmlns:cc="http://creativecommons.org/ns#"
   xmlns:rdf="http://www.w3.org/1999/02/22-rdf-syntax-ns#"
   xmlns:svg="http://www.w3.org/2000/svg"
   xmlns="http://www.w3.org/2000/svg"
   xmlns:sodipodi="http://sodipodi.sourceforge.net/DTD/sodipodi-0.dtd"
   xmlns:inkscape="http://www.inkscape.org/namespaces/inkscape"
   height="16"
   width="16"
   version="1.1"
   id="svg10"
   sodipodi:docname="network-wireless-acquiring-symbolic.svg"
   inkscape:version="0.92.3 (2405546, 2018-03-11)">
  <metadata
     id="metadata16">
    <rdf:RDF>
      <cc:Work
         rdf:about="">
        <dc:format>image/svg+xml</dc:format>
        <dc:type
           rdf:resource="http://purl.org/dc/dcmitype/StillImage" />
      </cc:Work>
    </rdf:RDF>
  </metadata>
  <defs
     id="defs14">
    <clipPath
       clipPathUnits="userSpaceOnUse"
       id="clipPath1255">
      <path
         style="opacity:0.48500001;fill:#ff0000;fill-opacity:1;stroke:none;stroke-width:1.55265307;stroke-linecap:butt;stroke-linejoin:bevel;stroke-miterlimit:4;stroke-dasharray:none;stroke-opacity:1;paint-order:fill markers stroke"
         d="M 19.463968,3.6220819 C 12.584252,-1.1997254 3.4244875,-1.2080383 -3.4639675,3.6012729 L 8.0075615,19.984316 Z"
         id="path1257"
         inkscape:connector-curvature="0"
         sodipodi:nodetypes="cccc" />
    </clipPath>
    <clipPath
       clipPathUnits="userSpaceOnUse"
       id="clipPath1259">
      <path
         style="opacity:0.48500001;fill:#ff0000;fill-opacity:1;stroke:none;stroke-width:1.55265307;stroke-linecap:butt;stroke-linejoin:bevel;stroke-miterlimit:4;stroke-dasharray:none;stroke-opacity:1;paint-order:fill markers stroke"
         d="M 19.463968,3.6220821 C 12.584252,-1.1997252 3.4244869,-1.2080381 -3.4639681,3.6012731 L 8.0075609,19.984316 Z"
         id="path1261"
         inkscape:connector-curvature="0"
         sodipodi:nodetypes="cccc" />
    </clipPath>
    <clipPath
       clipPathUnits="userSpaceOnUse"
       id="clipPath1263">
      <path
         style="opacity:0.48500001;fill:#ff0000;fill-opacity:1;stroke:none;stroke-width:1.55265307;stroke-linecap:butt;stroke-linejoin:bevel;stroke-miterlimit:4;stroke-dasharray:none;stroke-opacity:1;paint-order:fill markers stroke"
         d="M 19.463968,3.6220819 C 12.584252,-1.1997254 3.4244869,-1.2080383 -3.4639681,3.6012729 L 8.0075609,19.984316 Z"
         id="path1265"
         inkscape:connector-curvature="0"
         sodipodi:nodetypes="cccc" />
    </clipPath>
    <clipPath
       clipPathUnits="userSpaceOnUse"
       id="clipPath1267">
      <path
         style="opacity:0.48500001;fill:#ff0000;fill-opacity:1;stroke:none;stroke-width:1.55265307;stroke-linecap:butt;stroke-linejoin:bevel;stroke-miterlimit:4;stroke-dasharray:none;stroke-opacity:1;paint-order:fill markers stroke"
         d="M 19.463968,3.6220822 C 12.584252,-1.1997251 3.4244869,-1.208038 -3.4639681,3.6012732 L 8.0075609,19.984316 Z"
         id="path1269"
         inkscape:connector-curvature="0"
         sodipodi:nodetypes="cccc" />
    </clipPath>
    <clipPath
       clipPathUnits="userSpaceOnUse"
       id="clipPath1271">
      <path
         style="opacity:0.48500001;fill:#ff0000;fill-opacity:1;stroke:none;stroke-width:1.55265307;stroke-linecap:butt;stroke-linejoin:bevel;stroke-miterlimit:4;stroke-dasharray:none;stroke-opacity:1;paint-order:fill markers stroke"
         d="M 19.463968,3.6220822 C 12.584252,-1.1997251 3.4244869,-1.208038 -3.4639681,3.6012732 L 8.0075609,19.984316 Z"
         id="path1273"
         inkscape:connector-curvature="0"
         sodipodi:nodetypes="cccc" />
    </clipPath>
    <clipPath
       clipPathUnits="userSpaceOnUse"
       id="clipPath1109">
      <path
         style="opacity:0.5;fill:#d40000;fill-opacity:1;stroke:none;stroke-width:0.70976883;stroke-linecap:butt;stroke-linejoin:bevel;stroke-miterlimit:4;stroke-dasharray:none;stroke-opacity:1;paint-order:fill markers stroke"
         d="M 7.999024,0 C 5.192067,0.007341 2.436436,0.7529984 0.008789,2.1621094 L 7.999024,16 15.991211,2.15625 C 13.562423,0.74885671 10.80611,0.00521793 7.999024,0 Z"
         id="path1111"
         inkscape:connector-curvature="0"
         sodipodi:nodetypes="ccccc" />
    </clipPath>
    <clipPath
       clipPathUnits="userSpaceOnUse"
       id="clipPath1113">
      <path
         style="opacity:0.5;fill:#d40000;fill-opacity:1;stroke:none;stroke-width:0.70976883;stroke-linecap:butt;stroke-linejoin:bevel;stroke-miterlimit:4;stroke-dasharray:none;stroke-opacity:1;paint-order:fill markers stroke"
         d="M 7.999024,0 C 5.192067,0.007341 2.436436,0.7529984 0.008789,2.1621094 L 7.999024,16 15.991211,2.15625 C 13.562423,0.74885671 10.80611,0.00521793 7.999024,0 Z"
         id="path1115"
         inkscape:connector-curvature="0"
         sodipodi:nodetypes="ccccc" />
    </clipPath>
    <clipPath
       clipPathUnits="userSpaceOnUse"
       id="clipPath1117">
      <path
         style="opacity:0.5;fill:#d40000;fill-opacity:1;stroke:none;stroke-width:0.70976883;stroke-linecap:butt;stroke-linejoin:bevel;stroke-miterlimit:4;stroke-dasharray:none;stroke-opacity:1;paint-order:fill markers stroke"
         d="M 7.999024,0 C 5.192067,0.007341 2.436436,0.7529984 0.008789,2.1621094 L 7.999024,16 15.991211,2.15625 C 13.562423,0.74885671 10.80611,0.00521793 7.999024,0 Z"
         id="path1119"
         inkscape:connector-curvature="0"
         sodipodi:nodetypes="ccccc" />
    </clipPath>
    <clipPath
       clipPathUnits="userSpaceOnUse"
       id="clipPath1121">
      <path
         style="opacity:0.5;fill:#d40000;fill-opacity:1;stroke:none;stroke-width:0.70976883;stroke-linecap:butt;stroke-linejoin:bevel;stroke-miterlimit:4;stroke-dasharray:none;stroke-opacity:1;paint-order:fill markers stroke"
         d="M 7.999024,0 C 5.192067,0.007341 2.436436,0.7529984 0.008789,2.1621094 L 7.999024,16 15.991211,2.15625 C 13.562423,0.74885671 10.80611,0.00521793 7.999024,0 Z"
         id="path1123"
         inkscape:connector-curvature="0"
         sodipodi:nodetypes="ccccc" />
    </clipPath>
    <clipPath
       clipPathUnits="userSpaceOnUse"
       id="clipPath1125">
      <path
         style="opacity:0.5;fill:#d40000;fill-opacity:1;stroke:none;stroke-width:0.70976883;stroke-linecap:butt;stroke-linejoin:bevel;stroke-miterlimit:4;stroke-dasharray:none;stroke-opacity:1;paint-order:fill markers stroke"
         d="M 8,0 C 5.1930433,0.00734108 2.4374118,0.7529984 0.00976563,2.1621094 L 8,16 15.992188,2.15625 C 13.5634,0.74885671 10.807087,0.00521793 8,0 Z"
         id="path1127"
         inkscape:connector-curvature="0"
         sodipodi:nodetypes="ccccc" />
    </clipPath>
  </defs>
  <sodipodi:namedview
     pagecolor="#ffffff"
     bordercolor="#666666"
     borderopacity="1"
     objecttolerance="10"
     gridtolerance="10"
     guidetolerance="10"
     inkscape:pageopacity="0"
     inkscape:pageshadow="2"
     inkscape:window-width="1920"
     inkscape:window-height="1539"
     id="namedview12"
     showgrid="false"
     inkscape:zoom="41.7193"
     inkscape:cx="10.020636"
     inkscape:cy="9.0241388"
     inkscape:window-x="0"
     inkscape:window-y="27"
     inkscape:window-maximized="0"
     inkscape:current-layer="svg10"
     showguides="true"
     inkscape:guide-bbox="true">
    <sodipodi:guide
       position="-28.813559,7.661017"
       orientation="1,0"
       id="guide1021"
       inkscape:locked="false" />
  </sodipodi:namedview>
  <path
     style="opacity:0.2;fill:#808080;fill-opacity:1;fill-rule:nonzero;stroke:none;stroke-width:8.22895622;stroke-linecap:butt;stroke-linejoin:bevel;stroke-miterlimit:4;stroke-dasharray:none;stroke-opacity:1;paint-order:fill markers stroke"
     d="m 0,5.6568542 8,8.0000008 8,-8.0000008 a 11.313708,11.313708 0 0 0 -16,0 z"
     id="path836"
     inkscape:connector-curvature="0" />
  <path
     style="opacity:0.4;fill:#808080;fill-opacity:1;fill-rule:nonzero;stroke:none;stroke-width:6.68602705;stroke-linecap:butt;stroke-linejoin:bevel;stroke-miterlimit:4;stroke-dasharray:none;stroke-opacity:1;paint-order:fill markers stroke"
     d="M 1.549316,6.986932 A 9.1923881,9.1923881 0 0 0 1.4184569,7.1275571 l 6.529297,6.5292979 6.6337891,-6.6337899 a 9.1923881,9.1923881 0 0 0 -0.03223,-0.036133 9.1923881,9.1923881 0 0 0 -13,0 z"
     id="path836-3"
     inkscape:connector-curvature="0" />
  <path
     style="opacity:0.6;fill:#808080;fill-opacity:1;fill-rule:nonzero;stroke:none;stroke-width:5.14309788;stroke-linecap:butt;stroke-linejoin:bevel;stroke-miterlimit:4;stroke-dasharray:none;stroke-opacity:1;paint-order:fill markers stroke"
     d="m 3.0493159,8.4869317 a 7.0710678,7.0710678 0 0 0 -0.130859,0.1406252 l 5.029297,5.0292981 5.1337891,-5.1337901 a 7.0710678,7.0710678 0 0 0 -0.03223,-0.036133 7.0710678,7.0710678 0 0 0 -10.0000001,-2e-7 z"
     id="path836-3-6"
     inkscape:connector-curvature="0" />
  <path
     style="opacity:0.8;fill:#808080;fill-opacity:1;fill-rule:nonzero;stroke:none;stroke-width:3.60016823;stroke-linecap:butt;stroke-linejoin:bevel;stroke-miterlimit:4;stroke-dasharray:none;stroke-opacity:1;paint-order:fill markers stroke"
     d="M 4.549316,9.9869324 A 4.9497475,4.9497475 0 0 0 4.418457,10.127558 l 3.529297,3.529297 3.633789,-3.633789 a 4.9497475,4.9497475 0 0 0 -0.03223,-0.036134 4.9497475,4.9497475 0 0 0 -7,0 z"
     id="path836-3-6-7"
     inkscape:connector-curvature="0" />
  <path
     style="opacity:1;fill:#808080;fill-opacity:1;fill-rule:nonzero;stroke:none;stroke-width:2.05723906;stroke-linecap:butt;stroke-linejoin:bevel;stroke-miterlimit:4;stroke-dasharray:none;stroke-opacity:1;paint-order:fill markers stroke"
     d="m 6.049316,11.486933 a 2.8284271,2.8284271 0 0 0 -0.130859,0.140625 l 2.029297,2.029297 2.133789,-2.133789 a 2.8284271,2.8284271 0 0 0 -0.03223,-0.03613 2.8284271,2.8284271 0 0 0 -4,0 z"
     id="path836-3-6-7-5"
     inkscape:connector-curvature="0" />
</svg>
