<?xml version="1.0" encoding="UTF-8" standalone="no"?>
<svg
   xmlns:dc="http://purl.org/dc/elements/1.1/"
   xmlns:cc="http://creativecommons.org/ns#"
   xmlns:rdf="http://www.w3.org/1999/02/22-rdf-syntax-ns#"
   xmlns:svg="http://www.w3.org/2000/svg"
   xmlns="http://www.w3.org/2000/svg"
   xmlns:sodipodi="http://sodipodi.sourceforge.net/DTD/sodipodi-0.dtd"
   xmlns:inkscape="http://www.inkscape.org/namespaces/inkscape"
   height="16"
   width="16"
   version="1.1"
   id="svg10"
   sodipodi:docname="network-wireless-no-route-symbolic.svg"
   inkscape:version="0.92.3 (2405546, 2018-03-11)">
  <metadata
     id="metadata16">
    <rdf:RDF>
      <cc:Work
         rdf:about="">
        <dc:format>image/svg+xml</dc:format>
        <dc:type
           rdf:resource="http://purl.org/dc/dcmitype/StillImage" />
      </cc:Work>
    </rdf:RDF>
  </metadata>
  <defs
     id="defs14">
    <clipPath
       clipPathUnits="userSpaceOnUse"
       id="clipPath1109">
      <path
         style="opacity:0.5;fill:#d40000;fill-opacity:1;stroke:none;stroke-width:0.70976883;stroke-linecap:butt;stroke-linejoin:bevel;stroke-miterlimit:4;stroke-dasharray:none;stroke-opacity:1;paint-order:fill markers stroke"
         d="M 7.999024,0 C 5.192067,0.007341 2.436436,0.7529984 0.008789,2.1621094 L 7.999024,16 15.991211,2.15625 C 13.562423,0.74885671 10.80611,0.00521793 7.999024,0 Z"
         id="path1111"
         inkscape:connector-curvature="0"
         sodipodi:nodetypes="ccccc" />
    </clipPath>
    <clipPath
       clipPathUnits="userSpaceOnUse"
       id="clipPath1113">
      <path
         style="opacity:0.5;fill:#d40000;fill-opacity:1;stroke:none;stroke-width:0.70976883;stroke-linecap:butt;stroke-linejoin:bevel;stroke-miterlimit:4;stroke-dasharray:none;stroke-opacity:1;paint-order:fill markers stroke"
         d="M 7.999024,0 C 5.192067,0.007341 2.436436,0.7529984 0.008789,2.1621094 L 7.999024,16 15.991211,2.15625 C 13.562423,0.74885671 10.80611,0.00521793 7.999024,0 Z"
         id="path1115"
         inkscape:connector-curvature="0"
         sodipodi:nodetypes="ccccc" />
    </clipPath>
    <clipPath
       clipPathUnits="userSpaceOnUse"
       id="clipPath1117">
      <path
         style="opacity:0.5;fill:#d40000;fill-opacity:1;stroke:none;stroke-width:0.70976883;stroke-linecap:butt;stroke-linejoin:bevel;stroke-miterlimit:4;stroke-dasharray:none;stroke-opacity:1;paint-order:fill markers stroke"
         d="M 7.999024,0 C 5.192067,0.007341 2.436436,0.7529984 0.008789,2.1621094 L 7.999024,16 15.991211,2.15625 C 13.562423,0.74885671 10.80611,0.00521793 7.999024,0 Z"
         id="path1119"
         inkscape:connector-curvature="0"
         sodipodi:nodetypes="ccccc" />
    </clipPath>
    <clipPath
       clipPathUnits="userSpaceOnUse"
       id="clipPath1121">
      <path
         style="opacity:0.5;fill:#d40000;fill-opacity:1;stroke:none;stroke-width:0.70976883;stroke-linecap:butt;stroke-linejoin:bevel;stroke-miterlimit:4;stroke-dasharray:none;stroke-opacity:1;paint-order:fill markers stroke"
         d="M 7.999024,0 C 5.192067,0.007341 2.436436,0.7529984 0.008789,2.1621094 L 7.999024,16 15.991211,2.15625 C 13.562423,0.74885671 10.80611,0.00521793 7.999024,0 Z"
         id="path1123"
         inkscape:connector-curvature="0"
         sodipodi:nodetypes="ccccc" />
    </clipPath>
    <clipPath
       clipPathUnits="userSpaceOnUse"
       id="clipPath1125">
      <path
         style="opacity:0.5;fill:#d40000;fill-opacity:1;stroke:none;stroke-width:0.70976883;stroke-linecap:butt;stroke-linejoin:bevel;stroke-miterlimit:4;stroke-dasharray:none;stroke-opacity:1;paint-order:fill markers stroke"
         d="M 8,0 C 5.1930433,0.00734108 2.4374118,0.7529984 0.00976563,2.1621094 L 8,16 15.992188,2.15625 C 13.5634,0.74885671 10.807087,0.00521793 8,0 Z"
         id="path1127"
         inkscape:connector-curvature="0"
         sodipodi:nodetypes="ccccc" />
    </clipPath>
  </defs>
  <sodipodi:namedview
     pagecolor="#ffffff"
     bordercolor="#666666"
     borderopacity="1"
     objecttolerance="10"
     gridtolerance="10"
     guidetolerance="10"
     inkscape:pageopacity="0"
     inkscape:pageshadow="2"
     inkscape:window-width="1920"
     inkscape:window-height="1019"
     id="namedview12"
     showgrid="false"
     inkscape:zoom="20.85965"
     inkscape:cx="3.4850609"
     inkscape:cy="-0.058178692"
     inkscape:window-x="0"
     inkscape:window-y="27"
     inkscape:window-maximized="1"
     inkscape:current-layer="svg10" />
  <g
     id="g841">
    <path
       clip-path="url(#clipPath1109)"
       id="path900"
       d="M 8,0 A 16,16 0 0 0 -8,16 16,16 0 0 0 8.0019531,32 16,16 0 0 0 24,16 16,16 0 0 0 8,0 Z M 8,3 A 13,13 0 0 1 21,16 13,13 0 0 1 8,29 13,13 0 0 1 -5,16 13,13 0 0 1 8,3 Z"
       style="opacity:0.4;fill:#808080;fill-opacity:1;stroke:none;stroke-width:3.466748;stroke-linecap:butt;stroke-linejoin:bevel;stroke-miterlimit:4;stroke-dasharray:none;stroke-opacity:1;paint-order:fill markers stroke"
       inkscape:connector-curvature="0" />
    <path
       clip-path="url(#clipPath1113)"
       id="path900-5"
       d="M 8,3 A 13,13 0 0 0 -5,16 13,13 0 0 0 8,29 13,13 0 0 0 21,16 13,13 0 0 0 8,3 Z M 8,6 A 10,10 0 0 1 18,16 10,10 0 0 1 8,26 10,10 0 0 1 -2,16 10,10 0 0 1 8,6 Z"
       style="opacity:0.5;fill:#808080;fill-opacity:1;stroke:none;stroke-width:2.81673288;stroke-linecap:butt;stroke-linejoin:bevel;stroke-miterlimit:4;stroke-dasharray:none;stroke-opacity:1;paint-order:fill markers stroke"
       inkscape:connector-curvature="0" />
    <path
       clip-path="url(#clipPath1117)"
       id="path900-5-6"
       d="M 8,6 A 10,10 0 0 0 -2,16 10,10 0 0 0 8,26 10,10 0 0 0 18,16 10,10 0 0 0 8,6 Z m 0,3 a 7,7 0 0 1 7,7 7,7 0 0 1 -7,7 7,7 0 0 1 -7,-7 7,7 0 0 1 7,-7 z"
       style="opacity:0.6;fill:#808080;fill-opacity:1;stroke:none;stroke-width:2.16671753;stroke-linecap:butt;stroke-linejoin:bevel;stroke-miterlimit:4;stroke-dasharray:none;stroke-opacity:1;paint-order:fill markers stroke"
       inkscape:connector-curvature="0" />
    <path
       clip-path="url(#clipPath1121)"
       id="path900-5-6-2"
       d="m 8,9 a 7,7 0 0 0 -7,7 7,7 0 0 0 7,7 7,7 0 0 0 7,-7 7,7 0 0 0 -7,-7 z m 0,3 a 4,4 0 0 1 4,4 4,4 0 0 1 -4,4 4,4 0 0 1 -4,-4 4,4 0 0 1 4,-4 z"
       style="opacity:0.7;fill:#808080;fill-opacity:1;stroke:none;stroke-width:1.51670229;stroke-linecap:butt;stroke-linejoin:bevel;stroke-miterlimit:4;stroke-dasharray:none;stroke-opacity:1;paint-order:fill markers stroke"
       inkscape:connector-curvature="0" />
    <circle
       clip-path="url(#clipPath1125)"
       r="4"
       cy="16"
       cx="8.0009766"
       id="path900-5-6-2-9"
       style="opacity:1;fill:#808080;fill-opacity:1;stroke:none;stroke-width:0.866687;stroke-linecap:butt;stroke-linejoin:bevel;stroke-miterlimit:4;stroke-dasharray:none;stroke-opacity:1;paint-order:fill markers stroke" />
  </g>
  <text
     xml:space="preserve"
     style="font-style:normal;font-weight:normal;font-size:35.46099472px;line-height:1.25;font-family:sans-serif;letter-spacing:0px;word-spacing:0px;fill:#808080;fill-opacity:1;stroke:none;stroke-width:0.8865248"
     x="4.8794327"
     y="10.921986"
     id="text824"><tspan
       sodipodi:role="line"
       id="tspan822"
       x="4.8794327"
       y="10.921986"
       style="font-style:normal;font-variant:normal;font-weight:normal;font-stretch:normal;font-size:14.18439674px;font-family:'Star Labs';-inkscape-font-specification:'Star Labs';fill:#808080;fill-opacity:1;stroke-width:0.8865248">?</tspan></text>
</svg>
