<?xml version="1.0" encoding="UTF-8" standalone="no"?>
<svg
   xmlns:dc="http://purl.org/dc/elements/1.1/"
   xmlns:cc="http://creativecommons.org/ns#"
   xmlns:rdf="http://www.w3.org/1999/02/22-rdf-syntax-ns#"
   xmlns:svg="http://www.w3.org/2000/svg"
   xmlns="http://www.w3.org/2000/svg"
   xmlns:sodipodi="http://sodipodi.sourceforge.net/DTD/sodipodi-0.dtd"
   xmlns:inkscape="http://www.inkscape.org/namespaces/inkscape"
   height="16"
   width="16"
   version="1.1"
   id="svg10"
   sodipodi:docname="network-wireless-offline-symbolic.svg"
   inkscape:version="0.92.3 (2405546, 2018-03-11)">
  <metadata
     id="metadata16">
    <rdf:RDF>
      <cc:Work
         rdf:about="">
        <dc:format>image/svg+xml</dc:format>
        <dc:type
           rdf:resource="http://purl.org/dc/dcmitype/StillImage" />
      </cc:Work>
    </rdf:RDF>
  </metadata>
  <defs
     id="defs14">
    <clipPath
       clipPathUnits="userSpaceOnUse"
       id="clipPath1255">
      <path
         style="opacity:0.48500001;fill:#ff0000;fill-opacity:1;stroke:none;stroke-width:1.55265307;stroke-linecap:butt;stroke-linejoin:bevel;stroke-miterlimit:4;stroke-dasharray:none;stroke-opacity:1;paint-order:fill markers stroke"
         d="M 19.463968,3.6220819 C 12.584252,-1.1997254 3.4244875,-1.2080383 -3.4639675,3.6012729 L 8.0075615,19.984316 Z"
         id="path1257"
         inkscape:connector-curvature="0"
         sodipodi:nodetypes="cccc" />
    </clipPath>
    <clipPath
       clipPathUnits="userSpaceOnUse"
       id="clipPath1259">
      <path
         style="opacity:0.48500001;fill:#ff0000;fill-opacity:1;stroke:none;stroke-width:1.55265307;stroke-linecap:butt;stroke-linejoin:bevel;stroke-miterlimit:4;stroke-dasharray:none;stroke-opacity:1;paint-order:fill markers stroke"
         d="M 19.463968,3.6220821 C 12.584252,-1.1997252 3.4244869,-1.2080381 -3.4639681,3.6012731 L 8.0075609,19.984316 Z"
         id="path1261"
         inkscape:connector-curvature="0"
         sodipodi:nodetypes="cccc" />
    </clipPath>
    <clipPath
       clipPathUnits="userSpaceOnUse"
       id="clipPath1263">
      <path
         style="opacity:0.48500001;fill:#ff0000;fill-opacity:1;stroke:none;stroke-width:1.55265307;stroke-linecap:butt;stroke-linejoin:bevel;stroke-miterlimit:4;stroke-dasharray:none;stroke-opacity:1;paint-order:fill markers stroke"
         d="M 19.463968,3.6220819 C 12.584252,-1.1997254 3.4244869,-1.2080383 -3.4639681,3.6012729 L 8.0075609,19.984316 Z"
         id="path1265"
         inkscape:connector-curvature="0"
         sodipodi:nodetypes="cccc" />
    </clipPath>
    <clipPath
       clipPathUnits="userSpaceOnUse"
       id="clipPath1267">
      <path
         style="opacity:0.48500001;fill:#ff0000;fill-opacity:1;stroke:none;stroke-width:1.55265307;stroke-linecap:butt;stroke-linejoin:bevel;stroke-miterlimit:4;stroke-dasharray:none;stroke-opacity:1;paint-order:fill markers stroke"
         d="M 19.463968,3.6220822 C 12.584252,-1.1997251 3.4244869,-1.208038 -3.4639681,3.6012732 L 8.0075609,19.984316 Z"
         id="path1269"
         inkscape:connector-curvature="0"
         sodipodi:nodetypes="cccc" />
    </clipPath>
    <clipPath
       clipPathUnits="userSpaceOnUse"
       id="clipPath1271">
      <path
         style="opacity:0.48500001;fill:#ff0000;fill-opacity:1;stroke:none;stroke-width:1.55265307;stroke-linecap:butt;stroke-linejoin:bevel;stroke-miterlimit:4;stroke-dasharray:none;stroke-opacity:1;paint-order:fill markers stroke"
         d="M 19.463968,3.6220822 C 12.584252,-1.1997251 3.4244869,-1.208038 -3.4639681,3.6012732 L 8.0075609,19.984316 Z"
         id="path1273"
         inkscape:connector-curvature="0"
         sodipodi:nodetypes="cccc" />
    </clipPath>
    <clipPath
       clipPathUnits="userSpaceOnUse"
       id="clipPath1109">
      <path
         style="opacity:0.5;fill:#d40000;fill-opacity:1;stroke:none;stroke-width:0.70976883;stroke-linecap:butt;stroke-linejoin:bevel;stroke-miterlimit:4;stroke-dasharray:none;stroke-opacity:1;paint-order:fill markers stroke"
         d="M 7.999024,0 C 5.192067,0.007341 2.436436,0.7529984 0.008789,2.1621094 L 7.999024,16 15.991211,2.15625 C 13.562423,0.74885671 10.80611,0.00521793 7.999024,0 Z"
         id="path1111"
         inkscape:connector-curvature="0"
         sodipodi:nodetypes="ccccc" />
    </clipPath>
    <clipPath
       clipPathUnits="userSpaceOnUse"
       id="clipPath1113">
      <path
         style="opacity:0.5;fill:#d40000;fill-opacity:1;stroke:none;stroke-width:0.70976883;stroke-linecap:butt;stroke-linejoin:bevel;stroke-miterlimit:4;stroke-dasharray:none;stroke-opacity:1;paint-order:fill markers stroke"
         d="M 7.999024,0 C 5.192067,0.007341 2.436436,0.7529984 0.008789,2.1621094 L 7.999024,16 15.991211,2.15625 C 13.562423,0.74885671 10.80611,0.00521793 7.999024,0 Z"
         id="path1115"
         inkscape:connector-curvature="0"
         sodipodi:nodetypes="ccccc" />
    </clipPath>
    <clipPath
       clipPathUnits="userSpaceOnUse"
       id="clipPath1117">
      <path
         style="opacity:0.5;fill:#d40000;fill-opacity:1;stroke:none;stroke-width:0.70976883;stroke-linecap:butt;stroke-linejoin:bevel;stroke-miterlimit:4;stroke-dasharray:none;stroke-opacity:1;paint-order:fill markers stroke"
         d="M 7.999024,0 C 5.192067,0.007341 2.436436,0.7529984 0.008789,2.1621094 L 7.999024,16 15.991211,2.15625 C 13.562423,0.74885671 10.80611,0.00521793 7.999024,0 Z"
         id="path1119"
         inkscape:connector-curvature="0"
         sodipodi:nodetypes="ccccc" />
    </clipPath>
    <clipPath
       clipPathUnits="userSpaceOnUse"
       id="clipPath1121">
      <path
         style="opacity:0.5;fill:#d40000;fill-opacity:1;stroke:none;stroke-width:0.70976883;stroke-linecap:butt;stroke-linejoin:bevel;stroke-miterlimit:4;stroke-dasharray:none;stroke-opacity:1;paint-order:fill markers stroke"
         d="M 7.999024,0 C 5.192067,0.007341 2.436436,0.7529984 0.008789,2.1621094 L 7.999024,16 15.991211,2.15625 C 13.562423,0.74885671 10.80611,0.00521793 7.999024,0 Z"
         id="path1123"
         inkscape:connector-curvature="0"
         sodipodi:nodetypes="ccccc" />
    </clipPath>
    <clipPath
       clipPathUnits="userSpaceOnUse"
       id="clipPath1125">
      <path
         style="opacity:0.5;fill:#d40000;fill-opacity:1;stroke:none;stroke-width:0.70976883;stroke-linecap:butt;stroke-linejoin:bevel;stroke-miterlimit:4;stroke-dasharray:none;stroke-opacity:1;paint-order:fill markers stroke"
         d="M 8,0 C 5.1930433,0.00734108 2.4374118,0.7529984 0.00976563,2.1621094 L 8,16 15.992188,2.15625 C 13.5634,0.74885671 10.807087,0.00521793 8,0 Z"
         id="path1127"
         inkscape:connector-curvature="0"
         sodipodi:nodetypes="ccccc" />
    </clipPath>
  </defs>
  <sodipodi:namedview
     pagecolor="#ffffff"
     bordercolor="#666666"
     borderopacity="1"
     objecttolerance="10"
     gridtolerance="10"
     guidetolerance="10"
     inkscape:pageopacity="0"
     inkscape:pageshadow="2"
     inkscape:window-width="1920"
     inkscape:window-height="1019"
     id="namedview12"
     showgrid="false"
     inkscape:zoom="20.85965"
     inkscape:cx="4.1285774"
     inkscape:cy="11.063553"
     inkscape:window-x="0"
     inkscape:window-y="27"
     inkscape:window-maximized="1"
     inkscape:current-layer="svg10" />
  <path
     style="opacity:0.5;fill:#808080;fill-opacity:1;stroke:none;stroke-width:3.466748;stroke-linecap:butt;stroke-linejoin:bevel;stroke-miterlimit:4;stroke-dasharray:none;stroke-opacity:1;paint-order:fill markers stroke"
     d="M 8 0 A 16 16 0 0 0 -8 16 A 16 16 0 0 0 8.0019531 32 A 16 16 0 0 0 24 16 A 16 16 0 0 0 8 0 z M 8 3 A 13 13 0 0 1 21 16 A 13 13 0 0 1 8 29 A 13 13 0 0 1 -5 16 A 13 13 0 0 1 8 3 z "
     id="path900"
     clip-path="url(#clipPath1109)" />
  <path
     style="opacity:0.5;fill:#808080;fill-opacity:1;stroke:none;stroke-width:2.81673288;stroke-linecap:butt;stroke-linejoin:bevel;stroke-miterlimit:4;stroke-dasharray:none;stroke-opacity:1;paint-order:fill markers stroke"
     d="M 8 3 A 13 13 0 0 0 -5 16 A 13 13 0 0 0 8 29 A 13 13 0 0 0 21 16 A 13 13 0 0 0 8 3 z M 8 6 A 10 10 0 0 1 18 16 A 10 10 0 0 1 8 26 A 10 10 0 0 1 -2 16 A 10 10 0 0 1 8 6 z "
     id="path900-5"
     clip-path="url(#clipPath1113)" />
  <path
     style="opacity:0.5;fill:#808080;fill-opacity:1;stroke:none;stroke-width:2.16671753;stroke-linecap:butt;stroke-linejoin:bevel;stroke-miterlimit:4;stroke-dasharray:none;stroke-opacity:1;paint-order:fill markers stroke"
     d="M 8 6 A 10 10 0 0 0 -2 16 A 10 10 0 0 0 8 26 A 10 10 0 0 0 18 16 A 10 10 0 0 0 8 6 z M 8 9 A 7 7 0 0 1 15 16 A 7 7 0 0 1 8 23 A 7 7 0 0 1 1 16 A 7 7 0 0 1 8 9 z "
     id="path900-5-6"
     clip-path="url(#clipPath1117)" />
  <path
     style="opacity:0.5;fill:#808080;fill-opacity:1;stroke:none;stroke-width:1.51670229;stroke-linecap:butt;stroke-linejoin:bevel;stroke-miterlimit:4;stroke-dasharray:none;stroke-opacity:1;paint-order:fill markers stroke"
     d="M 8 9 A 7 7 0 0 0 1 16 A 7 7 0 0 0 8 23 A 7 7 0 0 0 15 16 A 7 7 0 0 0 8 9 z M 8 12 A 4 4 0 0 1 12 16 A 4 4 0 0 1 8 20 A 4 4 0 0 1 4 16 A 4 4 0 0 1 8 12 z "
     id="path900-5-6-2"
     clip-path="url(#clipPath1121)" />
  <circle
     style="opacity:0.5;fill:#808080;fill-opacity:1;stroke:none;stroke-width:0.866687;stroke-linecap:butt;stroke-linejoin:bevel;stroke-miterlimit:4;stroke-dasharray:none;stroke-opacity:1;paint-order:fill markers stroke"
     id="path900-5-6-2-9"
     cx="8.0009766"
     cy="16"
     r="4"
     clip-path="url(#clipPath1125)" />
</svg>
