<?xml version="1.0" encoding="UTF-8" standalone="no"?>
<svg
   xmlns:dc="http://purl.org/dc/elements/1.1/"
   xmlns:cc="http://creativecommons.org/ns#"
   xmlns:rdf="http://www.w3.org/1999/02/22-rdf-syntax-ns#"
   xmlns:svg="http://www.w3.org/2000/svg"
   xmlns="http://www.w3.org/2000/svg"
   xmlns:sodipodi="http://sodipodi.sourceforge.net/DTD/sodipodi-0.dtd"
   xmlns:inkscape="http://www.inkscape.org/namespaces/inkscape"
   height="16"
   width="16"
   version="1.1"
   id="svg8"
   sodipodi:docname="weather-snow-symbolic.svg"
   inkscape:version="0.92.3 (2405546, 2018-03-11)">
  <metadata
     id="metadata14">
    <rdf:RDF>
      <cc:Work
         rdf:about="">
        <dc:format>image/svg+xml</dc:format>
        <dc:type
           rdf:resource="http://purl.org/dc/dcmitype/StillImage" />
        <dc:title />
      </cc:Work>
    </rdf:RDF>
  </metadata>
  <defs
     id="defs12" />
  <sodipodi:namedview
     pagecolor="#ffffff"
     bordercolor="#666666"
     borderopacity="1"
     objecttolerance="10"
     gridtolerance="10"
     guidetolerance="10"
     inkscape:pageopacity="0"
     inkscape:pageshadow="2"
     inkscape:window-width="1920"
     inkscape:window-height="1474"
     id="namedview10"
     showgrid="false"
     inkscape:zoom="29.5"
     inkscape:cx="0.9062912"
     inkscape:cy="7.389781"
     inkscape:window-x="0"
     inkscape:window-y="27"
     inkscape:window-maximized="0"
     inkscape:current-layer="svg8" />
  <g
     id="g866"
     transform="translate(0.23205841,-2)">
    <g
       transform="translate(-1.4655601,3.1529558)"
       id="g878">
      <rect
         style="opacity:1;fill:none;fill-opacity:0.38039216;stroke:#808080;stroke-width:0.13600001;stroke-miterlimit:4;stroke-dasharray:none;stroke-opacity:1"
         id="rect866"
         width="0.035900358"
         height="2.6677945"
         x="-12.126843"
         y="3.2184179"
         ry="0.023428721"
         transform="rotate(-90)" />
      <path
         sodipodi:type="star"
         style="opacity:1;fill:none;fill-opacity:0.38039216;stroke:#808080;stroke-width:0.30000001;stroke-miterlimit:4;stroke-dasharray:none;stroke-opacity:1"
         id="path868"
         sodipodi:sides="6"
         sodipodi:cx="4.6101694"
         sodipodi:cy="12.084746"
         sodipodi:r1="1.2966102"
         sodipodi:r2="0.64830512"
         sodipodi:arg1="-1.5707963"
         sodipodi:arg2="-1.0471976"
         inkscape:flatsided="false"
         inkscape:rounded="0"
         inkscape:randomized="0"
         d="m 4.6101694,10.788136 0.3241525,0.735162 0.7987449,-0.08686 -0.4745923,0.648305 0.4745923,0.648306 -0.7987448,-0.08686 -0.3241526,0.735162 -0.3241525,-0.735162 -0.7987449,0.08686 0.4745923,-0.648305 -0.4745923,-0.648305 0.7987448,0.08686 z" />
      <rect
         transform="matrix(-0.8320729,0.55466629,-0.50985769,-0.86025876,0,0)"
         ry="0.027197614"
         y="-14.156224"
         x="2.2268875"
         height="3.0969527"
         width="0.040627811"
         id="rect870"
         style="opacity:1;fill:none;fill-opacity:0.38039216;stroke:#808080;stroke-width:0.13609537;stroke-miterlimit:4;stroke-dasharray:none;stroke-opacity:1" />
      <rect
         style="opacity:1;fill:none;fill-opacity:0.38039216;stroke:#808080;stroke-width:0.13609537;stroke-miterlimit:4;stroke-dasharray:none;stroke-opacity:1"
         id="rect872"
         width="0.040627811"
         height="3.0969527"
         x="10.080564"
         y="-9.0924349"
         ry="0.027197614"
         transform="matrix(0.8320729,0.55466629,0.50985769,-0.86025876,0,0)" />
    </g>
    <g
       id="g888"
       transform="translate(7.7959754,3.1529558)">
      <rect
         transform="rotate(-90)"
         ry="0.023428721"
         y="3.2184179"
         x="-12.126843"
         height="2.6677945"
         width="0.035900358"
         id="rect880"
         style="opacity:1;fill:none;fill-opacity:0.38039216;stroke:#808080;stroke-width:0.13600001;stroke-miterlimit:4;stroke-dasharray:none;stroke-opacity:1" />
      <path
         d="m 4.6101694,10.788136 0.3241525,0.735162 0.7987449,-0.08686 -0.4745923,0.648305 0.4745923,0.648306 -0.7987448,-0.08686 -0.3241526,0.735162 -0.3241525,-0.735162 -0.7987449,0.08686 0.4745923,-0.648305 -0.4745923,-0.648305 0.7987448,0.08686 z"
         inkscape:randomized="0"
         inkscape:rounded="0"
         inkscape:flatsided="false"
         sodipodi:arg2="-1.0471976"
         sodipodi:arg1="-1.5707963"
         sodipodi:r2="0.64830512"
         sodipodi:r1="1.2966102"
         sodipodi:cy="12.084746"
         sodipodi:cx="4.6101694"
         sodipodi:sides="6"
         id="path882"
         style="opacity:1;fill:none;fill-opacity:0.38039216;stroke:#808080;stroke-width:0.30000001;stroke-miterlimit:4;stroke-dasharray:none;stroke-opacity:1"
         sodipodi:type="star" />
      <rect
         style="opacity:1;fill:none;fill-opacity:0.38039216;stroke:#808080;stroke-width:0.13609537;stroke-miterlimit:4;stroke-dasharray:none;stroke-opacity:1"
         id="rect884"
         width="0.040627811"
         height="3.0969527"
         x="2.2268875"
         y="-14.156224"
         ry="0.027197614"
         transform="matrix(-0.8320729,0.55466629,-0.50985769,-0.86025876,0,0)" />
      <rect
         transform="matrix(0.8320729,0.55466629,0.50985769,-0.86025876,0,0)"
         ry="0.027197614"
         y="-9.0924349"
         x="10.080564"
         height="3.0969527"
         width="0.040627811"
         id="rect886"
         style="opacity:1;fill:none;fill-opacity:0.38039216;stroke:#808080;stroke-width:0.13609537;stroke-miterlimit:4;stroke-dasharray:none;stroke-opacity:1" />
    </g>
    <g
       transform="translate(3.1652073,3.1529558)"
       id="g898">
      <rect
         style="opacity:1;fill:none;fill-opacity:0.38039216;stroke:#808080;stroke-width:0.13600001;stroke-miterlimit:4;stroke-dasharray:none;stroke-opacity:1"
         id="rect890"
         width="0.035900358"
         height="2.6677945"
         x="-12.126843"
         y="3.2184179"
         ry="0.023428721"
         transform="rotate(-90)" />
      <path
         sodipodi:type="star"
         style="opacity:1;fill:none;fill-opacity:0.38039216;stroke:#808080;stroke-width:0.30000001;stroke-miterlimit:4;stroke-dasharray:none;stroke-opacity:1"
         id="path892"
         sodipodi:sides="6"
         sodipodi:cx="4.6101694"
         sodipodi:cy="12.084746"
         sodipodi:r1="1.2966102"
         sodipodi:r2="0.64830512"
         sodipodi:arg1="-1.5707963"
         sodipodi:arg2="-1.0471976"
         inkscape:flatsided="false"
         inkscape:rounded="0"
         inkscape:randomized="0"
         d="m 4.6101694,10.788136 0.3241525,0.735162 0.7987449,-0.08686 -0.4745923,0.648305 0.4745923,0.648306 -0.7987448,-0.08686 -0.3241526,0.735162 -0.3241525,-0.735162 -0.7987449,0.08686 0.4745923,-0.648305 -0.4745923,-0.648305 0.7987448,0.08686 z" />
      <rect
         transform="matrix(-0.8320729,0.55466629,-0.50985769,-0.86025876,0,0)"
         ry="0.027197614"
         y="-14.156224"
         x="2.2268875"
         height="3.0969527"
         width="0.040627811"
         id="rect894"
         style="opacity:1;fill:none;fill-opacity:0.38039216;stroke:#808080;stroke-width:0.13609537;stroke-miterlimit:4;stroke-dasharray:none;stroke-opacity:1" />
      <rect
         style="opacity:1;fill:none;fill-opacity:0.38039216;stroke:#808080;stroke-width:0.13609537;stroke-miterlimit:4;stroke-dasharray:none;stroke-opacity:1"
         id="rect896"
         width="0.040627811"
         height="3.0969527"
         x="10.080564"
         y="-9.0924349"
         ry="0.027197614"
         transform="matrix(0.8320729,0.55466629,0.50985769,-0.86025876,0,0)" />
    </g>
  </g>
  <path
     style="opacity:1;fill:#808080;fill-opacity:1;stroke:none;stroke-width:0.44185147;stroke-linecap:butt;stroke-linejoin:bevel;stroke-miterlimit:4;stroke-dasharray:none;stroke-opacity:1;paint-order:fill markers stroke"
     d="M 9.874976,7.4468974e-4 A 4.6222223,4.4340474 0 0 0 5.9902549,2.1724667 3.1824362,3.0528763 0 0 0 5.0069211,2.0392329 3.1824362,3.0528763 0 0 0 1.8833097,5.1302751 3.1824362,3.0528763 0 0 0 1.8902797,5.2608459 C 0.8162731,5.4285307 0,6.3108179 0,7.3899345 V 7.834938 C 0,9.034387 1.0065909,10 2.256944,10 H 13.743056 C 14.993408,10 16,9.034387 16,7.834938 V 7.3899345 C 16,6.4401279 15.364157,5.644636 14.480555,5.3514455 A 4.6222223,4.4340474 0 0 0 14.58195,4.4334585 L 14.58045,4.3242092 A 4.6222223,4.4340474 0 0 0 9.874936,7.4468974e-4 Z"
     id="rect834"
     inkscape:connector-curvature="0" />
</svg>
