<?xml version="1.0" encoding="UTF-8" standalone="no"?>
<svg
   xmlns:dc="http://purl.org/dc/elements/1.1/"
   xmlns:cc="http://creativecommons.org/ns#"
   xmlns:rdf="http://www.w3.org/1999/02/22-rdf-syntax-ns#"
   xmlns:svg="http://www.w3.org/2000/svg"
   xmlns="http://www.w3.org/2000/svg"
   xmlns:sodipodi="http://sodipodi.sourceforge.net/DTD/sodipodi-0.dtd"
   xmlns:inkscape="http://www.inkscape.org/namespaces/inkscape"
   height="16"
   width="16"
   version="1.1"
   id="svg4"
   sodipodi:docname="weather-cloudy-symbolic.svg"
   inkscape:version="0.92.3 (2405546, 2018-03-11)">
  <metadata
     id="metadata10">
    <rdf:RDF>
      <cc:Work
         rdf:about="">
        <dc:format>image/svg+xml</dc:format>
        <dc:type
           rdf:resource="http://purl.org/dc/dcmitype/StillImage" />
        <dc:title />
      </cc:Work>
    </rdf:RDF>
  </metadata>
  <defs
     id="defs8" />
  <sodipodi:namedview
     pagecolor="#ffffff"
     bordercolor="#666666"
     borderopacity="1"
     objecttolerance="10"
     gridtolerance="10"
     guidetolerance="10"
     inkscape:pageopacity="0"
     inkscape:pageshadow="2"
     inkscape:window-width="1920"
     inkscape:window-height="1474"
     id="namedview6"
     showgrid="false"
     inkscape:zoom="29.5"
     inkscape:cx="1.455531"
     inkscape:cy="9.3917969"
     inkscape:window-x="0"
     inkscape:window-y="27"
     inkscape:window-maximized="0"
     inkscape:current-layer="svg4" />
  <path
     style="opacity:1;fill:#808080;fill-opacity:1;stroke:none;stroke-width:0.44185147;stroke-linecap:butt;stroke-linejoin:bevel;stroke-miterlimit:4;stroke-dasharray:none;stroke-opacity:1;paint-order:fill markers stroke"
     d="M 9.874976,7.4468974e-4 A 4.6222223,4.4340474 0 0 0 5.9902549,2.1724667 3.1824362,3.0528763 0 0 0 5.0069211,2.0392329 3.1824362,3.0528763 0 0 0 1.8833097,5.1302751 3.1824362,3.0528763 0 0 0 1.8902797,5.2608459 C 0.8162731,5.4285307 0,6.3108179 0,7.3899345 V 7.834938 C 0,9.034387 1.0065909,10 2.256944,10 H 13.743056 C 14.993408,10 16,9.034387 16,7.834938 V 7.3899345 C 16,6.4401279 15.364157,5.644636 14.480555,5.3514455 A 4.6222223,4.4340474 0 0 0 14.58195,4.4334585 L 14.58045,4.3242092 A 4.6222223,4.4340474 0 0 0 9.874936,7.4468974e-4 Z"
     id="rect834"
     inkscape:connector-curvature="0" />
</svg>
