<?xml version="1.0" encoding="UTF-8" standalone="no"?>
<svg
   xmlns:dc="http://purl.org/dc/elements/1.1/"
   xmlns:cc="http://creativecommons.org/ns#"
   xmlns:rdf="http://www.w3.org/1999/02/22-rdf-syntax-ns#"
   xmlns:svg="http://www.w3.org/2000/svg"
   xmlns="http://www.w3.org/2000/svg"
   xmlns:sodipodi="http://sodipodi.sourceforge.net/DTD/sodipodi-0.dtd"
   xmlns:inkscape="http://www.inkscape.org/namespaces/inkscape"
   height="16"
   width="16"
   version="1.1"
   id="svg8"
   sodipodi:docname="weather-showers-scattered-symbolic.svg"
   inkscape:version="0.92.3 (2405546, 2018-03-11)">
  <metadata
     id="metadata14">
    <rdf:RDF>
      <cc:Work
         rdf:about="">
        <dc:format>image/svg+xml</dc:format>
        <dc:type
           rdf:resource="http://purl.org/dc/dcmitype/StillImage" />
        <dc:title></dc:title>
      </cc:Work>
    </rdf:RDF>
  </metadata>
  <defs
     id="defs12" />
  <sodipodi:namedview
     pagecolor="#ffffff"
     bordercolor="#666666"
     borderopacity="1"
     objecttolerance="10"
     gridtolerance="10"
     guidetolerance="10"
     inkscape:pageopacity="0"
     inkscape:pageshadow="2"
     inkscape:window-width="1920"
     inkscape:window-height="1474"
     id="namedview10"
     showgrid="false"
     inkscape:zoom="14.75"
     inkscape:cx="8.4067797"
     inkscape:cy="8"
     inkscape:window-x="0"
     inkscape:window-y="27"
     inkscape:window-maximized="0"
     inkscape:current-layer="svg8" />
  <path
     style="opacity:1;fill:#808080;fill-opacity:1;stroke:none;stroke-width:0.44185147;stroke-linecap:butt;stroke-linejoin:bevel;stroke-miterlimit:4;stroke-dasharray:none;stroke-opacity:1;paint-order:fill markers stroke"
     d="M 9.8749457,7.4469524e-4 A 4.6222223,4.4340474 0 0 0 5.9902247,2.1724667 a 3.1824362,3.0528763 0 0 0 -0.983333,-0.133234 3.1824362,3.0528763 0 0 0 -3.123612,3.091042 3.1824362,3.0528763 0 0 0 0.007,0.130571 C 0.81627377,5.4285307 -2.35e-7,6.3108177 -2.35e-7,7.389934 V 7.834938 C -2.35e-7,9.034387 1.0065908,10 2.2569437,10 H 13.743056 C 14.993408,10 16,9.034387 16,7.834938 V 7.389934 C 16,6.4401277 15.364157,5.6446357 14.480555,5.3514447 a 4.6222223,4.4340474 0 0 0 0.101395,-0.917987 l -0.0015,-0.109249 A 4.6222223,4.4340474 0 0 0 9.8749357,7.4469524e-4 Z"
     id="rect834"
     inkscape:connector-curvature="0" />
  <rect
     style="opacity:1;fill:none;fill-opacity:0.38039216;stroke:#808080;stroke-width:0.69999999;stroke-miterlimit:4;stroke-dasharray:none;stroke-opacity:1"
     id="rect827"
     width="2.1694915"
     height="0.61016947"
     x="-8.635582"
     y="8.958744"
     ry="0.30508474"
     transform="rotate(-47.33615)" />
  <rect
     transform="rotate(-47.33615)"
     ry="0.30508474"
     y="11.002748"
     x="-6.7518177"
     height="0.61016947"
     width="2.1694915"
     id="rect829"
     style="opacity:1;fill:none;fill-opacity:0.38039216;stroke:#808080;stroke-width:0.69999999;stroke-miterlimit:4;stroke-dasharray:none;stroke-opacity:1" />
  <rect
     style="opacity:1;fill:none;fill-opacity:0.38039216;stroke:#808080;stroke-width:0.69999999;stroke-miterlimit:4;stroke-dasharray:none;stroke-opacity:1"
     id="rect831"
     width="2.1694915"
     height="0.61016947"
     x="-4.9638519"
     y="13.042842"
     ry="0.30508474"
     transform="rotate(-47.33615)" />
  <rect
     transform="rotate(-47.33615)"
     ry="0.30508474"
     y="15.182642"
     x="-3.0839956"
     height="0.61016947"
     width="2.1694915"
     id="rect833"
     style="opacity:1;fill:none;fill-opacity:0.38039216;stroke:#808080;stroke-width:0.69999999;stroke-miterlimit:4;stroke-dasharray:none;stroke-opacity:1" />
  <rect
     style="opacity:1;fill:none;fill-opacity:0.38039216;stroke:#808080;stroke-width:0.69999999;stroke-miterlimit:4;stroke-dasharray:none;stroke-opacity:1"
     id="rect835"
     width="2.1694915"
     height="0.61016947"
     x="-0.83266699"
     y="17.625473"
     ry="0.30508474"
     transform="rotate(-47.33615)" />
  <rect
     transform="rotate(-47.33615)"
     ry="0.30508474"
     y="12.73695"
     x="-8.9336557"
     height="0.61016947"
     width="2.1694915"
     id="rect837"
     style="opacity:1;fill:none;fill-opacity:0.38039216;stroke:#808080;stroke-width:0.69999999;stroke-miterlimit:4;stroke-dasharray:none;stroke-opacity:1" />
  <rect
     style="opacity:1;fill:none;fill-opacity:0.38039216;stroke:#808080;stroke-width:0.69999999;stroke-miterlimit:4;stroke-dasharray:none;stroke-opacity:1"
     id="rect839"
     width="2.1694915"
     height="0.61016947"
     x="-6.2228727"
     y="15.67832"
     ry="0.30508474"
     transform="rotate(-47.33615)" />
</svg>
