<?xml version="1.0" encoding="UTF-8" standalone="no"?>
<!-- Generator: Adobe Illustrator 21.0.2, SVG Export Plug-In . SVG Version: 6.00 Build 0)  -->

<svg
   xmlns:dc="http://purl.org/dc/elements/1.1/"
   xmlns:cc="http://creativecommons.org/ns#"
   xmlns:rdf="http://www.w3.org/1999/02/22-rdf-syntax-ns#"
   xmlns:svg="http://www.w3.org/2000/svg"
   xmlns="http://www.w3.org/2000/svg"
   xmlns:xlink="http://www.w3.org/1999/xlink"
   xmlns:sodipodi="http://sodipodi.sourceforge.net/DTD/sodipodi-0.dtd"
   xmlns:inkscape="http://www.inkscape.org/namespaces/inkscape"
   version="1.1"
   id="Layer_1"
   x="0px"
   y="0px"
   viewBox="0 0 256 256"
   enable-background="new 0 0 256 256"
   xml:space="preserve"
   sodipodi:docname="text-x-sass.svg"
   inkscape:version="0.92.3 (2405546, 2018-03-11)"
   inkscape:label="Shadow"><metadata
   id="metadata253"><rdf:RDF><cc:Work
       rdf:about=""><dc:format>image/svg+xml</dc:format><dc:type
         rdf:resource="http://purl.org/dc/dcmitype/StillImage" /><dc:title /></cc:Work></rdf:RDF></metadata><defs
   id="defs251">
	
	
<clipPath
   id="b"><use
     width="100%"
     overflow="visible"
     xlink:href="#a"
     height="100%"
     id="use5" /></clipPath><linearGradient
   x1="29.337"
   x2="81.836998"
   y1="75.021004"
   gradientUnits="userSpaceOnUse"
   y2="44.354"
   id="c"><stop
     id="stop10"
     offset="0"
     stop-opacity=".6"
     stop-color="#A52714" /><stop
     id="stop12"
     offset=".66"
     stop-opacity="0"
     stop-color="#A52714" /></linearGradient><clipPath
   id="clipPath1232"><use
     width="100%"
     overflow="visible"
     xlink:href="#a"
     height="100%"
     id="use1230" /></clipPath><clipPath
   id="clipPath1236"><use
     width="100%"
     overflow="visible"
     xlink:href="#a"
     height="100%"
     id="use1234" /></clipPath><linearGradient
   x1="110.87"
   x2="52.537998"
   y1="164.5"
   gradientUnits="userSpaceOnUse"
   y2="130.33"
   id="d"><stop
     id="stop23"
     offset="0"
     stop-opacity=".4"
     stop-color="#055524" /><stop
     id="stop25"
     offset=".33"
     stop-opacity="0"
     stop-color="#055524" /></linearGradient><clipPath
   id="clipPath1244"><use
     width="100%"
     overflow="visible"
     xlink:href="#a"
     height="100%"
     id="use1242" /></clipPath><clipPath
   id="clipPath1248"><use
     width="100%"
     overflow="visible"
     xlink:href="#a"
     height="100%"
     id="use1246" /></clipPath><clipPath
   id="f"><use
     y="0"
     x="0"
     style="overflow:visible"
     id="use37"
     height="100%"
     xlink:href="#e"
     overflow="visible"
     width="100%" /></clipPath><linearGradient
   x1="121.86"
   x2="136.55"
   y1="49.804001"
   gradientUnits="userSpaceOnUse"
   y2="114.13"
   id="g"><stop
     id="stop42"
     offset="0"
     stop-opacity=".3"
     stop-color="#EA6100" /><stop
     id="stop44"
     offset=".66"
     stop-opacity="0"
     stop-color="#EA6100" /></linearGradient><clipPath
   id="clipPath1258"><use
     width="100%"
     overflow="visible"
     xlink:href="#a"
     height="100%"
     id="use1256" /></clipPath><clipPath
   id="clipPath1269"><use
     width="100%"
     overflow="visible"
     xlink:href="#a"
     height="100%"
     id="use1267" /></clipPath><clipPath
   id="j"><use
     y="0"
     x="0"
     style="overflow:visible"
     id="use62"
     height="100%"
     xlink:href="#i"
     overflow="visible"
     width="100%" /></clipPath><radialGradient
   id="l"
   gradientUnits="userSpaceOnUse"
   cy="55.948"
   cx="668.18"
   gradientTransform="translate(-576)"
   r="84.078"><stop
     stop-color="#3E2723"
     stop-opacity=".2"
     offset="0"
     id="stop73" /><stop
     stop-color="#3E2723"
     stop-opacity="0"
     offset="1"
     id="stop75" /></radialGradient><clipPath
   id="clipPath1285"><use
     width="100%"
     overflow="visible"
     xlink:href="#a"
     height="100%"
     id="use1283" /></clipPath><clipPath
   id="clipPath1289"><use
     width="100%"
     overflow="visible"
     xlink:href="#a"
     height="100%"
     id="use1287" /></clipPath><clipPath
   id="n"><use
     y="0"
     x="0"
     style="overflow:visible"
     id="use83"
     height="100%"
     xlink:href="#m"
     overflow="visible"
     width="100%" /></clipPath><radialGradient
   id="p"
   gradientUnits="userSpaceOnUse"
   cy="48.52"
   cx="597.88"
   gradientTransform="translate(-576)"
   r="78.044"><stop
     stop-color="#3E2723"
     stop-opacity=".2"
     offset="0"
     id="stop94" /><stop
     stop-color="#3E2723"
     stop-opacity="0"
     offset="1"
     id="stop96" /></radialGradient><clipPath
   id="clipPath1305"><use
     width="100%"
     overflow="visible"
     xlink:href="#a"
     height="100%"
     id="use1303" /></clipPath><radialGradient
   id="q"
   gradientUnits="userSpaceOnUse"
   cy="96.138"
   cx="671.84"
   gradientTransform="translate(-576)"
   r="87.87"><stop
     stop-color="#263238"
     stop-opacity=".2"
     offset="0"
     id="stop101" /><stop
     stop-color="#263238"
     stop-opacity="0"
     offset="1"
     id="stop103" /></radialGradient><clipPath
   id="clipPath1312"><use
     width="100%"
     overflow="visible"
     xlink:href="#a"
     height="100%"
     id="use1310" /></clipPath><clipPath
   id="clipPath1316"><use
     width="100%"
     overflow="visible"
     xlink:href="#a"
     height="100%"
     id="use1314" /></clipPath><clipPath
   id="clipPath1320"><use
     width="100%"
     overflow="visible"
     xlink:href="#a"
     height="100%"
     id="use1318" /></clipPath><clipPath
   id="clipPath1324"><use
     width="100%"
     overflow="visible"
     xlink:href="#a"
     height="100%"
     id="use1322" /></clipPath><path
   inkscape:connector-curvature="0"
   d="m 8,184 h 83.77 l 38.88,-38.88 V 116 H 61.36 L 8,24.48 Z"
   id="e" /><path
   inkscape:connector-curvature="0"
   d="m 96,56 34.65,60 -38.88,68 H 184 V 56 Z"
   id="i" /><path
   inkscape:connector-curvature="0"
   d="M 21.97,8 V 48.34 L 61.36,116 96,56 h 88 V 8 Z"
   id="m" /><clipPath
   id="b-1"><use
     width="100%"
     overflow="visible"
     xlink:href="#a"
     height="100%"
     id="use5-7" /></clipPath><clipPath
   id="clipPath1232-2"><use
     width="100%"
     overflow="visible"
     xlink:href="#a"
     height="100%"
     id="use1230-2" /></clipPath><clipPath
   id="clipPath1236-6"><use
     width="100%"
     overflow="visible"
     xlink:href="#a"
     height="100%"
     id="use1234-1" /></clipPath><clipPath
   id="clipPath1244-1"><use
     width="100%"
     overflow="visible"
     xlink:href="#a"
     height="100%"
     id="use1242-5" /></clipPath><clipPath
   id="clipPath1248-9"><use
     width="100%"
     overflow="visible"
     xlink:href="#a"
     height="100%"
     id="use1246-4" /></clipPath><clipPath
   id="f-9"><use
     y="0"
     x="0"
     style="overflow:visible"
     id="use37-0"
     height="100%"
     xlink:href="#e-8"
     overflow="visible"
     width="100%" /></clipPath><clipPath
   id="clipPath1258-7"><use
     width="100%"
     overflow="visible"
     xlink:href="#a"
     height="100%"
     id="use1256-7" /></clipPath><clipPath
   id="clipPath1269-1"><use
     width="100%"
     overflow="visible"
     xlink:href="#a"
     height="100%"
     id="use1267-1" /></clipPath><clipPath
   id="j-5"><use
     y="0"
     x="0"
     style="overflow:visible"
     id="use62-9"
     height="100%"
     xlink:href="#i-5"
     overflow="visible"
     width="100%" /></clipPath><radialGradient
   id="l-7"
   gradientUnits="userSpaceOnUse"
   cy="55.948"
   cx="668.18"
   gradientTransform="translate(-576)"
   r="84.078"><stop
     stop-color="#3E2723"
     stop-opacity=".2"
     offset="0"
     id="stop73-7" /><stop
     stop-color="#3E2723"
     stop-opacity="0"
     offset="1"
     id="stop75-6" /></radialGradient><clipPath
   id="clipPath1285-7"><use
     width="100%"
     overflow="visible"
     xlink:href="#a"
     height="100%"
     id="use1283-3" /></clipPath><clipPath
   id="clipPath1289-6"><use
     width="100%"
     overflow="visible"
     xlink:href="#a"
     height="100%"
     id="use1287-5" /></clipPath><clipPath
   id="n-6"><use
     y="0"
     x="0"
     style="overflow:visible"
     id="use83-3"
     height="100%"
     xlink:href="#m-6"
     overflow="visible"
     width="100%" /></clipPath><radialGradient
   id="p-9"
   gradientUnits="userSpaceOnUse"
   cy="48.52"
   cx="597.88"
   gradientTransform="translate(-576)"
   r="78.044"><stop
     stop-color="#3E2723"
     stop-opacity=".2"
     offset="0"
     id="stop94-4" /><stop
     stop-color="#3E2723"
     stop-opacity="0"
     offset="1"
     id="stop96-8" /></radialGradient><clipPath
   id="clipPath1305-1"><use
     width="100%"
     overflow="visible"
     xlink:href="#a"
     height="100%"
     id="use1303-2" /></clipPath><radialGradient
   id="q-9"
   gradientUnits="userSpaceOnUse"
   cy="96.138"
   cx="671.84"
   gradientTransform="translate(-576)"
   r="87.87"><stop
     stop-color="#263238"
     stop-opacity=".2"
     offset="0"
     id="stop101-3" /><stop
     stop-color="#263238"
     stop-opacity="0"
     offset="1"
     id="stop103-9" /></radialGradient><clipPath
   id="clipPath1312-0"><use
     width="100%"
     overflow="visible"
     xlink:href="#a"
     height="100%"
     id="use1310-8" /></clipPath><clipPath
   id="clipPath1316-8"><use
     width="100%"
     overflow="visible"
     xlink:href="#a"
     height="100%"
     id="use1314-5" /></clipPath><clipPath
   id="clipPath1320-0"><use
     width="100%"
     overflow="visible"
     xlink:href="#a"
     height="100%"
     id="use1318-9" /></clipPath><clipPath
   id="clipPath1324-6"><use
     width="100%"
     overflow="visible"
     xlink:href="#a"
     height="100%"
     id="use1322-3" /></clipPath><path
   inkscape:connector-curvature="0"
   d="m 8,184 h 83.77 l 38.88,-38.88 V 116 H 61.36 L 8,24.48 Z"
   id="e-8" /><path
   inkscape:connector-curvature="0"
   d="m 96,56 34.65,60 -38.88,68 H 184 V 56 Z"
   id="i-5" /><path
   inkscape:connector-curvature="0"
   d="M 21.97,8 V 48.34 L 61.36,116 96,56 h 88 V 8 Z"
   id="m-6" /><radialGradient
   id="r"
   gradientUnits="userSpaceOnUse"
   cy="32.014"
   cx="34.285999"
   gradientTransform="translate(-23.079613,-106.2699)"
   r="176.75"><stop
     stop-color="#fff"
     stop-opacity=".1"
     offset="0"
     id="stop130" /><stop
     stop-color="#fff"
     stop-opacity="0"
     offset="1"
     id="stop132" /></radialGradient><clipPath
   id="b-0"><use
     y="0"
     x="0"
     style="overflow:visible"
     width="100%"
     overflow="visible"
     xlink:href="#a"
     height="100%"
     id="use5-5" /></clipPath><clipPath
   id="clipPath963"><use
     y="0"
     x="0"
     style="overflow:visible"
     width="100%"
     overflow="visible"
     xlink:href="#a"
     height="100%"
     id="use961" /></clipPath><clipPath
   id="clipPath967"><use
     y="0"
     x="0"
     style="overflow:visible"
     width="100%"
     overflow="visible"
     xlink:href="#a"
     height="100%"
     id="use965" /></clipPath><radialGradient
   id="q-94"
   gradientUnits="userSpaceOnUse"
   cy="96.138"
   cx="671.84003"
   gradientTransform="translate(-576)"
   r="87.870003"><stop
     stop-color="#263238"
     stop-opacity=".2"
     offset="0"
     id="stop101-6" /><stop
     stop-color="#263238"
     stop-opacity="0"
     offset="1"
     id="stop103-92" /></radialGradient><clipPath
   id="clipPath974"><use
     y="0"
     x="0"
     style="overflow:visible"
     width="100%"
     overflow="visible"
     xlink:href="#a"
     height="100%"
     id="use972" /></clipPath><radialGradient
   id="p-2"
   gradientUnits="userSpaceOnUse"
   cy="48.52"
   cx="597.88"
   gradientTransform="translate(-576)"
   r="78.043999"><stop
     stop-color="#3E2723"
     stop-opacity=".2"
     offset="0"
     id="stop94-47" /><stop
     stop-color="#3E2723"
     stop-opacity="0"
     offset="1"
     id="stop96-7" /></radialGradient><clipPath
   id="clipPath981"><use
     y="0"
     x="0"
     style="overflow:visible"
     width="100%"
     overflow="visible"
     xlink:href="#a"
     height="100%"
     id="use979" /></clipPath><clipPath
   id="clipPath985"><use
     y="0"
     x="0"
     style="overflow:visible"
     width="100%"
     overflow="visible"
     xlink:href="#a"
     height="100%"
     id="use983" /></clipPath><clipPath
   id="n-5"><use
     width="100%"
     overflow="visible"
     xlink:href="#m-0"
     height="100%"
     id="use83-4"
     style="overflow:visible"
     x="0"
     y="0" /></clipPath><radialGradient
   id="l-2"
   gradientUnits="userSpaceOnUse"
   cy="55.948002"
   cx="668.17999"
   gradientTransform="translate(-576)"
   r="84.078003"><stop
     stop-color="#3E2723"
     stop-opacity=".2"
     offset="0"
     id="stop73-8" /><stop
     stop-color="#3E2723"
     stop-opacity="0"
     offset="1"
     id="stop75-9" /></radialGradient><clipPath
   id="clipPath997"><use
     y="0"
     x="0"
     style="overflow:visible"
     width="100%"
     overflow="visible"
     xlink:href="#a"
     height="100%"
     id="use995" /></clipPath><clipPath
   id="clipPath1001"><use
     y="0"
     x="0"
     style="overflow:visible"
     width="100%"
     overflow="visible"
     xlink:href="#a"
     height="100%"
     id="use999" /></clipPath><clipPath
   id="j-3"><use
     width="100%"
     overflow="visible"
     xlink:href="#i-1"
     height="100%"
     id="use62-6"
     style="overflow:visible"
     x="0"
     y="0" /></clipPath><clipPath
   id="clipPath1010"><use
     y="0"
     x="0"
     style="overflow:visible"
     width="100%"
     overflow="visible"
     xlink:href="#a"
     height="100%"
     id="use1008" /></clipPath><clipPath
   id="clipPath1017"><use
     y="0"
     x="0"
     style="overflow:visible"
     width="100%"
     overflow="visible"
     xlink:href="#a"
     height="100%"
     id="use1015" /></clipPath><clipPath
   id="f-0"><use
     width="100%"
     overflow="visible"
     xlink:href="#e-1"
     height="100%"
     id="use37-5"
     style="overflow:visible"
     x="0"
     y="0" /></clipPath><clipPath
   id="clipPath1029"><use
     y="0"
     x="0"
     style="overflow:visible"
     width="100%"
     overflow="visible"
     xlink:href="#a"
     height="100%"
     id="use1027" /></clipPath><clipPath
   id="clipPath1033"><use
     y="0"
     x="0"
     style="overflow:visible"
     width="100%"
     overflow="visible"
     xlink:href="#a"
     height="100%"
     id="use1031" /></clipPath><clipPath
   id="clipPath1043"><use
     y="0"
     x="0"
     style="overflow:visible"
     width="100%"
     overflow="visible"
     xlink:href="#a"
     height="100%"
     id="use1041" /></clipPath><clipPath
   id="clipPath1047"><use
     y="0"
     x="0"
     style="overflow:visible"
     width="100%"
     overflow="visible"
     xlink:href="#a"
     height="100%"
     id="use1045" /></clipPath><path
   id="e-1"
   d="m 8,184 h 83.77 l 38.88,-38.88 V 116 H 61.36 L 8,24.48 Z"
   inkscape:connector-curvature="0" /><path
   id="i-1"
   d="m 96,56 34.65,60 -38.88,68 H 184 V 56 Z"
   inkscape:connector-curvature="0" /><path
   id="m-0"
   d="M 21.97,8 V 48.34 L 61.36,116 96,56 h 88 V 8 Z"
   inkscape:connector-curvature="0" /><circle
   r="88"
   cx="96"
   cy="96"
   id="a" /><path
   d="m8 184h83.77l38.88-38.88v-29.12h-69.29l-53.36-91.52z"
   id="e-6" /><path
   d="m96 56l34.65 60-38.88 68h92.23v-128z"
   id="i-2" /><path
   d="m21.97 8v40.34l39.39 67.66 34.64-60h88v-48z"
   id="m-8" /><defs
   id="defs1820"><path
     d="M 21.97,8 V 48.34 L 61.36,116 96,56 h 88 V 8 Z"
     id="path1928"
     inkscape:connector-curvature="0" /></defs><clipPath
   id="n-7"><use
     id="use1822"
     height="100%"
     xlink:href="#m-8"
     overflow="visible"
     width="100%"
     style="overflow:visible"
     x="0"
     y="0" /></clipPath><defs
   id="defs1799"><path
     d="m 96,56 34.65,60 -38.88,68 H 184 V 56 Z"
     id="path1918"
     inkscape:connector-curvature="0" /></defs><clipPath
   id="j-6"><use
     id="use1801"
     height="100%"
     xlink:href="#i-2"
     overflow="visible"
     width="100%"
     style="overflow:visible"
     x="0"
     y="0" /></clipPath><defs
   id="defs1774"><path
     d="m 8,184 h 83.77 l 38.88,-38.88 V 116 H 61.36 L 8,24.48 Z"
     id="path1902"
     inkscape:connector-curvature="0" /></defs><clipPath
   id="f-06"><use
     id="use1776"
     height="100%"
     xlink:href="#e-6"
     overflow="visible"
     width="100%"
     style="overflow:visible"
     x="0"
     y="0" /></clipPath><linearGradient
   x1="110.87"
   x2="52.537998"
   y1="164.5"
   gradientUnits="userSpaceOnUse"
   y2="130.33"
   id="linearGradient1897"><stop
     id="stop1762"
     offset="0"
     stop-opacity=".4"
     stop-color="#055524" /><stop
     id="stop1764"
     offset=".33"
     stop-opacity="0"
     stop-color="#055524" /></linearGradient><linearGradient
   x1="29.337"
   x2="81.836998"
   y1="75.021004"
   gradientUnits="userSpaceOnUse"
   y2="44.354"
   id="linearGradient1889"><stop
     id="stop1749"
     offset="0"
     stop-opacity=".6"
     stop-color="#A52714" /><stop
     id="stop1751"
     offset=".66"
     stop-opacity="0"
     stop-color="#A52714" /></linearGradient><linearGradient
   id="linearGradient1910"
   y2="114.13"
   gradientUnits="userSpaceOnUse"
   y1="49.804001"
   x2="136.55"
   x1="121.86"><stop
     stop-color="#EA6100"
     stop-opacity=".3"
     offset="0"
     id="stop1781" /><stop
     stop-color="#EA6100"
     stop-opacity="0"
     offset=".66"
     id="stop1783" /></linearGradient><clipPath
   id="b-3"><use
     y="0"
     x="0"
     style="overflow:visible"
     width="100%"
     overflow="visible"
     xlink:href="#a"
     height="100%"
     id="use5-1" /></clipPath><clipPath
   id="clipPath1024"><use
     y="0"
     x="0"
     style="overflow:visible"
     width="100%"
     overflow="visible"
     xlink:href="#a"
     height="100%"
     id="use1022" /></clipPath><clipPath
   id="clipPath1028"><use
     y="0"
     x="0"
     style="overflow:visible"
     width="100%"
     overflow="visible"
     xlink:href="#a"
     height="100%"
     id="use1026" /></clipPath><clipPath
   id="clipPath1035"><use
     y="0"
     x="0"
     style="overflow:visible"
     width="100%"
     overflow="visible"
     xlink:href="#a"
     height="100%"
     id="use1033" /></clipPath><clipPath
   id="clipPath1039"><use
     y="0"
     x="0"
     style="overflow:visible"
     width="100%"
     overflow="visible"
     xlink:href="#a"
     height="100%"
     id="use1037" /></clipPath><clipPath
   id="f-6"><use
     y="0"
     x="0"
     style="overflow:visible"
     id="use37-8"
     height="100%"
     xlink:href="#e-61"
     overflow="visible"
     width="100%" /></clipPath><clipPath
   id="clipPath1048"><use
     y="0"
     x="0"
     style="overflow:visible"
     width="100%"
     overflow="visible"
     xlink:href="#a"
     height="100%"
     id="use1046" /></clipPath><clipPath
   id="clipPath1058"><use
     y="0"
     x="0"
     style="overflow:visible"
     width="100%"
     overflow="visible"
     xlink:href="#a"
     height="100%"
     id="use1056" /></clipPath><clipPath
   id="j-66"><use
     y="0"
     x="0"
     style="overflow:visible"
     id="use62-4"
     height="100%"
     xlink:href="#i-59"
     overflow="visible"
     width="100%" /></clipPath><radialGradient
   id="l-9"
   gradientUnits="userSpaceOnUse"
   cy="55.948002"
   cx="668.17999"
   gradientTransform="translate(-576)"
   r="84.078003"><stop
     stop-color="#3E2723"
     stop-opacity=".2"
     offset="0"
     id="stop73-5" /><stop
     stop-color="#3E2723"
     stop-opacity="0"
     offset="1"
     id="stop75-0" /></radialGradient><clipPath
   id="clipPath1073"><use
     y="0"
     x="0"
     style="overflow:visible"
     width="100%"
     overflow="visible"
     xlink:href="#a"
     height="100%"
     id="use1071" /></clipPath><clipPath
   id="clipPath1077"><use
     y="0"
     x="0"
     style="overflow:visible"
     width="100%"
     overflow="visible"
     xlink:href="#a"
     height="100%"
     id="use1075" /></clipPath><clipPath
   id="n-4"><use
     y="0"
     x="0"
     style="overflow:visible"
     id="use83-8"
     height="100%"
     xlink:href="#m-4"
     overflow="visible"
     width="100%" /></clipPath><radialGradient
   id="p-7"
   gradientUnits="userSpaceOnUse"
   cy="48.52"
   cx="597.88"
   gradientTransform="translate(-576)"
   r="78.043999"><stop
     stop-color="#3E2723"
     stop-opacity=".2"
     offset="0"
     id="stop94-1" /><stop
     stop-color="#3E2723"
     stop-opacity="0"
     offset="1"
     id="stop96-72" /></radialGradient><clipPath
   id="clipPath1092"><use
     y="0"
     x="0"
     style="overflow:visible"
     width="100%"
     overflow="visible"
     xlink:href="#a"
     height="100%"
     id="use1090" /></clipPath><radialGradient
   id="q-7"
   gradientUnits="userSpaceOnUse"
   cy="96.138"
   cx="671.84003"
   gradientTransform="translate(-576)"
   r="87.870003"><stop
     stop-color="#263238"
     stop-opacity=".2"
     offset="0"
     id="stop101-2" /><stop
     stop-color="#263238"
     stop-opacity="0"
     offset="1"
     id="stop103-2" /></radialGradient><clipPath
   id="clipPath1099"><use
     y="0"
     x="0"
     style="overflow:visible"
     width="100%"
     overflow="visible"
     xlink:href="#a"
     height="100%"
     id="use1097" /></clipPath><clipPath
   id="clipPath1103"><use
     y="0"
     x="0"
     style="overflow:visible"
     width="100%"
     overflow="visible"
     xlink:href="#a"
     height="100%"
     id="use1101" /></clipPath><clipPath
   id="clipPath1107"><use
     y="0"
     x="0"
     style="overflow:visible"
     width="100%"
     overflow="visible"
     xlink:href="#a"
     height="100%"
     id="use1105" /></clipPath><clipPath
   id="clipPath1111"><use
     y="0"
     x="0"
     style="overflow:visible"
     width="100%"
     overflow="visible"
     xlink:href="#a"
     height="100%"
     id="use1109" /></clipPath><radialGradient
   id="r-6"
   gradientUnits="userSpaceOnUse"
   cy="32.014"
   cx="34.285999"
   gradientTransform="translate(-7,-7)"
   r="176.75"><stop
     stop-color="#fff"
     stop-opacity=".1"
     offset="0"
     id="stop130-1" /><stop
     stop-color="#fff"
     stop-opacity="0"
     offset="1"
     id="stop132-0" /></radialGradient><path
   inkscape:connector-curvature="0"
   d="m 8,184 h 83.77 l 38.88,-38.88 V 116 H 61.36 L 8,24.48 Z"
   id="e-61" /><path
   inkscape:connector-curvature="0"
   d="m 96,56 34.65,60 -38.88,68 H 184 V 56 Z"
   id="i-59" /><path
   inkscape:connector-curvature="0"
   d="M 21.97,8 V 48.34 L 61.36,116 96,56 h 88 V 8 Z"
   id="m-4" /><clipPath
   id="b-9"><use
     y="0"
     x="0"
     style="overflow:visible"
     width="100%"
     overflow="visible"
     xlink:href="#a"
     height="100%"
     id="use5-0" /></clipPath><clipPath
   id="clipPath1024-7"><use
     y="0"
     x="0"
     style="overflow:visible"
     width="100%"
     overflow="visible"
     xlink:href="#a"
     height="100%"
     id="use1022-7" /></clipPath><clipPath
   id="clipPath1028-1"><use
     y="0"
     x="0"
     style="overflow:visible"
     width="100%"
     overflow="visible"
     xlink:href="#a"
     height="100%"
     id="use1026-1" /></clipPath><clipPath
   id="clipPath1035-7"><use
     y="0"
     x="0"
     style="overflow:visible"
     width="100%"
     overflow="visible"
     xlink:href="#a"
     height="100%"
     id="use1033-7" /></clipPath><clipPath
   id="clipPath1039-6"><use
     y="0"
     x="0"
     style="overflow:visible"
     width="100%"
     overflow="visible"
     xlink:href="#a"
     height="100%"
     id="use1037-7" /></clipPath><clipPath
   id="f-3"><use
     y="0"
     x="0"
     style="overflow:visible"
     id="use37-6"
     height="100%"
     xlink:href="#e-9"
     overflow="visible"
     width="100%" /></clipPath><clipPath
   id="clipPath1048-3"><use
     y="0"
     x="0"
     style="overflow:visible"
     width="100%"
     overflow="visible"
     xlink:href="#a"
     height="100%"
     id="use1046-9" /></clipPath><clipPath
   id="clipPath1058-4"><use
     y="0"
     x="0"
     style="overflow:visible"
     width="100%"
     overflow="visible"
     xlink:href="#a"
     height="100%"
     id="use1056-8" /></clipPath><clipPath
   id="j-1"><use
     y="0"
     x="0"
     style="overflow:visible"
     id="use62-2"
     height="100%"
     xlink:href="#i-6"
     overflow="visible"
     width="100%" /></clipPath><radialGradient
   id="l-93"
   gradientUnits="userSpaceOnUse"
   cy="55.948002"
   cx="668.17999"
   gradientTransform="translate(-576)"
   r="84.078003"><stop
     stop-color="#3E2723"
     stop-opacity=".2"
     offset="0"
     id="stop73-9" /><stop
     stop-color="#3E2723"
     stop-opacity="0"
     offset="1"
     id="stop75-08" /></radialGradient><clipPath
   id="clipPath1073-8"><use
     y="0"
     x="0"
     style="overflow:visible"
     width="100%"
     overflow="visible"
     xlink:href="#a"
     height="100%"
     id="use1071-5" /></clipPath><clipPath
   id="clipPath1077-0"><use
     y="0"
     x="0"
     style="overflow:visible"
     width="100%"
     overflow="visible"
     xlink:href="#a"
     height="100%"
     id="use1075-9" /></clipPath><clipPath
   id="n-63"><use
     y="0"
     x="0"
     style="overflow:visible"
     id="use83-85"
     height="100%"
     xlink:href="#m-2"
     overflow="visible"
     width="100%" /></clipPath><radialGradient
   id="p-6"
   gradientUnits="userSpaceOnUse"
   cy="48.52"
   cx="597.88"
   gradientTransform="translate(-576)"
   r="78.043999"><stop
     stop-color="#3E2723"
     stop-opacity=".2"
     offset="0"
     id="stop94-11" /><stop
     stop-color="#3E2723"
     stop-opacity="0"
     offset="1"
     id="stop96-5" /></radialGradient><clipPath
   id="clipPath1092-9"><use
     y="0"
     x="0"
     style="overflow:visible"
     width="100%"
     overflow="visible"
     xlink:href="#a"
     height="100%"
     id="use1090-8" /></clipPath><radialGradient
   id="q-4"
   gradientUnits="userSpaceOnUse"
   cy="96.138"
   cx="671.84003"
   gradientTransform="translate(-576)"
   r="87.870003"><stop
     stop-color="#263238"
     stop-opacity=".2"
     offset="0"
     id="stop101-8" /><stop
     stop-color="#263238"
     stop-opacity="0"
     offset="1"
     id="stop103-1" /></radialGradient><clipPath
   id="clipPath1099-0"><use
     y="0"
     x="0"
     style="overflow:visible"
     width="100%"
     overflow="visible"
     xlink:href="#a"
     height="100%"
     id="use1097-3" /></clipPath><clipPath
   id="clipPath1103-0"><use
     y="0"
     x="0"
     style="overflow:visible"
     width="100%"
     overflow="visible"
     xlink:href="#a"
     height="100%"
     id="use1101-4" /></clipPath><clipPath
   id="clipPath1107-4"><use
     y="0"
     x="0"
     style="overflow:visible"
     width="100%"
     overflow="visible"
     xlink:href="#a"
     height="100%"
     id="use1105-4" /></clipPath><clipPath
   id="clipPath1111-4"><use
     y="0"
     x="0"
     style="overflow:visible"
     width="100%"
     overflow="visible"
     xlink:href="#a"
     height="100%"
     id="use1109-7" /></clipPath><radialGradient
   id="r-63"
   gradientUnits="userSpaceOnUse"
   cy="32.014"
   cx="34.285999"
   gradientTransform="translate(-7,-7)"
   r="176.75"><stop
     stop-color="#fff"
     stop-opacity=".1"
     offset="0"
     id="stop130-17" /><stop
     stop-color="#fff"
     stop-opacity="0"
     offset="1"
     id="stop132-5" /></radialGradient><path
   inkscape:connector-curvature="0"
   d="m 8,184 h 83.77 l 38.88,-38.88 V 116 H 61.36 L 8,24.48 Z"
   id="e-9" /><path
   inkscape:connector-curvature="0"
   d="m 96,56 34.65,60 -38.88,68 H 184 V 56 Z"
   id="i-6" /><path
   inkscape:connector-curvature="0"
   d="M 21.97,8 V 48.34 L 61.36,116 96,56 h 88 V 8 Z"
   id="m-2" /><filter
   y="-0.25"
   height="1.5"
   inkscape:menu-tooltip="Darkens the edge with an inner blur and adds a flexible glow"
   inkscape:menu="Shadows and Glows"
   inkscape:label="Dark and Glow"
   style="color-interpolation-filters:sRGB;"
   id="filter1161"><feGaussianBlur
     stdDeviation="5"
     result="result6"
     id="feGaussianBlur1151" /><feComposite
     result="result8"
     in="SourceGraphic"
     operator="atop"
     in2="result6"
     id="feComposite1153" /><feComposite
     result="result9"
     operator="over"
     in2="SourceAlpha"
     in="result8"
     id="feComposite1155" /><feColorMatrix
     values="1 0 0 0 0 0 1 0 0 0 0 0 1 0 0 0 0 0 1 0 "
     result="result10"
     id="feColorMatrix1157" /><feBlend
     in="result10"
     mode="normal"
     in2="result6"
     id="feBlend1159" /></filter><filter
   inkscape:label="Inset"
   inkscape:menu="Shadows and Glows"
   inkscape:menu-tooltip="Shadowy outer bevel"
   style="color-interpolation-filters:sRGB;"
   id="filter1179"><feMorphology
     result="result1"
     in="SourceAlpha"
     operator="dilate"
     radius="3.6"
     id="feMorphology1167" /><feGaussianBlur
     stdDeviation="3.6"
     in="result1"
     result="result0"
     id="feGaussianBlur1169" /><feDiffuseLighting
     surfaceScale="-5"
     id="feDiffuseLighting1173"><feDistantLight
       elevation="45"
       azimuth="225"
       id="feDistantLight1171" /></feDiffuseLighting><feComposite
     in2="result0"
     operator="in"
     result="result91"
     id="feComposite1175" /><feComposite
     in="SourceGraphic"
     in2="result91"
     id="feComposite1177" /></filter><clipPath
   clipPathUnits="userSpaceOnUse"
   id="clipPath1201"><rect
     style="display:inline;fill:#d38d5f;fill-opacity:1;stroke:none;stroke-width:3.15937901;stroke-linecap:butt;stroke-linejoin:bevel;stroke-miterlimit:4;stroke-dasharray:none;stroke-opacity:1;paint-order:fill markers stroke"
     id="rect1203"
     width="200"
     height="240"
     x="-219.50002"
     y="-92.5"
     ry="19.5"
     transform="scale(-1)" /></clipPath><clipPath
   clipPathUnits="userSpaceOnUse"
   id="clipPath1201-3"><rect
     style="display:inline;fill:#d38d5f;fill-opacity:1;stroke:none;stroke-width:3.15937901;stroke-linecap:butt;stroke-linejoin:bevel;stroke-miterlimit:4;stroke-dasharray:none;stroke-opacity:1;paint-order:fill markers stroke"
     id="rect1203-6"
     width="200"
     height="240"
     x="-219.50002"
     y="-92.5"
     ry="19.5"
     transform="scale(-1)" /></clipPath><filter
   inkscape:label="Inset"
   inkscape:menu="Shadows and Glows"
   inkscape:menu-tooltip="Shadowy outer bevel"
   style="color-interpolation-filters:sRGB"
   id="filter1179-7"><feMorphology
     result="result1"
     in="SourceAlpha"
     operator="dilate"
     radius="3.6"
     id="feMorphology1167-5" /><feGaussianBlur
     stdDeviation="3.6"
     in="result1"
     result="result0"
     id="feGaussianBlur1169-3" /><feDiffuseLighting
     surfaceScale="-5"
     id="feDiffuseLighting1173-5"><feDistantLight
       elevation="45"
       azimuth="225"
       id="feDistantLight1171-6" /></feDiffuseLighting><feComposite
     in2="result0"
     operator="in"
     result="result91"
     id="feComposite1175-2" /><feComposite
     in="SourceGraphic"
     in2="result91"
     id="feComposite1177-9" /></filter><clipPath
   clipPathUnits="userSpaceOnUse"
   id="clipPath1201-3-3"><rect
     style="display:inline;fill:#d38d5f;fill-opacity:1;stroke:none;stroke-width:3.15937901;stroke-linecap:butt;stroke-linejoin:bevel;stroke-miterlimit:4;stroke-dasharray:none;stroke-opacity:1;paint-order:fill markers stroke"
     id="rect1203-6-6"
     width="200"
     height="240"
     x="-219.50002"
     y="-92.5"
     ry="19.5"
     transform="scale(-1)" /></clipPath>
<clipPath
   clipPathUnits="userSpaceOnUse"
   id="clipPath1201-3-36"><rect
     style="display:inline;fill:#d38d5f;fill-opacity:1;stroke:none;stroke-width:3.15937901;stroke-linecap:butt;stroke-linejoin:bevel;stroke-miterlimit:4;stroke-dasharray:none;stroke-opacity:1;paint-order:fill markers stroke"
     id="rect1203-6-7"
     width="200"
     height="240"
     x="-219.50002"
     y="-92.5"
     ry="19.5"
     transform="scale(-1)" /></clipPath><clipPath
   clipPathUnits="userSpaceOnUse"
   id="clipPath1201-3-36-3"><rect
     style="display:inline;fill:#d38d5f;fill-opacity:1;stroke:none;stroke-width:3.15937901;stroke-linecap:butt;stroke-linejoin:bevel;stroke-miterlimit:4;stroke-dasharray:none;stroke-opacity:1;paint-order:fill markers stroke"
     id="rect1203-6-7-5"
     width="200"
     height="240"
     x="-219.50002"
     y="-92.5"
     ry="19.5"
     transform="scale(-1)" /></clipPath><clipPath
   clipPathUnits="userSpaceOnUse"
   id="clipPath1201-3-6"><rect
     style="display:inline;fill:#d38d5f;fill-opacity:1;stroke:none;stroke-width:3.15937901;stroke-linecap:butt;stroke-linejoin:bevel;stroke-miterlimit:4;stroke-dasharray:none;stroke-opacity:1;paint-order:fill markers stroke"
     id="rect1203-6-2"
     width="200"
     height="240"
     x="-219.50002"
     y="-92.5"
     ry="19.5"
     transform="scale(-1)" /></clipPath><clipPath
   clipPathUnits="userSpaceOnUse"
   id="clipPath1201-36"><rect
     style="display:inline;fill:#d38d5f;fill-opacity:1;stroke:none;stroke-width:3.15937901;stroke-linecap:butt;stroke-linejoin:bevel;stroke-miterlimit:4;stroke-dasharray:none;stroke-opacity:1;paint-order:fill markers stroke"
     id="rect1203-0"
     width="200"
     height="240"
     x="-219.50002"
     y="-92.5"
     ry="19.5"
     transform="scale(-1)" /></clipPath><filter
   inkscape:label="Inset"
   inkscape:menu="Shadows and Glows"
   inkscape:menu-tooltip="Shadowy outer bevel"
   style="color-interpolation-filters:sRGB"
   id="filter1179-6"><feMorphology
     result="result1"
     in="SourceAlpha"
     operator="dilate"
     radius="3.6"
     id="feMorphology1167-2" /><feGaussianBlur
     stdDeviation="3.6"
     in="result1"
     result="result0"
     id="feGaussianBlur1169-6" /><feDiffuseLighting
     surfaceScale="-5"
     id="feDiffuseLighting1173-1"><feDistantLight
       elevation="45"
       azimuth="225"
       id="feDistantLight1171-8" /></feDiffuseLighting><feComposite
     in2="result0"
     operator="in"
     result="result91"
     id="feComposite1175-7" /><feComposite
     in="SourceGraphic"
     in2="result91"
     id="feComposite1177-92" /></filter></defs><sodipodi:namedview
   pagecolor="#ffffff"
   bordercolor="#666666"
   borderopacity="1"
   objecttolerance="10"
   gridtolerance="10"
   guidetolerance="10"
   inkscape:pageopacity="0"
   inkscape:pageshadow="2"
   inkscape:window-width="1920"
   inkscape:window-height="1537"
   id="namedview249"
   showgrid="false"
   inkscape:zoom="2"
   inkscape:cx="11.9717"
   inkscape:cy="49.944586"
   inkscape:window-x="1920"
   inkscape:window-y="27"
   inkscape:window-maximized="0"
   inkscape:current-layer="layer1"
   inkscape:pagecheckerboard="true"
   showguides="true"
   inkscape:guide-bbox="true"><sodipodi:guide
     position="19,-95"
     orientation="1,0"
     id="guide1126"
     inkscape:locked="false" /></sodipodi:namedview>

<g
   inkscape:groupmode="layer"
   id="layer2"
   inkscape:label="Background"
   style="display:inline"><rect
     style="display:inline;opacity:1;fill:#cd6799;fill-opacity:1;fill-rule:nonzero;stroke:none;stroke-width:0.52743632;stroke-linecap:butt;stroke-linejoin:bevel;stroke-miterlimit:4;stroke-dasharray:none;stroke-opacity:1;paint-order:fill markers stroke"
     id="rect1200-2-7"
     width="200"
     height="248"
     x="28"
     y="4"
     ry="19.79899" /></g><g
   inkscape:groupmode="layer"
   id="layer1"
   inkscape:label="Icon"
   style="display:inline">


<path
   inkscape:connector-curvature="0"
   style="display:inline;fill:#ffffff;stroke-width:0.2191847"
   d="m 171.32948,134.73696 c -4.18642,0.0219 -7.82489,1.03016 -10.87155,2.52062 -1.11785,-2.21376 -2.23569,-4.18642 -2.43295,-5.63304 -0.21919,-1.68773 -0.48221,-2.71789 -0.21919,-4.73439 0.26302,-2.0165 1.44662,-4.88782 1.4247,-5.107 -0.0219,-0.21919 -0.26302,-1.24936 -2.67405,-1.27128 -2.41103,-0.0219 -4.49328,0.46029 -4.73439,1.09593 -0.24111,0.63563 -0.7014,2.08225 -1.00825,3.57271 -0.41645,2.19184 -4.82206,10.01673 -7.34269,14.1155 -0.81098,-1.60006 -1.51237,-3.00284 -1.6658,-4.12068 -0.21918,-1.68773 -0.48221,-2.71789 -0.21918,-4.73439 0.26301,-2.0165 1.44661,-4.88782 1.42469,-5.107 -0.0219,-0.21919 -0.26302,-1.24936 -2.67405,-1.27127 -2.41102,-0.0219 -4.49328,0.46028 -4.73439,1.09592 -0.2411,0.63563 -0.50412,2.12609 -1.00825,3.57271 -0.50412,1.44662 -6.35635,14.51003 -7.89065,17.88547 -0.78906,1.73156 -1.46853,3.11243 -1.95074,4.05492 0,0 0,0 0,0 0,0 -0.0219,0.0658 -0.0877,0.17535 -0.41646,0.81097 -0.65756,1.24935 -0.65756,1.24935 0,0 0,0 0,0.0219 -0.32878,0.5918 -0.67947,1.13976 -0.85482,1.13976 -0.13151,0 -0.37261,-1.57812 0.0438,-3.72613 0.87674,-4.53713 2.95899,-11.59488 2.93707,-11.83598 0,-0.13151 0.39453,-1.35895 -1.35895,-1.99458 -1.70964,-0.63563 -2.32335,0.41645 -2.47678,0.41645 -0.15343,0 -0.26302,0.37262 -0.26302,0.37262 0,0 1.90691,-7.93449 -3.63847,-7.93449 -3.46312,0 -8.24135,3.79189 -10.60854,7.21117 -1.49046,0.81098 -4.66864,2.54254 -8.066003,4.40561 -1.293189,0.72332 -2.630213,1.44663 -3.879569,2.1261 -0.08768,-0.0877 -0.175343,-0.19727 -0.263011,-0.28494 -6.707055,-7.16734 -19.112906,-12.23051 -18.58686,-21.85272 0.197257,-3.50696 1.402771,-12.71271 23.825363,-23.891129 18.45536,-9.09617 33.14074,-6.57554 35.68328,-0.98633 3.63846,7.978319 -7.86873,22.795209 -26.9378,24.943219 -7.27694,0.81098 -11.090751,-1.99458 -12.055167,-3.04667 -1.008249,-1.09593 -1.16168,-1.16167 -1.534295,-0.94249 -0.613706,0.32877 -0.219185,1.3151 0,1.88498 0.56988,1.49047 2.915161,4.12068 6.882402,5.41386 3.50696,1.13978 12.03324,1.7754 22.35685,-2.21376 11.55103,-4.47137 20.58144,-16.89915 17.9293,-27.310409 -2.65213,-10.564704 -20.18691,-14.049737 -36.77919,-8.15368 -9.863316,3.50696 -20.559529,9.03041 -28.252919,16.219679 -9.139996,8.54819 -10.586616,15.97856 -9.994816,19.09098 2.126096,11.04692 17.359433,18.23617 23.452758,23.56236 -0.306853,0.17535 -0.591793,0.32877 -0.832891,0.46029 -3.046678,1.51237 -14.663457,7.58379 -17.556704,14.00589 -3.287769,7.27694 0.526045,12.49354 3.04667,13.19493 7.8249,2.16993 15.868971,-1.73156 20.18691,-8.17559 4.317942,-6.44404 3.791892,-14.81689 1.797315,-18.65262 -0.0219,-0.0438 -0.04387,-0.0877 -0.08768,-0.13151 0.789065,-0.46029 1.60005,-0.9425 2.389117,-1.40278 1.55621,-0.92058 3.0905,-1.7754 4.40561,-2.47679 -0.74523,2.03842 -1.29319,4.47137 -1.55621,7.97833 -0.32878,4.12067 1.35895,9.46877 3.57272,11.57295 0.98633,0.92057 2.148,0.9425 2.89324,0.9425 2.58637,0 3.74805,-2.14802 5.04124,-4.69056 1.57813,-3.11242 3.00283,-6.72897 3.00283,-6.72897 0,0 -1.7754,9.77563 3.04667,9.77563 1.75348,0 3.52888,-2.27951 4.31794,-3.44119 0,0.0219 0,0.0219 0,0.0219 0,0 0.0438,-0.0658 0.13152,-0.21918 0.17535,-0.28494 0.28494,-0.46029 0.28494,-0.46029 0,0 0,-0.0219 0,-0.0438 0.70139,-1.22743 2.27952,-4.01108 4.62479,-8.63588 3.02475,-5.96182 5.93991,-13.4141 5.93991,-13.4141 0,0 0.26302,1.81923 1.16167,4.84398 0.52605,1.77539 1.62197,3.72614 2.49871,5.61113 -0.70139,0.98633 -1.13975,1.53429 -1.13975,1.53429 0,0 0,0 0.0219,0.0219 -0.56988,0.74523 -1.1836,1.55621 -1.86307,2.34527 -2.3891,2.84941 -5.23851,6.11525 -5.63305,7.05775 -0.46028,1.11785 -0.35069,1.92883 0.52605,2.58639 0.63564,0.4822 1.7754,0.54796 2.93707,0.4822 2.14802,-0.15343 3.66039,-0.67947 4.40562,-1.00825 1.16168,-0.41645 2.52062,-1.05209 3.79189,-1.99458 2.34528,-1.73156 3.76998,-4.20835 3.63847,-7.4742 -0.0658,-1.79731 -0.65756,-3.59463 -1.38086,-5.28234 0.21918,-0.30687 0.41645,-0.61373 0.63563,-0.92059 3.70422,-5.41386 6.57554,-11.35376 6.57554,-11.35376 0,0 0.26302,1.81923 1.16168,4.84398 0.43837,1.53429 1.33702,3.20009 2.12609,4.82207 -3.48503,2.82747 -5.63305,6.11524 -6.4002,8.26326 -1.38085,3.98916 -0.30685,5.78647 1.73157,6.20293 0.92057,0.19726 2.23568,-0.24111 3.2001,-0.65756 1.22743,-0.39454 2.67405,-1.07401 4.05492,-2.08226 2.34527,-1.73156 4.60287,-4.14259 4.47136,-7.40843 -0.0658,-1.49047 -0.46029,-2.95901 -1.00824,-4.38371 2.95898,-1.22743 6.7728,-1.9069 11.63869,-1.33702 10.4332,1.22743 12.49354,7.73722 12.099,10.47703 -0.39453,2.73981 -2.58638,4.23026 -3.30968,4.69055 -0.72332,0.46029 -0.96442,0.61372 -0.89866,0.9425 0.0877,0.4822 0.43837,0.46028 1.05208,0.37261 0.85482,-0.15344 5.47962,-2.21376 5.67688,-7.25501 0.32878,-6.44403 -5.80839,-13.47986 -16.65803,-13.41411 z m -80.484614,27.13507 c -3.46312,3.76997 -8.285184,5.19467 -10.367439,3.98916 -2.235684,-1.29319 -1.358944,-6.86049 2.893233,-10.84964 2.586387,-2.43295 5.917989,-4.69056 8.131761,-6.07142 0.504117,-0.30686 1.249348,-0.74523 2.148009,-1.29319 0.153423,-0.0877 0.241098,-0.13151 0.241098,-0.13151 v 0 c 0.175351,-0.10959 0.350703,-0.21918 0.526046,-0.32878 1.556209,5.6988 0.06577,10.71814 -3.572708,14.68538 z M 116.0511,144.73178 c -1.20551,2.93708 -3.72613,10.45512 -5.26043,10.03866 -1.31511,-0.35069 -2.12609,-6.04949 -0.26302,-11.68254 0.9425,-2.82749 2.93708,-6.20293 4.09875,-7.51804 1.88499,-2.10417 3.96724,-2.80556 4.47138,-1.95074 0.63562,1.11784 -2.30145,9.27151 -3.04668,11.11266 z m 20.80063,9.95098 c -0.50412,0.26303 -0.98633,0.43838 -1.20551,0.30687 -0.15343,-0.0877 0.21918,-0.43837 0.21918,-0.43837 0,0 2.6083,-2.80557 3.63847,-4.07683 0.5918,-0.74523 1.29319,-1.62198 2.03842,-2.6083 0,0.0877 0,0.19726 0,0.28494 0,3.35352 -3.24393,5.61113 -4.69056,6.53169 z m 16.04432,-3.66037 c -0.37261,-0.26302 -0.30686,-1.13977 0.94249,-3.87958 0.48221,-1.074 1.62197,-2.87131 3.57272,-4.60288 0.21918,0.7014 0.37261,1.38087 0.35069,2.01651 -0.0219,4.23026 -3.04666,5.80839 -4.8659,6.46595 z"
   id="path2" /></g><g
   inkscape:groupmode="layer"
   id="layer6"
   inkscape:label="Shadow"
   style="display:inline"
   sodipodi:insensitive="true"><path
     style="display:inline;opacity:0.2;fill:#000000;fill-opacity:0.2;fill-rule:nonzero;stroke:none;stroke-width:0.52743632;stroke-linecap:butt;stroke-linejoin:bevel;stroke-miterlimit:4;stroke-dasharray:none;stroke-opacity:1;paint-order:fill markers stroke"
     d="M 222.05273,9.9472607 C 224.52173,13.24991 226,17.339854 226,21.798822 V 230.20117 C 226,241.16981 217.16981,250 206.20117,250 H 45.798822 C 41.339855,250 37.24991,248.52173 33.94726,246.05273 37.551766,250.87429 43.289149,254 49.798822,254 H 210.20117 C 221.16981,254 230,245.16981 230,234.20117 V 25.798822 c 0,-6.509673 -3.12571,-12.247057 -7.94727,-15.8515613 z"
     id="rect1200"
     inkscape:connector-curvature="0" /><path
     style="display:inline;opacity:1;fill:#000000;fill-opacity:0.2;fill-rule:nonzero;stroke:none;stroke-width:0.52743632;stroke-linecap:butt;stroke-linejoin:bevel;stroke-miterlimit:4;stroke-dasharray:none;stroke-opacity:1;paint-order:fill markers stroke"
     d="m 220.05273,7.947263 c 2.469,3.30265 3.94727,7.39259 3.94727,11.85156 V 228.20117 C 224,239.16981 215.16981,248 204.20117,248 H 43.798832 c -4.45897,0 -8.54892,-1.47827 -11.85157,-3.94727 3.60451,4.82156 9.34189,7.94727 15.85157,7.94727 H 208.20117 C 219.16981,252 228,243.16981 228,232.20117 V 23.798823 c 0,-6.50967 -3.12571,-12.24706 -7.94727,-15.85156 z"
     id="rect1200-0"
     inkscape:connector-curvature="0" /><path
     style="display:inline;opacity:0.2;fill:#000000;fill-opacity:0.2;fill-rule:nonzero;stroke:none;stroke-width:0.52743632;stroke-linecap:butt;stroke-linejoin:bevel;stroke-miterlimit:4;stroke-dasharray:none;stroke-opacity:1;paint-order:fill markers stroke"
     d="M 224.05273,11.94726 C 226.52173,15.24991 228,19.33985 228,23.79882 V 232.20117 C 228,243.16981 219.16981,252 208.20117,252 H 47.79883 c -4.45897,0 -8.54892,-1.47827 -11.85157,-3.94727 C 39.55177,252.87429 45.28915,256 51.79883,256 H 212.20117 C 223.16981,256 232,247.16981 232,236.20117 V 27.79882 c 0,-6.50967 -3.12571,-12.24706 -7.94727,-15.85156 z"
     id="rect1200-9"
     inkscape:connector-curvature="0" /></g></svg>