<?xml version="1.0" encoding="UTF-8" standalone="no"?>
<!-- Generator: Adobe Illustrator 21.0.2, SVG Export Plug-In . SVG Version: 6.00 Build 0)  -->

<svg
   xmlns:dc="http://purl.org/dc/elements/1.1/"
   xmlns:cc="http://creativecommons.org/ns#"
   xmlns:rdf="http://www.w3.org/1999/02/22-rdf-syntax-ns#"
   xmlns:svg="http://www.w3.org/2000/svg"
   xmlns="http://www.w3.org/2000/svg"
   xmlns:xlink="http://www.w3.org/1999/xlink"
   xmlns:sodipodi="http://sodipodi.sourceforge.net/DTD/sodipodi-0.dtd"
   xmlns:inkscape="http://www.inkscape.org/namespaces/inkscape"
   version="1.1"
   id="Layer_1"
   x="0px"
   y="0px"
   viewBox="0 0 256 256"
   enable-background="new 0 0 256 256"
   xml:space="preserve"
   sodipodi:docname="text-x-sass.svg"
   inkscape:version="0.92.3 (2405546, 2018-03-11)"
   inkscape:label="Shadow"><metadata
   id="metadata253"><rdf:RDF><cc:Work
       rdf:about=""><dc:format>image/svg+xml</dc:format><dc:type
         rdf:resource="http://purl.org/dc/dcmitype/StillImage" /><dc:title /></cc:Work></rdf:RDF></metadata><defs
   id="defs251">
	
	
<clipPath
   id="b"><use
     width="100%"
     overflow="visible"
     xlink:href="#a"
     height="100%"
     id="use5" /></clipPath><linearGradient
   x1="29.337"
   x2="81.836998"
   y1="75.021004"
   gradientUnits="userSpaceOnUse"
   y2="44.354"
   id="c"><stop
     id="stop10"
     offset="0"
     stop-opacity=".6"
     stop-color="#A52714" /><stop
     id="stop12"
     offset=".66"
     stop-opacity="0"
     stop-color="#A52714" /></linearGradient><clipPath
   id="clipPath1232"><use
     width="100%"
     overflow="visible"
     xlink:href="#a"
     height="100%"
     id="use1230" /></clipPath><clipPath
   id="clipPath1236"><use
     width="100%"
     overflow="visible"
     xlink:href="#a"
     height="100%"
     id="use1234" /></clipPath><linearGradient
   x1="110.87"
   x2="52.537998"
   y1="164.5"
   gradientUnits="userSpaceOnUse"
   y2="130.33"
   id="d"><stop
     id="stop23"
     offset="0"
     stop-opacity=".4"
     stop-color="#055524" /><stop
     id="stop25"
     offset=".33"
     stop-opacity="0"
     stop-color="#055524" /></linearGradient><clipPath
   id="clipPath1244"><use
     width="100%"
     overflow="visible"
     xlink:href="#a"
     height="100%"
     id="use1242" /></clipPath><clipPath
   id="clipPath1248"><use
     width="100%"
     overflow="visible"
     xlink:href="#a"
     height="100%"
     id="use1246" /></clipPath><clipPath
   id="f"><use
     y="0"
     x="0"
     style="overflow:visible"
     id="use37"
     height="100%"
     xlink:href="#e"
     overflow="visible"
     width="100%" /></clipPath><linearGradient
   x1="121.86"
   x2="136.55"
   y1="49.804001"
   gradientUnits="userSpaceOnUse"
   y2="114.13"
   id="g"><stop
     id="stop42"
     offset="0"
     stop-opacity=".3"
     stop-color="#EA6100" /><stop
     id="stop44"
     offset=".66"
     stop-opacity="0"
     stop-color="#EA6100" /></linearGradient><clipPath
   id="clipPath1258"><use
     width="100%"
     overflow="visible"
     xlink:href="#a"
     height="100%"
     id="use1256" /></clipPath><clipPath
   id="clipPath1269"><use
     width="100%"
     overflow="visible"
     xlink:href="#a"
     height="100%"
     id="use1267" /></clipPath><clipPath
   id="j"><use
     y="0"
     x="0"
     style="overflow:visible"
     id="use62"
     height="100%"
     xlink:href="#i"
     overflow="visible"
     width="100%" /></clipPath><radialGradient
   id="l"
   gradientUnits="userSpaceOnUse"
   cy="55.948"
   cx="668.18"
   gradientTransform="translate(-576)"
   r="84.078"><stop
     stop-color="#3E2723"
     stop-opacity=".2"
     offset="0"
     id="stop73" /><stop
     stop-color="#3E2723"
     stop-opacity="0"
     offset="1"
     id="stop75" /></radialGradient><clipPath
   id="clipPath1285"><use
     width="100%"
     overflow="visible"
     xlink:href="#a"
     height="100%"
     id="use1283" /></clipPath><clipPath
   id="clipPath1289"><use
     width="100%"
     overflow="visible"
     xlink:href="#a"
     height="100%"
     id="use1287" /></clipPath><clipPath
   id="n"><use
     y="0"
     x="0"
     style="overflow:visible"
     id="use83"
     height="100%"
     xlink:href="#m"
     overflow="visible"
     width="100%" /></clipPath><radialGradient
   id="p"
   gradientUnits="userSpaceOnUse"
   cy="48.52"
   cx="597.88"
   gradientTransform="translate(-576)"
   r="78.044"><stop
     stop-color="#3E2723"
     stop-opacity=".2"
     offset="0"
     id="stop94" /><stop
     stop-color="#3E2723"
     stop-opacity="0"
     offset="1"
     id="stop96" /></radialGradient><clipPath
   id="clipPath1305"><use
     width="100%"
     overflow="visible"
     xlink:href="#a"
     height="100%"
     id="use1303" /></clipPath><radialGradient
   id="q"
   gradientUnits="userSpaceOnUse"
   cy="96.138"
   cx="671.84"
   gradientTransform="translate(-576)"
   r="87.87"><stop
     stop-color="#263238"
     stop-opacity=".2"
     offset="0"
     id="stop101" /><stop
     stop-color="#263238"
     stop-opacity="0"
     offset="1"
     id="stop103" /></radialGradient><clipPath
   id="clipPath1312"><use
     width="100%"
     overflow="visible"
     xlink:href="#a"
     height="100%"
     id="use1310" /></clipPath><clipPath
   id="clipPath1316"><use
     width="100%"
     overflow="visible"
     xlink:href="#a"
     height="100%"
     id="use1314" /></clipPath><clipPath
   id="clipPath1320"><use
     width="100%"
     overflow="visible"
     xlink:href="#a"
     height="100%"
     id="use1318" /></clipPath><clipPath
   id="clipPath1324"><use
     width="100%"
     overflow="visible"
     xlink:href="#a"
     height="100%"
     id="use1322" /></clipPath><path
   inkscape:connector-curvature="0"
   d="m 8,184 h 83.77 l 38.88,-38.88 V 116 H 61.36 L 8,24.48 Z"
   id="e" /><path
   inkscape:connector-curvature="0"
   d="m 96,56 34.65,60 -38.88,68 H 184 V 56 Z"
   id="i" /><path
   inkscape:connector-curvature="0"
   d="M 21.97,8 V 48.34 L 61.36,116 96,56 h 88 V 8 Z"
   id="m" /><clipPath
   id="b-1"><use
     width="100%"
     overflow="visible"
     xlink:href="#a"
     height="100%"
     id="use5-7" /></clipPath><clipPath
   id="clipPath1232-2"><use
     width="100%"
     overflow="visible"
     xlink:href="#a"
     height="100%"
     id="use1230-2" /></clipPath><clipPath
   id="clipPath1236-6"><use
     width="100%"
     overflow="visible"
     xlink:href="#a"
     height="100%"
     id="use1234-1" /></clipPath><clipPath
   id="clipPath1244-1"><use
     width="100%"
     overflow="visible"
     xlink:href="#a"
     height="100%"
     id="use1242-5" /></clipPath><clipPath
   id="clipPath1248-9"><use
     width="100%"
     overflow="visible"
     xlink:href="#a"
     height="100%"
     id="use1246-4" /></clipPath><clipPath
   id="f-9"><use
     y="0"
     x="0"
     style="overflow:visible"
     id="use37-0"
     height="100%"
     xlink:href="#e-8"
     overflow="visible"
     width="100%" /></clipPath><clipPath
   id="clipPath1258-7"><use
     width="100%"
     overflow="visible"
     xlink:href="#a"
     height="100%"
     id="use1256-7" /></clipPath><clipPath
   id="clipPath1269-1"><use
     width="100%"
     overflow="visible"
     xlink:href="#a"
     height="100%"
     id="use1267-1" /></clipPath><clipPath
   id="j-5"><use
     y="0"
     x="0"
     style="overflow:visible"
     id="use62-9"
     height="100%"
     xlink:href="#i-5"
     overflow="visible"
     width="100%" /></clipPath><radialGradient
   id="l-7"
   gradientUnits="userSpaceOnUse"
   cy="55.948"
   cx="668.18"
   gradientTransform="translate(-576)"
   r="84.078"><stop
     stop-color="#3E2723"
     stop-opacity=".2"
     offset="0"
     id="stop73-7" /><stop
     stop-color="#3E2723"
     stop-opacity="0"
     offset="1"
     id="stop75-6" /></radialGradient><clipPath
   id="clipPath1285-7"><use
     width="100%"
     overflow="visible"
     xlink:href="#a"
     height="100%"
     id="use1283-3" /></clipPath><clipPath
   id="clipPath1289-6"><use
     width="100%"
     overflow="visible"
     xlink:href="#a"
     height="100%"
     id="use1287-5" /></clipPath><clipPath
   id="n-6"><use
     y="0"
     x="0"
     style="overflow:visible"
     id="use83-3"
     height="100%"
     xlink:href="#m-6"
     overflow="visible"
     width="100%" /></clipPath><radialGradient
   id="p-9"
   gradientUnits="userSpaceOnUse"
   cy="48.52"
   cx="597.88"
   gradientTransform="translate(-576)"
   r="78.044"><stop
     stop-color="#3E2723"
     stop-opacity=".2"
     offset="0"
     id="stop94-4" /><stop
     stop-color="#3E2723"
     stop-opacity="0"
     offset="1"
     id="stop96-8" /></radialGradient><clipPath
   id="clipPath1305-1"><use
     width="100%"
     overflow="visible"
     xlink:href="#a"
     height="100%"
     id="use1303-2" /></clipPath><radialGradient
   id="q-9"
   gradientUnits="userSpaceOnUse"
   cy="96.138"
   cx="671.84"
   gradientTransform="translate(-576)"
   r="87.87"><stop
     stop-color="#263238"
     stop-opacity=".2"
     offset="0"
     id="stop101-3" /><stop
     stop-color="#263238"
     stop-opacity="0"
     offset="1"
     id="stop103-9" /></radialGradient><clipPath
   id="clipPath1312-0"><use
     width="100%"
     overflow="visible"
     xlink:href="#a"
     height="100%"
     id="use1310-8" /></clipPath><clipPath
   id="clipPath1316-8"><use
     width="100%"
     overflow="visible"
     xlink:href="#a"
     height="100%"
     id="use1314-5" /></clipPath><clipPath
   id="clipPath1320-0"><use
     width="100%"
     overflow="visible"
     xlink:href="#a"
     height="100%"
     id="use1318-9" /></clipPath><clipPath
   id="clipPath1324-6"><use
     width="100%"
     overflow="visible"
     xlink:href="#a"
     height="100%"
     id="use1322-3" /></clipPath><path
   inkscape:connector-curvature="0"
   d="m 8,184 h 83.77 l 38.88,-38.88 V 116 H 61.36 L 8,24.48 Z"
   id="e-8" /><path
   inkscape:connector-curvature="0"
   d="m 96,56 34.65,60 -38.88,68 H 184 V 56 Z"
   id="i-5" /><path
   inkscape:connector-curvature="0"
   d="M 21.97,8 V 48.34 L 61.36,116 96,56 h 88 V 8 Z"
   id="m-6" /><radialGradient
   id="r"
   gradientUnits="userSpaceOnUse"
   cy="32.014"
   cx="34.285999"
   gradientTransform="translate(-23.079613,-106.2699)"
   r="176.75"><stop
     stop-color="#fff"
     stop-opacity=".1"
     offset="0"
     id="stop130" /><stop
     stop-color="#fff"
     stop-opacity="0"
     offset="1"
     id="stop132" /></radialGradient><clipPath
   id="b-0"><use
     y="0"
     x="0"
     style="overflow:visible"
     width="100%"
     overflow="visible"
     xlink:href="#a"
     height="100%"
     id="use5-5" /></clipPath><clipPath
   id="clipPath963"><use
     y="0"
     x="0"
     style="overflow:visible"
     width="100%"
     overflow="visible"
     xlink:href="#a"
     height="100%"
     id="use961" /></clipPath><clipPath
   id="clipPath967"><use
     y="0"
     x="0"
     style="overflow:visible"
     width="100%"
     overflow="visible"
     xlink:href="#a"
     height="100%"
     id="use965" /></clipPath><radialGradient
   id="q-94"
   gradientUnits="userSpaceOnUse"
   cy="96.138"
   cx="671.84003"
   gradientTransform="translate(-576)"
   r="87.870003"><stop
     stop-color="#263238"
     stop-opacity=".2"
     offset="0"
     id="stop101-6" /><stop
     stop-color="#263238"
     stop-opacity="0"
     offset="1"
     id="stop103-92" /></radialGradient><clipPath
   id="clipPath974"><use
     y="0"
     x="0"
     style="overflow:visible"
     width="100%"
     overflow="visible"
     xlink:href="#a"
     height="100%"
     id="use972" /></clipPath><radialGradient
   id="p-2"
   gradientUnits="userSpaceOnUse"
   cy="48.52"
   cx="597.88"
   gradientTransform="translate(-576)"
   r="78.043999"><stop
     stop-color="#3E2723"
     stop-opacity=".2"
     offset="0"
     id="stop94-47" /><stop
     stop-color="#3E2723"
     stop-opacity="0"
     offset="1"
     id="stop96-7" /></radialGradient><clipPath
   id="clipPath981"><use
     y="0"
     x="0"
     style="overflow:visible"
     width="100%"
     overflow="visible"
     xlink:href="#a"
     height="100%"
     id="use979" /></clipPath><clipPath
   id="clipPath985"><use
     y="0"
     x="0"
     style="overflow:visible"
     width="100%"
     overflow="visible"
     xlink:href="#a"
     height="100%"
     id="use983" /></clipPath><clipPath
   id="n-5"><use
     width="100%"
     overflow="visible"
     xlink:href="#m-0"
     height="100%"
     id="use83-4"
     style="overflow:visible"
     x="0"
     y="0" /></clipPath><radialGradient
   id="l-2"
   gradientUnits="userSpaceOnUse"
   cy="55.948002"
   cx="668.17999"
   gradientTransform="translate(-576)"
   r="84.078003"><stop
     stop-color="#3E2723"
     stop-opacity=".2"
     offset="0"
     id="stop73-8" /><stop
     stop-color="#3E2723"
     stop-opacity="0"
     offset="1"
     id="stop75-9" /></radialGradient><clipPath
   id="clipPath997"><use
     y="0"
     x="0"
     style="overflow:visible"
     width="100%"
     overflow="visible"
     xlink:href="#a"
     height="100%"
     id="use995" /></clipPath><clipPath
   id="clipPath1001"><use
     y="0"
     x="0"
     style="overflow:visible"
     width="100%"
     overflow="visible"
     xlink:href="#a"
     height="100%"
     id="use999" /></clipPath><clipPath
   id="j-3"><use
     width="100%"
     overflow="visible"
     xlink:href="#i-1"
     height="100%"
     id="use62-6"
     style="overflow:visible"
     x="0"
     y="0" /></clipPath><clipPath
   id="clipPath1010"><use
     y="0"
     x="0"
     style="overflow:visible"
     width="100%"
     overflow="visible"
     xlink:href="#a"
     height="100%"
     id="use1008" /></clipPath><clipPath
   id="clipPath1017"><use
     y="0"
     x="0"
     style="overflow:visible"
     width="100%"
     overflow="visible"
     xlink:href="#a"
     height="100%"
     id="use1015" /></clipPath><clipPath
   id="f-0"><use
     width="100%"
     overflow="visible"
     xlink:href="#e-1"
     height="100%"
     id="use37-5"
     style="overflow:visible"
     x="0"
     y="0" /></clipPath><clipPath
   id="clipPath1029"><use
     y="0"
     x="0"
     style="overflow:visible"
     width="100%"
     overflow="visible"
     xlink:href="#a"
     height="100%"
     id="use1027" /></clipPath><clipPath
   id="clipPath1033"><use
     y="0"
     x="0"
     style="overflow:visible"
     width="100%"
     overflow="visible"
     xlink:href="#a"
     height="100%"
     id="use1031" /></clipPath><clipPath
   id="clipPath1043"><use
     y="0"
     x="0"
     style="overflow:visible"
     width="100%"
     overflow="visible"
     xlink:href="#a"
     height="100%"
     id="use1041" /></clipPath><clipPath
   id="clipPath1047"><use
     y="0"
     x="0"
     style="overflow:visible"
     width="100%"
     overflow="visible"
     xlink:href="#a"
     height="100%"
     id="use1045" /></clipPath><path
   id="e-1"
   d="m 8,184 h 83.77 l 38.88,-38.88 V 116 H 61.36 L 8,24.48 Z"
   inkscape:connector-curvature="0" /><path
   id="i-1"
   d="m 96,56 34.65,60 -38.88,68 H 184 V 56 Z"
   inkscape:connector-curvature="0" /><path
   id="m-0"
   d="M 21.97,8 V 48.34 L 61.36,116 96,56 h 88 V 8 Z"
   inkscape:connector-curvature="0" /><circle
   r="88"
   cx="96"
   cy="96"
   id="a" /><path
   d="m8 184h83.77l38.88-38.88v-29.12h-69.29l-53.36-91.52z"
   id="e-6" /><path
   d="m96 56l34.65 60-38.88 68h92.23v-128z"
   id="i-2" /><path
   d="m21.97 8v40.34l39.39 67.66 34.64-60h88v-48z"
   id="m-8" /><defs
   id="defs1820"><path
     d="M 21.97,8 V 48.34 L 61.36,116 96,56 h 88 V 8 Z"
     id="path1928"
     inkscape:connector-curvature="0" /></defs><clipPath
   id="n-7"><use
     id="use1822"
     height="100%"
     xlink:href="#m-8"
     overflow="visible"
     width="100%"
     style="overflow:visible"
     x="0"
     y="0" /></clipPath><defs
   id="defs1799"><path
     d="m 96,56 34.65,60 -38.88,68 H 184 V 56 Z"
     id="path1918"
     inkscape:connector-curvature="0" /></defs><clipPath
   id="j-6"><use
     id="use1801"
     height="100%"
     xlink:href="#i-2"
     overflow="visible"
     width="100%"
     style="overflow:visible"
     x="0"
     y="0" /></clipPath><defs
   id="defs1774"><path
     d="m 8,184 h 83.77 l 38.88,-38.88 V 116 H 61.36 L 8,24.48 Z"
     id="path1902"
     inkscape:connector-curvature="0" /></defs><clipPath
   id="f-06"><use
     id="use1776"
     height="100%"
     xlink:href="#e-6"
     overflow="visible"
     width="100%"
     style="overflow:visible"
     x="0"
     y="0" /></clipPath><linearGradient
   x1="110.87"
   x2="52.537998"
   y1="164.5"
   gradientUnits="userSpaceOnUse"
   y2="130.33"
   id="linearGradient1897"><stop
     id="stop1762"
     offset="0"
     stop-opacity=".4"
     stop-color="#055524" /><stop
     id="stop1764"
     offset=".33"
     stop-opacity="0"
     stop-color="#055524" /></linearGradient><linearGradient
   x1="29.337"
   x2="81.836998"
   y1="75.021004"
   gradientUnits="userSpaceOnUse"
   y2="44.354"
   id="linearGradient1889"><stop
     id="stop1749"
     offset="0"
     stop-opacity=".6"
     stop-color="#A52714" /><stop
     id="stop1751"
     offset=".66"
     stop-opacity="0"
     stop-color="#A52714" /></linearGradient><linearGradient
   id="linearGradient1910"
   y2="114.13"
   gradientUnits="userSpaceOnUse"
   y1="49.804001"
   x2="136.55"
   x1="121.86"><stop
     stop-color="#EA6100"
     stop-opacity=".3"
     offset="0"
     id="stop1781" /><stop
     stop-color="#EA6100"
     stop-opacity="0"
     offset=".66"
     id="stop1783" /></linearGradient><clipPath
   id="b-3"><use
     y="0"
     x="0"
     style="overflow:visible"
     width="100%"
     overflow="visible"
     xlink:href="#a"
     height="100%"
     id="use5-1" /></clipPath><clipPath
   id="clipPath1024"><use
     y="0"
     x="0"
     style="overflow:visible"
     width="100%"
     overflow="visible"
     xlink:href="#a"
     height="100%"
     id="use1022" /></clipPath><clipPath
   id="clipPath1028"><use
     y="0"
     x="0"
     style="overflow:visible"
     width="100%"
     overflow="visible"
     xlink:href="#a"
     height="100%"
     id="use1026" /></clipPath><clipPath
   id="clipPath1035"><use
     y="0"
     x="0"
     style="overflow:visible"
     width="100%"
     overflow="visible"
     xlink:href="#a"
     height="100%"
     id="use1033" /></clipPath><clipPath
   id="clipPath1039"><use
     y="0"
     x="0"
     style="overflow:visible"
     width="100%"
     overflow="visible"
     xlink:href="#a"
     height="100%"
     id="use1037" /></clipPath><clipPath
   id="f-6"><use
     y="0"
     x="0"
     style="overflow:visible"
     id="use37-8"
     height="100%"
     xlink:href="#e-61"
     overflow="visible"
     width="100%" /></clipPath><clipPath
   id="clipPath1048"><use
     y="0"
     x="0"
     style="overflow:visible"
     width="100%"
     overflow="visible"
     xlink:href="#a"
     height="100%"
     id="use1046" /></clipPath><clipPath
   id="clipPath1058"><use
     y="0"
     x="0"
     style="overflow:visible"
     width="100%"
     overflow="visible"
     xlink:href="#a"
     height="100%"
     id="use1056" /></clipPath><clipPath
   id="j-66"><use
     y="0"
     x="0"
     style="overflow:visible"
     id="use62-4"
     height="100%"
     xlink:href="#i-59"
     overflow="visible"
     width="100%" /></clipPath><radialGradient
   id="l-9"
   gradientUnits="userSpaceOnUse"
   cy="55.948002"
   cx="668.17999"
   gradientTransform="translate(-576)"
   r="84.078003"><stop
     stop-color="#3E2723"
     stop-opacity=".2"
     offset="0"
     id="stop73-5" /><stop
     stop-color="#3E2723"
     stop-opacity="0"
     offset="1"
     id="stop75-0" /></radialGradient><clipPath
   id="clipPath1073"><use
     y="0"
     x="0"
     style="overflow:visible"
     width="100%"
     overflow="visible"
     xlink:href="#a"
     height="100%"
     id="use1071" /></clipPath><clipPath
   id="clipPath1077"><use
     y="0"
     x="0"
     style="overflow:visible"
     width="100%"
     overflow="visible"
     xlink:href="#a"
     height="100%"
     id="use1075" /></clipPath><clipPath
   id="n-4"><use
     y="0"
     x="0"
     style="overflow:visible"
     id="use83-8"
     height="100%"
     xlink:href="#m-4"
     overflow="visible"
     width="100%" /></clipPath><radialGradient
   id="p-7"
   gradientUnits="userSpaceOnUse"
   cy="48.52"
   cx="597.88"
   gradientTransform="translate(-576)"
   r="78.043999"><stop
     stop-color="#3E2723"
     stop-opacity=".2"
     offset="0"
     id="stop94-1" /><stop
     stop-color="#3E2723"
     stop-opacity="0"
     offset="1"
     id="stop96-72" /></radialGradient><clipPath
   id="clipPath1092"><use
     y="0"
     x="0"
     style="overflow:visible"
     width="100%"
     overflow="visible"
     xlink:href="#a"
     height="100%"
     id="use1090" /></clipPath><radialGradient
   id="q-7"
   gradientUnits="userSpaceOnUse"
   cy="96.138"
   cx="671.84003"
   gradientTransform="translate(-576)"
   r="87.870003"><stop
     stop-color="#263238"
     stop-opacity=".2"
     offset="0"
     id="stop101-2" /><stop
     stop-color="#263238"
     stop-opacity="0"
     offset="1"
     id="stop103-2" /></radialGradient><clipPath
   id="clipPath1099"><use
     y="0"
     x="0"
     style="overflow:visible"
     width="100%"
     overflow="visible"
     xlink:href="#a"
     height="100%"
     id="use1097" /></clipPath><clipPath
   id="clipPath1103"><use
     y="0"
     x="0"
     style="overflow:visible"
     width="100%"
     overflow="visible"
     xlink:href="#a"
     height="100%"
     id="use1101" /></clipPath><clipPath
   id="clipPath1107"><use
     y="0"
     x="0"
     style="overflow:visible"
     width="100%"
     overflow="visible"
     xlink:href="#a"
     height="100%"
     id="use1105" /></clipPath><clipPath
   id="clipPath1111"><use
     y="0"
     x="0"
     style="overflow:visible"
     width="100%"
     overflow="visible"
     xlink:href="#a"
     height="100%"
     id="use1109" /></clipPath><radialGradient
   id="r-6"
   gradientUnits="userSpaceOnUse"
   cy="32.014"
   cx="34.285999"
   gradientTransform="translate(-7,-7)"
   r="176.75"><stop
     stop-color="#fff"
     stop-opacity=".1"
     offset="0"
     id="stop130-1" /><stop
     stop-color="#fff"
     stop-opacity="0"
     offset="1"
     id="stop132-0" /></radialGradient><path
   inkscape:connector-curvature="0"
   d="m 8,184 h 83.77 l 38.88,-38.88 V 116 H 61.36 L 8,24.48 Z"
   id="e-61" /><path
   inkscape:connector-curvature="0"
   d="m 96,56 34.65,60 -38.88,68 H 184 V 56 Z"
   id="i-59" /><path
   inkscape:connector-curvature="0"
   d="M 21.97,8 V 48.34 L 61.36,116 96,56 h 88 V 8 Z"
   id="m-4" /><clipPath
   id="b-9"><use
     y="0"
     x="0"
     style="overflow:visible"
     width="100%"
     overflow="visible"
     xlink:href="#a"
     height="100%"
     id="use5-0" /></clipPath><clipPath
   id="clipPath1024-7"><use
     y="0"
     x="0"
     style="overflow:visible"
     width="100%"
     overflow="visible"
     xlink:href="#a"
     height="100%"
     id="use1022-7" /></clipPath><clipPath
   id="clipPath1028-1"><use
     y="0"
     x="0"
     style="overflow:visible"
     width="100%"
     overflow="visible"
     xlink:href="#a"
     height="100%"
     id="use1026-1" /></clipPath><clipPath
   id="clipPath1035-7"><use
     y="0"
     x="0"
     style="overflow:visible"
     width="100%"
     overflow="visible"
     xlink:href="#a"
     height="100%"
     id="use1033-7" /></clipPath><clipPath
   id="clipPath1039-6"><use
     y="0"
     x="0"
     style="overflow:visible"
     width="100%"
     overflow="visible"
     xlink:href="#a"
     height="100%"
     id="use1037-7" /></clipPath><clipPath
   id="f-3"><use
     y="0"
     x="0"
     style="overflow:visible"
     id="use37-6"
     height="100%"
     xlink:href="#e-9"
     overflow="visible"
     width="100%" /></clipPath><clipPath
   id="clipPath1048-3"><use
     y="0"
     x="0"
     style="overflow:visible"
     width="100%"
     overflow="visible"
     xlink:href="#a"
     height="100%"
     id="use1046-9" /></clipPath><clipPath
   id="clipPath1058-4"><use
     y="0"
     x="0"
     style="overflow:visible"
     width="100%"
     overflow="visible"
     xlink:href="#a"
     height="100%"
     id="use1056-8" /></clipPath><clipPath
   id="j-1"><use
     y="0"
     x="0"
     style="overflow:visible"
     id="use62-2"
     height="100%"
     xlink:href="#i-6"
     overflow="visible"
     width="100%" /></clipPath><radialGradient
   id="l-93"
   gradientUnits="userSpaceOnUse"
   cy="55.948002"
   cx="668.17999"
   gradientTransform="translate(-576)"
   r="84.078003"><stop
     stop-color="#3E2723"
     stop-opacity=".2"
     offset="0"
     id="stop73-9" /><stop
     stop-color="#3E2723"
     stop-opacity="0"
     offset="1"
     id="stop75-08" /></radialGradient><clipPath
   id="clipPath1073-8"><use
     y="0"
     x="0"
     style="overflow:visible"
     width="100%"
     overflow="visible"
     xlink:href="#a"
     height="100%"
     id="use1071-5" /></clipPath><clipPath
   id="clipPath1077-0"><use
     y="0"
     x="0"
     style="overflow:visible"
     width="100%"
     overflow="visible"
     xlink:href="#a"
     height="100%"
     id="use1075-9" /></clipPath><clipPath
   id="n-63"><use
     y="0"
     x="0"
     style="overflow:visible"
     id="use83-85"
     height="100%"
     xlink:href="#m-2"
     overflow="visible"
     width="100%" /></clipPath><radialGradient
   id="p-6"
   gradientUnits="userSpaceOnUse"
   cy="48.52"
   cx="597.88"
   gradientTransform="translate(-576)"
   r="78.043999"><stop
     stop-color="#3E2723"
     stop-opacity=".2"
     offset="0"
     id="stop94-11" /><stop
     stop-color="#3E2723"
     stop-opacity="0"
     offset="1"
     id="stop96-5" /></radialGradient><clipPath
   id="clipPath1092-9"><use
     y="0"
     x="0"
     style="overflow:visible"
     width="100%"
     overflow="visible"
     xlink:href="#a"
     height="100%"
     id="use1090-8" /></clipPath><radialGradient
   id="q-4"
   gradientUnits="userSpaceOnUse"
   cy="96.138"
   cx="671.84003"
   gradientTransform="translate(-576)"
   r="87.870003"><stop
     stop-color="#263238"
     stop-opacity=".2"
     offset="0"
     id="stop101-8" /><stop
     stop-color="#263238"
     stop-opacity="0"
     offset="1"
     id="stop103-1" /></radialGradient><clipPath
   id="clipPath1099-0"><use
     y="0"
     x="0"
     style="overflow:visible"
     width="100%"
     overflow="visible"
     xlink:href="#a"
     height="100%"
     id="use1097-3" /></clipPath><clipPath
   id="clipPath1103-0"><use
     y="0"
     x="0"
     style="overflow:visible"
     width="100%"
     overflow="visible"
     xlink:href="#a"
     height="100%"
     id="use1101-4" /></clipPath><clipPath
   id="clipPath1107-4"><use
     y="0"
     x="0"
     style="overflow:visible"
     width="100%"
     overflow="visible"
     xlink:href="#a"
     height="100%"
     id="use1105-4" /></clipPath><clipPath
   id="clipPath1111-4"><use
     y="0"
     x="0"
     style="overflow:visible"
     width="100%"
     overflow="visible"
     xlink:href="#a"
     height="100%"
     id="use1109-7" /></clipPath><radialGradient
   id="r-63"
   gradientUnits="userSpaceOnUse"
   cy="32.014"
   cx="34.285999"
   gradientTransform="translate(-7,-7)"
   r="176.75"><stop
     stop-color="#fff"
     stop-opacity=".1"
     offset="0"
     id="stop130-17" /><stop
     stop-color="#fff"
     stop-opacity="0"
     offset="1"
     id="stop132-5" /></radialGradient><path
   inkscape:connector-curvature="0"
   d="m 8,184 h 83.77 l 38.88,-38.88 V 116 H 61.36 L 8,24.48 Z"
   id="e-9" /><path
   inkscape:connector-curvature="0"
   d="m 96,56 34.65,60 -38.88,68 H 184 V 56 Z"
   id="i-6" /><path
   inkscape:connector-curvature="0"
   d="M 21.97,8 V 48.34 L 61.36,116 96,56 h 88 V 8 Z"
   id="m-2" /><filter
   y="-0.25"
   height="1.5"
   inkscape:menu-tooltip="Darkens the edge with an inner blur and adds a flexible glow"
   inkscape:menu="Shadows and Glows"
   inkscape:label="Dark and Glow"
   style="color-interpolation-filters:sRGB;"
   id="filter1161"><feGaussianBlur
     stdDeviation="5"
     result="result6"
     id="feGaussianBlur1151" /><feComposite
     result="result8"
     in="SourceGraphic"
     operator="atop"
     in2="result6"
     id="feComposite1153" /><feComposite
     result="result9"
     operator="over"
     in2="SourceAlpha"
     in="result8"
     id="feComposite1155" /><feColorMatrix
     values="1 0 0 0 0 0 1 0 0 0 0 0 1 0 0 0 0 0 1 0 "
     result="result10"
     id="feColorMatrix1157" /><feBlend
     in="result10"
     mode="normal"
     in2="result6"
     id="feBlend1159" /></filter><filter
   inkscape:label="Inset"
   inkscape:menu="Shadows and Glows"
   inkscape:menu-tooltip="Shadowy outer bevel"
   style="color-interpolation-filters:sRGB;"
   id="filter1179"><feMorphology
     result="result1"
     in="SourceAlpha"
     operator="dilate"
     radius="3.6"
     id="feMorphology1167" /><feGaussianBlur
     stdDeviation="3.6"
     in="result1"
     result="result0"
     id="feGaussianBlur1169" /><feDiffuseLighting
     surfaceScale="-5"
     id="feDiffuseLighting1173"><feDistantLight
       elevation="45"
       azimuth="225"
       id="feDistantLight1171" /></feDiffuseLighting><feComposite
     in2="result0"
     operator="in"
     result="result91"
     id="feComposite1175" /><feComposite
     in="SourceGraphic"
     in2="result91"
     id="feComposite1177" /></filter><clipPath
   clipPathUnits="userSpaceOnUse"
   id="clipPath1201"><rect
     style="display:inline;fill:#d38d5f;fill-opacity:1;stroke:none;stroke-width:3.15937901;stroke-linecap:butt;stroke-linejoin:bevel;stroke-miterlimit:4;stroke-dasharray:none;stroke-opacity:1;paint-order:fill markers stroke"
     id="rect1203"
     width="200"
     height="240"
     x="-219.50002"
     y="-92.5"
     ry="19.5"
     transform="scale(-1)" /></clipPath><clipPath
   clipPathUnits="userSpaceOnUse"
   id="clipPath1201-3"><rect
     style="display:inline;fill:#d38d5f;fill-opacity:1;stroke:none;stroke-width:3.15937901;stroke-linecap:butt;stroke-linejoin:bevel;stroke-miterlimit:4;stroke-dasharray:none;stroke-opacity:1;paint-order:fill markers stroke"
     id="rect1203-6"
     width="200"
     height="240"
     x="-219.50002"
     y="-92.5"
     ry="19.5"
     transform="scale(-1)" /></clipPath><filter
   inkscape:label="Inset"
   inkscape:menu="Shadows and Glows"
   inkscape:menu-tooltip="Shadowy outer bevel"
   style="color-interpolation-filters:sRGB"
   id="filter1179-7"><feMorphology
     result="result1"
     in="SourceAlpha"
     operator="dilate"
     radius="3.6"
     id="feMorphology1167-5" /><feGaussianBlur
     stdDeviation="3.6"
     in="result1"
     result="result0"
     id="feGaussianBlur1169-3" /><feDiffuseLighting
     surfaceScale="-5"
     id="feDiffuseLighting1173-5"><feDistantLight
       elevation="45"
       azimuth="225"
       id="feDistantLight1171-6" /></feDiffuseLighting><feComposite
     in2="result0"
     operator="in"
     result="result91"
     id="feComposite1175-2" /><feComposite
     in="SourceGraphic"
     in2="result91"
     id="feComposite1177-9" /></filter><clipPath
   clipPathUnits="userSpaceOnUse"
   id="clipPath1201-3-3"><rect
     style="display:inline;fill:#d38d5f;fill-opacity:1;stroke:none;stroke-width:3.15937901;stroke-linecap:butt;stroke-linejoin:bevel;stroke-miterlimit:4;stroke-dasharray:none;stroke-opacity:1;paint-order:fill markers stroke"
     id="rect1203-6-6"
     width="200"
     height="240"
     x="-219.50002"
     y="-92.5"
     ry="19.5"
     transform="scale(-1)" /></clipPath>
<clipPath
   clipPathUnits="userSpaceOnUse"
   id="clipPath1201-3-36"><rect
     style="display:inline;fill:#d38d5f;fill-opacity:1;stroke:none;stroke-width:3.15937901;stroke-linecap:butt;stroke-linejoin:bevel;stroke-miterlimit:4;stroke-dasharray:none;stroke-opacity:1;paint-order:fill markers stroke"
     id="rect1203-6-7"
     width="200"
     height="240"
     x="-219.50002"
     y="-92.5"
     ry="19.5"
     transform="scale(-1)" /></clipPath><clipPath
   clipPathUnits="userSpaceOnUse"
   id="clipPath1201-3-36-3"><rect
     style="display:inline;fill:#d38d5f;fill-opacity:1;stroke:none;stroke-width:3.15937901;stroke-linecap:butt;stroke-linejoin:bevel;stroke-miterlimit:4;stroke-dasharray:none;stroke-opacity:1;paint-order:fill markers stroke"
     id="rect1203-6-7-5"
     width="200"
     height="240"
     x="-219.50002"
     y="-92.5"
     ry="19.5"
     transform="scale(-1)" /></clipPath><clipPath
   clipPathUnits="userSpaceOnUse"
   id="clipPath1201-3-6"><rect
     style="display:inline;fill:#d38d5f;fill-opacity:1;stroke:none;stroke-width:3.15937901;stroke-linecap:butt;stroke-linejoin:bevel;stroke-miterlimit:4;stroke-dasharray:none;stroke-opacity:1;paint-order:fill markers stroke"
     id="rect1203-6-2"
     width="200"
     height="240"
     x="-219.50002"
     y="-92.5"
     ry="19.5"
     transform="scale(-1)" /></clipPath><clipPath
   clipPathUnits="userSpaceOnUse"
   id="clipPath1201-36"><rect
     style="display:inline;fill:#d38d5f;fill-opacity:1;stroke:none;stroke-width:3.15937901;stroke-linecap:butt;stroke-linejoin:bevel;stroke-miterlimit:4;stroke-dasharray:none;stroke-opacity:1;paint-order:fill markers stroke"
     id="rect1203-0"
     width="200"
     height="240"
     x="-219.50002"
     y="-92.5"
     ry="19.5"
     transform="scale(-1)" /></clipPath><filter
   inkscape:label="Inset"
   inkscape:menu="Shadows and Glows"
   inkscape:menu-tooltip="Shadowy outer bevel"
   style="color-interpolation-filters:sRGB"
   id="filter1179-6"><feMorphology
     result="result1"
     in="SourceAlpha"
     operator="dilate"
     radius="3.6"
     id="feMorphology1167-2" /><feGaussianBlur
     stdDeviation="3.6"
     in="result1"
     result="result0"
     id="feGaussianBlur1169-6" /><feDiffuseLighting
     surfaceScale="-5"
     id="feDiffuseLighting1173-1"><feDistantLight
       elevation="45"
       azimuth="225"
       id="feDistantLight1171-8" /></feDiffuseLighting><feComposite
     in2="result0"
     operator="in"
     result="result91"
     id="feComposite1175-7" /><feComposite
     in="SourceGraphic"
     in2="result91"
     id="feComposite1177-92" /></filter></defs><sodipodi:namedview
   pagecolor="#ffffff"
   bordercolor="#666666"
   borderopacity="1"
   objecttolerance="10"
   gridtolerance="10"
   guidetolerance="10"
   inkscape:pageopacity="0"
   inkscape:pageshadow="2"
   inkscape:window-width="1920"
   inkscape:window-height="1537"
   id="namedview249"
   showgrid="false"
   inkscape:zoom="2"
   inkscape:cx="106.9717"
   inkscape:cy="49.944586"
   inkscape:window-x="1920"
   inkscape:window-y="27"
   inkscape:window-maximized="0"
   inkscape:current-layer="layer1"
   inkscape:pagecheckerboard="true"
   showguides="true"
   inkscape:guide-bbox="true"><sodipodi:guide
     position="19,-95"
     orientation="1,0"
     id="guide1126"
     inkscape:locked="false" /></sodipodi:namedview>

<g
   inkscape:groupmode="layer"
   id="layer2"
   inkscape:label="Background"
   style="display:inline"><rect
     style="display:inline;opacity:1;fill:#cd6799;fill-opacity:1;fill-rule:nonzero;stroke:none;stroke-width:0.52743632;stroke-linecap:butt;stroke-linejoin:bevel;stroke-miterlimit:4;stroke-dasharray:none;stroke-opacity:1;paint-order:fill markers stroke"
     id="rect1200-2-7"
     width="200"
     height="248"
     x="28"
     y="4"
     ry="19.79899" /></g><g
   inkscape:groupmode="layer"
   id="layer1"
   inkscape:label="Icon"
   style="display:inline">


<path
   inkscape:connector-curvature="0"
   style="display:inline;fill:#ffffff;stroke-width:0.2922695"
   d="m 185.7772,136.98333 c -5.58234,0.0292 -10.43402,1.37366 -14.49656,3.3611 -1.49058,-2.95192 -2.98115,-5.58234 -3.24419,-7.51133 -0.29227,-2.25048 -0.643,-3.62413 -0.29227,-6.31302 0.35072,-2.68887 1.92898,-6.51761 1.89975,-6.80987 -0.0292,-0.29227 -0.35072,-1.66594 -3.56569,-1.69517 -3.21496,-0.0292 -5.99152,0.61376 -6.31302,1.46135 -0.3215,0.84758 -0.93527,2.77656 -1.34444,4.76399 -0.55531,2.92269 -6.42993,13.35671 -9.79103,18.82216 -1.08139,-2.13357 -2.01665,-4.0041 -2.22124,-5.49467 -0.29227,-2.25048 -0.643,-3.62414 -0.29227,-6.31302 0.35071,-2.68888 1.92897,-6.51761 1.89974,-6.80988 -0.0292,-0.29227 -0.35072,-1.66594 -3.56568,-1.69516 -3.21496,-0.0292 -5.99152,0.61376 -6.31302,1.46135 -0.3215,0.84757 -0.67222,2.83501 -1.34445,4.76399 -0.67221,1.92898 -8.47581,19.34824 -10.5217,23.84919 -1.05217,2.30893 -1.9582,4.15023 -2.60119,5.40699 0,0 0,0 0,0 0,0 -0.0292,0.0877 -0.11691,0.23381 -0.55532,1.08139 -0.87681,1.66594 -0.87681,1.66594 0,0 0,0 0,0.0292 -0.43841,0.78913 -0.90603,1.5198 -1.13985,1.5198 -0.17537,0 -0.49686,-2.10433 0.0584,-4.96857 1.16908,-6.04999 3.94564,-15.46107 3.91641,-15.78256 0,-0.17536 0.52608,-1.81208 -1.81208,-2.65965 -2.2797,-0.84758 -3.09805,0.55531 -3.30264,0.55531 -0.20458,0 -0.35072,0.49686 -0.35072,0.49686 0,0 2.54275,-10.58016 -4.85167,-10.58016 -4.61786,0 -10.98934,5.05626 -14.14585,9.61566 -1.987434,1.0814 -6.225344,3.39033 -10.755524,5.87462 -1.72439,0.9645 -3.50723,1.92899 -5.17317,2.83502 -0.11691,-0.11691 -0.23381,-0.26304 -0.35071,-0.37995 -8.94345,-9.55721 -25.4859,-16.30864 -24.78445,-29.13927 0.26303,-4.67632 1.87051,-16.95163 31.76968,-31.857383 24.609094,-12.12918 44.191154,-8.76808 47.581484,-1.31521 4.85167,10.63861 -10.49248,30.396033 -35.91992,33.260273 -9.703364,1.0814 -14.788844,-2.65965 -16.074834,-4.06255 -1.34444,-1.46135 -1.54903,-1.54902 -2.04589,-1.25675 -0.81834,0.4384 -0.29227,1.75361 0,2.51351 0.7599,1.98744 3.88719,5.49467 9.17726,7.21905 4.67633,1.51982 16.045604,2.36739 29.811504,-2.95191 15.4026,-5.9623 27.4441,-22.533993 23.90764,-36.416783 -3.53646,-14.08739 -26.91802,-18.73447 -49.042824,-10.87243 -13.15213,4.67631 -27.41488,12.0415 -37.67355,21.62795 -12.18763,11.398503 -14.11661,21.306443 -13.32748,25.456673 2.83502,14.73039 23.14775,24.31682 31.27283,31.41897 -0.40917,0.23382 -0.78912,0.4384 -1.11061,0.61377 -4.06256,2.01666 -19.55283,10.11252 -23.4108,18.67601 -4.38404,9.70336 0.70145,16.65937 4.06255,17.59464 10.43403,2.89346 21.16031,-2.30894 26.91802,-10.90166 5.75771,-8.59273 5.05626,-19.75742 2.39661,-24.87213 -0.0292,-0.0584 -0.0585,-0.11691 -0.11691,-0.17537 1.05217,-0.61376 2.13357,-1.25676 3.18574,-1.87052 2.07512,-1.22754 4.121,-2.36739 5.87462,-3.30265 -0.99372,2.71811 -1.7244,5.9623 -2.07511,10.63862 -0.43841,5.49466 1.81207,12.62603 4.763996,15.43183 1.315218,1.22752 2.864238,1.25676 3.857958,1.25676 3.44878,0 4.9978,-2.86425 6.7222,-6.25457 2.10434,-4.15023 4.00409,-8.97268 4.00409,-8.97268 0,0 -2.36739,13.03522 4.06254,13.03522 2.33816,0 4.70554,-3.0396 5.75771,-4.58863 0,0.0292 0,0.0292 0,0.0292 0,0 0.0584,-0.0877 0.17537,-0.29227 0.23382,-0.37995 0.37995,-0.61377 0.37995,-0.61377 0,0 0,-0.0292 0,-0.0584 0.93526,-1.63671 3.0396,-5.34853 6.16688,-11.51543 4.03332,-7.94972 7.92051,-17.88688 7.92051,-17.88688 0,0 0.35072,2.42583 1.54902,6.45915 0.70145,2.36738 2.1628,4.96858 3.33188,7.4821 -0.93527,1.31521 -1.5198,2.04588 -1.5198,2.04588 0,0 0,0 0.0292,0.0292 -0.7599,0.99371 -1.57826,2.07511 -2.48429,3.12727 -3.18573,3.79951 -6.98524,8.15432 -7.51133,9.41108 -0.61376,1.49058 -0.46763,2.57198 0.70145,3.44879 0.84759,0.64299 2.36739,0.73067 3.91641,0.64299 2.86425,-0.20459 4.8809,-0.90603 5.87462,-1.34444 1.54903,-0.55531 3.3611,-1.4029 5.05626,-2.65965 3.12729,-2.30893 5.02704,-5.61158 4.85167,-9.96639 -0.0877,-2.39661 -0.87681,-4.79322 -1.84129,-7.04369 0.29226,-0.40919 0.55531,-0.81836 0.84757,-1.22754 4.93936,-7.21906 8.76809,-15.13956 8.76809,-15.13956 0,0 0.35072,2.42584 1.54903,6.45916 0.58454,2.04588 1.78284,4.26713 2.83501,6.42993 -4.64708,3.77027 -7.51133,8.15431 -8.53427,11.01856 -1.84129,5.3193 -0.40917,7.71591 2.30894,8.27123 1.22752,0.26304 2.98114,-0.3215 4.26713,-0.87681 1.63671,-0.5261 3.56569,-1.43213 5.40699,-2.77657 3.12728,-2.30893 6.13766,-5.5239 5.96229,-9.8787 -0.0877,-1.98744 -0.61377,-3.94565 -1.34443,-5.8454 3.94563,-1.63671 9.03112,-2.54274 15.5195,-1.78284 13.91203,1.63671 16.65937,10.31711 16.13328,13.97048 -0.52608,3.65337 -3.44878,5.6408 -4.41326,6.25457 -0.9645,0.61377 -1.286,0.81836 -1.19831,1.25676 0.1169,0.64299 0.58454,0.61376 1.40289,0.49686 1.13985,-0.2046 7.30673,-2.95192 7.56977,-9.67412 0.43841,-8.59272 -7.74513,-17.97458 -22.21247,-17.8869 z M 78.455846,173.1663 c -4.61786,5.02703 -11.04779,6.92678 -13.82435,5.3193 -2.98115,-1.72439 -1.81207,-9.14804 3.85795,-14.46734 3.44879,-3.24419 7.89128,-6.25457 10.84321,-8.09587 0.67221,-0.40917 1.66593,-0.99372 2.86424,-1.72438 0.20458,-0.11691 0.32149,-0.17537 0.32149,-0.17537 v 0 c 0.23382,-0.14613 0.46764,-0.29226 0.70145,-0.4384 2.07511,7.599 0.0877,14.29198 -4.76399,19.58206 z m 33.610984,-22.85548 c -1.60748,3.91641 -4.96857,13.94126 -7.01446,13.38594 -1.75362,-0.46762 -2.83501,-8.06663 -0.35072,-15.57796 1.25676,-3.77028 3.91641,-8.27123 5.46543,-10.02485 2.51352,-2.80578 5.29008,-3.74104 5.96231,-2.60119 0.84757,1.49057 -3.06884,12.363 -4.06256,14.81806 z m 27.73638,13.26903 c -0.67222,0.35073 -1.31521,0.58455 -1.60748,0.40919 -0.20459,-0.11691 0.29227,-0.58454 0.29227,-0.58454 0,0 3.47801,-3.74106 4.85167,-5.43621 0.78913,-0.99372 1.72439,-2.16281 2.71811,-3.47801 0,0.1169 0,0.26304 0,0.37995 0,4.47172 -4.32558,7.4821 -6.25457,8.70962 z m 21.39412,-4.88089 c -0.49685,-0.35072 -0.40917,-1.51981 1.25676,-5.17318 0.64299,-1.43211 2.1628,-3.82872 4.764,-6.13766 0.29227,0.93527 0.49685,1.8413 0.46763,2.68889 -0.0292,5.6408 -4.06254,7.74514 -6.48839,8.62195 z"
   id="path2" /></g><g
   inkscape:groupmode="layer"
   id="layer6"
   inkscape:label="Shadow"
   style="display:inline"
   sodipodi:insensitive="true"><path
     style="display:inline;opacity:0.2;fill:#000000;fill-opacity:0.2;fill-rule:nonzero;stroke:none;stroke-width:0.52743632;stroke-linecap:butt;stroke-linejoin:bevel;stroke-miterlimit:4;stroke-dasharray:none;stroke-opacity:1;paint-order:fill markers stroke"
     d="M 222.05273,9.9472607 C 224.52173,13.24991 226,17.339854 226,21.798822 V 230.20117 C 226,241.16981 217.16981,250 206.20117,250 H 45.798822 C 41.339855,250 37.24991,248.52173 33.94726,246.05273 37.551766,250.87429 43.289149,254 49.798822,254 H 210.20117 C 221.16981,254 230,245.16981 230,234.20117 V 25.798822 c 0,-6.509673 -3.12571,-12.247057 -7.94727,-15.8515613 z"
     id="rect1200"
     inkscape:connector-curvature="0" /><path
     style="display:inline;opacity:1;fill:#000000;fill-opacity:0.2;fill-rule:nonzero;stroke:none;stroke-width:0.52743632;stroke-linecap:butt;stroke-linejoin:bevel;stroke-miterlimit:4;stroke-dasharray:none;stroke-opacity:1;paint-order:fill markers stroke"
     d="m 220.05273,7.947263 c 2.469,3.30265 3.94727,7.39259 3.94727,11.85156 V 228.20117 C 224,239.16981 215.16981,248 204.20117,248 H 43.798832 c -4.45897,0 -8.54892,-1.47827 -11.85157,-3.94727 3.60451,4.82156 9.34189,7.94727 15.85157,7.94727 H 208.20117 C 219.16981,252 228,243.16981 228,232.20117 V 23.798823 c 0,-6.50967 -3.12571,-12.24706 -7.94727,-15.85156 z"
     id="rect1200-0"
     inkscape:connector-curvature="0" /><path
     style="display:inline;opacity:0.2;fill:#000000;fill-opacity:0.2;fill-rule:nonzero;stroke:none;stroke-width:0.52743632;stroke-linecap:butt;stroke-linejoin:bevel;stroke-miterlimit:4;stroke-dasharray:none;stroke-opacity:1;paint-order:fill markers stroke"
     d="M 224.05273,11.94726 C 226.52173,15.24991 228,19.33985 228,23.79882 V 232.20117 C 228,243.16981 219.16981,252 208.20117,252 H 47.79883 c -4.45897,0 -8.54892,-1.47827 -11.85157,-3.94727 C 39.55177,252.87429 45.28915,256 51.79883,256 H 212.20117 C 223.16981,256 232,247.16981 232,236.20117 V 27.79882 c 0,-6.50967 -3.12571,-12.24706 -7.94727,-15.85156 z"
     id="rect1200-9"
     inkscape:connector-curvature="0" /></g></svg>