<?xml version="1.0" encoding="UTF-8" standalone="no"?>
<!-- Generator: Adobe Illustrator 21.0.2, SVG Export Plug-In . SVG Version: 6.00 Build 0)  -->

<svg
   xmlns:dc="http://purl.org/dc/elements/1.1/"
   xmlns:cc="http://creativecommons.org/ns#"
   xmlns:rdf="http://www.w3.org/1999/02/22-rdf-syntax-ns#"
   xmlns:svg="http://www.w3.org/2000/svg"
   xmlns="http://www.w3.org/2000/svg"
   xmlns:xlink="http://www.w3.org/1999/xlink"
   xmlns:sodipodi="http://sodipodi.sourceforge.net/DTD/sodipodi-0.dtd"
   xmlns:inkscape="http://www.inkscape.org/namespaces/inkscape"
   version="1.1"
   id="Layer_1"
   x="0px"
   y="0px"
   viewBox="0 0 48 48"
   enable-background="new 0 0 256 256"
   xml:space="preserve"
   sodipodi:docname="folder-documents.svg"
   inkscape:version="0.92.5 (2060ec1f9f, 2020-04-08)"
   inkscape:label="Shadow"
   width="48"
   height="48"><metadata
   id="metadata253"><rdf:RDF><cc:Work
       rdf:about=""><dc:format>image/svg+xml</dc:format><dc:type
         rdf:resource="http://purl.org/dc/dcmitype/StillImage" /><dc:title></dc:title></cc:Work></rdf:RDF></metadata><defs
   id="defs251">
	
	
<clipPath
   id="b"><use
     width="100%"
     overflow="visible"
     xlink:href="#a"
     height="100%"
     id="use5"
     style="overflow:visible"
     x="0"
     y="0" /></clipPath><linearGradient
   x1="29.337"
   x2="81.836998"
   y1="75.021004"
   gradientUnits="userSpaceOnUse"
   y2="44.354"
   id="c"><stop
     id="stop10"
     offset="0"
     stop-opacity=".6"
     stop-color="#A52714" /><stop
     id="stop12"
     offset=".66"
     stop-opacity="0"
     stop-color="#A52714" /></linearGradient><clipPath
   id="clipPath1232"><use
     width="100%"
     overflow="visible"
     xlink:href="#a"
     height="100%"
     id="use1230"
     style="overflow:visible"
     x="0"
     y="0" /></clipPath><clipPath
   id="clipPath1236"><use
     width="100%"
     overflow="visible"
     xlink:href="#a"
     height="100%"
     id="use1234"
     style="overflow:visible"
     x="0"
     y="0" /></clipPath><linearGradient
   x1="110.87"
   x2="52.537998"
   y1="164.5"
   gradientUnits="userSpaceOnUse"
   y2="130.33"
   id="d"><stop
     id="stop23"
     offset="0"
     stop-opacity=".4"
     stop-color="#055524" /><stop
     id="stop25"
     offset=".33"
     stop-opacity="0"
     stop-color="#055524" /></linearGradient><clipPath
   id="clipPath1244"><use
     width="100%"
     overflow="visible"
     xlink:href="#a"
     height="100%"
     id="use1242"
     style="overflow:visible"
     x="0"
     y="0" /></clipPath><clipPath
   id="clipPath1248"><use
     width="100%"
     overflow="visible"
     xlink:href="#a"
     height="100%"
     id="use1246"
     style="overflow:visible"
     x="0"
     y="0" /></clipPath><clipPath
   id="f"><use
     y="0"
     x="0"
     style="overflow:visible"
     id="use37"
     height="100%"
     xlink:href="#e"
     overflow="visible"
     width="100%" /></clipPath><linearGradient
   x1="121.86"
   x2="136.55"
   y1="49.804001"
   gradientUnits="userSpaceOnUse"
   y2="114.13"
   id="g"><stop
     id="stop42"
     offset="0"
     stop-opacity=".3"
     stop-color="#EA6100" /><stop
     id="stop44"
     offset=".66"
     stop-opacity="0"
     stop-color="#EA6100" /></linearGradient><clipPath
   id="clipPath1258"><use
     width="100%"
     overflow="visible"
     xlink:href="#a"
     height="100%"
     id="use1256"
     style="overflow:visible"
     x="0"
     y="0" /></clipPath><clipPath
   id="clipPath1269"><use
     width="100%"
     overflow="visible"
     xlink:href="#a"
     height="100%"
     id="use1267"
     style="overflow:visible"
     x="0"
     y="0" /></clipPath><clipPath
   id="j"><use
     y="0"
     x="0"
     style="overflow:visible"
     id="use62"
     height="100%"
     xlink:href="#i"
     overflow="visible"
     width="100%" /></clipPath><radialGradient
   id="l"
   gradientUnits="userSpaceOnUse"
   cy="55.948002"
   cx="668.17999"
   gradientTransform="translate(-576)"
   r="84.078003"><stop
     stop-color="#3E2723"
     stop-opacity=".2"
     offset="0"
     id="stop73" /><stop
     stop-color="#3E2723"
     stop-opacity="0"
     offset="1"
     id="stop75" /></radialGradient><clipPath
   id="clipPath1285"><use
     width="100%"
     overflow="visible"
     xlink:href="#a"
     height="100%"
     id="use1283"
     style="overflow:visible"
     x="0"
     y="0" /></clipPath><clipPath
   id="clipPath1289"><use
     width="100%"
     overflow="visible"
     xlink:href="#a"
     height="100%"
     id="use1287"
     style="overflow:visible"
     x="0"
     y="0" /></clipPath><clipPath
   id="n"><use
     y="0"
     x="0"
     style="overflow:visible"
     id="use83"
     height="100%"
     xlink:href="#m"
     overflow="visible"
     width="100%" /></clipPath><radialGradient
   id="p"
   gradientUnits="userSpaceOnUse"
   cy="48.52"
   cx="597.88"
   gradientTransform="translate(-576)"
   r="78.043999"><stop
     stop-color="#3E2723"
     stop-opacity=".2"
     offset="0"
     id="stop94" /><stop
     stop-color="#3E2723"
     stop-opacity="0"
     offset="1"
     id="stop96" /></radialGradient><clipPath
   id="clipPath1305"><use
     width="100%"
     overflow="visible"
     xlink:href="#a"
     height="100%"
     id="use1303"
     style="overflow:visible"
     x="0"
     y="0" /></clipPath><radialGradient
   id="q"
   gradientUnits="userSpaceOnUse"
   cy="96.138"
   cx="671.84003"
   gradientTransform="translate(-576)"
   r="87.870003"><stop
     stop-color="#263238"
     stop-opacity=".2"
     offset="0"
     id="stop101" /><stop
     stop-color="#263238"
     stop-opacity="0"
     offset="1"
     id="stop103" /></radialGradient><clipPath
   id="clipPath1312"><use
     width="100%"
     overflow="visible"
     xlink:href="#a"
     height="100%"
     id="use1310"
     style="overflow:visible"
     x="0"
     y="0" /></clipPath><clipPath
   id="clipPath1316"><use
     width="100%"
     overflow="visible"
     xlink:href="#a"
     height="100%"
     id="use1314"
     style="overflow:visible"
     x="0"
     y="0" /></clipPath><clipPath
   id="clipPath1320"><use
     width="100%"
     overflow="visible"
     xlink:href="#a"
     height="100%"
     id="use1318"
     style="overflow:visible"
     x="0"
     y="0" /></clipPath><clipPath
   id="clipPath1324"><use
     width="100%"
     overflow="visible"
     xlink:href="#a"
     height="100%"
     id="use1322"
     style="overflow:visible"
     x="0"
     y="0" /></clipPath><path
   inkscape:connector-curvature="0"
   d="m 8,184 h 83.77 l 38.88,-38.88 V 116 H 61.36 L 8,24.48 Z"
   id="e" /><path
   inkscape:connector-curvature="0"
   d="m 96,56 34.65,60 -38.88,68 H 184 V 56 Z"
   id="i" /><path
   inkscape:connector-curvature="0"
   d="M 21.97,8 V 48.34 L 61.36,116 96,56 h 88 V 8 Z"
   id="m" /><clipPath
   id="b-1"><use
     width="100%"
     overflow="visible"
     xlink:href="#a"
     height="100%"
     id="use5-7"
     style="overflow:visible"
     x="0"
     y="0" /></clipPath><clipPath
   id="clipPath1232-2"><use
     width="100%"
     overflow="visible"
     xlink:href="#a"
     height="100%"
     id="use1230-2"
     style="overflow:visible"
     x="0"
     y="0" /></clipPath><clipPath
   id="clipPath1236-6"><use
     width="100%"
     overflow="visible"
     xlink:href="#a"
     height="100%"
     id="use1234-1"
     style="overflow:visible"
     x="0"
     y="0" /></clipPath><clipPath
   id="clipPath1244-1"><use
     width="100%"
     overflow="visible"
     xlink:href="#a"
     height="100%"
     id="use1242-5"
     style="overflow:visible"
     x="0"
     y="0" /></clipPath><clipPath
   id="clipPath1248-9"><use
     width="100%"
     overflow="visible"
     xlink:href="#a"
     height="100%"
     id="use1246-4"
     style="overflow:visible"
     x="0"
     y="0" /></clipPath><clipPath
   id="f-9"><use
     y="0"
     x="0"
     style="overflow:visible"
     id="use37-0"
     height="100%"
     xlink:href="#e-8"
     overflow="visible"
     width="100%" /></clipPath><clipPath
   id="clipPath1258-7"><use
     width="100%"
     overflow="visible"
     xlink:href="#a"
     height="100%"
     id="use1256-7"
     style="overflow:visible"
     x="0"
     y="0" /></clipPath><clipPath
   id="clipPath1269-1"><use
     width="100%"
     overflow="visible"
     xlink:href="#a"
     height="100%"
     id="use1267-1"
     style="overflow:visible"
     x="0"
     y="0" /></clipPath><clipPath
   id="j-5"><use
     y="0"
     x="0"
     style="overflow:visible"
     id="use62-9"
     height="100%"
     xlink:href="#i-5"
     overflow="visible"
     width="100%" /></clipPath><radialGradient
   id="l-7"
   gradientUnits="userSpaceOnUse"
   cy="55.948002"
   cx="668.17999"
   gradientTransform="translate(-576)"
   r="84.078003"><stop
     stop-color="#3E2723"
     stop-opacity=".2"
     offset="0"
     id="stop73-7" /><stop
     stop-color="#3E2723"
     stop-opacity="0"
     offset="1"
     id="stop75-6" /></radialGradient><clipPath
   id="clipPath1285-7"><use
     width="100%"
     overflow="visible"
     xlink:href="#a"
     height="100%"
     id="use1283-3"
     style="overflow:visible"
     x="0"
     y="0" /></clipPath><clipPath
   id="clipPath1289-6"><use
     width="100%"
     overflow="visible"
     xlink:href="#a"
     height="100%"
     id="use1287-5"
     style="overflow:visible"
     x="0"
     y="0" /></clipPath><clipPath
   id="n-6"><use
     y="0"
     x="0"
     style="overflow:visible"
     id="use83-3"
     height="100%"
     xlink:href="#m-6"
     overflow="visible"
     width="100%" /></clipPath><radialGradient
   id="p-9"
   gradientUnits="userSpaceOnUse"
   cy="48.52"
   cx="597.88"
   gradientTransform="translate(-576)"
   r="78.043999"><stop
     stop-color="#3E2723"
     stop-opacity=".2"
     offset="0"
     id="stop94-4" /><stop
     stop-color="#3E2723"
     stop-opacity="0"
     offset="1"
     id="stop96-8" /></radialGradient><clipPath
   id="clipPath1305-1"><use
     width="100%"
     overflow="visible"
     xlink:href="#a"
     height="100%"
     id="use1303-2"
     style="overflow:visible"
     x="0"
     y="0" /></clipPath><radialGradient
   id="q-9"
   gradientUnits="userSpaceOnUse"
   cy="96.138"
   cx="671.84003"
   gradientTransform="translate(-576)"
   r="87.870003"><stop
     stop-color="#263238"
     stop-opacity=".2"
     offset="0"
     id="stop101-3" /><stop
     stop-color="#263238"
     stop-opacity="0"
     offset="1"
     id="stop103-9" /></radialGradient><clipPath
   id="clipPath1312-0"><use
     width="100%"
     overflow="visible"
     xlink:href="#a"
     height="100%"
     id="use1310-8"
     style="overflow:visible"
     x="0"
     y="0" /></clipPath><clipPath
   id="clipPath1316-8"><use
     width="100%"
     overflow="visible"
     xlink:href="#a"
     height="100%"
     id="use1314-5"
     style="overflow:visible"
     x="0"
     y="0" /></clipPath><clipPath
   id="clipPath1320-0"><use
     width="100%"
     overflow="visible"
     xlink:href="#a"
     height="100%"
     id="use1318-9"
     style="overflow:visible"
     x="0"
     y="0" /></clipPath><clipPath
   id="clipPath1324-6"><use
     width="100%"
     overflow="visible"
     xlink:href="#a"
     height="100%"
     id="use1322-3"
     style="overflow:visible"
     x="0"
     y="0" /></clipPath><path
   inkscape:connector-curvature="0"
   d="m 8,184 h 83.77 l 38.88,-38.88 V 116 H 61.36 L 8,24.48 Z"
   id="e-8" /><path
   inkscape:connector-curvature="0"
   d="m 96,56 34.65,60 -38.88,68 H 184 V 56 Z"
   id="i-5" /><path
   inkscape:connector-curvature="0"
   d="M 21.97,8 V 48.34 L 61.36,116 96,56 h 88 V 8 Z"
   id="m-6" /><radialGradient
   id="r"
   gradientUnits="userSpaceOnUse"
   cy="32.014"
   cx="34.285999"
   gradientTransform="translate(-23.079613,-106.2699)"
   r="176.75"><stop
     stop-color="#fff"
     stop-opacity=".1"
     offset="0"
     id="stop130" /><stop
     stop-color="#fff"
     stop-opacity="0"
     offset="1"
     id="stop132" /></radialGradient><clipPath
   id="b-0"><use
     y="0"
     x="0"
     style="overflow:visible"
     width="100%"
     overflow="visible"
     xlink:href="#a"
     height="100%"
     id="use5-5" /></clipPath><clipPath
   id="clipPath963"><use
     y="0"
     x="0"
     style="overflow:visible"
     width="100%"
     overflow="visible"
     xlink:href="#a"
     height="100%"
     id="use961" /></clipPath><clipPath
   id="clipPath967"><use
     y="0"
     x="0"
     style="overflow:visible"
     width="100%"
     overflow="visible"
     xlink:href="#a"
     height="100%"
     id="use965" /></clipPath><radialGradient
   id="q-94"
   gradientUnits="userSpaceOnUse"
   cy="96.138"
   cx="671.84003"
   gradientTransform="translate(-576)"
   r="87.870003"><stop
     stop-color="#263238"
     stop-opacity=".2"
     offset="0"
     id="stop101-6" /><stop
     stop-color="#263238"
     stop-opacity="0"
     offset="1"
     id="stop103-92" /></radialGradient><clipPath
   id="clipPath974"><use
     y="0"
     x="0"
     style="overflow:visible"
     width="100%"
     overflow="visible"
     xlink:href="#a"
     height="100%"
     id="use972" /></clipPath><radialGradient
   id="p-2"
   gradientUnits="userSpaceOnUse"
   cy="48.52"
   cx="597.88"
   gradientTransform="translate(-576)"
   r="78.043999"><stop
     stop-color="#3E2723"
     stop-opacity=".2"
     offset="0"
     id="stop94-47" /><stop
     stop-color="#3E2723"
     stop-opacity="0"
     offset="1"
     id="stop96-7" /></radialGradient><clipPath
   id="clipPath981"><use
     y="0"
     x="0"
     style="overflow:visible"
     width="100%"
     overflow="visible"
     xlink:href="#a"
     height="100%"
     id="use979" /></clipPath><clipPath
   id="clipPath985"><use
     y="0"
     x="0"
     style="overflow:visible"
     width="100%"
     overflow="visible"
     xlink:href="#a"
     height="100%"
     id="use983" /></clipPath><clipPath
   id="n-5"><use
     width="100%"
     overflow="visible"
     xlink:href="#m-0"
     height="100%"
     id="use83-4"
     style="overflow:visible"
     x="0"
     y="0" /></clipPath><radialGradient
   id="l-2"
   gradientUnits="userSpaceOnUse"
   cy="55.948002"
   cx="668.17999"
   gradientTransform="translate(-576)"
   r="84.078003"><stop
     stop-color="#3E2723"
     stop-opacity=".2"
     offset="0"
     id="stop73-8" /><stop
     stop-color="#3E2723"
     stop-opacity="0"
     offset="1"
     id="stop75-9" /></radialGradient><clipPath
   id="clipPath997"><use
     y="0"
     x="0"
     style="overflow:visible"
     width="100%"
     overflow="visible"
     xlink:href="#a"
     height="100%"
     id="use995" /></clipPath><clipPath
   id="clipPath1001"><use
     y="0"
     x="0"
     style="overflow:visible"
     width="100%"
     overflow="visible"
     xlink:href="#a"
     height="100%"
     id="use999" /></clipPath><clipPath
   id="j-3"><use
     width="100%"
     overflow="visible"
     xlink:href="#i-1"
     height="100%"
     id="use62-6"
     style="overflow:visible"
     x="0"
     y="0" /></clipPath><clipPath
   id="clipPath1010"><use
     y="0"
     x="0"
     style="overflow:visible"
     width="100%"
     overflow="visible"
     xlink:href="#a"
     height="100%"
     id="use1008" /></clipPath><clipPath
   id="clipPath1017"><use
     y="0"
     x="0"
     style="overflow:visible"
     width="100%"
     overflow="visible"
     xlink:href="#a"
     height="100%"
     id="use1015" /></clipPath><clipPath
   id="f-0"><use
     width="100%"
     overflow="visible"
     xlink:href="#e-1"
     height="100%"
     id="use37-5"
     style="overflow:visible"
     x="0"
     y="0" /></clipPath><clipPath
   id="clipPath1029"><use
     y="0"
     x="0"
     style="overflow:visible"
     width="100%"
     overflow="visible"
     xlink:href="#a"
     height="100%"
     id="use1027" /></clipPath><clipPath
   id="clipPath1033"><use
     y="0"
     x="0"
     style="overflow:visible"
     width="100%"
     overflow="visible"
     xlink:href="#a"
     height="100%"
     id="use1031" /></clipPath><clipPath
   id="clipPath1043"><use
     y="0"
     x="0"
     style="overflow:visible"
     width="100%"
     overflow="visible"
     xlink:href="#a"
     height="100%"
     id="use1041" /></clipPath><clipPath
   id="clipPath1047"><use
     y="0"
     x="0"
     style="overflow:visible"
     width="100%"
     overflow="visible"
     xlink:href="#a"
     height="100%"
     id="use1045" /></clipPath><path
   id="e-1"
   d="m 8,184 h 83.77 l 38.88,-38.88 V 116 H 61.36 L 8,24.48 Z"
   inkscape:connector-curvature="0" /><path
   id="i-1"
   d="m 96,56 34.65,60 -38.88,68 H 184 V 56 Z"
   inkscape:connector-curvature="0" /><path
   id="m-0"
   d="M 21.97,8 V 48.34 L 61.36,116 96,56 h 88 V 8 Z"
   inkscape:connector-curvature="0" /><circle
   r="88"
   cx="96"
   cy="96"
   id="a" /><path
   d="m 8,184 h 83.77 l 38.88,-38.88 V 116 H 61.36 L 8,24.48 Z"
   id="e-6"
   inkscape:connector-curvature="0" /><path
   d="m 96,56 34.65,60 -38.88,68 H 184 V 56 Z"
   id="i-2"
   inkscape:connector-curvature="0" /><path
   d="M 21.97,8 V 48.34 L 61.36,116 96,56 h 88 V 8 Z"
   id="m-8"
   inkscape:connector-curvature="0" /><defs
   id="defs1820"><path
     d="M 21.97,8 V 48.34 L 61.36,116 96,56 h 88 V 8 Z"
     id="path1928"
     inkscape:connector-curvature="0" /></defs><clipPath
   id="n-7"><use
     id="use1822"
     height="100%"
     xlink:href="#m-8"
     overflow="visible"
     width="100%"
     style="overflow:visible"
     x="0"
     y="0" /></clipPath><defs
   id="defs1799"><path
     d="m 96,56 34.65,60 -38.88,68 H 184 V 56 Z"
     id="path1918"
     inkscape:connector-curvature="0" /></defs><clipPath
   id="j-6"><use
     id="use1801"
     height="100%"
     xlink:href="#i-2"
     overflow="visible"
     width="100%"
     style="overflow:visible"
     x="0"
     y="0" /></clipPath><defs
   id="defs1774"><path
     d="m 8,184 h 83.77 l 38.88,-38.88 V 116 H 61.36 L 8,24.48 Z"
     id="path1902"
     inkscape:connector-curvature="0" /></defs><clipPath
   id="f-06"><use
     id="use1776"
     height="100%"
     xlink:href="#e-6"
     overflow="visible"
     width="100%"
     style="overflow:visible"
     x="0"
     y="0" /></clipPath><linearGradient
   x1="110.87"
   x2="52.537998"
   y1="164.5"
   gradientUnits="userSpaceOnUse"
   y2="130.33"
   id="linearGradient1897"><stop
     id="stop1762"
     offset="0"
     stop-opacity=".4"
     stop-color="#055524" /><stop
     id="stop1764"
     offset=".33"
     stop-opacity="0"
     stop-color="#055524" /></linearGradient><linearGradient
   x1="29.337"
   x2="81.836998"
   y1="75.021004"
   gradientUnits="userSpaceOnUse"
   y2="44.354"
   id="linearGradient1889"><stop
     id="stop1749"
     offset="0"
     stop-opacity=".6"
     stop-color="#A52714" /><stop
     id="stop1751"
     offset=".66"
     stop-opacity="0"
     stop-color="#A52714" /></linearGradient><linearGradient
   id="linearGradient1910"
   y2="114.13"
   gradientUnits="userSpaceOnUse"
   y1="49.804001"
   x2="136.55"
   x1="121.86"><stop
     stop-color="#EA6100"
     stop-opacity=".3"
     offset="0"
     id="stop1781" /><stop
     stop-color="#EA6100"
     stop-opacity="0"
     offset=".66"
     id="stop1783" /></linearGradient><clipPath
   id="b-3"><use
     y="0"
     x="0"
     style="overflow:visible"
     width="100%"
     overflow="visible"
     xlink:href="#a"
     height="100%"
     id="use5-1" /></clipPath><clipPath
   id="clipPath1024"><use
     y="0"
     x="0"
     style="overflow:visible"
     width="100%"
     overflow="visible"
     xlink:href="#a"
     height="100%"
     id="use1022" /></clipPath><clipPath
   id="clipPath1028"><use
     y="0"
     x="0"
     style="overflow:visible"
     width="100%"
     overflow="visible"
     xlink:href="#a"
     height="100%"
     id="use1026" /></clipPath><clipPath
   id="clipPath1035"><use
     y="0"
     x="0"
     style="overflow:visible"
     width="100%"
     overflow="visible"
     xlink:href="#a"
     height="100%"
     id="use1033" /></clipPath><clipPath
   id="clipPath1039"><use
     y="0"
     x="0"
     style="overflow:visible"
     width="100%"
     overflow="visible"
     xlink:href="#a"
     height="100%"
     id="use1037" /></clipPath><clipPath
   id="f-6"><use
     y="0"
     x="0"
     style="overflow:visible"
     id="use37-8"
     height="100%"
     xlink:href="#e-61"
     overflow="visible"
     width="100%" /></clipPath><clipPath
   id="clipPath1048"><use
     y="0"
     x="0"
     style="overflow:visible"
     width="100%"
     overflow="visible"
     xlink:href="#a"
     height="100%"
     id="use1046" /></clipPath><clipPath
   id="clipPath1058"><use
     y="0"
     x="0"
     style="overflow:visible"
     width="100%"
     overflow="visible"
     xlink:href="#a"
     height="100%"
     id="use1056" /></clipPath><clipPath
   id="j-66"><use
     y="0"
     x="0"
     style="overflow:visible"
     id="use62-4"
     height="100%"
     xlink:href="#i-59"
     overflow="visible"
     width="100%" /></clipPath><radialGradient
   id="l-9"
   gradientUnits="userSpaceOnUse"
   cy="55.948002"
   cx="668.17999"
   gradientTransform="translate(-576)"
   r="84.078003"><stop
     stop-color="#3E2723"
     stop-opacity=".2"
     offset="0"
     id="stop73-5" /><stop
     stop-color="#3E2723"
     stop-opacity="0"
     offset="1"
     id="stop75-0" /></radialGradient><clipPath
   id="clipPath1073"><use
     y="0"
     x="0"
     style="overflow:visible"
     width="100%"
     overflow="visible"
     xlink:href="#a"
     height="100%"
     id="use1071" /></clipPath><clipPath
   id="clipPath1077"><use
     y="0"
     x="0"
     style="overflow:visible"
     width="100%"
     overflow="visible"
     xlink:href="#a"
     height="100%"
     id="use1075" /></clipPath><clipPath
   id="n-4"><use
     y="0"
     x="0"
     style="overflow:visible"
     id="use83-8"
     height="100%"
     xlink:href="#m-4"
     overflow="visible"
     width="100%" /></clipPath><radialGradient
   id="p-7"
   gradientUnits="userSpaceOnUse"
   cy="48.52"
   cx="597.88"
   gradientTransform="translate(-576)"
   r="78.043999"><stop
     stop-color="#3E2723"
     stop-opacity=".2"
     offset="0"
     id="stop94-1" /><stop
     stop-color="#3E2723"
     stop-opacity="0"
     offset="1"
     id="stop96-72" /></radialGradient><clipPath
   id="clipPath1092"><use
     y="0"
     x="0"
     style="overflow:visible"
     width="100%"
     overflow="visible"
     xlink:href="#a"
     height="100%"
     id="use1090" /></clipPath><radialGradient
   id="q-7"
   gradientUnits="userSpaceOnUse"
   cy="96.138"
   cx="671.84003"
   gradientTransform="translate(-576)"
   r="87.870003"><stop
     stop-color="#263238"
     stop-opacity=".2"
     offset="0"
     id="stop101-2" /><stop
     stop-color="#263238"
     stop-opacity="0"
     offset="1"
     id="stop103-2" /></radialGradient><clipPath
   id="clipPath1099"><use
     y="0"
     x="0"
     style="overflow:visible"
     width="100%"
     overflow="visible"
     xlink:href="#a"
     height="100%"
     id="use1097" /></clipPath><clipPath
   id="clipPath1103"><use
     y="0"
     x="0"
     style="overflow:visible"
     width="100%"
     overflow="visible"
     xlink:href="#a"
     height="100%"
     id="use1101" /></clipPath><clipPath
   id="clipPath1107"><use
     y="0"
     x="0"
     style="overflow:visible"
     width="100%"
     overflow="visible"
     xlink:href="#a"
     height="100%"
     id="use1105" /></clipPath><clipPath
   id="clipPath1111"><use
     y="0"
     x="0"
     style="overflow:visible"
     width="100%"
     overflow="visible"
     xlink:href="#a"
     height="100%"
     id="use1109" /></clipPath><radialGradient
   id="r-6"
   gradientUnits="userSpaceOnUse"
   cy="32.014"
   cx="34.285999"
   gradientTransform="translate(-7,-7)"
   r="176.75"><stop
     stop-color="#fff"
     stop-opacity=".1"
     offset="0"
     id="stop130-1" /><stop
     stop-color="#fff"
     stop-opacity="0"
     offset="1"
     id="stop132-0" /></radialGradient><path
   inkscape:connector-curvature="0"
   d="m 8,184 h 83.77 l 38.88,-38.88 V 116 H 61.36 L 8,24.48 Z"
   id="e-61" /><path
   inkscape:connector-curvature="0"
   d="m 96,56 34.65,60 -38.88,68 H 184 V 56 Z"
   id="i-59" /><path
   inkscape:connector-curvature="0"
   d="M 21.97,8 V 48.34 L 61.36,116 96,56 h 88 V 8 Z"
   id="m-4" /><clipPath
   id="b-9"><use
     y="0"
     x="0"
     style="overflow:visible"
     width="100%"
     overflow="visible"
     xlink:href="#a"
     height="100%"
     id="use5-0" /></clipPath><clipPath
   id="clipPath1024-7"><use
     y="0"
     x="0"
     style="overflow:visible"
     width="100%"
     overflow="visible"
     xlink:href="#a"
     height="100%"
     id="use1022-7" /></clipPath><clipPath
   id="clipPath1028-1"><use
     y="0"
     x="0"
     style="overflow:visible"
     width="100%"
     overflow="visible"
     xlink:href="#a"
     height="100%"
     id="use1026-1" /></clipPath><clipPath
   id="clipPath1035-7"><use
     y="0"
     x="0"
     style="overflow:visible"
     width="100%"
     overflow="visible"
     xlink:href="#a"
     height="100%"
     id="use1033-7" /></clipPath><clipPath
   id="clipPath1039-6"><use
     y="0"
     x="0"
     style="overflow:visible"
     width="100%"
     overflow="visible"
     xlink:href="#a"
     height="100%"
     id="use1037-7" /></clipPath><clipPath
   id="f-3"><use
     y="0"
     x="0"
     style="overflow:visible"
     id="use37-6"
     height="100%"
     xlink:href="#e-9"
     overflow="visible"
     width="100%" /></clipPath><clipPath
   id="clipPath1048-3"><use
     y="0"
     x="0"
     style="overflow:visible"
     width="100%"
     overflow="visible"
     xlink:href="#a"
     height="100%"
     id="use1046-9" /></clipPath><clipPath
   id="clipPath1058-4"><use
     y="0"
     x="0"
     style="overflow:visible"
     width="100%"
     overflow="visible"
     xlink:href="#a"
     height="100%"
     id="use1056-8" /></clipPath><clipPath
   id="j-1"><use
     y="0"
     x="0"
     style="overflow:visible"
     id="use62-2"
     height="100%"
     xlink:href="#i-6"
     overflow="visible"
     width="100%" /></clipPath><radialGradient
   id="l-93"
   gradientUnits="userSpaceOnUse"
   cy="55.948002"
   cx="668.17999"
   gradientTransform="translate(-576)"
   r="84.078003"><stop
     stop-color="#3E2723"
     stop-opacity=".2"
     offset="0"
     id="stop73-9" /><stop
     stop-color="#3E2723"
     stop-opacity="0"
     offset="1"
     id="stop75-08" /></radialGradient><clipPath
   id="clipPath1073-8"><use
     y="0"
     x="0"
     style="overflow:visible"
     width="100%"
     overflow="visible"
     xlink:href="#a"
     height="100%"
     id="use1071-5" /></clipPath><clipPath
   id="clipPath1077-0"><use
     y="0"
     x="0"
     style="overflow:visible"
     width="100%"
     overflow="visible"
     xlink:href="#a"
     height="100%"
     id="use1075-9" /></clipPath><clipPath
   id="n-63"><use
     y="0"
     x="0"
     style="overflow:visible"
     id="use83-85"
     height="100%"
     xlink:href="#m-2"
     overflow="visible"
     width="100%" /></clipPath><radialGradient
   id="p-6"
   gradientUnits="userSpaceOnUse"
   cy="48.52"
   cx="597.88"
   gradientTransform="translate(-576)"
   r="78.043999"><stop
     stop-color="#3E2723"
     stop-opacity=".2"
     offset="0"
     id="stop94-11" /><stop
     stop-color="#3E2723"
     stop-opacity="0"
     offset="1"
     id="stop96-5" /></radialGradient><clipPath
   id="clipPath1092-9"><use
     y="0"
     x="0"
     style="overflow:visible"
     width="100%"
     overflow="visible"
     xlink:href="#a"
     height="100%"
     id="use1090-8" /></clipPath><radialGradient
   id="q-4"
   gradientUnits="userSpaceOnUse"
   cy="96.138"
   cx="671.84003"
   gradientTransform="translate(-576)"
   r="87.870003"><stop
     stop-color="#263238"
     stop-opacity=".2"
     offset="0"
     id="stop101-8" /><stop
     stop-color="#263238"
     stop-opacity="0"
     offset="1"
     id="stop103-1" /></radialGradient><clipPath
   id="clipPath1099-0"><use
     y="0"
     x="0"
     style="overflow:visible"
     width="100%"
     overflow="visible"
     xlink:href="#a"
     height="100%"
     id="use1097-3" /></clipPath><clipPath
   id="clipPath1103-0"><use
     y="0"
     x="0"
     style="overflow:visible"
     width="100%"
     overflow="visible"
     xlink:href="#a"
     height="100%"
     id="use1101-4" /></clipPath><clipPath
   id="clipPath1107-4"><use
     y="0"
     x="0"
     style="overflow:visible"
     width="100%"
     overflow="visible"
     xlink:href="#a"
     height="100%"
     id="use1105-4" /></clipPath><clipPath
   id="clipPath1111-4"><use
     y="0"
     x="0"
     style="overflow:visible"
     width="100%"
     overflow="visible"
     xlink:href="#a"
     height="100%"
     id="use1109-7" /></clipPath><radialGradient
   id="r-63"
   gradientUnits="userSpaceOnUse"
   cy="32.014"
   cx="34.285999"
   gradientTransform="translate(-7,-7)"
   r="176.75"><stop
     stop-color="#fff"
     stop-opacity=".1"
     offset="0"
     id="stop130-17" /><stop
     stop-color="#fff"
     stop-opacity="0"
     offset="1"
     id="stop132-5" /></radialGradient><path
   inkscape:connector-curvature="0"
   d="m 8,184 h 83.77 l 38.88,-38.88 V 116 H 61.36 L 8,24.48 Z"
   id="e-9" /><path
   inkscape:connector-curvature="0"
   d="m 96,56 34.65,60 -38.88,68 H 184 V 56 Z"
   id="i-6" /><path
   inkscape:connector-curvature="0"
   d="M 21.97,8 V 48.34 L 61.36,116 96,56 h 88 V 8 Z"
   id="m-2" /><clipPath
   clipPathUnits="userSpaceOnUse"
   id="clipPath7328"><path
     style="fill:#bb9e7b;fill-opacity:1;stroke:none"
     d="m 240,100 v -256 c 0,-0.2208 0,-24 24,-24 h 176 l 48,48 h 176 c 13.296,0 24,10.704 24,24 v 208 c 0,13.296 -10.704,24 -24,24 H 264 c -13.296,0 -24,-10.704 -24,-24 z"
     id="path7330"
     inkscape:connector-curvature="0"
     sodipodi:nodetypes="scsccssssss" /></clipPath><filter
   inkscape:collect="always"
   style="color-interpolation-filters:sRGB"
   id="filter4881"
   x="-0.053571429"
   width="1.1071429"
   y="-0.06818182"
   height="1.1363636"><feGaussianBlur
     inkscape:collect="always"
     stdDeviation="10"
     id="feGaussianBlur4883" /></filter><filter
   inkscape:collect="always"
   style="color-interpolation-filters:sRGB"
   id="filter4525"
   x="-0.022714285"
   width="1.0454286"
   y="-0.02544"
   height="1.05088"><feGaussianBlur
     inkscape:collect="always"
     stdDeviation="4.24"
     id="feGaussianBlur4527" /></filter><filter
   inkscape:collect="always"
   style="color-interpolation-filters:sRGB"
   id="filter4880"
   x="-0.058571428"
   width="1.1171429"
   y="-0.061500002"
   height="1.123"><feGaussianBlur
     inkscape:collect="always"
     stdDeviation="4.1000005"
     id="feGaussianBlur4882" /></filter><filter
   inkscape:collect="always"
   style="color-interpolation-filters:sRGB"
   id="filter1211"
   x="-0.064285709"
   width="1.1285714"
   y="-0.056250004"
   height="1.1125"><feGaussianBlur
     inkscape:collect="always"
     stdDeviation="0.37500002"
     id="feGaussianBlur1213" /></filter><filter
   inkscape:collect="always"
   style="color-interpolation-filters:sRGB"
   id="filter1260"
   x="-0.021428498"
   width="1.042857"
   y="-0.027272846"
   height="1.0545457"><feGaussianBlur
     inkscape:collect="always"
     stdDeviation="0.41071292"
     id="feGaussianBlur1262" /></filter></defs><sodipodi:namedview
   pagecolor="#ffffff"
   bordercolor="#666666"
   borderopacity="1"
   objecttolerance="10"
   gridtolerance="10"
   guidetolerance="10"
   inkscape:pageopacity="0"
   inkscape:pageshadow="2"
   inkscape:window-width="1884"
   inkscape:window-height="1543"
   id="namedview249"
   showgrid="false"
   inkscape:zoom="16"
   inkscape:cx="19.223738"
   inkscape:cy="14.84761"
   inkscape:window-x="1956"
   inkscape:window-y="27"
   inkscape:window-maximized="0"
   inkscape:current-layer="layer1"
   inkscape:pagecheckerboard="false" />

<g
   inkscape:groupmode="layer"
   id="layer2"
   inkscape:label="Background"
   style="display:none"
   transform="translate(0,-208)"><circle
     style="display:inline;fill:#ffffff;fill-opacity:1;stroke:none;stroke-width:2.74049902;stroke-miterlimit:4;stroke-dasharray:none;stroke-opacity:1"
     id="path1090"
     cx="128"
     cy="128"
     r="124" /></g><g
   inkscape:groupmode="layer"
   id="layer1"
   inkscape:label="Icon"
   style="display:inline"
   transform="translate(0,-208)"><path
     style="display:inline;opacity:0.2;fill:#000000;fill-opacity:1;stroke:none;stroke-width:0.10267857;filter:url(#filter1260);enable-background:new"
     d="m 3.4648397,213.92871 c -2.464286,0 -2.46484297,2.44214 -2.46484297,2.46484 v 9.85743 16.42773 4.92969 c 0,1.36522 1.09963297,2.46289 2.46484297,2.46289 H 44.537106 c 1.365215,0 2.462891,-1.09767 2.462891,-2.46289 v -4.92969 -21.35742 c 0,-0.006 0.0012,-0.16855 -0.03906,-0.40625 -0.01452,-0.0877 -0.03708,-0.17155 -0.06055,-0.25586 -0.0196,-0.0779 -0.04347,-0.15416 -0.07227,-0.23828 -0.01241,-0.0317 -0.02539,-0.0627 -0.03906,-0.0937 -0.261172,-0.6848 -0.85208,-1.46875 -2.251953,-1.46875 H 26.46484 l -4.927734,-4.92969 z"
     id="path1229"
     inkscape:connector-curvature="0"
     transform="matrix(1.0005956,0,0,1.0005956,-0.01429445,-0.13817826)" /><path
     style="display:inline;fill:#003059;fill-opacity:1;stroke:none;stroke-width:0.10267857;enable-background:new"
     d="m 1.0020184,242.67205 v -26.28571 c 0,-0.0227 0,-2.46429 2.464286,-2.46429 H 21.537728 l 4.92858,4.92857 h 18.07143 c 1.36521,0 2.46428,1.09908 2.46428,2.46429 v 21.35714 c 0,1.36522 -1.09907,2.46429 -2.46428,2.46429 H 3.4663044 c -1.365215,0 -2.464286,-1.09907 -2.464286,-2.46429 z"
     id="path1221"
     inkscape:connector-curvature="0"
     sodipodi:nodetypes="scsccssssss" /><path
     sodipodi:nodetypes="scsccssssss"
     inkscape:connector-curvature="0"
     id="path1215"
     d="m 47.000775,247.60752 v -26.28571 c 0,-0.0227 0,-2.46429 -2.464286,-2.46429 H 26.465065 l -4.92858,4.92857 H 3.465055 c -1.36521,0 -2.46428,1.09908 -2.46428,2.46429 v 21.35714 c 0,1.36522 1.09907,2.46429 2.46428,2.46429 h 41.071434 c 1.365215,0 2.464286,-1.09907 2.464286,-2.46429 z"
     style="display:inline;fill:#0068bf;fill-opacity:1;stroke:none;stroke-width:0.10267857;enable-background:new" /><path
     style="display:inline;opacity:0.1;fill:#000000;fill-opacity:1;stroke:none;stroke-width:0.10267857;enable-background:new"
     d="m 26.464842,218.8584 -4.927734,4.92773 H 3.464842 c -1.36521,0 -2.464843,1.09964 -2.464843,2.46485 v 0.5 c 0,-1.36521 1.099633,-2.46485 2.464843,-2.46485 h 18.072266 l 4.927734,-4.92773 h 18.072266 c 2.464286,0 2.462891,2.44019 2.462891,2.46289 v -0.5 c 0,-0.0227 0.0014,-2.46289 -2.462891,-2.46289 z"
     id="path1225"
     inkscape:connector-curvature="0" /><path
     style="display:inline;opacity:0.1;fill:#000000;fill-opacity:1;stroke:#000000;stroke-width:8;stroke-miterlimit:4;stroke-dasharray:none;stroke-opacity:1;filter:url(#filter4525);enable-background:new"
     d="m -520.00001,-125.49996 c -24,0 -24,23.7792 -24,24 v 95.999999 160.000001 96 c 0,13.296 10.704,24 24,24 h 400 c 13.296,0 23.999996,-10.704 23.999996,-24 v -96 -208.000001 c 0,-3.40647 -0.70777,-6.64054 -1.976556,-9.57031 -2.46961,-6.44528 -8.04418,-13.84886 -20.58203,-14.38281 -0.47726,-0.028 -0.95687,-0.0469 -1.44141,-0.0469 h -176 l -48,-47.999999 z"
     id="path4529"
     inkscape:connector-curvature="0" /><path
     style="display:inline;opacity:0.2;fill:#000000;fill-opacity:1;stroke:none;enable-background:new"
     d="m -520.00001,-123.49998 c -24,0 -24,23.779199 -24,23.999999 v 95.999999 160.000002 96 c 0,13.296 10.704,24 24,24 h 400 c 13.296,0 23.999996,-10.704 23.999996,-24 v -96 -208.000001 c 0,-3.40647 -0.70777,-6.64054 -1.97656,-9.57031 -2.469606,-6.44528 -8.044176,-13.84886 -20.582026,-14.38281 -0.47726,-0.028 -0.95687,-0.0469 -1.44141,-0.0469 h -176 l -48,-47.999999 z"
     id="path4531"
     inkscape:connector-curvature="0" /><path
     inkscape:connector-curvature="0"
     id="path4520"
     d="m -520.00001,-121.49998 c -24,0 -24,23.779199 -24,23.999999 v 95.999999 160.000002 96 c 0,13.296 10.704,24 24,24 h 400 c 13.296,0 23.999996,-10.704 23.999996,-24 v -96 -208.000001 c 0,-3.40647 -0.70777,-6.64054 -1.97656,-9.57031 -2.469606,-6.44528 -8.044176,-13.84886 -20.582026,-14.38281 -0.47726,-0.028 -0.95687,-0.0469 -1.44141,-0.0469 h -176 l -48,-47.999999 z"
     style="display:inline;opacity:0.2;fill:#000000;fill-opacity:1;stroke:none;filter:url(#filter4525);enable-background:new" /><path
     style="display:inline;fill:#c83737;fill-opacity:1;stroke:none;enable-background:new"
     d="M -73.79063,646.59757 V 390.59756 c 0,-0.2208 0,-23.99999 24,-23.99999 h 176 l 48,47.99999 h 176 c 13.296,0 23.99999,10.704 23.99999,24 v 208.00001 c 0,13.296 -10.70399,24 -23.99999,24 h -400 c -13.296,0 -24,-10.704 -24,-24 z"
     id="path4427"
     inkscape:connector-curvature="0"
     sodipodi:nodetypes="scsccssssss" /><path
     inkscape:connector-curvature="0"
     id="path4429"
     d="m -520.00001,-125.49998 c -24,0 -24,23.7792 -24,24 v 1.999999 c 0,-0.2208 0,-23.999999 24,-23.999999 h 176 l 48,47.999999 h 176 c 13.296,0 23.999996,10.704 23.999996,24 v -2 c 0,-13.296 -10.703996,-24 -23.999996,-24 h -176 l -48,-47.999999 z"
     style="display:inline;opacity:0.2;fill:#ffffff;fill-opacity:1;stroke:none;enable-background:new" /><path
     clip-path="url(#clipPath7328)"
     style="display:inline;opacity:0.3;fill:#000000;fill-opacity:1;stroke:none;filter:url(#filter4881);enable-background:new"
     d="m 688,196 v -304 c 0,0.2208 0,-24 -24,-24 H 488 l -48,48 H 264 c -13.296,0 -24,10.704 -24,24 v 256 c 0,13.296 10.704,24 24,24 h 400 c 13.296,0 24,-10.704 24,-24 z"
     id="path4431"
     inkscape:connector-curvature="0"
     sodipodi:nodetypes="scsccssssss"
     transform="translate(-800.97057,485.59251)" /><path
     sodipodi:nodetypes="scsccssssss"
     inkscape:connector-curvature="0"
     id="path4433"
     d="M 387.96673,892.31032 V 588.31033 c 0,0.2208 0,-24 23.99999,-24 h 176 l 48,48 h 176 c 13.296,0 24,10.704 24,24 v 255.99999 c 0,13.296 -10.704,24 -24,24 h -400 c -13.296,0 -23.99999,-10.704 -23.99999,-24 z"
     style="display:inline;fill:#ffd42a;fill-opacity:1;stroke:none;enable-background:new" /><path
     inkscape:connector-curvature="0"
     id="path4435"
     d="m -339.50001,138.50002 -48,48 h -176 c -13.296,0 -24,10.704 -24,24 v 2 c 0,-13.296 10.704,-24 24,-24 h 176 l 48,-48 h 176 c 24,0 24,24.2208 24,24 v -2 c 0,0.2208 0,-24 -24,-24 z"
     style="display:inline;opacity:0.2;fill:#ffffff;fill-opacity:1;stroke:none;enable-background:new" /><path
     inkscape:connector-curvature="0"
     d="m 101,-225.50001 v 12 78.25001 c -3.797645,-1.36224 -7.733645,-2.25 -12.000005,-2.25 -19.8822,0 -36.000009,16.1178 -36.000009,36 0,19.882207 16.117809,36.000007 36.000009,36.000007 C 108.8822,-65.499993 125,-81.617793 125,-101.5 v -76 h 72 v 42.25 c -3.79764,-1.36224 -7.73364,-2.25 -12,-2.25 -19.88221,0 -36.00001,16.1178 -36.00001,36 0,19.882207 16.1178,36.000007 36.00001,36.000007 19.8822,0 36,-16.1178 36,-36.000007 v -124.00001 h -12 z"
     id="path4384"
     sodipodi:nodetypes="cccsssscccsssscsc"
     style="display:inline;opacity:0.2;fill:#000000;fill-opacity:1;stroke:none;filter:url(#filter4880);enable-background:new" /><path
     style="display:inline;fill:#ffffff;fill-opacity:1;stroke:none;enable-background:new"
     sodipodi:nodetypes="cccsssscccsssscsc"
     id="path4586"
     d="m -61.5,-236.00001 v 12 78.25001 c -3.797645,-1.36224 -7.733645,-2.25 -12.000005,-2.25 -19.8822,0 -36.000005,16.1178 -36.000005,36 0,19.882207 16.117805,36.000007 36.000005,36.000007 C -53.6178,-75.999993 -37.5,-92.117793 -37.5,-112 v -76 h 72 v 42.25 c -3.79764,-1.36224 -7.73364,-2.25 -12,-2.25 -19.88221,0 -36.00001,16.1178 -36.00001,36 0,19.882207 16.1178,36.000007 36.00001,36.000007 19.8822,0 36,-16.1178 36,-36.000007 v -124.00001 h -12 z"
     inkscape:connector-curvature="0" /><g
     id="g1266"
     transform="translate(-13.499224,-4.8281992)"><path
       id="rect1133"
       d="m 32.003904,234.00001 c -0.833367,0 -1.503906,0.67054 -1.503906,1.50391 v 12.99218 c 0,0.83337 0.670539,1.50391 1.503906,1.50391 H 42.99609 c 0.83337,0 1.50391,-0.67054 1.50391,-1.50391 v -12.99218 c 0,-0.83337 -0.67054,-1.50391 -1.50391,-1.50391 z m 0.996094,2.01758 H 42 c 0.277,0 0.5,0.223 0.5,0.5 0,0.277 -0.223,0.5 -0.5,0.5 h -9.000002 c -0.277,0 -0.5,-0.223 -0.5,-0.5 0,-0.277 0.223,-0.5 0.5,-0.5 z m 0,2 H 42 c 0.277,0 0.5,0.223 0.5,0.5 0,0.277 -0.223,0.5 -0.5,0.5 h -9.000002 c -0.277,0 -0.5,-0.223 -0.5,-0.5 0,-0.277 0.223,-0.5 0.5,-0.5 z m 0,2 H 42 c 0.277,0 0.5,0.223 0.5,0.5 0,0.277 -0.223,0.5 -0.5,0.5 h -9.000002 c -0.277,0 -0.5,-0.223 -0.5,-0.5 0,-0.277 0.223,-0.5 0.5,-0.5 z m 0,2 h 4 c 0.277,0 0.5,0.223 0.5,0.5 0,0.277 -0.223,0.5 -0.5,0.5 h -4 c -0.277,0 -0.5,-0.223 -0.5,-0.5 0,-0.277 0.223,-0.5 0.5,-0.5 z"
       style="opacity:0.2;fill:#000000;fill-opacity:1;stroke:none;stroke-width:0.09759127;stroke-linecap:butt;stroke-linejoin:bevel;stroke-miterlimit:4;stroke-dasharray:none;stroke-opacity:1;paint-order:fill markers stroke;filter:url(#filter1211)"
       inkscape:connector-curvature="0" /><path
       inkscape:connector-curvature="0"
       style="opacity:1;fill:#ffffff;fill-opacity:1;stroke:none;stroke-width:0.09149182;stroke-linecap:butt;stroke-linejoin:bevel;stroke-miterlimit:4;stroke-dasharray:none;stroke-opacity:1;paint-order:fill markers stroke"
       d="m 32.34741,234.50001 c -0.781282,0 -1.409912,0.62863 -1.409912,1.40992 v 12.18016 c 0,0.78129 0.62863,1.40992 1.409912,1.40992 h 10.305174 c 0.781285,0 1.409916,-0.62863 1.409916,-1.40992 v -12.18016 c 0,-0.78129 -0.628631,-1.40992 -1.409916,-1.40992 z m 0.933838,1.89148 h 8.437502 c 0.259687,0 0.46875,0.20906 0.46875,0.46875 0,0.25969 -0.209063,0.46875 -0.46875,0.46875 h -8.437502 c -0.259687,0 -0.46875,-0.20906 -0.46875,-0.46875 0,-0.25969 0.209063,-0.46875 0.46875,-0.46875 z m 0,1.875 h 8.437502 c 0.259687,0 0.46875,0.20906 0.46875,0.46875 0,0.25969 -0.209063,0.46875 -0.46875,0.46875 h -8.437502 c -0.259687,0 -0.46875,-0.20906 -0.46875,-0.46875 0,-0.25969 0.209063,-0.46875 0.46875,-0.46875 z m 0,1.875 h 8.437502 c 0.259687,0 0.46875,0.20906 0.46875,0.46875 0,0.25969 -0.209063,0.46875 -0.46875,0.46875 h -8.437502 c -0.259687,0 -0.46875,-0.20906 -0.46875,-0.46875 0,-0.25969 0.209063,-0.46875 0.46875,-0.46875 z m 0,1.875 h 3.75 c 0.259688,0 0.46875,0.20906 0.46875,0.46875 0,0.25969 -0.209062,0.46875 -0.46875,0.46875 h -3.75 c -0.259687,0 -0.46875,-0.20906 -0.46875,-0.46875 0,-0.25969 0.209063,-0.46875 0.46875,-0.46875 z"
       id="path1205" /></g><path
     style="fill:#ff00ff;fill-opacity:1;stroke:none;stroke-width:0.42764935;stroke-miterlimit:4;stroke-dasharray:none;stroke-opacity:1"
     d="m 30.074471,296.85498 h -11.47917 l -3.75,-3.75 h -22.72917 c -1.95054,0 -3.52083,1.5703 -3.52083,3.52083 v 25.45834 c 0,1.95054 1.57029,3.52083 3.52083,3.52083 h 37.95834 c 1.95054,0 3.52083,-1.57029 3.52083,-3.52083 v -21.70842 c 0,-1.95053 -1.57029,-3.52075 -3.52083,-3.52075 z"
     id="path1219"
     inkscape:connector-curvature="0"
     sodipodi:nodetypes="sccssssssss" /><path
     sodipodi:nodetypes="sccssssssss"
     inkscape:connector-curvature="0"
     id="path1217"
     d="m -7.8838688,300.85498 h 11.47917 l 3.75,-3.75 H 30.074471 c 1.95054,0 3.52083,1.5703 3.52083,3.52083 v 25.45834 c 0,1.95054 -1.57029,3.52083 -3.52083,3.52083 H -7.8838688 c -1.95054,0 -3.5208302,-1.57029 -3.5208302,-3.52083 v -21.70842 c 0,-1.95053 1.5702902,-3.52075 3.5208302,-3.52075 z"
     style="fill:#0068bf;fill-opacity:1;stroke:none;stroke-width:0.42764935;stroke-miterlimit:4;stroke-dasharray:none;stroke-opacity:1" /></g><g
   inkscape:groupmode="layer"
   id="layer6"
   inkscape:label="Shadow"
   style="display:none"
   sodipodi:insensitive="true"
   transform="translate(0,-208)"><g
     id="g2548"
     style="display:inline"
     transform="translate(-2.960187,1.58543)"><path
       d="m 256.36019,128.41457 c 0,-33.900005 -13.5,-64.500005 -35.4,-86.900002 -0.4,-0.3 -0.7,-0.7 -1.1,-1 21.3,22.299997 34.5,52.599997 34.5,86.000002 0,68.5 -55.2,124 -123.4,124 -32.900003,0 -62.900003,-13 -85.000003,-34.1 0.3,0.3 0.6,0.6 0.9,0.9 22.2,21.7 52.6,35.1 86.000003,35.1 68.2,0 123.5,-55.5 123.5,-124 z"
       id="path238"
       inkscape:connector-curvature="0"
       style="display:inline;opacity:0.1" /><path
       d="m 219.86019,40.414568 c -0.7,-0.6 -1.4,-1.3 -2,-1.9 -0.7,-0.6 -1.4,-1.2 -2.1,-1.9 19.1,21.799997 30.7,50.499997 30.7,81.800002 0,68.5 -55.2,124 -123.4,124 -30.900003,0 -59.200003,-11.4 -80.900003,-30.3 0.6,0.7 1.2,1.4 1.9,2.1 0.6,0.7 1.3,1.4 1.9,2 22.1,21.1 52.1,34.1 85.000003,34.1 68.2,0 123.4,-55.5 123.4,-124 0,-33.300005 -13.1,-63.600005 -34.5,-85.900002 z"
       id="path240"
       inkscape:connector-curvature="0"
       style="display:inline;opacity:0.2" /><path
       d="m 220.96019,41.514568 c 21.9,22.399997 35.4,53.099997 35.4,86.900002 0,68.5 -55.2,124 -123.4,124 -33.500003,0 -63.800003,-13.4 -86.000003,-35.1 22.4,22.9 53.600003,37.1 88.000003,37.1 68.2,0 123.4,-55.5 123.4,-124 -0.1,-34.900005 -14.4,-66.400005 -37.4,-88.900002 z"
       id="path236"
       inkscape:connector-curvature="0"
       style="display:inline;opacity:0.05" /></g></g></svg>