<?xml version="1.0" encoding="UTF-8" standalone="no"?>
<svg
   xmlns:dc="http://purl.org/dc/elements/1.1/"
   xmlns:cc="http://creativecommons.org/ns#"
   xmlns:rdf="http://www.w3.org/1999/02/22-rdf-syntax-ns#"
   xmlns:svg="http://www.w3.org/2000/svg"
   xmlns="http://www.w3.org/2000/svg"
   xmlns:sodipodi="http://sodipodi.sourceforge.net/DTD/sodipodi-0.dtd"
   xmlns:inkscape="http://www.inkscape.org/namespaces/inkscape"
   height="16"
   width="16"
   version="1.1"
   id="svg4"
   sodipodi:docname="zoom-in-symbolic.svg"
   inkscape:version="0.92.3 (2405546, 2018-03-11)">
  <metadata
     id="metadata10">
    <rdf:RDF>
      <cc:Work
         rdf:about="">
        <dc:format>image/svg+xml</dc:format>
        <dc:type
           rdf:resource="http://purl.org/dc/dcmitype/StillImage" />
        <dc:title />
      </cc:Work>
    </rdf:RDF>
  </metadata>
  <defs
     id="defs8" />
  <sodipodi:namedview
     pagecolor="#ffffff"
     bordercolor="#666666"
     borderopacity="1"
     objecttolerance="10"
     gridtolerance="10"
     guidetolerance="10"
     inkscape:pageopacity="0"
     inkscape:pageshadow="2"
     inkscape:window-width="960"
     inkscape:window-height="1019"
     id="namedview6"
     showgrid="false"
     inkscape:zoom="29.5"
     inkscape:cx="8.0590022"
     inkscape:cy="8.4781459"
     inkscape:window-x="0"
     inkscape:window-y="27"
     inkscape:window-maximized="0"
     inkscape:current-layer="svg4"
     inkscape:pagecheckerboard="true" />
  <text
     xml:space="preserve"
     style="font-style:normal;font-weight:normal;font-size:12.55230141px;line-height:1.25;font-family:sans-serif;letter-spacing:0px;word-spacing:0px;fill:#808080;fill-opacity:1;stroke:none;stroke-width:0.31380752"
     x="4.4344187"
     y="10.696181"
     id="text821-3"><tspan
       sodipodi:role="line"
       id="tspan819-6"
       x="4.4344187"
       y="10.696181"
       style="font-style:normal;font-variant:normal;font-weight:normal;font-stretch:normal;font-family:'Star Labs';-inkscape-font-specification:'Star Labs';fill:#808080;fill-opacity:1;stroke-width:0.31380752">-</tspan></text>
  <path
     style="display:inline;opacity:0.2;fill:#808080;fill-opacity:1;stroke:none;stroke-width:0.05943796;stroke-linecap:butt;stroke-linejoin:bevel;stroke-miterlimit:4;stroke-dasharray:none;stroke-opacity:1;paint-order:fill markers stroke"
     d="M 6.9376264,4.47583 A 2.4605922,2.4605922 0 0 0 4.478642,6.936767 2.4605922,2.4605922 0 0 0 6.9376264,9.3977047 2.4605922,2.4605922 0 0 0 9.3985639,6.936767 2.4605922,2.4605922 0 0 0 6.9376264,4.47583 Z"
     id="path1099-3-6-3"
     inkscape:connector-curvature="0" />
  <path
     inkscape:connector-curvature="0"
     style="opacity:1;fill:#808080;fill-opacity:1;stroke:none;stroke-width:1.24997354;stroke-linecap:butt;stroke-linejoin:bevel;stroke-miterlimit:4;stroke-dasharray:none;stroke-opacity:1;paint-order:fill markers stroke"
     d="M 6.9379085,3 A 3.9369475,3.9369475 0 0 0 3.0009611,6.936947 3.9369475,3.9369475 0 0 0 6.9379085,10.873895 3.9369475,3.9369475 0 0 0 9.3485198,10.045367 L 10.032872,10.72972 9.8579393,10.90273 11.95521,13 12.999039,11.956171 10.901769,9.8589006 10.728758,10.033834 10.046328,9.3514035 A 3.9369475,3.9369475 0 0 0 10.874856,6.936947 3.9369475,3.9369475 0 0 0 6.9379085,3 Z m 0,1.476355 A 2.4605922,2.4605922 0 0 1 9.3985006,6.936947 2.4605922,2.4605922 0 0 1 6.9379085,9.3975396 2.4605922,2.4605922 0 0 1 4.4773163,6.936947 2.4605922,2.4605922 0 0 1 6.9379085,4.476355 Z"
     id="path824" />
  <text
     xml:space="preserve"
     style="font-style:normal;font-weight:normal;font-size:12.55230141px;line-height:1.25;font-family:sans-serif;letter-spacing:0px;word-spacing:0px;fill:#808080;fill-opacity:1;stroke:none;stroke-width:0.31380752"
     x="4.4325833"
     y="-3.1791887"
     id="text821-3-7"
     transform="rotate(90)"><tspan
       sodipodi:role="line"
       id="tspan819-6-5"
       x="4.4325833"
       y="-3.1791887"
       style="font-style:normal;font-variant:normal;font-weight:normal;font-stretch:normal;font-family:'Star Labs';-inkscape-font-specification:'Star Labs';fill:#808080;fill-opacity:1;stroke-width:0.31380752">-</tspan></text>
</svg>
