<?xml version="1.0" encoding="UTF-8" standalone="no"?>
<!-- Generator: Adobe Illustrator 21.0.2, SVG Export Plug-In . SVG Version: 6.00 Build 0)  -->

<svg
   xmlns:dc="http://purl.org/dc/elements/1.1/"
   xmlns:cc="http://creativecommons.org/ns#"
   xmlns:rdf="http://www.w3.org/1999/02/22-rdf-syntax-ns#"
   xmlns:svg="http://www.w3.org/2000/svg"
   xmlns="http://www.w3.org/2000/svg"
   xmlns:xlink="http://www.w3.org/1999/xlink"
   xmlns:sodipodi="http://sodipodi.sourceforge.net/DTD/sodipodi-0.dtd"
   xmlns:inkscape="http://www.inkscape.org/namespaces/inkscape"
   version="1.1"
   id="Layer_1"
   x="0px"
   y="0px"
   viewBox="0 0 256 256"
   enable-background="new 0 0 256 256"
   xml:space="preserve"
   sodipodi:docname="amazon-store.svg"
   inkscape:version="0.92.4 (5da689c313, 2019-01-14)"
   inkscape:label="Shadow"><metadata
   id="metadata253"><rdf:RDF><cc:Work
       rdf:about=""><dc:format>image/svg+xml</dc:format><dc:type
         rdf:resource="http://purl.org/dc/dcmitype/StillImage" /><dc:title /></cc:Work></rdf:RDF></metadata><defs
   id="defs251">
	
	
<clipPath
   id="b"><use
     width="100%"
     overflow="visible"
     xlink:href="#a"
     height="100%"
     id="use5" /></clipPath><linearGradient
   x1="29.337"
   x2="81.836998"
   y1="75.021004"
   gradientUnits="userSpaceOnUse"
   y2="44.354"
   id="c"><stop
     id="stop10"
     offset="0"
     stop-opacity=".6"
     stop-color="#A52714" /><stop
     id="stop12"
     offset=".66"
     stop-opacity="0"
     stop-color="#A52714" /></linearGradient><clipPath
   id="clipPath1232"><use
     width="100%"
     overflow="visible"
     xlink:href="#a"
     height="100%"
     id="use1230" /></clipPath><clipPath
   id="clipPath1236"><use
     width="100%"
     overflow="visible"
     xlink:href="#a"
     height="100%"
     id="use1234" /></clipPath><linearGradient
   x1="110.87"
   x2="52.537998"
   y1="164.5"
   gradientUnits="userSpaceOnUse"
   y2="130.33"
   id="d"><stop
     id="stop23"
     offset="0"
     stop-opacity=".4"
     stop-color="#055524" /><stop
     id="stop25"
     offset=".33"
     stop-opacity="0"
     stop-color="#055524" /></linearGradient><clipPath
   id="clipPath1244"><use
     width="100%"
     overflow="visible"
     xlink:href="#a"
     height="100%"
     id="use1242" /></clipPath><clipPath
   id="clipPath1248"><use
     width="100%"
     overflow="visible"
     xlink:href="#a"
     height="100%"
     id="use1246" /></clipPath><clipPath
   id="f"><use
     y="0"
     x="0"
     style="overflow:visible"
     id="use37"
     height="100%"
     xlink:href="#e"
     overflow="visible"
     width="100%" /></clipPath><linearGradient
   x1="121.86"
   x2="136.55"
   y1="49.804001"
   gradientUnits="userSpaceOnUse"
   y2="114.13"
   id="g"><stop
     id="stop42"
     offset="0"
     stop-opacity=".3"
     stop-color="#EA6100" /><stop
     id="stop44"
     offset=".66"
     stop-opacity="0"
     stop-color="#EA6100" /></linearGradient><clipPath
   id="clipPath1258"><use
     width="100%"
     overflow="visible"
     xlink:href="#a"
     height="100%"
     id="use1256" /></clipPath><clipPath
   id="clipPath1269"><use
     width="100%"
     overflow="visible"
     xlink:href="#a"
     height="100%"
     id="use1267" /></clipPath><clipPath
   id="j"><use
     y="0"
     x="0"
     style="overflow:visible"
     id="use62"
     height="100%"
     xlink:href="#i"
     overflow="visible"
     width="100%" /></clipPath><radialGradient
   id="l"
   gradientUnits="userSpaceOnUse"
   cy="55.948"
   cx="668.18"
   gradientTransform="translate(-576)"
   r="84.078"><stop
     stop-color="#3E2723"
     stop-opacity=".2"
     offset="0"
     id="stop73" /><stop
     stop-color="#3E2723"
     stop-opacity="0"
     offset="1"
     id="stop75" /></radialGradient><clipPath
   id="clipPath1285"><use
     width="100%"
     overflow="visible"
     xlink:href="#a"
     height="100%"
     id="use1283" /></clipPath><clipPath
   id="clipPath1289"><use
     width="100%"
     overflow="visible"
     xlink:href="#a"
     height="100%"
     id="use1287" /></clipPath><clipPath
   id="n"><use
     y="0"
     x="0"
     style="overflow:visible"
     id="use83"
     height="100%"
     xlink:href="#m"
     overflow="visible"
     width="100%" /></clipPath><radialGradient
   id="p"
   gradientUnits="userSpaceOnUse"
   cy="48.52"
   cx="597.88"
   gradientTransform="translate(-576)"
   r="78.044"><stop
     stop-color="#3E2723"
     stop-opacity=".2"
     offset="0"
     id="stop94" /><stop
     stop-color="#3E2723"
     stop-opacity="0"
     offset="1"
     id="stop96" /></radialGradient><clipPath
   id="clipPath1305"><use
     width="100%"
     overflow="visible"
     xlink:href="#a"
     height="100%"
     id="use1303" /></clipPath><radialGradient
   id="q"
   gradientUnits="userSpaceOnUse"
   cy="96.138"
   cx="671.84"
   gradientTransform="translate(-576)"
   r="87.87"><stop
     stop-color="#263238"
     stop-opacity=".2"
     offset="0"
     id="stop101" /><stop
     stop-color="#263238"
     stop-opacity="0"
     offset="1"
     id="stop103" /></radialGradient><clipPath
   id="clipPath1312"><use
     width="100%"
     overflow="visible"
     xlink:href="#a"
     height="100%"
     id="use1310" /></clipPath><clipPath
   id="clipPath1316"><use
     width="100%"
     overflow="visible"
     xlink:href="#a"
     height="100%"
     id="use1314" /></clipPath><clipPath
   id="clipPath1320"><use
     width="100%"
     overflow="visible"
     xlink:href="#a"
     height="100%"
     id="use1318" /></clipPath><clipPath
   id="clipPath1324"><use
     width="100%"
     overflow="visible"
     xlink:href="#a"
     height="100%"
     id="use1322" /></clipPath><path
   inkscape:connector-curvature="0"
   d="m 8,184 h 83.77 l 38.88,-38.88 V 116 H 61.36 L 8,24.48 Z"
   id="e" /><path
   inkscape:connector-curvature="0"
   d="m 96,56 34.65,60 -38.88,68 H 184 V 56 Z"
   id="i" /><path
   inkscape:connector-curvature="0"
   d="M 21.97,8 V 48.34 L 61.36,116 96,56 h 88 V 8 Z"
   id="m" /><clipPath
   id="b-1"><use
     width="100%"
     overflow="visible"
     xlink:href="#a"
     height="100%"
     id="use5-7" /></clipPath><clipPath
   id="clipPath1232-2"><use
     width="100%"
     overflow="visible"
     xlink:href="#a"
     height="100%"
     id="use1230-2" /></clipPath><clipPath
   id="clipPath1236-6"><use
     width="100%"
     overflow="visible"
     xlink:href="#a"
     height="100%"
     id="use1234-1" /></clipPath><clipPath
   id="clipPath1244-1"><use
     width="100%"
     overflow="visible"
     xlink:href="#a"
     height="100%"
     id="use1242-5" /></clipPath><clipPath
   id="clipPath1248-9"><use
     width="100%"
     overflow="visible"
     xlink:href="#a"
     height="100%"
     id="use1246-4" /></clipPath><clipPath
   id="f-9"><use
     y="0"
     x="0"
     style="overflow:visible"
     id="use37-0"
     height="100%"
     xlink:href="#e-8"
     overflow="visible"
     width="100%" /></clipPath><clipPath
   id="clipPath1258-7"><use
     width="100%"
     overflow="visible"
     xlink:href="#a"
     height="100%"
     id="use1256-7" /></clipPath><clipPath
   id="clipPath1269-1"><use
     width="100%"
     overflow="visible"
     xlink:href="#a"
     height="100%"
     id="use1267-1" /></clipPath><clipPath
   id="j-5"><use
     y="0"
     x="0"
     style="overflow:visible"
     id="use62-9"
     height="100%"
     xlink:href="#i-5"
     overflow="visible"
     width="100%" /></clipPath><radialGradient
   id="l-7"
   gradientUnits="userSpaceOnUse"
   cy="55.948"
   cx="668.18"
   gradientTransform="translate(-576)"
   r="84.078"><stop
     stop-color="#3E2723"
     stop-opacity=".2"
     offset="0"
     id="stop73-7" /><stop
     stop-color="#3E2723"
     stop-opacity="0"
     offset="1"
     id="stop75-6" /></radialGradient><clipPath
   id="clipPath1285-7"><use
     width="100%"
     overflow="visible"
     xlink:href="#a"
     height="100%"
     id="use1283-3" /></clipPath><clipPath
   id="clipPath1289-6"><use
     width="100%"
     overflow="visible"
     xlink:href="#a"
     height="100%"
     id="use1287-5" /></clipPath><clipPath
   id="n-6"><use
     y="0"
     x="0"
     style="overflow:visible"
     id="use83-3"
     height="100%"
     xlink:href="#m-6"
     overflow="visible"
     width="100%" /></clipPath><radialGradient
   id="p-9"
   gradientUnits="userSpaceOnUse"
   cy="48.52"
   cx="597.88"
   gradientTransform="translate(-576)"
   r="78.044"><stop
     stop-color="#3E2723"
     stop-opacity=".2"
     offset="0"
     id="stop94-4" /><stop
     stop-color="#3E2723"
     stop-opacity="0"
     offset="1"
     id="stop96-8" /></radialGradient><clipPath
   id="clipPath1305-1"><use
     width="100%"
     overflow="visible"
     xlink:href="#a"
     height="100%"
     id="use1303-2" /></clipPath><radialGradient
   id="q-9"
   gradientUnits="userSpaceOnUse"
   cy="96.138"
   cx="671.84"
   gradientTransform="translate(-576)"
   r="87.87"><stop
     stop-color="#263238"
     stop-opacity=".2"
     offset="0"
     id="stop101-3" /><stop
     stop-color="#263238"
     stop-opacity="0"
     offset="1"
     id="stop103-9" /></radialGradient><clipPath
   id="clipPath1312-0"><use
     width="100%"
     overflow="visible"
     xlink:href="#a"
     height="100%"
     id="use1310-8" /></clipPath><clipPath
   id="clipPath1316-8"><use
     width="100%"
     overflow="visible"
     xlink:href="#a"
     height="100%"
     id="use1314-5" /></clipPath><clipPath
   id="clipPath1320-0"><use
     width="100%"
     overflow="visible"
     xlink:href="#a"
     height="100%"
     id="use1318-9" /></clipPath><clipPath
   id="clipPath1324-6"><use
     width="100%"
     overflow="visible"
     xlink:href="#a"
     height="100%"
     id="use1322-3" /></clipPath><path
   inkscape:connector-curvature="0"
   d="m 8,184 h 83.77 l 38.88,-38.88 V 116 H 61.36 L 8,24.48 Z"
   id="e-8" /><path
   inkscape:connector-curvature="0"
   d="m 96,56 34.65,60 -38.88,68 H 184 V 56 Z"
   id="i-5" /><path
   inkscape:connector-curvature="0"
   d="M 21.97,8 V 48.34 L 61.36,116 96,56 h 88 V 8 Z"
   id="m-6" /><radialGradient
   id="r"
   gradientUnits="userSpaceOnUse"
   cy="32.014"
   cx="34.285999"
   gradientTransform="translate(-23.079613,-106.2699)"
   r="176.75"><stop
     stop-color="#fff"
     stop-opacity=".1"
     offset="0"
     id="stop130" /><stop
     stop-color="#fff"
     stop-opacity="0"
     offset="1"
     id="stop132" /></radialGradient><clipPath
   id="b-0"><use
     y="0"
     x="0"
     style="overflow:visible"
     width="100%"
     overflow="visible"
     xlink:href="#a"
     height="100%"
     id="use5-5" /></clipPath><clipPath
   id="clipPath963"><use
     y="0"
     x="0"
     style="overflow:visible"
     width="100%"
     overflow="visible"
     xlink:href="#a"
     height="100%"
     id="use961" /></clipPath><clipPath
   id="clipPath967"><use
     y="0"
     x="0"
     style="overflow:visible"
     width="100%"
     overflow="visible"
     xlink:href="#a"
     height="100%"
     id="use965" /></clipPath><radialGradient
   id="q-94"
   gradientUnits="userSpaceOnUse"
   cy="96.138"
   cx="671.84003"
   gradientTransform="translate(-576)"
   r="87.870003"><stop
     stop-color="#263238"
     stop-opacity=".2"
     offset="0"
     id="stop101-6" /><stop
     stop-color="#263238"
     stop-opacity="0"
     offset="1"
     id="stop103-92" /></radialGradient><clipPath
   id="clipPath974"><use
     y="0"
     x="0"
     style="overflow:visible"
     width="100%"
     overflow="visible"
     xlink:href="#a"
     height="100%"
     id="use972" /></clipPath><radialGradient
   id="p-2"
   gradientUnits="userSpaceOnUse"
   cy="48.52"
   cx="597.88"
   gradientTransform="translate(-576)"
   r="78.043999"><stop
     stop-color="#3E2723"
     stop-opacity=".2"
     offset="0"
     id="stop94-47" /><stop
     stop-color="#3E2723"
     stop-opacity="0"
     offset="1"
     id="stop96-7" /></radialGradient><clipPath
   id="clipPath981"><use
     y="0"
     x="0"
     style="overflow:visible"
     width="100%"
     overflow="visible"
     xlink:href="#a"
     height="100%"
     id="use979" /></clipPath><clipPath
   id="clipPath985"><use
     y="0"
     x="0"
     style="overflow:visible"
     width="100%"
     overflow="visible"
     xlink:href="#a"
     height="100%"
     id="use983" /></clipPath><clipPath
   id="n-5"><use
     width="100%"
     overflow="visible"
     xlink:href="#m-0"
     height="100%"
     id="use83-4"
     style="overflow:visible"
     x="0"
     y="0" /></clipPath><radialGradient
   id="l-2"
   gradientUnits="userSpaceOnUse"
   cy="55.948002"
   cx="668.17999"
   gradientTransform="translate(-576)"
   r="84.078003"><stop
     stop-color="#3E2723"
     stop-opacity=".2"
     offset="0"
     id="stop73-8" /><stop
     stop-color="#3E2723"
     stop-opacity="0"
     offset="1"
     id="stop75-9" /></radialGradient><clipPath
   id="clipPath997"><use
     y="0"
     x="0"
     style="overflow:visible"
     width="100%"
     overflow="visible"
     xlink:href="#a"
     height="100%"
     id="use995" /></clipPath><clipPath
   id="clipPath1001"><use
     y="0"
     x="0"
     style="overflow:visible"
     width="100%"
     overflow="visible"
     xlink:href="#a"
     height="100%"
     id="use999" /></clipPath><clipPath
   id="j-3"><use
     width="100%"
     overflow="visible"
     xlink:href="#i-1"
     height="100%"
     id="use62-6"
     style="overflow:visible"
     x="0"
     y="0" /></clipPath><clipPath
   id="clipPath1010"><use
     y="0"
     x="0"
     style="overflow:visible"
     width="100%"
     overflow="visible"
     xlink:href="#a"
     height="100%"
     id="use1008" /></clipPath><clipPath
   id="clipPath1017"><use
     y="0"
     x="0"
     style="overflow:visible"
     width="100%"
     overflow="visible"
     xlink:href="#a"
     height="100%"
     id="use1015" /></clipPath><clipPath
   id="f-0"><use
     width="100%"
     overflow="visible"
     xlink:href="#e-1"
     height="100%"
     id="use37-5"
     style="overflow:visible"
     x="0"
     y="0" /></clipPath><clipPath
   id="clipPath1029"><use
     y="0"
     x="0"
     style="overflow:visible"
     width="100%"
     overflow="visible"
     xlink:href="#a"
     height="100%"
     id="use1027" /></clipPath><clipPath
   id="clipPath1033"><use
     y="0"
     x="0"
     style="overflow:visible"
     width="100%"
     overflow="visible"
     xlink:href="#a"
     height="100%"
     id="use1031" /></clipPath><clipPath
   id="clipPath1043"><use
     y="0"
     x="0"
     style="overflow:visible"
     width="100%"
     overflow="visible"
     xlink:href="#a"
     height="100%"
     id="use1041" /></clipPath><clipPath
   id="clipPath1047"><use
     y="0"
     x="0"
     style="overflow:visible"
     width="100%"
     overflow="visible"
     xlink:href="#a"
     height="100%"
     id="use1045" /></clipPath><path
   id="e-1"
   d="m 8,184 h 83.77 l 38.88,-38.88 V 116 H 61.36 L 8,24.48 Z"
   inkscape:connector-curvature="0" /><path
   id="i-1"
   d="m 96,56 34.65,60 -38.88,68 H 184 V 56 Z"
   inkscape:connector-curvature="0" /><path
   id="m-0"
   d="M 21.97,8 V 48.34 L 61.36,116 96,56 h 88 V 8 Z"
   inkscape:connector-curvature="0" /><circle
   r="88"
   cx="96"
   cy="96"
   id="a" /><path
   d="m8 184h83.77l38.88-38.88v-29.12h-69.29l-53.36-91.52z"
   id="e-6" /><path
   d="m96 56l34.65 60-38.88 68h92.23v-128z"
   id="i-2" /><path
   d="m21.97 8v40.34l39.39 67.66 34.64-60h88v-48z"
   id="m-8" /><defs
   id="defs1820"><path
     d="M 21.97,8 V 48.34 L 61.36,116 96,56 h 88 V 8 Z"
     id="path1928"
     inkscape:connector-curvature="0" /></defs><clipPath
   id="n-7"><use
     id="use1822"
     height="100%"
     xlink:href="#m-8"
     overflow="visible"
     width="100%"
     style="overflow:visible"
     x="0"
     y="0" /></clipPath><defs
   id="defs1799"><path
     d="m 96,56 34.65,60 -38.88,68 H 184 V 56 Z"
     id="path1918"
     inkscape:connector-curvature="0" /></defs><clipPath
   id="j-6"><use
     id="use1801"
     height="100%"
     xlink:href="#i-2"
     overflow="visible"
     width="100%"
     style="overflow:visible"
     x="0"
     y="0" /></clipPath><defs
   id="defs1774"><path
     d="m 8,184 h 83.77 l 38.88,-38.88 V 116 H 61.36 L 8,24.48 Z"
     id="path1902"
     inkscape:connector-curvature="0" /></defs><clipPath
   id="f-06"><use
     id="use1776"
     height="100%"
     xlink:href="#e-6"
     overflow="visible"
     width="100%"
     style="overflow:visible"
     x="0"
     y="0" /></clipPath><linearGradient
   x1="110.87"
   x2="52.537998"
   y1="164.5"
   gradientUnits="userSpaceOnUse"
   y2="130.33"
   id="linearGradient1897"><stop
     id="stop1762"
     offset="0"
     stop-opacity=".4"
     stop-color="#055524" /><stop
     id="stop1764"
     offset=".33"
     stop-opacity="0"
     stop-color="#055524" /></linearGradient><linearGradient
   x1="29.337"
   x2="81.836998"
   y1="75.021004"
   gradientUnits="userSpaceOnUse"
   y2="44.354"
   id="linearGradient1889"><stop
     id="stop1749"
     offset="0"
     stop-opacity=".6"
     stop-color="#A52714" /><stop
     id="stop1751"
     offset=".66"
     stop-opacity="0"
     stop-color="#A52714" /></linearGradient><linearGradient
   id="linearGradient1910"
   y2="114.13"
   gradientUnits="userSpaceOnUse"
   y1="49.804001"
   x2="136.55"
   x1="121.86"><stop
     stop-color="#EA6100"
     stop-opacity=".3"
     offset="0"
     id="stop1781" /><stop
     stop-color="#EA6100"
     stop-opacity="0"
     offset=".66"
     id="stop1783" /></linearGradient><clipPath
   id="b-3"><use
     y="0"
     x="0"
     style="overflow:visible"
     width="100%"
     overflow="visible"
     xlink:href="#a"
     height="100%"
     id="use5-1" /></clipPath><clipPath
   id="clipPath1024"><use
     y="0"
     x="0"
     style="overflow:visible"
     width="100%"
     overflow="visible"
     xlink:href="#a"
     height="100%"
     id="use1022" /></clipPath><clipPath
   id="clipPath1028"><use
     y="0"
     x="0"
     style="overflow:visible"
     width="100%"
     overflow="visible"
     xlink:href="#a"
     height="100%"
     id="use1026" /></clipPath><clipPath
   id="clipPath1035"><use
     y="0"
     x="0"
     style="overflow:visible"
     width="100%"
     overflow="visible"
     xlink:href="#a"
     height="100%"
     id="use1033" /></clipPath><clipPath
   id="clipPath1039"><use
     y="0"
     x="0"
     style="overflow:visible"
     width="100%"
     overflow="visible"
     xlink:href="#a"
     height="100%"
     id="use1037" /></clipPath><clipPath
   id="f-6"><use
     y="0"
     x="0"
     style="overflow:visible"
     id="use37-8"
     height="100%"
     xlink:href="#e-61"
     overflow="visible"
     width="100%" /></clipPath><clipPath
   id="clipPath1048"><use
     y="0"
     x="0"
     style="overflow:visible"
     width="100%"
     overflow="visible"
     xlink:href="#a"
     height="100%"
     id="use1046" /></clipPath><clipPath
   id="clipPath1058"><use
     y="0"
     x="0"
     style="overflow:visible"
     width="100%"
     overflow="visible"
     xlink:href="#a"
     height="100%"
     id="use1056" /></clipPath><clipPath
   id="j-66"><use
     y="0"
     x="0"
     style="overflow:visible"
     id="use62-4"
     height="100%"
     xlink:href="#i-59"
     overflow="visible"
     width="100%" /></clipPath><radialGradient
   id="l-9"
   gradientUnits="userSpaceOnUse"
   cy="55.948002"
   cx="668.17999"
   gradientTransform="translate(-576)"
   r="84.078003"><stop
     stop-color="#3E2723"
     stop-opacity=".2"
     offset="0"
     id="stop73-5" /><stop
     stop-color="#3E2723"
     stop-opacity="0"
     offset="1"
     id="stop75-0" /></radialGradient><clipPath
   id="clipPath1073"><use
     y="0"
     x="0"
     style="overflow:visible"
     width="100%"
     overflow="visible"
     xlink:href="#a"
     height="100%"
     id="use1071" /></clipPath><clipPath
   id="clipPath1077"><use
     y="0"
     x="0"
     style="overflow:visible"
     width="100%"
     overflow="visible"
     xlink:href="#a"
     height="100%"
     id="use1075" /></clipPath><clipPath
   id="n-4"><use
     y="0"
     x="0"
     style="overflow:visible"
     id="use83-8"
     height="100%"
     xlink:href="#m-4"
     overflow="visible"
     width="100%" /></clipPath><radialGradient
   id="p-7"
   gradientUnits="userSpaceOnUse"
   cy="48.52"
   cx="597.88"
   gradientTransform="translate(-576)"
   r="78.043999"><stop
     stop-color="#3E2723"
     stop-opacity=".2"
     offset="0"
     id="stop94-1" /><stop
     stop-color="#3E2723"
     stop-opacity="0"
     offset="1"
     id="stop96-72" /></radialGradient><clipPath
   id="clipPath1092"><use
     y="0"
     x="0"
     style="overflow:visible"
     width="100%"
     overflow="visible"
     xlink:href="#a"
     height="100%"
     id="use1090" /></clipPath><radialGradient
   id="q-7"
   gradientUnits="userSpaceOnUse"
   cy="96.138"
   cx="671.84003"
   gradientTransform="translate(-576)"
   r="87.870003"><stop
     stop-color="#263238"
     stop-opacity=".2"
     offset="0"
     id="stop101-2" /><stop
     stop-color="#263238"
     stop-opacity="0"
     offset="1"
     id="stop103-2" /></radialGradient><clipPath
   id="clipPath1099"><use
     y="0"
     x="0"
     style="overflow:visible"
     width="100%"
     overflow="visible"
     xlink:href="#a"
     height="100%"
     id="use1097" /></clipPath><clipPath
   id="clipPath1103"><use
     y="0"
     x="0"
     style="overflow:visible"
     width="100%"
     overflow="visible"
     xlink:href="#a"
     height="100%"
     id="use1101" /></clipPath><clipPath
   id="clipPath1107"><use
     y="0"
     x="0"
     style="overflow:visible"
     width="100%"
     overflow="visible"
     xlink:href="#a"
     height="100%"
     id="use1105" /></clipPath><clipPath
   id="clipPath1111"><use
     y="0"
     x="0"
     style="overflow:visible"
     width="100%"
     overflow="visible"
     xlink:href="#a"
     height="100%"
     id="use1109" /></clipPath><radialGradient
   id="r-6"
   gradientUnits="userSpaceOnUse"
   cy="32.014"
   cx="34.285999"
   gradientTransform="translate(-7,-7)"
   r="176.75"><stop
     stop-color="#fff"
     stop-opacity=".1"
     offset="0"
     id="stop130-1" /><stop
     stop-color="#fff"
     stop-opacity="0"
     offset="1"
     id="stop132-0" /></radialGradient><path
   inkscape:connector-curvature="0"
   d="m 8,184 h 83.77 l 38.88,-38.88 V 116 H 61.36 L 8,24.48 Z"
   id="e-61" /><path
   inkscape:connector-curvature="0"
   d="m 96,56 34.65,60 -38.88,68 H 184 V 56 Z"
   id="i-59" /><path
   inkscape:connector-curvature="0"
   d="M 21.97,8 V 48.34 L 61.36,116 96,56 h 88 V 8 Z"
   id="m-4" /><clipPath
   id="b-9"><use
     y="0"
     x="0"
     style="overflow:visible"
     width="100%"
     overflow="visible"
     xlink:href="#a"
     height="100%"
     id="use5-0" /></clipPath><clipPath
   id="clipPath1024-7"><use
     y="0"
     x="0"
     style="overflow:visible"
     width="100%"
     overflow="visible"
     xlink:href="#a"
     height="100%"
     id="use1022-7" /></clipPath><clipPath
   id="clipPath1028-1"><use
     y="0"
     x="0"
     style="overflow:visible"
     width="100%"
     overflow="visible"
     xlink:href="#a"
     height="100%"
     id="use1026-1" /></clipPath><clipPath
   id="clipPath1035-7"><use
     y="0"
     x="0"
     style="overflow:visible"
     width="100%"
     overflow="visible"
     xlink:href="#a"
     height="100%"
     id="use1033-7" /></clipPath><clipPath
   id="clipPath1039-6"><use
     y="0"
     x="0"
     style="overflow:visible"
     width="100%"
     overflow="visible"
     xlink:href="#a"
     height="100%"
     id="use1037-7" /></clipPath><clipPath
   id="f-3"><use
     y="0"
     x="0"
     style="overflow:visible"
     id="use37-6"
     height="100%"
     xlink:href="#e-9"
     overflow="visible"
     width="100%" /></clipPath><clipPath
   id="clipPath1048-3"><use
     y="0"
     x="0"
     style="overflow:visible"
     width="100%"
     overflow="visible"
     xlink:href="#a"
     height="100%"
     id="use1046-9" /></clipPath><clipPath
   id="clipPath1058-4"><use
     y="0"
     x="0"
     style="overflow:visible"
     width="100%"
     overflow="visible"
     xlink:href="#a"
     height="100%"
     id="use1056-8" /></clipPath><clipPath
   id="j-1"><use
     y="0"
     x="0"
     style="overflow:visible"
     id="use62-2"
     height="100%"
     xlink:href="#i-6"
     overflow="visible"
     width="100%" /></clipPath><radialGradient
   id="l-93"
   gradientUnits="userSpaceOnUse"
   cy="55.948002"
   cx="668.17999"
   gradientTransform="translate(-576)"
   r="84.078003"><stop
     stop-color="#3E2723"
     stop-opacity=".2"
     offset="0"
     id="stop73-9" /><stop
     stop-color="#3E2723"
     stop-opacity="0"
     offset="1"
     id="stop75-08" /></radialGradient><clipPath
   id="clipPath1073-8"><use
     y="0"
     x="0"
     style="overflow:visible"
     width="100%"
     overflow="visible"
     xlink:href="#a"
     height="100%"
     id="use1071-5" /></clipPath><clipPath
   id="clipPath1077-0"><use
     y="0"
     x="0"
     style="overflow:visible"
     width="100%"
     overflow="visible"
     xlink:href="#a"
     height="100%"
     id="use1075-9" /></clipPath><clipPath
   id="n-63"><use
     y="0"
     x="0"
     style="overflow:visible"
     id="use83-85"
     height="100%"
     xlink:href="#m-2"
     overflow="visible"
     width="100%" /></clipPath><radialGradient
   id="p-6"
   gradientUnits="userSpaceOnUse"
   cy="48.52"
   cx="597.88"
   gradientTransform="translate(-576)"
   r="78.043999"><stop
     stop-color="#3E2723"
     stop-opacity=".2"
     offset="0"
     id="stop94-11" /><stop
     stop-color="#3E2723"
     stop-opacity="0"
     offset="1"
     id="stop96-5" /></radialGradient><clipPath
   id="clipPath1092-9"><use
     y="0"
     x="0"
     style="overflow:visible"
     width="100%"
     overflow="visible"
     xlink:href="#a"
     height="100%"
     id="use1090-8" /></clipPath><radialGradient
   id="q-4"
   gradientUnits="userSpaceOnUse"
   cy="96.138"
   cx="671.84003"
   gradientTransform="translate(-576)"
   r="87.870003"><stop
     stop-color="#263238"
     stop-opacity=".2"
     offset="0"
     id="stop101-8" /><stop
     stop-color="#263238"
     stop-opacity="0"
     offset="1"
     id="stop103-1" /></radialGradient><clipPath
   id="clipPath1099-0"><use
     y="0"
     x="0"
     style="overflow:visible"
     width="100%"
     overflow="visible"
     xlink:href="#a"
     height="100%"
     id="use1097-3" /></clipPath><clipPath
   id="clipPath1103-0"><use
     y="0"
     x="0"
     style="overflow:visible"
     width="100%"
     overflow="visible"
     xlink:href="#a"
     height="100%"
     id="use1101-4" /></clipPath><clipPath
   id="clipPath1107-4"><use
     y="0"
     x="0"
     style="overflow:visible"
     width="100%"
     overflow="visible"
     xlink:href="#a"
     height="100%"
     id="use1105-4" /></clipPath><clipPath
   id="clipPath1111-4"><use
     y="0"
     x="0"
     style="overflow:visible"
     width="100%"
     overflow="visible"
     xlink:href="#a"
     height="100%"
     id="use1109-7" /></clipPath><radialGradient
   id="r-63"
   gradientUnits="userSpaceOnUse"
   cy="32.014"
   cx="34.285999"
   gradientTransform="translate(-7,-7)"
   r="176.75"><stop
     stop-color="#fff"
     stop-opacity=".1"
     offset="0"
     id="stop130-17" /><stop
     stop-color="#fff"
     stop-opacity="0"
     offset="1"
     id="stop132-5" /></radialGradient><path
   inkscape:connector-curvature="0"
   d="m 8,184 h 83.77 l 38.88,-38.88 V 116 H 61.36 L 8,24.48 Z"
   id="e-9" /><path
   inkscape:connector-curvature="0"
   d="m 96,56 34.65,60 -38.88,68 H 184 V 56 Z"
   id="i-6" /><path
   inkscape:connector-curvature="0"
   d="M 21.97,8 V 48.34 L 61.36,116 96,56 h 88 V 8 Z"
   id="m-2" /></defs><sodipodi:namedview
   pagecolor="#ffffff"
   bordercolor="#666666"
   borderopacity="1"
   objecttolerance="10"
   gridtolerance="10"
   guidetolerance="10"
   inkscape:pageopacity="0"
   inkscape:pageshadow="2"
   inkscape:window-width="1885"
   inkscape:window-height="1537"
   id="namedview249"
   showgrid="false"
   inkscape:zoom="2"
   inkscape:cx="49.479697"
   inkscape:cy="125.88241"
   inkscape:window-x="1955"
   inkscape:window-y="27"
   inkscape:window-maximized="0"
   inkscape:current-layer="layer2"
   inkscape:pagecheckerboard="true" />

<g
   inkscape:groupmode="layer"
   id="layer3"
   inkscape:label="Squircle-Background"
   style="display:none"><rect
     style="display:none;fill:#ffffff;fill-opacity:1;stroke-width:1.41822851"
     id="rect1101"
     width="248"
     height="248"
     x="4"
     y="4"
     ry="25.455845" /></g><g
   inkscape:groupmode="layer"
   id="layer5"
   inkscape:label="Squircle-Shadow"
   style="display:none"><path
     style="display:none;opacity:0.5;fill:#17171d;fill-opacity:0.39215686;stroke-width:1.41822851"
     d="m 4,216.54492 v 10 C 4,240.64746 15.35254,252 29.45508,252 H 226.54492 C 240.64746,252 252,240.64746 252,226.54492 v -10 C 252,230.64746 240.64746,242 226.54492,242 H 29.45508 C 15.35254,242 4,230.64746 4,216.54492 Z"
     id="rect1101-3"
     inkscape:connector-curvature="0" /><path
     style="display:inline;opacity:0.5;fill:#17171d;fill-opacity:0.39215686;stroke-width:1.41822851"
     d="m 4,216.54492 v 10 C 4,240.64746 15.35254,252 29.45508,252 H 226.54492 C 240.64746,252 252,240.64746 252,226.54492 v -10 C 252,230.64746 240.64746,242 226.54492,242 H 29.45508 C 15.35254,242 4,230.64746 4,216.54492 Z"
     id="rect1101-3-3"
     inkscape:connector-curvature="0" /></g><g
   inkscape:groupmode="layer"
   id="layer2"
   inkscape:label="Circle-Background"
   style="display:inline"><circle
     style="display:inline;fill:#ffffff;fill-opacity:1;stroke:none;stroke-width:2.74049902;stroke-miterlimit:4;stroke-dasharray:none;stroke-opacity:1"
     id="path1090"
     cx="128"
     cy="128"
     r="124" /><circle
     style="display:inline;fill:#ffffff;fill-opacity:1;stroke:none;stroke-width:2.74049902;stroke-miterlimit:4;stroke-dasharray:none;stroke-opacity:1"
     id="path1090-3"
     cx="128"
     cy="128"
     r="124" /></g><g
   inkscape:groupmode="layer"
   id="layer1"
   inkscape:label="Icon"
   style="display:inline"><g
     transform="matrix(2.1259447,0,0,2.1259447,25.959843,23.363659)"
     id="layer4"><path
       d="m 48.09375,21.03125 c -3.609461,0 -7.471231,0.659966 -10.78125,2.53125 -3.323033,1.878642 -6.018546,5.080765 -6.90625,9.71875 -0.183213,0.965004 0.05656,1.915839 0.65625,2.59375 0.493749,0.558156 1.114934,0.794481 1.65625,0.9375 v 0.03125 c -0.0016,-6.32e-4 0.06634,0.02121 0.09375,0.03125 0.0084,0.0031 0.03175,1.66e-4 0.03125,0 0.01185,0.0027 0.0195,0.02865 0.03125,0.03125 0.02967,0.0089 0.06379,3.51e-4 0.0625,0 a 0.98390642,0.98390642 0 0 0 0.15625,0.03125 l 6.875,0.75 a 0.98390642,0.98390642 0 0 0 0.03125,0 c -0.0028,-2.04e-4 0.127827,0.03125 0.125,0.03125 -0.0028,0 0.12782,-0.03145 0.125,-0.03125 0.912441,-0.04676 1.644271,-0.48711 2.125,-1.03125 0.455286,-0.515342 0.718017,-1.142078 0.84375,-1.75 0.0051,-0.02452 -0.0034,-0.01036 0,-0.03125 0.215754,-0.980035 0.647054,-1.602344 1.28125,-2.03125 0.641223,-0.433658 1.536485,-0.6875 2.59375,-0.6875 0.964775,0 2.016866,0.451078 2.40625,0.96875 a 0.98390642,0.98390642 0 0 0 0.03125,0.03125 0.98390642,0.98390642 0 0 0 0.03125,0.0625 c 0.403742,0.586064 0.5066,1.869601 0.53125,3.28125 -3.810364,0.37582 -8.412158,0.76313 -12.21875,2.40625 -0.0089,0.0038 -0.02241,-0.0038 -0.03125,0 -4.99632,2.151036 -8.65625,6.811611 -8.65625,13.1875 0,4.049872 1.315152,7.357944 3.625,9.5625 2.307036,2.201872 5.475272,3.21875 8.84375,3.21875 4.621994,0 7.976753,-1.259135 11.40625,-4.21875 0.742979,1.02432 1.559149,2.035621 3.1875,3.375 a 0.98390642,0.98390642 0 0 0 0.03125,0.03125 c -0.0016,-0.0012 0.09546,0.06365 0.09375,0.0625 -0.0017,-0.0012 0.06427,0.06356 0.0625,0.0625 -0.0018,-0.0011 0.09557,0.03222 0.09375,0.03125 -7.01e-4,-3.72e-4 0.01506,0.02321 0.03125,0.03125 0.0097,0.0048 0.02154,-0.0048 0.03125,0 0.01618,0.0081 0.03197,0.03158 0.03125,0.03125 0.914035,0.456526 1.927051,0.337259 2.78125,-0.03125 v 0.03125 C 59.40395,64.281615 59.50226,64.2495 59.5,64.25 c -0.0023,4.99e-4 0.127229,-6.32e-4 0.125,0 -0.0022,6.32e-4 0.09594,-0.03201 0.09375,-0.03125 -0.0022,7.63e-4 0.09589,-0.06339 0.09375,-0.0625 -0.0021,8.91e-4 0.127082,-0.03227 0.125,-0.03125 -0.0021,0.001 0.09577,-0.06364 0.09375,-0.0625 -0.002,0.0011 0.0957,-0.06376 0.09375,-0.0625 -0.0019,0.0013 0.09562,-0.06387 0.09375,-0.0625 A 0.98390642,0.98390642 0 0 0 60.25,63.90625 c 0.03729,-0.02442 0.05313,0.004 0.09375,-0.03125 0.129283,-0.11379 0.14228,-0.12892 0.03125,-0.03125 1.394151,-1.226457 3.954242,-3.44457 5.375,-4.625 0.158215,-0.128107 0.151819,-0.133976 0.03125,-0.03125 0.72301,-0.616003 1.074196,-1.495204 1.03125,-2.375 C 66.77487,56.041683 66.497662,55.398863 66.125,54.875 A 0.98390642,0.98390642 0 0 0 66,54.71875 0.98390642,0.98390642 0 0 0 65.90625,54.65625 C 64.620242,52.932308 63.75,52.091653 63.75,49.40625 v -10.9375 c 0,-2.275075 0.103204,-4.573063 -0.28125,-6.875 -0.385374,-2.307448 -1.359066,-4.63029 -3.40625,-6.53125 l 0.03125,-0.03125 c -0.0063,-0.0059 -0.02498,0.0059 -0.03125,0 -3.29397,-3.118667 -8.203453,-4 -11.96875,-4 z m 2.03125,24.75 c 8.28e-4,2.476516 -0.03023,4.203696 -1.09375,6.0625 -0.879744,1.54402 -2.056249,2.28125 -3.3125,2.28125 -0.918145,0 -1.363961,-0.250104 -1.78125,-0.75 -0.397708,-0.476438 -0.71875,-1.302327 -0.71875,-2.5 0,-2.468341 0.778653,-3.353513 2.34375,-4.15625 1.107797,-0.568189 2.793694,-0.822828 4.5625,-0.9375 z M 74.5,59.71875 c -2.436818,0.03328 -5.359323,0.539486 -7.75,2.21875 -0.306148,0.216714 -0.632326,0.520937 -0.875,0.9375 -0.242674,0.416563 -0.375907,0.965193 -0.28125,1.53125 0.122119,0.730285 0.517494,1.245767 1.125,1.5625 0.17297,0.09018 0.351887,0.04899 0.53125,0.09375 C 61.054131,68.150476 54.610438,69.25 48.65625,69.25 37.81801,69.25 27.300799,66.265272 18.84375,61.34375 18.3073,61.029788 17.697192,60.924493 17.125,61 c -0.956884,0.126283 -1.785529,0.782931 -2,1.78125 -0.204289,0.950923 0.191668,1.84714 0.84375,2.4375 8.439093,7.618959 19.613413,12.1875 31.96875,12.1875 8.445548,0 17.955222,-2.54181 25.09375,-7.375 -0.223561,0.576123 -0.452171,1.254944 -0.625,1.6875 -0.157343,0.393985 -0.284918,0.933787 -0.15625,1.5 0.155603,0.684743 0.561489,1.166998 1.1875,1.46875 0.526362,0.253718 1.123408,0.285827 1.59375,0.15625 0.470342,-0.129577 0.83097,-0.377975 1.125,-0.625 2.246421,-1.877323 3.482263,-4.542715 4.15625,-6.875 0.335387,-1.160581 0.540256,-2.254207 0.59375,-3.21875 0.02612,-0.471053 0.02962,-0.909361 -0.03125,-1.34375 -0.05087,-0.363049 -0.142106,-0.978654 -0.5625,-1.5 a 0.98390642,0.98390642 0 0 0 -0.03125,0 c -0.401589,-0.494726 -0.904674,-0.731593 -1.25,-0.875 C 78.646015,60.24627 78.225939,60.102478 77.75,60 76.826947,59.801248 75.72365,59.702035 74.5,59.71875 Z"
       inkscape:connector-curvature="0"
       id="path3911"
       style="display:inline;opacity:0.02999998;fill:#000000;fill-rule:evenodd" /><path
       inkscape:connector-curvature="0"
       d="m 48.09375,22 c -3.487352,0 -7.204663,0.649267 -10.3125,2.40625 -3.107837,1.756983 -5.57029,4.694862 -6.40625,9.0625 -0.126693,0.667307 0.06674,1.330871 0.4375,1.75 0.370765,0.419129 0.842635,0.621682 1.28125,0.71875 a 0.8663372,0.8663372 0 0 0 0.09375,0.03125 l 6.875,0.75 a 0.8663372,0.8663372 0 0 0 0.125,0 C 40.787495,36.688 41.293605,36.375108 41.625,36 c 0.324963,-0.367828 0.530126,-0.822531 0.625,-1.28125 0.0019,-0.0091 -0.0018,-0.02215 0,-0.03125 0.517145,-2.426052 2.436603,-3.5 4.84375,-3.5 1.244294,0 2.640114,0.476569 3.28125,1.4375 a 0.8663372,0.8663372 0 0 0 0,0.03125 c 0.76614,1.112113 0.71875,2.884885 0.71875,4.59375 v 0.125 c -3.984532,0.411108 -8.98669,0.764993 -12.84375,2.4375 -4.70649,2.016631 -8.09375,6.263937 -8.09375,12.28125 0,3.836306 1.249184,6.844663 3.34375,8.84375 2.094566,1.999087 4.98854,2.96875 8.15625,2.96875 4.829789,0 7.945142,-1.251061 11.5625,-4.65625 0.908234,1.333828 1.64513,2.377029 3.65625,4.03125 a 0.8663372,0.8663372 0 0 0 0.15625,0.09375 c 0.6493,0.343929 1.417019,0.287746 2.09375,-0.03125 0.03892,-0.01835 0.08688,-0.01054 0.125,-0.03125 a 0.8663372,0.8663372 0 0 0 0.375,-0.15625 c 0.01915,-0.01555 0.04371,-0.01496 0.0625,-0.03125 0.0086,-0.0076 0.02254,-0.02359 0.03125,-0.03125 1.406169,-1.237029 3.972065,-3.433414 5.40625,-4.625 0.01148,-0.0093 0.02003,-0.02169 0.03125,-0.03125 0.463241,-0.39468 0.713779,-1.024143 0.6875,-1.5625 -0.02692,-0.551394 -0.234967,-1.021005 -0.53125,-1.4375 a 0.8663372,0.8663372 0 0 0 -0.03125,0 c -1.33672,-1.828025 -2.5,-2.978235 -2.5,-6.03125 v -10.9375 c 0,-2.298208 0.08106,-4.549406 -0.28125,-6.71875 -0.362309,-2.169344 -1.213476,-4.2626 -3.09375,-6 C 56.410097,22.90023 51.702601,22 48.09375,22 Z m 2.96875,22.71875 v 0.59375 a 0.8663372,0.8663372 0 0 0 0.03125,0.15625 0.8663372,0.8663372 0 0 0 0,0.03125 c 0.0014,2.647488 0.02349,4.672583 -1.21875,6.84375 -1.010215,1.773007 -2.510616,2.75 -4.15625,2.75 -1.143478,0 -1.946177,-0.392856 -2.53125,-1.09375 -0.585073,-0.700894 -0.9375,-1.75821 -0.9375,-3.125 0,-2.731422 1.095618,-4.118606 2.875,-5.03125 1.568217,-0.804338 3.734479,-1.059497 5.9375,-1.125 z M 74.5,60.6875 c -2.300412,0.03142 -5.030349,0.54727 -7.1875,2.0625 -0.46243,0.327342 -0.865845,0.807239 -0.75,1.5 0.05792,0.34638 0.326369,0.688054 0.625,0.84375 0.298631,0.155696 0.587468,0.189331 0.875,0.15625 1.091924,-0.131843 2.856866,-0.340601 4.40625,-0.375 0.774692,-0.0172 1.502607,0.0087 2.03125,0.09375 0.528643,0.08504 0.798301,0.280628 0.75,0.21875 -0.05222,-0.06668 0.08666,0.253839 0.03125,0.78125 -0.05541,0.527411 -0.21638,1.227008 -0.4375,1.96875 -0.44224,1.483484 -1.119632,3.126054 -1.53125,4.15625 -0.109095,0.273172 -0.168221,0.578535 -0.09375,0.90625 0.07447,0.327715 0.342676,0.66135 0.65625,0.8125 0.627147,0.302299 1.213496,0.02822 1.65625,-0.34375 2.024513,-1.691875 3.204469,-4.194064 3.84375,-6.40625 0.319641,-1.106093 0.514809,-2.140094 0.5625,-3 0.02384,-0.429953 0.01769,-0.806984 -0.03125,-1.15625 -0.04894,-0.349266 -0.09986,-0.658795 -0.375,-1 -0.264897,-0.326332 -0.552166,-0.459684 -0.875,-0.59375 -0.322834,-0.134066 -0.702695,-0.25282 -1.125,-0.34375 C 76.686641,60.786889 75.649948,60.671792 74.5,60.6875 Z M 17.25,61.96875 C 16.703116,62.04092 16.210451,62.456782 16.09375,63 c -0.116701,0.543218 0.119213,1.126964 0.53125,1.5 8.263957,7.460843 19.199558,11.9375 31.3125,11.9375 8.674905,0 18.651246,-2.706038 25.65625,-7.875 0.413185,-0.304605 0.712317,-0.723748 0.8125,-1.1875 0.100183,-0.463752 -0.0018,-0.924058 -0.25,-1.28125 -0.496329,-0.714384 -1.505019,-1.006112 -2.40625,-0.625 -7.511889,3.186863 -15.674285,4.75 -23.09375,4.75 -11.017911,0 -21.698286,-3.018267 -30.3125,-8.03125 C 18.001553,61.987226 17.6177,61.920228 17.25,61.96875 Z"
       id="path3907"
       style="display:inline;opacity:0.05;fill:#000000;fill-rule:evenodd" /><path
       d="m 48.09375,22.875 c -6.762794,0 -14.292432,2.481564 -15.875,10.75 -0.166851,0.878822 0.477189,1.339218 1.0625,1.46875 l 6.875,0.75 c 0.644282,-0.03302 1.125503,-0.680097 1.25,-1.3125 0.590406,-2.848427 2.978012,-4.21875 5.6875,-4.21875 1.460631,0 3.134916,0.547167 4,1.84375 0.99471,1.4439 0.875,3.426346 0.875,5.09375 v 0.90625 c -4.117496,0.454626 -9.518065,0.765047 -13.375,2.4375 -4.448639,1.906147 -7.5625,5.798063 -7.5625,11.5 0,7.305837 4.640004,10.9375 10.625,10.9375 5.050601,0 7.823308,-1.16462 11.71875,-5.09375 1.292491,1.852811 1.703412,2.747063 4.0625,4.6875 0.527524,0.279425 1.218974,0.23413 1.6875,-0.1875 v 0.03125 c 1.418269,-1.248326 4.017114,-3.482347 5.46875,-4.6875 0.580277,-0.469868 0.454396,-1.204991 0,-1.84375 -1.296342,-1.772806 -2.6875,-3.234539 -2.6875,-6.53125 v -10.9375 c 0,-4.641546 0.362731,-8.899912 -3.09375,-12.09375 -2.721037,-2.588095 -7.262257,-3.5 -10.71875,-3.5 z m 3.84375,20.90625 v 1.53125 h 0.03125 c 0,2.739208 0.0513,5.030509 -1.34375,7.46875 -1.12949,1.982344 -2.91168,3.1875 -4.90625,3.1875 -2.722321,0 -4.34375,-2.052299 -4.34375,-5.09375 0,-5.986398 5.427185,-7.09375 10.5625,-7.09375 z M 74.5,61.5625 c -2.174584,0.0297 -4.740571,0.538685 -6.6875,1.90625 -0.59835,0.423557 -0.509529,0.98285 0.15625,0.90625 2.19046,-0.264484 7.100029,-0.831653 7.96875,0.28125 0.871994,1.113562 -0.992223,5.697015 -1.8125,7.75 -0.248112,0.62127 0.282714,0.877597 0.84375,0.40625 3.649675,-3.050014 4.621956,-9.448671 3.875,-10.375 C 78.472564,61.980227 76.674584,61.532795 74.5,61.5625 Z m -57.125,1.25 c -0.452292,0.05969 -0.63349,0.599183 -0.15625,1.03125 8.11046,7.322263 18.819175,11.71875 30.71875,11.71875 8.493433,0 18.355089,-2.668953 25.15625,-7.6875 1.125998,-0.830099 0.150221,-2.080155 -1,-1.59375 -7.626019,3.235282 -15.897238,4.8125 -23.4375,4.8125 -11.176187,0 -21.997983,-3.063073 -30.75,-8.15625 -0.190994,-0.111781 -0.380486,-0.144895 -0.53125,-0.125 z"
       inkscape:connector-curvature="0"
       id="path3894"
       style="display:inline;opacity:0.15;fill:#000000;fill-rule:evenodd" /><path
       d="m 51.9534,44.309276 c 0,2.739208 0.06662,5.021252 -1.328432,7.459493 -1.12949,1.982344 -2.925116,3.196388 -4.919686,3.196388 -2.722321,0 -4.320288,-2.057272 -4.320288,-5.098723 0,-5.986398 5.431807,-7.074716 10.567122,-7.074716 v 1.517558 z m 7.160684,17.138814 c -0.468526,0.42163 -1.150021,0.447043 -1.677545,0.167618 -2.359088,-1.940437 -2.781362,-2.833188 -4.073853,-4.685999 -3.895442,3.92913 -6.658836,5.108882 -11.709437,5.108882 -5.984996,0 -10.63257,-3.652286 -10.63257,-10.958123 0,-5.701937 3.122767,-9.580261 7.571406,-11.486408 3.856935,-1.672453 9.243819,-1.975967 13.361315,-2.430593 v -0.918149 c 0,-1.667404 0.133472,-3.651015 -0.861238,-5.094915 -0.865084,-1.296583 -2.525943,-1.824872 -3.986574,-1.824872 -2.709488,0 -5.121197,1.368976 -5.711603,4.217403 -0.124497,0.632403 -0.59045,1.258484 -1.234732,1.291507 l -6.884736,-0.737792 c -0.585311,-0.129532 -1.229598,-0.587929 -1.062747,-1.466751 1.582568,-8.268436 9.124454,-10.762554 15.887248,-10.762554 3.456493,0 7.977004,0.913066 10.698041,3.501161 3.456481,3.193838 3.121486,7.453147 3.121486,12.094693 v 10.950506 c 0,3.296711 1.387473,4.739336 2.683815,6.512142 0.454396,0.638759 0.557057,1.400719 -0.02322,1.870587 -1.451636,1.205153 -4.028917,3.419897 -5.447186,4.668223 l -0.01741,-0.01684 z"
       inkscape:connector-curvature="0"
       id="path3673"
       style="display:inline;fill:#333333;fill-rule:evenodd" /><g
       transform="matrix(4.0940394,0,0,4.0940394,105.99043,-56.114346)"
       id="g3717"
       style="display:inline"><path
         d="m -8.0352193,30.04091 c -1.6612348,1.225818 -4.0701767,1.877903 -6.1447617,1.877903 -2.906561,0 -5.524657,-1.07423 -7.505698,-2.862748 -0.155426,-0.140714 -0.01663,-0.332918 0.169977,-0.223704 2.137746,1.244047 4.780787,1.992714 7.510655,1.992714 1.841766,0 3.865821,-0.382009 5.7285337,-1.172251 0.28095,-0.118808 0.5163275,0.185328 0.241294,0.388086 z"
         inkscape:connector-curvature="0"
         id="path3719"
         style="fill:#ff9201;fill-rule:evenodd" /><path
         d="m -7.3439576,29.251627 c -0.2121916,-0.271835 -1.4049099,-0.128882 -1.9399461,-0.06428 -0.1626216,0.01871 -0.1875665,-0.122326 -0.041415,-0.225783 0.9511045,-0.668076 2.5095215,-0.474753 2.6908517,-0.251368 0.1824496,0.226263 -0.047811,1.788518 -0.9392716,2.533507 -0.1370371,0.11513 -0.2675181,0.05453 -0.2069148,-0.09722 0.2003588,-0.501457 0.6496869,-1.622858 0.4366958,-1.894854 z"
         inkscape:connector-curvature="0"
         id="path3721"
         style="fill:#ff9201;fill-rule:evenodd" /></g></g></g><g
   inkscape:groupmode="layer"
   id="layer6"
   inkscape:label="Circle-Shadow"
   style="display:inline"
   sodipodi:insensitive="true"><g
     id="g2548"
     style="display:inline"
     transform="translate(-2.960187,1.58543)"><path
       d="m 256.36019,128.41457 c 0,-33.900005 -13.5,-64.500005 -35.4,-86.900002 -0.4,-0.3 -0.7,-0.7 -1.1,-1 21.3,22.299997 34.5,52.599997 34.5,86.000002 0,68.5 -55.2,124 -123.4,124 -32.900003,0 -62.900003,-13 -85.000003,-34.1 0.3,0.3 0.6,0.6 0.9,0.9 22.2,21.7 52.6,35.1 86.000003,35.1 68.2,0 123.5,-55.5 123.5,-124 z"
       id="path238"
       inkscape:connector-curvature="0"
       style="display:inline;opacity:0.1" /><path
       d="m 219.86019,40.414568 c -0.7,-0.6 -1.4,-1.3 -2,-1.9 -0.7,-0.6 -1.4,-1.2 -2.1,-1.9 19.1,21.799997 30.7,50.499997 30.7,81.800002 0,68.5 -55.2,124 -123.4,124 -30.900003,0 -59.200003,-11.4 -80.900003,-30.3 0.6,0.7 1.2,1.4 1.9,2.1 0.6,0.7 1.3,1.4 1.9,2 22.1,21.1 52.1,34.1 85.000003,34.1 68.2,0 123.4,-55.5 123.4,-124 0,-33.300005 -13.1,-63.600005 -34.5,-85.900002 z"
       id="path240"
       inkscape:connector-curvature="0"
       style="display:inline;opacity:0.2" /><path
       d="m 220.96019,41.514568 c 21.9,22.399997 35.4,53.099997 35.4,86.900002 0,68.5 -55.2,124 -123.4,124 -33.500003,0 -63.800003,-13.4 -86.000003,-35.1 22.4,22.9 53.600003,37.1 88.000003,37.1 68.2,0 123.4,-55.5 123.4,-124 -0.1,-34.900005 -14.4,-66.400005 -37.4,-88.900002 z"
       id="path236"
       inkscape:connector-curvature="0"
       style="display:inline;opacity:0.05" /></g></g></svg>