<?xml version="1.0" encoding="UTF-8" standalone="no"?>
<!-- Generator: Adobe Illustrator 21.0.2, SVG Export Plug-In . SVG Version: 6.00 Build 0)  -->

<svg
   xmlns:dc="http://purl.org/dc/elements/1.1/"
   xmlns:cc="http://creativecommons.org/ns#"
   xmlns:rdf="http://www.w3.org/1999/02/22-rdf-syntax-ns#"
   xmlns:svg="http://www.w3.org/2000/svg"
   xmlns="http://www.w3.org/2000/svg"
   xmlns:xlink="http://www.w3.org/1999/xlink"
   xmlns:sodipodi="http://sodipodi.sourceforge.net/DTD/sodipodi-0.dtd"
   xmlns:inkscape="http://www.inkscape.org/namespaces/inkscape"
   version="1.1"
   id="Layer_1"
   x="0px"
   y="0px"
   viewBox="0 0 256 256"
   enable-background="new 0 0 256 256"
   xml:space="preserve"
   sodipodi:docname="firefox.svg"
   inkscape:version="0.92.4 (5da689c313, 2019-01-14)"><metadata
   id="metadata253"><rdf:RDF><cc:Work
       rdf:about=""><dc:format>image/svg+xml</dc:format><dc:type
         rdf:resource="http://purl.org/dc/dcmitype/StillImage" /><dc:title /></cc:Work></rdf:RDF></metadata><defs
   id="defs251">
	
	

		<defs
   id="defs3">
			<path
   id="SVGID_1_"
   d="M 124,0 C 55.9,0 0.7,55.5 0.7,124 0.6,192.6 55.9,248 124,248 192.2,248 247.4,192.5 247.4,124 247.4,55.5 192.2,0 124,0 Z"
   inkscape:connector-curvature="0" />
		</defs>
		<clipPath
   id="SVGID_2_">
			<use
   xlink:href="#SVGID_1_"
   overflow="visible"
   id="use5"
   style="overflow:visible"
   x="0"
   y="0"
   width="100%"
   height="100%" />
		</clipPath>
		
	
			<radialGradient
   gradientUnits="userSpaceOnUse"
   r="237.6331"
   cy="61.8969"
   cx="154.44119"
   id="SVGID_3_"
   gradientTransform="translate(158.91525,22.237288)">
				<stop
   id="stop8"
   style="stop-color:#00CCDA"
   offset="0" />
				<stop
   id="stop10"
   style="stop-color:#0083FF"
   offset="0.22" />
				<stop
   id="stop12"
   style="stop-color:#007AF9"
   offset="0.261" />
				<stop
   id="stop14"
   style="stop-color:#0060E8"
   offset="0.33" />
				<stop
   id="stop16"
   style="stop-color:#005FE7"
   offset="0.333" />
				<stop
   id="stop18"
   style="stop-color:#2639AD"
   offset="0.438" />
				<stop
   id="stop20"
   style="stop-color:#401E84"
   offset="0.522" />
				<stop
   id="stop22"
   style="stop-color:#4A1475"
   offset="0.566" />
			</radialGradient>
			
			
		
				<linearGradient
   id="SVGID_4_"
   gradientUnits="userSpaceOnUse"
   x1="120.4303"
   y1="242.5222"
   x2="120.4303"
   y2="1.8336">
					<stop
   offset="0"
   style="stop-color:#000F43;stop-opacity:0.4"
   id="stop27" />
					<stop
   offset="0.485"
   style="stop-color:#001962;stop-opacity:0.173"
   id="stop29" />
					<stop
   offset="1"
   style="stop-color:#002079;stop-opacity:0"
   id="stop31" />
				</linearGradient>
				
				<linearGradient
   id="SVGID_5_"
   gradientUnits="userSpaceOnUse"
   x1="243.77341"
   y1="153.6384"
   x2="199.4843"
   y2="203.5463">
					<stop
   offset="3.000000e-03"
   style="stop-color:#FFEA00"
   id="stop36" />
					<stop
   offset="0.497"
   style="stop-color:#FF272D"
   id="stop38" />
					<stop
   offset="1"
   style="stop-color:#C42482"
   id="stop40" />
				</linearGradient>
				
				<linearGradient
   id="SVGID_6_"
   gradientUnits="userSpaceOnUse"
   x1="245.9402"
   y1="189.5771"
   x2="149.7605"
   y2="233.2049">
					<stop
   offset="3.000000e-03"
   style="stop-color:#FF272D"
   id="stop45" />
					<stop
   offset="0.497"
   style="stop-color:#C42482"
   id="stop47" />
					<stop
   offset="0.986"
   style="stop-color:#620700"
   id="stop49" />
				</linearGradient>
				
				
					<radialGradient
   id="SVGID_7_"
   cx="227.0363"
   cy="50.159401"
   r="53.863899"
   gradientTransform="matrix(1,0,0,2.4605,0,-73.2587)"
   gradientUnits="userSpaceOnUse">
					<stop
   offset="4.500000e-02"
   style="stop-color:#FFEA00"
   id="stop54" />
					<stop
   offset="0.12"
   style="stop-color:#FFDE00"
   id="stop56" />
					<stop
   offset="0.254"
   style="stop-color:#FFBF00"
   id="stop58" />
					<stop
   offset="0.429"
   style="stop-color:#FF8E00"
   id="stop60" />
					<stop
   offset="0.769"
   style="stop-color:#FF272D"
   id="stop62" />
					<stop
   offset="0.872"
   style="stop-color:#E0255A"
   id="stop64" />
					<stop
   offset="0.953"
   style="stop-color:#CC2477"
   id="stop66" />
					<stop
   offset="1"
   style="stop-color:#C42482"
   id="stop68" />
				</radialGradient>
				
				<linearGradient
   id="SVGID_8_"
   gradientUnits="userSpaceOnUse"
   x1="259.44611"
   y1="92.444397"
   x2="230.6913"
   y2="151.6066">
					<stop
   offset="3.000000e-03"
   style="stop-color:#FFE900"
   id="stop73" />
					<stop
   offset="0.157"
   style="stop-color:#FFAF0E"
   id="stop75" />
					<stop
   offset="0.316"
   style="stop-color:#FF7A1B"
   id="stop77" />
					<stop
   offset="0.472"
   style="stop-color:#FF4E26"
   id="stop79" />
					<stop
   offset="0.621"
   style="stop-color:#FF2C2E"
   id="stop81" />
					<stop
   offset="0.762"
   style="stop-color:#FF1434"
   id="stop83" />
					<stop
   offset="0.892"
   style="stop-color:#FF0538"
   id="stop85" />
					<stop
   offset="1"
   style="stop-color:#FF0039"
   id="stop87" />
				</linearGradient>
				
				<radialGradient
   id="SVGID_9_"
   cx="178.6011"
   cy="84.071602"
   r="199.89259"
   gradientUnits="userSpaceOnUse">
					<stop
   offset="0.156"
   style="stop-color:#FFEA00"
   id="stop92" />
					<stop
   offset="0.231"
   style="stop-color:#FFDE00"
   id="stop94" />
					<stop
   offset="0.365"
   style="stop-color:#FFBF00"
   id="stop96" />
					<stop
   offset="0.541"
   style="stop-color:#FF8E00"
   id="stop98" />
					<stop
   offset="0.763"
   style="stop-color:#FF272D"
   id="stop100" />
					<stop
   offset="0.796"
   style="stop-color:#F92433"
   id="stop102" />
					<stop
   offset="0.841"
   style="stop-color:#E91C45"
   id="stop104" />
					<stop
   offset="0.893"
   style="stop-color:#CF0E62"
   id="stop106" />
					<stop
   offset="0.935"
   style="stop-color:#B5007F"
   id="stop108" />
				</radialGradient>
				
				<linearGradient
   id="SVGID_10_"
   gradientUnits="userSpaceOnUse"
   x1="28.129801"
   y1="46.5014"
   x2="33.748501"
   y2="7.5005999">
					<stop
   offset="0"
   style="stop-color:#891551;stop-opacity:0.6"
   id="stop113" />
					<stop
   offset="1"
   style="stop-color:#C42482;stop-opacity:0"
   id="stop115" />
				</linearGradient>
				
				<linearGradient
   id="SVGID_11_"
   gradientUnits="userSpaceOnUse"
   x1="57.853199"
   y1="70.8424"
   x2="121.6426"
   y2="68.528801">
					<stop
   offset="0"
   style="stop-color:#C42482;stop-opacity:0.5"
   id="stop120" />
					<stop
   offset="0.474"
   style="stop-color:#FF272D;stop-opacity:0.5"
   id="stop122" />
					<stop
   offset="0.486"
   style="stop-color:#FF2C2C;stop-opacity:0.513"
   id="stop124" />
					<stop
   offset="0.675"
   style="stop-color:#FF7A1A;stop-opacity:0.72"
   id="stop126" />
					<stop
   offset="0.829"
   style="stop-color:#FFB20D;stop-opacity:0.871"
   id="stop128" />
					<stop
   offset="0.942"
   style="stop-color:#FFD605;stop-opacity:0.964"
   id="stop130" />
					<stop
   offset="1"
   style="stop-color:#FFE302"
   id="stop132" />
				</linearGradient>
				
				<linearGradient
   id="SVGID_12_"
   gradientUnits="userSpaceOnUse"
   x1="53.934601"
   y1="100.3835"
   x2="69.799301"
   y2="148.9693">
					<stop
   offset="5.000000e-03"
   style="stop-color:#891551;stop-opacity:0.5"
   id="stop137" />
					<stop
   offset="0.484"
   style="stop-color:#FF272D;stop-opacity:0.5"
   id="stop139" />
					<stop
   offset="1"
   style="stop-color:#FF272D;stop-opacity:0"
   id="stop141" />
				</linearGradient>
				
				<linearGradient
   id="SVGID_13_"
   gradientUnits="userSpaceOnUse"
   x1="91.350899"
   y1="163.3515"
   x2="94.656097"
   y2="145.8343">
					<stop
   offset="0"
   style="stop-color:#C42482"
   id="stop146" />
					<stop
   offset="8.300000e-02"
   style="stop-color:#C42482;stop-opacity:0.81"
   id="stop148" />
					<stop
   offset="0.206"
   style="stop-color:#C42482;stop-opacity:0.565"
   id="stop150" />
					<stop
   offset="0.328"
   style="stop-color:#C42482;stop-opacity:0.362"
   id="stop152" />
					<stop
   offset="0.447"
   style="stop-color:#C42482;stop-opacity:0.204"
   id="stop154" />
					<stop
   offset="0.562"
   style="stop-color:#C42482;stop-opacity:9.100000e-02"
   id="stop156" />
					<stop
   offset="0.673"
   style="stop-color:#C42482;stop-opacity:2.300000e-02"
   id="stop158" />
					<stop
   offset="0.773"
   style="stop-color:#C42482;stop-opacity:0"
   id="stop160" />
				</linearGradient>
				
				
			
					<linearGradient
   y2="219.89639"
   x2="207.103"
   y1="-1.5489"
   x1="187.27209"
   gradientUnits="userSpaceOnUse"
   id="SVGID_14_">
						<stop
   id="stop165"
   style="stop-color:#FFEA00"
   offset="0.279" />
						<stop
   id="stop167"
   style="stop-color:#FFDD00"
   offset="0.402" />
						<stop
   id="stop169"
   style="stop-color:#FFBA00"
   offset="0.63" />
						<stop
   id="stop171"
   style="stop-color:#FF9100"
   offset="0.856" />
						<stop
   id="stop173"
   style="stop-color:#FF6711"
   offset="0.933" />
						<stop
   id="stop175"
   style="stop-color:#FF4A1D"
   offset="0.994" />
					</linearGradient>
					
					<linearGradient
   y2="210.94769"
   x2="134.0988"
   y1="95.928398"
   x1="178.3878"
   gradientUnits="userSpaceOnUse"
   id="SVGID_15_">
						<stop
   id="stop180"
   style="stop-color:#FF8E00"
   offset="0" />
						<stop
   id="stop182"
   style="stop-color:#FF8E00;stop-opacity:0.858"
   offset="4.000000e-02" />
						<stop
   id="stop184"
   style="stop-color:#FF8E00;stop-opacity:0.729"
   offset="8.400000e-02" />
						<stop
   id="stop186"
   style="stop-color:#FF8E00;stop-opacity:0.628"
   offset="0.13" />
						<stop
   id="stop188"
   style="stop-color:#FF8E00;stop-opacity:0.557"
   offset="0.178" />
						<stop
   id="stop190"
   style="stop-color:#FF8E00;stop-opacity:0.514"
   offset="0.227" />
						<stop
   id="stop192"
   style="stop-color:#FF8E00;stop-opacity:0.5"
   offset="0.282" />
						<stop
   id="stop194"
   style="stop-color:#FF8E00;stop-opacity:0.478"
   offset="0.389" />
						<stop
   id="stop196"
   style="stop-color:#FF8E00;stop-opacity:0.416"
   offset="0.524" />
						<stop
   id="stop198"
   style="stop-color:#FF8E00;stop-opacity:0.314"
   offset="0.676" />
						<stop
   id="stop200"
   style="stop-color:#FF8E00;stop-opacity:0.172"
   offset="0.838" />
						<stop
   id="stop202"
   style="stop-color:#FF8E00;stop-opacity:0"
   offset="1" />
					</linearGradient>
					
					<linearGradient
   y2="165.7812"
   x2="239.61279"
   y1="34.897099"
   x1="184.74741"
   gradientUnits="userSpaceOnUse"
   id="SVGID_16_">
						<stop
   id="stop207"
   style="stop-color:#FFF14F"
   offset="0" />
						<stop
   id="stop209"
   style="stop-color:#FFEE4C"
   offset="0.268" />
						<stop
   id="stop211"
   style="stop-color:#FFE643"
   offset="0.452" />
						<stop
   id="stop213"
   style="stop-color:#FFD834"
   offset="0.612" />
						<stop
   id="stop215"
   style="stop-color:#FFC41E"
   offset="0.757" />
						<stop
   id="stop217"
   style="stop-color:#FFAB02"
   offset="0.892" />
						<stop
   id="stop219"
   style="stop-color:#FFA900"
   offset="0.902" />
						<stop
   id="stop221"
   style="stop-color:#FFA000"
   offset="0.949" />
						<stop
   id="stop223"
   style="stop-color:#FF9100"
   offset="1" />
					</linearGradient>
					
				<radialGradient
   gradientTransform="matrix(1.005269,0,0,1,3.2964356,4.0000005)"
   gradientUnits="userSpaceOnUse"
   r="237.6331"
   cy="61.8969"
   cx="154.44119"
   id="SVGID_3_-3"><stop
     id="stop8-6"
     style="stop-color:#00CCDA"
     offset="0" /><stop
     id="stop10-7"
     style="stop-color:#0083FF"
     offset="0.22" /><stop
     id="stop12-5"
     style="stop-color:#007AF9"
     offset="0.261" /><stop
     id="stop14-3"
     style="stop-color:#0060E8"
     offset="0.33" /><stop
     id="stop16-5"
     style="stop-color:#005FE7"
     offset="0.333" /><stop
     id="stop18-6"
     style="stop-color:#2639AD"
     offset="0.438" /><stop
     id="stop20-2"
     style="stop-color:#401E84"
     offset="0.522" /><stop
     id="stop22-9"
     style="stop-color:#4A1475"
     offset="0.566" /></radialGradient><radialGradient
   gradientTransform="matrix(1.005269,0,0,1,3.2964381,3.9999975)"
   gradientUnits="userSpaceOnUse"
   r="237.6331"
   cy="61.8969"
   cx="154.44119"
   id="SVGID_3_-3-2"><stop
     id="stop8-6-7"
     style="stop-color:#00CCDA"
     offset="0" /><stop
     id="stop10-7-0"
     style="stop-color:#0083FF"
     offset="0.22" /><stop
     id="stop12-5-9"
     style="stop-color:#007AF9"
     offset="0.261" /><stop
     id="stop14-3-3"
     style="stop-color:#0060E8"
     offset="0.33" /><stop
     id="stop16-5-6"
     style="stop-color:#005FE7"
     offset="0.333" /><stop
     id="stop18-6-0"
     style="stop-color:#2639AD"
     offset="0.438" /><stop
     id="stop20-2-6"
     style="stop-color:#401E84"
     offset="0.522" /><stop
     id="stop22-9-2"
     style="stop-color:#4A1475"
     offset="0.566" /></radialGradient><radialGradient
   gradientTransform="matrix(1.005269,0,0,1,3.2964336,4.000001)"
   gradientUnits="userSpaceOnUse"
   r="237.6331"
   cy="61.8969"
   cx="154.44119"
   id="SVGID_3_-3-2-7"><stop
     id="stop8-6-7-6"
     style="stop-color:#00CCDA"
     offset="0" /><stop
     id="stop10-7-0-5"
     style="stop-color:#0083FF"
     offset="0.22" /><stop
     id="stop12-5-9-6"
     style="stop-color:#007AF9"
     offset="0.261" /><stop
     id="stop14-3-3-9"
     style="stop-color:#0060E8"
     offset="0.33" /><stop
     id="stop16-5-6-3"
     style="stop-color:#005FE7"
     offset="0.333" /><stop
     id="stop18-6-0-7"
     style="stop-color:#2639AD"
     offset="0.438" /><stop
     id="stop20-2-6-4"
     style="stop-color:#401E84"
     offset="0.522" /><stop
     id="stop22-9-2-5"
     style="stop-color:#4A1475"
     offset="0.566" /></radialGradient><radialGradient
   gradientTransform="matrix(1.005269,0,0,1,3.2964349,4.000001)"
   gradientUnits="userSpaceOnUse"
   r="237.6331"
   cy="61.8969"
   cx="154.44119"
   id="SVGID_3_-3-2-5"><stop
     id="stop8-6-7-4"
     style="stop-color:#00CCDA"
     offset="0" /><stop
     id="stop10-7-0-7"
     style="stop-color:#0083FF"
     offset="0.22" /><stop
     id="stop12-5-9-4"
     style="stop-color:#007AF9"
     offset="0.261" /><stop
     id="stop14-3-3-4"
     style="stop-color:#0060E8"
     offset="0.33" /><stop
     id="stop16-5-6-30"
     style="stop-color:#005FE7"
     offset="0.333" /><stop
     id="stop18-6-0-78"
     style="stop-color:#2639AD"
     offset="0.438" /><stop
     id="stop20-2-6-6"
     style="stop-color:#401E84"
     offset="0.522" /><stop
     id="stop22-9-2-8"
     style="stop-color:#4A1475"
     offset="0.566" /></radialGradient><clipPath
   clipPathUnits="userSpaceOnUse"
   id="clipPath1872"><path
     style="fill:url(#radialGradient1876);stroke-width:1.00263107"
     inkscape:connector-curvature="0"
     id="path1874"
     d="m 127.94981,4.000001 c -68.458825,0 -123.9496751,55.5 -123.9496751,123.999989 C 3.8996049,196.59999 59.490985,252 127.94981,252 196.50915,252 252,196.49999 252,127.99999 252,59.500001 196.50915,4.000001 127.94981,4.000001 Z" /></clipPath><radialGradient
   inkscape:collect="always"
   xlink:href="#SVGID_3_-3-2-5"
   id="radialGradient1876"
   gradientUnits="userSpaceOnUse"
   gradientTransform="matrix(1.005269,0,0,1,3.2964349,4.000001)"
   cx="154.44119"
   cy="61.8969"
   r="237.6331" /><clipPath
   clipPathUnits="userSpaceOnUse"
   id="clipPath1878"><path
     style="fill:url(#radialGradient1882);stroke-width:1.00263107"
     inkscape:connector-curvature="0"
     id="path1880"
     d="m 127.94981,4.000001 c -68.458826,0 -123.9496764,55.5 -123.9496764,123.999989 C 3.8996036,196.59999 59.490984,252 127.94981,252 196.50915,252 252,196.49999 252,127.99999 252,59.500001 196.50915,4.000001 127.94981,4.000001 Z" /></clipPath><radialGradient
   inkscape:collect="always"
   xlink:href="#SVGID_3_-3-2-7"
   id="radialGradient1882"
   gradientUnits="userSpaceOnUse"
   gradientTransform="matrix(1.005269,0,0,1,3.2964336,4.000001)"
   cx="154.44119"
   cy="61.8969"
   r="237.6331" /><radialGradient
   gradientTransform="matrix(1.005269,0,0,1,3.2964331,3.999995)"
   gradientUnits="userSpaceOnUse"
   r="237.6331"
   cy="61.8969"
   cx="154.44119"
   id="SVGID_3_-3-2-4"><stop
     id="stop8-6-7-3"
     style="stop-color:#00CCDA"
     offset="0" /><stop
     id="stop10-7-0-1"
     style="stop-color:#0083FF"
     offset="0.22" /><stop
     id="stop12-5-9-49"
     style="stop-color:#007AF9"
     offset="0.261" /><stop
     id="stop14-3-3-2"
     style="stop-color:#0060E8"
     offset="0.33" /><stop
     id="stop16-5-6-0"
     style="stop-color:#005FE7"
     offset="0.333" /><stop
     id="stop18-6-0-6"
     style="stop-color:#2639AD"
     offset="0.438" /><stop
     id="stop20-2-6-8"
     style="stop-color:#401E84"
     offset="0.522" /><stop
     id="stop22-9-2-9"
     style="stop-color:#4A1475"
     offset="0.566" /></radialGradient><radialGradient
   gradientTransform="matrix(1.005269,0,0,1,3.2964331,3.999998)"
   gradientUnits="userSpaceOnUse"
   r="237.6331"
   cy="61.8969"
   cx="154.44119"
   id="SVGID_3_-3-2-6"><stop
     id="stop8-6-7-64"
     style="stop-color:#00CCDA"
     offset="0" /><stop
     id="stop10-7-0-9"
     style="stop-color:#0083FF"
     offset="0.22" /><stop
     id="stop12-5-9-5"
     style="stop-color:#007AF9"
     offset="0.261" /><stop
     id="stop14-3-3-0"
     style="stop-color:#0060E8"
     offset="0.33" /><stop
     id="stop16-5-6-4"
     style="stop-color:#005FE7"
     offset="0.333" /><stop
     id="stop18-6-0-8"
     style="stop-color:#2639AD"
     offset="0.438" /><stop
     id="stop20-2-6-7"
     style="stop-color:#401E84"
     offset="0.522" /><stop
     id="stop22-9-2-1"
     style="stop-color:#4A1475"
     offset="0.566" /></radialGradient><clipPath
   clipPathUnits="userSpaceOnUse"
   id="clipPath1950"><path
     style="fill:url(#radialGradient1954);stroke-width:1.00263107"
     inkscape:connector-curvature="0"
     id="path1952"
     d="M 127.94981,3.9999975 C 59.490988,3.9999975 4.0001381,59.499998 4.0001381,127.99999 3.8996081,196.59999 59.490988,252 127.94981,252 196.50915,252 252,196.49999 252,127.99999 252,59.499998 196.50915,3.9999975 127.94981,3.9999975 Z" /></clipPath><radialGradient
   inkscape:collect="always"
   xlink:href="#SVGID_3_-3-2"
   id="radialGradient1954"
   gradientUnits="userSpaceOnUse"
   gradientTransform="matrix(1.005269,0,0,1,3.2964381,3.9999975)"
   cx="154.44119"
   cy="61.8969"
   r="237.6331" /><clipPath
   clipPathUnits="userSpaceOnUse"
   id="clipPath1956"><path
     style="fill:url(#radialGradient1960);stroke-width:1.00263107"
     inkscape:connector-curvature="0"
     id="path1958"
     d="m 127.94981,3.999998 c -68.458827,0 -123.9496769,55.5 -123.9496769,123.999992 C 3.8996031,196.59999 59.490983,252 127.94981,252 196.50915,252 252,196.49999 252,127.99999 252,59.499998 196.50915,3.999998 127.94981,3.999998 Z" /></clipPath><radialGradient
   inkscape:collect="always"
   xlink:href="#SVGID_3_-3-2-6"
   id="radialGradient1960"
   gradientUnits="userSpaceOnUse"
   gradientTransform="matrix(1.005269,0,0,1,3.2964331,3.999998)"
   cx="154.44119"
   cy="61.8969"
   r="237.6331" /><radialGradient
   gradientTransform="matrix(1.005269,0,0,1,3.2964281,4.0000005)"
   gradientUnits="userSpaceOnUse"
   r="237.6331"
   cy="61.8969"
   cx="154.44119"
   id="SVGID_3_-3-2-4-2"><stop
     id="stop8-6-7-3-7"
     style="stop-color:#00CCDA"
     offset="0" /><stop
     id="stop10-7-0-1-2"
     style="stop-color:#0083FF"
     offset="0.22" /><stop
     id="stop12-5-9-49-2"
     style="stop-color:#007AF9"
     offset="0.261" /><stop
     id="stop14-3-3-2-6"
     style="stop-color:#0060E8"
     offset="0.33" /><stop
     id="stop16-5-6-0-1"
     style="stop-color:#005FE7"
     offset="0.333" /><stop
     id="stop18-6-0-6-0"
     style="stop-color:#2639AD"
     offset="0.438" /><stop
     id="stop20-2-6-8-6"
     style="stop-color:#401E84"
     offset="0.522" /><stop
     id="stop22-9-2-9-1"
     style="stop-color:#4A1475"
     offset="0.566" /></radialGradient><clipPath
   clipPathUnits="userSpaceOnUse"
   id="clipPath2004"><path
     style="fill:url(#radialGradient2008);stroke-width:1.00263107"
     inkscape:connector-curvature="0"
     id="path2006"
     d="M 127.94982,4.0000005 C 59.490978,4.0000005 4.0001281,59.500001 4.0001281,127.99999 3.8995981,196.59999 59.490978,252 127.94982,252 c 68.55934,0 124.05019,-55.50001 124.05019,-124.00001 0,-68.499989 -55.49085,-123.9999895 -124.05019,-123.9999895 z" /></clipPath><radialGradient
   inkscape:collect="always"
   xlink:href="#SVGID_3_-3-2-4-2"
   id="radialGradient2008"
   gradientUnits="userSpaceOnUse"
   gradientTransform="matrix(1.005269,0,0,1,3.2964281,4.0000005)"
   cx="154.44119"
   cy="61.8969"
   r="237.6331" /><radialGradient
   gradientTransform="matrix(1.005269,0,0,1,3.2964331,3.999995)"
   gradientUnits="userSpaceOnUse"
   r="237.6331"
   cy="61.8969"
   cx="154.44119"
   id="SVGID_3_-3-2-4-9"><stop
     id="stop8-6-7-3-4"
     style="stop-color:#00CCDA"
     offset="0" /><stop
     id="stop10-7-0-1-9"
     style="stop-color:#0083FF"
     offset="0.22" /><stop
     id="stop12-5-9-49-0"
     style="stop-color:#007AF9"
     offset="0.261" /><stop
     id="stop14-3-3-2-9"
     style="stop-color:#0060E8"
     offset="0.33" /><stop
     id="stop16-5-6-0-17"
     style="stop-color:#005FE7"
     offset="0.333" /><stop
     id="stop18-6-0-6-7"
     style="stop-color:#2639AD"
     offset="0.438" /><stop
     id="stop20-2-6-8-1"
     style="stop-color:#401E84"
     offset="0.522" /><stop
     id="stop22-9-2-9-15"
     style="stop-color:#4A1475"
     offset="0.566" /></radialGradient><clipPath
   clipPathUnits="userSpaceOnUse"
   id="clipPath2052"><path
     style="fill:url(#radialGradient2056);stroke-width:1.00263107"
     inkscape:connector-curvature="0"
     id="path2054"
     d="M 127.94981,3.999995 C 59.490983,3.999995 4.0001331,59.499997 4.0001331,127.99999 3.8996031,196.59999 59.490983,252.00001 127.94981,252.00001 196.50915,252.00001 252,196.49999 252,127.99999 252,59.499997 196.50915,3.999995 127.94981,3.999995 Z" /></clipPath><radialGradient
   inkscape:collect="always"
   xlink:href="#SVGID_3_-3-2-4"
   id="radialGradient2056"
   gradientUnits="userSpaceOnUse"
   gradientTransform="matrix(1.005269,0,0,1,3.2964331,3.999995)"
   cx="154.44119"
   cy="61.8969"
   r="237.6331" /><clipPath
   clipPathUnits="userSpaceOnUse"
   id="clipPath2058"><path
     style="fill:url(#radialGradient2062);stroke-width:1.00263107"
     inkscape:connector-curvature="0"
     id="path2060"
     d="M 127.94981,3.999995 C 59.490983,3.999995 4.0001331,59.499996 4.0001331,127.99998 3.8996031,196.59998 59.490983,252.00001 127.94981,252.00001 196.50915,252.00001 252,196.49998 252,127.99998 252,59.499996 196.50915,3.999995 127.94981,3.999995 Z" /></clipPath><radialGradient
   inkscape:collect="always"
   xlink:href="#SVGID_3_-3-2-4-9"
   id="radialGradient2062"
   gradientUnits="userSpaceOnUse"
   gradientTransform="matrix(1.005269,0,0,1,3.2964331,3.999995)"
   cx="154.44119"
   cy="61.8969"
   r="237.6331" /><radialGradient
   id="radial-gradient"
   cx="-14480.522"
   cy="-8329.0791"
   fx="-14509.281"
   r="450.875"
   gradientTransform="matrix(0.19204873,0.0085691,-0.01260162,0.28227636,2912.7596,2541.2367)"
   gradientUnits="userSpaceOnUse"><stop
     offset="0.045"
     stop-color="#ffea00"
     id="stop2" /><stop
     offset="0.12"
     stop-color="#ffde00"
     id="stop4" /><stop
     offset="0.254"
     stop-color="#ffbf00"
     id="stop6" /><stop
     offset="0.429"
     stop-color="#ff8e00"
     id="stop8-3" /><stop
     offset="0.769"
     stop-color="#ff272d"
     id="stop10-6" /><stop
     offset="0.872"
     stop-color="#e0255a"
     id="stop12-7" /><stop
     offset="0.953"
     stop-color="#cc2477"
     id="stop14-5" /><stop
     offset="1"
     stop-color="#c42482"
     id="stop16-3" /></radialGradient><radialGradient
   id="radial-gradient-2"
   cx="-7529.6689"
   cy="-7921.6079"
   r="791.229"
   gradientTransform="matrix(0.30873976,0,0,0.30873976,2669.5934,2325.0422)"
   gradientUnits="userSpaceOnUse"><stop
     offset="0"
     stop-color="#00ccda"
     id="stop19" /><stop
     offset="0.22"
     stop-color="#0083ff"
     id="stop21" /><stop
     offset="0.261"
     stop-color="#007af9"
     id="stop23" /><stop
     offset="0.33"
     stop-color="#0060e8"
     id="stop25" /><stop
     offset="0.333"
     stop-color="#005fe7"
     id="stop27-5" /><stop
     offset="0.438"
     stop-color="#2639ad"
     id="stop29-6" /><stop
     offset="0.522"
     stop-color="#401e84"
     id="stop31-2" /><stop
     offset="0.566"
     stop-color="#4a1475"
     id="stop33" /></radialGradient><linearGradient
   id="linear-gradient"
   x1="575.66901"
   y1="731.18799"
   x2="384.23099"
   y2="104.96"
   gradientUnits="userSpaceOnUse"
   gradientTransform="matrix(0.25203246,0,0,0.25203246,-0.96070953,3.495935)"><stop
     offset="0"
     stop-color="#000f43"
     stop-opacity="0.4"
     id="stop36-9" /><stop
     offset="0.485"
     stop-color="#001962"
     stop-opacity="0.173"
     id="stop38-1" /><stop
     offset="1"
     stop-color="#002079"
     stop-opacity="0"
     id="stop40-2" /></linearGradient><radialGradient
   id="radial-gradient-3"
   cx="-8260.9404"
   cy="-6516.5562"
   r="266.88599"
   gradientTransform="matrix(0.30722757,0.03099999,-0.03099999,0.30722757,2594.0323,2422.3094)"
   gradientUnits="userSpaceOnUse"><stop
     offset="0.003"
     stop-color="#ffea00"
     id="stop43" /><stop
     offset="0.497"
     stop-color="#ff272d"
     id="stop45-7" /><stop
     offset="1"
     stop-color="#c42482"
     id="stop47-0" /></radialGradient><radialGradient
   id="radial-gradient-4"
   cx="-8285.0869"
   cy="-6772.4678"
   r="445.67801"
   gradientTransform="matrix(0.30722757,0.03099999,-0.03099999,0.30722757,2594.0323,2422.3094)"
   gradientUnits="userSpaceOnUse"><stop
     offset="0.003"
     stop-color="#ffe900"
     id="stop50" /><stop
     offset="0.157"
     stop-color="#ffaf0e"
     id="stop52" /><stop
     offset="0.316"
     stop-color="#ff7a1b"
     id="stop54-9" /><stop
     offset="0.472"
     stop-color="#ff4e26"
     id="stop56-3" /><stop
     offset="0.621"
     stop-color="#ff2c2e"
     id="stop58-6" /><stop
     offset="0.762"
     stop-color="#ff1434"
     id="stop60-0" /><stop
     offset="0.892"
     stop-color="#ff0538"
     id="stop62-6" /><stop
     offset="1"
     stop-color="#ff0039"
     id="stop64-2" /></radialGradient><radialGradient
   id="radial-gradient-5"
   cx="-8222.0508"
   cy="-6359.332"
   r="408.95801"
   gradientTransform="matrix(0.30722757,0.03099999,-0.03099999,0.30722757,2594.0323,2422.3094)"
   gradientUnits="userSpaceOnUse"><stop
     offset="0.003"
     stop-color="#ff272d"
     id="stop67" /><stop
     offset="0.497"
     stop-color="#c42482"
     id="stop69" /><stop
     offset="0.986"
     stop-color="#620700"
     id="stop71" /></radialGradient><radialGradient
   id="radial-gradient-6"
   cx="750.18903"
   cy="396.04099"
   fx="778.1665"
   fy="382.2124"
   r="782.17999"
   gradientUnits="userSpaceOnUse"
   gradientTransform="matrix(0.25203246,0,0,0.25203246,-0.96070953,3.495935)"><stop
     offset="0.156"
     stop-color="#ffea00"
     id="stop74" /><stop
     offset="0.231"
     stop-color="#ffde00"
     id="stop76" /><stop
     offset="0.365"
     stop-color="#ffbf00"
     id="stop78" /><stop
     offset="0.541"
     stop-color="#ff8e00"
     id="stop80" /><stop
     offset="0.763"
     stop-color="#ff272d"
     id="stop82" /><stop
     offset="0.796"
     stop-color="#f92433"
     id="stop84" /><stop
     offset="0.841"
     stop-color="#e91c45"
     id="stop86" /><stop
     offset="0.893"
     stop-color="#cf0e62"
     id="stop88" /><stop
     offset="0.935"
     stop-color="#b5007f"
     id="stop90" /></radialGradient><radialGradient
   id="radial-gradient-7"
   cx="691.33899"
   cy="3.289"
   r="923.61499"
   gradientUnits="userSpaceOnUse"
   gradientTransform="matrix(0.25203246,0,0,0.25203246,-0.96070953,3.495935)"><stop
     offset="0.279"
     stop-color="#ffea00"
     id="stop93" /><stop
     offset="0.402"
     stop-color="#fd0"
     id="stop95" /><stop
     offset="0.63"
     stop-color="#ffba00"
     id="stop97" /><stop
     offset="0.856"
     stop-color="#ff9100"
     id="stop99" /><stop
     offset="0.933"
     stop-color="#ff6711"
     id="stop101" /><stop
     offset="0.994"
     stop-color="#ff4a1d"
     id="stop103" /></radialGradient><linearGradient
   id="linear-gradient-2"
   x1="-8944.6504"
   y1="-6677.7422"
   x2="-8660.2891"
   y2="-6750.2261"
   gradientTransform="matrix(0.30722757,0.03099999,-0.03099999,0.30722757,2594.0323,2422.3094)"
   gradientUnits="userSpaceOnUse"><stop
     offset="0"
     stop-color="#c42482"
     stop-opacity="0.5"
     id="stop106-6" /><stop
     offset="0.474"
     stop-color="#ff272d"
     stop-opacity="0.5"
     id="stop108-1" /><stop
     offset="0.486"
     stop-color="#ff2c2c"
     stop-opacity="0.513"
     id="stop110" /><stop
     offset="0.675"
     stop-color="#ff7a1a"
     stop-opacity="0.72"
     id="stop112" /><stop
     offset="0.829"
     stop-color="#ffb20d"
     stop-opacity="0.871"
     id="stop114" /><stop
     offset="0.942"
     stop-color="#ffd605"
     stop-opacity="0.964"
     id="stop116" /><stop
     offset="1"
     stop-color="#ffe302"
     id="stop118" /></linearGradient><linearGradient
   id="linear-gradient-3"
   x1="245.347"
   y1="-1082.012"
   x2="190.77499"
   y2="-1221.859"
   gradientTransform="matrix(0.2507723,0.02520325,-0.02520325,0.2507723,-44.73774,334.65172)"
   gradientUnits="userSpaceOnUse"><stop
     offset="0"
     stop-color="#891551"
     stop-opacity="0.6"
     id="stop121" /><stop
     offset="1"
     stop-color="#c42482"
     stop-opacity="0"
     id="stop123" /></linearGradient><linearGradient
   id="linear-gradient-4"
   x1="22.040001"
   y1="718.82703"
   x2="116.148"
   y2="825.71399"
   gradientTransform="matrix(0.2507723,0.02520325,-0.02520325,0.2507723,76.019833,-58.622757)"
   gradientUnits="userSpaceOnUse"><stop
     offset="0.005"
     stop-color="#891551"
     stop-opacity="0.5"
     id="stop126-8" /><stop
     offset="0.484"
     stop-color="#ff272d"
     stop-opacity="0.5"
     id="stop128-7" /><stop
     offset="1"
     stop-color="#ff272d"
     stop-opacity="0"
     id="stop130-9" /></linearGradient><linearGradient
   id="linear-gradient-5"
   x1="200.104"
   y1="904.61603"
   x2="200.17101"
   y2="829.83502"
   gradientTransform="matrix(0.2507723,0.02520325,-0.02520325,0.2507723,76.019833,-58.622757)"
   gradientUnits="userSpaceOnUse"><stop
     offset="0"
     stop-color="#c42482"
     id="stop133" /><stop
     offset="0.083"
     stop-color="#c42482"
     stop-opacity="0.81"
     id="stop135" /><stop
     offset="0.206"
     stop-color="#c42482"
     stop-opacity="0.565"
     id="stop137-2" /><stop
     offset="0.328"
     stop-color="#c42482"
     stop-opacity="0.362"
     id="stop139-0" /><stop
     offset="0.447"
     stop-color="#c42482"
     stop-opacity="0.204"
     id="stop141-2" /><stop
     offset="0.562"
     stop-color="#c42482"
     stop-opacity="0.091"
     id="stop143" /><stop
     offset="0.673"
     stop-color="#c42482"
     stop-opacity="0.023"
     id="stop145" /><stop
     offset="0.773"
     stop-color="#c42482"
     stop-opacity="0"
     id="stop147" /></linearGradient><linearGradient
   id="linear-gradient-6"
   x1="655.53101"
   y1="38.119999"
   x2="961.18701"
   y2="721.61499"
   gradientUnits="userSpaceOnUse"
   gradientTransform="matrix(0.25203246,0,0,0.25203246,-0.96070953,3.495935)"><stop
     offset="0"
     stop-color="#fff14f"
     id="stop150-3" /><stop
     offset="0.268"
     stop-color="#ffee4c"
     id="stop152-7" /><stop
     offset="0.452"
     stop-color="#ffe643"
     id="stop154-5" /><stop
     offset="0.612"
     stop-color="#ffd834"
     id="stop156-9" /><stop
     offset="0.757"
     stop-color="#ffc41e"
     id="stop158-2" /><stop
     offset="0.892"
     stop-color="#ffab02"
     id="stop160-2" /><stop
     offset="0.902"
     stop-color="#ffa900"
     id="stop162" /><stop
     offset="0.949"
     stop-color="#ffa000"
     id="stop164" /><stop
     offset="1"
     stop-color="#ff9100"
     id="stop166" /></linearGradient><linearGradient
   id="linear-gradient-7"
   x1="715.88501"
   y1="431.20999"
   x2="571.09802"
   y2="819.96002"
   gradientUnits="userSpaceOnUse"
   gradientTransform="matrix(0.25203246,0,0,0.25203246,-0.96070953,3.495935)"><stop
     offset="0"
     stop-color="#ff8e00"
     id="stop169-8" /><stop
     offset="0.04"
     stop-color="#ff8e00"
     stop-opacity="0.858"
     id="stop171-9" /><stop
     offset="0.084"
     stop-color="#ff8e00"
     stop-opacity="0.729"
     id="stop173-7" /><stop
     offset="0.13"
     stop-color="#ff8e00"
     stop-opacity="0.628"
     id="stop175-3" /><stop
     offset="0.178"
     stop-color="#ff8e00"
     stop-opacity="0.557"
     id="stop177" /><stop
     offset="0.227"
     stop-color="#ff8e00"
     stop-opacity="0.514"
     id="stop179" /><stop
     offset="0.282"
     stop-color="#ff8e00"
     stop-opacity="0.5"
     id="stop181" /><stop
     offset="0.389"
     stop-color="#ff8e00"
     stop-opacity="0.478"
     id="stop183" /><stop
     offset="0.524"
     stop-color="#ff8e00"
     stop-opacity="0.416"
     id="stop185" /><stop
     offset="0.676"
     stop-color="#ff8e00"
     stop-opacity="0.314"
     id="stop187" /><stop
     offset="0.838"
     stop-color="#ff8e00"
     stop-opacity="0.172"
     id="stop189" /><stop
     offset="1"
     stop-color="#ff8e00"
     stop-opacity="0"
     id="stop191" /></linearGradient><clipPath
   clipPathUnits="userSpaceOnUse"
   id="clipPath1358"><path
     style="display:inline;fill:#0068bf;fill-opacity:1;stroke-width:1.00263107"
     inkscape:connector-curvature="0"
     id="path1360"
     d="M 127.94981,4.0000005 C 59.490986,4.0000005 4.0001356,59.500001 4.0001356,128 3.8996056,196.6 59.490986,252 127.94981,252 196.50915,252 252,196.5 252,128 252,59.500001 196.50915,4.0000005 127.94981,4.0000005 Z" /></clipPath><clipPath
   clipPathUnits="userSpaceOnUse"
   id="clipPath1362"><path
     inkscape:connector-curvature="0"
     id="path1364"
     style="fill:url(#linearGradient1366);stroke-width:0.25203246"
     d="m 47.760693,43.435771 c -0.262365,-0.458195 -0.403251,0.94613 -0.604877,0.494236 -1.500854,-3.481325 -2.413967,-9.123575 -2.197724,-13.111233 0,0 -3.104535,1.41491 -5.674006,7.324063 -0.477098,1.062317 -0.783065,1.648293 -1.088781,2.234268 -0.140634,0.170878 0.318822,-1.94065 0.24548,-1.825723 -0.446349,0.756097 -1.601666,1.812617 -2.103463,3.118902 -0.416105,1.068365 -0.844057,1.641991 -1.162626,2.966926 -0.09804,0.360154 0.0988,-1.593602 0.01311,-1.355683 -5.975942,11.549388 -7.11664,29.012465 -6.486811,28.27401 12.722094,-13.58455 27.301416,-16.806281 27.301416,-16.806281 -1.55126,-1.142715 -4.92169,-4.442072 -8.241462,-11.313485 z"
     clip-path="url(#clipPath1358)" /></clipPath><linearGradient
   inkscape:collect="always"
   xlink:href="#linear-gradient-3"
   id="linearGradient1366"
   gradientUnits="userSpaceOnUse"
   gradientTransform="matrix(0.2507723,0.02520325,-0.02520325,0.2507723,-44.73774,334.65172)"
   x1="245.347"
   y1="-1082.012"
   x2="190.77499"
   y2="-1221.859" /><clipPath
   clipPathUnits="userSpaceOnUse"
   id="clipPath1377"><path
     style="display:inline;fill:#0068bf;fill-opacity:1;stroke-width:1.00263107"
     inkscape:connector-curvature="0"
     id="path1379"
     d="M 127.94981,4.0000005 C 59.490986,4.0000005 4.0001356,59.500001 4.0001356,128 3.8996056,196.6 59.490986,252 127.94981,252 196.50915,252 252,196.5 252,128 252,59.500001 196.50915,4.0000005 127.94981,4.0000005 Z" /></clipPath><clipPath
   clipPathUnits="userSpaceOnUse"
   id="clipPath1381"><path
     d="M 127.94981,4.0000005 C 59.490986,4.0000005 4.0001356,59.500001 4.0001356,128 3.8996056,196.6 59.490986,252 127.94981,252 196.50915,252 252,196.5 252,128 252,59.500001 196.50915,4.0000005 127.94981,4.0000005 Z"
     id="path1383"
     inkscape:connector-curvature="0"
     style="display:inline;fill:#0068bf;fill-opacity:1;stroke-width:1.00263107" /></clipPath><clipPath
   clipPathUnits="userSpaceOnUse"
   id="clipPath1385"><path
     style="display:inline;fill:#0068bf;fill-opacity:1;stroke-width:1.00263107"
     inkscape:connector-curvature="0"
     id="path1387"
     d="M 127.94981,4.0000005 C 59.490986,4.0000005 4.0001356,59.500001 4.0001356,128 3.8996056,196.6 59.490986,252 127.94981,252 196.50915,252 252,196.5 252,128 252,59.500001 196.50915,4.0000005 127.94981,4.0000005 Z" /></clipPath><radialGradient
   inkscape:collect="always"
   xlink:href="#radial-gradient"
   id="radialGradient1208"
   gradientUnits="userSpaceOnUse"
   gradientTransform="matrix(0.19204873,0.0085691,-0.01260162,0.28227636,2912.7596,2541.2367)"
   cx="-14480.522"
   cy="-8329.0791"
   fx="-14509.281"
   r="450.875" /><linearGradient
   inkscape:collect="always"
   xlink:href="#linear-gradient"
   id="linearGradient1210"
   gradientUnits="userSpaceOnUse"
   gradientTransform="matrix(0.25203246,0,0,0.25203246,-0.96070953,3.495935)"
   x1="575.66901"
   y1="731.18799"
   x2="384.23099"
   y2="104.96" /><radialGradient
   inkscape:collect="always"
   xlink:href="#radial-gradient-3"
   id="radialGradient1212"
   gradientUnits="userSpaceOnUse"
   gradientTransform="matrix(0.30722757,0.03099999,-0.03099999,0.30722757,2594.0323,2422.3094)"
   cx="-8260.9404"
   cy="-6516.5562"
   r="266.88599" /><radialGradient
   inkscape:collect="always"
   xlink:href="#radial-gradient-4"
   id="radialGradient1214"
   gradientUnits="userSpaceOnUse"
   gradientTransform="matrix(0.30722757,0.03099999,-0.03099999,0.30722757,2594.0323,2422.3094)"
   cx="-8285.0869"
   cy="-6772.4678"
   r="445.67801" /><radialGradient
   inkscape:collect="always"
   xlink:href="#radial-gradient-5"
   id="radialGradient1216"
   gradientUnits="userSpaceOnUse"
   gradientTransform="matrix(0.30722757,0.03099999,-0.03099999,0.30722757,2594.0323,2422.3094)"
   cx="-8222.0508"
   cy="-6359.332"
   r="408.95801" /><radialGradient
   inkscape:collect="always"
   xlink:href="#radial-gradient-6"
   id="radialGradient1218"
   gradientUnits="userSpaceOnUse"
   gradientTransform="matrix(0.25203246,0,0,0.25203246,-0.96070953,3.495935)"
   cx="750.18903"
   cy="396.04099"
   fx="778.1665"
   fy="382.2124"
   r="782.17999" /><radialGradient
   inkscape:collect="always"
   xlink:href="#radial-gradient-7"
   id="radialGradient1220"
   gradientUnits="userSpaceOnUse"
   gradientTransform="matrix(0.25203246,0,0,0.25203246,-0.96070953,3.495935)"
   cx="691.33899"
   cy="3.289"
   r="923.61499" /><linearGradient
   inkscape:collect="always"
   xlink:href="#linear-gradient-2"
   id="linearGradient1222"
   gradientUnits="userSpaceOnUse"
   gradientTransform="matrix(0.30722757,0.03099999,-0.03099999,0.30722757,2594.0323,2422.3094)"
   x1="-8944.6504"
   y1="-6677.7422"
   x2="-8660.2891"
   y2="-6750.2261" /><linearGradient
   inkscape:collect="always"
   xlink:href="#linear-gradient-4"
   id="linearGradient1224"
   gradientUnits="userSpaceOnUse"
   gradientTransform="matrix(0.2507723,0.02520325,-0.02520325,0.2507723,76.019833,-58.622757)"
   x1="22.040001"
   y1="718.82703"
   x2="116.148"
   y2="825.71399" /><linearGradient
   inkscape:collect="always"
   xlink:href="#linear-gradient-5"
   id="linearGradient1226"
   gradientUnits="userSpaceOnUse"
   gradientTransform="matrix(0.2507723,0.02520325,-0.02520325,0.2507723,76.019833,-58.622757)"
   x1="200.104"
   y1="904.61603"
   x2="200.17101"
   y2="829.83502" /><linearGradient
   inkscape:collect="always"
   xlink:href="#linear-gradient-6"
   id="linearGradient1228"
   gradientUnits="userSpaceOnUse"
   gradientTransform="matrix(0.25203246,0,0,0.25203246,-0.96070953,3.495935)"
   x1="655.53101"
   y1="38.119999"
   x2="961.18701"
   y2="721.61499" /><linearGradient
   inkscape:collect="always"
   xlink:href="#linear-gradient-7"
   id="linearGradient1230"
   gradientUnits="userSpaceOnUse"
   gradientTransform="matrix(0.25203246,0,0,0.25203246,-0.96070953,3.495935)"
   x1="715.88501"
   y1="431.20999"
   x2="571.09802"
   y2="819.96002" /></defs><sodipodi:namedview
   pagecolor="#ffffff"
   bordercolor="#666666"
   borderopacity="1"
   objecttolerance="10"
   gridtolerance="10"
   guidetolerance="10"
   inkscape:pageopacity="0"
   inkscape:pageshadow="2"
   inkscape:window-width="1885"
   inkscape:window-height="1536"
   id="namedview249"
   showgrid="false"
   inkscape:zoom="2.6074563"
   inkscape:cx="164.55965"
   inkscape:cy="96.826141"
   inkscape:window-x="70"
   inkscape:window-y="27"
   inkscape:window-maximized="0"
   inkscape:current-layer="layer7"
   inkscape:pagecheckerboard="true" />
<g
   inkscape:groupmode="layer"
   id="layer4"
   inkscape:label="Squircle-Background"
   style="display:inline"><rect
     style="display:inline;fill:#0068bf;fill-opacity:1;stroke-width:1.41822851"
     id="rect1101"
     width="248"
     height="248"
     x="4"
     y="4"
     ry="25.455845" /></g>
<g
   inkscape:groupmode="layer"
   id="layer3"
   inkscape:label="Circle-Background"
   style="display:none"><path
     style="fill:#0068bf;fill-opacity:1;stroke-width:1.00263107"
     inkscape:connector-curvature="0"
     id="path25-1"
     d="M 127.94981,4.0000005 C 59.490986,4.0000005 4.0001356,59.500001 4.0001356,128 3.8996056,196.6 59.490986,252 127.94981,252 196.50915,252 252,196.5 252,128 252,59.500001 196.50915,4.0000005 127.94981,4.0000005 Z" /></g><g
   inkscape:groupmode="layer"
   id="layer1"
   inkscape:label="Squircle-Icon"
   style="display:inline"><g
     id="g1163"
     transform="matrix(0.64516129,0,0,0.64516129,45.419356,45.419355)"><path
       clip-path="url(#clipPath1362)"
       style="display:inline;fill:#0068bf;fill-opacity:1;stroke-width:1.00263107"
       inkscape:connector-curvature="0"
       id="path1353"
       d="M 127.94981,4.0000005 C 59.490986,4.0000005 4.0001356,59.500001 4.0001356,128 3.8996056,196.6 59.490986,252 127.94981,252 196.50915,252 252,196.5 252,128 252,59.500001 196.50915,4.0000005 127.94981,4.0000005 Z" /><path
       d="m 201.99725,27.075588 c -6.03542,7.027673 -8.84634,22.84397 -2.72649,38.877519 6.11986,16.033549 15.5,12.551217 21.34715,28.901318 7.71799,21.573975 4.12552,50.554935 4.12552,50.554935 0,0 9.27832,26.86893 15.74397,-1.67173 C 254.79855,90.129573 201.99725,40.276796 201.99725,27.075588 Z"
       style="fill:url(#radial-gradient);stroke-width:0.25203246"
       id="path198"
       inkscape:connector-curvature="0" /><path
       d="m 212.17684,206.54236 a 62.22379,62.22379 0 0 1 -7.59197,4.5827 177.43085,177.43085 0 0 0 9.65284,-15.86821 c 2.38423,-2.63878 4.56834,-5.20397 6.34819,-7.97759 0.86624,-1.36273 1.84312,-3.0443 2.87721,-4.99503 6.2809,-11.31625 13.2065,-29.62969 13.40283,-48.44064 v -0.0454 c 0.005,-0.46298 0.007,-0.92622 0.004,-1.38996 a 64.923562,64.923562 0 0 0 -1.43961,-14.05031 c 0.0504,0.36066 0.0948,0.72107 0.14013,1.08148 -0.0557,-0.27724 -0.10258,-0.5575 -0.16231,-0.83524 0.0922,0.51263 0.16634,1.00813 0.24598,1.50791 1.28386,10.89209 0.36948,21.51652 -4.2044,29.34918 -0.0721,0.11442 -0.14618,0.22154 -0.21902,0.33344 2.37163,-11.9045 3.16503,-25.04875 0.52625,-38.20812 0,0 -1.05526,-6.39734 -8.9159,-25.818459 C 218.3161,74.589755 210.28105,65.425099 203.18205,58.748507 196.95937,51.049924 191.3078,45.88351 188.19242,42.603308 181.68469,35.750797 178.9572,30.614376 177.83717,27.262848 176.86609,26.775921 164.44542,14.709867 163.45871,14.25016 c -5.42147,8.405787 -22.47171,34.698569 -14.36106,59.264425 3.67564,11.132778 12.97136,22.687206 22.69981,29.169225 0.4272,0.48794 5.78893,6.3114 8.33875,19.44607 2.63273,13.56993 1.24857,24.15857 -4.17013,39.81685 -6.3729,13.73703 -22.69981,27.31729 -37.98734,28.70649 -32.68256,2.9692 -44.647301,-16.40933 -44.647301,-16.40933 11.678171,4.66891 24.590301,3.69228 32.442631,-1.14826 7.91381,-4.89573 12.70092,-8.5255 16.58625,-7.09421 3.83089,1.42474 6.88049,-2.71086 4.14392,-6.99818 a 19.784548,19.784548 0 0 0 -20.01138,-8.71352 c -7.92213,1.28763 -15.17891,7.56324 -25.55911,1.48548 a 21.555832,21.555832 0 0 1 -1.947963,-1.27579 c -0.684268,-0.44988 2.224443,0.68477 1.545713,0.1734 -2.020038,-1.09735 -5.595119,-3.48863 -6.522598,-4.33924 -0.154496,-0.14164 1.56739,0.54918 1.412894,0.40728 -9.70577,-7.99245 -8.493494,-13.39149 -8.188535,-16.7778 0.24422,-2.7091 2.007187,-6.18059 4.977893,-7.5887 1.434821,0.78307 2.32878,1.38089 2.32878,1.38089 0,0 -0.611935,-1.25033 -0.942853,-1.9094 0.115935,-0.0504 0.226829,-0.037 0.34226,-0.0862 1.175479,0.56732 3.77469,2.04146 5.143226,2.94046 1.782373,1.25714 2.350453,2.37818 2.350453,2.37818 0,0 0.46929,-0.25834 0.12224,-1.35468 -0.12602,-0.44962 -0.66713,-1.87839 -2.43262,-3.32027 l 0.110391,0.0123 a 20.465036,20.465036 0 0 1 2.990869,2.077 c 0.49776,-1.80985 1.39298,-3.69959 1.19615,-7.0801 -0.12022,-2.37692 -0.0648,-2.99238 -0.48365,-3.91028 -0.37503,-0.78836 0.21019,-1.09584 0.86144,-0.27724 a 8.2732175,8.2732175 0 0 0 -0.55649,-1.86504 l 0.006,-0.0615 c 0.8128,-2.83184 17.20071,-10.19749 18.39358,-11.05843 a 16.975646,16.975646 0 0 0 4.82189,-5.242278 c 0.9116,-1.452463 1.59713,-3.490146 1.76422,-6.581072 0.0895,-2.228975 -0.94739,-3.713446 -17.51802,-5.448438 -4.53179,-0.446349 -7.19074,-3.73008 -8.70167,-6.760266 -0.27572,-0.652764 -0.55674,-1.244284 -0.83801,-1.835301 a 14.617883,14.617883 0 0 1 -0.6447,-2.124885 c 2.7091,-7.780998 7.26106,-14.360054 13.95428,-19.33089 0.3647,-0.332179 -1.45725,0.08519 -1.09281,-0.246992 0.42518,-0.387626 3.20233,-1.506398 3.72681,-1.75843 0.64066,-0.302439 -2.74262,-1.739024 -5.72921,-1.389203 -3.04178,0.342764 -3.68774,0.705691 -5.31108,1.393991 0.67369,-0.670658 2.81596,-1.549747 2.31366,-1.54395 -3.27919,0.502804 -7.35405,2.408926 -10.837394,4.567836 a 2.7045603,2.7045603 0 0 1 0.210447,-1.095837 c -1.623341,0.688552 -5.610243,3.475023 -6.770852,5.832535 a 11.172347,11.172347 0 0 0 0.06704,-1.360975 21.292458,21.292458 0 0 0 -3.325568,3.482584 l -0.06074,0.0552 c -9.415428,-3.793088 -17.700995,-4.038568 -24.712538,-2.337853 -1.53387,-1.540422 -2.283163,-0.414341 -5.773308,-8.082429 -0.237163,-0.461723 0.181967,0.455927 0,0 -0.57413,-1.486991 0.350073,1.984 0,0 -5.868324,4.630341 -13.58959,9.877908 -17.29598,13.582029 -0.04587,0.147692 4.323869,-1.234959 0,0 -1.514211,0.432488 -1.411381,1.330984 -1.641487,9.451218 -0.05545,0.615715 -0.0063,1.305276 -0.0562,1.859495 -2.960878,3.772422 -4.977389,6.966934 -5.74004,8.622283 -3.829129,6.59821 -8.046388,16.884158 -12.134354,33.155118 a 84.270581,84.270581 0 0 1 6.498405,-12.70269 c -3.399414,8.6364 -6.685666,22.19852 -7.342714,43.08369 a 121.88643,121.88643 0 0 1 3.158723,-12.76796 119.22093,119.22093 0 0 0 8.755607,50.67389 c 2.351211,5.75164 6.240324,14.48053 12.860965,24.0439 20.800995,21.88625 50.140598,35.51137 82.629338,35.51137 33.91652,2.6e-4 64.37288,-14.83916 85.30165,-38.40344 z"
       style="fill:url(#linear-gradient);stroke-width:0.25203246"
       id="path201"
       inkscape:connector-curvature="0" /><path
       d="m 187.08071,222.43855 c 41.04853,-4.75333 59.21981,-47.05446 35.88463,-47.88617 -21.07823,-0.67368 -55.32793,50.12926 -35.88463,47.88617 z"
       style="fill:url(#radial-gradient-3);stroke-width:0.25203246"
       id="path203"
       inkscape:connector-curvature="0" /><path
       d="m 225.92068,165.9117 c 28.24174,-16.43604 20.87811,-51.93885 20.87811,-51.93885 0,0 -10.89939,12.66161 -18.30386,32.84487 -7.31423,19.98592 -19.55368,29.02104 -2.57425,19.09398 z"
       style="fill:url(#radial-gradient-4);stroke-width:0.25203246"
       id="path205"
       inkscape:connector-curvature="0" /><path
       d="m 136.26441,243.44646 c 39.37428,12.56407 73.21543,-18.45381 52.35546,-28.81235 -18.96569,-9.34183 -71.04366,22.87144 -52.35546,28.81235 z"
       style="fill:url(#radial-gradient-5);stroke-width:0.25203246"
       id="path207"
       inkscape:connector-curvature="0" /><path
       clip-path="url(#clipPath1385)"
       d="m 228.85484,180.98576 c 0.95772,-1.35165 2.25317,-5.67955 3.39739,-7.61415 6.95156,-11.22124 7.00071,-20.16839 7.00071,-20.3733 4.19861,-20.97389 3.81779,-29.5382 1.23496,-45.37668 C 238.40838,94.868791 229.31732,76.598454 221.44181,67.800505 213.32636,58.736158 219.04397,61.689474 211.1861,55.068329 204.29881,47.43351 197.62096,39.87304 193.98413,36.832521 167.70319,14.861087 168.29698,10.194202 168.80306,9.3985352 c -0.0854,0.093504 -0.21095,0.2323739 -0.37099,0.4140893 -0.31126,-1.2407558 -0.53103,-2.2841701 -0.53103,-2.2841701 0,0 -14.36585,14.3658506 -17.39024,38.3089336 -1.97442,15.631305 3.87701,31.926464 12.34959,42.341454 a 96.116863,96.116863 0 0 0 14.86991,14.617878 v -0.007 c 6.40163,9.19339 9.92504,20.53787 9.92504,32.74129 0,30.55742 -24.78512,55.32893 -55.35943,55.32893 a 55.561816,55.561816 0 0 1 -12.38336,-1.39096 c -14.42533,-2.74917 -22.755511,-10.02611 -26.910014,-14.96619 -2.38095,-2.83134 -3.393365,-4.89523 -3.393365,-4.89523 12.924979,4.63009 27.215979,3.66153 35.906559,-1.13868 8.75788,-4.85541 14.05686,-8.45468 18.35729,-7.03549 4.23919,1.41289 7.61415,-2.68843 4.58699,-6.93997 -2.96667,-4.24548 -10.68618,-10.32577 -22.14811,-8.64118 -8.76795,1.27705 -16.79973,7.50049 -28.288121,1.47313 a 24.274002,24.274002 0 0 1 -2.155886,-1.2652 c -0.757357,-0.44635 2.461853,0.67922 1.710545,0.17188 -2.235528,-1.08827 -6.193194,-3.4599 -7.218966,-4.3032 -0.17113,-0.14038 1.734739,0.54464 1.562601,0.40325 -10.741875,-7.92617 -9.400811,-13.28034 -9.062835,-16.63868 0.270431,-2.68666 2.221414,-6.12943 5.509177,-7.52569 1.587805,0.77652 2.577284,1.3693 2.577284,1.3693 0,0 -0.677463,-1.24 -1.043666,-1.89352 0.128284,-0.0489 0.25052,-0.0366 0.378049,-0.0854 1.300991,0.56253 4.17769,2.02357 5.692405,2.91601 1.972658,1.24681 2.601479,2.35852 2.601479,2.35852 0,0 0.519439,-0.25606 0.135089,-1.34333 -0.140382,-0.44585 -0.738203,-1.86277 -2.692211,-3.2928 l 0.122236,0.0123 a 22.897401,22.897401 0 0 1 3.310195,2.05986 c 0.550945,-1.79473 1.541935,-3.66884 1.323925,-7.02138 -0.13307,-2.357 -0.0716,-2.96768 -0.53532,-3.87777 -0.415093,-0.7813 0.23288,-1.08676 0.95319,-0.27421 a 7.570551,7.570551 0 0 0 -0.61597,-1.85067 l 0.006,-0.061 c 0.89976,-2.8084 19.03728,-10.112807 20.35742,-10.966693 a 17.720402,17.720402 0 0 0 5.33679,-5.19943 c 1.00813,-1.440365 1.76776,-3.461162 1.95275,-6.52638 0.062,-1.381138 -0.36318,-2.474203 -5.16667,-3.519634 -2.883,-0.62756 -7.34322,-1.238235 -14.22295,-1.88369 C 103.823,78.645244 100.88001,75.388984 99.20778,72.383749 98.902868,71.736748 98.59186,71.14926 98.2806,70.564041 A 13.38494,13.38494 0 0 1 97.567096,68.45705 39.939584,39.939584 0 0 1 113.01139,49.286705 c 0.40326,-0.329659 -1.613,0.08443 -1.20975,-0.244976 0.47079,-0.38435 3.54433,-1.493796 4.12501,-1.743813 0.70897,-0.29891 -3.03548,-1.723902 -6.34088,-1.377609 -3.3664,0.339992 -4.08142,0.699642 -5.87815,1.38265 0.74576,-0.665114 3.11663,-1.537398 2.5609,-1.531097 -3.62927,0.49852 -8.140652,2.389016 -11.996748,4.529779 a 2.4386661,2.4386661 0 0 1 0.232878,-1.086764 c -1.79674,0.682756 -6.209324,3.446292 -7.493933,5.784145 a 9.9522578,9.9522578 0 0 0 0.0741,-1.349382 22.349734,22.349734 0 0 0 -3.679674,3.452845 l -0.06729,0.05494 C 72.917061,53.395842 63.74686,53.152378 55.986781,54.838728 54.28909,53.311159 51.559579,51.001281 47.696929,43.396454 c -0.262366,-0.457943 -0.403252,0.946382 -0.604878,0.494236 -1.500853,-3.481325 -2.407666,-9.185071 -2.258715,-13.117282 0,0 -3.104535,1.41491 -5.674006,7.324063 -0.477098,1.062317 -0.783065,1.648293 -1.088781,2.234268 -0.140634,0.170878 0.318821,-1.94065 0.24548,-1.825723 -0.446601,0.756097 -1.601918,1.812618 -2.109764,3.180146 -0.348813,1.013422 -0.838008,1.580999 -1.150276,2.844942 l -0.07334,0.115935 c -0.0252,-0.372504 0.0925,-1.532609 0.0068,-1.294691 a 59.504864,59.504864 0 0 0 -3.102016,7.520901 c -1.383406,4.548178 -2.993894,10.739103 -3.249202,18.7928 -0.0615,0.610675 -0.0068,1.294439 -0.06225,1.844122 -3.276422,3.74117 -5.508926,6.908966 -6.352983,8.550957 -4.235909,6.545535 -8.90355,16.746297 -13.4282891,32.882172 a 80.434395,80.434395 0 0 1 7.1925021,-12.59885 c -3.762592,8.56482 -7.3996728,22.01453 -8.1267864,42.72706 A 110.52178,110.52178 0 0 1 11.356621,130.4094 c -0.64974,13.81138 0.958983,30.93446 9.690396,50.25351 5.184308,11.36339 17.118297,34.43998 46.2782,52.44795 l -0.0025,0.002 c 0,0 9.919998,7.38455 26.971758,12.91893 1.260162,0.45719 2.536706,0.90732 3.839462,1.34409 -0.408796,-0.16508 -0.804235,-0.33873 -1.188333,-0.51717 a 122.20626,122.20626 0 0 0 34.982106,5.14146 c 44.15105,0.0375 57.17255,-17.69268 57.17255,-17.69268 0,0 -0.0459,0.0345 -0.12929,0.095 q 0.93454,-0.87985 1.80027,-1.829 c -6.96592,6.57805 -22.86312,7.01457 -28.80731,6.53999 10.1375,-2.97726 16.8083,-5.49582 29.78394,-10.46414 q 2.27761,-0.84431 4.65806,-1.92552 c 0.17163,-0.0756 0.34478,-0.15753 0.51717,-0.23591 0.31479,-0.14668 0.62655,-0.2853 0.94437,-0.43954 a 88.010995,88.010995 0 0 0 17.7083,-11.08615 c 13.03008,-10.40894 15.86519,-20.55502 17.34714,-27.24471 -0.20666,0.64117 -0.85061,2.13597 -1.303,3.10403 -3.35582,7.17839 -10.79733,11.58316 -18.87925,15.36087 a 173.6486,173.6486 0 0 0 10.68315,-15.73539 c 2.63802,-2.61685 3.46116,-6.71037 5.43105,-9.46105 z"
       style="fill:url(#radial-gradient-6);stroke-width:0.25203246"
       id="path209"
       inkscape:connector-curvature="0" /><path
       clip-path="url(#clipPath1377)"
       d="m 212.99494,205.87346 c 5.31284,-5.85748 10.08382,-12.55726 13.69771,-20.15453 9.3,-19.55318 23.67895,-52.06486 12.35413,-86.020189 C 230.09635,72.861569 217.8075,58.186979 202.20442,43.851877 176.86407,20.572646 169.78675,10.180088 169.78675,3.9999999 c 0,0 -29.2582,32.6152691 -16.56912,66.6325941 12.68908,34.017326 38.6769,32.770266 55.8703,68.269036 20.23191,41.77312 -16.36925,87.35798 -46.63709,100.11687 1.85319,-0.41156 67.2851,-15.21847 70.72383,-52.64504 -0.0779,0.6883 -1.55226,11.03978 -20.17973,19.5 z"
       style="fill:url(#radial-gradient-7);stroke-width:0.25203246"
       id="path211"
       inkscape:connector-curvature="0" /><path
       d="m 128.22911,84.492363 c 0.0991,-2.210325 -1.04744,-3.694796 -19.32635,-5.409373 -7.5204,-0.694349 -10.400119,-7.645153 -11.277948,-10.570493 -2.674065,6.947274 -3.778219,14.237313 -3.184683,23.055173 0.405773,5.776584 4.286821,11.97683 6.142031,15.61719 0,0 0.41233,-0.53582 0.60261,-0.73392 3.49342,-3.63708 18.13021,-9.178767 19.5053,-9.965613 1.51572,-0.957471 7.28449,-5.172462 7.53904,-11.992964 z"
       style="fill:url(#linear-gradient-2);stroke-width:0.25203246"
       id="path213"
       inkscape:connector-curvature="0" /><path
       d="m 96.032471,185.48857 c -17.572712,-7.50275 -37.550821,-18.08458 -36.79674,-42.1242 1.027033,-31.66006 29.524343,-25.4026 29.524343,-25.4026 -1.075423,0.26186 -3.950609,2.30912 -4.969576,4.49122 -1.076935,2.72875 -3.04178,8.89069 2.911227,15.34877 9.347632,10.12969 -19.204874,24.03281 24.866275,50.29737 1.11147,0.60487 -10.33106,-0.36041 -15.535025,-2.61056 z"
       style="fill:url(#linear-gradient-4);stroke-width:0.25203246"
       id="path217"
       inkscape:connector-curvature="0" /><path
       d="m 89.789626,169.71134 c 12.460994,4.33672 26.977554,3.57609 35.668394,-1.22437 5.81817,-3.23887 13.28211,-8.42645 17.87464,-7.14588 -3.97631,-1.57167 -6.98785,-2.30609 -10.61056,-2.48554 -0.61698,0 -1.35644,-0.0131 -2.02836,-0.0806 a 34.333878,34.333878 0 0 0 -3.97128,0.2175 c -2.24309,0.20616 -4.72964,1.62133 -6.99012,1.39425 -0.12223,-0.0123 2.19269,-0.95118 2.00442,-0.90858 -1.19766,0.24976 -2.4989,0.3037 -3.87374,0.47407 -0.8738,0.0973 -1.62536,0.20667 -2.49285,0.24271 -25.954812,2.201 -47.890457,-14.06669 -47.890457,-14.06669 -1.867056,6.28821 8.358909,18.72601 22.310166,23.58318 z"
       style="fill:url(#linear-gradient-5);stroke-width:0.25203246"
       id="path219"
       inkscape:connector-curvature="0" /><path
       clip-path="url(#clipPath1381)"
       d="m 212.94882,206.04081 c 26.2522,-25.77536 39.53431,-57.10677 33.91928,-92.24867 0,0 2.24309,18.02033 -6.2625,36.45095 4.0862,-17.99335 4.56179,-40.35392 -6.29451,-63.509151 C 219.82099,55.826947 195.99006,39.564048 186.89194,32.779334 173.10702,22.499182 167.39269,12.032274 167.28961,9.8723562 c -4.11796,8.4372908 -16.57517,37.3512108 -1.33829,62.2520178 14.27511,23.329132 36.76271,30.253726 52.50541,51.653296 29.00264,39.42292 -5.50791,82.26314 -5.50791,82.26314 z"
       style="fill:url(#linear-gradient-6);stroke-width:0.25203246"
       id="path221"
       inkscape:connector-curvature="0" /><path
       d="m 209.18748,138.97624 c -9.17448,-18.9531 -20.62532,-27.21976 -31.45718,-36.17952 1.26017,1.76423 1.57067,2.38751 2.2683,3.52846 9.53363,10.16094 23.592,34.94581 13.38544,66.05947 -19.21218,58.56604 -96.060407,30.98739 -104.117129,23.24042 3.259284,33.89559 59.992799,50.11539 96.931689,28.13438 21.0195,-19.89771 38.02363,-53.72349 22.98888,-84.78321 z"
       style="fill:url(#linear-gradient-7);stroke-width:0.25203246"
       id="path223"
       inkscape:connector-curvature="0" /></g></g><g
   inkscape:groupmode="layer"
   id="layer6"
   inkscape:label="Standard-Icon"
   style="display:none"><g
     style="display:inline"
     transform="translate(1.7213529e-6)"
     id="g1192"><path
       d="M 127.94981,4.0000005 C 59.490986,4.0000005 4.0001356,59.500001 4.0001356,128 3.8996056,196.6 59.490986,252 127.94981,252 196.50915,252 252,196.5 252,128 252,59.500001 196.50915,4.0000005 127.94981,4.0000005 Z"
       id="path1166"
       inkscape:connector-curvature="0"
       style="display:inline;fill:#0068bf;fill-opacity:1;stroke-width:1.00263107"
       clip-path="url(#clipPath1362)" /><path
       inkscape:connector-curvature="0"
       id="path1168"
       style="fill:url(#radialGradient1208);stroke-width:0.25203246"
       d="m 201.99725,27.075588 c -6.03542,7.027673 -8.84634,22.84397 -2.72649,38.877519 6.11986,16.033549 15.5,12.551217 21.34715,28.901318 7.71799,21.573975 4.12552,50.554935 4.12552,50.554935 0,0 9.27832,26.86893 15.74397,-1.67173 C 254.79855,90.129573 201.99725,40.276796 201.99725,27.075588 Z" /><path
       inkscape:connector-curvature="0"
       id="path1170"
       style="fill:url(#linearGradient1210);stroke-width:0.25203246"
       d="m 212.17684,206.54236 a 62.22379,62.22379 0 0 1 -7.59197,4.5827 177.43085,177.43085 0 0 0 9.65284,-15.86821 c 2.38423,-2.63878 4.56834,-5.20397 6.34819,-7.97759 0.86624,-1.36273 1.84312,-3.0443 2.87721,-4.99503 6.2809,-11.31625 13.2065,-29.62969 13.40283,-48.44064 v -0.0454 c 0.005,-0.46298 0.007,-0.92622 0.004,-1.38996 a 64.923562,64.923562 0 0 0 -1.43961,-14.05031 c 0.0504,0.36066 0.0948,0.72107 0.14013,1.08148 -0.0557,-0.27724 -0.10258,-0.5575 -0.16231,-0.83524 0.0922,0.51263 0.16634,1.00813 0.24598,1.50791 1.28386,10.89209 0.36948,21.51652 -4.2044,29.34918 -0.0721,0.11442 -0.14618,0.22154 -0.21902,0.33344 2.37163,-11.9045 3.16503,-25.04875 0.52625,-38.20812 0,0 -1.05526,-6.39734 -8.9159,-25.818459 C 218.3161,74.589755 210.28105,65.425099 203.18205,58.748507 196.95937,51.049924 191.3078,45.88351 188.19242,42.603308 181.68469,35.750797 178.9572,30.614376 177.83717,27.262848 176.86609,26.775921 164.44542,14.709867 163.45871,14.25016 c -5.42147,8.405787 -22.47171,34.698569 -14.36106,59.264425 3.67564,11.132778 12.97136,22.687206 22.69981,29.169225 0.4272,0.48794 5.78893,6.3114 8.33875,19.44607 2.63273,13.56993 1.24857,24.15857 -4.17013,39.81685 -6.3729,13.73703 -22.69981,27.31729 -37.98734,28.70649 -32.68256,2.9692 -44.647301,-16.40933 -44.647301,-16.40933 11.678171,4.66891 24.590301,3.69228 32.442631,-1.14826 7.91381,-4.89573 12.70092,-8.5255 16.58625,-7.09421 3.83089,1.42474 6.88049,-2.71086 4.14392,-6.99818 a 19.784548,19.784548 0 0 0 -20.01138,-8.71352 c -7.92213,1.28763 -15.17891,7.56324 -25.55911,1.48548 a 21.555832,21.555832 0 0 1 -1.947963,-1.27579 c -0.684268,-0.44988 2.224443,0.68477 1.545713,0.1734 -2.020038,-1.09735 -5.595119,-3.48863 -6.522598,-4.33924 -0.154496,-0.14164 1.56739,0.54918 1.412894,0.40728 -9.70577,-7.99245 -8.493494,-13.39149 -8.188535,-16.7778 0.24422,-2.7091 2.007187,-6.18059 4.977893,-7.5887 1.434821,0.78307 2.32878,1.38089 2.32878,1.38089 0,0 -0.611935,-1.25033 -0.942853,-1.9094 0.115935,-0.0504 0.226829,-0.037 0.34226,-0.0862 1.175479,0.56732 3.77469,2.04146 5.143226,2.94046 1.782373,1.25714 2.350453,2.37818 2.350453,2.37818 0,0 0.46929,-0.25834 0.12224,-1.35468 -0.12602,-0.44962 -0.66713,-1.87839 -2.43262,-3.32027 l 0.110391,0.0123 a 20.465036,20.465036 0 0 1 2.990869,2.077 c 0.49776,-1.80985 1.39298,-3.69959 1.19615,-7.0801 -0.12022,-2.37692 -0.0648,-2.99238 -0.48365,-3.91028 -0.37503,-0.78836 0.21019,-1.09584 0.86144,-0.27724 a 8.2732175,8.2732175 0 0 0 -0.55649,-1.86504 l 0.006,-0.0615 c 0.8128,-2.83184 17.20071,-10.19749 18.39358,-11.05843 a 16.975646,16.975646 0 0 0 4.82189,-5.242278 c 0.9116,-1.452463 1.59713,-3.490146 1.76422,-6.581072 0.0895,-2.228975 -0.94739,-3.713446 -17.51802,-5.448438 -4.53179,-0.446349 -7.19074,-3.73008 -8.70167,-6.760266 -0.27572,-0.652764 -0.55674,-1.244284 -0.83801,-1.835301 a 14.617883,14.617883 0 0 1 -0.6447,-2.124885 c 2.7091,-7.780998 7.26106,-14.360054 13.95428,-19.33089 0.3647,-0.332179 -1.45725,0.08519 -1.09281,-0.246992 0.42518,-0.387626 3.20233,-1.506398 3.72681,-1.75843 0.64066,-0.302439 -2.74262,-1.739024 -5.72921,-1.389203 -3.04178,0.342764 -3.68774,0.705691 -5.31108,1.393991 0.67369,-0.670658 2.81596,-1.549747 2.31366,-1.54395 -3.27919,0.502804 -7.35405,2.408926 -10.837394,4.567836 a 2.7045603,2.7045603 0 0 1 0.210447,-1.095837 c -1.623341,0.688552 -5.610243,3.475023 -6.770852,5.832535 a 11.172347,11.172347 0 0 0 0.06704,-1.360975 21.292458,21.292458 0 0 0 -3.325568,3.482584 l -0.06074,0.0552 c -9.415428,-3.793088 -17.700995,-4.038568 -24.712538,-2.337853 -1.53387,-1.540422 -2.283163,-0.414341 -5.773308,-8.082429 -0.237163,-0.461723 0.181967,0.455927 0,0 -0.57413,-1.486991 0.350073,1.984 0,0 -5.868324,4.630341 -13.58959,9.877908 -17.29598,13.582029 -0.04587,0.147692 4.323869,-1.234959 0,0 -1.514211,0.432488 -1.411381,1.330984 -1.641487,9.451218 -0.05545,0.615715 -0.0063,1.305276 -0.0562,1.859495 -2.960878,3.772422 -4.977389,6.966934 -5.74004,8.622283 -3.829129,6.59821 -8.046388,16.884158 -12.134354,33.155118 a 84.270581,84.270581 0 0 1 6.498405,-12.70269 c -3.399414,8.6364 -6.685666,22.19852 -7.342714,43.08369 a 121.88643,121.88643 0 0 1 3.158723,-12.76796 119.22093,119.22093 0 0 0 8.755607,50.67389 c 2.351211,5.75164 6.240324,14.48053 12.860965,24.0439 20.800995,21.88625 50.140598,35.51137 82.629338,35.51137 33.91652,2.6e-4 64.37288,-14.83916 85.30165,-38.40344 z" /><path
       inkscape:connector-curvature="0"
       id="path1172"
       style="fill:url(#radialGradient1212);stroke-width:0.25203246"
       d="m 187.08071,222.43855 c 41.04853,-4.75333 59.21981,-47.05446 35.88463,-47.88617 -21.07823,-0.67368 -55.32793,50.12926 -35.88463,47.88617 z" /><path
       inkscape:connector-curvature="0"
       id="path1174"
       style="fill:url(#radialGradient1214);stroke-width:0.25203246"
       d="m 225.92068,165.9117 c 28.24174,-16.43604 20.87811,-51.93885 20.87811,-51.93885 0,0 -10.89939,12.66161 -18.30386,32.84487 -7.31423,19.98592 -19.55368,29.02104 -2.57425,19.09398 z" /><path
       inkscape:connector-curvature="0"
       id="path1176"
       style="fill:url(#radialGradient1216);stroke-width:0.25203246"
       d="m 136.26441,243.44646 c 39.37428,12.56407 73.21543,-18.45381 52.35546,-28.81235 -18.96569,-9.34183 -71.04366,22.87144 -52.35546,28.81235 z" /><path
       inkscape:connector-curvature="0"
       id="path1178"
       style="fill:url(#radialGradient1218);stroke-width:0.25203246"
       d="m 228.85484,180.98576 c 0.95772,-1.35165 2.25317,-5.67955 3.39739,-7.61415 6.95156,-11.22124 7.00071,-20.16839 7.00071,-20.3733 4.19861,-20.97389 3.81779,-29.5382 1.23496,-45.37668 C 238.40838,94.868791 229.31732,76.598454 221.44181,67.800505 213.32636,58.736158 219.04397,61.689474 211.1861,55.068329 204.29881,47.43351 197.62096,39.87304 193.98413,36.832521 167.70319,14.861087 168.29698,10.194202 168.80306,9.3985352 c -0.0854,0.093504 -0.21095,0.2323739 -0.37099,0.4140893 -0.31126,-1.2407558 -0.53103,-2.2841701 -0.53103,-2.2841701 0,0 -14.36585,14.3658506 -17.39024,38.3089336 -1.97442,15.631305 3.87701,31.926464 12.34959,42.341454 a 96.116863,96.116863 0 0 0 14.86991,14.617878 v -0.007 c 6.40163,9.19339 9.92504,20.53787 9.92504,32.74129 0,30.55742 -24.78512,55.32893 -55.35943,55.32893 a 55.561816,55.561816 0 0 1 -12.38336,-1.39096 c -14.42533,-2.74917 -22.755511,-10.02611 -26.910014,-14.96619 -2.38095,-2.83134 -3.393365,-4.89523 -3.393365,-4.89523 12.924979,4.63009 27.215979,3.66153 35.906559,-1.13868 8.75788,-4.85541 14.05686,-8.45468 18.35729,-7.03549 4.23919,1.41289 7.61415,-2.68843 4.58699,-6.93997 -2.96667,-4.24548 -10.68618,-10.32577 -22.14811,-8.64118 -8.76795,1.27705 -16.79973,7.50049 -28.288121,1.47313 a 24.274002,24.274002 0 0 1 -2.155886,-1.2652 c -0.757357,-0.44635 2.461853,0.67922 1.710545,0.17188 -2.235528,-1.08827 -6.193194,-3.4599 -7.218966,-4.3032 -0.17113,-0.14038 1.734739,0.54464 1.562601,0.40325 -10.741875,-7.92617 -9.400811,-13.28034 -9.062835,-16.63868 0.270431,-2.68666 2.221414,-6.12943 5.509177,-7.52569 1.587805,0.77652 2.577284,1.3693 2.577284,1.3693 0,0 -0.677463,-1.24 -1.043666,-1.89352 0.128284,-0.0489 0.25052,-0.0366 0.378049,-0.0854 1.300991,0.56253 4.17769,2.02357 5.692405,2.91601 1.972658,1.24681 2.601479,2.35852 2.601479,2.35852 0,0 0.519439,-0.25606 0.135089,-1.34333 -0.140382,-0.44585 -0.738203,-1.86277 -2.692211,-3.2928 l 0.122236,0.0123 a 22.897401,22.897401 0 0 1 3.310195,2.05986 c 0.550945,-1.79473 1.541935,-3.66884 1.323925,-7.02138 -0.13307,-2.357 -0.0716,-2.96768 -0.53532,-3.87777 -0.415093,-0.7813 0.23288,-1.08676 0.95319,-0.27421 a 7.570551,7.570551 0 0 0 -0.61597,-1.85067 l 0.006,-0.061 c 0.89976,-2.8084 19.03728,-10.112807 20.35742,-10.966693 a 17.720402,17.720402 0 0 0 5.33679,-5.19943 c 1.00813,-1.440365 1.76776,-3.461162 1.95275,-6.52638 0.062,-1.381138 -0.36318,-2.474203 -5.16667,-3.519634 -2.883,-0.62756 -7.34322,-1.238235 -14.22295,-1.88369 C 103.823,78.645244 100.88001,75.388984 99.20778,72.383749 98.902868,71.736748 98.59186,71.14926 98.2806,70.564041 A 13.38494,13.38494 0 0 1 97.567096,68.45705 39.939584,39.939584 0 0 1 113.01139,49.286705 c 0.40326,-0.329659 -1.613,0.08443 -1.20975,-0.244976 0.47079,-0.38435 3.54433,-1.493796 4.12501,-1.743813 0.70897,-0.29891 -3.03548,-1.723902 -6.34088,-1.377609 -3.3664,0.339992 -4.08142,0.699642 -5.87815,1.38265 0.74576,-0.665114 3.11663,-1.537398 2.5609,-1.531097 -3.62927,0.49852 -8.140652,2.389016 -11.996748,4.529779 a 2.4386661,2.4386661 0 0 1 0.232878,-1.086764 c -1.79674,0.682756 -6.209324,3.446292 -7.493933,5.784145 a 9.9522578,9.9522578 0 0 0 0.0741,-1.349382 22.349734,22.349734 0 0 0 -3.679674,3.452845 l -0.06729,0.05494 C 72.917061,53.395842 63.74686,53.152378 55.986781,54.838728 54.28909,53.311159 51.559579,51.001281 47.696929,43.396454 c -0.262366,-0.457943 -0.403252,0.946382 -0.604878,0.494236 -1.500853,-3.481325 -2.407666,-9.185071 -2.258715,-13.117282 0,0 -3.104535,1.41491 -5.674006,7.324063 -0.477098,1.062317 -0.783065,1.648293 -1.088781,2.234268 -0.140634,0.170878 0.318821,-1.94065 0.24548,-1.825723 -0.446601,0.756097 -1.601918,1.812618 -2.109764,3.180146 -0.348813,1.013422 -0.838008,1.580999 -1.150276,2.844942 l -0.07334,0.115935 c -0.0252,-0.372504 0.0925,-1.532609 0.0068,-1.294691 a 59.504864,59.504864 0 0 0 -3.102016,7.520901 c -1.383406,4.548178 -2.993894,10.739103 -3.249202,18.7928 -0.0615,0.610675 -0.0068,1.294439 -0.06225,1.844122 -3.276422,3.74117 -5.508926,6.908966 -6.352983,8.550957 -4.235909,6.545535 -8.90355,16.746297 -13.4282891,32.882172 a 80.434395,80.434395 0 0 1 7.1925021,-12.59885 c -3.762592,8.56482 -7.3996728,22.01453 -8.1267864,42.72706 A 110.52178,110.52178 0 0 1 11.356621,130.4094 c -0.64974,13.81138 0.958983,30.93446 9.690396,50.25351 5.184308,11.36339 17.118297,34.43998 46.2782,52.44795 l -0.0025,0.002 c 0,0 9.919998,7.38455 26.971758,12.91893 1.260162,0.45719 2.536706,0.90732 3.839462,1.34409 -0.408796,-0.16508 -0.804235,-0.33873 -1.188333,-0.51717 a 122.20626,122.20626 0 0 0 34.982106,5.14146 c 44.15105,0.0375 57.17255,-17.69268 57.17255,-17.69268 0,0 -0.0459,0.0345 -0.12929,0.095 q 0.93454,-0.87985 1.80027,-1.829 c -6.96592,6.57805 -22.86312,7.01457 -28.80731,6.53999 10.1375,-2.97726 16.8083,-5.49582 29.78394,-10.46414 q 2.27761,-0.84431 4.65806,-1.92552 c 0.17163,-0.0756 0.34478,-0.15753 0.51717,-0.23591 0.31479,-0.14668 0.62655,-0.2853 0.94437,-0.43954 a 88.010995,88.010995 0 0 0 17.7083,-11.08615 c 13.03008,-10.40894 15.86519,-20.55502 17.34714,-27.24471 -0.20666,0.64117 -0.85061,2.13597 -1.303,3.10403 -3.35582,7.17839 -10.79733,11.58316 -18.87925,15.36087 a 173.6486,173.6486 0 0 0 10.68315,-15.73539 c 2.63802,-2.61685 3.46116,-6.71037 5.43105,-9.46105 z"
       clip-path="url(#clipPath1385)" /><path
       inkscape:connector-curvature="0"
       id="path1180"
       style="fill:url(#radialGradient1220);stroke-width:0.25203246"
       d="m 212.99494,205.87346 c 5.31284,-5.85748 10.08382,-12.55726 13.69771,-20.15453 9.3,-19.55318 23.67895,-52.06486 12.35413,-86.020189 C 230.09635,72.861569 217.8075,58.186979 202.20442,43.851877 176.86407,20.572646 169.78675,10.180088 169.78675,3.9999999 c 0,0 -29.2582,32.6152691 -16.56912,66.6325941 12.68908,34.017326 38.6769,32.770266 55.8703,68.269036 20.23191,41.77312 -16.36925,87.35798 -46.63709,100.11687 1.85319,-0.41156 67.2851,-15.21847 70.72383,-52.64504 -0.0779,0.6883 -1.55226,11.03978 -20.17973,19.5 z"
       clip-path="url(#clipPath1377)" /><path
       inkscape:connector-curvature="0"
       id="path1182"
       style="fill:url(#linearGradient1222);stroke-width:0.25203246"
       d="m 128.22911,84.492363 c 0.0991,-2.210325 -1.04744,-3.694796 -19.32635,-5.409373 -7.5204,-0.694349 -10.400119,-7.645153 -11.277948,-10.570493 -2.674065,6.947274 -3.778219,14.237313 -3.184683,23.055173 0.405773,5.776584 4.286821,11.97683 6.142031,15.61719 0,0 0.41233,-0.53582 0.60261,-0.73392 3.49342,-3.63708 18.13021,-9.178767 19.5053,-9.965613 1.51572,-0.957471 7.28449,-5.172462 7.53904,-11.992964 z" /><path
       inkscape:connector-curvature="0"
       id="path1184"
       style="fill:url(#linearGradient1224);stroke-width:0.25203246"
       d="m 96.032471,185.48857 c -17.572712,-7.50275 -37.550821,-18.08458 -36.79674,-42.1242 1.027033,-31.66006 29.524343,-25.4026 29.524343,-25.4026 -1.075423,0.26186 -3.950609,2.30912 -4.969576,4.49122 -1.076935,2.72875 -3.04178,8.89069 2.911227,15.34877 9.347632,10.12969 -19.204874,24.03281 24.866275,50.29737 1.11147,0.60487 -10.33106,-0.36041 -15.535025,-2.61056 z" /><path
       inkscape:connector-curvature="0"
       id="path1186"
       style="fill:url(#linearGradient1226);stroke-width:0.25203246"
       d="m 89.789626,169.71134 c 12.460994,4.33672 26.977554,3.57609 35.668394,-1.22437 5.81817,-3.23887 13.28211,-8.42645 17.87464,-7.14588 -3.97631,-1.57167 -6.98785,-2.30609 -10.61056,-2.48554 -0.61698,0 -1.35644,-0.0131 -2.02836,-0.0806 a 34.333878,34.333878 0 0 0 -3.97128,0.2175 c -2.24309,0.20616 -4.72964,1.62133 -6.99012,1.39425 -0.12223,-0.0123 2.19269,-0.95118 2.00442,-0.90858 -1.19766,0.24976 -2.4989,0.3037 -3.87374,0.47407 -0.8738,0.0973 -1.62536,0.20667 -2.49285,0.24271 -25.954812,2.201 -47.890457,-14.06669 -47.890457,-14.06669 -1.867056,6.28821 8.358909,18.72601 22.310166,23.58318 z" /><path
       inkscape:connector-curvature="0"
       id="path1188"
       style="fill:url(#linearGradient1228);stroke-width:0.25203246"
       d="m 212.94882,206.04081 c 26.2522,-25.77536 39.53431,-57.10677 33.91928,-92.24867 0,0 2.24309,18.02033 -6.2625,36.45095 4.0862,-17.99335 4.56179,-40.35392 -6.29451,-63.509151 C 219.82099,55.826947 195.99006,39.564048 186.89194,32.779334 173.10702,22.499182 167.39269,12.032274 167.28961,9.8723562 c -4.11796,8.4372908 -16.57517,37.3512108 -1.33829,62.2520178 14.27511,23.329132 36.76271,30.253726 52.50541,51.653296 29.00264,39.42292 -5.50791,82.26314 -5.50791,82.26314 z"
       clip-path="url(#clipPath1381)" /><path
       inkscape:connector-curvature="0"
       id="path1190"
       style="fill:url(#linearGradient1230);stroke-width:0.25203246"
       d="m 209.18748,138.97624 c -9.17448,-18.9531 -20.62532,-27.21976 -31.45718,-36.17952 1.26017,1.76423 1.57067,2.38751 2.2683,3.52846 9.53363,10.16094 23.592,34.94581 13.38544,66.05947 -19.21218,58.56604 -96.060407,30.98739 -104.117129,23.24042 3.259284,33.89559 59.992799,50.11539 96.931689,28.13438 21.0195,-19.89771 38.02363,-53.72349 22.98888,-84.78321 z" /></g></g><g
   inkscape:groupmode="layer"
   id="layer7"
   inkscape:label="Circle-Icon"
   style="display:none"><g
     id="g1259"
     transform="translate(1.7213529e-6)"
     style="display:inline"><path
       clip-path="url(#clipPath1362)"
       style="display:inline;fill:#0068bf;fill-opacity:1;stroke-width:1.00263107"
       inkscape:connector-curvature="0"
       id="path1233"
       d="M 127.94981,4.0000005 C 59.490986,4.0000005 4.0001356,59.500001 4.0001356,128 3.8996056,196.6 59.490986,252 127.94981,252 196.50915,252 252,196.5 252,128 252,59.500001 196.50915,4.0000005 127.94981,4.0000005 Z" /><path
       d="m 201.99725,27.075588 c -6.03542,7.027673 -8.84634,22.84397 -2.72649,38.877519 6.11986,16.033549 15.5,12.551217 21.34715,28.901318 7.71799,21.573975 4.12552,50.554935 4.12552,50.554935 0,0 9.27832,26.86893 15.74397,-1.67173 C 254.79855,90.129573 201.99725,40.276796 201.99725,27.075588 Z"
       style="fill:url(#radialGradient1208);stroke-width:0.25203246"
       id="path1235"
       inkscape:connector-curvature="0" /><path
       d="m 212.17684,206.54236 a 62.22379,62.22379 0 0 1 -7.59197,4.5827 177.43085,177.43085 0 0 0 9.65284,-15.86821 c 2.38423,-2.63878 4.56834,-5.20397 6.34819,-7.97759 0.86624,-1.36273 1.84312,-3.0443 2.87721,-4.99503 6.2809,-11.31625 13.2065,-29.62969 13.40283,-48.44064 v -0.0454 c 0.005,-0.46298 0.007,-0.92622 0.004,-1.38996 a 64.923562,64.923562 0 0 0 -1.43961,-14.05031 c 0.0504,0.36066 0.0948,0.72107 0.14013,1.08148 -0.0557,-0.27724 -0.10258,-0.5575 -0.16231,-0.83524 0.0922,0.51263 0.16634,1.00813 0.24598,1.50791 1.28386,10.89209 0.36948,21.51652 -4.2044,29.34918 -0.0721,0.11442 -0.14618,0.22154 -0.21902,0.33344 2.37163,-11.9045 3.16503,-25.04875 0.52625,-38.20812 0,0 -1.05526,-6.39734 -8.9159,-25.818459 C 218.3161,74.589755 210.28105,65.425099 203.18205,58.748507 196.95937,51.049924 191.3078,45.88351 188.19242,42.603308 181.68469,35.750797 178.9572,30.614376 177.83717,27.262848 176.86609,26.775921 164.44542,14.709867 163.45871,14.25016 c -5.42147,8.405787 -22.47171,34.698569 -14.36106,59.264425 3.67564,11.132778 12.97136,22.687206 22.69981,29.169225 0.4272,0.48794 5.78893,6.3114 8.33875,19.44607 2.63273,13.56993 1.24857,24.15857 -4.17013,39.81685 -6.3729,13.73703 -22.69981,27.31729 -37.98734,28.70649 -32.68256,2.9692 -44.647301,-16.40933 -44.647301,-16.40933 11.678171,4.66891 24.590301,3.69228 32.442631,-1.14826 7.91381,-4.89573 12.70092,-8.5255 16.58625,-7.09421 3.83089,1.42474 6.88049,-2.71086 4.14392,-6.99818 a 19.784548,19.784548 0 0 0 -20.01138,-8.71352 c -7.92213,1.28763 -15.17891,7.56324 -25.55911,1.48548 a 21.555832,21.555832 0 0 1 -1.947963,-1.27579 c -0.684268,-0.44988 2.224443,0.68477 1.545713,0.1734 -2.020038,-1.09735 -5.595119,-3.48863 -6.522598,-4.33924 -0.154496,-0.14164 1.56739,0.54918 1.412894,0.40728 -9.70577,-7.99245 -8.493494,-13.39149 -8.188535,-16.7778 0.24422,-2.7091 2.007187,-6.18059 4.977893,-7.5887 1.434821,0.78307 2.32878,1.38089 2.32878,1.38089 0,0 -0.611935,-1.25033 -0.942853,-1.9094 0.115935,-0.0504 0.226829,-0.037 0.34226,-0.0862 1.175479,0.56732 3.77469,2.04146 5.143226,2.94046 1.782373,1.25714 2.350453,2.37818 2.350453,2.37818 0,0 0.46929,-0.25834 0.12224,-1.35468 -0.12602,-0.44962 -0.66713,-1.87839 -2.43262,-3.32027 l 0.110391,0.0123 a 20.465036,20.465036 0 0 1 2.990869,2.077 c 0.49776,-1.80985 1.39298,-3.69959 1.19615,-7.0801 -0.12022,-2.37692 -0.0648,-2.99238 -0.48365,-3.91028 -0.37503,-0.78836 0.21019,-1.09584 0.86144,-0.27724 a 8.2732175,8.2732175 0 0 0 -0.55649,-1.86504 l 0.006,-0.0615 c 0.8128,-2.83184 17.20071,-10.19749 18.39358,-11.05843 a 16.975646,16.975646 0 0 0 4.82189,-5.242278 c 0.9116,-1.452463 1.59713,-3.490146 1.76422,-6.581072 0.0895,-2.228975 -0.94739,-3.713446 -17.51802,-5.448438 -4.53179,-0.446349 -7.19074,-3.73008 -8.70167,-6.760266 -0.27572,-0.652764 -0.55674,-1.244284 -0.83801,-1.835301 a 14.617883,14.617883 0 0 1 -0.6447,-2.124885 c 2.7091,-7.780998 7.26106,-14.360054 13.95428,-19.33089 0.3647,-0.332179 -1.45725,0.08519 -1.09281,-0.246992 0.42518,-0.387626 3.20233,-1.506398 3.72681,-1.75843 0.64066,-0.302439 -2.74262,-1.739024 -5.72921,-1.389203 -3.04178,0.342764 -3.68774,0.705691 -5.31108,1.393991 0.67369,-0.670658 2.81596,-1.549747 2.31366,-1.54395 -3.27919,0.502804 -7.35405,2.408926 -10.837394,4.567836 a 2.7045603,2.7045603 0 0 1 0.210447,-1.095837 c -1.623341,0.688552 -5.610243,3.475023 -6.770852,5.832535 a 11.172347,11.172347 0 0 0 0.06704,-1.360975 21.292458,21.292458 0 0 0 -3.325568,3.482584 l -0.06074,0.0552 c -9.415428,-3.793088 -17.700995,-4.038568 -24.712538,-2.337853 -1.53387,-1.540422 -2.283163,-0.414341 -5.773308,-8.082429 -0.237163,-0.461723 0.181967,0.455927 0,0 -0.57413,-1.486991 0.350073,1.984 0,0 -5.868324,4.630341 -13.58959,9.877908 -17.29598,13.582029 -0.04587,0.147692 4.323869,-1.234959 0,0 -1.514211,0.432488 -1.411381,1.330984 -1.641487,9.451218 -0.05545,0.615715 -0.0063,1.305276 -0.0562,1.859495 -2.960878,3.772422 -4.977389,6.966934 -5.74004,8.622283 -3.829129,6.59821 -8.046388,16.884158 -12.134354,33.155118 a 84.270581,84.270581 0 0 1 6.498405,-12.70269 c -3.399414,8.6364 -6.685666,22.19852 -7.342714,43.08369 a 121.88643,121.88643 0 0 1 3.158723,-12.76796 119.22093,119.22093 0 0 0 8.755607,50.67389 c 2.351211,5.75164 6.240324,14.48053 12.860965,24.0439 20.800995,21.88625 50.140598,35.51137 82.629338,35.51137 33.91652,2.6e-4 64.37288,-14.83916 85.30165,-38.40344 z"
       style="fill:url(#linearGradient1210);stroke-width:0.25203246"
       id="path1237"
       inkscape:connector-curvature="0" /><path
       d="m 187.08071,222.43855 c 41.04853,-4.75333 59.21981,-47.05446 35.88463,-47.88617 -21.07823,-0.67368 -55.32793,50.12926 -35.88463,47.88617 z"
       style="fill:url(#radialGradient1212);stroke-width:0.25203246"
       id="path1239"
       inkscape:connector-curvature="0" /><path
       d="m 225.92068,165.9117 c 28.24174,-16.43604 20.87811,-51.93885 20.87811,-51.93885 0,0 -10.89939,12.66161 -18.30386,32.84487 -7.31423,19.98592 -19.55368,29.02104 -2.57425,19.09398 z"
       style="fill:url(#radialGradient1214);stroke-width:0.25203246"
       id="path1241"
       inkscape:connector-curvature="0" /><path
       d="m 136.26441,243.44646 c 39.37428,12.56407 73.21543,-18.45381 52.35546,-28.81235 -18.96569,-9.34183 -71.04366,22.87144 -52.35546,28.81235 z"
       style="fill:url(#radialGradient1216);stroke-width:0.25203246"
       id="path1243"
       inkscape:connector-curvature="0" /><path
       clip-path="url(#clipPath1385)"
       d="m 228.85484,180.98576 c 0.95772,-1.35165 2.25317,-5.67955 3.39739,-7.61415 6.95156,-11.22124 7.00071,-20.16839 7.00071,-20.3733 4.19861,-20.97389 3.81779,-29.5382 1.23496,-45.37668 C 238.40838,94.868791 229.31732,76.598454 221.44181,67.800505 213.32636,58.736158 219.04397,61.689474 211.1861,55.068329 204.29881,47.43351 197.62096,39.87304 193.98413,36.832521 167.70319,14.861087 168.29698,10.194202 168.80306,9.3985352 c -0.0854,0.093504 -0.21095,0.2323739 -0.37099,0.4140893 -0.31126,-1.2407558 -0.53103,-2.2841701 -0.53103,-2.2841701 0,0 -14.36585,14.3658506 -17.39024,38.3089336 -1.97442,15.631305 3.87701,31.926464 12.34959,42.341454 a 96.116863,96.116863 0 0 0 14.86991,14.617878 v -0.007 c 6.40163,9.19339 9.92504,20.53787 9.92504,32.74129 0,30.55742 -24.78512,55.32893 -55.35943,55.32893 a 55.561816,55.561816 0 0 1 -12.38336,-1.39096 c -14.42533,-2.74917 -22.755511,-10.02611 -26.910014,-14.96619 -2.38095,-2.83134 -3.393365,-4.89523 -3.393365,-4.89523 12.924979,4.63009 27.215979,3.66153 35.906559,-1.13868 8.75788,-4.85541 14.05686,-8.45468 18.35729,-7.03549 4.23919,1.41289 7.61415,-2.68843 4.58699,-6.93997 -2.96667,-4.24548 -10.68618,-10.32577 -22.14811,-8.64118 -8.76795,1.27705 -16.79973,7.50049 -28.288121,1.47313 a 24.274002,24.274002 0 0 1 -2.155886,-1.2652 c -0.757357,-0.44635 2.461853,0.67922 1.710545,0.17188 -2.235528,-1.08827 -6.193194,-3.4599 -7.218966,-4.3032 -0.17113,-0.14038 1.734739,0.54464 1.562601,0.40325 -10.741875,-7.92617 -9.400811,-13.28034 -9.062835,-16.63868 0.270431,-2.68666 2.221414,-6.12943 5.509177,-7.52569 1.587805,0.77652 2.577284,1.3693 2.577284,1.3693 0,0 -0.677463,-1.24 -1.043666,-1.89352 0.128284,-0.0489 0.25052,-0.0366 0.378049,-0.0854 1.300991,0.56253 4.17769,2.02357 5.692405,2.91601 1.972658,1.24681 2.601479,2.35852 2.601479,2.35852 0,0 0.519439,-0.25606 0.135089,-1.34333 -0.140382,-0.44585 -0.738203,-1.86277 -2.692211,-3.2928 l 0.122236,0.0123 a 22.897401,22.897401 0 0 1 3.310195,2.05986 c 0.550945,-1.79473 1.541935,-3.66884 1.323925,-7.02138 -0.13307,-2.357 -0.0716,-2.96768 -0.53532,-3.87777 -0.415093,-0.7813 0.23288,-1.08676 0.95319,-0.27421 a 7.570551,7.570551 0 0 0 -0.61597,-1.85067 l 0.006,-0.061 c 0.89976,-2.8084 19.03728,-10.112807 20.35742,-10.966693 a 17.720402,17.720402 0 0 0 5.33679,-5.19943 c 1.00813,-1.440365 1.76776,-3.461162 1.95275,-6.52638 0.062,-1.381138 -0.36318,-2.474203 -5.16667,-3.519634 -2.883,-0.62756 -7.34322,-1.238235 -14.22295,-1.88369 C 103.823,78.645244 100.88001,75.388984 99.20778,72.383749 98.902868,71.736748 98.59186,71.14926 98.2806,70.564041 A 13.38494,13.38494 0 0 1 97.567096,68.45705 39.939584,39.939584 0 0 1 113.01139,49.286705 c 0.40326,-0.329659 -1.613,0.08443 -1.20975,-0.244976 0.47079,-0.38435 3.54433,-1.493796 4.12501,-1.743813 0.70897,-0.29891 -3.03548,-1.723902 -6.34088,-1.377609 -3.3664,0.339992 -4.08142,0.699642 -5.87815,1.38265 0.74576,-0.665114 3.11663,-1.537398 2.5609,-1.531097 -3.62927,0.49852 -8.140652,2.389016 -11.996748,4.529779 a 2.4386661,2.4386661 0 0 1 0.232878,-1.086764 c -1.79674,0.682756 -6.209324,3.446292 -7.493933,5.784145 a 9.9522578,9.9522578 0 0 0 0.0741,-1.349382 22.349734,22.349734 0 0 0 -3.679674,3.452845 l -0.06729,0.05494 C 72.917061,53.395842 63.74686,53.152378 55.986781,54.838728 54.28909,53.311159 51.559579,51.001281 47.696929,43.396454 c -0.262366,-0.457943 -0.403252,0.946382 -0.604878,0.494236 -1.500853,-3.481325 -2.407666,-9.185071 -2.258715,-13.117282 0,0 -3.104535,1.41491 -5.674006,7.324063 -0.477098,1.062317 -0.783065,1.648293 -1.088781,2.234268 -0.140634,0.170878 0.318821,-1.94065 0.24548,-1.825723 -0.446601,0.756097 -1.601918,1.812618 -2.109764,3.180146 -0.348813,1.013422 -0.838008,1.580999 -1.150276,2.844942 l -0.07334,0.115935 c -0.0252,-0.372504 0.0925,-1.532609 0.0068,-1.294691 a 59.504864,59.504864 0 0 0 -3.102016,7.520901 c -1.383406,4.548178 -2.993894,10.739103 -3.249202,18.7928 -0.0615,0.610675 -0.0068,1.294439 -0.06225,1.844122 -3.276422,3.74117 -5.508926,6.908966 -6.352983,8.550957 -4.235909,6.545535 -8.90355,16.746297 -13.4282891,32.882172 a 80.434395,80.434395 0 0 1 7.1925021,-12.59885 c -3.762592,8.56482 -7.3996728,22.01453 -8.1267864,42.72706 A 110.52178,110.52178 0 0 1 11.356621,130.4094 c -0.64974,13.81138 0.958983,30.93446 9.690396,50.25351 5.184308,11.36339 17.118297,34.43998 46.2782,52.44795 l -0.0025,0.002 c 0,0 9.919998,7.38455 26.971758,12.91893 1.260162,0.45719 2.536706,0.90732 3.839462,1.34409 -0.408796,-0.16508 -0.804235,-0.33873 -1.188333,-0.51717 a 122.20626,122.20626 0 0 0 34.982106,5.14146 c 44.15105,0.0375 57.17255,-17.69268 57.17255,-17.69268 0,0 -0.0459,0.0345 -0.12929,0.095 q 0.93454,-0.87985 1.80027,-1.829 c -6.96592,6.57805 -22.86312,7.01457 -28.80731,6.53999 10.1375,-2.97726 16.8083,-5.49582 29.78394,-10.46414 q 2.27761,-0.84431 4.65806,-1.92552 c 0.17163,-0.0756 0.34478,-0.15753 0.51717,-0.23591 0.31479,-0.14668 0.62655,-0.2853 0.94437,-0.43954 a 88.010995,88.010995 0 0 0 17.7083,-11.08615 c 13.03008,-10.40894 15.86519,-20.55502 17.34714,-27.24471 -0.20666,0.64117 -0.85061,2.13597 -1.303,3.10403 -3.35582,7.17839 -10.79733,11.58316 -18.87925,15.36087 a 173.6486,173.6486 0 0 0 10.68315,-15.73539 c 2.63802,-2.61685 3.46116,-6.71037 5.43105,-9.46105 z"
       style="fill:url(#radialGradient1218);stroke-width:0.25203246"
       id="path1245"
       inkscape:connector-curvature="0" /><path
       clip-path="url(#clipPath1377)"
       d="m 212.99494,205.87346 c 5.31284,-5.85748 10.08382,-12.55726 13.69771,-20.15453 9.3,-19.55318 23.67895,-52.06486 12.35413,-86.020189 C 230.09635,72.861569 217.8075,58.186979 202.20442,43.851877 176.86407,20.572646 169.78675,10.180088 169.78675,3.9999999 c 0,0 -29.2582,32.6152691 -16.56912,66.6325941 12.68908,34.017326 38.6769,32.770266 55.8703,68.269036 20.23191,41.77312 -16.36925,87.35798 -46.63709,100.11687 1.85319,-0.41156 67.2851,-15.21847 70.72383,-52.64504 -0.0779,0.6883 -1.55226,11.03978 -20.17973,19.5 z"
       style="fill:url(#radialGradient1220);stroke-width:0.25203246"
       id="path1247"
       inkscape:connector-curvature="0" /><path
       d="m 128.22911,84.492363 c 0.0991,-2.210325 -1.04744,-3.694796 -19.32635,-5.409373 -7.5204,-0.694349 -10.400119,-7.645153 -11.277948,-10.570493 -2.674065,6.947274 -3.778219,14.237313 -3.184683,23.055173 0.405773,5.776584 4.286821,11.97683 6.142031,15.61719 0,0 0.41233,-0.53582 0.60261,-0.73392 3.49342,-3.63708 18.13021,-9.178767 19.5053,-9.965613 1.51572,-0.957471 7.28449,-5.172462 7.53904,-11.992964 z"
       style="fill:url(#linearGradient1222);stroke-width:0.25203246"
       id="path1249"
       inkscape:connector-curvature="0" /><path
       d="m 96.032471,185.48857 c -17.572712,-7.50275 -37.550821,-18.08458 -36.79674,-42.1242 1.027033,-31.66006 29.524343,-25.4026 29.524343,-25.4026 -1.075423,0.26186 -3.950609,2.30912 -4.969576,4.49122 -1.076935,2.72875 -3.04178,8.89069 2.911227,15.34877 9.347632,10.12969 -19.204874,24.03281 24.866275,50.29737 1.11147,0.60487 -10.33106,-0.36041 -15.535025,-2.61056 z"
       style="fill:url(#linearGradient1224);stroke-width:0.25203246"
       id="path1251"
       inkscape:connector-curvature="0" /><path
       d="m 89.789626,169.71134 c 12.460994,4.33672 26.977554,3.57609 35.668394,-1.22437 5.81817,-3.23887 13.28211,-8.42645 17.87464,-7.14588 -3.97631,-1.57167 -6.98785,-2.30609 -10.61056,-2.48554 -0.61698,0 -1.35644,-0.0131 -2.02836,-0.0806 a 34.333878,34.333878 0 0 0 -3.97128,0.2175 c -2.24309,0.20616 -4.72964,1.62133 -6.99012,1.39425 -0.12223,-0.0123 2.19269,-0.95118 2.00442,-0.90858 -1.19766,0.24976 -2.4989,0.3037 -3.87374,0.47407 -0.8738,0.0973 -1.62536,0.20667 -2.49285,0.24271 -25.954812,2.201 -47.890457,-14.06669 -47.890457,-14.06669 -1.867056,6.28821 8.358909,18.72601 22.310166,23.58318 z"
       style="fill:url(#linearGradient1226);stroke-width:0.25203246"
       id="path1253"
       inkscape:connector-curvature="0" /><path
       clip-path="url(#clipPath1381)"
       d="m 212.94882,206.04081 c 26.2522,-25.77536 39.53431,-57.10677 33.91928,-92.24867 0,0 2.24309,18.02033 -6.2625,36.45095 4.0862,-17.99335 4.56179,-40.35392 -6.29451,-63.509151 C 219.82099,55.826947 195.99006,39.564048 186.89194,32.779334 173.10702,22.499182 167.39269,12.032274 167.28961,9.8723562 c -4.11796,8.4372908 -16.57517,37.3512108 -1.33829,62.2520178 14.27511,23.329132 36.76271,30.253726 52.50541,51.653296 29.00264,39.42292 -5.50791,82.26314 -5.50791,82.26314 z"
       style="fill:url(#linearGradient1228);stroke-width:0.25203246"
       id="path1255"
       inkscape:connector-curvature="0" /><path
       d="m 209.18748,138.97624 c -9.17448,-18.9531 -20.62532,-27.21976 -31.45718,-36.17952 1.26017,1.76423 1.57067,2.38751 2.2683,3.52846 9.53363,10.16094 23.592,34.94581 13.38544,66.05947 -19.21218,58.56604 -96.060407,30.98739 -104.117129,23.24042 3.259284,33.89559 59.992799,50.11539 96.931689,28.13438 21.0195,-19.89771 38.02363,-53.72349 22.98888,-84.78321 z"
       style="fill:url(#linearGradient1230);stroke-width:0.25203246"
       id="path1257"
       inkscape:connector-curvature="0" /></g></g><g
   inkscape:groupmode="layer"
   id="layer5"
   inkscape:label="Squircle-Shadow"
   style="display:inline"><path
     style="display:inline;opacity:0.5;fill:#17171d;fill-opacity:0.39215686;stroke-width:1.41822851"
     d="m 3.999995,216.54492 v 10 C 3.999995,240.64746 15.352535,252 29.455075,252 H 226.54492 C 240.64746,252 252,240.64746 252,226.54492 v -10 C 252,230.64746 240.64746,242 226.54492,242 H 29.455075 c -14.10254,0 -25.45508,-11.35254 -25.45508,-25.45508 z"
     id="rect1101-3"
     inkscape:connector-curvature="0" /></g><g
   inkscape:groupmode="layer"
   id="layer2"
   inkscape:label="Circle-Shadow"
   style="display:none"><g
     id="g2548"
     style="display:inline"
     transform="translate(-2.960187,1.58543)"><path
       d="m 256.36019,128.41457 c 0,-33.900005 -13.5,-64.500005 -35.4,-86.900002 -0.4,-0.3 -0.7,-0.7 -1.1,-1 21.3,22.299997 34.5,52.599997 34.5,86.000002 0,68.5 -55.2,124 -123.4,124 -32.900003,0 -62.900003,-13 -85.000003,-34.1 0.3,0.3 0.6,0.6 0.9,0.9 22.2,21.7 52.6,35.1 86.000003,35.1 68.2,0 123.5,-55.5 123.5,-124 z"
       id="path238"
       inkscape:connector-curvature="0"
       style="display:inline;opacity:0.1" /><path
       d="m 219.86019,40.414568 c -0.7,-0.6 -1.4,-1.3 -2,-1.9 -0.7,-0.6 -1.4,-1.2 -2.1,-1.9 19.1,21.799997 30.7,50.499997 30.7,81.800002 0,68.5 -55.2,124 -123.4,124 -30.900003,0 -59.200003,-11.4 -80.900003,-30.3 0.6,0.7 1.2,1.4 1.9,2.1 0.6,0.7 1.3,1.4 1.9,2 22.1,21.1 52.1,34.1 85.000003,34.1 68.2,0 123.4,-55.5 123.4,-124 0,-33.300005 -13.1,-63.600005 -34.5,-85.900002 z"
       id="path240"
       inkscape:connector-curvature="0"
       style="display:inline;opacity:0.2" /><path
       d="m 220.96019,41.514568 c 21.9,22.399997 35.4,53.099997 35.4,86.900002 0,68.5 -55.2,124 -123.4,124 -33.500003,0 -63.800003,-13.4 -86.000003,-35.1 22.4,22.9 53.600003,37.1 88.000003,37.1 68.2,0 123.4,-55.5 123.4,-124 -0.1,-34.900005 -14.4,-66.400005 -37.4,-88.900002 z"
       id="path236"
       inkscape:connector-curvature="0"
       style="display:inline;opacity:0.05" /></g></g></svg>