<?xml version="1.0" encoding="utf-8"?>
<!-- Generator: Adobe Illustrator 21.0.2, SVG Export Plug-In . SVG Version: 6.00 Build 0)  -->
<svg version="1.1" id="Layer_1" xmlns="http://www.w3.org/2000/svg" xmlns:xlink="http://www.w3.org/1999/xlink" x="0px" y="0px"
	 viewBox="0 0 256 256" enable-background="new 0 0 256 256" xml:space="preserve">
<g>
	<g>
		<defs>
			<path id="SVGID_1_" d="M124,0C55.9,0,0.7,55.5,0.7,124c-0.1,68.6,55.2,124,123.3,124c68.2,0,123.4-55.5,123.4-124
				C247.4,55.5,192.2,0,124,0z"/>
		</defs>
		<clipPath id="SVGID_2_">
			<use xlink:href="#SVGID_1_"  overflow="visible"/>
		</clipPath>
		<g clip-path="url(#SVGID_2_)">
			<radialGradient id="SVGID_3_" cx="154.4412" cy="61.8969" r="237.6331" gradientUnits="userSpaceOnUse">
				<stop  offset="0" style="stop-color:#00CCDA"/>
				<stop  offset="0.22" style="stop-color:#0083FF"/>
				<stop  offset="0.261" style="stop-color:#007AF9"/>
				<stop  offset="0.33" style="stop-color:#0060E8"/>
				<stop  offset="0.333" style="stop-color:#005FE7"/>
				<stop  offset="0.438" style="stop-color:#2639AD"/>
				<stop  offset="0.522" style="stop-color:#401E84"/>
				<stop  offset="0.566" style="stop-color:#4A1475"/>
			</radialGradient>
			<path fill="url(#SVGID_3_)" d="M124,0C55.9,0,0.7,55.5,0.7,124c-0.1,68.6,55.2,124,123.3,124c68.2,0,123.4-55.5,123.4-124
				C247.4,55.5,192.2,0,124,0z"/>
			<g>
				<linearGradient id="SVGID_4_" gradientUnits="userSpaceOnUse" x1="120.4303" y1="242.5222" x2="120.4303" y2="1.8336">
					<stop  offset="0" style="stop-color:#000F43;stop-opacity:0.4"/>
					<stop  offset="0.485" style="stop-color:#001962;stop-opacity:0.173"/>
					<stop  offset="1" style="stop-color:#002079;stop-opacity:0"/>
				</linearGradient>
				<path fill="url(#SVGID_4_)" d="M238.9,104.6c-0.1-0.3-0.1-0.6-0.2-0.9c0.1,0.6,0.2,1.1,0.3,1.7c1.4,12,0.4,23.7-4.6,32.4
					c-0.1,0.1-0.2,0.2-0.2,0.4c2.6-13.1,3.5-27.6,0.6-42.2c0,0-1.2-7.1-9.8-28.5c-5-12.3-13.9-22.4-21.7-29.8
					c-6.9-8.5-13.1-14.2-16.5-17.8c-7.2-7.6-10.2-13.2-11.4-16.9c-1.1-0.5-14.8-13.9-15.9-14.4c-6,9.3-24.8,38.3-15.8,65.4
					c4.1,12.3,14.3,25,25,32.2c0.5,0.5,6.4,7,9.2,21.5c2.9,15,1.4,26.7-4.6,43.9c-7,15.2-25,30.1-41.9,31.7
					C95.2,186.4,82,165.1,82,165.1c12.9,5.2,27.1,4.1,35.8-1.3c8.7-5.4,14-9.4,18.3-7.8c4.2,1.6,7.6-3,4.6-7.7
					c-4.8-7.3-13.5-11.1-22.1-9.6c-8.7,1.4-16.7,8.3-28.2,1.6c-0.7-0.4-1.5-0.9-2.1-1.4c-0.8-0.5,2.5,0.8,1.7,0.2
					c-2.2-1.2-6.2-3.8-7.2-4.8c-0.2-0.2,1.7,0.6,1.6,0.4c-10.7-8.8-9.4-14.8-9-18.5c0.3-3,2.2-6.8,5.5-8.4c1.6,0.9,2.6,1.5,2.6,1.5
					s-0.7-1.4-1-2.1c0.1-0.1,0.3,0,0.4-0.1c1.3,0.6,4.2,2.3,5.7,3.2c2,1.4,2.6,2.6,2.6,2.6s0.5-0.3,0.1-1.5
					c-0.1-0.5-0.7-2.1-2.7-3.7l0.1,0c1.2,0.7,2.3,1.4,3.3,2.3c0.5-2,1.5-4.1,1.3-7.8C93,99.7,93,99.1,92.6,98
					c-0.4-0.9,0.2-1.2,1-0.3c-0.1-0.7-0.3-1.4-0.6-2.1l0-0.1c0.9-3.1,19-11.3,20.3-12.2c2.2-1.5,4-3.5,5.3-5.8
					c1-1.6,1.8-3.9,1.9-7.3c0.1-2.5-1-4.1-19.3-6c-5-0.5-7.9-4.1-9.6-7.5c-0.3-0.7-0.6-1.4-0.9-2c-0.3-0.8-0.5-1.5-0.7-2.3
					c3-8.6,8-15.8,15.4-21.3c0.4-0.4-1.6,0.1-1.2-0.3c0.5-0.4,3.5-1.7,4.1-1.9c0.7-0.3-3-1.9-6.3-1.5c-3.4,0.4-4.1,0.8-5.9,1.5
					c0.7-0.7,3.1-1.7,2.6-1.7c-3.6,0.6-8.1,2.7-12,5c0-0.4,0.1-0.8,0.2-1.2c-1.8,0.8-6.2,3.8-7.5,6.4c0.1-0.5,0.1-1,0.1-1.5
					c-1.4,1.1-2.6,2.4-3.7,3.8L75.7,40c-10.4-4.2-19.5-4.5-27.3-2.6c-1.7-1.7-2.5-0.5-6.4-8.9c0.1,0.2,0.1,0.2,0,0.1
					c0.2,1.1,0,0.5-0.1,0c-6.5,5.1-14.9,10.8-19,14.9c4.8-1.4-0.1,0.2,0,0c-1.7,0.5-1.6,1.5-1.8,10.4c-0.1,0.7,0,1.4-0.1,2.1
					c-3.3,4.2-5.5,7.7-6.3,9.5C10.6,72.7,5.9,84.1,1.4,102c2-4.9,4.4-9.6,7.2-14c-3.8,9.5-7.4,24.5-8.1,47.5
					c0.9-4.8,2.1-9.5,3.5-14.1c-0.9,19.1,2.4,38.2,9.7,55.9c2.6,6.3,6.9,16,14.2,26.5c23,24.1,55.3,39.2,91.2,39.2
					c37.4,0,71-16.4,94.1-42.4c-2.7,1.9-5.5,3.6-8.4,5.1c3.9-5.6,7.4-11.5,10.7-17.5c2.6-2.9,5-5.7,7-8.8c1-1.5,2-3.4,3.2-5.5
					c6.9-12.5,14.6-32.7,14.8-53.4v-0.1c0-0.5,0-1,0-1.5c0-5.2-0.5-10.4-1.6-15.5C238.8,103.8,238.9,104.2,238.9,104.6z"/>
				<linearGradient id="SVGID_5_" gradientUnits="userSpaceOnUse" x1="243.7734" y1="153.6384" x2="199.4843" y2="203.5463">
					<stop  offset="3.000000e-03" style="stop-color:#FFEA00"/>
					<stop  offset="0.497" style="stop-color:#FF272D"/>
					<stop  offset="1" style="stop-color:#C42482"/>
				</linearGradient>
				<path fill="url(#SVGID_5_)" d="M225,165.4c-23.3-0.7-61,55.3-39.6,52.8C230.7,213,250.8,166.3,225,165.4z"/>
				<linearGradient id="SVGID_6_" gradientUnits="userSpaceOnUse" x1="245.9402" y1="189.5771" x2="149.7605" y2="233.2049">
					<stop  offset="3.000000e-03" style="stop-color:#FF272D"/>
					<stop  offset="0.497" style="stop-color:#C42482"/>
					<stop  offset="0.986" style="stop-color:#620700"/>
				</linearGradient>
				<path fill="url(#SVGID_6_)" d="M187.1,209.6c-20.9-10.3-78.4,25.2-57.8,31.8C172.8,255.3,210.1,221.1,187.1,209.6z"/>
				
					<radialGradient id="SVGID_7_" cx="227.0363" cy="50.1594" r="53.8639" gradientTransform="matrix(1 0 0 2.4605 0 -73.2587)" gradientUnits="userSpaceOnUse">
					<stop  offset="4.500000e-02" style="stop-color:#FFEA00"/>
					<stop  offset="0.12" style="stop-color:#FFDE00"/>
					<stop  offset="0.254" style="stop-color:#FFBF00"/>
					<stop  offset="0.429" style="stop-color:#FF8E00"/>
					<stop  offset="0.769" style="stop-color:#FF272D"/>
					<stop  offset="0.872" style="stop-color:#E0255A"/>
					<stop  offset="0.953" style="stop-color:#CC2477"/>
					<stop  offset="1" style="stop-color:#C42482"/>
				</radialGradient>
				<path fill="url(#SVGID_7_)" d="M198.9,45.6c6.8,17.7,17.1,13.8,23.6,31.9c8.5,23.8,4.6,55.8,4.6,55.8s10.2,29.6,17.4-1.8
					c15.8-59.1-42.5-114.2-42.5-128.7C195.2,10.4,192.1,27.9,198.9,45.6z"/>
				<linearGradient id="SVGID_8_" gradientUnits="userSpaceOnUse" x1="259.4461" y1="92.4444" x2="230.6913" y2="151.6066">
					<stop  offset="3.000000e-03" style="stop-color:#FFE900"/>
					<stop  offset="0.157" style="stop-color:#FFAF0E"/>
					<stop  offset="0.316" style="stop-color:#FF7A1B"/>
					<stop  offset="0.472" style="stop-color:#FF4E26"/>
					<stop  offset="0.621" style="stop-color:#FF2C2E"/>
					<stop  offset="0.762" style="stop-color:#FF1434"/>
					<stop  offset="0.892" style="stop-color:#FF0538"/>
					<stop  offset="1" style="stop-color:#FF0039"/>
				</linearGradient>
				<path fill="url(#SVGID_8_)" d="M231.1,134.8c-8.1,22.1-21.6,32-2.8,21.1c31.2-18.1,23-57.3,23-57.3S239.3,112.5,231.1,134.8z"/>
				<radialGradient id="SVGID_9_" cx="178.6011" cy="84.0716" r="199.8926" gradientUnits="userSpaceOnUse">
					<stop  offset="0.156" style="stop-color:#FFEA00"/>
					<stop  offset="0.231" style="stop-color:#FFDE00"/>
					<stop  offset="0.365" style="stop-color:#FFBF00"/>
					<stop  offset="0.541" style="stop-color:#FF8E00"/>
					<stop  offset="0.763" style="stop-color:#FF272D"/>
					<stop  offset="0.796" style="stop-color:#F92433"/>
					<stop  offset="0.841" style="stop-color:#E91C45"/>
					<stop  offset="0.893" style="stop-color:#CF0E62"/>
					<stop  offset="0.935" style="stop-color:#B5007F"/>
				</radialGradient>
				<path fill="url(#SVGID_9_)" d="M226.7,47.4c-9-10-2.6-6.7-11.3-14c-7.6-8.4-15-16.8-19-20.1C167.4-11,168-16.1,168.6-17
					c-0.1,0.1-0.2,0.3-0.4,0.5c-0.3-1.4-0.6-2.5-0.6-2.5s-15.9,15.9-19.2,42.3c-2.2,17.2,4.3,35.2,13.6,46.7
					c4.9,6,10.4,11.4,16.4,16.1v0c7.1,10.1,11,22.7,11,36.1c0,33.7-27.3,61-61.1,61c-4.6,0-9.2-0.5-13.7-1.5
					c-15.9-3-25.1-11.1-29.7-16.5c-2.6-3.1-3.7-5.4-3.7-5.4c14.3,5.1,30,4,39.6-1.3c9.7-5.4,15.5-9.3,20.3-7.8
					c4.7,1.6,8.4-3,5.1-7.7c-3.3-4.7-11.8-11.4-24.4-9.5c-9.7,1.4-18.5,8.3-31.2,1.6c-0.8-0.4-1.6-0.9-2.4-1.4
					c-0.8-0.5,2.7,0.7,1.9,0.2c-2.5-1.2-6.8-3.8-8-4.7c-0.2-0.2,1.9,0.6,1.7,0.4c-11.9-8.7-10.4-14.7-10-18.4c0.3-3,2.5-6.8,6.1-8.3
					c1.8,0.9,2.8,1.5,2.8,1.5s-0.7-1.4-1.2-2.1c0.1-0.1,0.3,0,0.4-0.1c1.4,0.6,4.6,2.2,6.3,3.2c2.2,1.4,2.9,2.6,2.9,2.6
					s0.6-0.3,0.1-1.5c-0.2-0.5-0.8-2.1-3-3.6l0.1,0c1.3,0.7,2.5,1.4,3.7,2.3c0.6-2,1.7-4,1.5-7.7c-0.1-2.6-0.1-3.3-0.6-4.3
					c-0.5-0.9,0.3-1.2,1.1-0.3c-0.1-0.7-0.4-1.4-0.7-2l0-0.1c1-3.1,21-11.2,22.5-12.1c2.3-1.5,4.4-3.4,5.9-5.7
					c1.1-1.6,2-3.8,2.2-7.2c0.1-1.5-0.4-2.7-5.7-3.9c-3.2-0.7-8.1-1.4-15.7-2.1c-5.5-0.5-8.8-4.1-10.6-7.4c-0.3-0.7-0.7-1.4-1-2
					c-0.3-0.8-0.6-1.5-0.8-2.3c3.3-8.7,9.3-16.1,17-21.2c0.4-0.4-1.8,0.1-1.3-0.3c0.5-0.4,3.9-1.6,4.6-1.9c0.8-0.3-3.3-1.9-7-1.5
					c-3.7,0.4-4.5,0.8-6.5,1.5c0.8-0.7,3.4-1.7,2.8-1.7c-4,0.5-9,2.6-13.2,5c0-0.4,0.1-0.8,0.3-1.2c-2,0.8-6.9,3.8-8.3,6.4
					c0.1-0.5,0.1-1,0.1-1.5c-1.5,1.1-2.9,2.4-4.1,3.8l-0.1,0.1c-11.5-4.2-21.6-4.4-30.2-2.6c-1.9-1.7-4.9-4.2-9.1-12.6
					c-0.3-0.5-0.4,1-0.7,0.5c-1.7-3.8-2.7-10.1-2.5-14.5c0,0-3.4,1.6-6.3,8.1c-0.5,1.2-0.9,1.8-1.2,2.5c-0.2,0.2,0.4-2.1,0.3-2
					c-0.5,0.8-1.8,2-2.3,3.5c-0.4,1.1-0.9,1.7-1.3,3.1L21,21.9c0-0.4,0.1-1.7,0-1.4c-1.3,2.7-2.5,5.5-3.4,8.3
					c-1.5,5-3.3,11.8-3.6,20.7c-0.1,0.7,0,1.4-0.1,2c-3.6,4.1-6.1,7.6-7,9.4C2.2,68.2-3,79.4-7.9,97.2c2.2-4.9,4.9-9.5,7.9-13.9
					c-4.2,9.5-8.2,24.3-9,47.1c1-4.7,2.3-9.4,3.9-14c-0.7,15.2,1.1,34.1,10.7,55.4c5.7,12.5,18.9,38,51.1,57.9l0,0
					c0,0,10.9,8.1,29.8,14.3c1.4,0.5,2.8,1,4.2,1.5c-0.5-0.2-0.9-0.4-1.3-0.6c12.5,3.8,25.5,5.7,38.6,5.7
					c48.7,0,63.1-19.5,63.1-19.5s-0.1,0-0.1,0.1c0.7-0.6,1.3-1.3,2-2c-7.7,7.3-25.2,7.7-31.8,7.2c11.2-3.3,18.5-6.1,32.9-11.5
					c1.7-0.6,3.4-1.3,5.1-2.1c0.2-0.1,0.4-0.2,0.6-0.3c0.3-0.2,0.7-0.3,1-0.5c7-3.3,13.5-7.4,19.5-12.2
					c14.4-11.5,17.5-22.7,19.1-30.1c-0.2,0.7-0.9,2.4-1.4,3.4c-3.7,7.9-11.9,12.8-20.8,16.9c4.2-5.6,8.2-11.4,11.8-17.4
					c2.9-2.9,3.8-7.4,6-10.4c1.1-1.5,2.5-6.3,3.7-8.4c7.7-12.4,7.7-22.3,7.7-22.5c4.6-23.1,4.2-32.6,1.4-50.1
					C245.4,77.3,235.4,57.1,226.7,47.4z"/>
				<linearGradient id="SVGID_10_" gradientUnits="userSpaceOnUse" x1="28.1298" y1="46.5014" x2="33.7485" y2="7.5006">
					<stop  offset="0" style="stop-color:#891551;stop-opacity:0.6"/>
					<stop  offset="1" style="stop-color:#C42482;stop-opacity:0"/>
				</linearGradient>
				<path fill="url(#SVGID_10_)" d="M35,20.6L35,20.6c-0.3-0.5-0.4,1-0.7,0.5c-1.7-3.8-2.7-10.1-2.4-14.5c0,0-3.4,1.6-6.3,8.1
					c-0.5,1.2-0.9,1.8-1.2,2.5c-0.2,0.2,0.4-2.1,0.3-2c-0.5,0.8-1.8,2-2.3,3.4c-0.5,1.2-0.9,1.8-1.3,3.3c-0.1,0.4,0.1-1.8,0-1.5
					c-6.6,12.7-7.9,32-7.2,31.2c14-15,30.1-18.5,30.1-18.5C42.4,31.9,38.7,28.2,35,20.6z"/>
				<linearGradient id="SVGID_11_" gradientUnits="userSpaceOnUse" x1="57.8532" y1="70.8424" x2="121.6426" y2="68.5288">
					<stop  offset="0" style="stop-color:#C42482;stop-opacity:0.5"/>
					<stop  offset="0.474" style="stop-color:#FF272D;stop-opacity:0.5"/>
					<stop  offset="0.486" style="stop-color:#FF2C2C;stop-opacity:0.513"/>
					<stop  offset="0.675" style="stop-color:#FF7A1A;stop-opacity:0.72"/>
					<stop  offset="0.829" style="stop-color:#FFB20D;stop-opacity:0.871"/>
					<stop  offset="0.942" style="stop-color:#FFD605;stop-opacity:0.964"/>
					<stop  offset="1" style="stop-color:#FFE302"/>
				</linearGradient>
				<path fill="url(#SVGID_11_)" d="M99.2,60.1c-8.3-0.8-11.5-8.4-12.4-11.7c-3,7.7-4.2,15.7-3.5,25.4c0.4,6.4,4.7,13.2,6.8,17.2
					c0,0,0.5-0.6,0.7-0.8c3.9-4,20-10.1,21.5-11c1.7-1.1,8-5.7,8.3-13.2C120.6,63.6,119.3,62,99.2,60.1z"/>
				<linearGradient id="SVGID_12_" gradientUnits="userSpaceOnUse" x1="53.9346" y1="100.3835" x2="69.7993" y2="148.9693">
					<stop  offset="5.000000e-03" style="stop-color:#891551;stop-opacity:0.5"/>
					<stop  offset="0.484" style="stop-color:#FF272D;stop-opacity:0.5"/>
					<stop  offset="1" style="stop-color:#FF272D;stop-opacity:0"/>
				</linearGradient>
				<path fill="url(#SVGID_12_)" d="M74.7,124.9c-6.6-7.1-4.4-13.9-3.2-16.9c1.1-2.4,4.3-4.7,5.5-5c0,0-31.4-6.9-32.6,28
					c-0.8,26.5,21.2,38.2,40.6,46.5h0c5.7,2.5,18.4,3.5,17.1,2.9C53.5,151.4,85,136,74.7,124.9z"/>
				<linearGradient id="SVGID_13_" gradientUnits="userSpaceOnUse" x1="91.3509" y1="163.3515" x2="94.6561" y2="145.8343">
					<stop  offset="0" style="stop-color:#C42482"/>
					<stop  offset="8.300000e-02" style="stop-color:#C42482;stop-opacity:0.81"/>
					<stop  offset="0.206" style="stop-color:#C42482;stop-opacity:0.565"/>
					<stop  offset="0.328" style="stop-color:#C42482;stop-opacity:0.362"/>
					<stop  offset="0.447" style="stop-color:#C42482;stop-opacity:0.204"/>
					<stop  offset="0.562" style="stop-color:#C42482;stop-opacity:9.100000e-02"/>
					<stop  offset="0.673" style="stop-color:#C42482;stop-opacity:2.300000e-02"/>
					<stop  offset="0.773" style="stop-color:#C42482;stop-opacity:0"/>
				</linearGradient>
				<path fill="url(#SVGID_13_)" d="M123.2,148c-1.5,0-2.9,0.1-4.4,0.2c-2.5,0.2-5.2,1.8-7.7,1.5c-0.1,0,2.4-1,2.2-1
					c-1.3,0.3-2.8,0.3-4.3,0.5c-1,0.1-1.8,0.2-2.8,0.3C77.7,152,53.5,134,53.5,134c-2.1,6.9,9.2,20.7,24.6,26h0
					c13.7,4.8,29.8,3.9,39.4-1.4c6.4-3.6,14.7-9.3,19.7-7.9c-4.4-1.7-7.7-2.5-11.7-2.7C124.8,148.1,124,148.1,123.2,148z"/>
				<g>
					<linearGradient id="SVGID_14_" gradientUnits="userSpaceOnUse" x1="187.2721" y1="-1.5489" x2="207.103" y2="219.8964">
						<stop  offset="0.279" style="stop-color:#FFEA00"/>
						<stop  offset="0.402" style="stop-color:#FFDD00"/>
						<stop  offset="0.63" style="stop-color:#FFBA00"/>
						<stop  offset="0.856" style="stop-color:#FF9100"/>
						<stop  offset="0.933" style="stop-color:#FF6711"/>
						<stop  offset="0.994" style="stop-color:#FF4A1D"/>
					</linearGradient>
					<path fill="url(#SVGID_14_)" d="M242.8,82.8c-9.9-29.6-23.4-45.8-40.7-61.6c-28-25.7-35.8-37.2-35.8-44c0,0-32.3,36-18.3,73.5
						c14,37.5,42.7,36.2,61.6,75.3c22.3,46.1-18.1,96.4-51.5,110.5c2-0.5,74.2-16.8,78-58.1c-0.1,0.8-1.7,12.2-22.3,21.5
						c5.9-6.5,11.1-13.9,15.1-22.2C239.4,156.1,255.3,120.3,242.8,82.8z"/>
					<linearGradient id="SVGID_15_" gradientUnits="userSpaceOnUse" x1="178.3878" y1="95.9284" x2="134.0988" y2="210.9477">
						<stop  offset="0" style="stop-color:#FF8E00"/>
						<stop  offset="4.000000e-02" style="stop-color:#FF8E00;stop-opacity:0.858"/>
						<stop  offset="8.400000e-02" style="stop-color:#FF8E00;stop-opacity:0.729"/>
						<stop  offset="0.13" style="stop-color:#FF8E00;stop-opacity:0.628"/>
						<stop  offset="0.178" style="stop-color:#FF8E00;stop-opacity:0.557"/>
						<stop  offset="0.227" style="stop-color:#FF8E00;stop-opacity:0.514"/>
						<stop  offset="0.282" style="stop-color:#FF8E00;stop-opacity:0.5"/>
						<stop  offset="0.389" style="stop-color:#FF8E00;stop-opacity:0.478"/>
						<stop  offset="0.524" style="stop-color:#FF8E00;stop-opacity:0.416"/>
						<stop  offset="0.676" style="stop-color:#FF8E00;stop-opacity:0.314"/>
						<stop  offset="0.838" style="stop-color:#FF8E00;stop-opacity:0.172"/>
						<stop  offset="1" style="stop-color:#FF8E00;stop-opacity:0"/>
					</linearGradient>
					<path fill="url(#SVGID_15_)" d="M175.1,86.2c1.4,1.9,1.7,2.6,2.5,3.9c10.5,11.2,26,38.6,14.8,72.9
						c-21.2,64.6-106,34.2-114.9,25.6c3.6,37.4,66.2,55.3,107,31c23.2-22,42-59.3,25.4-93.5C199.7,105.2,187.1,96.1,175.1,86.2z"/>
					<linearGradient id="SVGID_16_" gradientUnits="userSpaceOnUse" x1="184.7474" y1="34.8971" x2="239.6128" y2="165.7812">
						<stop  offset="0" style="stop-color:#FFF14F"/>
						<stop  offset="0.268" style="stop-color:#FFEE4C"/>
						<stop  offset="0.452" style="stop-color:#FFE643"/>
						<stop  offset="0.612" style="stop-color:#FFD834"/>
						<stop  offset="0.757" style="stop-color:#FFC41E"/>
						<stop  offset="0.892" style="stop-color:#FFAB02"/>
						<stop  offset="0.902" style="stop-color:#FFA900"/>
						<stop  offset="0.949" style="stop-color:#FFA000"/>
						<stop  offset="1" style="stop-color:#FF9100"/>
					</linearGradient>
					<path fill="url(#SVGID_16_)" d="M244.5,138.6c4.5-19.9,5-44.5-6.9-70.1c-16-34.1-42.3-52-52.3-59.5
						C170-2.4,163.7-13.9,163.6-16.3c-4.5,9.3-18.3,41.2-1.5,68.7c15.8,25.7,40.6,33.4,57.9,57c32,43.5-6.1,90.8-6.1,90.8
						c29-28.4,43.6-63,37.4-101.8C251.4,98.4,253.9,118.2,244.5,138.6z"/>
				</g>
			</g>
		</g>
	</g>
	<g>
		<path opacity="5.000000e-02" d="M218,43.1c21.9,22.4,35.4,53.1,35.4,86.9c0,68.5-55.2,124-123.4,124c-33.5,0-63.8-13.4-86-35.1
			c22.4,22.9,53.6,37.1,88,37.1c68.2,0,123.4-55.5,123.4-124C255.3,97.1,241,65.6,218,43.1z"/>
		<path opacity="0.1" d="M253.4,130c0-33.9-13.5-64.5-35.4-86.9c-0.4-0.3-0.7-0.7-1.1-1c21.3,22.3,34.5,52.6,34.5,86
			c0,68.5-55.2,124-123.4,124c-32.9,0-62.9-13-85-34.1c0.3,0.3,0.6,0.6,0.9,0.9c22.2,21.7,52.6,35.1,86,35.1
			C198.1,254,253.4,198.5,253.4,130z"/>
		<path opacity="0.2" d="M216.9,42c-0.7-0.6-1.4-1.3-2-1.9c-0.7-0.6-1.4-1.2-2.1-1.9c19.1,21.8,30.7,50.5,30.7,81.8
			c0,68.5-55.2,124-123.4,124c-30.9,0-59.2-11.4-80.9-30.3c0.6,0.7,1.2,1.4,1.9,2.1c0.6,0.7,1.3,1.4,1.9,2
			c22.1,21.1,52.1,34.1,85,34.1c68.2,0,123.4-55.5,123.4-124C251.4,94.6,238.3,64.3,216.9,42z"/>
		<path opacity="5.000000e-02" d="M247.4,124c0-32.4-12.3-61.8-32.5-83.9c-0.7-0.6-1.4-1.2-2.1-1.9c19.1,21.8,30.7,50.5,30.7,81.8
			c0,68.5-55.2,124-123.4,124c-30.9,0-59.2-11.4-80.9-30.3c0.6,0.7,1.2,1.4,1.9,2.1c21.9,20,51,32.2,82.9,32.2
			C192.2,248.1,247.4,192.5,247.4,124z"/>
	</g>
</g>
</svg>
