<?xml version="1.0" encoding="UTF-8" standalone="no"?>
<!-- Generator: Adobe Illustrator 21.0.2, SVG Export Plug-In . SVG Version: 6.00 Build 0)  -->

<svg
   xmlns:dc="http://purl.org/dc/elements/1.1/"
   xmlns:cc="http://creativecommons.org/ns#"
   xmlns:rdf="http://www.w3.org/1999/02/22-rdf-syntax-ns#"
   xmlns:svg="http://www.w3.org/2000/svg"
   xmlns="http://www.w3.org/2000/svg"
   xmlns:xlink="http://www.w3.org/1999/xlink"
   xmlns:sodipodi="http://sodipodi.sourceforge.net/DTD/sodipodi-0.dtd"
   xmlns:inkscape="http://www.inkscape.org/namespaces/inkscape"
   version="1.1"
   id="Layer_1"
   x="0px"
   y="0px"
   viewBox="0 0 256 256"
   enable-background="new 0 0 256 256"
   xml:space="preserve"
   sodipodi:docname="firefox.svg"
   inkscape:version="0.92.3 (2405546, 2018-03-11)"><metadata
   id="metadata253"><rdf:RDF><cc:Work
       rdf:about=""><dc:format>image/svg+xml</dc:format><dc:type
         rdf:resource="http://purl.org/dc/dcmitype/StillImage" /></cc:Work></rdf:RDF></metadata><defs
   id="defs251">
	
	

		<defs
   id="defs3">
			<path
   id="SVGID_1_"
   d="M 124,0 C 55.9,0 0.7,55.5 0.7,124 0.6,192.6 55.9,248 124,248 192.2,248 247.4,192.5 247.4,124 247.4,55.5 192.2,0 124,0 Z"
   inkscape:connector-curvature="0" />
		</defs>
		<clipPath
   id="SVGID_2_">
			<use
   xlink:href="#SVGID_1_"
   overflow="visible"
   id="use5"
   style="overflow:visible"
   x="0"
   y="0"
   width="100%"
   height="100%" />
		</clipPath>
		
	
			<radialGradient
   gradientUnits="userSpaceOnUse"
   r="237.6331"
   cy="61.8969"
   cx="154.44119"
   id="SVGID_3_"
   gradientTransform="translate(158.91525,22.237288)">
				<stop
   id="stop8"
   style="stop-color:#00CCDA"
   offset="0" />
				<stop
   id="stop10"
   style="stop-color:#0083FF"
   offset="0.22" />
				<stop
   id="stop12"
   style="stop-color:#007AF9"
   offset="0.261" />
				<stop
   id="stop14"
   style="stop-color:#0060E8"
   offset="0.33" />
				<stop
   id="stop16"
   style="stop-color:#005FE7"
   offset="0.333" />
				<stop
   id="stop18"
   style="stop-color:#2639AD"
   offset="0.438" />
				<stop
   id="stop20"
   style="stop-color:#401E84"
   offset="0.522" />
				<stop
   id="stop22"
   style="stop-color:#4A1475"
   offset="0.566" />
			</radialGradient>
			
			
		
				<linearGradient
   id="SVGID_4_"
   gradientUnits="userSpaceOnUse"
   x1="120.4303"
   y1="242.5222"
   x2="120.4303"
   y2="1.8336">
					<stop
   offset="0"
   style="stop-color:#000F43;stop-opacity:0.4"
   id="stop27" />
					<stop
   offset="0.485"
   style="stop-color:#001962;stop-opacity:0.173"
   id="stop29" />
					<stop
   offset="1"
   style="stop-color:#002079;stop-opacity:0"
   id="stop31" />
				</linearGradient>
				
				<linearGradient
   id="SVGID_5_"
   gradientUnits="userSpaceOnUse"
   x1="243.77341"
   y1="153.6384"
   x2="199.4843"
   y2="203.5463">
					<stop
   offset="3.000000e-03"
   style="stop-color:#FFEA00"
   id="stop36" />
					<stop
   offset="0.497"
   style="stop-color:#FF272D"
   id="stop38" />
					<stop
   offset="1"
   style="stop-color:#C42482"
   id="stop40" />
				</linearGradient>
				
				<linearGradient
   id="SVGID_6_"
   gradientUnits="userSpaceOnUse"
   x1="245.9402"
   y1="189.5771"
   x2="149.7605"
   y2="233.2049">
					<stop
   offset="3.000000e-03"
   style="stop-color:#FF272D"
   id="stop45" />
					<stop
   offset="0.497"
   style="stop-color:#C42482"
   id="stop47" />
					<stop
   offset="0.986"
   style="stop-color:#620700"
   id="stop49" />
				</linearGradient>
				
				
					<radialGradient
   id="SVGID_7_"
   cx="227.0363"
   cy="50.159401"
   r="53.863899"
   gradientTransform="matrix(1,0,0,2.4605,0,-73.2587)"
   gradientUnits="userSpaceOnUse">
					<stop
   offset="4.500000e-02"
   style="stop-color:#FFEA00"
   id="stop54" />
					<stop
   offset="0.12"
   style="stop-color:#FFDE00"
   id="stop56" />
					<stop
   offset="0.254"
   style="stop-color:#FFBF00"
   id="stop58" />
					<stop
   offset="0.429"
   style="stop-color:#FF8E00"
   id="stop60" />
					<stop
   offset="0.769"
   style="stop-color:#FF272D"
   id="stop62" />
					<stop
   offset="0.872"
   style="stop-color:#E0255A"
   id="stop64" />
					<stop
   offset="0.953"
   style="stop-color:#CC2477"
   id="stop66" />
					<stop
   offset="1"
   style="stop-color:#C42482"
   id="stop68" />
				</radialGradient>
				
				<linearGradient
   id="SVGID_8_"
   gradientUnits="userSpaceOnUse"
   x1="259.44611"
   y1="92.444397"
   x2="230.6913"
   y2="151.6066">
					<stop
   offset="3.000000e-03"
   style="stop-color:#FFE900"
   id="stop73" />
					<stop
   offset="0.157"
   style="stop-color:#FFAF0E"
   id="stop75" />
					<stop
   offset="0.316"
   style="stop-color:#FF7A1B"
   id="stop77" />
					<stop
   offset="0.472"
   style="stop-color:#FF4E26"
   id="stop79" />
					<stop
   offset="0.621"
   style="stop-color:#FF2C2E"
   id="stop81" />
					<stop
   offset="0.762"
   style="stop-color:#FF1434"
   id="stop83" />
					<stop
   offset="0.892"
   style="stop-color:#FF0538"
   id="stop85" />
					<stop
   offset="1"
   style="stop-color:#FF0039"
   id="stop87" />
				</linearGradient>
				
				<radialGradient
   id="SVGID_9_"
   cx="178.6011"
   cy="84.071602"
   r="199.89259"
   gradientUnits="userSpaceOnUse">
					<stop
   offset="0.156"
   style="stop-color:#FFEA00"
   id="stop92" />
					<stop
   offset="0.231"
   style="stop-color:#FFDE00"
   id="stop94" />
					<stop
   offset="0.365"
   style="stop-color:#FFBF00"
   id="stop96" />
					<stop
   offset="0.541"
   style="stop-color:#FF8E00"
   id="stop98" />
					<stop
   offset="0.763"
   style="stop-color:#FF272D"
   id="stop100" />
					<stop
   offset="0.796"
   style="stop-color:#F92433"
   id="stop102" />
					<stop
   offset="0.841"
   style="stop-color:#E91C45"
   id="stop104" />
					<stop
   offset="0.893"
   style="stop-color:#CF0E62"
   id="stop106" />
					<stop
   offset="0.935"
   style="stop-color:#B5007F"
   id="stop108" />
				</radialGradient>
				
				<linearGradient
   id="SVGID_10_"
   gradientUnits="userSpaceOnUse"
   x1="28.129801"
   y1="46.5014"
   x2="33.748501"
   y2="7.5005999">
					<stop
   offset="0"
   style="stop-color:#891551;stop-opacity:0.6"
   id="stop113" />
					<stop
   offset="1"
   style="stop-color:#C42482;stop-opacity:0"
   id="stop115" />
				</linearGradient>
				
				<linearGradient
   id="SVGID_11_"
   gradientUnits="userSpaceOnUse"
   x1="57.853199"
   y1="70.8424"
   x2="121.6426"
   y2="68.528801">
					<stop
   offset="0"
   style="stop-color:#C42482;stop-opacity:0.5"
   id="stop120" />
					<stop
   offset="0.474"
   style="stop-color:#FF272D;stop-opacity:0.5"
   id="stop122" />
					<stop
   offset="0.486"
   style="stop-color:#FF2C2C;stop-opacity:0.513"
   id="stop124" />
					<stop
   offset="0.675"
   style="stop-color:#FF7A1A;stop-opacity:0.72"
   id="stop126" />
					<stop
   offset="0.829"
   style="stop-color:#FFB20D;stop-opacity:0.871"
   id="stop128" />
					<stop
   offset="0.942"
   style="stop-color:#FFD605;stop-opacity:0.964"
   id="stop130" />
					<stop
   offset="1"
   style="stop-color:#FFE302"
   id="stop132" />
				</linearGradient>
				
				<linearGradient
   id="SVGID_12_"
   gradientUnits="userSpaceOnUse"
   x1="53.934601"
   y1="100.3835"
   x2="69.799301"
   y2="148.9693">
					<stop
   offset="5.000000e-03"
   style="stop-color:#891551;stop-opacity:0.5"
   id="stop137" />
					<stop
   offset="0.484"
   style="stop-color:#FF272D;stop-opacity:0.5"
   id="stop139" />
					<stop
   offset="1"
   style="stop-color:#FF272D;stop-opacity:0"
   id="stop141" />
				</linearGradient>
				
				<linearGradient
   id="SVGID_13_"
   gradientUnits="userSpaceOnUse"
   x1="91.350899"
   y1="163.3515"
   x2="94.656097"
   y2="145.8343">
					<stop
   offset="0"
   style="stop-color:#C42482"
   id="stop146" />
					<stop
   offset="8.300000e-02"
   style="stop-color:#C42482;stop-opacity:0.81"
   id="stop148" />
					<stop
   offset="0.206"
   style="stop-color:#C42482;stop-opacity:0.565"
   id="stop150" />
					<stop
   offset="0.328"
   style="stop-color:#C42482;stop-opacity:0.362"
   id="stop152" />
					<stop
   offset="0.447"
   style="stop-color:#C42482;stop-opacity:0.204"
   id="stop154" />
					<stop
   offset="0.562"
   style="stop-color:#C42482;stop-opacity:9.100000e-02"
   id="stop156" />
					<stop
   offset="0.673"
   style="stop-color:#C42482;stop-opacity:2.300000e-02"
   id="stop158" />
					<stop
   offset="0.773"
   style="stop-color:#C42482;stop-opacity:0"
   id="stop160" />
				</linearGradient>
				
				
			
					<linearGradient
   y2="219.89639"
   x2="207.103"
   y1="-1.5489"
   x1="187.27209"
   gradientUnits="userSpaceOnUse"
   id="SVGID_14_">
						<stop
   id="stop165"
   style="stop-color:#FFEA00"
   offset="0.279" />
						<stop
   id="stop167"
   style="stop-color:#FFDD00"
   offset="0.402" />
						<stop
   id="stop169"
   style="stop-color:#FFBA00"
   offset="0.63" />
						<stop
   id="stop171"
   style="stop-color:#FF9100"
   offset="0.856" />
						<stop
   id="stop173"
   style="stop-color:#FF6711"
   offset="0.933" />
						<stop
   id="stop175"
   style="stop-color:#FF4A1D"
   offset="0.994" />
					</linearGradient>
					
					<linearGradient
   y2="210.94769"
   x2="134.0988"
   y1="95.928398"
   x1="178.3878"
   gradientUnits="userSpaceOnUse"
   id="SVGID_15_">
						<stop
   id="stop180"
   style="stop-color:#FF8E00"
   offset="0" />
						<stop
   id="stop182"
   style="stop-color:#FF8E00;stop-opacity:0.858"
   offset="4.000000e-02" />
						<stop
   id="stop184"
   style="stop-color:#FF8E00;stop-opacity:0.729"
   offset="8.400000e-02" />
						<stop
   id="stop186"
   style="stop-color:#FF8E00;stop-opacity:0.628"
   offset="0.13" />
						<stop
   id="stop188"
   style="stop-color:#FF8E00;stop-opacity:0.557"
   offset="0.178" />
						<stop
   id="stop190"
   style="stop-color:#FF8E00;stop-opacity:0.514"
   offset="0.227" />
						<stop
   id="stop192"
   style="stop-color:#FF8E00;stop-opacity:0.5"
   offset="0.282" />
						<stop
   id="stop194"
   style="stop-color:#FF8E00;stop-opacity:0.478"
   offset="0.389" />
						<stop
   id="stop196"
   style="stop-color:#FF8E00;stop-opacity:0.416"
   offset="0.524" />
						<stop
   id="stop198"
   style="stop-color:#FF8E00;stop-opacity:0.314"
   offset="0.676" />
						<stop
   id="stop200"
   style="stop-color:#FF8E00;stop-opacity:0.172"
   offset="0.838" />
						<stop
   id="stop202"
   style="stop-color:#FF8E00;stop-opacity:0"
   offset="1" />
					</linearGradient>
					
					<linearGradient
   y2="165.7812"
   x2="239.61279"
   y1="34.897099"
   x1="184.74741"
   gradientUnits="userSpaceOnUse"
   id="SVGID_16_">
						<stop
   id="stop207"
   style="stop-color:#FFF14F"
   offset="0" />
						<stop
   id="stop209"
   style="stop-color:#FFEE4C"
   offset="0.268" />
						<stop
   id="stop211"
   style="stop-color:#FFE643"
   offset="0.452" />
						<stop
   id="stop213"
   style="stop-color:#FFD834"
   offset="0.612" />
						<stop
   id="stop215"
   style="stop-color:#FFC41E"
   offset="0.757" />
						<stop
   id="stop217"
   style="stop-color:#FFAB02"
   offset="0.892" />
						<stop
   id="stop219"
   style="stop-color:#FFA900"
   offset="0.902" />
						<stop
   id="stop221"
   style="stop-color:#FFA000"
   offset="0.949" />
						<stop
   id="stop223"
   style="stop-color:#FF9100"
   offset="1" />
					</linearGradient>
					
				<radialGradient
   gradientTransform="matrix(1.005269,0,0,1,3.2964356,4.0000005)"
   gradientUnits="userSpaceOnUse"
   r="237.6331"
   cy="61.8969"
   cx="154.44119"
   id="SVGID_3_-3"><stop
     id="stop8-6"
     style="stop-color:#00CCDA"
     offset="0" /><stop
     id="stop10-7"
     style="stop-color:#0083FF"
     offset="0.22" /><stop
     id="stop12-5"
     style="stop-color:#007AF9"
     offset="0.261" /><stop
     id="stop14-3"
     style="stop-color:#0060E8"
     offset="0.33" /><stop
     id="stop16-5"
     style="stop-color:#005FE7"
     offset="0.333" /><stop
     id="stop18-6"
     style="stop-color:#2639AD"
     offset="0.438" /><stop
     id="stop20-2"
     style="stop-color:#401E84"
     offset="0.522" /><stop
     id="stop22-9"
     style="stop-color:#4A1475"
     offset="0.566" /></radialGradient><radialGradient
   gradientTransform="matrix(1.005269,0,0,1,3.2964381,3.9999975)"
   gradientUnits="userSpaceOnUse"
   r="237.6331"
   cy="61.8969"
   cx="154.44119"
   id="SVGID_3_-3-2"><stop
     id="stop8-6-7"
     style="stop-color:#00CCDA"
     offset="0" /><stop
     id="stop10-7-0"
     style="stop-color:#0083FF"
     offset="0.22" /><stop
     id="stop12-5-9"
     style="stop-color:#007AF9"
     offset="0.261" /><stop
     id="stop14-3-3"
     style="stop-color:#0060E8"
     offset="0.33" /><stop
     id="stop16-5-6"
     style="stop-color:#005FE7"
     offset="0.333" /><stop
     id="stop18-6-0"
     style="stop-color:#2639AD"
     offset="0.438" /><stop
     id="stop20-2-6"
     style="stop-color:#401E84"
     offset="0.522" /><stop
     id="stop22-9-2"
     style="stop-color:#4A1475"
     offset="0.566" /></radialGradient><radialGradient
   gradientTransform="matrix(1.005269,0,0,1,3.2964336,4.000001)"
   gradientUnits="userSpaceOnUse"
   r="237.6331"
   cy="61.8969"
   cx="154.44119"
   id="SVGID_3_-3-2-7"><stop
     id="stop8-6-7-6"
     style="stop-color:#00CCDA"
     offset="0" /><stop
     id="stop10-7-0-5"
     style="stop-color:#0083FF"
     offset="0.22" /><stop
     id="stop12-5-9-6"
     style="stop-color:#007AF9"
     offset="0.261" /><stop
     id="stop14-3-3-9"
     style="stop-color:#0060E8"
     offset="0.33" /><stop
     id="stop16-5-6-3"
     style="stop-color:#005FE7"
     offset="0.333" /><stop
     id="stop18-6-0-7"
     style="stop-color:#2639AD"
     offset="0.438" /><stop
     id="stop20-2-6-4"
     style="stop-color:#401E84"
     offset="0.522" /><stop
     id="stop22-9-2-5"
     style="stop-color:#4A1475"
     offset="0.566" /></radialGradient><radialGradient
   gradientTransform="matrix(1.005269,0,0,1,3.2964349,4.000001)"
   gradientUnits="userSpaceOnUse"
   r="237.6331"
   cy="61.8969"
   cx="154.44119"
   id="SVGID_3_-3-2-5"><stop
     id="stop8-6-7-4"
     style="stop-color:#00CCDA"
     offset="0" /><stop
     id="stop10-7-0-7"
     style="stop-color:#0083FF"
     offset="0.22" /><stop
     id="stop12-5-9-4"
     style="stop-color:#007AF9"
     offset="0.261" /><stop
     id="stop14-3-3-4"
     style="stop-color:#0060E8"
     offset="0.33" /><stop
     id="stop16-5-6-30"
     style="stop-color:#005FE7"
     offset="0.333" /><stop
     id="stop18-6-0-78"
     style="stop-color:#2639AD"
     offset="0.438" /><stop
     id="stop20-2-6-6"
     style="stop-color:#401E84"
     offset="0.522" /><stop
     id="stop22-9-2-8"
     style="stop-color:#4A1475"
     offset="0.566" /></radialGradient><clipPath
   clipPathUnits="userSpaceOnUse"
   id="clipPath1872"><path
     style="fill:url(#radialGradient1876);stroke-width:1.00263107"
     inkscape:connector-curvature="0"
     id="path1874"
     d="m 127.94981,4.000001 c -68.458825,0 -123.9496751,55.5 -123.9496751,123.999989 C 3.8996049,196.59999 59.490985,252 127.94981,252 196.50915,252 252,196.49999 252,127.99999 252,59.500001 196.50915,4.000001 127.94981,4.000001 Z" /></clipPath><radialGradient
   inkscape:collect="always"
   xlink:href="#SVGID_3_-3-2-5"
   id="radialGradient1876"
   gradientUnits="userSpaceOnUse"
   gradientTransform="matrix(1.005269,0,0,1,3.2964349,4.000001)"
   cx="154.44119"
   cy="61.8969"
   r="237.6331" /><clipPath
   clipPathUnits="userSpaceOnUse"
   id="clipPath1878"><path
     style="fill:url(#radialGradient1882);stroke-width:1.00263107"
     inkscape:connector-curvature="0"
     id="path1880"
     d="m 127.94981,4.000001 c -68.458826,0 -123.9496764,55.5 -123.9496764,123.999989 C 3.8996036,196.59999 59.490984,252 127.94981,252 196.50915,252 252,196.49999 252,127.99999 252,59.500001 196.50915,4.000001 127.94981,4.000001 Z" /></clipPath><radialGradient
   inkscape:collect="always"
   xlink:href="#SVGID_3_-3-2-7"
   id="radialGradient1882"
   gradientUnits="userSpaceOnUse"
   gradientTransform="matrix(1.005269,0,0,1,3.2964336,4.000001)"
   cx="154.44119"
   cy="61.8969"
   r="237.6331" /><radialGradient
   gradientTransform="matrix(1.005269,0,0,1,3.2964331,3.999995)"
   gradientUnits="userSpaceOnUse"
   r="237.6331"
   cy="61.8969"
   cx="154.44119"
   id="SVGID_3_-3-2-4"><stop
     id="stop8-6-7-3"
     style="stop-color:#00CCDA"
     offset="0" /><stop
     id="stop10-7-0-1"
     style="stop-color:#0083FF"
     offset="0.22" /><stop
     id="stop12-5-9-49"
     style="stop-color:#007AF9"
     offset="0.261" /><stop
     id="stop14-3-3-2"
     style="stop-color:#0060E8"
     offset="0.33" /><stop
     id="stop16-5-6-0"
     style="stop-color:#005FE7"
     offset="0.333" /><stop
     id="stop18-6-0-6"
     style="stop-color:#2639AD"
     offset="0.438" /><stop
     id="stop20-2-6-8"
     style="stop-color:#401E84"
     offset="0.522" /><stop
     id="stop22-9-2-9"
     style="stop-color:#4A1475"
     offset="0.566" /></radialGradient><radialGradient
   gradientTransform="matrix(1.005269,0,0,1,3.2964331,3.999998)"
   gradientUnits="userSpaceOnUse"
   r="237.6331"
   cy="61.8969"
   cx="154.44119"
   id="SVGID_3_-3-2-6"><stop
     id="stop8-6-7-64"
     style="stop-color:#00CCDA"
     offset="0" /><stop
     id="stop10-7-0-9"
     style="stop-color:#0083FF"
     offset="0.22" /><stop
     id="stop12-5-9-5"
     style="stop-color:#007AF9"
     offset="0.261" /><stop
     id="stop14-3-3-0"
     style="stop-color:#0060E8"
     offset="0.33" /><stop
     id="stop16-5-6-4"
     style="stop-color:#005FE7"
     offset="0.333" /><stop
     id="stop18-6-0-8"
     style="stop-color:#2639AD"
     offset="0.438" /><stop
     id="stop20-2-6-7"
     style="stop-color:#401E84"
     offset="0.522" /><stop
     id="stop22-9-2-1"
     style="stop-color:#4A1475"
     offset="0.566" /></radialGradient><clipPath
   clipPathUnits="userSpaceOnUse"
   id="clipPath1950"><path
     style="fill:url(#radialGradient1954);stroke-width:1.00263107"
     inkscape:connector-curvature="0"
     id="path1952"
     d="M 127.94981,3.9999975 C 59.490988,3.9999975 4.0001381,59.499998 4.0001381,127.99999 3.8996081,196.59999 59.490988,252 127.94981,252 196.50915,252 252,196.49999 252,127.99999 252,59.499998 196.50915,3.9999975 127.94981,3.9999975 Z" /></clipPath><radialGradient
   inkscape:collect="always"
   xlink:href="#SVGID_3_-3-2"
   id="radialGradient1954"
   gradientUnits="userSpaceOnUse"
   gradientTransform="matrix(1.005269,0,0,1,3.2964381,3.9999975)"
   cx="154.44119"
   cy="61.8969"
   r="237.6331" /><clipPath
   clipPathUnits="userSpaceOnUse"
   id="clipPath1956"><path
     style="fill:url(#radialGradient1960);stroke-width:1.00263107"
     inkscape:connector-curvature="0"
     id="path1958"
     d="m 127.94981,3.999998 c -68.458827,0 -123.9496769,55.5 -123.9496769,123.999992 C 3.8996031,196.59999 59.490983,252 127.94981,252 196.50915,252 252,196.49999 252,127.99999 252,59.499998 196.50915,3.999998 127.94981,3.999998 Z" /></clipPath><radialGradient
   inkscape:collect="always"
   xlink:href="#SVGID_3_-3-2-6"
   id="radialGradient1960"
   gradientUnits="userSpaceOnUse"
   gradientTransform="matrix(1.005269,0,0,1,3.2964331,3.999998)"
   cx="154.44119"
   cy="61.8969"
   r="237.6331" /><radialGradient
   gradientTransform="matrix(1.005269,0,0,1,3.2964281,4.0000005)"
   gradientUnits="userSpaceOnUse"
   r="237.6331"
   cy="61.8969"
   cx="154.44119"
   id="SVGID_3_-3-2-4-2"><stop
     id="stop8-6-7-3-7"
     style="stop-color:#00CCDA"
     offset="0" /><stop
     id="stop10-7-0-1-2"
     style="stop-color:#0083FF"
     offset="0.22" /><stop
     id="stop12-5-9-49-2"
     style="stop-color:#007AF9"
     offset="0.261" /><stop
     id="stop14-3-3-2-6"
     style="stop-color:#0060E8"
     offset="0.33" /><stop
     id="stop16-5-6-0-1"
     style="stop-color:#005FE7"
     offset="0.333" /><stop
     id="stop18-6-0-6-0"
     style="stop-color:#2639AD"
     offset="0.438" /><stop
     id="stop20-2-6-8-6"
     style="stop-color:#401E84"
     offset="0.522" /><stop
     id="stop22-9-2-9-1"
     style="stop-color:#4A1475"
     offset="0.566" /></radialGradient><clipPath
   clipPathUnits="userSpaceOnUse"
   id="clipPath2004"><path
     style="fill:url(#radialGradient2008);stroke-width:1.00263107"
     inkscape:connector-curvature="0"
     id="path2006"
     d="M 127.94982,4.0000005 C 59.490978,4.0000005 4.0001281,59.500001 4.0001281,127.99999 3.8995981,196.59999 59.490978,252 127.94982,252 c 68.55934,0 124.05019,-55.50001 124.05019,-124.00001 0,-68.499989 -55.49085,-123.9999895 -124.05019,-123.9999895 z" /></clipPath><radialGradient
   inkscape:collect="always"
   xlink:href="#SVGID_3_-3-2-4-2"
   id="radialGradient2008"
   gradientUnits="userSpaceOnUse"
   gradientTransform="matrix(1.005269,0,0,1,3.2964281,4.0000005)"
   cx="154.44119"
   cy="61.8969"
   r="237.6331" /><radialGradient
   gradientTransform="matrix(1.005269,0,0,1,3.2964331,3.999995)"
   gradientUnits="userSpaceOnUse"
   r="237.6331"
   cy="61.8969"
   cx="154.44119"
   id="SVGID_3_-3-2-4-9"><stop
     id="stop8-6-7-3-4"
     style="stop-color:#00CCDA"
     offset="0" /><stop
     id="stop10-7-0-1-9"
     style="stop-color:#0083FF"
     offset="0.22" /><stop
     id="stop12-5-9-49-0"
     style="stop-color:#007AF9"
     offset="0.261" /><stop
     id="stop14-3-3-2-9"
     style="stop-color:#0060E8"
     offset="0.33" /><stop
     id="stop16-5-6-0-17"
     style="stop-color:#005FE7"
     offset="0.333" /><stop
     id="stop18-6-0-6-7"
     style="stop-color:#2639AD"
     offset="0.438" /><stop
     id="stop20-2-6-8-1"
     style="stop-color:#401E84"
     offset="0.522" /><stop
     id="stop22-9-2-9-15"
     style="stop-color:#4A1475"
     offset="0.566" /></radialGradient><clipPath
   clipPathUnits="userSpaceOnUse"
   id="clipPath2052"><path
     style="fill:url(#radialGradient2056);stroke-width:1.00263107"
     inkscape:connector-curvature="0"
     id="path2054"
     d="M 127.94981,3.999995 C 59.490983,3.999995 4.0001331,59.499997 4.0001331,127.99999 3.8996031,196.59999 59.490983,252.00001 127.94981,252.00001 196.50915,252.00001 252,196.49999 252,127.99999 252,59.499997 196.50915,3.999995 127.94981,3.999995 Z" /></clipPath><radialGradient
   inkscape:collect="always"
   xlink:href="#SVGID_3_-3-2-4"
   id="radialGradient2056"
   gradientUnits="userSpaceOnUse"
   gradientTransform="matrix(1.005269,0,0,1,3.2964331,3.999995)"
   cx="154.44119"
   cy="61.8969"
   r="237.6331" /><clipPath
   clipPathUnits="userSpaceOnUse"
   id="clipPath2058"><path
     style="fill:url(#radialGradient2062);stroke-width:1.00263107"
     inkscape:connector-curvature="0"
     id="path2060"
     d="M 127.94981,3.999995 C 59.490983,3.999995 4.0001331,59.499996 4.0001331,127.99998 3.8996031,196.59998 59.490983,252.00001 127.94981,252.00001 196.50915,252.00001 252,196.49998 252,127.99998 252,59.499996 196.50915,3.999995 127.94981,3.999995 Z" /></clipPath><radialGradient
   inkscape:collect="always"
   xlink:href="#SVGID_3_-3-2-4-9"
   id="radialGradient2062"
   gradientUnits="userSpaceOnUse"
   gradientTransform="matrix(1.005269,0,0,1,3.2964331,3.999995)"
   cx="154.44119"
   cy="61.8969"
   r="237.6331" /></defs><sodipodi:namedview
   pagecolor="#ffffff"
   bordercolor="#666666"
   borderopacity="1"
   objecttolerance="10"
   gridtolerance="10"
   guidetolerance="10"
   inkscape:pageopacity="0"
   inkscape:pageshadow="2"
   inkscape:window-width="960"
   inkscape:window-height="1019"
   id="namedview249"
   showgrid="false"
   inkscape:zoom="0.92187502"
   inkscape:cx="161.75839"
   inkscape:cy="273.64184"
   inkscape:window-x="0"
   inkscape:window-y="27"
   inkscape:window-maximized="0"
   inkscape:current-layer="Layer_1" />
<path
   d="m 238.9,104.6 c -0.1,-0.3 -0.1,-0.6 -0.2,-0.9 0.1,0.6 0.2,1.1 0.3,1.7 1.4,12 0.4,23.7 -4.6,32.4 -0.1,0.1 -0.2,0.2 -0.2,0.4 2.6,-13.1 3.5,-27.6 0.6,-42.2 0,0 -1.2,-7.1 -9.8,-28.5 C 220,55.2 211.1,45.1 203.3,37.7 196.4,29.2 190.2,23.5 186.8,19.9 179.6,12.3 176.6,6.7 175.4,3 c -1.1,-0.5 -14.8,-13.9 -15.9,-14.4 -6,9.3 -24.8,38.3 -15.8,65.4 4.1,12.3 14.3,25 25,32.2 0.5,0.5 6.4,7 9.2,21.5 2.9,15 1.4,26.7 -4.6,43.9 -7,15.2 -25,30.1 -41.9,31.7 C 95.2,186.4 82,165.1 82,165.1 c 12.9,5.2 27.1,4.1 35.8,-1.3 8.7,-5.4 14,-9.4 18.3,-7.8 4.2,1.6 7.6,-3 4.6,-7.7 -4.8,-7.3 -13.5,-11.1 -22.1,-9.6 -8.7,1.4 -16.7,8.3 -28.2,1.6 -0.7,-0.4 -1.5,-0.9 -2.1,-1.4 -0.8,-0.5 2.5,0.8 1.7,0.2 -2.2,-1.2 -6.2,-3.8 -7.2,-4.8 -0.2,-0.2 1.7,0.6 1.6,0.4 -10.7,-8.8 -9.4,-14.8 -9,-18.5 0.3,-3 2.2,-6.8 5.5,-8.4 1.6,0.9 2.6,1.5 2.6,1.5 0,0 -0.7,-1.4 -1,-2.1 0.1,-0.1 0.3,0 0.4,-0.1 1.3,0.6 4.2,2.3 5.7,3.2 2,1.4 2.6,2.6 2.6,2.6 0,0 0.5,-0.3 0.1,-1.5 -0.1,-0.5 -0.7,-2.1 -2.7,-3.7 h 0.1 c 1.2,0.7 2.3,1.4 3.3,2.3 0.5,-2 1.5,-4.1 1.3,-7.8 C 93,99.7 93,99.1 92.6,98 92.2,97.1 92.8,96.8 93.6,97.7 93.5,97 93.3,96.3 93,95.6 v -0.1 c 0.9,-3.1 19,-11.3 20.3,-12.2 2.2,-1.5 4,-3.5 5.3,-5.8 1,-1.6 1.8,-3.9 1.9,-7.3 0.1,-2.5 -1,-4.1 -19.3,-6 -5,-0.5 -7.9,-4.1 -9.6,-7.5 -0.3,-0.7 -0.6,-1.4 -0.9,-2 -0.3,-0.8 -0.5,-1.5 -0.7,-2.3 3,-8.6 8,-15.8 15.4,-21.3 0.4,-0.4 -1.6,0.1 -1.2,-0.3 0.5,-0.4 3.5,-1.7 4.1,-1.9 0.7,-0.3 -3,-1.9 -6.3,-1.5 -3.4,0.4 -4.1,0.8 -5.9,1.5 0.7,-0.7 3.1,-1.7 2.6,-1.7 -3.6,0.6 -8.1,2.7 -12,5 0,-0.4 0.1,-0.8 0.2,-1.2 -1.8,0.8 -6.2,3.8 -7.5,6.4 0.1,-0.5 0.1,-1 0.1,-1.5 -1.4,1.1 -2.6,2.4 -3.7,3.8 L 75.7,40 C 65.3,35.8 56.2,35.5 48.4,37.4 46.7,35.7 45.9,36.9 42,28.5 c 0.1,0.2 0.1,0.2 0,0.1 0.2,1.1 0,0.5 -0.1,0 -6.5,5.1 -14.9,10.8 -19,14.9 4.8,-1.4 -0.1,0.2 0,0 -1.7,0.5 -1.6,1.5 -1.8,10.4 -0.1,0.7 0,1.4 -0.1,2.1 -3.3,4.2 -5.5,7.7 -6.3,9.5 -4.1,7.2 -8.8,18.6 -13.3,36.5 2,-4.9 4.4,-9.6 7.2,-14 -3.8,9.5 -7.4,24.5 -8.1,47.5 0.9,-4.8 2.1,-9.5 3.5,-14.1 -0.9,19.1 2.4,38.2 9.7,55.9 2.6,6.3 6.9,16 14.2,26.5 23,24.1 55.3,39.2 91.2,39.2 37.4,0 71,-16.4 94.1,-42.4 -2.7,1.9 -5.5,3.6 -8.4,5.1 3.9,-5.6 7.4,-11.5 10.7,-17.5 2.6,-2.9 5,-5.7 7,-8.8 1,-1.5 2,-3.4 3.2,-5.5 6.9,-12.5 14.6,-32.7 14.8,-53.4 v -0.1 c 0,-0.5 0,-1 0,-1.5 0,-5.2 -0.5,-10.4 -1.6,-15.5 -0.1,0.4 0,0.8 0,1.2 z"
   id="path34"
   inkscape:connector-curvature="0"
   style="fill:url(#SVGID_4_)"
   clip-path="url(#clipPath1950)" /><path
   d="m 225,165.4 c -23.3,-0.7 -61,55.3 -39.6,52.8 45.3,-5.2 65.4,-51.9 39.6,-52.8 z"
   id="path43"
   inkscape:connector-curvature="0"
   style="fill:url(#SVGID_5_)" /><path
   style="fill:#0068bf;stroke-width:1.00263107;fill-opacity:1"
   inkscape:connector-curvature="0"
   id="path25-1"
   d="M 127.94981,4.0000005 C 59.490986,4.0000005 4.0001356,59.500001 4.0001356,128 3.8996056,196.6 59.490986,252 127.94981,252 196.50915,252 252,196.5 252,128 252,59.500001 196.50915,4.0000005 127.94981,4.0000005 Z" /><path
   d="m 187.1,209.6 c -20.9,-10.3 -78.4,25.2 -57.8,31.8 43.5,13.9 80.8,-20.3 57.8,-31.8 z"
   id="path52"
   inkscape:connector-curvature="0"
   style="fill:url(#SVGID_6_)" /><path
   d="m 198.9,45.6 c 6.8,17.7 17.1,13.8 23.6,31.9 8.5,23.8 4.6,55.8 4.6,55.8 0,0 10.2,29.6 17.4,-1.8 C 260.3,72.4 202,17.3 202,2.8 c -6.8,7.6 -9.9,25.1 -3.1,42.8 z"
   id="path71"
   inkscape:connector-curvature="0"
   style="fill:url(#SVGID_7_)"
   clip-path="url(#clipPath2004)" /><path
   d="m 231.1,134.8 c -8.1,22.1 -21.6,32 -2.8,21.1 31.2,-18.1 23,-57.3 23,-57.3 0,0 -12,13.9 -20.2,36.2 z"
   id="path90"
   inkscape:connector-curvature="0"
   style="fill:url(#SVGID_8_)"
   clip-path="url(#clipPath2058)" /><path
   d="m 226.7,47.4 c -9,-10 -2.6,-6.7 -11.3,-14 -7.6,-8.4 -15,-16.8 -19,-20.1 -29,-24.3 -28.4,-29.4 -27.8,-30.3 -0.1,0.1 -0.2,0.3 -0.4,0.5 -0.3,-1.4 -0.6,-2.5 -0.6,-2.5 0,0 -15.9,15.9 -19.2,42.3 -2.2,17.2 4.3,35.2 13.6,46.7 4.9,6 10.4,11.4 16.4,16.1 v 0 c 7.1,10.1 11,22.7 11,36.1 0,33.7 -27.3,61 -61.1,61 -4.6,0 -9.2,-0.5 -13.7,-1.5 -15.9,-3 -25.1,-11.1 -29.7,-16.5 -2.6,-3.1 -3.7,-5.4 -3.7,-5.4 14.3,5.1 30,4 39.6,-1.3 9.7,-5.4 15.5,-9.3 20.3,-7.8 4.7,1.6 8.4,-3 5.1,-7.7 -3.3,-4.7 -11.8,-11.4 -24.4,-9.5 -9.7,1.4 -18.5,8.3 -31.2,1.6 -0.8,-0.4 -1.6,-0.9 -2.4,-1.4 -0.8,-0.5 2.7,0.7 1.9,0.2 -2.5,-1.2 -6.8,-3.8 -8,-4.7 -0.2,-0.2 1.9,0.6 1.7,0.4 -11.9,-8.7 -10.4,-14.7 -10,-18.4 0.3,-3 2.5,-6.8 6.1,-8.3 1.8,0.9 2.8,1.5 2.8,1.5 0,0 -0.7,-1.4 -1.2,-2.1 0.1,-0.1 0.3,0 0.4,-0.1 1.4,0.6 4.6,2.2 6.3,3.2 2.2,1.4 2.9,2.6 2.9,2.6 0,0 0.6,-0.3 0.1,-1.5 -0.2,-0.5 -0.8,-2.1 -3,-3.6 h 0.1 c 1.3,0.7 2.5,1.4 3.7,2.3 0.6,-2 1.7,-4 1.5,-7.7 -0.1,-2.6 -0.1,-3.3 -0.6,-4.3 -0.5,-0.9 0.3,-1.2 1.1,-0.3 -0.1,-0.7 -0.4,-1.4 -0.7,-2 v -0.1 c 1,-3.1 21,-11.2 22.5,-12.1 2.3,-1.5 4.4,-3.4 5.9,-5.7 1.1,-1.6 2,-3.8 2.2,-7.2 0.1,-1.5 -0.4,-2.7 -5.7,-3.9 -3.2,-0.7 -8.1,-1.4 -15.7,-2.1 -5.5,-0.5 -8.8,-4.1 -10.6,-7.4 -0.3,-0.7 -0.7,-1.4 -1,-2 -0.3,-0.8 -0.6,-1.5 -0.8,-2.3 3.3,-8.7 9.3,-16.1 17,-21.2 0.4,-0.4 -1.8,0.1 -1.3,-0.3 0.5,-0.4 3.9,-1.6 4.6,-1.9 0.8,-0.3 -3.3,-1.9 -7,-1.5 -3.7,0.4 -4.5,0.8 -6.5,1.5 0.8,-0.7 3.4,-1.7 2.8,-1.7 -4,0.5 -9,2.6 -13.2,5 0,-0.4 0.1,-0.8 0.3,-1.2 -2,0.8 -6.9,3.8 -8.3,6.4 0.1,-0.5 0.1,-1 0.1,-1.5 -1.5,1.1 -2.9,2.4 -4.1,3.8 l -0.1,0.1 C 62.9,31.4 52.8,31.2 44.2,33 42.3,31.3 39.3,28.8 35.1,20.4 c -0.3,-0.5 -0.4,1 -0.7,0.5 -1.7,-3.8 -2.7,-10.1 -2.5,-14.5 0,0 -3.4,1.6 -6.3,8.1 -0.5,1.2 -0.9,1.8 -1.2,2.5 -0.2,0.2 0.4,-2.1 0.3,-2 -0.5,0.8 -1.8,2 -2.3,3.5 -0.4,1.1 -0.9,1.7 -1.3,3.1 L 21,21.9 c 0,-0.4 0.1,-1.7 0,-1.4 -1.3,2.7 -2.5,5.5 -3.4,8.3 -1.5,5 -3.3,11.8 -3.6,20.7 -0.1,0.7 0,1.4 -0.1,2 -3.6,4.1 -6.1,7.6 -7,9.4 C 2.2,68.2 -3,79.4 -7.9,97.2 -5.7,92.3 -3,87.7 0,83.3 c -4.2,9.5 -8.2,24.3 -9,47.1 1,-4.7 2.3,-9.4 3.9,-14 -0.7,15.2 1.1,34.1 10.7,55.4 5.7,12.5 18.9,38 51.1,57.9 v 0 c 0,0 10.9,8.1 29.8,14.3 1.4,0.5 2.8,1 4.2,1.5 -0.5,-0.2 -0.9,-0.4 -1.3,-0.6 12.5,3.8 25.5,5.7 38.6,5.7 48.7,0 63.1,-19.5 63.1,-19.5 0,0 -0.1,0 -0.1,0.1 0.7,-0.6 1.3,-1.3 2,-2 -7.7,7.3 -25.2,7.7 -31.8,7.2 11.2,-3.3 18.5,-6.1 32.9,-11.5 1.7,-0.6 3.4,-1.3 5.1,-2.1 0.2,-0.1 0.4,-0.2 0.6,-0.3 0.3,-0.2 0.7,-0.3 1,-0.5 7,-3.3 13.5,-7.4 19.5,-12.2 14.4,-11.5 17.5,-22.7 19.1,-30.1 -0.2,0.7 -0.9,2.4 -1.4,3.4 -3.7,7.9 -11.9,12.8 -20.8,16.9 4.2,-5.6 8.2,-11.4 11.8,-17.4 2.9,-2.9 3.8,-7.4 6,-10.4 1.1,-1.5 2.5,-6.3 3.7,-8.4 7.7,-12.4 7.7,-22.3 7.7,-22.5 4.6,-23.1 4.2,-32.6 1.4,-50.1 -2.4,-13.9 -12.4,-34.1 -21.1,-43.8 z"
   id="path111"
   inkscape:connector-curvature="0"
   style="fill:#fd6a02;fill-opacity:1"
   clip-path="url(#clipPath1872)" /><path
   d="M 99.2,60.1 C 90.9,59.3 87.7,51.7 86.8,48.4 c -3,7.7 -4.2,15.7 -3.5,25.4 0.4,6.4 4.7,13.2 6.8,17.2 0,0 0.5,-0.6 0.7,-0.8 3.9,-4 20,-10.1 21.5,-11 1.7,-1.1 8,-5.7 8.3,-13.2 0,-2.4 -1.3,-4 -21.4,-5.9 z"
   id="path135"
   inkscape:connector-curvature="0"
   style="fill:url(#SVGID_11_)" /><path
   d="M 74.7,124.9 C 68.1,117.8 70.3,111 71.5,108 c 1.1,-2.4 4.3,-4.7 5.5,-5 0,0 -31.4,-6.9 -32.6,28 -0.8,26.5 21.2,38.2 40.6,46.5 v 0 c 5.7,2.5 18.4,3.5 17.1,2.9 C 53.5,151.4 85,136 74.7,124.9 Z"
   id="path144"
   inkscape:connector-curvature="0"
   style="fill:url(#SVGID_12_)" /><path
   d="m 123.2,148 c -1.5,0 -2.9,0.1 -4.4,0.2 -2.5,0.2 -5.2,1.8 -7.7,1.5 -0.1,0 2.4,-1 2.2,-1 -1.3,0.3 -2.8,0.3 -4.3,0.5 -1,0.1 -1.8,0.2 -2.8,0.3 C 77.7,152 53.5,134 53.5,134 c -2.1,6.9 9.2,20.7 24.6,26 v 0 c 13.7,4.8 29.8,3.9 39.4,-1.4 6.4,-3.6 14.7,-9.3 19.7,-7.9 -4.4,-1.7 -7.7,-2.5 -11.7,-2.7 -0.7,0.1 -1.5,0.1 -2.3,0 z"
   id="path163"
   inkscape:connector-curvature="0"
   style="fill:url(#SVGID_13_)" /><path
   style="fill:url(#SVGID_14_)"
   inkscape:connector-curvature="0"
   id="path178"
   d="M 242.8,82.8 C 232.9,53.2 219.4,37 202.1,21.2 c -28,-25.7 -35.8,-37.2 -35.8,-44 0,0 -32.3,36 -18.3,73.5 14,37.5 42.7,36.2 61.6,75.3 22.3,46.1 -18.1,96.4 -51.5,110.5 2,-0.5 74.2,-16.8 78,-58.1 -0.1,0.8 -1.7,12.2 -22.3,21.5 5.9,-6.5 11.1,-13.9 15.1,-22.2 10.5,-21.6 26.4,-57.4 13.9,-94.9 z"
   clip-path="url(#clipPath1878)" /><path
   style="fill:url(#SVGID_15_)"
   inkscape:connector-curvature="0"
   id="path205"
   d="m 175.1,86.2 c 1.4,1.9 1.7,2.6 2.5,3.9 10.5,11.2 26,38.6 14.8,72.9 -21.2,64.6 -106,34.2 -114.9,25.6 3.6,37.4 66.2,55.3 107,31 23.2,-22 42,-59.3 25.4,-93.5 -10.2,-20.9 -22.8,-30 -34.8,-39.9 z" /><path
   style="fill:#fff14f;fill-opacity:1"
   inkscape:connector-curvature="0"
   id="path226"
   d="m 244.5,138.6 c 4.5,-19.9 5,-44.5 -6.9,-70.1 C 221.6,34.4 195.3,16.5 185.3,9 170,-2.4 163.7,-13.9 163.6,-16.3 c -4.5,9.3 -18.3,41.2 -1.5,68.7 15.8,25.7 40.6,33.4 57.9,57 32,43.5 -6.1,90.8 -6.1,90.8 29,-28.4 43.6,-63 37.4,-101.8 0.1,0 2.6,19.8 -6.8,40.2 z"
   clip-path="url(#clipPath1956)" /><g
   id="g244"
   clip-path="url(#clipPath2052)">
		<path
   style="opacity:0.05"
   inkscape:connector-curvature="0"
   id="path236"
   d="m 218,43.1 c 21.9,22.4 35.4,53.1 35.4,86.9 0,68.5 -55.2,124 -123.4,124 -33.5,0 -63.8,-13.4 -86,-35.1 22.4,22.9 53.6,37.1 88,37.1 68.2,0 123.4,-55.5 123.4,-124 C 255.3,97.1 241,65.6 218,43.1 Z" />
		<path
   style="opacity:0.1"
   inkscape:connector-curvature="0"
   id="path238"
   d="m 253.4,130 c 0,-33.9 -13.5,-64.5 -35.4,-86.9 -0.4,-0.3 -0.7,-0.7 -1.1,-1 21.3,22.3 34.5,52.6 34.5,86 0,68.5 -55.2,124 -123.4,124 -32.9,0 -62.9,-13 -85,-34.1 0.3,0.3 0.6,0.6 0.9,0.9 22.2,21.7 52.6,35.1 86,35.1 68.2,0 123.5,-55.5 123.5,-124 z" />
		<path
   style="opacity:0.2"
   inkscape:connector-curvature="0"
   id="path240"
   d="m 216.9,42 c -0.7,-0.6 -1.4,-1.3 -2,-1.9 -0.7,-0.6 -1.4,-1.2 -2.1,-1.9 19.1,21.8 30.7,50.5 30.7,81.8 0,68.5 -55.2,124 -123.4,124 -30.9,0 -59.2,-11.4 -80.9,-30.3 0.6,0.7 1.2,1.4 1.9,2.1 0.6,0.7 1.3,1.4 1.9,2 22.1,21.1 52.1,34.1 85,34.1 68.2,0 123.4,-55.5 123.4,-124 0,-33.3 -13.1,-63.6 -34.5,-85.9 z" />
		<path
   style="opacity:0.05"
   inkscape:connector-curvature="0"
   id="path242"
   d="m 247.4,124 c 0,-32.4 -12.3,-61.8 -32.5,-83.9 -0.7,-0.6 -1.4,-1.2 -2.1,-1.9 19.1,21.8 30.7,50.5 30.7,81.8 0,68.5 -55.2,124 -123.4,124 -30.9,0 -59.2,-11.4 -80.9,-30.3 0.6,0.7 1.2,1.4 1.9,2.1 21.9,20 51,32.2 82.9,32.2 68.2,0.1 123.4,-55.5 123.4,-124 z" />
	</g>
</svg>