<?xml version="1.0" encoding="UTF-8" standalone="no"?>
<!-- Generator: Adobe Illustrator 21.0.2, SVG Export Plug-In . SVG Version: 6.00 Build 0)  -->

<svg
   xmlns:dc="http://purl.org/dc/elements/1.1/"
   xmlns:cc="http://creativecommons.org/ns#"
   xmlns:rdf="http://www.w3.org/1999/02/22-rdf-syntax-ns#"
   xmlns:svg="http://www.w3.org/2000/svg"
   xmlns="http://www.w3.org/2000/svg"
   xmlns:xlink="http://www.w3.org/1999/xlink"
   xmlns:sodipodi="http://sodipodi.sourceforge.net/DTD/sodipodi-0.dtd"
   xmlns:inkscape="http://www.inkscape.org/namespaces/inkscape"
   version="1.1"
   id="Layer_1"
   x="0px"
   y="0px"
   viewBox="0 0 256 256"
   enable-background="new 0 0 256 256"
   xml:space="preserve"
   sodipodi:docname="firefox-focus.svg"
   inkscape:version="0.92.4 (5da689c313, 2019-01-14)"><metadata
   id="metadata253"><rdf:RDF><cc:Work
       rdf:about=""><dc:format>image/svg+xml</dc:format><dc:type
         rdf:resource="http://purl.org/dc/dcmitype/StillImage" /><dc:title /></cc:Work></rdf:RDF></metadata><defs
   id="defs251">
	
	

		<defs
   id="defs3">
			<path
   id="SVGID_1_"
   d="M 124,0 C 55.9,0 0.7,55.5 0.7,124 0.6,192.6 55.9,248 124,248 192.2,248 247.4,192.5 247.4,124 247.4,55.5 192.2,0 124,0 Z"
   inkscape:connector-curvature="0" />
		</defs>
		<clipPath
   id="SVGID_2_">
			<use
   xlink:href="#SVGID_1_"
   overflow="visible"
   id="use5"
   style="overflow:visible"
   x="0"
   y="0"
   width="100%"
   height="100%" />
		</clipPath>
		
	
			<radialGradient
   gradientUnits="userSpaceOnUse"
   r="237.6331"
   cy="61.8969"
   cx="154.44119"
   id="SVGID_3_"
   gradientTransform="translate(158.91525,22.237288)">
				<stop
   id="stop8"
   style="stop-color:#00CCDA"
   offset="0" />
				<stop
   id="stop10"
   style="stop-color:#0083FF"
   offset="0.22" />
				<stop
   id="stop12"
   style="stop-color:#007AF9"
   offset="0.261" />
				<stop
   id="stop14"
   style="stop-color:#0060E8"
   offset="0.33" />
				<stop
   id="stop16"
   style="stop-color:#005FE7"
   offset="0.333" />
				<stop
   id="stop18"
   style="stop-color:#2639AD"
   offset="0.438" />
				<stop
   id="stop20"
   style="stop-color:#401E84"
   offset="0.522" />
				<stop
   id="stop22"
   style="stop-color:#4A1475"
   offset="0.566" />
			</radialGradient>
			
			
		
				<linearGradient
   id="SVGID_4_"
   gradientUnits="userSpaceOnUse"
   x1="120.4303"
   y1="242.5222"
   x2="120.4303"
   y2="1.8336">
					<stop
   offset="0"
   style="stop-color:#000F43;stop-opacity:0.4"
   id="stop27" />
					<stop
   offset="0.485"
   style="stop-color:#001962;stop-opacity:0.173"
   id="stop29" />
					<stop
   offset="1"
   style="stop-color:#002079;stop-opacity:0"
   id="stop31" />
				</linearGradient>
				
				<linearGradient
   id="SVGID_5_"
   gradientUnits="userSpaceOnUse"
   x1="243.77341"
   y1="153.6384"
   x2="199.4843"
   y2="203.5463">
					<stop
   offset="3.000000e-03"
   style="stop-color:#FFEA00"
   id="stop36" />
					<stop
   offset="0.497"
   style="stop-color:#FF272D"
   id="stop38" />
					<stop
   offset="1"
   style="stop-color:#C42482"
   id="stop40" />
				</linearGradient>
				
				<linearGradient
   id="SVGID_6_"
   gradientUnits="userSpaceOnUse"
   x1="245.9402"
   y1="189.5771"
   x2="149.7605"
   y2="233.2049">
					<stop
   offset="3.000000e-03"
   style="stop-color:#FF272D"
   id="stop45" />
					<stop
   offset="0.497"
   style="stop-color:#C42482"
   id="stop47" />
					<stop
   offset="0.986"
   style="stop-color:#620700"
   id="stop49" />
				</linearGradient>
				
				
					<radialGradient
   id="SVGID_7_"
   cx="227.0363"
   cy="50.159401"
   r="53.863899"
   gradientTransform="matrix(1,0,0,2.4605,0,-73.2587)"
   gradientUnits="userSpaceOnUse">
					<stop
   offset="4.500000e-02"
   style="stop-color:#FFEA00"
   id="stop54" />
					<stop
   offset="0.12"
   style="stop-color:#FFDE00"
   id="stop56" />
					<stop
   offset="0.254"
   style="stop-color:#FFBF00"
   id="stop58" />
					<stop
   offset="0.429"
   style="stop-color:#FF8E00"
   id="stop60" />
					<stop
   offset="0.769"
   style="stop-color:#FF272D"
   id="stop62" />
					<stop
   offset="0.872"
   style="stop-color:#E0255A"
   id="stop64" />
					<stop
   offset="0.953"
   style="stop-color:#CC2477"
   id="stop66" />
					<stop
   offset="1"
   style="stop-color:#C42482"
   id="stop68" />
				</radialGradient>
				
				<linearGradient
   id="SVGID_8_"
   gradientUnits="userSpaceOnUse"
   x1="259.44611"
   y1="92.444397"
   x2="230.6913"
   y2="151.6066">
					<stop
   offset="3.000000e-03"
   style="stop-color:#FFE900"
   id="stop73" />
					<stop
   offset="0.157"
   style="stop-color:#FFAF0E"
   id="stop75" />
					<stop
   offset="0.316"
   style="stop-color:#FF7A1B"
   id="stop77" />
					<stop
   offset="0.472"
   style="stop-color:#FF4E26"
   id="stop79" />
					<stop
   offset="0.621"
   style="stop-color:#FF2C2E"
   id="stop81" />
					<stop
   offset="0.762"
   style="stop-color:#FF1434"
   id="stop83" />
					<stop
   offset="0.892"
   style="stop-color:#FF0538"
   id="stop85" />
					<stop
   offset="1"
   style="stop-color:#FF0039"
   id="stop87" />
				</linearGradient>
				
				<radialGradient
   id="SVGID_9_"
   cx="178.6011"
   cy="84.071602"
   r="199.89259"
   gradientUnits="userSpaceOnUse">
					<stop
   offset="0.156"
   style="stop-color:#FFEA00"
   id="stop92" />
					<stop
   offset="0.231"
   style="stop-color:#FFDE00"
   id="stop94" />
					<stop
   offset="0.365"
   style="stop-color:#FFBF00"
   id="stop96" />
					<stop
   offset="0.541"
   style="stop-color:#FF8E00"
   id="stop98" />
					<stop
   offset="0.763"
   style="stop-color:#FF272D"
   id="stop100" />
					<stop
   offset="0.796"
   style="stop-color:#F92433"
   id="stop102" />
					<stop
   offset="0.841"
   style="stop-color:#E91C45"
   id="stop104" />
					<stop
   offset="0.893"
   style="stop-color:#CF0E62"
   id="stop106" />
					<stop
   offset="0.935"
   style="stop-color:#B5007F"
   id="stop108" />
				</radialGradient>
				
				<linearGradient
   id="SVGID_10_"
   gradientUnits="userSpaceOnUse"
   x1="28.129801"
   y1="46.5014"
   x2="33.748501"
   y2="7.5005999">
					<stop
   offset="0"
   style="stop-color:#891551;stop-opacity:0.6"
   id="stop113" />
					<stop
   offset="1"
   style="stop-color:#C42482;stop-opacity:0"
   id="stop115" />
				</linearGradient>
				
				<linearGradient
   id="SVGID_11_"
   gradientUnits="userSpaceOnUse"
   x1="57.853199"
   y1="70.8424"
   x2="121.6426"
   y2="68.528801">
					<stop
   offset="0"
   style="stop-color:#C42482;stop-opacity:0.5"
   id="stop120" />
					<stop
   offset="0.474"
   style="stop-color:#FF272D;stop-opacity:0.5"
   id="stop122" />
					<stop
   offset="0.486"
   style="stop-color:#FF2C2C;stop-opacity:0.513"
   id="stop124" />
					<stop
   offset="0.675"
   style="stop-color:#FF7A1A;stop-opacity:0.72"
   id="stop126" />
					<stop
   offset="0.829"
   style="stop-color:#FFB20D;stop-opacity:0.871"
   id="stop128" />
					<stop
   offset="0.942"
   style="stop-color:#FFD605;stop-opacity:0.964"
   id="stop130" />
					<stop
   offset="1"
   style="stop-color:#FFE302"
   id="stop132" />
				</linearGradient>
				
				<linearGradient
   id="SVGID_12_"
   gradientUnits="userSpaceOnUse"
   x1="53.934601"
   y1="100.3835"
   x2="69.799301"
   y2="148.9693">
					<stop
   offset="5.000000e-03"
   style="stop-color:#891551;stop-opacity:0.5"
   id="stop137" />
					<stop
   offset="0.484"
   style="stop-color:#FF272D;stop-opacity:0.5"
   id="stop139" />
					<stop
   offset="1"
   style="stop-color:#FF272D;stop-opacity:0"
   id="stop141" />
				</linearGradient>
				
				<linearGradient
   id="SVGID_13_"
   gradientUnits="userSpaceOnUse"
   x1="91.350899"
   y1="163.3515"
   x2="94.656097"
   y2="145.8343">
					<stop
   offset="0"
   style="stop-color:#C42482"
   id="stop146" />
					<stop
   offset="8.300000e-02"
   style="stop-color:#C42482;stop-opacity:0.81"
   id="stop148" />
					<stop
   offset="0.206"
   style="stop-color:#C42482;stop-opacity:0.565"
   id="stop150" />
					<stop
   offset="0.328"
   style="stop-color:#C42482;stop-opacity:0.362"
   id="stop152" />
					<stop
   offset="0.447"
   style="stop-color:#C42482;stop-opacity:0.204"
   id="stop154" />
					<stop
   offset="0.562"
   style="stop-color:#C42482;stop-opacity:9.100000e-02"
   id="stop156" />
					<stop
   offset="0.673"
   style="stop-color:#C42482;stop-opacity:2.300000e-02"
   id="stop158" />
					<stop
   offset="0.773"
   style="stop-color:#C42482;stop-opacity:0"
   id="stop160" />
				</linearGradient>
				
				
			
					<linearGradient
   y2="219.89639"
   x2="207.103"
   y1="-1.5489"
   x1="187.27209"
   gradientUnits="userSpaceOnUse"
   id="SVGID_14_">
						<stop
   id="stop165"
   style="stop-color:#FFEA00"
   offset="0.279" />
						<stop
   id="stop167"
   style="stop-color:#FFDD00"
   offset="0.402" />
						<stop
   id="stop169"
   style="stop-color:#FFBA00"
   offset="0.63" />
						<stop
   id="stop171"
   style="stop-color:#FF9100"
   offset="0.856" />
						<stop
   id="stop173"
   style="stop-color:#FF6711"
   offset="0.933" />
						<stop
   id="stop175"
   style="stop-color:#FF4A1D"
   offset="0.994" />
					</linearGradient>
					
					<linearGradient
   y2="210.94769"
   x2="134.0988"
   y1="95.928398"
   x1="178.3878"
   gradientUnits="userSpaceOnUse"
   id="SVGID_15_">
						<stop
   id="stop180"
   style="stop-color:#FF8E00"
   offset="0" />
						<stop
   id="stop182"
   style="stop-color:#FF8E00;stop-opacity:0.858"
   offset="4.000000e-02" />
						<stop
   id="stop184"
   style="stop-color:#FF8E00;stop-opacity:0.729"
   offset="8.400000e-02" />
						<stop
   id="stop186"
   style="stop-color:#FF8E00;stop-opacity:0.628"
   offset="0.13" />
						<stop
   id="stop188"
   style="stop-color:#FF8E00;stop-opacity:0.557"
   offset="0.178" />
						<stop
   id="stop190"
   style="stop-color:#FF8E00;stop-opacity:0.514"
   offset="0.227" />
						<stop
   id="stop192"
   style="stop-color:#FF8E00;stop-opacity:0.5"
   offset="0.282" />
						<stop
   id="stop194"
   style="stop-color:#FF8E00;stop-opacity:0.478"
   offset="0.389" />
						<stop
   id="stop196"
   style="stop-color:#FF8E00;stop-opacity:0.416"
   offset="0.524" />
						<stop
   id="stop198"
   style="stop-color:#FF8E00;stop-opacity:0.314"
   offset="0.676" />
						<stop
   id="stop200"
   style="stop-color:#FF8E00;stop-opacity:0.172"
   offset="0.838" />
						<stop
   id="stop202"
   style="stop-color:#FF8E00;stop-opacity:0"
   offset="1" />
					</linearGradient>
					
					<linearGradient
   y2="165.7812"
   x2="239.61279"
   y1="34.897099"
   x1="184.74741"
   gradientUnits="userSpaceOnUse"
   id="SVGID_16_">
						<stop
   id="stop207"
   style="stop-color:#FFF14F"
   offset="0" />
						<stop
   id="stop209"
   style="stop-color:#FFEE4C"
   offset="0.268" />
						<stop
   id="stop211"
   style="stop-color:#FFE643"
   offset="0.452" />
						<stop
   id="stop213"
   style="stop-color:#FFD834"
   offset="0.612" />
						<stop
   id="stop215"
   style="stop-color:#FFC41E"
   offset="0.757" />
						<stop
   id="stop217"
   style="stop-color:#FFAB02"
   offset="0.892" />
						<stop
   id="stop219"
   style="stop-color:#FFA900"
   offset="0.902" />
						<stop
   id="stop221"
   style="stop-color:#FFA000"
   offset="0.949" />
						<stop
   id="stop223"
   style="stop-color:#FF9100"
   offset="1" />
					</linearGradient>
					
				<radialGradient
   gradientTransform="matrix(1.005269,0,0,1,3.2964356,4.0000005)"
   gradientUnits="userSpaceOnUse"
   r="237.6331"
   cy="61.8969"
   cx="154.44119"
   id="SVGID_3_-3"><stop
     id="stop8-6"
     style="stop-color:#00CCDA"
     offset="0" /><stop
     id="stop10-7"
     style="stop-color:#0083FF"
     offset="0.22" /><stop
     id="stop12-5"
     style="stop-color:#007AF9"
     offset="0.261" /><stop
     id="stop14-3"
     style="stop-color:#0060E8"
     offset="0.33" /><stop
     id="stop16-5"
     style="stop-color:#005FE7"
     offset="0.333" /><stop
     id="stop18-6"
     style="stop-color:#2639AD"
     offset="0.438" /><stop
     id="stop20-2"
     style="stop-color:#401E84"
     offset="0.522" /><stop
     id="stop22-9"
     style="stop-color:#4A1475"
     offset="0.566" /></radialGradient><radialGradient
   gradientTransform="matrix(1.005269,0,0,1,3.2964381,3.9999975)"
   gradientUnits="userSpaceOnUse"
   r="237.6331"
   cy="61.8969"
   cx="154.44119"
   id="SVGID_3_-3-2"><stop
     id="stop8-6-7"
     style="stop-color:#00CCDA"
     offset="0" /><stop
     id="stop10-7-0"
     style="stop-color:#0083FF"
     offset="0.22" /><stop
     id="stop12-5-9"
     style="stop-color:#007AF9"
     offset="0.261" /><stop
     id="stop14-3-3"
     style="stop-color:#0060E8"
     offset="0.33" /><stop
     id="stop16-5-6"
     style="stop-color:#005FE7"
     offset="0.333" /><stop
     id="stop18-6-0"
     style="stop-color:#2639AD"
     offset="0.438" /><stop
     id="stop20-2-6"
     style="stop-color:#401E84"
     offset="0.522" /><stop
     id="stop22-9-2"
     style="stop-color:#4A1475"
     offset="0.566" /></radialGradient><radialGradient
   gradientTransform="matrix(1.005269,0,0,1,3.2964336,4.000001)"
   gradientUnits="userSpaceOnUse"
   r="237.6331"
   cy="61.8969"
   cx="154.44119"
   id="SVGID_3_-3-2-7"><stop
     id="stop8-6-7-6"
     style="stop-color:#00CCDA"
     offset="0" /><stop
     id="stop10-7-0-5"
     style="stop-color:#0083FF"
     offset="0.22" /><stop
     id="stop12-5-9-6"
     style="stop-color:#007AF9"
     offset="0.261" /><stop
     id="stop14-3-3-9"
     style="stop-color:#0060E8"
     offset="0.33" /><stop
     id="stop16-5-6-3"
     style="stop-color:#005FE7"
     offset="0.333" /><stop
     id="stop18-6-0-7"
     style="stop-color:#2639AD"
     offset="0.438" /><stop
     id="stop20-2-6-4"
     style="stop-color:#401E84"
     offset="0.522" /><stop
     id="stop22-9-2-5"
     style="stop-color:#4A1475"
     offset="0.566" /></radialGradient><radialGradient
   gradientTransform="matrix(1.005269,0,0,1,3.2964349,4.000001)"
   gradientUnits="userSpaceOnUse"
   r="237.6331"
   cy="61.8969"
   cx="154.44119"
   id="SVGID_3_-3-2-5"><stop
     id="stop8-6-7-4"
     style="stop-color:#00CCDA"
     offset="0" /><stop
     id="stop10-7-0-7"
     style="stop-color:#0083FF"
     offset="0.22" /><stop
     id="stop12-5-9-4"
     style="stop-color:#007AF9"
     offset="0.261" /><stop
     id="stop14-3-3-4"
     style="stop-color:#0060E8"
     offset="0.33" /><stop
     id="stop16-5-6-30"
     style="stop-color:#005FE7"
     offset="0.333" /><stop
     id="stop18-6-0-78"
     style="stop-color:#2639AD"
     offset="0.438" /><stop
     id="stop20-2-6-6"
     style="stop-color:#401E84"
     offset="0.522" /><stop
     id="stop22-9-2-8"
     style="stop-color:#4A1475"
     offset="0.566" /></radialGradient><clipPath
   clipPathUnits="userSpaceOnUse"
   id="clipPath1872"><path
     style="fill:url(#radialGradient1876);stroke-width:1.00263107"
     inkscape:connector-curvature="0"
     id="path1874"
     d="m 127.94981,4.000001 c -68.458825,0 -123.9496751,55.5 -123.9496751,123.999989 C 3.8996049,196.59999 59.490985,252 127.94981,252 196.50915,252 252,196.49999 252,127.99999 252,59.500001 196.50915,4.000001 127.94981,4.000001 Z" /></clipPath><radialGradient
   inkscape:collect="always"
   xlink:href="#SVGID_3_-3-2-5"
   id="radialGradient1876"
   gradientUnits="userSpaceOnUse"
   gradientTransform="matrix(1.005269,0,0,1,3.2964349,4.000001)"
   cx="154.44119"
   cy="61.8969"
   r="237.6331" /><clipPath
   clipPathUnits="userSpaceOnUse"
   id="clipPath1878"><path
     style="fill:url(#radialGradient1882);stroke-width:1.00263107"
     inkscape:connector-curvature="0"
     id="path1880"
     d="m 127.94981,4.000001 c -68.458826,0 -123.9496764,55.5 -123.9496764,123.999989 C 3.8996036,196.59999 59.490984,252 127.94981,252 196.50915,252 252,196.49999 252,127.99999 252,59.500001 196.50915,4.000001 127.94981,4.000001 Z" /></clipPath><radialGradient
   inkscape:collect="always"
   xlink:href="#SVGID_3_-3-2-7"
   id="radialGradient1882"
   gradientUnits="userSpaceOnUse"
   gradientTransform="matrix(1.005269,0,0,1,3.2964336,4.000001)"
   cx="154.44119"
   cy="61.8969"
   r="237.6331" /><radialGradient
   gradientTransform="matrix(1.005269,0,0,1,3.2964331,3.999995)"
   gradientUnits="userSpaceOnUse"
   r="237.6331"
   cy="61.8969"
   cx="154.44119"
   id="SVGID_3_-3-2-4"><stop
     id="stop8-6-7-3"
     style="stop-color:#00CCDA"
     offset="0" /><stop
     id="stop10-7-0-1"
     style="stop-color:#0083FF"
     offset="0.22" /><stop
     id="stop12-5-9-49"
     style="stop-color:#007AF9"
     offset="0.261" /><stop
     id="stop14-3-3-2"
     style="stop-color:#0060E8"
     offset="0.33" /><stop
     id="stop16-5-6-0"
     style="stop-color:#005FE7"
     offset="0.333" /><stop
     id="stop18-6-0-6"
     style="stop-color:#2639AD"
     offset="0.438" /><stop
     id="stop20-2-6-8"
     style="stop-color:#401E84"
     offset="0.522" /><stop
     id="stop22-9-2-9"
     style="stop-color:#4A1475"
     offset="0.566" /></radialGradient><radialGradient
   gradientTransform="matrix(1.005269,0,0,1,3.2964331,3.999998)"
   gradientUnits="userSpaceOnUse"
   r="237.6331"
   cy="61.8969"
   cx="154.44119"
   id="SVGID_3_-3-2-6"><stop
     id="stop8-6-7-64"
     style="stop-color:#00CCDA"
     offset="0" /><stop
     id="stop10-7-0-9"
     style="stop-color:#0083FF"
     offset="0.22" /><stop
     id="stop12-5-9-5"
     style="stop-color:#007AF9"
     offset="0.261" /><stop
     id="stop14-3-3-0"
     style="stop-color:#0060E8"
     offset="0.33" /><stop
     id="stop16-5-6-4"
     style="stop-color:#005FE7"
     offset="0.333" /><stop
     id="stop18-6-0-8"
     style="stop-color:#2639AD"
     offset="0.438" /><stop
     id="stop20-2-6-7"
     style="stop-color:#401E84"
     offset="0.522" /><stop
     id="stop22-9-2-1"
     style="stop-color:#4A1475"
     offset="0.566" /></radialGradient><clipPath
   clipPathUnits="userSpaceOnUse"
   id="clipPath1950"><path
     style="fill:url(#radialGradient1954);stroke-width:1.00263107"
     inkscape:connector-curvature="0"
     id="path1952"
     d="M 127.94981,3.9999975 C 59.490988,3.9999975 4.0001381,59.499998 4.0001381,127.99999 3.8996081,196.59999 59.490988,252 127.94981,252 196.50915,252 252,196.49999 252,127.99999 252,59.499998 196.50915,3.9999975 127.94981,3.9999975 Z" /></clipPath><radialGradient
   inkscape:collect="always"
   xlink:href="#SVGID_3_-3-2"
   id="radialGradient1954"
   gradientUnits="userSpaceOnUse"
   gradientTransform="matrix(1.005269,0,0,1,3.2964381,3.9999975)"
   cx="154.44119"
   cy="61.8969"
   r="237.6331" /><clipPath
   clipPathUnits="userSpaceOnUse"
   id="clipPath1956"><path
     style="fill:url(#radialGradient1960);stroke-width:1.00263107"
     inkscape:connector-curvature="0"
     id="path1958"
     d="m 127.94981,3.999998 c -68.458827,0 -123.9496769,55.5 -123.9496769,123.999992 C 3.8996031,196.59999 59.490983,252 127.94981,252 196.50915,252 252,196.49999 252,127.99999 252,59.499998 196.50915,3.999998 127.94981,3.999998 Z" /></clipPath><radialGradient
   inkscape:collect="always"
   xlink:href="#SVGID_3_-3-2-6"
   id="radialGradient1960"
   gradientUnits="userSpaceOnUse"
   gradientTransform="matrix(1.005269,0,0,1,3.2964331,3.999998)"
   cx="154.44119"
   cy="61.8969"
   r="237.6331" /><radialGradient
   gradientTransform="matrix(1.005269,0,0,1,3.2964281,4.0000005)"
   gradientUnits="userSpaceOnUse"
   r="237.6331"
   cy="61.8969"
   cx="154.44119"
   id="SVGID_3_-3-2-4-2"><stop
     id="stop8-6-7-3-7"
     style="stop-color:#00CCDA"
     offset="0" /><stop
     id="stop10-7-0-1-2"
     style="stop-color:#0083FF"
     offset="0.22" /><stop
     id="stop12-5-9-49-2"
     style="stop-color:#007AF9"
     offset="0.261" /><stop
     id="stop14-3-3-2-6"
     style="stop-color:#0060E8"
     offset="0.33" /><stop
     id="stop16-5-6-0-1"
     style="stop-color:#005FE7"
     offset="0.333" /><stop
     id="stop18-6-0-6-0"
     style="stop-color:#2639AD"
     offset="0.438" /><stop
     id="stop20-2-6-8-6"
     style="stop-color:#401E84"
     offset="0.522" /><stop
     id="stop22-9-2-9-1"
     style="stop-color:#4A1475"
     offset="0.566" /></radialGradient><clipPath
   clipPathUnits="userSpaceOnUse"
   id="clipPath2004"><path
     style="fill:url(#radialGradient2008);stroke-width:1.00263107"
     inkscape:connector-curvature="0"
     id="path2006"
     d="M 127.94982,4.0000005 C 59.490978,4.0000005 4.0001281,59.500001 4.0001281,127.99999 3.8995981,196.59999 59.490978,252 127.94982,252 c 68.55934,0 124.05019,-55.50001 124.05019,-124.00001 0,-68.499989 -55.49085,-123.9999895 -124.05019,-123.9999895 z" /></clipPath><radialGradient
   inkscape:collect="always"
   xlink:href="#SVGID_3_-3-2-4-2"
   id="radialGradient2008"
   gradientUnits="userSpaceOnUse"
   gradientTransform="matrix(1.005269,0,0,1,3.2964281,4.0000005)"
   cx="154.44119"
   cy="61.8969"
   r="237.6331" /><radialGradient
   gradientTransform="matrix(1.005269,0,0,1,3.2964331,3.999995)"
   gradientUnits="userSpaceOnUse"
   r="237.6331"
   cy="61.8969"
   cx="154.44119"
   id="SVGID_3_-3-2-4-9"><stop
     id="stop8-6-7-3-4"
     style="stop-color:#00CCDA"
     offset="0" /><stop
     id="stop10-7-0-1-9"
     style="stop-color:#0083FF"
     offset="0.22" /><stop
     id="stop12-5-9-49-0"
     style="stop-color:#007AF9"
     offset="0.261" /><stop
     id="stop14-3-3-2-9"
     style="stop-color:#0060E8"
     offset="0.33" /><stop
     id="stop16-5-6-0-17"
     style="stop-color:#005FE7"
     offset="0.333" /><stop
     id="stop18-6-0-6-7"
     style="stop-color:#2639AD"
     offset="0.438" /><stop
     id="stop20-2-6-8-1"
     style="stop-color:#401E84"
     offset="0.522" /><stop
     id="stop22-9-2-9-15"
     style="stop-color:#4A1475"
     offset="0.566" /></radialGradient><clipPath
   clipPathUnits="userSpaceOnUse"
   id="clipPath2052"><path
     style="fill:url(#radialGradient2056);stroke-width:1.00263107"
     inkscape:connector-curvature="0"
     id="path2054"
     d="M 127.94981,3.999995 C 59.490983,3.999995 4.0001331,59.499997 4.0001331,127.99999 3.8996031,196.59999 59.490983,252.00001 127.94981,252.00001 196.50915,252.00001 252,196.49999 252,127.99999 252,59.499997 196.50915,3.999995 127.94981,3.999995 Z" /></clipPath><radialGradient
   inkscape:collect="always"
   xlink:href="#SVGID_3_-3-2-4"
   id="radialGradient2056"
   gradientUnits="userSpaceOnUse"
   gradientTransform="matrix(1.005269,0,0,1,3.2964331,3.999995)"
   cx="154.44119"
   cy="61.8969"
   r="237.6331" /><clipPath
   clipPathUnits="userSpaceOnUse"
   id="clipPath2058"><path
     style="fill:url(#radialGradient2062);stroke-width:1.00263107"
     inkscape:connector-curvature="0"
     id="path2060"
     d="M 127.94981,3.999995 C 59.490983,3.999995 4.0001331,59.499996 4.0001331,127.99998 3.8996031,196.59998 59.490983,252.00001 127.94981,252.00001 196.50915,252.00001 252,196.49998 252,127.99998 252,59.499996 196.50915,3.999995 127.94981,3.999995 Z" /></clipPath><radialGradient
   inkscape:collect="always"
   xlink:href="#SVGID_3_-3-2-4-9"
   id="radialGradient2062"
   gradientUnits="userSpaceOnUse"
   gradientTransform="matrix(1.005269,0,0,1,3.2964331,3.999995)"
   cx="154.44119"
   cy="61.8969"
   r="237.6331" /><radialGradient
   id="radial-gradient"
   cx="-14480.522"
   cy="-8329.0791"
   fx="-14509.281"
   r="450.875"
   gradientTransform="matrix(0.19204873,0.0085691,-0.01260162,0.28227636,2912.7596,2541.2367)"
   gradientUnits="userSpaceOnUse"><stop
     offset="0.045"
     stop-color="#ffea00"
     id="stop2" /><stop
     offset="0.12"
     stop-color="#ffde00"
     id="stop4" /><stop
     offset="0.254"
     stop-color="#ffbf00"
     id="stop6" /><stop
     offset="0.429"
     stop-color="#ff8e00"
     id="stop8-3" /><stop
     offset="0.769"
     stop-color="#ff272d"
     id="stop10-6" /><stop
     offset="0.872"
     stop-color="#e0255a"
     id="stop12-7" /><stop
     offset="0.953"
     stop-color="#cc2477"
     id="stop14-5" /><stop
     offset="1"
     stop-color="#c42482"
     id="stop16-3" /></radialGradient><radialGradient
   id="radial-gradient-2"
   cx="-7529.6689"
   cy="-7921.6079"
   r="791.229"
   gradientTransform="matrix(0.30873976,0,0,0.30873976,2669.5934,2325.0422)"
   gradientUnits="userSpaceOnUse"><stop
     offset="0"
     stop-color="#00ccda"
     id="stop19" /><stop
     offset="0.22"
     stop-color="#0083ff"
     id="stop21" /><stop
     offset="0.261"
     stop-color="#007af9"
     id="stop23" /><stop
     offset="0.33"
     stop-color="#0060e8"
     id="stop25" /><stop
     offset="0.333"
     stop-color="#005fe7"
     id="stop27-5" /><stop
     offset="0.438"
     stop-color="#2639ad"
     id="stop29-6" /><stop
     offset="0.522"
     stop-color="#401e84"
     id="stop31-2" /><stop
     offset="0.566"
     stop-color="#4a1475"
     id="stop33" /></radialGradient><linearGradient
   id="linear-gradient"
   x1="575.66901"
   y1="731.18799"
   x2="384.23099"
   y2="104.96"
   gradientUnits="userSpaceOnUse"
   gradientTransform="matrix(0.25203246,0,0,0.25203246,-0.96070953,3.495935)"><stop
     offset="0"
     stop-color="#000f43"
     stop-opacity="0.4"
     id="stop36-9" /><stop
     offset="0.485"
     stop-color="#001962"
     stop-opacity="0.173"
     id="stop38-1" /><stop
     offset="1"
     stop-color="#002079"
     stop-opacity="0"
     id="stop40-2" /></linearGradient><radialGradient
   id="radial-gradient-3"
   cx="-8260.9404"
   cy="-6516.5562"
   r="266.88599"
   gradientTransform="matrix(0.30722757,0.03099999,-0.03099999,0.30722757,2594.0323,2422.3094)"
   gradientUnits="userSpaceOnUse"><stop
     offset="0.003"
     stop-color="#ffea00"
     id="stop43" /><stop
     offset="0.497"
     stop-color="#ff272d"
     id="stop45-7" /><stop
     offset="1"
     stop-color="#c42482"
     id="stop47-0" /></radialGradient><radialGradient
   id="radial-gradient-4"
   cx="-8285.0869"
   cy="-6772.4678"
   r="445.67801"
   gradientTransform="matrix(0.30722757,0.03099999,-0.03099999,0.30722757,2594.0323,2422.3094)"
   gradientUnits="userSpaceOnUse"><stop
     offset="0.003"
     stop-color="#ffe900"
     id="stop50" /><stop
     offset="0.157"
     stop-color="#ffaf0e"
     id="stop52" /><stop
     offset="0.316"
     stop-color="#ff7a1b"
     id="stop54-9" /><stop
     offset="0.472"
     stop-color="#ff4e26"
     id="stop56-3" /><stop
     offset="0.621"
     stop-color="#ff2c2e"
     id="stop58-6" /><stop
     offset="0.762"
     stop-color="#ff1434"
     id="stop60-0" /><stop
     offset="0.892"
     stop-color="#ff0538"
     id="stop62-6" /><stop
     offset="1"
     stop-color="#ff0039"
     id="stop64-2" /></radialGradient><radialGradient
   id="radial-gradient-5"
   cx="-8222.0508"
   cy="-6359.332"
   r="408.95801"
   gradientTransform="matrix(0.30722757,0.03099999,-0.03099999,0.30722757,2594.0323,2422.3094)"
   gradientUnits="userSpaceOnUse"><stop
     offset="0.003"
     stop-color="#ff272d"
     id="stop67" /><stop
     offset="0.497"
     stop-color="#c42482"
     id="stop69" /><stop
     offset="0.986"
     stop-color="#620700"
     id="stop71" /></radialGradient><radialGradient
   id="radial-gradient-6"
   cx="750.18903"
   cy="396.04099"
   fx="778.1665"
   fy="382.2124"
   r="782.17999"
   gradientUnits="userSpaceOnUse"
   gradientTransform="matrix(0.25203246,0,0,0.25203246,-0.96070953,3.495935)"><stop
     offset="0.156"
     stop-color="#ffea00"
     id="stop74" /><stop
     offset="0.231"
     stop-color="#ffde00"
     id="stop76" /><stop
     offset="0.365"
     stop-color="#ffbf00"
     id="stop78" /><stop
     offset="0.541"
     stop-color="#ff8e00"
     id="stop80" /><stop
     offset="0.763"
     stop-color="#ff272d"
     id="stop82" /><stop
     offset="0.796"
     stop-color="#f92433"
     id="stop84" /><stop
     offset="0.841"
     stop-color="#e91c45"
     id="stop86" /><stop
     offset="0.893"
     stop-color="#cf0e62"
     id="stop88" /><stop
     offset="0.935"
     stop-color="#b5007f"
     id="stop90" /></radialGradient><radialGradient
   id="radial-gradient-7"
   cx="691.33899"
   cy="3.289"
   r="923.61499"
   gradientUnits="userSpaceOnUse"
   gradientTransform="matrix(0.25203246,0,0,0.25203246,-0.96070953,3.495935)"><stop
     offset="0.279"
     stop-color="#ffea00"
     id="stop93" /><stop
     offset="0.402"
     stop-color="#fd0"
     id="stop95" /><stop
     offset="0.63"
     stop-color="#ffba00"
     id="stop97" /><stop
     offset="0.856"
     stop-color="#ff9100"
     id="stop99" /><stop
     offset="0.933"
     stop-color="#ff6711"
     id="stop101" /><stop
     offset="0.994"
     stop-color="#ff4a1d"
     id="stop103" /></radialGradient><linearGradient
   id="linear-gradient-2"
   x1="-8944.6504"
   y1="-6677.7422"
   x2="-8660.2891"
   y2="-6750.2261"
   gradientTransform="matrix(0.30722757,0.03099999,-0.03099999,0.30722757,2594.0323,2422.3094)"
   gradientUnits="userSpaceOnUse"><stop
     offset="0"
     stop-color="#c42482"
     stop-opacity="0.5"
     id="stop106-6" /><stop
     offset="0.474"
     stop-color="#ff272d"
     stop-opacity="0.5"
     id="stop108-1" /><stop
     offset="0.486"
     stop-color="#ff2c2c"
     stop-opacity="0.513"
     id="stop110" /><stop
     offset="0.675"
     stop-color="#ff7a1a"
     stop-opacity="0.72"
     id="stop112" /><stop
     offset="0.829"
     stop-color="#ffb20d"
     stop-opacity="0.871"
     id="stop114" /><stop
     offset="0.942"
     stop-color="#ffd605"
     stop-opacity="0.964"
     id="stop116" /><stop
     offset="1"
     stop-color="#ffe302"
     id="stop118" /></linearGradient><linearGradient
   id="linear-gradient-3"
   x1="245.347"
   y1="-1082.012"
   x2="190.77499"
   y2="-1221.859"
   gradientTransform="matrix(0.2507723,0.02520325,-0.02520325,0.2507723,-44.73774,334.65172)"
   gradientUnits="userSpaceOnUse"><stop
     offset="0"
     stop-color="#891551"
     stop-opacity="0.6"
     id="stop121" /><stop
     offset="1"
     stop-color="#c42482"
     stop-opacity="0"
     id="stop123" /></linearGradient><linearGradient
   id="linear-gradient-4"
   x1="22.040001"
   y1="718.82703"
   x2="116.148"
   y2="825.71399"
   gradientTransform="matrix(0.2507723,0.02520325,-0.02520325,0.2507723,76.019833,-58.622757)"
   gradientUnits="userSpaceOnUse"><stop
     offset="0.005"
     stop-color="#891551"
     stop-opacity="0.5"
     id="stop126-8" /><stop
     offset="0.484"
     stop-color="#ff272d"
     stop-opacity="0.5"
     id="stop128-7" /><stop
     offset="1"
     stop-color="#ff272d"
     stop-opacity="0"
     id="stop130-9" /></linearGradient><linearGradient
   id="linear-gradient-5"
   x1="200.104"
   y1="904.61603"
   x2="200.17101"
   y2="829.83502"
   gradientTransform="matrix(0.2507723,0.02520325,-0.02520325,0.2507723,76.019833,-58.622757)"
   gradientUnits="userSpaceOnUse"><stop
     offset="0"
     stop-color="#c42482"
     id="stop133" /><stop
     offset="0.083"
     stop-color="#c42482"
     stop-opacity="0.81"
     id="stop135" /><stop
     offset="0.206"
     stop-color="#c42482"
     stop-opacity="0.565"
     id="stop137-2" /><stop
     offset="0.328"
     stop-color="#c42482"
     stop-opacity="0.362"
     id="stop139-0" /><stop
     offset="0.447"
     stop-color="#c42482"
     stop-opacity="0.204"
     id="stop141-2" /><stop
     offset="0.562"
     stop-color="#c42482"
     stop-opacity="0.091"
     id="stop143" /><stop
     offset="0.673"
     stop-color="#c42482"
     stop-opacity="0.023"
     id="stop145" /><stop
     offset="0.773"
     stop-color="#c42482"
     stop-opacity="0"
     id="stop147" /></linearGradient><linearGradient
   id="linear-gradient-6"
   x1="655.53101"
   y1="38.119999"
   x2="961.18701"
   y2="721.61499"
   gradientUnits="userSpaceOnUse"
   gradientTransform="matrix(0.25203246,0,0,0.25203246,-0.96070953,3.495935)"><stop
     offset="0"
     stop-color="#fff14f"
     id="stop150-3" /><stop
     offset="0.268"
     stop-color="#ffee4c"
     id="stop152-7" /><stop
     offset="0.452"
     stop-color="#ffe643"
     id="stop154-5" /><stop
     offset="0.612"
     stop-color="#ffd834"
     id="stop156-9" /><stop
     offset="0.757"
     stop-color="#ffc41e"
     id="stop158-2" /><stop
     offset="0.892"
     stop-color="#ffab02"
     id="stop160-2" /><stop
     offset="0.902"
     stop-color="#ffa900"
     id="stop162" /><stop
     offset="0.949"
     stop-color="#ffa000"
     id="stop164" /><stop
     offset="1"
     stop-color="#ff9100"
     id="stop166" /></linearGradient><linearGradient
   id="linear-gradient-7"
   x1="715.88501"
   y1="431.20999"
   x2="571.09802"
   y2="819.96002"
   gradientUnits="userSpaceOnUse"
   gradientTransform="matrix(0.25203246,0,0,0.25203246,-0.96070953,3.495935)"><stop
     offset="0"
     stop-color="#ff8e00"
     id="stop169-8" /><stop
     offset="0.04"
     stop-color="#ff8e00"
     stop-opacity="0.858"
     id="stop171-9" /><stop
     offset="0.084"
     stop-color="#ff8e00"
     stop-opacity="0.729"
     id="stop173-7" /><stop
     offset="0.13"
     stop-color="#ff8e00"
     stop-opacity="0.628"
     id="stop175-3" /><stop
     offset="0.178"
     stop-color="#ff8e00"
     stop-opacity="0.557"
     id="stop177" /><stop
     offset="0.227"
     stop-color="#ff8e00"
     stop-opacity="0.514"
     id="stop179" /><stop
     offset="0.282"
     stop-color="#ff8e00"
     stop-opacity="0.5"
     id="stop181" /><stop
     offset="0.389"
     stop-color="#ff8e00"
     stop-opacity="0.478"
     id="stop183" /><stop
     offset="0.524"
     stop-color="#ff8e00"
     stop-opacity="0.416"
     id="stop185" /><stop
     offset="0.676"
     stop-color="#ff8e00"
     stop-opacity="0.314"
     id="stop187" /><stop
     offset="0.838"
     stop-color="#ff8e00"
     stop-opacity="0.172"
     id="stop189" /><stop
     offset="1"
     stop-color="#ff8e00"
     stop-opacity="0"
     id="stop191" /></linearGradient><clipPath
   clipPathUnits="userSpaceOnUse"
   id="clipPath1358"><path
     style="display:inline;fill:#2D9B27;fill-opacity:1;stroke-width:1.00263107"
     inkscape:connector-curvature="0"
     id="path1360"
     d="M 127.94981,4.0000005 C 59.490986,4.0000005 4.0001356,59.500001 4.0001356,128 3.8996056,196.6 59.490986,252 127.94981,252 196.50915,252 252,196.5 252,128 252,59.500001 196.50915,4.0000005 127.94981,4.0000005 Z" /></clipPath><clipPath
   clipPathUnits="userSpaceOnUse"
   id="clipPath1362"><path
     inkscape:connector-curvature="0"
     id="path1364"
     style="fill:url(#linearGradient1366);stroke-width:0.25203246"
     d="m 47.760693,43.435771 c -0.262365,-0.458195 -0.403251,0.94613 -0.604877,0.494236 -1.500854,-3.481325 -2.413967,-9.123575 -2.197724,-13.111233 0,0 -3.104535,1.41491 -5.674006,7.324063 -0.477098,1.062317 -0.783065,1.648293 -1.088781,2.234268 -0.140634,0.170878 0.318822,-1.94065 0.24548,-1.825723 -0.446349,0.756097 -1.601666,1.812617 -2.103463,3.118902 -0.416105,1.068365 -0.844057,1.641991 -1.162626,2.966926 -0.09804,0.360154 0.0988,-1.593602 0.01311,-1.355683 -5.975942,11.549388 -7.11664,29.012465 -6.486811,28.27401 12.722094,-13.58455 27.301416,-16.806281 27.301416,-16.806281 -1.55126,-1.142715 -4.92169,-4.442072 -8.241462,-11.313485 z"
     clip-path="url(#clipPath1358)" /></clipPath><linearGradient
   inkscape:collect="always"
   xlink:href="#linear-gradient-3"
   id="linearGradient1366"
   gradientUnits="userSpaceOnUse"
   gradientTransform="matrix(0.2507723,0.02520325,-0.02520325,0.2507723,-44.73774,334.65172)"
   x1="245.347"
   y1="-1082.012"
   x2="190.77499"
   y2="-1221.859" /><clipPath
   clipPathUnits="userSpaceOnUse"
   id="clipPath1377"><path
     style="display:inline;fill:#2D9B27;fill-opacity:1;stroke-width:1.00263107"
     inkscape:connector-curvature="0"
     id="path1379"
     d="M 127.94981,4.0000005 C 59.490986,4.0000005 4.0001356,59.500001 4.0001356,128 3.8996056,196.6 59.490986,252 127.94981,252 196.50915,252 252,196.5 252,128 252,59.500001 196.50915,4.0000005 127.94981,4.0000005 Z" /></clipPath><clipPath
   clipPathUnits="userSpaceOnUse"
   id="clipPath1381"><path
     d="M 127.94981,4.0000005 C 59.490986,4.0000005 4.0001356,59.500001 4.0001356,128 3.8996056,196.6 59.490986,252 127.94981,252 196.50915,252 252,196.5 252,128 252,59.500001 196.50915,4.0000005 127.94981,4.0000005 Z"
     id="path1383"
     inkscape:connector-curvature="0"
     style="display:inline;fill:#2D9B27;fill-opacity:1;stroke-width:1.00263107" /></clipPath><clipPath
   clipPathUnits="userSpaceOnUse"
   id="clipPath1385"><path
     style="display:inline;fill:#2D9B27;fill-opacity:1;stroke-width:1.00263107"
     inkscape:connector-curvature="0"
     id="path1387"
     d="M 127.94981,4.0000005 C 59.490986,4.0000005 4.0001356,59.500001 4.0001356,128 3.8996056,196.6 59.490986,252 127.94981,252 196.50915,252 252,196.5 252,128 252,59.500001 196.50915,4.0000005 127.94981,4.0000005 Z" /></clipPath><linearGradient
   inkscape:collect="always"
   xlink:href="#SVGID_6_"
   id="linearGradient1199"
   x1="4"
   y1="128"
   x2="252"
   y2="128"
   gradientUnits="userSpaceOnUse" /><linearGradient
   id="linear-gradient-6-8"
   x1="-8778.8066"
   y1="-6369.4072"
   x2="-8547.9189"
   y2="-6368.8652"
   gradientTransform="matrix(1.219,0.123,-0.123,1.219,10533.536,9729.872)"
   gradientUnits="userSpaceOnUse"><stop
     offset="0"
     stop-color="#002079"
     id="stop45-79" /><stop
     offset="0.995"
     stop-color="#000f40"
     id="stop47-2" /></linearGradient><linearGradient
   id="linear-gradient-36"
   x1="524.71002"
   y1="306.91"
   x2="301.37"
   y2="1037.49"
   gradientTransform="matrix(1,0,0,-1,0,984)"
   gradientUnits="userSpaceOnUse"><stop
     offset="0"
     stop-color="#000f43"
     stop-opacity="0.3"
     id="stop36-7" /><stop
     offset="0.35"
     stop-color="#00165a"
     stop-opacity="0.17"
     id="stop38-5" /><stop
     offset="1"
     stop-color="#002079"
     stop-opacity="0"
     id="stop40-3" /></linearGradient><linearGradient
   id="linear-gradient-2-5"
   x1="540.64001"
   y1="254.8"
   x2="349.20001"
   y2="881.03003"
   gradientTransform="matrix(1,0,0,-1,0,984)"
   gradientUnits="userSpaceOnUse"><stop
     offset="0"
     stop-color="#000f43"
     stop-opacity="0.4"
     id="stop43-6" /><stop
     offset="0.48"
     stop-color="#001962"
     stop-opacity="0.17"
     id="stop45-2" /><stop
     offset="1"
     stop-color="#002079"
     stop-opacity="0"
     id="stop47-9" /></linearGradient><radialGradient
   id="radial-gradient-3-1"
   cx="535.41998"
   cy="586.26001"
   r="654.25"
   gradientTransform="matrix(1,0,0,-1,0,984)"
   gradientUnits="userSpaceOnUse"><stop
     offset="0.78"
     stop-color="#fff"
     id="stop50-2" /><stop
     offset="1"
     stop-color="#fff"
     id="stop52-7" /></radialGradient><linearGradient
   id="linear-gradient-3-0"
   x1="760.38"
   y1="1129.42"
   x2="774.09003"
   y2="704.38"
   gradientTransform="matrix(1,0,0,-1,0,984)"
   gradientUnits="userSpaceOnUse"><stop
     offset="0"
     stop-color="#fff"
     stop-opacity="0.8"
     id="stop55" /><stop
     offset="0.97"
     stop-color="#fff"
     id="stop57" /></linearGradient><radialGradient
   id="radial-gradient-3-9"
   cx="535.41998"
   cy="586.26001"
   r="654.25"
   gradientTransform="matrix(0.25203247,0,0,-0.25203247,7.87522,252.00003)"
   gradientUnits="userSpaceOnUse"><stop
     offset="0.78"
     stop-color="#fff"
     id="stop50-3" /><stop
     offset="1"
     stop-color="#fff"
     id="stop52-6" /></radialGradient><radialGradient
   id="radial-gradient-62"
   cx="-7732.75"
   cy="8430.7002"
   fx="-7773.5156"
   r="650.78003"
   gradientTransform="matrix(1.23,0,0,-1.22,9958.21,11048.11)"
   gradientUnits="userSpaceOnUse"><stop
     offset="0.03"
     stop-color="#ff272d"
     stop-opacity="0"
     id="stop2-6" /><stop
     offset="0.15"
     stop-color="#ff2730"
     stop-opacity="0.01"
     id="stop4-1" /><stop
     offset="0.26"
     stop-color="#ff2838"
     stop-opacity="0.06"
     id="stop6-8" /><stop
     offset="0.37"
     stop-color="#ff2a45"
     stop-opacity="0.13"
     id="stop8-7" /><stop
     offset="0.48"
     stop-color="#ff2c58"
     stop-opacity="0.24"
     id="stop10-9" /><stop
     offset="0.59"
     stop-color="#ff2e70"
     stop-opacity="0.37"
     id="stop12-2" /><stop
     offset="0.69"
     stop-color="#ff328e"
     stop-opacity="0.54"
     id="stop14-0" /><stop
     offset="0.8"
     stop-color="#ff36b1"
     stop-opacity="0.74"
     id="stop16-2" /><stop
     offset="0.9"
     stop-color="#ff3ad8"
     stop-opacity="0.96"
     id="stop18-3" /><stop
     offset="0.92"
     stop-color="#ff3be0"
     id="stop20-7" /></radialGradient><radialGradient
   id="radial-gradient-2-5"
   cx="-7584.75"
   cy="8882.7002"
   fx="-7625.5156"
   r="650.78003"
   gradientTransform="matrix(1.23,0,0,-1.22,9958.21,11048.11)"
   gradientUnits="userSpaceOnUse"><stop
     offset="0.03"
     stop-color="#ff3be0"
     id="stop23-9" /><stop
     offset="0.11"
     stop-color="#ff37be"
     stop-opacity="0.81"
     id="stop25-2" /><stop
     offset="0.25"
     stop-color="#ff3081"
     stop-opacity="0.47"
     id="stop27-2" /><stop
     offset="0.36"
     stop-color="#ff2b54"
     stop-opacity="0.22"
     id="stop29-8" /><stop
     offset="0.45"
     stop-color="#ff2838"
     stop-opacity="0.06"
     id="stop31-9" /><stop
     offset="0.49"
     stop-color="#ff272d"
     stop-opacity="0"
     id="stop33-7" /></radialGradient><linearGradient
   inkscape:collect="always"
   xlink:href="#linear-gradient-36"
   id="linearGradient1350"
   gradientUnits="userSpaceOnUse"
   gradientTransform="matrix(1,0,0,-1,0,984)"
   x1="524.71002"
   y1="306.91"
   x2="301.37"
   y2="1037.49" /><linearGradient
   inkscape:collect="always"
   xlink:href="#linear-gradient-2-5"
   id="linearGradient1352"
   gradientUnits="userSpaceOnUse"
   gradientTransform="matrix(1,0,0,-1,0,984)"
   x1="540.64001"
   y1="254.8"
   x2="349.20001"
   y2="881.03003" /><radialGradient
   inkscape:collect="always"
   xlink:href="#radial-gradient-3-1"
   id="radialGradient1354"
   gradientUnits="userSpaceOnUse"
   gradientTransform="matrix(1,0,0,-1,0,984)"
   cx="535.41998"
   cy="586.26001"
   r="654.25" /><linearGradient
   inkscape:collect="always"
   xlink:href="#linear-gradient-3-0"
   id="linearGradient1356"
   gradientUnits="userSpaceOnUse"
   gradientTransform="matrix(1,0,0,-1,0,984)"
   x1="760.38"
   y1="1129.42"
   x2="774.09003"
   y2="704.38" /><linearGradient
   inkscape:collect="always"
   xlink:href="#radial-gradient-5"
   id="linearGradient1364"
   x1="3.9999995"
   y1="128"
   x2="252"
   y2="128"
   gradientUnits="userSpaceOnUse" /></defs><sodipodi:namedview
   pagecolor="#ffffff"
   bordercolor="#666666"
   borderopacity="1"
   objecttolerance="10"
   gridtolerance="10"
   guidetolerance="10"
   inkscape:pageopacity="0"
   inkscape:pageshadow="2"
   inkscape:window-width="1885"
   inkscape:window-height="1536"
   id="namedview249"
   showgrid="false"
   inkscape:zoom="2.6074563"
   inkscape:cx="60.953818"
   inkscape:cy="83.577378"
   inkscape:window-x="178"
   inkscape:window-y="74"
   inkscape:window-maximized="0"
   inkscape:current-layer="layer7"
   inkscape:pagecheckerboard="true" />
<g
   inkscape:groupmode="layer"
   id="layer4"
   inkscape:label="Squircle-Background"
   style="display:none"><rect
     style="display:none;fill:url(#linearGradient1199);fill-opacity:1;stroke-width:1.41822851"
     id="rect1101"
     width="248"
     height="248"
     x="4"
     y="4"
     ry="25.455845" /></g>
<g
   inkscape:groupmode="layer"
   id="layer3"
   inkscape:label="Circle-Background"
   style="display:inline"><path
     style="fill:url(#linearGradient1364);fill-opacity:1;stroke-width:1.00263107"
     inkscape:connector-curvature="0"
     id="path25-1"
     d="M 127.94981,4.0000005 C 59.490986,4.0000005 4.0001356,59.500001 4.0001356,128 3.8996056,196.6 59.490986,252 127.94981,252 196.50915,252 252,196.5 252,128 252,59.500001 196.50915,4.0000005 127.94981,4.0000005 Z" /></g><g
   inkscape:groupmode="layer"
   id="layer1"
   inkscape:label="Squircle-Icon"
   style="display:none"><g
     transform="matrix(0.16260159,0,0,0.16260159,50.490645,47.999999)"
     id="g1342"
     style="display:inline"><g
       style="opacity:0.4"
       id="g1336"><path
         d="m 810.67,803.64 a 246.8,246.8 0 0 1 -30.12,18.18 705.31,705.31 0 0 0 38.3,-63 c 9.46,-10.47 18.13,-20.65 25.19,-31.65 3.44,-5.41 7.31,-12.08 11.42,-19.82 24.92,-44.9 52.4,-117.56 53.18,-192.2 v -5.66 a 257.25,257.25 0 0 0 -5.71,-55.75 c 0.2,1.43 0.38,2.86 0.56,4.29 -0.22,-1.1 -0.41,-2.21 -0.64,-3.31 0.37,2 0.66,4 1,6 5.09,43.22 1.47,85.37 -16.68,116.45 -0.29,0.45 -0.58,0.88 -0.87,1.32 9.41,-47.23 12.56,-99.39 2.09,-151.6 0,0 -4.19,-25.38 -35.38,-102.44 -18,-44.35 -49.83,-80.72 -78,-107.21 -24.69,-30.55 -47.11,-51 -59.47,-64.06 C 689.72,126 678.9,105.61 674.45,92.31 670.6,90.38 621.31,42.5 617.4,40.68 c -21.51,33.35 -89.16,137.67 -57,235.15 14.58,44.17 51.47,90 90.07,115.74 1.69,1.94 23,25 33.09,77.16 10.45,53.85 5,95.86 -16.54,158 C 641.73,681.24 577,735.12 516.3,740.63 386.63,752.41 339.15,675.52 339.15,675.52 385.49,694 436.72,690.17 467.87,671 499.27,651.57 518.26,637.17 533.68,642.85 548.86,648.43 561,632 550.1,615 a 78.5,78.5 0 0 0 -79.4,-34.57 c -31.43,5.11 -60.23,30 -101.41,5.89 a 86.29,86.29 0 0 1 -7.73,-5.06 c -2.71,-1.79 8.83,2.72 6.13,0.69 -8,-4.35 -22.2,-13.84 -25.88,-17.22 -0.61,-0.56 6.22,2.18 5.61,1.62 -38.51,-31.71 -33.7,-53.13 -32.49,-66.57 1,-10.75 8,-24.52 19.75,-30.11 5.69,3.11 9.24,5.48 9.24,5.48 0,0 -2.43,-5 -3.74,-7.58 0.46,-0.2 0.9,-0.15 1.36,-0.34 4.66,2.25 15,8.1 20.41,11.67 7.07,5 9.33,9.44 9.33,9.44 0,0 1.86,-1 0.48,-5.37 -0.5,-1.78 -2.65,-7.45 -9.65,-13.17 h 0.44 a 81.61,81.61 0 0 1 11.87,8.2 c 2,-7.18 5.53,-14.68 4.75,-28.09 -0.48,-9.43 -0.26,-11.87 -1.92,-15.51 -1.49,-3.13 0.83,-4.35 3.42,-1.1 a 32.5,32.5 0 0 0 -2.21,-7.4 v -0.24 c 3.23,-11.24 68.25,-40.46 73,-43.88 A 67.2,67.2 0 0 0 470.59,361 c 3.62,-5.76 6.34,-13.85 7,-26.11 0.36,-8.84 -3.76,-14.73 -69.51,-21.62 -18,-1.77 -28.53,-14.8 -34.53,-26.82 -1.09,-2.59 -2.21,-4.94 -3.33,-7.28 a 57.68,57.68 0 0 1 -2.56,-8.43 c 10.75,-30.87 28.81,-57 55.37,-76.7 1.45,-1.32 -5.78,0.34 -4.34,-1 1.69,-1.54 12.71,-6 14.79,-7 2.54,-1.2 -10.88,-6.9 -22.73,-5.51 -12.07,1.36 -14.63,2.8 -21.07,5.53 2.67,-2.66 11.17,-6.15 9.18,-6.13 -13,2 -29.18,9.56 -43,18.12 a 10.66,10.66 0 0 1 0.83,-4.35 c -6.44,2.73 -22.26,13.79 -26.87,23.14 a 44.29,44.29 0 0 0 0.27,-5.4 84.17,84.17 0 0 0 -13.19,13.82 l -0.24,0.22 c -37.36,-15 -70.23,-16 -98.05,-9.28 -6.09,-6.11 -9.06,-1.64 -22.91,-32.07 -0.94,-1.83 0.72,1.81 0,0 -2.28,-5.9 1.39,7.87 0,0 -23.28,18.37 -53.92,39.19 -68.63,53.89 -0.18,0.59 17.16,-4.9 0,0 -6,1.72 -5.6,5.28 -6.51,37.5 -0.22,2.44 0,5.18 -0.22,7.38 -11.75,15 -19.75,27.64 -22.78,34.21 -15.19,26.18 -31.93,67 -48.15,131.55 A 334.82,334.82 0 0 1 75.2,398.36 C 61.71,432.63 48.67,486.44 46.07,569.3 A 482.08,482.08 0 0 1 58.6,518.64 473,473 0 0 0 93.33,719.71 c 9.33,22.82 24.76,57.46 51,95.4 C 226.9,902 343.31,956 472.21,956 606.79,956 727.64,897.13 810.67,803.64 Z"
         style="fill:url(#linearGradient1350)"
         id="path1332"
         inkscape:connector-curvature="0" /><path
         d="m 810.67,803.64 a 246.8,246.8 0 0 1 -30.12,18.18 705.31,705.31 0 0 0 38.3,-63 c 9.46,-10.47 18.13,-20.65 25.19,-31.65 3.44,-5.41 7.31,-12.08 11.42,-19.82 24.92,-44.9 52.4,-117.56 53.18,-192.2 v -5.66 a 257.25,257.25 0 0 0 -5.71,-55.75 c 0.2,1.43 0.38,2.86 0.56,4.29 -0.22,-1.1 -0.41,-2.21 -0.64,-3.31 0.37,2 0.66,4 1,6 5.09,43.22 1.47,85.37 -16.68,116.45 -0.29,0.45 -0.58,0.88 -0.87,1.32 9.41,-47.23 12.56,-99.39 2.09,-151.6 0,0 -4.19,-25.38 -35.38,-102.44 -18,-44.35 -49.83,-80.72 -78,-107.21 -24.69,-30.55 -47.11,-51 -59.47,-64.06 C 689.72,126 678.9,105.61 674.45,92.31 670.6,90.38 621.31,42.5 617.4,40.68 c -21.51,33.35 -89.16,137.67 -57,235.15 14.58,44.17 51.47,90 90.07,115.74 1.69,1.94 23,25 33.09,77.16 10.45,53.85 5,95.86 -16.54,158 C 641.73,681.24 577,735.12 516.3,740.63 386.63,752.41 339.15,675.52 339.15,675.52 385.49,694 436.72,690.17 467.87,671 499.27,651.57 518.26,637.17 533.68,642.85 548.86,648.43 561,632 550.1,615 a 78.5,78.5 0 0 0 -79.4,-34.57 c -31.43,5.11 -60.23,30 -101.41,5.89 a 86.29,86.29 0 0 1 -7.73,-5.06 c -2.71,-1.79 8.83,2.72 6.13,0.69 -8,-4.35 -22.2,-13.84 -25.88,-17.22 -0.61,-0.56 6.22,2.18 5.61,1.62 -38.51,-31.71 -33.7,-53.13 -32.49,-66.57 1,-10.75 8,-24.52 19.75,-30.11 5.69,3.11 9.24,5.48 9.24,5.48 0,0 -2.43,-5 -3.74,-7.58 0.46,-0.2 0.9,-0.15 1.36,-0.34 4.66,2.25 15,8.1 20.41,11.67 7.07,5 9.33,9.44 9.33,9.44 0,0 1.86,-1 0.48,-5.37 -0.5,-1.78 -2.65,-7.45 -9.65,-13.17 h 0.44 a 81.61,81.61 0 0 1 11.87,8.2 c 2,-7.18 5.53,-14.68 4.75,-28.09 -0.48,-9.43 -0.26,-11.87 -1.92,-15.51 -1.49,-3.13 0.83,-4.35 3.42,-1.1 a 32.5,32.5 0 0 0 -2.21,-7.4 v -0.24 c 3.23,-11.24 68.25,-40.46 73,-43.88 A 67.2,67.2 0 0 0 470.59,361 c 3.62,-5.76 6.34,-13.85 7,-26.11 0.36,-8.84 -3.76,-14.73 -69.51,-21.62 -18,-1.77 -28.53,-14.8 -34.53,-26.82 -1.09,-2.59 -2.21,-4.94 -3.33,-7.28 a 57.68,57.68 0 0 1 -2.56,-8.43 c 10.75,-30.87 28.81,-57 55.37,-76.7 1.45,-1.32 -5.78,0.34 -4.34,-1 1.69,-1.54 12.71,-6 14.79,-7 2.54,-1.2 -10.88,-6.9 -22.73,-5.51 -12.07,1.36 -14.63,2.8 -21.07,5.53 2.67,-2.66 11.17,-6.15 9.18,-6.13 -13,2 -29.18,9.56 -43,18.12 a 10.66,10.66 0 0 1 0.83,-4.35 c -6.44,2.73 -22.26,13.79 -26.87,23.14 a 44.29,44.29 0 0 0 0.27,-5.4 84.17,84.17 0 0 0 -13.19,13.82 l -0.24,0.22 c -37.36,-15 -70.23,-16 -98.05,-9.28 -6.09,-6.11 -9.06,-1.64 -22.91,-32.07 -0.94,-1.83 0.72,1.81 0,0 -2.28,-5.9 1.39,7.87 0,0 -23.28,18.37 -53.92,39.19 -68.63,53.89 -0.18,0.59 17.16,-4.9 0,0 -6,1.72 -5.6,5.28 -6.51,37.5 -0.22,2.44 0,5.18 -0.22,7.38 -11.75,15 -19.75,27.64 -22.78,34.21 -15.19,26.18 -31.93,67 -48.15,131.55 A 334.82,334.82 0 0 1 75.2,398.36 C 61.71,432.63 48.67,486.44 46.07,569.3 A 482.08,482.08 0 0 1 58.6,518.64 473,473 0 0 0 93.33,719.71 c 9.33,22.82 24.76,57.46 51,95.4 C 226.9,902 343.31,956 472.21,956 606.79,956 727.64,897.13 810.67,803.64 Z"
         style="fill:url(#linearGradient1352)"
         id="path1334"
         inkscape:connector-curvature="0" /></g><path
       d="m 896.18,698.54 q 1.58,-2.61 3.09,-5.23 l 0.13,-0.23 c 1,-1.73 2,-3.47 3,-5.2 l 0.13,-0.24 c 1,-1.73 1.94,-3.47 2.89,-5.22 l 0.17,-0.31 c 0.94,-1.73 1.86,-3.45 2.77,-5.18 l 0.17,-0.32 q 1.37,-2.6 2.68,-5.19 l 0.19,-0.38 c 0.87,-1.72 1.72,-3.44 2.57,-5.17 l 0.21,-0.43 c 0.83,-1.71 1.66,-3.43 2.47,-5.15 l 0.22,-0.48 c 0.8,-1.71 1.59,-3.41 2.36,-5.12 l 0.24,-0.53 q 1.14,-2.53 2.26,-5.09 l 0.26,-0.6 c 0.73,-1.68 1.44,-3.36 2.15,-5.05 l 0.27,-0.67 c 0.67,-1.67 1.33,-3.34 2,-5 l 0.28,-0.71 c 0.67,-1.67 1.32,-3.33 1.95,-5 l 0.29,-0.77 q 0.95,-2.47 1.84,-5 l 0.3,-0.84 q 0.88,-2.46 1.74,-4.93 l 0.3,-0.88 q 0.84,-2.45 1.65,-4.91 l 0.3,-1 c 0.53,-1.62 1,-3.24 1.55,-4.87 l 0.3,-1 c 0.49,-1.61 1,-3.22 1.45,-4.84 l 0.3,-1.07 c 0.46,-1.6 0.92,-3.2 1.36,-4.8 0.11,-0.39 0.21,-0.78 0.31,-1.18 0.43,-1.57 0.85,-3.14 1.25,-4.72 0.11,-0.42 0.21,-0.84 0.32,-1.27 0.39,-1.55 0.78,-3.1 1.16,-4.66 0.11,-0.45 0.21,-0.9 0.31,-1.35 0.36,-1.53 0.72,-3.07 1.06,-4.6 l 0.3,-1.41 c 0.33,-1.52 0.66,-3 1,-4.57 0.1,-0.49 0.19,-1 0.29,-1.47 0.3,-1.51 0.61,-3 0.89,-4.54 0.1,-0.51 0.18,-1 0.28,-1.54 0.28,-1.49 0.55,-3 0.81,-4.49 l 0.27,-1.62 c 0.25,-1.48 0.49,-3 0.72,-4.43 0.09,-0.56 0.16,-1.13 0.25,-1.69 0.22,-1.46 0.44,-2.92 0.64,-4.39 0.08,-0.6 0.15,-1.2 0.23,-1.8 0.19,-1.43 0.38,-2.87 0.55,-4.31 0.08,-0.63 0.14,-1.26 0.21,-1.89 0.16,-1.41 0.33,-2.82 0.48,-4.24 0.07,-0.67 0.13,-1.34 0.19,-2 q 0.21,-2.07 0.39,-4.14 c 0.06,-0.69 0.11,-1.39 0.16,-2.08 0.11,-1.37 0.23,-2.73 0.32,-4.1 0.05,-0.72 0.09,-1.44 0.13,-2.16 0.09,-1.35 0.18,-2.7 0.25,-4 0,-0.75 0.07,-1.51 0.1,-2.26 0.06,-1.32 0.13,-2.64 0.18,-4 0,-0.78 0,-1.56 0.07,-2.34 0,-1.31 0.09,-2.61 0.11,-3.92 v -12.54 c 0,-0.9 0,-1.8 -0.06,-2.7 0,-1.21 0,-2.41 -0.08,-3.63 0,-0.94 -0.07,-1.87 -0.1,-2.81 0,-1.18 -0.08,-2.36 -0.13,-3.54 0,-0.95 -0.1,-1.89 -0.15,-2.84 -0.06,-1.18 -0.12,-2.35 -0.19,-3.53 -0.06,-1 -0.14,-2 -0.21,-3 -0.07,-1 -0.15,-2.27 -0.24,-3.41 -0.09,-1.14 -0.18,-2.1 -0.27,-3.15 -0.09,-1.05 -0.18,-2.18 -0.28,-3.27 -0.1,-1.09 -0.23,-2.21 -0.34,-3.31 -0.11,-1.1 -0.21,-2.08 -0.32,-3.13 -0.11,-1.05 -0.28,-2.35 -0.42,-3.52 -0.12,-1 -0.23,-2 -0.35,-2.94 -0.17,-1.35 -0.36,-2.7 -0.55,-4.05 -0.11,-0.81 -0.21,-1.62 -0.33,-2.43 -0.31,-2.17 -0.65,-4.34 -1,-6.51 -0.53,-3.26 0.21,1.69 0.44,4.82 -0.42,-2.64 -0.72,-4.1 -0.72,-4.1 0,0 -6.09,7.07 -15.24,20.13 A 370.21,370.21 0 0 0 910.45,356.94 C 866.06,228.88 770.28,127 770.28,91.56 c -9.32,10.86 -16.69,27 -20.8,46.44 -83,-78.39 -107,-115.33 -107,-138 0,0 -116.09,129.41 -65.74,264.38 29.5,79.09 77.12,110.14 125.26,150.62 -9.36,-7.84 -18.71,-15.36 -28,-23 l 0.39,0.55 c 25.15,36.37 39,81.16 39,129.33 0,121.24 -98.34,219.53 -219.65,219.53 a 220.14,220.14 0 0 1 -49.13,-5.52 203.82,203.82 0 0 1 -51.36,-16.81 q 2,1.32 4.1,2.65 c -37.47,-23.93 -59.62,-45.18 -72.17,-64.2 49.42,17.17 107,14.15 141.43,-4.89 23.09,-12.85 52.7,-33.43 70.92,-28.35 l -1.24,-0.48 a 24.22,24.22 0 0 1 3.38,0.85 c 16.82,5.61 30.21,-10.67 18.2,-27.54 -11.77,-16.85 -42.4,-41 -87.88,-34.29 -34.79,5.07 -66.66,29.76 -112.24,5.84 a 97.34,97.34 0 0 1 -8.55,-5 c -3,-1.77 9.77,2.69 6.79,0.68 -8.87,-4.32 -24.57,-13.73 -28.64,-17.07 -0.68,-0.56 6.88,2.16 6.2,1.6 -14.15,-10.44 -23,-19.75 -28.49,-28 0.53,0.83 1.08,1.66 1.66,2.49 -16,-22.77 -9.29,-43.58 -5.44,-53.34 2.63,-5.64 8.39,-11 13.26,-14.42 l -1.12,0.8 a 32.52,32.52 0 0 1 6,-3.38 c 6.3,3.08 10.23,5.43 10.23,5.43 0,0 -2.69,-4.92 -4.14,-7.51 0.51,-0.19 1,-0.15 1.5,-0.34 5.16,2.23 16.58,8 22.59,11.57 7.83,4.95 10.32,9.36 10.32,9.36 0,0 2.06,-1 0.54,-5.33 -0.56,-1.77 -2.93,-7.39 -10.68,-13.07 h 0.48 a 91.65,91.65 0 0 1 13.13,8.17 c 2.19,-7.12 6.12,-14.56 5.25,-27.86 -0.53,-9.35 -0.28,-11.78 -2.12,-15.39 -1.65,-3.1 0.92,-4.31 3.78,-1.09 a 29.73,29.73 0 0 0 -2.44,-7.34 v -0.24 c 0,0 1.64,-2.13 2.39,-2.91 13.86,-14.43 71.94,-36.42 77.39,-39.54 6,-3.8 28.9,-20.52 29.91,-47.59 0.39,-8.77 -4.16,-14.66 -76.68,-21.46 C 371,295.13 359.61,267.56 356.12,256 l -0.1,0.27 v 0 a 2.59,2.59 0 0 0 -0.12,-0.48 158.47,158.47 0 0 1 61.28,-76.06 c 1.6,-1.31 -6.4,0.33 -4.8,-1 1.87,-1.52 14.06,-5.93 16.37,-6.92 2.81,-1.19 -12,-6.84 -25.16,-5.47 -13.36,1.35 -16.19,2.78 -23.32,5.49 3,-2.64 12.37,-6.1 10.16,-6.08 -14.4,2 -32.3,9.48 -47.6,18 a 9.72,9.72 0 0 1 0.92,-4.31 c -7.13,2.71 -24.64,13.67 -29.73,23 a 39.79,39.79 0 0 0 0.29,-5.35 88.55,88.55 0 0 0 -14.6,13.7 l -0.27,0.22 c -41.3,-15 -77.69,-16 -108.44,-9.24 l -0.31,-0.28 0.36,-0.08 c -6.15,-4.53 -19.53,-17.63 -32.7,-44.89 -1,-1.82 -1.6,3.75 -2.4,2 -6,-13.81 -9.58,-36.2 -8.72,-52 0,0 -12.32,5.61 -22.51,29.06 -1.89,4.21 -3.11,6.54 -4.32,8.86 -0.56,0.68 1.27,-7.7 1,-7.24 -1.77,3 -6.36,7.19 -8.35,12.38 -1.65,4.24 -3.35,6.52 -4.61,11.77 -0.39,1.43 0.39,-6.32 0,-5.38 C 86.62,198 81,260 82.23,267.39 v 0.48 C 69.2,282.72 60.34,295.28 57,301.8 40.19,327.8 21.67,368.24 3.71,432.26 a 319.35,319.35 0 0 1 28.54,-50 C 17.32,416.25 2.89,469.62 0,551.8 a 436.92,436.92 0 0 1 13.87,-50.24 c -2.58,54.8 3.81,122.74 38.45,199.44 20.57,45 67.92,136.6 183.62,208 v 0 c 0,0 39.36,29.3 107,51.26 5,1.81 10.06,3.6 15.23,5.33 q -2.43,-1 -4.71,-2 A 484.9,484.9 0 0 0 492.27,984 c 166.45,0.14 221.39,-63.35 226.45,-69.68 8.42,-7.94 14.83,-16.3 18.84,-24.61 C 809.27,856.62 886.7,802.92 894,723.61 a 25.59,25.59 0 0 1 -0.53,2.88 55.55,55.55 0 0 0 -0.56,-22.57 q 1.61,-2.59 3.18,-5.21 z M 190.65,201.44 Z m -0.28,0.07 z m 492.15,203.64 0.5,0.82 z m -8.1,-12.62 c 4.3,6.06 5.7,8.64 8,12.46 -2.32,-3.79 -3.72,-6.37 -8,-12.43 z M 407,727.74 q 2.22,1.35 4.51,2.72 c -1.51,-0.91 -3.05,-1.81 -4.51,-2.72 z m -5.44,-3.36 -3.63,-2.29 z m 4.39,2.71 -3.49,-2.09 z m -91.5,-194.36 -0.09,-0.1 z m -6,-7 c -0.61,-0.79 -1.18,-1.57 -1.73,-2.36 0.54,0.75 1.12,1.53 1.72,2.32 z m 4.38,5.2 c -0.77,-0.83 -1.5,-1.67 -2.2,-2.5 q 1,1.22 2.19,2.46 z m -2.5,-2.86 c -0.6,-0.72 -1.19,-1.45 -1.75,-2.17 0.55,0.69 1.14,1.41 1.74,2.1 z m 4.24,-72.48 c 1.07,-0.74 2.08,-1.38 3,-1.9 a 30.1,30.1 0 0 0 -3,1.87 z m 3.16,-2 0.62,-0.33 z m 1.1,-0.57 0.47,-0.22 z m 1,-0.46 0.33,-0.13 z"
       style="fill:url(#radialGradient1354)"
       id="path1338"
       inkscape:connector-curvature="0" /><path
       d="m 813.74,801.65 c 104.16,-102.27 156.86,-226.58 134.58,-366 0,0 8.9,71.5 -24.85,144.63 16.21,-71.39 18.1,-160.11 -25,-252 C 841,205.64 746.45,141.11 710.35,114.19 655.66,73.4 633,31.87 632.57,23.3 c -16.34,33.48 -65.77,148.2 -5.31,247 56.64,92.56 145.86,120 208.33,205 115.08,156.37 -21.85,326.35 -21.85,326.35 z"
       style="fill:url(#linearGradient1356)"
       id="path1340"
       inkscape:connector-curvature="0" /></g></g><g
   inkscape:groupmode="layer"
   id="layer6"
   inkscape:label="Standard-Icon"
   style="display:none"><path
     d="m 233.7417,180.05484 q 0.39821,-0.6578 0.77878,-1.31813 l 0.0328,-0.058 c 0.25203,-0.43602 0.50406,-0.87456 0.7561,-1.31057 l 0.0328,-0.0605 c 0.25203,-0.43602 0.48894,-0.87455 0.72838,-1.31561 l 0.0428,-0.0781 c 0.23691,-0.43602 0.46878,-0.86951 0.69813,-1.30553 l 0.0428,-0.0806 q 0.34528,-0.65528 0.67544,-1.30805 l 0.0479,-0.0958 c 0.21927,-0.4335 0.4335,-0.86699 0.64772,-1.30301 l 0.0529,-0.10837 c 0.20919,-0.43098 0.41837,-0.86447 0.62252,-1.29797 l 0.0555,-0.12097 c 0.20162,-0.43098 0.40073,-0.85943 0.59479,-1.29041 l 0.0605,-0.13358 q 0.28732,-0.63764 0.56959,-1.28284 l 0.0655,-0.15122 c 0.18399,-0.42342 0.36293,-0.84683 0.54187,-1.27277 l 0.068,-0.16886 c 0.16886,-0.42089 0.33521,-0.84179 0.50407,-1.26016 l 0.0706,-0.17894 c 0.16886,-0.4209 0.33268,-0.83927 0.49146,-1.26017 l 0.0731,-0.19406 q 0.23943,-0.62252 0.46374,-1.26016 l 0.0756,-0.21171 q 0.22179,-0.62 0.43853,-1.24252 l 0.0756,-0.22179 q 0.21171,-0.61748 0.41586,-1.23748 l 0.0756,-0.25203 c 0.13357,-0.40829 0.25203,-0.81659 0.39065,-1.2274 l 0.0756,-0.25203 c 0.12349,-0.40577 0.25203,-0.81155 0.36544,-1.21984 l 0.0756,-0.26967 c 0.11594,-0.40326 0.23187,-0.80651 0.34277,-1.20976 0.0277,-0.0983 0.0529,-0.19658 0.0781,-0.2974 0.10837,-0.39569 0.21423,-0.79138 0.31504,-1.18959 0.0277,-0.10585 0.0529,-0.21171 0.0806,-0.32008 0.0983,-0.39065 0.19659,-0.7813 0.29236,-1.17447 0.0277,-0.11342 0.0529,-0.22683 0.0781,-0.34025 0.0907,-0.38561 0.18146,-0.77374 0.26715,-1.15935 l 0.0756,-0.35536 c 0.0832,-0.38309 0.16634,-0.7561 0.25203,-1.15179 0.0252,-0.1235 0.0479,-0.25203 0.0731,-0.37049 0.0756,-0.38057 0.15374,-0.7561 0.22431,-1.14423 0.0252,-0.12853 0.0454,-0.25203 0.0706,-0.38813 0.0706,-0.37552 0.13862,-0.75609 0.20415,-1.13162 l 0.0681,-0.40829 c 0.063,-0.37301 0.12349,-0.7561 0.18146,-1.11651 0.0227,-0.14114 0.0403,-0.28479 0.063,-0.42593 0.0555,-0.36797 0.11089,-0.73594 0.1613,-1.10643 0.0202,-0.15122 0.0378,-0.30243 0.058,-0.45365 0.0479,-0.36041 0.0958,-0.72334 0.13861,-1.08626 0.0202,-0.15878 0.0353,-0.31756 0.0529,-0.47635 0.0403,-0.35536 0.0832,-0.71073 0.12098,-1.06861 0.0176,-0.16886 0.0328,-0.33773 0.0479,-0.50407 q 0.0529,-0.52171 0.0983,-1.04341 c 0.0151,-0.1739 0.0277,-0.35033 0.0403,-0.52423 0.0277,-0.34528 0.058,-0.68805 0.0806,-1.03333 0.0126,-0.18147 0.0227,-0.36293 0.0328,-0.54439 0.0227,-0.34025 0.0454,-0.68049 0.063,-1.00813 0,-0.18903 0.0177,-0.38057 0.0252,-0.5696 0.0151,-0.33268 0.0328,-0.66536 0.0454,-1.00813 0,-0.19658 0,-0.39317 0.0176,-0.58975 0,-0.33016 0.0227,-0.65781 0.0277,-0.98797 v -3.16049 c 0,-0.22683 0,-0.45366 -0.0151,-0.68048 0,-0.30496 0,-0.6074 -0.0202,-0.91488 0,-0.23691 -0.0176,-0.4713 -0.0252,-0.70821 0,-0.2974 -0.0202,-0.5948 -0.0328,-0.8922 0,-0.23943 -0.0252,-0.47634 -0.0378,-0.71577 -0.0151,-0.2974 -0.0302,-0.59228 -0.0479,-0.88968 -0.0151,-0.25203 -0.0353,-0.50406 -0.0529,-0.75609 -0.0176,-0.25204 -0.0378,-0.57212 -0.0605,-0.85943 -0.0227,-0.28732 -0.0454,-0.52927 -0.0681,-0.79391 -0.0227,-0.26463 -0.0454,-0.54943 -0.0706,-0.82414 -0.0252,-0.27472 -0.058,-0.55699 -0.0857,-0.83423 -0.0277,-0.27724 -0.0529,-0.52423 -0.0806,-0.78886 -0.0277,-0.26464 -0.0706,-0.59228 -0.10585,-0.88716 -0.0302,-0.25203 -0.058,-0.50406 -0.0882,-0.74097 -0.0428,-0.34024 -0.0907,-0.68049 -0.13862,-1.02073 -0.0277,-0.20415 -0.0529,-0.4083 -0.0832,-0.61244 -0.0781,-0.54691 -0.16382,-1.09382 -0.25203,-1.64073 -0.13358,-0.82163 0.0529,0.42593 0.11089,1.21479 -0.10585,-0.66536 -0.18146,-1.03333 -0.18146,-1.03333 0,0 -1.53488,1.78187 -3.84098,5.07341 a 93.304941,93.304941 0 0 0 -5.61024,-25.092349 c -11.18772,-32.27528 -35.32739,-57.952329 -35.32739,-66.88437 -2.34895,2.73708 -4.20643,6.804881 -5.24228,11.704391 -20.9187,-19.756821 -26.96748,-29.0669007 -26.96748,-34.7804807 0,0 -29.25845,32.6155207 -16.56861,66.6323397 7.43496,19.93324 19.43674,27.75885 31.56958,37.961129 -2.35902,-1.97594 -4.71552,-3.87122 -7.0569,-5.79675 l 0.0983,0.13862 c 6.33862,9.16642 9.82926,20.45495 9.82926,32.59536 0,30.55641 -24.78487,55.32869 -55.35893,55.32869 a 55.482428,55.482428 0 0 1 -12.38235,-1.39122 51.369258,51.369258 0 0 1 -12.94439,-4.23667 q 0.50406,0.33268 1.03333,0.66789 c -9.44366,-6.03114 -15.02618,-11.38683 -18.18919,-16.18049 12.45545,4.3274 26.96748,3.56626 35.64496,-1.23244 5.81943,-3.23861 13.28211,-8.42544 17.87414,-7.14512 l -0.31252,-0.12097 a 6.1042265,6.1042265 0 0 1 0.85187,0.21422 c 4.23919,1.41391 7.6139,-2.68918 4.58699,-6.94097 -2.96642,-4.24675 -10.68617,-10.33333 -22.14861,-8.64219 -8.76821,1.2778 -16.80048,7.50048 -28.28813,1.47187 a 24.532841,24.532841 0 0 1 -2.15488,-1.26017 c -0.7561,-0.44609 2.46236,0.67797 1.7113,0.17139 -2.23553,-1.08878 -6.19244,-3.46041 -7.21821,-4.3022 -0.17138,-0.14114 1.73398,0.54439 1.5626,0.40325 -3.56626,-2.63122 -5.79675,-4.97764 -7.1804,-7.05691 0.13357,0.20919 0.27219,0.41838 0.41837,0.62757 -4.03252,-5.73878 -2.34138,-10.98358 -1.37106,-13.44342 0.66285,-1.42146 2.11456,-2.77235 3.34195,-3.6343 l -0.28227,0.20162 a 8.196096,8.196096 0 0 1 1.51219,-0.85187 c 1.58781,0.77626 2.57829,1.36854 2.57829,1.36854 0,0 -0.67796,-1.24 -1.04341,-1.89277 0.12854,-0.0479 0.25203,-0.0378 0.37805,-0.0857 1.30049,0.56204 4.1787,2.01626 5.69341,2.91602 1.97342,1.24756 2.60098,2.35902 2.60098,2.35902 0,0 0.51918,-0.25203 0.13609,-1.34333 -0.14113,-0.4461 -0.73845,-1.86252 -2.6917,-3.29406 h 0.12097 a 23.098776,23.098776 0 0 1 3.30919,2.0591 c 0.55196,-1.79447 1.54245,-3.66959 1.32318,-7.02162 -0.13358,-2.35651 -0.0706,-2.96895 -0.53431,-3.87878 -0.41586,-0.7813 0.23187,-1.08626 0.95268,-0.27472 a 7.4929254,7.4929254 0 0 0 -0.61496,-1.84992 v -0.0605 c 0,0 0.41334,-0.53682 0.60236,-0.73341 3.49317,-3.63683 18.13121,-9.179019 19.5048,-9.965359 1.51218,-0.95773 7.28372,-5.17171 7.53829,-11.99423 0.0983,-2.21032 -1.04846,-3.6948 -19.32585,-5.40862 -7.52821,-0.69561 -10.39887,-7.64414 -11.27847,-10.55764 l -0.0252,0.068 v 0 a 0.6527641,0.6527641 0 0 0 -0.0302,-0.12097 39.939586,39.939586 0 0 1 15.44456,-19.169579 c 0.40325,-0.33017 -1.61301,0.0832 -1.20976,-0.25204 0.4713,-0.38308 3.54358,-1.49455 4.12577,-1.74406 0.70821,-0.29992 -3.02439,-1.7239 -6.34113,-1.37862 -3.36717,0.34025 -4.08041,0.70065 -5.87741,1.38366 0.7561,-0.66536 3.11764,-1.5374 2.56065,-1.53236 -3.62927,0.50407 -8.14065,2.38927 -11.99675,4.53659 a 2.4497556,2.4497556 0 0 1 0.23187,-1.08626 c -1.79699,0.68301 -6.21008,3.44528 -7.49292,5.796739 a 10.028372,10.028372 0 0 0 0.0731,-1.34837 22.317475,22.317475 0 0 0 -3.67968,3.45284 l -0.0681,0.0554 c -10.40894,-3.78047 -19.5804,-4.032509 -27.3304,-2.32877 l -0.0781,-0.0706 0.0907,-0.0202 c -1.55,-1.14171 -4.92219,-4.443329 -8.24146,-11.313739 -0.25203,-0.4587 -0.40325,0.94513 -0.60488,0.50407 -1.51219,-3.48057 -2.41447,-9.12358 -2.19772,-13.105691 0,0 -3.10504,1.4139 -5.67325,7.324061 -0.47634,1.06106 -0.78382,1.6483 -1.08878,2.23301 -0.14114,0.17138 0.32008,-1.94065 0.25203,-1.82471 -0.4461,0.75609 -1.60292,1.81211 -2.10447,3.12016 -0.41585,1.06862 -0.84431,1.64325 -1.16187,2.96642 -0.0983,0.36041 0.0983,-1.59284 0,-1.35593 -5.49935,10.592919 -6.91577,26.218919 -6.60577,28.081439 v 0.12098 c -3.28398,3.74268 -5.51699,6.90821 -6.35878,8.55146 -4.23666,6.55285 -8.90431,16.74504 -13.43081,32.880159 a 80.48657,80.48657 0 0 1 7.19301,-12.60163 c -3.76285,8.56659 -7.39968,22.01756 -8.12805,42.72959 a 110.11803,110.11803 0 0 1 3.49569,-12.66211 c -0.65024,13.81138 0.96024,30.93446 9.69065,50.26535 5.18431,11.34146 17.11804,34.42764 46.2782,52.42276 v 0 c 0,0 9.92,7.38455 26.96748,12.91918 1.26016,0.45618 2.53544,0.90732 3.83845,1.34334 Q 97.533,247.1079 96.95837,246.85587 a 122.21055,122.21055 0 0 0 34.98462,5.14398 c 41.95081,0.0353 55.79747,-15.96625 57.07276,-17.56162 2.12211,-2.00114 3.73764,-4.10813 4.74829,-6.20252 18.07325,-8.33975 37.58813,-21.8739 39.42796,-41.86259 a 6.4495109,6.4495109 0 0 1 -0.13357,0.72585 14.000404,14.000404 0 0 0 -0.14114,-5.68837 q 0.40577,-0.65277 0.80146,-1.31309 z M 55.92521,54.769511 Z m -0.0706,0.0176 z M 179.8924,106.111 l 0.12601,0.20666 z m -2.04146,-3.18065 c 1.08374,1.52731 1.43658,2.17756 2.01626,3.14032 -0.58472,-0.9552 -0.93756,-1.60545 -2.01626,-3.13276 z m -67.39852,84.4838 q 0.55951,0.34025 1.13666,0.68553 c -0.38057,-0.22935 -0.7687,-0.45618 -1.13666,-0.68553 z m -1.37106,-0.84683 -0.91488,-0.57715 z m 1.10642,0.68301 -0.87959,-0.52675 z M 87.1268,138.2653 87.1041,138.2401 Z m -1.51219,-1.76423 c -0.15374,-0.1991 -0.2974,-0.39569 -0.43602,-0.59479 0.1361,0.18902 0.28228,0.38561 0.4335,0.58471 z m 1.1039,1.31057 c -0.19407,-0.20919 -0.37805,-0.42089 -0.55447,-0.63008 q 0.25203,0.30748 0.55195,0.62 z m -0.63008,-0.72081 c -0.15122,-0.18147 -0.29992,-0.36545 -0.44106,-0.54691 0.13862,0.1739 0.28732,0.35536 0.43854,0.52927 z m 1.06861,-18.26732 c 0.26968,-0.1865 0.52423,-0.3478 0.7561,-0.47886 a 7.5861774,7.5861774 0 0 0 -0.7561,0.4713 z m 0.79643,-0.50406 0.15626,-0.0832 z m 0.27723,-0.14366 0.11846,-0.0555 z m 0.25204,-0.11593 0.0832,-0.0328 z"
     style="fill:url(#radial-gradient-3-9);stroke-width:0.25203246"
     id="path77-0"
     inkscape:connector-curvature="0" /></g><g
   inkscape:groupmode="layer"
   id="layer7"
   inkscape:label="Circle-Icon"
   style="display:inline"><g
     style="display:inline"
     id="g943"
     transform="matrix(0.25203246,0,0,0.25203246,7.8605025,4.0000005)"><g
       id="g75"
       style="opacity:0.4"><path
         inkscape:connector-curvature="0"
         id="path71"
         style="fill:url(#linear-gradient-36)"
         d="m 810.67,803.64 a 246.8,246.8 0 0 1 -30.12,18.18 705.31,705.31 0 0 0 38.3,-63 c 9.46,-10.47 18.13,-20.65 25.19,-31.65 3.44,-5.41 7.31,-12.08 11.42,-19.82 24.92,-44.9 52.4,-117.56 53.18,-192.2 v -5.66 a 257.25,257.25 0 0 0 -5.71,-55.75 c 0.2,1.43 0.38,2.86 0.56,4.29 -0.22,-1.1 -0.41,-2.21 -0.64,-3.31 0.37,2 0.66,4 1,6 5.09,43.22 1.47,85.37 -16.68,116.45 -0.29,0.45 -0.58,0.88 -0.87,1.32 9.41,-47.23 12.56,-99.39 2.09,-151.6 0,0 -4.19,-25.38 -35.38,-102.44 -18,-44.35 -49.83,-80.72 -78,-107.21 -24.69,-30.55 -47.11,-51 -59.47,-64.06 C 689.72,126 678.9,105.61 674.45,92.31 670.6,90.38 621.31,42.5 617.4,40.68 c -21.51,33.35 -89.16,137.67 -57,235.15 14.58,44.17 51.47,90 90.07,115.74 1.69,1.94 23,25 33.09,77.16 10.45,53.85 5,95.86 -16.54,158 C 641.73,681.24 577,735.12 516.3,740.63 386.63,752.41 339.15,675.52 339.15,675.52 385.49,694 436.72,690.17 467.87,671 499.27,651.57 518.26,637.17 533.68,642.85 548.86,648.43 561,632 550.1,615 a 78.5,78.5 0 0 0 -79.4,-34.57 c -31.43,5.11 -60.23,30 -101.41,5.89 a 86.29,86.29 0 0 1 -7.73,-5.06 c -2.71,-1.79 8.83,2.72 6.13,0.69 -8,-4.35 -22.2,-13.84 -25.88,-17.22 -0.61,-0.56 6.22,2.18 5.61,1.62 -38.51,-31.71 -33.7,-53.13 -32.49,-66.57 1,-10.75 8,-24.52 19.75,-30.11 5.69,3.11 9.24,5.48 9.24,5.48 0,0 -2.43,-5 -3.74,-7.58 0.46,-0.2 0.9,-0.15 1.36,-0.34 4.66,2.25 15,8.1 20.41,11.67 7.07,5 9.33,9.44 9.33,9.44 0,0 1.86,-1 0.48,-5.37 -0.5,-1.78 -2.65,-7.45 -9.65,-13.17 h 0.44 a 81.61,81.61 0 0 1 11.87,8.2 c 2,-7.18 5.53,-14.68 4.75,-28.09 -0.48,-9.43 -0.26,-11.87 -1.92,-15.51 -1.49,-3.13 0.83,-4.35 3.42,-1.1 a 32.5,32.5 0 0 0 -2.21,-7.4 v -0.24 c 3.23,-11.24 68.25,-40.46 73,-43.88 A 67.2,67.2 0 0 0 470.59,361 c 3.62,-5.76 6.34,-13.85 7,-26.11 0.36,-8.84 -3.76,-14.73 -69.51,-21.62 -18,-1.77 -28.53,-14.8 -34.53,-26.82 -1.09,-2.59 -2.21,-4.94 -3.33,-7.28 a 57.68,57.68 0 0 1 -2.56,-8.43 c 10.75,-30.87 28.81,-57 55.37,-76.7 1.45,-1.32 -5.78,0.34 -4.34,-1 1.69,-1.54 12.71,-6 14.79,-7 2.54,-1.2 -10.88,-6.9 -22.73,-5.51 -12.07,1.36 -14.63,2.8 -21.07,5.53 2.67,-2.66 11.17,-6.15 9.18,-6.13 -13,2 -29.18,9.56 -43,18.12 a 10.66,10.66 0 0 1 0.83,-4.35 c -6.44,2.73 -22.26,13.79 -26.87,23.14 a 44.29,44.29 0 0 0 0.27,-5.4 84.17,84.17 0 0 0 -13.19,13.82 l -0.24,0.22 c -37.36,-15 -70.23,-16 -98.05,-9.28 -6.09,-6.11 -9.06,-1.64 -22.91,-32.07 -0.94,-1.83 0.72,1.81 0,0 -2.28,-5.9 1.39,7.87 0,0 -23.28,18.37 -53.92,39.19 -68.63,53.89 -0.18,0.59 17.16,-4.9 0,0 -6,1.72 -5.6,5.28 -6.51,37.5 -0.22,2.44 0,5.18 -0.22,7.38 -11.75,15 -19.75,27.64 -22.78,34.21 -15.19,26.18 -31.93,67 -48.15,131.55 A 334.82,334.82 0 0 1 75.2,398.36 C 61.71,432.63 48.67,486.44 46.07,569.3 A 482.08,482.08 0 0 1 58.6,518.64 473,473 0 0 0 93.33,719.71 c 9.33,22.82 24.76,57.46 51,95.4 C 226.9,902 343.31,956 472.21,956 606.79,956 727.64,897.13 810.67,803.64 Z" /><path
         inkscape:connector-curvature="0"
         id="path73"
         style="fill:url(#linear-gradient-2-5)"
         d="m 810.67,803.64 a 246.8,246.8 0 0 1 -30.12,18.18 705.31,705.31 0 0 0 38.3,-63 c 9.46,-10.47 18.13,-20.65 25.19,-31.65 3.44,-5.41 7.31,-12.08 11.42,-19.82 24.92,-44.9 52.4,-117.56 53.18,-192.2 v -5.66 a 257.25,257.25 0 0 0 -5.71,-55.75 c 0.2,1.43 0.38,2.86 0.56,4.29 -0.22,-1.1 -0.41,-2.21 -0.64,-3.31 0.37,2 0.66,4 1,6 5.09,43.22 1.47,85.37 -16.68,116.45 -0.29,0.45 -0.58,0.88 -0.87,1.32 9.41,-47.23 12.56,-99.39 2.09,-151.6 0,0 -4.19,-25.38 -35.38,-102.44 -18,-44.35 -49.83,-80.72 -78,-107.21 -24.69,-30.55 -47.11,-51 -59.47,-64.06 C 689.72,126 678.9,105.61 674.45,92.31 670.6,90.38 621.31,42.5 617.4,40.68 c -21.51,33.35 -89.16,137.67 -57,235.15 14.58,44.17 51.47,90 90.07,115.74 1.69,1.94 23,25 33.09,77.16 10.45,53.85 5,95.86 -16.54,158 C 641.73,681.24 577,735.12 516.3,740.63 386.63,752.41 339.15,675.52 339.15,675.52 385.49,694 436.72,690.17 467.87,671 499.27,651.57 518.26,637.17 533.68,642.85 548.86,648.43 561,632 550.1,615 a 78.5,78.5 0 0 0 -79.4,-34.57 c -31.43,5.11 -60.23,30 -101.41,5.89 a 86.29,86.29 0 0 1 -7.73,-5.06 c -2.71,-1.79 8.83,2.72 6.13,0.69 -8,-4.35 -22.2,-13.84 -25.88,-17.22 -0.61,-0.56 6.22,2.18 5.61,1.62 -38.51,-31.71 -33.7,-53.13 -32.49,-66.57 1,-10.75 8,-24.52 19.75,-30.11 5.69,3.11 9.24,5.48 9.24,5.48 0,0 -2.43,-5 -3.74,-7.58 0.46,-0.2 0.9,-0.15 1.36,-0.34 4.66,2.25 15,8.1 20.41,11.67 7.07,5 9.33,9.44 9.33,9.44 0,0 1.86,-1 0.48,-5.37 -0.5,-1.78 -2.65,-7.45 -9.65,-13.17 h 0.44 a 81.61,81.61 0 0 1 11.87,8.2 c 2,-7.18 5.53,-14.68 4.75,-28.09 -0.48,-9.43 -0.26,-11.87 -1.92,-15.51 -1.49,-3.13 0.83,-4.35 3.42,-1.1 a 32.5,32.5 0 0 0 -2.21,-7.4 v -0.24 c 3.23,-11.24 68.25,-40.46 73,-43.88 A 67.2,67.2 0 0 0 470.59,361 c 3.62,-5.76 6.34,-13.85 7,-26.11 0.36,-8.84 -3.76,-14.73 -69.51,-21.62 -18,-1.77 -28.53,-14.8 -34.53,-26.82 -1.09,-2.59 -2.21,-4.94 -3.33,-7.28 a 57.68,57.68 0 0 1 -2.56,-8.43 c 10.75,-30.87 28.81,-57 55.37,-76.7 1.45,-1.32 -5.78,0.34 -4.34,-1 1.69,-1.54 12.71,-6 14.79,-7 2.54,-1.2 -10.88,-6.9 -22.73,-5.51 -12.07,1.36 -14.63,2.8 -21.07,5.53 2.67,-2.66 11.17,-6.15 9.18,-6.13 -13,2 -29.18,9.56 -43,18.12 a 10.66,10.66 0 0 1 0.83,-4.35 c -6.44,2.73 -22.26,13.79 -26.87,23.14 a 44.29,44.29 0 0 0 0.27,-5.4 84.17,84.17 0 0 0 -13.19,13.82 l -0.24,0.22 c -37.36,-15 -70.23,-16 -98.05,-9.28 -6.09,-6.11 -9.06,-1.64 -22.91,-32.07 -0.94,-1.83 0.72,1.81 0,0 -2.28,-5.9 1.39,7.87 0,0 -23.28,18.37 -53.92,39.19 -68.63,53.89 -0.18,0.59 17.16,-4.9 0,0 -6,1.72 -5.6,5.28 -6.51,37.5 -0.22,2.44 0,5.18 -0.22,7.38 -11.75,15 -19.75,27.64 -22.78,34.21 -15.19,26.18 -31.93,67 -48.15,131.55 A 334.82,334.82 0 0 1 75.2,398.36 C 61.71,432.63 48.67,486.44 46.07,569.3 A 482.08,482.08 0 0 1 58.6,518.64 473,473 0 0 0 93.33,719.71 c 9.33,22.82 24.76,57.46 51,95.4 C 226.9,902 343.31,956 472.21,956 606.79,956 727.64,897.13 810.67,803.64 Z" /></g><path
       inkscape:connector-curvature="0"
       id="path77"
       style="fill:url(#radial-gradient-3-1)"
       d="m 896.18,698.54 q 1.58,-2.61 3.09,-5.23 l 0.13,-0.23 c 1,-1.73 2,-3.47 3,-5.2 l 0.13,-0.24 c 1,-1.73 1.94,-3.47 2.89,-5.22 l 0.17,-0.31 c 0.94,-1.73 1.86,-3.45 2.77,-5.18 l 0.17,-0.32 q 1.37,-2.6 2.68,-5.19 l 0.19,-0.38 c 0.87,-1.72 1.72,-3.44 2.57,-5.17 l 0.21,-0.43 c 0.83,-1.71 1.66,-3.43 2.47,-5.15 l 0.22,-0.48 c 0.8,-1.71 1.59,-3.41 2.36,-5.12 l 0.24,-0.53 q 1.14,-2.53 2.26,-5.09 l 0.26,-0.6 c 0.73,-1.68 1.44,-3.36 2.15,-5.05 l 0.27,-0.67 c 0.67,-1.67 1.33,-3.34 2,-5 l 0.28,-0.71 c 0.67,-1.67 1.32,-3.33 1.95,-5 l 0.29,-0.77 q 0.95,-2.47 1.84,-5 l 0.3,-0.84 q 0.88,-2.46 1.74,-4.93 l 0.3,-0.88 q 0.84,-2.45 1.65,-4.91 l 0.3,-1 c 0.53,-1.62 1,-3.24 1.55,-4.87 l 0.3,-1 c 0.49,-1.61 1,-3.22 1.45,-4.84 l 0.3,-1.07 c 0.46,-1.6 0.92,-3.2 1.36,-4.8 0.11,-0.39 0.21,-0.78 0.31,-1.18 0.43,-1.57 0.85,-3.14 1.25,-4.72 0.11,-0.42 0.21,-0.84 0.32,-1.27 0.39,-1.55 0.78,-3.1 1.16,-4.66 0.11,-0.45 0.21,-0.9 0.31,-1.35 0.36,-1.53 0.72,-3.07 1.06,-4.6 l 0.3,-1.41 c 0.33,-1.52 0.66,-3 1,-4.57 0.1,-0.49 0.19,-1 0.29,-1.47 0.3,-1.51 0.61,-3 0.89,-4.54 0.1,-0.51 0.18,-1 0.28,-1.54 0.28,-1.49 0.55,-3 0.81,-4.49 l 0.27,-1.62 c 0.25,-1.48 0.49,-3 0.72,-4.43 0.09,-0.56 0.16,-1.13 0.25,-1.69 0.22,-1.46 0.44,-2.92 0.64,-4.39 0.08,-0.6 0.15,-1.2 0.23,-1.8 0.19,-1.43 0.38,-2.87 0.55,-4.31 0.08,-0.63 0.14,-1.26 0.21,-1.89 0.16,-1.41 0.33,-2.82 0.48,-4.24 0.07,-0.67 0.13,-1.34 0.19,-2 q 0.21,-2.07 0.39,-4.14 c 0.06,-0.69 0.11,-1.39 0.16,-2.08 0.11,-1.37 0.23,-2.73 0.32,-4.1 0.05,-0.72 0.09,-1.44 0.13,-2.16 0.09,-1.35 0.18,-2.7 0.25,-4 0,-0.75 0.07,-1.51 0.1,-2.26 0.06,-1.32 0.13,-2.64 0.18,-4 0,-0.78 0,-1.56 0.07,-2.34 0,-1.31 0.09,-2.61 0.11,-3.92 v -12.54 c 0,-0.9 0,-1.8 -0.06,-2.7 0,-1.21 0,-2.41 -0.08,-3.63 0,-0.94 -0.07,-1.87 -0.1,-2.81 0,-1.18 -0.08,-2.36 -0.13,-3.54 0,-0.95 -0.1,-1.89 -0.15,-2.84 -0.06,-1.18 -0.12,-2.35 -0.19,-3.53 -0.06,-1 -0.14,-2 -0.21,-3 -0.07,-1 -0.15,-2.27 -0.24,-3.41 -0.09,-1.14 -0.18,-2.1 -0.27,-3.15 -0.09,-1.05 -0.18,-2.18 -0.28,-3.27 -0.1,-1.09 -0.23,-2.21 -0.34,-3.31 -0.11,-1.1 -0.21,-2.08 -0.32,-3.13 -0.11,-1.05 -0.28,-2.35 -0.42,-3.52 -0.12,-1 -0.23,-2 -0.35,-2.94 -0.17,-1.35 -0.36,-2.7 -0.55,-4.05 -0.11,-0.81 -0.21,-1.62 -0.33,-2.43 -0.31,-2.17 -0.65,-4.34 -1,-6.51 -0.53,-3.26 0.21,1.69 0.44,4.82 -0.42,-2.64 -0.72,-4.1 -0.72,-4.1 0,0 -6.09,7.07 -15.24,20.13 A 370.21,370.21 0 0 0 910.45,356.94 C 866.06,228.88 770.28,127 770.28,91.56 c -9.32,10.86 -16.69,27 -20.8,46.44 -83,-78.39 -107,-115.33 -107,-138 0,0 -116.09,129.41 -65.74,264.38 29.5,79.09 77.12,110.14 125.26,150.62 -9.36,-7.84 -18.71,-15.36 -28,-23 l 0.39,0.55 c 25.15,36.37 39,81.16 39,129.33 0,121.24 -98.34,219.53 -219.65,219.53 a 220.14,220.14 0 0 1 -49.13,-5.52 203.82,203.82 0 0 1 -51.36,-16.81 q 2,1.32 4.1,2.65 c -37.47,-23.93 -59.62,-45.18 -72.17,-64.2 49.42,17.17 107,14.15 141.43,-4.89 23.09,-12.85 52.7,-33.43 70.92,-28.35 l -1.24,-0.48 a 24.22,24.22 0 0 1 3.38,0.85 c 16.82,5.61 30.21,-10.67 18.2,-27.54 -11.77,-16.85 -42.4,-41 -87.88,-34.29 -34.79,5.07 -66.66,29.76 -112.24,5.84 a 97.34,97.34 0 0 1 -8.55,-5 c -3,-1.77 9.77,2.69 6.79,0.68 -8.87,-4.32 -24.57,-13.73 -28.64,-17.07 -0.68,-0.56 6.88,2.16 6.2,1.6 -14.15,-10.44 -23,-19.75 -28.49,-28 0.53,0.83 1.08,1.66 1.66,2.49 -16,-22.77 -9.29,-43.58 -5.44,-53.34 2.63,-5.64 8.39,-11 13.26,-14.42 l -1.12,0.8 a 32.52,32.52 0 0 1 6,-3.38 c 6.3,3.08 10.23,5.43 10.23,5.43 0,0 -2.69,-4.92 -4.14,-7.51 0.51,-0.19 1,-0.15 1.5,-0.34 5.16,2.23 16.58,8 22.59,11.57 7.83,4.95 10.32,9.36 10.32,9.36 0,0 2.06,-1 0.54,-5.33 -0.56,-1.77 -2.93,-7.39 -10.68,-13.07 h 0.48 a 91.65,91.65 0 0 1 13.13,8.17 c 2.19,-7.12 6.12,-14.56 5.25,-27.86 -0.53,-9.35 -0.28,-11.78 -2.12,-15.39 -1.65,-3.1 0.92,-4.31 3.78,-1.09 a 29.73,29.73 0 0 0 -2.44,-7.34 v -0.24 c 0,0 1.64,-2.13 2.39,-2.91 13.86,-14.43 71.94,-36.42 77.39,-39.54 6,-3.8 28.9,-20.52 29.91,-47.59 0.39,-8.77 -4.16,-14.66 -76.68,-21.46 C 371,295.13 359.61,267.56 356.12,256 l -0.1,0.27 v 0 a 2.59,2.59 0 0 0 -0.12,-0.48 158.47,158.47 0 0 1 61.28,-76.06 c 1.6,-1.31 -6.4,0.33 -4.8,-1 1.87,-1.52 14.06,-5.93 16.37,-6.92 2.81,-1.19 -12,-6.84 -25.16,-5.47 -13.36,1.35 -16.19,2.78 -23.32,5.49 3,-2.64 12.37,-6.1 10.16,-6.08 -14.4,2 -32.3,9.48 -47.6,18 a 9.72,9.72 0 0 1 0.92,-4.31 c -7.13,2.71 -24.64,13.67 -29.73,23 a 39.79,39.79 0 0 0 0.29,-5.35 88.55,88.55 0 0 0 -14.6,13.7 l -0.27,0.22 c -41.3,-15 -77.69,-16 -108.44,-9.24 l -0.31,-0.28 0.36,-0.08 c -6.15,-4.53 -19.53,-17.63 -32.7,-44.89 -1,-1.82 -1.6,3.75 -2.4,2 -6,-13.81 -9.58,-36.2 -8.72,-52 0,0 -12.32,5.61 -22.51,29.06 -1.89,4.21 -3.11,6.54 -4.32,8.86 -0.56,0.68 1.27,-7.7 1,-7.24 -1.77,3 -6.36,7.19 -8.35,12.38 -1.65,4.24 -3.35,6.52 -4.61,11.77 -0.39,1.43 0.39,-6.32 0,-5.38 C 86.62,198 81,260 82.23,267.39 v 0.48 C 69.2,282.72 60.34,295.28 57,301.8 40.19,327.8 21.67,368.24 3.71,432.26 a 319.35,319.35 0 0 1 28.54,-50 C 17.32,416.25 2.89,469.62 0,551.8 a 436.92,436.92 0 0 1 13.87,-50.24 c -2.58,54.8 3.81,122.74 38.45,199.44 20.57,45 67.92,136.6 183.62,208 v 0 c 0,0 39.36,29.3 107,51.26 5,1.81 10.06,3.6 15.23,5.33 q -2.43,-1 -4.71,-2 A 484.9,484.9 0 0 0 492.27,984 c 166.45,0.14 221.39,-63.35 226.45,-69.68 8.42,-7.94 14.83,-16.3 18.84,-24.61 C 809.27,856.62 886.7,802.92 894,723.61 a 25.59,25.59 0 0 1 -0.53,2.88 55.55,55.55 0 0 0 -0.56,-22.57 q 1.61,-2.59 3.18,-5.21 z M 190.65,201.44 Z m -0.28,0.07 z m 492.15,203.64 0.5,0.82 z m -8.1,-12.62 c 4.3,6.06 5.7,8.64 8,12.46 -2.32,-3.79 -3.72,-6.37 -8,-12.43 z M 407,727.74 q 2.22,1.35 4.51,2.72 c -1.51,-0.91 -3.05,-1.81 -4.51,-2.72 z m -5.44,-3.36 -3.63,-2.29 z m 4.39,2.71 -3.49,-2.09 z m -91.5,-194.36 -0.09,-0.1 z m -6,-7 c -0.61,-0.79 -1.18,-1.57 -1.73,-2.36 0.54,0.75 1.12,1.53 1.72,2.32 z m 4.38,5.2 c -0.77,-0.83 -1.5,-1.67 -2.2,-2.5 q 1,1.22 2.19,2.46 z m -2.5,-2.86 c -0.6,-0.72 -1.19,-1.45 -1.75,-2.17 0.55,0.69 1.14,1.41 1.74,2.1 z m 4.24,-72.48 c 1.07,-0.74 2.08,-1.38 3,-1.9 a 30.1,30.1 0 0 0 -3,1.87 z m 3.16,-2 0.62,-0.33 z m 1.1,-0.57 0.47,-0.22 z m 1,-0.46 0.33,-0.13 z" /><path
       inkscape:connector-curvature="0"
       id="path79"
       style="fill:url(#linear-gradient-3-0)"
       d="m 813.74,801.65 c 104.16,-102.27 156.86,-226.58 134.58,-366 0,0 8.9,71.5 -24.85,144.63 16.21,-71.39 18.1,-160.11 -25,-252 C 841,205.64 746.45,141.11 710.35,114.19 655.66,73.4 633,31.87 632.57,23.3 c -16.34,33.48 -65.77,148.2 -5.31,247 56.64,92.56 145.86,120 208.33,205 115.08,156.37 -21.85,326.35 -21.85,326.35 z" /></g></g><g
   inkscape:groupmode="layer"
   id="layer5"
   inkscape:label="Squircle-Shadow"
   style="display:none"><path
     style="display:none;opacity:0.5;fill:#17171d;fill-opacity:0.39215686;stroke-width:1.41822851"
     d="m 3.999995,216.54492 v 10 C 3.999995,240.64746 15.352535,252 29.455075,252 H 226.54492 C 240.64746,252 252,240.64746 252,226.54492 v -10 C 252,230.64746 240.64746,242 226.54492,242 H 29.455075 c -14.10254,0 -25.45508,-11.35254 -25.45508,-25.45508 z"
     id="rect1101-3"
     inkscape:connector-curvature="0" /></g><g
   inkscape:groupmode="layer"
   id="layer2"
   inkscape:label="Circle-Shadow"
   style="display:inline"><g
     id="g2548"
     style="display:inline"
     transform="translate(-2.960187,1.58543)"><path
       d="m 256.36019,128.41457 c 0,-33.900005 -13.5,-64.500005 -35.4,-86.900002 -0.4,-0.3 -0.7,-0.7 -1.1,-1 21.3,22.299997 34.5,52.599997 34.5,86.000002 0,68.5 -55.2,124 -123.4,124 -32.900003,0 -62.900003,-13 -85.000003,-34.1 0.3,0.3 0.6,0.6 0.9,0.9 22.2,21.7 52.6,35.1 86.000003,35.1 68.2,0 123.5,-55.5 123.5,-124 z"
       id="path238"
       inkscape:connector-curvature="0"
       style="display:inline;opacity:0.1" /><path
       d="m 219.86019,40.414568 c -0.7,-0.6 -1.4,-1.3 -2,-1.9 -0.7,-0.6 -1.4,-1.2 -2.1,-1.9 19.1,21.799997 30.7,50.499997 30.7,81.800002 0,68.5 -55.2,124 -123.4,124 -30.900003,0 -59.200003,-11.4 -80.900003,-30.3 0.6,0.7 1.2,1.4 1.9,2.1 0.6,0.7 1.3,1.4 1.9,2 22.1,21.1 52.1,34.1 85.000003,34.1 68.2,0 123.4,-55.5 123.4,-124 0,-33.300005 -13.1,-63.600005 -34.5,-85.900002 z"
       id="path240"
       inkscape:connector-curvature="0"
       style="display:inline;opacity:0.2" /><path
       d="m 220.96019,41.514568 c 21.9,22.399997 35.4,53.099997 35.4,86.900002 0,68.5 -55.2,124 -123.4,124 -33.500003,0 -63.800003,-13.4 -86.000003,-35.1 22.4,22.9 53.600003,37.1 88.000003,37.1 68.2,0 123.4,-55.5 123.4,-124 -0.1,-34.900005 -14.4,-66.400005 -37.4,-88.900002 z"
       id="path236"
       inkscape:connector-curvature="0"
       style="display:inline;opacity:0.05" /></g></g></svg>