<?xml version="1.0" encoding="UTF-8" standalone="no"?>
<!-- Generator: Adobe Illustrator 21.0.2, SVG Export Plug-In . SVG Version: 6.00 Build 0)  -->

<svg
   xmlns:dc="http://purl.org/dc/elements/1.1/"
   xmlns:cc="http://creativecommons.org/ns#"
   xmlns:rdf="http://www.w3.org/1999/02/22-rdf-syntax-ns#"
   xmlns:svg="http://www.w3.org/2000/svg"
   xmlns="http://www.w3.org/2000/svg"
   xmlns:xlink="http://www.w3.org/1999/xlink"
   xmlns:sodipodi="http://sodipodi.sourceforge.net/DTD/sodipodi-0.dtd"
   xmlns:inkscape="http://www.inkscape.org/namespaces/inkscape"
   version="1.1"
   id="Layer_1"
   x="0px"
   y="0px"
   viewBox="0 0 256 256"
   enable-background="new 0 0 256 256"
   xml:space="preserve"
   sodipodi:docname="libreoffice-base.svg"
   inkscape:version="0.92.4 (5da689c313, 2019-01-14)"
   inkscape:label="Shadow"><metadata
   id="metadata253"><rdf:RDF><cc:Work
       rdf:about=""><dc:format>image/svg+xml</dc:format><dc:type
         rdf:resource="http://purl.org/dc/dcmitype/StillImage" /><dc:title /></cc:Work></rdf:RDF></metadata><defs
   id="defs251">
	
	
<clipPath
   id="b"><use
     width="100%"
     overflow="visible"
     xlink:href="#a"
     height="100%"
     id="use5" /></clipPath><linearGradient
   x1="29.337"
   x2="81.836998"
   y1="75.021004"
   gradientUnits="userSpaceOnUse"
   y2="44.354"
   id="c"><stop
     id="stop10"
     offset="0"
     stop-opacity=".6"
     stop-color="#A52714" /><stop
     id="stop12"
     offset=".66"
     stop-opacity="0"
     stop-color="#A52714" /></linearGradient><clipPath
   id="clipPath1232"><use
     width="100%"
     overflow="visible"
     xlink:href="#a"
     height="100%"
     id="use1230" /></clipPath><clipPath
   id="clipPath1236"><use
     width="100%"
     overflow="visible"
     xlink:href="#a"
     height="100%"
     id="use1234" /></clipPath><linearGradient
   x1="110.87"
   x2="52.537998"
   y1="164.5"
   gradientUnits="userSpaceOnUse"
   y2="130.33"
   id="d"><stop
     id="stop23"
     offset="0"
     stop-opacity=".4"
     stop-color="#055524" /><stop
     id="stop25"
     offset=".33"
     stop-opacity="0"
     stop-color="#055524" /></linearGradient><clipPath
   id="clipPath1244"><use
     width="100%"
     overflow="visible"
     xlink:href="#a"
     height="100%"
     id="use1242" /></clipPath><clipPath
   id="clipPath1248"><use
     width="100%"
     overflow="visible"
     xlink:href="#a"
     height="100%"
     id="use1246" /></clipPath><clipPath
   id="f"><use
     y="0"
     x="0"
     style="overflow:visible"
     id="use37"
     height="100%"
     xlink:href="#e"
     overflow="visible"
     width="100%" /></clipPath><linearGradient
   x1="121.86"
   x2="136.55"
   y1="49.804001"
   gradientUnits="userSpaceOnUse"
   y2="114.13"
   id="g"><stop
     id="stop42"
     offset="0"
     stop-opacity=".3"
     stop-color="#EA6100" /><stop
     id="stop44"
     offset=".66"
     stop-opacity="0"
     stop-color="#EA6100" /></linearGradient><clipPath
   id="clipPath1258"><use
     width="100%"
     overflow="visible"
     xlink:href="#a"
     height="100%"
     id="use1256" /></clipPath><clipPath
   id="clipPath1269"><use
     width="100%"
     overflow="visible"
     xlink:href="#a"
     height="100%"
     id="use1267" /></clipPath><clipPath
   id="j"><use
     y="0"
     x="0"
     style="overflow:visible"
     id="use62"
     height="100%"
     xlink:href="#i"
     overflow="visible"
     width="100%" /></clipPath><radialGradient
   id="l"
   gradientUnits="userSpaceOnUse"
   cy="55.948"
   cx="668.18"
   gradientTransform="translate(-576)"
   r="84.078"><stop
     stop-color="#3E2723"
     stop-opacity=".2"
     offset="0"
     id="stop73" /><stop
     stop-color="#3E2723"
     stop-opacity="0"
     offset="1"
     id="stop75" /></radialGradient><clipPath
   id="clipPath1285"><use
     width="100%"
     overflow="visible"
     xlink:href="#a"
     height="100%"
     id="use1283" /></clipPath><clipPath
   id="clipPath1289"><use
     width="100%"
     overflow="visible"
     xlink:href="#a"
     height="100%"
     id="use1287" /></clipPath><clipPath
   id="n"><use
     y="0"
     x="0"
     style="overflow:visible"
     id="use83"
     height="100%"
     xlink:href="#m"
     overflow="visible"
     width="100%" /></clipPath><radialGradient
   id="p"
   gradientUnits="userSpaceOnUse"
   cy="48.52"
   cx="597.88"
   gradientTransform="translate(-576)"
   r="78.044"><stop
     stop-color="#3E2723"
     stop-opacity=".2"
     offset="0"
     id="stop94" /><stop
     stop-color="#3E2723"
     stop-opacity="0"
     offset="1"
     id="stop96" /></radialGradient><clipPath
   id="clipPath1305"><use
     width="100%"
     overflow="visible"
     xlink:href="#a"
     height="100%"
     id="use1303" /></clipPath><radialGradient
   id="q"
   gradientUnits="userSpaceOnUse"
   cy="96.138"
   cx="671.84"
   gradientTransform="translate(-576)"
   r="87.87"><stop
     stop-color="#263238"
     stop-opacity=".2"
     offset="0"
     id="stop101" /><stop
     stop-color="#263238"
     stop-opacity="0"
     offset="1"
     id="stop103" /></radialGradient><clipPath
   id="clipPath1312"><use
     width="100%"
     overflow="visible"
     xlink:href="#a"
     height="100%"
     id="use1310" /></clipPath><clipPath
   id="clipPath1316"><use
     width="100%"
     overflow="visible"
     xlink:href="#a"
     height="100%"
     id="use1314" /></clipPath><clipPath
   id="clipPath1320"><use
     width="100%"
     overflow="visible"
     xlink:href="#a"
     height="100%"
     id="use1318" /></clipPath><clipPath
   id="clipPath1324"><use
     width="100%"
     overflow="visible"
     xlink:href="#a"
     height="100%"
     id="use1322" /></clipPath><path
   inkscape:connector-curvature="0"
   d="m 8,184 h 83.77 l 38.88,-38.88 V 116 H 61.36 L 8,24.48 Z"
   id="e" /><path
   inkscape:connector-curvature="0"
   d="m 96,56 34.65,60 -38.88,68 H 184 V 56 Z"
   id="i" /><path
   inkscape:connector-curvature="0"
   d="M 21.97,8 V 48.34 L 61.36,116 96,56 h 88 V 8 Z"
   id="m" /><clipPath
   id="b-1"><use
     width="100%"
     overflow="visible"
     xlink:href="#a"
     height="100%"
     id="use5-7" /></clipPath><clipPath
   id="clipPath1232-2"><use
     width="100%"
     overflow="visible"
     xlink:href="#a"
     height="100%"
     id="use1230-2" /></clipPath><clipPath
   id="clipPath1236-6"><use
     width="100%"
     overflow="visible"
     xlink:href="#a"
     height="100%"
     id="use1234-1" /></clipPath><clipPath
   id="clipPath1244-1"><use
     width="100%"
     overflow="visible"
     xlink:href="#a"
     height="100%"
     id="use1242-5" /></clipPath><clipPath
   id="clipPath1248-9"><use
     width="100%"
     overflow="visible"
     xlink:href="#a"
     height="100%"
     id="use1246-4" /></clipPath><clipPath
   id="f-9"><use
     y="0"
     x="0"
     style="overflow:visible"
     id="use37-0"
     height="100%"
     xlink:href="#e-8"
     overflow="visible"
     width="100%" /></clipPath><clipPath
   id="clipPath1258-7"><use
     width="100%"
     overflow="visible"
     xlink:href="#a"
     height="100%"
     id="use1256-7" /></clipPath><clipPath
   id="clipPath1269-1"><use
     width="100%"
     overflow="visible"
     xlink:href="#a"
     height="100%"
     id="use1267-1" /></clipPath><clipPath
   id="j-5"><use
     y="0"
     x="0"
     style="overflow:visible"
     id="use62-9"
     height="100%"
     xlink:href="#i-5"
     overflow="visible"
     width="100%" /></clipPath><radialGradient
   id="l-7"
   gradientUnits="userSpaceOnUse"
   cy="55.948"
   cx="668.18"
   gradientTransform="translate(-576)"
   r="84.078"><stop
     stop-color="#3E2723"
     stop-opacity=".2"
     offset="0"
     id="stop73-7" /><stop
     stop-color="#3E2723"
     stop-opacity="0"
     offset="1"
     id="stop75-6" /></radialGradient><clipPath
   id="clipPath1285-7"><use
     width="100%"
     overflow="visible"
     xlink:href="#a"
     height="100%"
     id="use1283-3" /></clipPath><clipPath
   id="clipPath1289-6"><use
     width="100%"
     overflow="visible"
     xlink:href="#a"
     height="100%"
     id="use1287-5" /></clipPath><clipPath
   id="n-6"><use
     y="0"
     x="0"
     style="overflow:visible"
     id="use83-3"
     height="100%"
     xlink:href="#m-6"
     overflow="visible"
     width="100%" /></clipPath><radialGradient
   id="p-9"
   gradientUnits="userSpaceOnUse"
   cy="48.52"
   cx="597.88"
   gradientTransform="translate(-576)"
   r="78.044"><stop
     stop-color="#3E2723"
     stop-opacity=".2"
     offset="0"
     id="stop94-4" /><stop
     stop-color="#3E2723"
     stop-opacity="0"
     offset="1"
     id="stop96-8" /></radialGradient><clipPath
   id="clipPath1305-1"><use
     width="100%"
     overflow="visible"
     xlink:href="#a"
     height="100%"
     id="use1303-2" /></clipPath><radialGradient
   id="q-9"
   gradientUnits="userSpaceOnUse"
   cy="96.138"
   cx="671.84"
   gradientTransform="translate(-576)"
   r="87.87"><stop
     stop-color="#263238"
     stop-opacity=".2"
     offset="0"
     id="stop101-3" /><stop
     stop-color="#263238"
     stop-opacity="0"
     offset="1"
     id="stop103-9" /></radialGradient><clipPath
   id="clipPath1312-0"><use
     width="100%"
     overflow="visible"
     xlink:href="#a"
     height="100%"
     id="use1310-8" /></clipPath><clipPath
   id="clipPath1316-8"><use
     width="100%"
     overflow="visible"
     xlink:href="#a"
     height="100%"
     id="use1314-5" /></clipPath><clipPath
   id="clipPath1320-0"><use
     width="100%"
     overflow="visible"
     xlink:href="#a"
     height="100%"
     id="use1318-9" /></clipPath><clipPath
   id="clipPath1324-6"><use
     width="100%"
     overflow="visible"
     xlink:href="#a"
     height="100%"
     id="use1322-3" /></clipPath><path
   inkscape:connector-curvature="0"
   d="m 8,184 h 83.77 l 38.88,-38.88 V 116 H 61.36 L 8,24.48 Z"
   id="e-8" /><path
   inkscape:connector-curvature="0"
   d="m 96,56 34.65,60 -38.88,68 H 184 V 56 Z"
   id="i-5" /><path
   inkscape:connector-curvature="0"
   d="M 21.97,8 V 48.34 L 61.36,116 96,56 h 88 V 8 Z"
   id="m-6" /><radialGradient
   id="r"
   gradientUnits="userSpaceOnUse"
   cy="32.014"
   cx="34.285999"
   gradientTransform="translate(-23.079613,-106.2699)"
   r="176.75"><stop
     stop-color="#fff"
     stop-opacity=".1"
     offset="0"
     id="stop130" /><stop
     stop-color="#fff"
     stop-opacity="0"
     offset="1"
     id="stop132" /></radialGradient><clipPath
   id="b-0"><use
     y="0"
     x="0"
     style="overflow:visible"
     width="100%"
     overflow="visible"
     xlink:href="#a"
     height="100%"
     id="use5-5" /></clipPath><clipPath
   id="clipPath963"><use
     y="0"
     x="0"
     style="overflow:visible"
     width="100%"
     overflow="visible"
     xlink:href="#a"
     height="100%"
     id="use961" /></clipPath><clipPath
   id="clipPath967"><use
     y="0"
     x="0"
     style="overflow:visible"
     width="100%"
     overflow="visible"
     xlink:href="#a"
     height="100%"
     id="use965" /></clipPath><radialGradient
   id="q-94"
   gradientUnits="userSpaceOnUse"
   cy="96.138"
   cx="671.84003"
   gradientTransform="translate(-576)"
   r="87.870003"><stop
     stop-color="#263238"
     stop-opacity=".2"
     offset="0"
     id="stop101-6" /><stop
     stop-color="#263238"
     stop-opacity="0"
     offset="1"
     id="stop103-92" /></radialGradient><clipPath
   id="clipPath974"><use
     y="0"
     x="0"
     style="overflow:visible"
     width="100%"
     overflow="visible"
     xlink:href="#a"
     height="100%"
     id="use972" /></clipPath><radialGradient
   id="p-2"
   gradientUnits="userSpaceOnUse"
   cy="48.52"
   cx="597.88"
   gradientTransform="translate(-576)"
   r="78.043999"><stop
     stop-color="#3E2723"
     stop-opacity=".2"
     offset="0"
     id="stop94-47" /><stop
     stop-color="#3E2723"
     stop-opacity="0"
     offset="1"
     id="stop96-7" /></radialGradient><clipPath
   id="clipPath981"><use
     y="0"
     x="0"
     style="overflow:visible"
     width="100%"
     overflow="visible"
     xlink:href="#a"
     height="100%"
     id="use979" /></clipPath><clipPath
   id="clipPath985"><use
     y="0"
     x="0"
     style="overflow:visible"
     width="100%"
     overflow="visible"
     xlink:href="#a"
     height="100%"
     id="use983" /></clipPath><clipPath
   id="n-5"><use
     width="100%"
     overflow="visible"
     xlink:href="#m-0"
     height="100%"
     id="use83-4"
     style="overflow:visible"
     x="0"
     y="0" /></clipPath><radialGradient
   id="l-2"
   gradientUnits="userSpaceOnUse"
   cy="55.948002"
   cx="668.17999"
   gradientTransform="translate(-576)"
   r="84.078003"><stop
     stop-color="#3E2723"
     stop-opacity=".2"
     offset="0"
     id="stop73-8" /><stop
     stop-color="#3E2723"
     stop-opacity="0"
     offset="1"
     id="stop75-9" /></radialGradient><clipPath
   id="clipPath997"><use
     y="0"
     x="0"
     style="overflow:visible"
     width="100%"
     overflow="visible"
     xlink:href="#a"
     height="100%"
     id="use995" /></clipPath><clipPath
   id="clipPath1001"><use
     y="0"
     x="0"
     style="overflow:visible"
     width="100%"
     overflow="visible"
     xlink:href="#a"
     height="100%"
     id="use999" /></clipPath><clipPath
   id="j-3"><use
     width="100%"
     overflow="visible"
     xlink:href="#i-1"
     height="100%"
     id="use62-6"
     style="overflow:visible"
     x="0"
     y="0" /></clipPath><clipPath
   id="clipPath1010"><use
     y="0"
     x="0"
     style="overflow:visible"
     width="100%"
     overflow="visible"
     xlink:href="#a"
     height="100%"
     id="use1008" /></clipPath><clipPath
   id="clipPath1017"><use
     y="0"
     x="0"
     style="overflow:visible"
     width="100%"
     overflow="visible"
     xlink:href="#a"
     height="100%"
     id="use1015" /></clipPath><clipPath
   id="f-0"><use
     width="100%"
     overflow="visible"
     xlink:href="#e-1"
     height="100%"
     id="use37-5"
     style="overflow:visible"
     x="0"
     y="0" /></clipPath><clipPath
   id="clipPath1029"><use
     y="0"
     x="0"
     style="overflow:visible"
     width="100%"
     overflow="visible"
     xlink:href="#a"
     height="100%"
     id="use1027" /></clipPath><clipPath
   id="clipPath1033"><use
     y="0"
     x="0"
     style="overflow:visible"
     width="100%"
     overflow="visible"
     xlink:href="#a"
     height="100%"
     id="use1031" /></clipPath><clipPath
   id="clipPath1043"><use
     y="0"
     x="0"
     style="overflow:visible"
     width="100%"
     overflow="visible"
     xlink:href="#a"
     height="100%"
     id="use1041" /></clipPath><clipPath
   id="clipPath1047"><use
     y="0"
     x="0"
     style="overflow:visible"
     width="100%"
     overflow="visible"
     xlink:href="#a"
     height="100%"
     id="use1045" /></clipPath><path
   id="e-1"
   d="m 8,184 h 83.77 l 38.88,-38.88 V 116 H 61.36 L 8,24.48 Z"
   inkscape:connector-curvature="0" /><path
   id="i-1"
   d="m 96,56 34.65,60 -38.88,68 H 184 V 56 Z"
   inkscape:connector-curvature="0" /><path
   id="m-0"
   d="M 21.97,8 V 48.34 L 61.36,116 96,56 h 88 V 8 Z"
   inkscape:connector-curvature="0" /><circle
   r="88"
   cx="96"
   cy="96"
   id="a" /><path
   d="m8 184h83.77l38.88-38.88v-29.12h-69.29l-53.36-91.52z"
   id="e-6" /><path
   d="m96 56l34.65 60-38.88 68h92.23v-128z"
   id="i-2" /><path
   d="m21.97 8v40.34l39.39 67.66 34.64-60h88v-48z"
   id="m-8" /><defs
   id="defs1820"><path
     d="M 21.97,8 V 48.34 L 61.36,116 96,56 h 88 V 8 Z"
     id="path1928"
     inkscape:connector-curvature="0" /></defs><clipPath
   id="n-7"><use
     id="use1822"
     height="100%"
     xlink:href="#m-8"
     overflow="visible"
     width="100%"
     style="overflow:visible"
     x="0"
     y="0" /></clipPath><defs
   id="defs1799"><path
     d="m 96,56 34.65,60 -38.88,68 H 184 V 56 Z"
     id="path1918"
     inkscape:connector-curvature="0" /></defs><clipPath
   id="j-6"><use
     id="use1801"
     height="100%"
     xlink:href="#i-2"
     overflow="visible"
     width="100%"
     style="overflow:visible"
     x="0"
     y="0" /></clipPath><defs
   id="defs1774"><path
     d="m 8,184 h 83.77 l 38.88,-38.88 V 116 H 61.36 L 8,24.48 Z"
     id="path1902"
     inkscape:connector-curvature="0" /></defs><clipPath
   id="f-06"><use
     id="use1776"
     height="100%"
     xlink:href="#e-6"
     overflow="visible"
     width="100%"
     style="overflow:visible"
     x="0"
     y="0" /></clipPath><linearGradient
   x1="110.87"
   x2="52.537998"
   y1="164.5"
   gradientUnits="userSpaceOnUse"
   y2="130.33"
   id="linearGradient1897"><stop
     id="stop1762"
     offset="0"
     stop-opacity=".4"
     stop-color="#055524" /><stop
     id="stop1764"
     offset=".33"
     stop-opacity="0"
     stop-color="#055524" /></linearGradient><linearGradient
   x1="29.337"
   x2="81.836998"
   y1="75.021004"
   gradientUnits="userSpaceOnUse"
   y2="44.354"
   id="linearGradient1889"><stop
     id="stop1749"
     offset="0"
     stop-opacity=".6"
     stop-color="#A52714" /><stop
     id="stop1751"
     offset=".66"
     stop-opacity="0"
     stop-color="#A52714" /></linearGradient><linearGradient
   id="linearGradient1910"
   y2="114.13"
   gradientUnits="userSpaceOnUse"
   y1="49.804001"
   x2="136.55"
   x1="121.86"><stop
     stop-color="#EA6100"
     stop-opacity=".3"
     offset="0"
     id="stop1781" /><stop
     stop-color="#EA6100"
     stop-opacity="0"
     offset=".66"
     id="stop1783" /></linearGradient><clipPath
   id="b-3"><use
     y="0"
     x="0"
     style="overflow:visible"
     width="100%"
     overflow="visible"
     xlink:href="#a"
     height="100%"
     id="use5-1" /></clipPath><clipPath
   id="clipPath1024"><use
     y="0"
     x="0"
     style="overflow:visible"
     width="100%"
     overflow="visible"
     xlink:href="#a"
     height="100%"
     id="use1022" /></clipPath><clipPath
   id="clipPath1028"><use
     y="0"
     x="0"
     style="overflow:visible"
     width="100%"
     overflow="visible"
     xlink:href="#a"
     height="100%"
     id="use1026" /></clipPath><clipPath
   id="clipPath1035"><use
     y="0"
     x="0"
     style="overflow:visible"
     width="100%"
     overflow="visible"
     xlink:href="#a"
     height="100%"
     id="use1033" /></clipPath><clipPath
   id="clipPath1039"><use
     y="0"
     x="0"
     style="overflow:visible"
     width="100%"
     overflow="visible"
     xlink:href="#a"
     height="100%"
     id="use1037" /></clipPath><clipPath
   id="f-6"><use
     y="0"
     x="0"
     style="overflow:visible"
     id="use37-8"
     height="100%"
     xlink:href="#e-61"
     overflow="visible"
     width="100%" /></clipPath><clipPath
   id="clipPath1048"><use
     y="0"
     x="0"
     style="overflow:visible"
     width="100%"
     overflow="visible"
     xlink:href="#a"
     height="100%"
     id="use1046" /></clipPath><clipPath
   id="clipPath1058"><use
     y="0"
     x="0"
     style="overflow:visible"
     width="100%"
     overflow="visible"
     xlink:href="#a"
     height="100%"
     id="use1056" /></clipPath><clipPath
   id="j-66"><use
     y="0"
     x="0"
     style="overflow:visible"
     id="use62-4"
     height="100%"
     xlink:href="#i-59"
     overflow="visible"
     width="100%" /></clipPath><radialGradient
   id="l-9"
   gradientUnits="userSpaceOnUse"
   cy="55.948002"
   cx="668.17999"
   gradientTransform="translate(-576)"
   r="84.078003"><stop
     stop-color="#3E2723"
     stop-opacity=".2"
     offset="0"
     id="stop73-5" /><stop
     stop-color="#3E2723"
     stop-opacity="0"
     offset="1"
     id="stop75-0" /></radialGradient><clipPath
   id="clipPath1073"><use
     y="0"
     x="0"
     style="overflow:visible"
     width="100%"
     overflow="visible"
     xlink:href="#a"
     height="100%"
     id="use1071" /></clipPath><clipPath
   id="clipPath1077"><use
     y="0"
     x="0"
     style="overflow:visible"
     width="100%"
     overflow="visible"
     xlink:href="#a"
     height="100%"
     id="use1075" /></clipPath><clipPath
   id="n-4"><use
     y="0"
     x="0"
     style="overflow:visible"
     id="use83-8"
     height="100%"
     xlink:href="#m-4"
     overflow="visible"
     width="100%" /></clipPath><radialGradient
   id="p-7"
   gradientUnits="userSpaceOnUse"
   cy="48.52"
   cx="597.88"
   gradientTransform="translate(-576)"
   r="78.043999"><stop
     stop-color="#3E2723"
     stop-opacity=".2"
     offset="0"
     id="stop94-1" /><stop
     stop-color="#3E2723"
     stop-opacity="0"
     offset="1"
     id="stop96-72" /></radialGradient><clipPath
   id="clipPath1092"><use
     y="0"
     x="0"
     style="overflow:visible"
     width="100%"
     overflow="visible"
     xlink:href="#a"
     height="100%"
     id="use1090" /></clipPath><radialGradient
   id="q-7"
   gradientUnits="userSpaceOnUse"
   cy="96.138"
   cx="671.84003"
   gradientTransform="translate(-576)"
   r="87.870003"><stop
     stop-color="#263238"
     stop-opacity=".2"
     offset="0"
     id="stop101-2" /><stop
     stop-color="#263238"
     stop-opacity="0"
     offset="1"
     id="stop103-2" /></radialGradient><clipPath
   id="clipPath1099"><use
     y="0"
     x="0"
     style="overflow:visible"
     width="100%"
     overflow="visible"
     xlink:href="#a"
     height="100%"
     id="use1097" /></clipPath><clipPath
   id="clipPath1103"><use
     y="0"
     x="0"
     style="overflow:visible"
     width="100%"
     overflow="visible"
     xlink:href="#a"
     height="100%"
     id="use1101" /></clipPath><clipPath
   id="clipPath1107"><use
     y="0"
     x="0"
     style="overflow:visible"
     width="100%"
     overflow="visible"
     xlink:href="#a"
     height="100%"
     id="use1105" /></clipPath><clipPath
   id="clipPath1111"><use
     y="0"
     x="0"
     style="overflow:visible"
     width="100%"
     overflow="visible"
     xlink:href="#a"
     height="100%"
     id="use1109" /></clipPath><radialGradient
   id="r-6"
   gradientUnits="userSpaceOnUse"
   cy="32.014"
   cx="34.285999"
   gradientTransform="translate(-7,-7)"
   r="176.75"><stop
     stop-color="#fff"
     stop-opacity=".1"
     offset="0"
     id="stop130-1" /><stop
     stop-color="#fff"
     stop-opacity="0"
     offset="1"
     id="stop132-0" /></radialGradient><path
   inkscape:connector-curvature="0"
   d="m 8,184 h 83.77 l 38.88,-38.88 V 116 H 61.36 L 8,24.48 Z"
   id="e-61" /><path
   inkscape:connector-curvature="0"
   d="m 96,56 34.65,60 -38.88,68 H 184 V 56 Z"
   id="i-59" /><path
   inkscape:connector-curvature="0"
   d="M 21.97,8 V 48.34 L 61.36,116 96,56 h 88 V 8 Z"
   id="m-4" /><clipPath
   id="b-9"><use
     y="0"
     x="0"
     style="overflow:visible"
     width="100%"
     overflow="visible"
     xlink:href="#a"
     height="100%"
     id="use5-0" /></clipPath><clipPath
   id="clipPath1024-7"><use
     y="0"
     x="0"
     style="overflow:visible"
     width="100%"
     overflow="visible"
     xlink:href="#a"
     height="100%"
     id="use1022-7" /></clipPath><clipPath
   id="clipPath1028-1"><use
     y="0"
     x="0"
     style="overflow:visible"
     width="100%"
     overflow="visible"
     xlink:href="#a"
     height="100%"
     id="use1026-1" /></clipPath><clipPath
   id="clipPath1035-7"><use
     y="0"
     x="0"
     style="overflow:visible"
     width="100%"
     overflow="visible"
     xlink:href="#a"
     height="100%"
     id="use1033-7" /></clipPath><clipPath
   id="clipPath1039-6"><use
     y="0"
     x="0"
     style="overflow:visible"
     width="100%"
     overflow="visible"
     xlink:href="#a"
     height="100%"
     id="use1037-7" /></clipPath><clipPath
   id="f-3"><use
     y="0"
     x="0"
     style="overflow:visible"
     id="use37-6"
     height="100%"
     xlink:href="#e-9"
     overflow="visible"
     width="100%" /></clipPath><clipPath
   id="clipPath1048-3"><use
     y="0"
     x="0"
     style="overflow:visible"
     width="100%"
     overflow="visible"
     xlink:href="#a"
     height="100%"
     id="use1046-9" /></clipPath><clipPath
   id="clipPath1058-4"><use
     y="0"
     x="0"
     style="overflow:visible"
     width="100%"
     overflow="visible"
     xlink:href="#a"
     height="100%"
     id="use1056-8" /></clipPath><clipPath
   id="j-1"><use
     y="0"
     x="0"
     style="overflow:visible"
     id="use62-2"
     height="100%"
     xlink:href="#i-6"
     overflow="visible"
     width="100%" /></clipPath><radialGradient
   id="l-93"
   gradientUnits="userSpaceOnUse"
   cy="55.948002"
   cx="668.17999"
   gradientTransform="translate(-576)"
   r="84.078003"><stop
     stop-color="#3E2723"
     stop-opacity=".2"
     offset="0"
     id="stop73-9" /><stop
     stop-color="#3E2723"
     stop-opacity="0"
     offset="1"
     id="stop75-08" /></radialGradient><clipPath
   id="clipPath1073-8"><use
     y="0"
     x="0"
     style="overflow:visible"
     width="100%"
     overflow="visible"
     xlink:href="#a"
     height="100%"
     id="use1071-5" /></clipPath><clipPath
   id="clipPath1077-0"><use
     y="0"
     x="0"
     style="overflow:visible"
     width="100%"
     overflow="visible"
     xlink:href="#a"
     height="100%"
     id="use1075-9" /></clipPath><clipPath
   id="n-63"><use
     y="0"
     x="0"
     style="overflow:visible"
     id="use83-85"
     height="100%"
     xlink:href="#m-2"
     overflow="visible"
     width="100%" /></clipPath><radialGradient
   id="p-6"
   gradientUnits="userSpaceOnUse"
   cy="48.52"
   cx="597.88"
   gradientTransform="translate(-576)"
   r="78.043999"><stop
     stop-color="#3E2723"
     stop-opacity=".2"
     offset="0"
     id="stop94-11" /><stop
     stop-color="#3E2723"
     stop-opacity="0"
     offset="1"
     id="stop96-5" /></radialGradient><clipPath
   id="clipPath1092-9"><use
     y="0"
     x="0"
     style="overflow:visible"
     width="100%"
     overflow="visible"
     xlink:href="#a"
     height="100%"
     id="use1090-8" /></clipPath><radialGradient
   id="q-4"
   gradientUnits="userSpaceOnUse"
   cy="96.138"
   cx="671.84003"
   gradientTransform="translate(-576)"
   r="87.870003"><stop
     stop-color="#263238"
     stop-opacity=".2"
     offset="0"
     id="stop101-8" /><stop
     stop-color="#263238"
     stop-opacity="0"
     offset="1"
     id="stop103-1" /></radialGradient><clipPath
   id="clipPath1099-0"><use
     y="0"
     x="0"
     style="overflow:visible"
     width="100%"
     overflow="visible"
     xlink:href="#a"
     height="100%"
     id="use1097-3" /></clipPath><clipPath
   id="clipPath1103-0"><use
     y="0"
     x="0"
     style="overflow:visible"
     width="100%"
     overflow="visible"
     xlink:href="#a"
     height="100%"
     id="use1101-4" /></clipPath><clipPath
   id="clipPath1107-4"><use
     y="0"
     x="0"
     style="overflow:visible"
     width="100%"
     overflow="visible"
     xlink:href="#a"
     height="100%"
     id="use1105-4" /></clipPath><clipPath
   id="clipPath1111-4"><use
     y="0"
     x="0"
     style="overflow:visible"
     width="100%"
     overflow="visible"
     xlink:href="#a"
     height="100%"
     id="use1109-7" /></clipPath><radialGradient
   id="r-63"
   gradientUnits="userSpaceOnUse"
   cy="32.014"
   cx="34.285999"
   gradientTransform="translate(-7,-7)"
   r="176.75"><stop
     stop-color="#fff"
     stop-opacity=".1"
     offset="0"
     id="stop130-17" /><stop
     stop-color="#fff"
     stop-opacity="0"
     offset="1"
     id="stop132-5" /></radialGradient><path
   inkscape:connector-curvature="0"
   d="m 8,184 h 83.77 l 38.88,-38.88 V 116 H 61.36 L 8,24.48 Z"
   id="e-9" /><path
   inkscape:connector-curvature="0"
   d="m 96,56 34.65,60 -38.88,68 H 184 V 56 Z"
   id="i-6" /><path
   inkscape:connector-curvature="0"
   d="M 21.97,8 V 48.34 L 61.36,116 96,56 h 88 V 8 Z"
   id="m-2" /><linearGradient
   id="e-3"
   gradientTransform="matrix(2.5,0,0,2.500025,-2922.0001,2849.6167)"
   gradientUnits="userSpaceOnUse"
   x1="1273.0009"
   x2="1169.0009"
   xlink:href="#b-6"
   y1="-1040.6349"
   y2="-1168.6337" /><linearGradient
   id="b-6"><stop
     offset="0"
     stop-color="#8e03a3"
     id="stop3" /><stop
     offset="1"
     stop-color="#c254d2"
     id="stop5" /></linearGradient><linearGradient
   id="d-7"
   gradientUnits="userSpaceOnUse"
   x1="38.000729"
   x2="88.000732"
   y1="79.980797"
   y2="79.980797"
   gradientTransform="matrix(2.5,0,0,2.5,-29.501387,-71.9965)"><stop
     offset="0"
     stop-color="#9207a7"
     id="stop13" /><stop
     offset=".27254906"
     stop-color="#cd6cc4"
     id="stop15" /><stop
     offset=".50966245"
     stop-color="#ad3cbe"
     id="stop17" /><stop
     offset=".83376038"
     stop-color="#bc2ad2"
     id="stop19" /><stop
     offset="1"
     stop-color="#950ba8"
     id="stop21" /></linearGradient><linearGradient
   id="h"
   gradientTransform="matrix(-2,0,0,2,860.00054,-2063.5036)"
   gradientUnits="userSpaceOnUse"
   x1="386.63177"
   x2="410.49988"
   y1="1068.9539"
   y2="1068.9539"><stop
     offset="0"
     stop-color="#e196fb"
     id="stop31" /><stop
     offset=".13010512"
     stop-color="#f4c7fa"
     id="stop33" /><stop
     offset=".31360075"
     stop-color="#e091f3"
     id="stop35" /><stop
     offset=".44078669"
     stop-color="#d764e9"
     id="stop37" /><stop
     offset=".68364757"
     stop-color="#e7adf0"
     id="stop39" /><stop
     offset=".75620717"
     stop-color="#e6a9f8"
     id="stop41" /><stop
     offset=".88021636"
     stop-color="#e595f2"
     id="stop43" /><stop
     offset="1"
     stop-color="#f2cbf8"
     id="stop45" /></linearGradient><radialGradient
   id="c-5"
   cx="518.85358"
   cy="730.48431"
   gradientTransform="matrix(2.5131712,0,3.75e-7,0.70742572,-1175.9735,-422.51087)"
   gradientUnits="userSpaceOnUse"
   r="22.889727"><stop
     offset="0"
     stop-color="#dc85e9"
     id="stop8" /><stop
     offset="1"
     stop-color="#f2cbf8"
     id="stop10-3" /></radialGradient><linearGradient
   id="a-5"
   gradientUnits="userSpaceOnUse"
   x1="117.00146"
   x2="12.00143"
   xlink:href="#b-6"
   y1="127.8783"
   y2="0.0766"
   gradientTransform="matrix(2.5,0,0,2.5,-29.501387,-71.9965)" /><linearGradient
   id="g-9"
   gradientTransform="matrix(7.99974,0,0,7.9977797,-879.9681,-7914.7674)"
   gradientUnits="userSpaceOnUse"
   x1="122.75008"
   x2="111.74973"
   xlink:href="#b-6"
   y1="991.62115"
   y2="977.11713" /></defs><sodipodi:namedview
   pagecolor="#ffffff"
   bordercolor="#666666"
   borderopacity="1"
   objecttolerance="10"
   gridtolerance="10"
   guidetolerance="10"
   inkscape:pageopacity="0"
   inkscape:pageshadow="2"
   inkscape:window-width="1885"
   inkscape:window-height="1537"
   id="namedview249"
   showgrid="false"
   inkscape:zoom="2.8284271"
   inkscape:cx="40.460519"
   inkscape:cy="141.99115"
   inkscape:window-x="1955"
   inkscape:window-y="27"
   inkscape:window-maximized="0"
   inkscape:current-layer="layer3"
   inkscape:pagecheckerboard="true" />

<g
   inkscape:groupmode="layer"
   id="layer3"
   inkscape:label="Squircle-Background"
   style="display:none"><rect
     style="display:none;fill:#a426b7;fill-opacity:1;stroke-width:1.41822851"
     id="rect1101"
     width="248"
     height="248"
     x="4.0000129"
     y="4"
     ry="25.455845" /></g><g
   inkscape:groupmode="layer"
   id="layer4"
   inkscape:label="Squircle-Shadow"
   style="display:none"><path
     style="display:none;opacity:0.5;fill:#17171d;fill-opacity:0.39215686;stroke-width:1.41822851"
     d="m 3.99999,216.54491 v 10 c 0,14.10254 11.35254,25.45508 25.45507,25.45508 h 197.08985 c 14.10254,0 25.45508,-11.35254 25.45508,-25.45508 v -10 c 0,14.10254 -11.35254,25.45508 -25.45508,25.45508 H 29.45506 c -14.10253,0 -25.45507,-11.35254 -25.45507,-25.45508 z"
     id="rect1101-3"
     inkscape:connector-curvature="0" /></g><g
   inkscape:groupmode="layer"
   id="layer2"
   inkscape:label="Circle-Background"
   style="display:inline"><circle
     style="display:inline;fill:#a426b7;fill-opacity:1;stroke:none;stroke-width:2.74049902;stroke-miterlimit:4;stroke-dasharray:none;stroke-opacity:1"
     id="path1090"
     cx="128"
     cy="128"
     r="124" /><circle
     style="display:inline;fill:#a426b7;fill-opacity:1;stroke:none;stroke-width:2.74049902;stroke-miterlimit:4;stroke-dasharray:none;stroke-opacity:1"
     id="path1090-3"
     cx="128"
     cy="128"
     r="124" /></g><g
   inkscape:groupmode="layer"
   id="layer6"
   inkscape:label="Circle-Shadow"
   style="display:inline"
   sodipodi:insensitive="true"><g
     id="g2548"
     style="display:inline"
     transform="translate(-2.960187,1.58543)"><path
       d="m 256.36019,128.41457 c 0,-33.900005 -13.5,-64.500005 -35.4,-86.900002 -0.4,-0.3 -0.7,-0.7 -1.1,-1 21.3,22.299997 34.5,52.599997 34.5,86.000002 0,68.5 -55.2,124 -123.4,124 -32.900003,0 -62.900003,-13 -85.000003,-34.1 0.3,0.3 0.6,0.6 0.9,0.9 22.2,21.7 52.6,35.1 86.000003,35.1 68.2,0 123.5,-55.5 123.5,-124 z"
       id="path238"
       inkscape:connector-curvature="0"
       style="display:inline;opacity:0.1" /><path
       d="m 219.86019,40.414568 c -0.7,-0.6 -1.4,-1.3 -2,-1.9 -0.7,-0.6 -1.4,-1.2 -2.1,-1.9 19.1,21.799997 30.7,50.499997 30.7,81.800002 0,68.5 -55.2,124 -123.4,124 -30.900003,0 -59.200003,-11.4 -80.900003,-30.3 0.6,0.7 1.2,1.4 1.9,2.1 0.6,0.7 1.3,1.4 1.9,2 22.1,21.1 52.1,34.1 85.000003,34.1 68.2,0 123.4,-55.5 123.4,-124 0,-33.300005 -13.1,-63.600005 -34.5,-85.900002 z"
       id="path240"
       inkscape:connector-curvature="0"
       style="display:inline;opacity:0.2" /><path
       d="m 220.96019,41.514568 c 21.9,22.399997 35.4,53.099997 35.4,86.900002 0,68.5 -55.2,124 -123.4,124 -33.500003,0 -63.800003,-13.4 -86.000003,-35.1 22.4,22.9 53.600003,37.1 88.000003,37.1 68.2,0 123.4,-55.5 123.4,-124 -0.1,-34.900005 -14.4,-66.400005 -37.4,-88.900002 z"
       id="path236"
       inkscape:connector-curvature="0"
       style="display:inline;opacity:0.05" /></g></g><g
   inkscape:groupmode="layer"
   id="layer1"
   inkscape:label="Icon"
   style="display:inline"><path
     style="display:inline;opacity:0.6;fill:#ffffff;fill-opacity:1;stroke-width:2.5"
     inkscape:connector-curvature="0"
     d="m 48,58 v 7.5 H 83 V 58 Z m 40,0 v 7.5 h 37.5 V 58 Z m 42.5,0 v 7.5 H 168 V 58 Z m 42.5,0 v 7.5 h 35 V 58 Z M 48,70.5 v 10 h 35 v -10 z m 40,0 v 10 h 37.5 v -10 z m 42.5,0 v 10 H 168 v -10 z m 42.5,0 v 10 h 35 v -10 z m -125,15 v 10 h 35 v -10 z m 40,0 v 10 h 37.5 v -10 z m 42.5,0 v 10 H 168 v -10 z m 42.5,0 v 10 h 35 v -10 z m -125,15 v 10 h 35 v -10 z m 40,0 v 10 h 37.5 v -10 z m 42.5,0 v 10 H 168 v -10 z m 42.5,0 v 10 h 35 v -10 z m -125,15 v 10 h 35 v -10 z m 40,0 v 10 h 37.5 v -10 z m 42.5,0 v 10 H 168 v -10 z m 42.5,0 v 10 h 35 v -10 z m -125,15 v 10 h 35 v -10 z m 40,0 v 10 h 37.5 v -10 z m 42.5,0 v 10 H 168 v -10 z m 42.5,0 v 10 h 35 v -10 z m -125,15 v 10 h 35 v -10 z m 40,0 v 10 h 37.5 v -10 z m 42.5,0 v 10 H 168 v -10 z m 42.5,0 v 10 h 35 v -10 z m -125,15 v 10 h 35 v -10 z m 40,0 v 10 h 37.5 v -10 z m 42.5,0 v 10 H 168 v -10 z m 42.5,0 v 10 h 35 v -10 z m -125,15 v 10 h 35 v -10 z m 40,0 v 10 h 37.5 v -10 z m 42.5,0 v 10 H 168 v -10 z m 42.5,0 v 10 h 35 v -10 z m -125,15 v 7.5 h 35 v -7.5 z m 40,0 v 7.5 h 37.5 v -7.5 z m 42.5,0 V 198 H 168 v -7.5 z m 42.5,0 v 7.5 h 35 v -7.5 z"
     id="path52" /><path
     style="display:inline;fill:url(#d-7);stroke-width:2.5"
     inkscape:connector-curvature="0"
     d="m 128,75.42175 c -16.73425,0 -31.905,1.826 -43.046999,4.84375 -5.570501,1.509 -10.06775,3.233 -13.4375,5.39075 -3.369251,2.1575 -5.9375,4.97275 -5.9375,8.59375 h -0.0775 v 66.25 1.25 c 0,3.49075 2.47475,6.27025 5.859501,8.4375 3.383999,2.16725 8.009749,3.9565 13.593499,5.46875 11.168,3.0245 26.295499,4.84375 43.046999,4.84375 16.7515,0 31.87925,-1.81925 43.047,-4.84375 5.58375,-1.51225 10.20925,-3.3015 13.5935,-5.46875 3.38475,-2.16725 5.8595,-4.94675 5.8595,-8.4375 v -67.5 h -0.0775 c 0,-3.621 -2.56825,-6.43625 -5.9375,-8.59375 C 181.116,83.4985 176.619,81.7745 171.048,80.2655 159.906,77.24775 144.73525,75.42175 128.001,75.42175 Z m 0,5.15625 c 16.403,0 31.30125,1.82375 41.875,4.6875 5.287,1.432 9.4845,3.113 12.1875,4.84375 2.70275,1.731 3.5155,3.2745 3.5155,4.14075 0,0.86625 -0.81275,2.40975 -3.5155,4.1405 -2.703,1.731 -6.9005,3.412 -12.1875,4.84375 -10.57375,2.864 -25.472,4.6875 -41.875,4.6875 -16.40275,0 -31.30125,-1.8235 -41.875,-4.6875 -5.287,-1.43175 -9.48475,-3.11275 -12.1875,-4.84375 -2.703,-1.73075 -3.51575,-3.27425 -3.5155,-4.1405 0,-0.86625 0.8125,-2.40975 3.5155,-4.14075 C 76.64025,88.3785 80.838,86.6975 86.125,85.2655 96.69875,82.40175 111.59725,80.578 128,80.578 Z m -57.5,21.4845 c 0.344251,0.25 0.65025,0.54725 1.015501,0.78125 3.36975,2.1575 7.866749,3.88175 13.4375,5.3905 C 96.095,111.25175 111.26575,113.078 128,113.078 c 16.73425,0 31.905,-1.82625 43.047,-4.84375 5.57075,-1.50875 10.068,-3.233 13.4375,-5.3905 0.36525,-0.235 0.67125,-0.532 1.0155,-0.78125 v 13.4375 1.25 c 0,0.9965 -0.906,2.49775 -3.59375,4.21875 -2.68775,1.721 -6.83525,3.41525 -12.10925,4.84375 -10.54825,2.85675 -25.4115,4.6875 -41.797,4.6875 -16.3855,0 -31.248499,-1.83075 -41.796999,-4.6875 -5.274001,-1.4285 -9.4215,-3.12275 -12.10925,-4.84375 -2.68775,-1.721 -3.59375,-3.22225 -3.59375,-4.21875 v -1.25 z m 0,22.5 c 0.293,0.2075 0.55,0.427 0.8595,0.625 3.384001,2.16725 8.00975,3.9565 13.593501,5.46875 C 96.121001,133.68075 111.2485,135.5 128,135.5 c 16.7515,0 31.87925,-1.81925 43.047,-4.84375 5.58375,-1.51225 10.20925,-3.3015 13.5935,-5.46875 0.3095,-0.1975 0.5665,-0.4165 0.8595,-0.625 V 138 v 1.25 c 0,0.9965 -0.906,2.49775 -3.59375,4.21875 -2.68775,1.721 -6.83525,3.41525 -12.10925,4.84375 C 159.24875,151.16925 144.3855,153 128,153 c -16.3855,0 -31.248499,-1.83075 -41.796999,-4.6875 -5.274001,-1.4285 -9.4215,-3.12275 -12.10925,-4.84375 -2.68775,-1.721 -3.59375,-3.22225 -3.59375,-4.21875 V 138 Z m 0,22.5 c 0.293,0.2075 0.55,0.427 0.8595,0.625 3.384001,2.16725 8.00975,3.9565 13.593501,5.46875 C 96.121001,156.18075 111.2485,158 128,158 c 16.7515,0 31.87925,-1.81925 43.047,-4.84375 5.58375,-1.51225 10.20925,-3.3015 13.5935,-5.46875 0.3095,-0.1975 0.5665,-0.4165 0.8595,-0.625 v 13.4375 1.25 c 0,0.9965 -0.906,2.49775 -3.59375,4.21875 -2.68775,1.721 -6.83525,3.41525 -12.10925,4.84375 -10.54825,2.85675 -25.4115,4.6875 -41.797,4.6875 -16.3855,0 -31.248499,-1.83075 -41.796999,-4.6875 -5.274001,-1.4285 -9.4215,-3.12275 -12.10925,-4.84375 -2.68775,-1.721 -3.59375,-3.22225 -3.59375,-4.21875 v -1.25 z"
     id="path54" /><path
     style="display:inline;opacity:0.5;fill:none;stroke:#ffffff;stroke-width:5"
     inkscape:connector-curvature="0"
     d="m 128,75.42175 c -16.73425,0 -31.905,1.826 -43.046999,4.84375 -5.570501,1.509 -10.06775,3.233 -13.4375,5.39075 C 68.14625,87.81375 65.5,90.629 65.5,94.25 c -0.155,21.909 5e-4,44.203 5e-4,66.25 v 1.25 c 0,3.49075 2.47475,6.27025 5.859501,8.4375 3.383999,2.16725 8.009749,3.9565 13.593499,5.46875 11.168,3.0245 26.2955,4.84375 43.047,4.84375 16.7515,0 31.87925,-1.81925 43.047,-4.84375 5.58375,-1.51225 10.20925,-3.3015 13.5935,-5.46875 3.38475,-2.16725 5.8595,-4.94675 5.8595,-8.4375 v -67.5 c 0,-3.38225 -3.29325,-6.813 -6.015,-8.59375 C 181.116,83.4985 176.619,81.7745 171.048,80.2655 159.906,77.24775 144.73525,75.42175 128.001,75.42175 Z m 0,5.15625 c 16.403,0 31.30125,1.82375 41.875,4.6875 5.287,1.432 9.4845,3.113 12.1875,4.84375 2.70275,1.731 3.5155,3.2745 3.5155,4.14075 0,0.86625 -0.81275,2.40975 -3.5155,4.1405 -2.703,1.731 -6.9005,3.412 -12.1875,4.84375 -10.57375,2.864 -25.472,4.6875 -41.875,4.6875 -16.40275,0 -31.30125,-1.8235 -41.875,-4.6875 -5.287,-1.43175 -9.48475,-3.11275 -12.1875,-4.84375 -2.703,-1.73075 -3.51575,-3.27425 -3.5155,-4.1405 0,-0.86625 0.8125,-2.40975 3.5155,-4.14075 C 76.64025,88.3785 80.838,86.6975 86.125,85.2655 96.69875,82.40175 111.59725,80.578 128,80.578 Z m -57.5,21.4845 c 0.344251,0.25 0.65025,0.54725 1.015501,0.78125 3.36975,2.1575 7.866749,3.88175 13.4375,5.3905 C 96.095,111.25175 111.26575,113.078 128,113.078 c 16.73425,0 31.905,-1.82625 43.047,-4.84375 5.57075,-1.50875 10.068,-3.233 13.4375,-5.3905 0.36525,-0.235 0.67125,-0.532 1.0155,-0.78125 v 13.4375 1.25 c 0,0.9965 -0.906,2.49775 -3.59375,4.21875 -2.68775,1.721 -6.83525,3.41525 -12.10925,4.84375 -10.54825,2.85675 -25.4115,4.6875 -41.797,4.6875 -16.3855,0 -31.248499,-1.83075 -41.796999,-4.6875 -5.274001,-1.4285 -9.4215,-3.12275 -12.10925,-4.84375 -2.68775,-1.721 -3.59375,-3.22225 -3.59375,-4.21875 v -1.25 z m 0,22.5 c 0.293,0.2075 0.55,0.427 0.8595,0.625 3.384001,2.16725 8.00975,3.9565 13.593501,5.46875 C 96.121001,133.68075 111.2485,135.5 128,135.5 c 16.7515,0 31.87925,-1.81925 43.047,-4.84375 5.58375,-1.51225 10.20925,-3.3015 13.5935,-5.46875 0.3095,-0.1975 0.5665,-0.4165 0.8595,-0.625 V 138 v 1.25 c 0,0.9965 -0.906,2.49775 -3.59375,4.21875 -2.68775,1.721 -6.83525,3.41525 -12.10925,4.84375 C 159.24875,151.16925 144.3855,153 128,153 c -16.3855,0 -31.248499,-1.83075 -41.796999,-4.6875 -5.274001,-1.4285 -9.4215,-3.12275 -12.10925,-4.84375 -2.68775,-1.721 -3.59375,-3.22225 -3.59375,-4.21875 V 138 Z m 0,22.5 c 0.293,0.2075 0.55,0.427 0.8595,0.625 3.384001,2.16725 8.00975,3.9565 13.593501,5.46875 C 96.121001,156.18075 111.2485,158 128,158 c 16.7515,0 31.87925,-1.81925 43.047,-4.84375 5.58375,-1.51225 10.20925,-3.3015 13.5935,-5.46875 0.3095,-0.1975 0.5665,-0.4165 0.8595,-0.625 v 13.4375 1.25 c 0,0.9965 -0.906,2.49775 -3.59375,4.21875 -2.68775,1.721 -6.83525,3.41525 -12.10925,4.84375 -10.54825,2.85675 -25.4115,4.6875 -41.797,4.6875 -16.3855,0 -31.248499,-1.83075 -41.796999,-4.6875 -5.274001,-1.4285 -9.4215,-3.12275 -12.10925,-4.84375 -2.68775,-1.721 -3.59375,-3.22225 -3.59375,-4.21875 v -1.25 z"
     id="path56" /><path
     style="display:inline;fill:#ffffff;stroke-width:2.5"
     inkscape:connector-curvature="0"
     d="m 68,140.5 v 20 1.25 c 0,8.9745 26.863,16.25 60,16.25 33.137,0 60,-7.2755 60,-16.25 v -1.25 -20 z"
     id="path58" /><path
     style="display:inline;fill:#ffffff;fill-opacity:1;stroke-width:2.5"
     inkscape:connector-curvature="0"
     d="m 68,118 v 20 1.25 c 0,8.9745 26.863,16.25 60,16.25 33.137,0 60,-7.2755 60,-16.25 V 138 118 Z"
     id="path60" /><path
     style="display:inline;fill:#ffffff;fill-opacity:1;stroke-width:2.5"
     inkscape:connector-curvature="0"
     d="m 188,96.75 v 18.75 1.25 C 188,125.7245 161.137,133 128,133 94.863,133 68.000001,125.7245 68.000001,116.75 V 115.5 96.75 Z"
     id="path62" /><path
     style="display:inline;opacity:0.35;fill:none;stroke:#ffffff;stroke-width:2.5"
     inkscape:connector-curvature="0"
     id="i-62"
     d="m 71.75,104.25 v 10.16425 1.05975 c 0,7.60825 24.620751,13.776 54.99225,13.776 30.3715,0 57.50775,-6.16775 57.50775,-13.776 V 114.41425 104.319 c -4.917,4.21825 -25.729,10.441 -57.33525,10.441 -31.605999,0 -50.564999,-6.2915 -55.16475,-10.51 z" /><ellipse
     style="display:inline;fill:#ffffff;stroke-width:2.5"
     cx="127.99419"
     cy="94.252434"
     rx="58.74979"
     ry="15.000071"
     id="ellipse65" /><path
     style="display:inline;opacity:0.25;fill:#ffffff;stroke-width:2.5"
     inkscape:connector-curvature="0"
     d="m 128,80.572625 c -16.40275,0 -31.30125,1.82375 -41.875,4.6875 -5.287,1.432 -9.484749,3.113 -12.1875,4.84375 -2.703,1.731 -3.5155,3.274375 -3.5155,4.140625 -2.49e-4,0.86625 0.8125,2.409875 3.5155,4.140625 2.702751,1.731005 6.9005,3.411995 12.1875,4.843745 10.57375,2.864 25.47225,4.6875 41.875,4.6875 16.403,0 31.30125,-1.8235 41.875,-4.6875 5.287,-1.43175 9.4845,-3.11274 12.1875,-4.843745 2.70275,-1.73075 3.5155,-3.274375 3.5155,-4.140625 0,-0.86625 -0.81275,-2.409625 -3.5155,-4.140625 -2.703,-1.73075 -6.9005,-3.41175 -12.1875,-4.84375 -10.57375,-2.86375 -25.472,-4.6875 -41.875,-4.6875 z m 0,2.421875 c 15.31275,0 29.1915,1.471375 39.0625,3.828125 4.93525,1.178 8.88325,2.560875 11.40625,3.984375 2.5235,1.425 3.28125,2.7245 3.28125,3.4375 0,0.713 -0.75775,2.01275 -3.28125,3.4375 -2.523,1.42375 -6.471,2.80662 -11.40625,3.98437 -9.871,2.35675 -23.74975,3.82813 -39.0625,3.82813 -15.3125,0 -29.1915,-1.47138 -39.0625,-3.82813 C 84.002,100.48862 80.054,99.10575 77.53125,97.682 75.0075,96.25725 74.24975,94.9575 74.25,94.2445 c 0,-0.713 0.7575,-2.0125 3.28125,-3.4375 C 80.054,89.3835 84.002,88.000625 88.9375,86.822625 98.8085,84.465875 112.6875,82.9945 128,82.9945 Z"
     id="path67" /><use
     style="display:inline"
     y="0"
     x="0"
     height="1085"
     transform="translate(1.3e-5,22.5)"
     width="5033"
     xlink:href="#i-62"
     id="use69" /><use
     style="display:inline"
     y="0"
     x="0"
     height="1085"
     transform="translate(1.3e-5,45)"
     width="5033"
     xlink:href="#i-62"
     id="use71" /><path
     style="display:inline;fill:url(#a-5);stroke-width:2.5"
     inkscape:connector-curvature="0"
     d="m 128,75.42175 c -16.73425,0 -31.905,1.826 -43.046999,4.84375 -5.570501,1.509 -10.06775,3.233 -13.4375,5.39075 C 68.14625,87.81375 65.5,90.629 65.5,94.25 c -0.155,21.909 5e-4,44.203 5e-4,66.25 v 1.25 c 0,3.49075 2.47475,6.27025 5.859501,8.4375 3.383999,2.16725 8.009749,3.9565 13.593499,5.46875 11.168,3.0245 26.2955,4.84375 43.047,4.84375 16.7515,0 31.87925,-1.81925 43.047,-4.84375 5.58375,-1.51225 10.20925,-3.3015 13.5935,-5.46875 3.38475,-2.16725 5.8595,-4.94675 5.8595,-8.4375 v -67.5 c 0,-3.38225 -3.29325,-6.813 -6.015,-8.59375 C 181.116,83.4985 176.619,81.7745 171.048,80.2655 159.906,77.24775 144.73525,75.42175 128.001,75.42175 Z m 0,5.15625 c 16.403,0 31.30125,1.82375 41.875,4.6875 5.287,1.432 9.4845,3.113 12.1875,4.84375 2.70275,1.731 3.5155,3.2745 3.5155,4.14075 0,0.86625 -0.81275,2.40975 -3.5155,4.1405 -2.703,1.731 -6.9005,3.412 -12.1875,4.84375 -10.57375,2.864 -25.472,4.6875 -41.875,4.6875 -16.40275,0 -31.30125,-1.8235 -41.875,-4.6875 -5.287,-1.43175 -9.48475,-3.11275 -12.1875,-4.84375 -2.703,-1.73075 -3.51575,-3.27425 -3.5155,-4.1405 0,-0.86625 0.8125,-2.40975 3.5155,-4.14075 C 76.64025,88.3785 80.838,86.6975 86.125,85.2655 96.69875,82.40175 111.59725,80.578 128,80.578 Z m -57.5,21.4845 c 0.344251,0.25 0.65025,0.54725 1.015501,0.78125 3.36975,2.1575 7.866749,3.88175 13.4375,5.3905 C 96.095,111.25175 111.26575,113.078 128,113.078 c 16.73425,0 31.905,-1.82625 43.047,-4.84375 5.57075,-1.50875 10.068,-3.233 13.4375,-5.3905 0.36525,-0.235 0.67125,-0.532 1.0155,-0.78125 v 13.4375 1.25 c 0,0.9965 -0.906,2.49775 -3.59375,4.21875 -2.68775,1.721 -6.83525,3.41525 -12.10925,4.84375 -10.54825,2.85675 -25.4115,4.6875 -41.797,4.6875 -16.3855,0 -31.248499,-1.83075 -41.796999,-4.6875 -5.274001,-1.4285 -9.4215,-3.12275 -12.10925,-4.84375 -2.68775,-1.721 -3.59375,-3.22225 -3.59375,-4.21875 v -1.25 z m 0,22.5 c 0.293,0.2075 0.55,0.427 0.8595,0.625 3.384001,2.16725 8.00975,3.9565 13.593501,5.46875 C 96.121001,133.68075 111.2485,135.5 128,135.5 c 16.7515,0 31.87925,-1.81925 43.047,-4.84375 5.58375,-1.51225 10.20925,-3.3015 13.5935,-5.46875 0.3095,-0.1975 0.5665,-0.4165 0.8595,-0.625 V 138 v 1.25 c 0,0.9965 -0.906,2.49775 -3.59375,4.21875 -2.68775,1.721 -6.83525,3.41525 -12.10925,4.84375 C 159.24875,151.16925 144.3855,153 128,153 c -16.3855,0 -31.248499,-1.83075 -41.796999,-4.6875 -5.274001,-1.4285 -9.4215,-3.12275 -12.10925,-4.84375 -2.68775,-1.721 -3.59375,-3.22225 -3.59375,-4.21875 V 138 Z m 0,22.5 c 0.293,0.2075 0.55,0.427 0.8595,0.625 3.384001,2.16725 8.00975,3.9565 13.593501,5.46875 C 96.121001,156.18075 111.2485,158 128,158 c 16.7515,0 31.87925,-1.81925 43.047,-4.84375 5.58375,-1.51225 10.20925,-3.3015 13.5935,-5.46875 0.3095,-0.1975 0.5665,-0.4165 0.8595,-0.625 v 13.4375 1.25 c 0,0.9965 -0.906,2.49775 -3.59375,4.21875 -2.68775,1.721 -6.83525,3.41525 -12.10925,4.84375 -10.54825,2.85675 -25.4115,4.6875 -41.797,4.6875 -16.3855,0 -31.248499,-1.83075 -41.796999,-4.6875 -5.274001,-1.4285 -9.4215,-3.12275 -12.10925,-4.84375 -2.68775,-1.721 -3.59375,-3.22225 -3.59375,-4.21875 v -1.25 z"
     id="path73" /></g></svg>