<?xml version="1.0" encoding="UTF-8" standalone="no"?>
<!-- Generator: Adobe Illustrator 21.0.2, SVG Export Plug-In . SVG Version: 6.00 Build 0)  -->

<svg
   xmlns:dc="http://purl.org/dc/elements/1.1/"
   xmlns:cc="http://creativecommons.org/ns#"
   xmlns:rdf="http://www.w3.org/1999/02/22-rdf-syntax-ns#"
   xmlns:svg="http://www.w3.org/2000/svg"
   xmlns="http://www.w3.org/2000/svg"
   xmlns:xlink="http://www.w3.org/1999/xlink"
   xmlns:sodipodi="http://sodipodi.sourceforge.net/DTD/sodipodi-0.dtd"
   xmlns:inkscape="http://www.inkscape.org/namespaces/inkscape"
   version="1.1"
   id="Layer_1"
   x="0px"
   y="0px"
   viewBox="0 0 256 256"
   enable-background="new 0 0 256 256"
   xml:space="preserve"
   sodipodi:docname="libreoffice-math.svg"
   inkscape:version="0.92.4 (5da689c313, 2019-01-14)"
   inkscape:label="Shadow"><metadata
   id="metadata253"><rdf:RDF><cc:Work
       rdf:about=""><dc:format>image/svg+xml</dc:format><dc:type
         rdf:resource="http://purl.org/dc/dcmitype/StillImage" /><dc:title /></cc:Work></rdf:RDF></metadata><defs
   id="defs251">
	
	
<clipPath
   id="b"><use
     width="100%"
     overflow="visible"
     xlink:href="#a"
     height="100%"
     id="use5" /></clipPath><linearGradient
   x1="29.337"
   x2="81.836998"
   y1="75.021004"
   gradientUnits="userSpaceOnUse"
   y2="44.354"
   id="c"><stop
     id="stop10"
     offset="0"
     stop-opacity=".6"
     stop-color="#A52714" /><stop
     id="stop12"
     offset=".66"
     stop-opacity="0"
     stop-color="#A52714" /></linearGradient><clipPath
   id="clipPath1232"><use
     width="100%"
     overflow="visible"
     xlink:href="#a"
     height="100%"
     id="use1230" /></clipPath><clipPath
   id="clipPath1236"><use
     width="100%"
     overflow="visible"
     xlink:href="#a"
     height="100%"
     id="use1234" /></clipPath><linearGradient
   x1="110.87"
   x2="52.537998"
   y1="164.5"
   gradientUnits="userSpaceOnUse"
   y2="130.33"
   id="d"><stop
     id="stop23"
     offset="0"
     stop-opacity=".4"
     stop-color="#055524" /><stop
     id="stop25"
     offset=".33"
     stop-opacity="0"
     stop-color="#055524" /></linearGradient><clipPath
   id="clipPath1244"><use
     width="100%"
     overflow="visible"
     xlink:href="#a"
     height="100%"
     id="use1242" /></clipPath><clipPath
   id="clipPath1248"><use
     width="100%"
     overflow="visible"
     xlink:href="#a"
     height="100%"
     id="use1246" /></clipPath><clipPath
   id="f"><use
     y="0"
     x="0"
     style="overflow:visible"
     id="use37"
     height="100%"
     xlink:href="#e"
     overflow="visible"
     width="100%" /></clipPath><linearGradient
   x1="121.86"
   x2="136.55"
   y1="49.804001"
   gradientUnits="userSpaceOnUse"
   y2="114.13"
   id="g"><stop
     id="stop42"
     offset="0"
     stop-opacity=".3"
     stop-color="#EA6100" /><stop
     id="stop44"
     offset=".66"
     stop-opacity="0"
     stop-color="#EA6100" /></linearGradient><clipPath
   id="clipPath1258"><use
     width="100%"
     overflow="visible"
     xlink:href="#a"
     height="100%"
     id="use1256" /></clipPath><clipPath
   id="clipPath1269"><use
     width="100%"
     overflow="visible"
     xlink:href="#a"
     height="100%"
     id="use1267" /></clipPath><clipPath
   id="j"><use
     y="0"
     x="0"
     style="overflow:visible"
     id="use62"
     height="100%"
     xlink:href="#i"
     overflow="visible"
     width="100%" /></clipPath><radialGradient
   id="l"
   gradientUnits="userSpaceOnUse"
   cy="55.948"
   cx="668.18"
   gradientTransform="translate(-576)"
   r="84.078"><stop
     stop-color="#3E2723"
     stop-opacity=".2"
     offset="0"
     id="stop73" /><stop
     stop-color="#3E2723"
     stop-opacity="0"
     offset="1"
     id="stop75" /></radialGradient><clipPath
   id="clipPath1285"><use
     width="100%"
     overflow="visible"
     xlink:href="#a"
     height="100%"
     id="use1283" /></clipPath><clipPath
   id="clipPath1289"><use
     width="100%"
     overflow="visible"
     xlink:href="#a"
     height="100%"
     id="use1287" /></clipPath><clipPath
   id="n"><use
     y="0"
     x="0"
     style="overflow:visible"
     id="use83"
     height="100%"
     xlink:href="#m"
     overflow="visible"
     width="100%" /></clipPath><radialGradient
   id="p"
   gradientUnits="userSpaceOnUse"
   cy="48.52"
   cx="597.88"
   gradientTransform="translate(-576)"
   r="78.044"><stop
     stop-color="#3E2723"
     stop-opacity=".2"
     offset="0"
     id="stop94" /><stop
     stop-color="#3E2723"
     stop-opacity="0"
     offset="1"
     id="stop96" /></radialGradient><clipPath
   id="clipPath1305"><use
     width="100%"
     overflow="visible"
     xlink:href="#a"
     height="100%"
     id="use1303" /></clipPath><radialGradient
   id="q"
   gradientUnits="userSpaceOnUse"
   cy="96.138"
   cx="671.84"
   gradientTransform="translate(-576)"
   r="87.87"><stop
     stop-color="#263238"
     stop-opacity=".2"
     offset="0"
     id="stop101" /><stop
     stop-color="#263238"
     stop-opacity="0"
     offset="1"
     id="stop103" /></radialGradient><clipPath
   id="clipPath1312"><use
     width="100%"
     overflow="visible"
     xlink:href="#a"
     height="100%"
     id="use1310" /></clipPath><clipPath
   id="clipPath1316"><use
     width="100%"
     overflow="visible"
     xlink:href="#a"
     height="100%"
     id="use1314" /></clipPath><clipPath
   id="clipPath1320"><use
     width="100%"
     overflow="visible"
     xlink:href="#a"
     height="100%"
     id="use1318" /></clipPath><clipPath
   id="clipPath1324"><use
     width="100%"
     overflow="visible"
     xlink:href="#a"
     height="100%"
     id="use1322" /></clipPath><path
   inkscape:connector-curvature="0"
   d="m 8,184 h 83.77 l 38.88,-38.88 V 116 H 61.36 L 8,24.48 Z"
   id="e" /><path
   inkscape:connector-curvature="0"
   d="m 96,56 34.65,60 -38.88,68 H 184 V 56 Z"
   id="i" /><path
   inkscape:connector-curvature="0"
   d="M 21.97,8 V 48.34 L 61.36,116 96,56 h 88 V 8 Z"
   id="m" /><clipPath
   id="b-1"><use
     width="100%"
     overflow="visible"
     xlink:href="#a"
     height="100%"
     id="use5-7" /></clipPath><clipPath
   id="clipPath1232-2"><use
     width="100%"
     overflow="visible"
     xlink:href="#a"
     height="100%"
     id="use1230-2" /></clipPath><clipPath
   id="clipPath1236-6"><use
     width="100%"
     overflow="visible"
     xlink:href="#a"
     height="100%"
     id="use1234-1" /></clipPath><clipPath
   id="clipPath1244-1"><use
     width="100%"
     overflow="visible"
     xlink:href="#a"
     height="100%"
     id="use1242-5" /></clipPath><clipPath
   id="clipPath1248-9"><use
     width="100%"
     overflow="visible"
     xlink:href="#a"
     height="100%"
     id="use1246-4" /></clipPath><clipPath
   id="f-9"><use
     y="0"
     x="0"
     style="overflow:visible"
     id="use37-0"
     height="100%"
     xlink:href="#e-8"
     overflow="visible"
     width="100%" /></clipPath><clipPath
   id="clipPath1258-7"><use
     width="100%"
     overflow="visible"
     xlink:href="#a"
     height="100%"
     id="use1256-7" /></clipPath><clipPath
   id="clipPath1269-1"><use
     width="100%"
     overflow="visible"
     xlink:href="#a"
     height="100%"
     id="use1267-1" /></clipPath><clipPath
   id="j-5"><use
     y="0"
     x="0"
     style="overflow:visible"
     id="use62-9"
     height="100%"
     xlink:href="#i-5"
     overflow="visible"
     width="100%" /></clipPath><radialGradient
   id="l-7"
   gradientUnits="userSpaceOnUse"
   cy="55.948"
   cx="668.18"
   gradientTransform="translate(-576)"
   r="84.078"><stop
     stop-color="#3E2723"
     stop-opacity=".2"
     offset="0"
     id="stop73-7" /><stop
     stop-color="#3E2723"
     stop-opacity="0"
     offset="1"
     id="stop75-6" /></radialGradient><clipPath
   id="clipPath1285-7"><use
     width="100%"
     overflow="visible"
     xlink:href="#a"
     height="100%"
     id="use1283-3" /></clipPath><clipPath
   id="clipPath1289-6"><use
     width="100%"
     overflow="visible"
     xlink:href="#a"
     height="100%"
     id="use1287-5" /></clipPath><clipPath
   id="n-6"><use
     y="0"
     x="0"
     style="overflow:visible"
     id="use83-3"
     height="100%"
     xlink:href="#m-6"
     overflow="visible"
     width="100%" /></clipPath><radialGradient
   id="p-9"
   gradientUnits="userSpaceOnUse"
   cy="48.52"
   cx="597.88"
   gradientTransform="translate(-576)"
   r="78.044"><stop
     stop-color="#3E2723"
     stop-opacity=".2"
     offset="0"
     id="stop94-4" /><stop
     stop-color="#3E2723"
     stop-opacity="0"
     offset="1"
     id="stop96-8" /></radialGradient><clipPath
   id="clipPath1305-1"><use
     width="100%"
     overflow="visible"
     xlink:href="#a"
     height="100%"
     id="use1303-2" /></clipPath><radialGradient
   id="q-9"
   gradientUnits="userSpaceOnUse"
   cy="96.138"
   cx="671.84"
   gradientTransform="translate(-576)"
   r="87.87"><stop
     stop-color="#263238"
     stop-opacity=".2"
     offset="0"
     id="stop101-3" /><stop
     stop-color="#263238"
     stop-opacity="0"
     offset="1"
     id="stop103-9" /></radialGradient><clipPath
   id="clipPath1312-0"><use
     width="100%"
     overflow="visible"
     xlink:href="#a"
     height="100%"
     id="use1310-8" /></clipPath><clipPath
   id="clipPath1316-8"><use
     width="100%"
     overflow="visible"
     xlink:href="#a"
     height="100%"
     id="use1314-5" /></clipPath><clipPath
   id="clipPath1320-0"><use
     width="100%"
     overflow="visible"
     xlink:href="#a"
     height="100%"
     id="use1318-9" /></clipPath><clipPath
   id="clipPath1324-6"><use
     width="100%"
     overflow="visible"
     xlink:href="#a"
     height="100%"
     id="use1322-3" /></clipPath><path
   inkscape:connector-curvature="0"
   d="m 8,184 h 83.77 l 38.88,-38.88 V 116 H 61.36 L 8,24.48 Z"
   id="e-8" /><path
   inkscape:connector-curvature="0"
   d="m 96,56 34.65,60 -38.88,68 H 184 V 56 Z"
   id="i-5" /><path
   inkscape:connector-curvature="0"
   d="M 21.97,8 V 48.34 L 61.36,116 96,56 h 88 V 8 Z"
   id="m-6" /><radialGradient
   id="r"
   gradientUnits="userSpaceOnUse"
   cy="32.014"
   cx="34.285999"
   gradientTransform="translate(-23.079613,-106.2699)"
   r="176.75"><stop
     stop-color="#fff"
     stop-opacity=".1"
     offset="0"
     id="stop130" /><stop
     stop-color="#fff"
     stop-opacity="0"
     offset="1"
     id="stop132" /></radialGradient><clipPath
   id="b-0"><use
     y="0"
     x="0"
     style="overflow:visible"
     width="100%"
     overflow="visible"
     xlink:href="#a"
     height="100%"
     id="use5-5" /></clipPath><clipPath
   id="clipPath963"><use
     y="0"
     x="0"
     style="overflow:visible"
     width="100%"
     overflow="visible"
     xlink:href="#a"
     height="100%"
     id="use961" /></clipPath><clipPath
   id="clipPath967"><use
     y="0"
     x="0"
     style="overflow:visible"
     width="100%"
     overflow="visible"
     xlink:href="#a"
     height="100%"
     id="use965" /></clipPath><radialGradient
   id="q-94"
   gradientUnits="userSpaceOnUse"
   cy="96.138"
   cx="671.84003"
   gradientTransform="translate(-576)"
   r="87.870003"><stop
     stop-color="#263238"
     stop-opacity=".2"
     offset="0"
     id="stop101-6" /><stop
     stop-color="#263238"
     stop-opacity="0"
     offset="1"
     id="stop103-92" /></radialGradient><clipPath
   id="clipPath974"><use
     y="0"
     x="0"
     style="overflow:visible"
     width="100%"
     overflow="visible"
     xlink:href="#a"
     height="100%"
     id="use972" /></clipPath><radialGradient
   id="p-2"
   gradientUnits="userSpaceOnUse"
   cy="48.52"
   cx="597.88"
   gradientTransform="translate(-576)"
   r="78.043999"><stop
     stop-color="#3E2723"
     stop-opacity=".2"
     offset="0"
     id="stop94-47" /><stop
     stop-color="#3E2723"
     stop-opacity="0"
     offset="1"
     id="stop96-7" /></radialGradient><clipPath
   id="clipPath981"><use
     y="0"
     x="0"
     style="overflow:visible"
     width="100%"
     overflow="visible"
     xlink:href="#a"
     height="100%"
     id="use979" /></clipPath><clipPath
   id="clipPath985"><use
     y="0"
     x="0"
     style="overflow:visible"
     width="100%"
     overflow="visible"
     xlink:href="#a"
     height="100%"
     id="use983" /></clipPath><clipPath
   id="n-5"><use
     width="100%"
     overflow="visible"
     xlink:href="#m-0"
     height="100%"
     id="use83-4"
     style="overflow:visible"
     x="0"
     y="0" /></clipPath><radialGradient
   id="l-2"
   gradientUnits="userSpaceOnUse"
   cy="55.948002"
   cx="668.17999"
   gradientTransform="translate(-576)"
   r="84.078003"><stop
     stop-color="#3E2723"
     stop-opacity=".2"
     offset="0"
     id="stop73-8" /><stop
     stop-color="#3E2723"
     stop-opacity="0"
     offset="1"
     id="stop75-9" /></radialGradient><clipPath
   id="clipPath997"><use
     y="0"
     x="0"
     style="overflow:visible"
     width="100%"
     overflow="visible"
     xlink:href="#a"
     height="100%"
     id="use995" /></clipPath><clipPath
   id="clipPath1001"><use
     y="0"
     x="0"
     style="overflow:visible"
     width="100%"
     overflow="visible"
     xlink:href="#a"
     height="100%"
     id="use999" /></clipPath><clipPath
   id="j-3"><use
     width="100%"
     overflow="visible"
     xlink:href="#i-1"
     height="100%"
     id="use62-6"
     style="overflow:visible"
     x="0"
     y="0" /></clipPath><clipPath
   id="clipPath1010"><use
     y="0"
     x="0"
     style="overflow:visible"
     width="100%"
     overflow="visible"
     xlink:href="#a"
     height="100%"
     id="use1008" /></clipPath><clipPath
   id="clipPath1017"><use
     y="0"
     x="0"
     style="overflow:visible"
     width="100%"
     overflow="visible"
     xlink:href="#a"
     height="100%"
     id="use1015" /></clipPath><clipPath
   id="f-0"><use
     width="100%"
     overflow="visible"
     xlink:href="#e-1"
     height="100%"
     id="use37-5"
     style="overflow:visible"
     x="0"
     y="0" /></clipPath><clipPath
   id="clipPath1029"><use
     y="0"
     x="0"
     style="overflow:visible"
     width="100%"
     overflow="visible"
     xlink:href="#a"
     height="100%"
     id="use1027" /></clipPath><clipPath
   id="clipPath1033"><use
     y="0"
     x="0"
     style="overflow:visible"
     width="100%"
     overflow="visible"
     xlink:href="#a"
     height="100%"
     id="use1031" /></clipPath><clipPath
   id="clipPath1043"><use
     y="0"
     x="0"
     style="overflow:visible"
     width="100%"
     overflow="visible"
     xlink:href="#a"
     height="100%"
     id="use1041" /></clipPath><clipPath
   id="clipPath1047"><use
     y="0"
     x="0"
     style="overflow:visible"
     width="100%"
     overflow="visible"
     xlink:href="#a"
     height="100%"
     id="use1045" /></clipPath><path
   id="e-1"
   d="m 8,184 h 83.77 l 38.88,-38.88 V 116 H 61.36 L 8,24.48 Z"
   inkscape:connector-curvature="0" /><path
   id="i-1"
   d="m 96,56 34.65,60 -38.88,68 H 184 V 56 Z"
   inkscape:connector-curvature="0" /><path
   id="m-0"
   d="M 21.97,8 V 48.34 L 61.36,116 96,56 h 88 V 8 Z"
   inkscape:connector-curvature="0" /><circle
   r="88"
   cx="96"
   cy="96"
   id="a" /><path
   d="m8 184h83.77l38.88-38.88v-29.12h-69.29l-53.36-91.52z"
   id="e-6" /><path
   d="m96 56l34.65 60-38.88 68h92.23v-128z"
   id="i-2" /><path
   d="m21.97 8v40.34l39.39 67.66 34.64-60h88v-48z"
   id="m-8" /><defs
   id="defs1820"><path
     d="M 21.97,8 V 48.34 L 61.36,116 96,56 h 88 V 8 Z"
     id="path1928"
     inkscape:connector-curvature="0" /></defs><clipPath
   id="n-7"><use
     id="use1822"
     height="100%"
     xlink:href="#m-8"
     overflow="visible"
     width="100%"
     style="overflow:visible"
     x="0"
     y="0" /></clipPath><defs
   id="defs1799"><path
     d="m 96,56 34.65,60 -38.88,68 H 184 V 56 Z"
     id="path1918"
     inkscape:connector-curvature="0" /></defs><clipPath
   id="j-6"><use
     id="use1801"
     height="100%"
     xlink:href="#i-2"
     overflow="visible"
     width="100%"
     style="overflow:visible"
     x="0"
     y="0" /></clipPath><defs
   id="defs1774"><path
     d="m 8,184 h 83.77 l 38.88,-38.88 V 116 H 61.36 L 8,24.48 Z"
     id="path1902"
     inkscape:connector-curvature="0" /></defs><clipPath
   id="f-06"><use
     id="use1776"
     height="100%"
     xlink:href="#e-6"
     overflow="visible"
     width="100%"
     style="overflow:visible"
     x="0"
     y="0" /></clipPath><linearGradient
   x1="110.87"
   x2="52.537998"
   y1="164.5"
   gradientUnits="userSpaceOnUse"
   y2="130.33"
   id="linearGradient1897"><stop
     id="stop1762"
     offset="0"
     stop-opacity=".4"
     stop-color="#055524" /><stop
     id="stop1764"
     offset=".33"
     stop-opacity="0"
     stop-color="#055524" /></linearGradient><linearGradient
   x1="29.337"
   x2="81.836998"
   y1="75.021004"
   gradientUnits="userSpaceOnUse"
   y2="44.354"
   id="linearGradient1889"><stop
     id="stop1749"
     offset="0"
     stop-opacity=".6"
     stop-color="#A52714" /><stop
     id="stop1751"
     offset=".66"
     stop-opacity="0"
     stop-color="#A52714" /></linearGradient><linearGradient
   id="linearGradient1910"
   y2="114.13"
   gradientUnits="userSpaceOnUse"
   y1="49.804001"
   x2="136.55"
   x1="121.86"><stop
     stop-color="#EA6100"
     stop-opacity=".3"
     offset="0"
     id="stop1781" /><stop
     stop-color="#EA6100"
     stop-opacity="0"
     offset=".66"
     id="stop1783" /></linearGradient><clipPath
   id="b-3"><use
     y="0"
     x="0"
     style="overflow:visible"
     width="100%"
     overflow="visible"
     xlink:href="#a"
     height="100%"
     id="use5-1" /></clipPath><clipPath
   id="clipPath1024"><use
     y="0"
     x="0"
     style="overflow:visible"
     width="100%"
     overflow="visible"
     xlink:href="#a"
     height="100%"
     id="use1022" /></clipPath><clipPath
   id="clipPath1028"><use
     y="0"
     x="0"
     style="overflow:visible"
     width="100%"
     overflow="visible"
     xlink:href="#a"
     height="100%"
     id="use1026" /></clipPath><clipPath
   id="clipPath1035"><use
     y="0"
     x="0"
     style="overflow:visible"
     width="100%"
     overflow="visible"
     xlink:href="#a"
     height="100%"
     id="use1033" /></clipPath><clipPath
   id="clipPath1039"><use
     y="0"
     x="0"
     style="overflow:visible"
     width="100%"
     overflow="visible"
     xlink:href="#a"
     height="100%"
     id="use1037" /></clipPath><clipPath
   id="f-6"><use
     y="0"
     x="0"
     style="overflow:visible"
     id="use37-8"
     height="100%"
     xlink:href="#e-61"
     overflow="visible"
     width="100%" /></clipPath><clipPath
   id="clipPath1048"><use
     y="0"
     x="0"
     style="overflow:visible"
     width="100%"
     overflow="visible"
     xlink:href="#a"
     height="100%"
     id="use1046" /></clipPath><clipPath
   id="clipPath1058"><use
     y="0"
     x="0"
     style="overflow:visible"
     width="100%"
     overflow="visible"
     xlink:href="#a"
     height="100%"
     id="use1056" /></clipPath><clipPath
   id="j-66"><use
     y="0"
     x="0"
     style="overflow:visible"
     id="use62-4"
     height="100%"
     xlink:href="#i-59"
     overflow="visible"
     width="100%" /></clipPath><radialGradient
   id="l-9"
   gradientUnits="userSpaceOnUse"
   cy="55.948002"
   cx="668.17999"
   gradientTransform="translate(-576)"
   r="84.078003"><stop
     stop-color="#3E2723"
     stop-opacity=".2"
     offset="0"
     id="stop73-5" /><stop
     stop-color="#3E2723"
     stop-opacity="0"
     offset="1"
     id="stop75-0" /></radialGradient><clipPath
   id="clipPath1073"><use
     y="0"
     x="0"
     style="overflow:visible"
     width="100%"
     overflow="visible"
     xlink:href="#a"
     height="100%"
     id="use1071" /></clipPath><clipPath
   id="clipPath1077"><use
     y="0"
     x="0"
     style="overflow:visible"
     width="100%"
     overflow="visible"
     xlink:href="#a"
     height="100%"
     id="use1075" /></clipPath><clipPath
   id="n-4"><use
     y="0"
     x="0"
     style="overflow:visible"
     id="use83-8"
     height="100%"
     xlink:href="#m-4"
     overflow="visible"
     width="100%" /></clipPath><radialGradient
   id="p-7"
   gradientUnits="userSpaceOnUse"
   cy="48.52"
   cx="597.88"
   gradientTransform="translate(-576)"
   r="78.043999"><stop
     stop-color="#3E2723"
     stop-opacity=".2"
     offset="0"
     id="stop94-1" /><stop
     stop-color="#3E2723"
     stop-opacity="0"
     offset="1"
     id="stop96-72" /></radialGradient><clipPath
   id="clipPath1092"><use
     y="0"
     x="0"
     style="overflow:visible"
     width="100%"
     overflow="visible"
     xlink:href="#a"
     height="100%"
     id="use1090" /></clipPath><radialGradient
   id="q-7"
   gradientUnits="userSpaceOnUse"
   cy="96.138"
   cx="671.84003"
   gradientTransform="translate(-576)"
   r="87.870003"><stop
     stop-color="#263238"
     stop-opacity=".2"
     offset="0"
     id="stop101-2" /><stop
     stop-color="#263238"
     stop-opacity="0"
     offset="1"
     id="stop103-2" /></radialGradient><clipPath
   id="clipPath1099"><use
     y="0"
     x="0"
     style="overflow:visible"
     width="100%"
     overflow="visible"
     xlink:href="#a"
     height="100%"
     id="use1097" /></clipPath><clipPath
   id="clipPath1103"><use
     y="0"
     x="0"
     style="overflow:visible"
     width="100%"
     overflow="visible"
     xlink:href="#a"
     height="100%"
     id="use1101" /></clipPath><clipPath
   id="clipPath1107"><use
     y="0"
     x="0"
     style="overflow:visible"
     width="100%"
     overflow="visible"
     xlink:href="#a"
     height="100%"
     id="use1105" /></clipPath><clipPath
   id="clipPath1111"><use
     y="0"
     x="0"
     style="overflow:visible"
     width="100%"
     overflow="visible"
     xlink:href="#a"
     height="100%"
     id="use1109" /></clipPath><radialGradient
   id="r-6"
   gradientUnits="userSpaceOnUse"
   cy="32.014"
   cx="34.285999"
   gradientTransform="translate(-7,-7)"
   r="176.75"><stop
     stop-color="#fff"
     stop-opacity=".1"
     offset="0"
     id="stop130-1" /><stop
     stop-color="#fff"
     stop-opacity="0"
     offset="1"
     id="stop132-0" /></radialGradient><path
   inkscape:connector-curvature="0"
   d="m 8,184 h 83.77 l 38.88,-38.88 V 116 H 61.36 L 8,24.48 Z"
   id="e-61" /><path
   inkscape:connector-curvature="0"
   d="m 96,56 34.65,60 -38.88,68 H 184 V 56 Z"
   id="i-59" /><path
   inkscape:connector-curvature="0"
   d="M 21.97,8 V 48.34 L 61.36,116 96,56 h 88 V 8 Z"
   id="m-4" /><clipPath
   id="b-9"><use
     y="0"
     x="0"
     style="overflow:visible"
     width="100%"
     overflow="visible"
     xlink:href="#a"
     height="100%"
     id="use5-0" /></clipPath><clipPath
   id="clipPath1024-7"><use
     y="0"
     x="0"
     style="overflow:visible"
     width="100%"
     overflow="visible"
     xlink:href="#a"
     height="100%"
     id="use1022-7" /></clipPath><clipPath
   id="clipPath1028-1"><use
     y="0"
     x="0"
     style="overflow:visible"
     width="100%"
     overflow="visible"
     xlink:href="#a"
     height="100%"
     id="use1026-1" /></clipPath><clipPath
   id="clipPath1035-7"><use
     y="0"
     x="0"
     style="overflow:visible"
     width="100%"
     overflow="visible"
     xlink:href="#a"
     height="100%"
     id="use1033-7" /></clipPath><clipPath
   id="clipPath1039-6"><use
     y="0"
     x="0"
     style="overflow:visible"
     width="100%"
     overflow="visible"
     xlink:href="#a"
     height="100%"
     id="use1037-7" /></clipPath><clipPath
   id="f-3"><use
     y="0"
     x="0"
     style="overflow:visible"
     id="use37-6"
     height="100%"
     xlink:href="#e-9"
     overflow="visible"
     width="100%" /></clipPath><clipPath
   id="clipPath1048-3"><use
     y="0"
     x="0"
     style="overflow:visible"
     width="100%"
     overflow="visible"
     xlink:href="#a"
     height="100%"
     id="use1046-9" /></clipPath><clipPath
   id="clipPath1058-4"><use
     y="0"
     x="0"
     style="overflow:visible"
     width="100%"
     overflow="visible"
     xlink:href="#a"
     height="100%"
     id="use1056-8" /></clipPath><clipPath
   id="j-1"><use
     y="0"
     x="0"
     style="overflow:visible"
     id="use62-2"
     height="100%"
     xlink:href="#i-6"
     overflow="visible"
     width="100%" /></clipPath><radialGradient
   id="l-93"
   gradientUnits="userSpaceOnUse"
   cy="55.948002"
   cx="668.17999"
   gradientTransform="translate(-576)"
   r="84.078003"><stop
     stop-color="#3E2723"
     stop-opacity=".2"
     offset="0"
     id="stop73-9" /><stop
     stop-color="#3E2723"
     stop-opacity="0"
     offset="1"
     id="stop75-08" /></radialGradient><clipPath
   id="clipPath1073-8"><use
     y="0"
     x="0"
     style="overflow:visible"
     width="100%"
     overflow="visible"
     xlink:href="#a"
     height="100%"
     id="use1071-5" /></clipPath><clipPath
   id="clipPath1077-0"><use
     y="0"
     x="0"
     style="overflow:visible"
     width="100%"
     overflow="visible"
     xlink:href="#a"
     height="100%"
     id="use1075-9" /></clipPath><clipPath
   id="n-63"><use
     y="0"
     x="0"
     style="overflow:visible"
     id="use83-85"
     height="100%"
     xlink:href="#m-2"
     overflow="visible"
     width="100%" /></clipPath><radialGradient
   id="p-6"
   gradientUnits="userSpaceOnUse"
   cy="48.52"
   cx="597.88"
   gradientTransform="translate(-576)"
   r="78.043999"><stop
     stop-color="#3E2723"
     stop-opacity=".2"
     offset="0"
     id="stop94-11" /><stop
     stop-color="#3E2723"
     stop-opacity="0"
     offset="1"
     id="stop96-5" /></radialGradient><clipPath
   id="clipPath1092-9"><use
     y="0"
     x="0"
     style="overflow:visible"
     width="100%"
     overflow="visible"
     xlink:href="#a"
     height="100%"
     id="use1090-8" /></clipPath><radialGradient
   id="q-4"
   gradientUnits="userSpaceOnUse"
   cy="96.138"
   cx="671.84003"
   gradientTransform="translate(-576)"
   r="87.870003"><stop
     stop-color="#263238"
     stop-opacity=".2"
     offset="0"
     id="stop101-8" /><stop
     stop-color="#263238"
     stop-opacity="0"
     offset="1"
     id="stop103-1" /></radialGradient><clipPath
   id="clipPath1099-0"><use
     y="0"
     x="0"
     style="overflow:visible"
     width="100%"
     overflow="visible"
     xlink:href="#a"
     height="100%"
     id="use1097-3" /></clipPath><clipPath
   id="clipPath1103-0"><use
     y="0"
     x="0"
     style="overflow:visible"
     width="100%"
     overflow="visible"
     xlink:href="#a"
     height="100%"
     id="use1101-4" /></clipPath><clipPath
   id="clipPath1107-4"><use
     y="0"
     x="0"
     style="overflow:visible"
     width="100%"
     overflow="visible"
     xlink:href="#a"
     height="100%"
     id="use1105-4" /></clipPath><clipPath
   id="clipPath1111-4"><use
     y="0"
     x="0"
     style="overflow:visible"
     width="100%"
     overflow="visible"
     xlink:href="#a"
     height="100%"
     id="use1109-7" /></clipPath><radialGradient
   id="r-63"
   gradientUnits="userSpaceOnUse"
   cy="32.014"
   cx="34.285999"
   gradientTransform="translate(-7,-7)"
   r="176.75"><stop
     stop-color="#fff"
     stop-opacity=".1"
     offset="0"
     id="stop130-17" /><stop
     stop-color="#fff"
     stop-opacity="0"
     offset="1"
     id="stop132-5" /></radialGradient><path
   inkscape:connector-curvature="0"
   d="m 8,184 h 83.77 l 38.88,-38.88 V 116 H 61.36 L 8,24.48 Z"
   id="e-9" /><path
   inkscape:connector-curvature="0"
   d="m 96,56 34.65,60 -38.88,68 H 184 V 56 Z"
   id="i-6" /><path
   inkscape:connector-curvature="0"
   d="M 21.97,8 V 48.34 L 61.36,116 96,56 h 88 V 8 Z"
   id="m-2" /><linearGradient
   id="c-3"
   gradientUnits="userSpaceOnUse"
   x1="117.00134"
   x2="12.00134"
   xlink:href="#b-6"
   y1="128"
   y2="-0.0038660001"
   gradientTransform="matrix(2.5,0,0,2.5,-29.503388,-73.25)" /><linearGradient
   id="b-6"><stop
     offset="0"
     stop-color="#535353"
     id="stop3" /><stop
     offset="1"
     stop-color="#7e7e7e"
     id="stop5" /></linearGradient><linearGradient
   id="a-7"
   gradientUnits="userSpaceOnUse"
   x1="117.00134"
   x2="12.00134"
   xlink:href="#b-6"
   y1="128"
   y2="-0.082061999"
   gradientTransform="matrix(2.5,0,0,2.5,-29.503388,-73.25)" /></defs><sodipodi:namedview
   pagecolor="#ffffff"
   bordercolor="#666666"
   borderopacity="1"
   objecttolerance="10"
   gridtolerance="10"
   guidetolerance="10"
   inkscape:pageopacity="0"
   inkscape:pageshadow="2"
   inkscape:window-width="1885"
   inkscape:window-height="1536"
   id="namedview249"
   showgrid="false"
   inkscape:zoom="1.4142136"
   inkscape:cx="79.651544"
   inkscape:cy="222.02807"
   inkscape:window-x="70"
   inkscape:window-y="27"
   inkscape:window-maximized="0"
   inkscape:current-layer="layer4"
   inkscape:pagecheckerboard="true" />

<g
   inkscape:groupmode="layer"
   id="layer3"
   inkscape:label="Squircle-Background"
   style="display:none"><rect
     style="display:none;fill:#626262;fill-opacity:1;stroke-width:1.41822851"
     id="rect1101"
     width="248"
     height="248"
     x="3.9999988"
     y="3.9999988"
     ry="25.455845" /></g><g
   inkscape:groupmode="layer"
   id="layer4"
   inkscape:label="Squircle-Shadow"
   style="display:none"><path
     style="display:none;opacity:0.5;fill:#17171d;fill-opacity:0.39215686;stroke-width:1.41822851"
     d="m 4,216.54492 v 10 C 4,240.64746 15.35254,252 29.45508,252 H 226.54492 C 240.64746,252 252,240.64746 252,226.54492 v -10 C 252,230.64746 240.64746,242 226.54492,242 H 29.45508 C 15.35254,242 4,230.64746 4,216.54492 Z"
     id="rect1101-3"
     inkscape:connector-curvature="0" /></g><g
   inkscape:groupmode="layer"
   id="layer2"
   inkscape:label="Circle-Background"
   style="display:none"><circle
     style="display:none;fill:#626262;fill-opacity:1;stroke:none;stroke-width:2.74049902;stroke-miterlimit:4;stroke-dasharray:none;stroke-opacity:1"
     id="path1090"
     cx="128"
     cy="128"
     r="124" /></g><g
   inkscape:groupmode="layer"
   id="layer6"
   inkscape:label="Circle-Shadow"
   style="display:none"
   sodipodi:insensitive="true"><g
     id="g2548"
     style="display:inline"
     transform="translate(-2.960187,1.58543)"><path
       d="m 256.36019,128.41457 c 0,-33.900005 -13.5,-64.500005 -35.4,-86.900002 -0.4,-0.3 -0.7,-0.7 -1.1,-1 21.3,22.299997 34.5,52.599997 34.5,86.000002 0,68.5 -55.2,124 -123.4,124 -32.900003,0 -62.900003,-13 -85.000003,-34.1 0.3,0.3 0.6,0.6 0.9,0.9 22.2,21.7 52.6,35.1 86.000003,35.1 68.2,0 123.5,-55.5 123.5,-124 z"
       id="path238"
       inkscape:connector-curvature="0"
       style="display:inline;opacity:0.1" /><path
       d="m 219.86019,40.414568 c -0.7,-0.6 -1.4,-1.3 -2,-1.9 -0.7,-0.6 -1.4,-1.2 -2.1,-1.9 19.1,21.799997 30.7,50.499997 30.7,81.800002 0,68.5 -55.2,124 -123.4,124 -30.900003,0 -59.200003,-11.4 -80.900003,-30.3 0.6,0.7 1.2,1.4 1.9,2.1 0.6,0.7 1.3,1.4 1.9,2 22.1,21.1 52.1,34.1 85.000003,34.1 68.2,0 123.4,-55.5 123.4,-124 0,-33.300005 -13.1,-63.600005 -34.5,-85.900002 z"
       id="path240"
       inkscape:connector-curvature="0"
       style="display:inline;opacity:0.2" /><path
       d="m 220.96019,41.514568 c 21.9,22.399997 35.4,53.099997 35.4,86.900002 0,68.5 -55.2,124 -123.4,124 -33.500003,0 -63.800003,-13.4 -86.000003,-35.1 22.4,22.9 53.600003,37.1 88.000003,37.1 68.2,0 123.4,-55.5 123.4,-124 -0.1,-34.900005 -14.4,-66.400005 -37.4,-88.900002 z"
       id="path236"
       inkscape:connector-curvature="0"
       style="display:inline;opacity:0.05" /></g></g><g
   inkscape:groupmode="layer"
   id="layer1"
   inkscape:label="Icon"
   style="display:inline"><rect
     style="fill:#fcede4;stroke-width:2.5"
     height="100"
     rx="1.2704926"
     width="155"
     x="50.499969"
     y="61.75"
     id="rect19" /><path
     style="opacity:0.6;fill:#ffffff;stroke-width:2.5"
     inkscape:connector-curvature="0"
     d="m 48,59.25 v 102.5 35 h 160 v -35 -102.5 z m 7.495125,5 H 200.49512 c 1.385,0 2.5,1.115 2.5,2.5 v 90 c 0,1.385 -1.115,2.5 -2.5,2.5 H 55.495124 c -1.385,0 -2.5,-1.115 -2.5,-2.5 v -90 c 0,-1.385 1.115,-2.5 2.500001,-2.5 z m -2.5,102.5 H 202.99512 v 25 H 52.995124 Z"
     id="path21" /><path
     style="fill:#f09e6f;stroke-width:2.5"
     inkscape:connector-curvature="0"
     d="m 60.499999,66.75 v 2.5 h -2.5 v 2.5 h 2.5 v 2.5 h 2.749025 v -2.5 h 2.250975 v -2.5 h -2.250975 v -2.5 z m 65.000001,0 v 2.5 H 118 v 2.5 h 7.5 v 2.5 h 2.74902 v -2.5 H 135.5 v -2.5 h -7.25098 v -2.5 z m 65,0 v 2.5 H 188 v 2.5 h 2.5 v 2.5 h 2.74902 v -2.5 H 195.5 v -2.5 h -2.25098 v -2.5 z m -122.500001,2.5 v 2.5 h 7.5 v -2.5 z m 10,0 v 2.5 h 7.5 v -2.5 z m 10,0 v 2.5 h 7.5 v -2.5 z m 10,0 v 2.5 H 105.5 v -2.5 z M 108,69.25 v 2.5 h 7.5 v -2.5 z m 30,0 v 2.5 h 7.5 v -2.5 z m 10,0 v 2.5 h 7.5 v -2.5 z m 10,0 v 2.5 h 7.5 v -2.5 z m 10,0 v 2.5 h 7.5 v -2.5 z m 10,0 v 2.5 h 7.5 v -2.5 z m -117.500001,7.5 v 7.5 h 2.749025 v -7.5 z m 65.000001,0 v 7.5 h 2.74902 v -7.5 z m 65,0 v 7.5 h 2.74902 v -7.5 z m -130.000001,10 v 7.5 h 2.749025 v -7.5 z m 65.000001,0 v 7.5 h 2.74902 v -7.5 z m 65,0 v 7.5 h 2.74902 v -7.5 z m -132.500001,10 v 2.5 h 2.5 v 5 h 2.749025 v -5 h 2.250975 v -2.5 h -2.250975 -2.749025 z m 10,0 v 2.5 h 7.5 v -2.5 z m 10,0 v 2.5 h 7.5 v -2.5 z m 10,0 v 2.5 h 7.5 v -2.5 z m 10,0 v 2.5 H 105.5 v -2.5 z M 108,96.75 v 2.5 h 7.5 v -2.5 z m 10,0 v 2.5 h 7.5 v 5 h 2.74902 v -5 H 135.5 v -2.5 h -7.25098 -0.249 -2.5 -7.5 z m 20,0 v 2.5 h 7.5 v -2.5 z m 10,0 v 2.5 h 7.5 v -2.5 z m 10,0 v 2.5 h 7.5 v -2.5 z m 10,0 v 2.5 h 7.5 v -2.5 z m 10,0 v 2.5 h 7.5 v -2.5 z m 10,0 v 2.5 h 2.5 v 5 h 2.74902 v -5 H 195.5 v -2.5 H 193.24902 190.5 Z m -127.500001,10 v 7.5 h 2.749025 v -7.5 z m 65.000001,0 v 7.5 h 2.74902 v -7.5 z m 65,0 v 7.5 h 2.74902 v -7.5 z m -130.000001,10 v 7.5 h 2.749025 v -7.5 z m 65.000001,0 v 7.5 h 2.74902 v -7.5 z m 65,0 v 7.5 h 2.74902 v -7.5 z m -130.000001,10 v 7.5 h 2.749025 v -7.5 z m 65.000001,0 v 7.5 h 2.74902 v -7.5 z m 65,0 v 7.5 h 2.74902 v -7.5 z m -130.000001,10 v 7.5 h 2.749025 v -7.5 z m 65.000001,0 v 7.5 h 2.74902 v -7.5 z m 65,0 v 7.5 h 2.74902 v -7.5 z m -130.000001,10 v 2.5 h -2.5 v 2.5 h 2.5 v 2.5 h 2.749025 v -2.5 h 2.250975 v -2.5 h -2.250975 v -2.5 z m 65.000001,0 v 2.5 H 118 v 2.5 h 7.5 v 2.5 h 2.74902 v -2.5 H 135.5 v -2.5 h -7.25098 v -2.5 z m 65,0 v 2.5 H 188 v 2.5 h 2.5 v 2.5 h 2.74902 v -2.5 H 195.5 v -2.5 h -2.25098 v -2.5 z m -122.500001,2.5 v 2.5 h 7.5 v -2.5 z m 10,0 v 2.5 h 7.5 v -2.5 z m 10,0 v 2.5 h 7.5 v -2.5 z m 10,0 v 2.5 H 105.5 v -2.5 z M 108,149.25 v 2.5 h 7.5 v -2.5 z m 30,0 v 2.5 h 7.5 v -2.5 z m 10,0 v 2.5 h 7.5 v -2.5 z m 10,0 v 2.5 h 7.5 v -2.5 z m 10,0 v 2.5 h 7.5 v -2.5 z m 10,0 v 2.5 h 7.5 v -2.5 z"
     id="path23" /><path
     style="fill:#626262;fill-opacity:1;stroke-width:2.5"
     d="M 117.99022,69.23047 91.413074,131.81836 75.6709,102.02344 l -15.13185,5.58105 2.69045,9.08692 7.290025,-3.70606 18.7256,38.74512 H 93.6836 l 30.57617,-72.5 h 61.2744 v 5 h 7.50488 v -15 h -75.04393 z"
     id="path1141"
     inkscape:connector-curvature="0" /><path
     style="fill:#626262;fill-opacity:1;stroke-width:2.5"
     d="m 126.667,96.75 24.1748,26.81641 v 0.34179 L 125.89062,151.75 h 12.40235 l 19.35548,-20.71777 h 0.38572 l 21.2793,20.71777 h 13.43263 l -27.3877,-28.2959 v -0.3418 L 190.93945,96.75 H 178.5371 l -20.24413,19.12598 h -0.38575 L 140.1045,96.75 Z"
     id="path1139"
     inkscape:connector-curvature="0" /><path
     id="path25"
     style="fill:#ffffff;stroke-width:2.5"
     d="m 102.9121,175.7148 c 0.94875,0 1.66345,0.39201 2.14845,1.17674 0.49325,0.77751 0.7373,1.92288 0.7373,3.44238 0,1.51925 -0.245,2.6723 -0.7373,3.45705 -0.485,0.7775 -1.1997,1.16697 -2.14845,1.16697 -0.94875,0 -1.66805,-0.38947 -2.1533,-1.16697 -0.47675,-0.7775 -0.71778,-1.93055 -0.71778,-3.45705 0,-1.52675 0.24,-2.67465 0.71778,-3.45215 0.48525,-0.77747 1.20455,-1.16697 2.1533,-1.16697 z m 48.16407,-1.42578 4.292,5.7373 -4.71192,6.25 h 2.28027 l 3.50098,-4.8047 3.50585,4.8047 h 2.28027 l -4.70702,-6.25 4.292,-5.7373 h -2.2168 l -3.1543,4.33592 -3.1787,-4.33592 z m -31.76757,-0.0537 c -0.9345,0 -1.74688,0.22709 -2.43165,0.68359 -0.67775,0.44925 -1.18078,1.09948 -1.50878,1.94826 v -2.34377 h -1.97755 v 11.98242 h 1.97755 v -5.95702 c 0,-1.455 0.3273,-2.56935 0.97655,-3.33986 0.64903,-0.77048 1.58548,-1.15234 2.8125,-1.15234 0.52075,0 1.00055,0.0746 1.43555,0.2246 0.43525,0.15 0.8634,0.38463 1.28418,0.71289 v -2.00683 c -0.38525,-0.257 -0.79018,-0.44879 -1.21093,-0.57129 -0.421,-0.1225 -0.8724,-0.18068 -1.35742,-0.18068 z m -16.709,-0.19043 c -1.44103,0 -2.57578,0.55969 -3.4033,1.67969 -0.827501,1.11999 -1.24025,2.67031 -1.24025,4.65331 0,1.94725 0.41275,3.4771 1.24025,4.58986 0.83452,1.10549 1.96952,1.66014 3.4033,1.66014 0.7205,0 1.35252,-0.15975 1.89455,-0.47362 0.5495,-0.32075 0.9827,-0.7752 1.3037,-1.3672 v 6.08888 h 1.98242 v -16.54297 h -1.98242 v 1.52832 c -0.32825,-0.592 -0.76423,-1.04116 -1.31348,-1.34766 -0.54227,-0.3135 -1.17152,-0.46875 -1.88477,-0.46875 z m -12.5537,-0.0488 c -1.441026,0 -2.54745,0.31464 -3.325201,0.94239 -0.777525,0.6205 -1.167,1.50286 -1.167,2.65137 0,0.906 0.2605,1.62532 0.78125,2.15332 0.520775,0.5205 1.346226,0.89078 2.480476,1.11328 l 0.737299,0.1465 0.088,0.0292 c 1.7475,0.34975 2.622075,0.97665 2.622075,1.88965 0,0.63475 -0.23975,1.13275 -0.717775,1.48925 -0.478,0.34925 -1.15125,0.52247 -2.021475,0.52247 -0.5993,0 -1.2387,-0.0933 -1.9092,-0.27832 -0.670501,-0.19275 -1.369726,-0.4765 -2.104476,-0.8545 v 2.03615 c 0.756251,0.2495 1.455226,0.42925 2.104476,0.55175 0.649,0.1275 1.272975,0.19525 1.86525,0.19525 1.498,0 2.668975,-0.33258 3.510725,-0.99608 0.84175,-0.6705 1.259775,-1.599 1.259775,-2.7832 0,-0.89152 -0.250576,-1.61662 -0.756825,-2.17287 -0.499501,-0.5565 -1.239525,-0.92343 -2.2168,-1.10838 l -0.791025,-0.1515 c -1.305525,-0.24975 -2.123175,-0.5075 -2.451175,-0.7715 -0.32725,-0.264 -0.49315,-0.66127 -0.49315,-1.19627 0,-0.592 0.219,-1.03311 0.654275,-1.31836 0.442275,-0.29125 1.110475,-0.43946 2.001975,-0.43946 0.59225,0 1.172375,0.084 1.74315,0.24903 0.5705,0.164 1.135725,0.40905 1.699225,0.7373 v -1.92382 -0.005 C 93.069,174.46829 92.488825,174.29144 91.896575,174.17644 91.30455,174.05394 90.688,173.99577 90.046,173.99577 Z m 38.19335,-2.79785 v 3.40332 h -3.20313 v 1.53321 h 3.20313 v 6.5039 c 0,1.44801 0.30192,2.46953 0.9082,3.06153 0.6065,0.592 1.64847,0.88867 3.125,0.88867 h 2.40725 v -1.57715 h -2.2168 c -0.83453,0 -1.4177,-0.173 -1.75295,-0.52247 -0.33525,-0.34975 -0.50293,-0.96608 -0.50293,-1.85058 v -6.5039 h 4.47268 v -1.53321 h -4.47268 v -3.40332 z m 36.91895,-2.19726 v 1.52832 h 0.72755 c 1.00602,2.5e-4 1.66102,0.15962 1.96777,0.47363 0.3075,0.31375 0.45898,0.97154 0.45898,1.97754 v 2.65136 c 0,1.11999 0.1625,1.93492 0.4834,2.44142 0.328,0.5065 0.88517,0.84788 1.66992,1.02538 -0.79175,0.1925 -1.34892,0.5433 -1.66992,1.04982 -0.3215,0.50647 -0.4834,1.31888 -0.4834,2.43163 v 2.65137 c 0,1.00575 -0.15225,1.66378 -0.45898,1.97752 -0.30675,0.31325 -0.96175,0.47366 -1.96777,0.47366 h -0.72755 v 1.53807 h 0.66407 c 1.77603,0 2.9603,-0.263 3.55955,-0.791 0.59928,-0.52778 0.89845,-1.5778 0.89845,-3.1543 v -2.5586 c 0,-1.077 0.193,-1.82257 0.57128,-2.23632 0.385,-0.413 1.07922,-0.62013 2.08497,-0.62013 h 0.6836 v -1.52832 h -0.6836 c -1.00575,0 -1.69995,-0.20376 -2.08497,-0.61036 -0.37723,-0.40674 -0.57128,-1.14679 -0.57128,-2.21679 v -2.56836 c 0,-1.57625 -0.29917,-2.62378 -0.89845,-3.14453 -0.59925,-0.52775 -1.78352,-0.79101 -3.55955,-0.79101 z m -17.417,0 c -1.77628,0 -2.96308,0.26326 -3.56933,0.79101 -0.59927,0.52075 -0.90357,1.56828 -0.90332,3.14453 v 2.56836 c -2.5e-4,1.07 -0.1885,1.81005 -0.5664,2.21679 -0.378,0.40725 -1.06945,0.61036 -2.0752,0.61036 h -0.66405 v 1.52832 h 0.66405 c 0.99875,0 1.68742,0.20625 2.06542,0.62013 0.3855,0.41374 0.57593,1.15932 0.57618,2.23632 v 2.5586 c -2.5e-4,1.5765 0.30405,2.6265 0.90332,3.1543 0.60625,0.52797 1.79305,0.791 3.56933,0.791 h 0.6885 v -1.53807 h -0.75198 c -0.99877,0 -1.6515,-0.15226 -1.958,-0.459 -0.2995,-0.30676 -0.44922,-0.97218 -0.44922,-1.99218 v -2.65137 c 0,-1.11275 -0.1575,-1.92513 -0.4785,-2.43163 -0.321,-0.50653 -0.87818,-0.85732 -1.66993,-1.04982 0.78475,-0.17825 1.33428,-0.51888 1.65528,-1.02538 0.32725,-0.5065 0.49315,-1.32143 0.49315,-2.44142 v -2.65136 c 0,-1.013 0.1495,-1.67079 0.44922,-1.97754 0.3065,-0.3135 0.95925,-0.47338 1.958,-0.47363 h 0.75198 v -1.52832 z"
     inkscape:connector-curvature="0" /></g></svg>