<?xml version="1.0" encoding="UTF-8" standalone="no"?>
<!-- Generator: Adobe Illustrator 21.0.2, SVG Export Plug-In . SVG Version: 6.00 Build 0)  -->

<svg
   xmlns:dc="http://purl.org/dc/elements/1.1/"
   xmlns:cc="http://creativecommons.org/ns#"
   xmlns:rdf="http://www.w3.org/1999/02/22-rdf-syntax-ns#"
   xmlns:svg="http://www.w3.org/2000/svg"
   xmlns="http://www.w3.org/2000/svg"
   xmlns:xlink="http://www.w3.org/1999/xlink"
   xmlns:sodipodi="http://sodipodi.sourceforge.net/DTD/sodipodi-0.dtd"
   xmlns:inkscape="http://www.inkscape.org/namespaces/inkscape"
   version="1.1"
   id="Layer_1"
   x="0px"
   y="0px"
   viewBox="0 0 256 256"
   enable-background="new 0 0 256 256"
   xml:space="preserve"
   sodipodi:docname="software-properties.svg"
   inkscape:version="0.92.3 (2405546, 2018-03-11)"
   inkscape:label="Shadow"><metadata
   id="metadata253"><rdf:RDF><cc:Work
       rdf:about=""><dc:format>image/svg+xml</dc:format><dc:type
         rdf:resource="http://purl.org/dc/dcmitype/StillImage" /><dc:title /></cc:Work></rdf:RDF></metadata><defs
   id="defs251">
	
	
<clipPath
   id="b"><use
     width="100%"
     overflow="visible"
     xlink:href="#a"
     height="100%"
     id="use5" /></clipPath><linearGradient
   x1="29.337"
   x2="81.836998"
   y1="75.021004"
   gradientUnits="userSpaceOnUse"
   y2="44.354"
   id="c"><stop
     id="stop10"
     offset="0"
     stop-opacity=".6"
     stop-color="#A52714" /><stop
     id="stop12"
     offset=".66"
     stop-opacity="0"
     stop-color="#A52714" /></linearGradient><clipPath
   id="clipPath1232"><use
     width="100%"
     overflow="visible"
     xlink:href="#a"
     height="100%"
     id="use1230" /></clipPath><clipPath
   id="clipPath1236"><use
     width="100%"
     overflow="visible"
     xlink:href="#a"
     height="100%"
     id="use1234" /></clipPath><linearGradient
   x1="110.87"
   x2="52.537998"
   y1="164.5"
   gradientUnits="userSpaceOnUse"
   y2="130.33"
   id="d"><stop
     id="stop23"
     offset="0"
     stop-opacity=".4"
     stop-color="#055524" /><stop
     id="stop25"
     offset=".33"
     stop-opacity="0"
     stop-color="#055524" /></linearGradient><clipPath
   id="clipPath1244"><use
     width="100%"
     overflow="visible"
     xlink:href="#a"
     height="100%"
     id="use1242" /></clipPath><clipPath
   id="clipPath1248"><use
     width="100%"
     overflow="visible"
     xlink:href="#a"
     height="100%"
     id="use1246" /></clipPath><clipPath
   id="f"><use
     y="0"
     x="0"
     style="overflow:visible"
     id="use37"
     height="100%"
     xlink:href="#e"
     overflow="visible"
     width="100%" /></clipPath><linearGradient
   x1="121.86"
   x2="136.55"
   y1="49.804001"
   gradientUnits="userSpaceOnUse"
   y2="114.13"
   id="g"><stop
     id="stop42"
     offset="0"
     stop-opacity=".3"
     stop-color="#EA6100" /><stop
     id="stop44"
     offset=".66"
     stop-opacity="0"
     stop-color="#EA6100" /></linearGradient><clipPath
   id="clipPath1258"><use
     width="100%"
     overflow="visible"
     xlink:href="#a"
     height="100%"
     id="use1256" /></clipPath><clipPath
   id="clipPath1269"><use
     width="100%"
     overflow="visible"
     xlink:href="#a"
     height="100%"
     id="use1267" /></clipPath><clipPath
   id="j"><use
     y="0"
     x="0"
     style="overflow:visible"
     id="use62"
     height="100%"
     xlink:href="#i"
     overflow="visible"
     width="100%" /></clipPath><radialGradient
   id="l"
   gradientUnits="userSpaceOnUse"
   cy="55.948"
   cx="668.18"
   gradientTransform="translate(-576)"
   r="84.078"><stop
     stop-color="#3E2723"
     stop-opacity=".2"
     offset="0"
     id="stop73" /><stop
     stop-color="#3E2723"
     stop-opacity="0"
     offset="1"
     id="stop75" /></radialGradient><clipPath
   id="clipPath1285"><use
     width="100%"
     overflow="visible"
     xlink:href="#a"
     height="100%"
     id="use1283" /></clipPath><clipPath
   id="clipPath1289"><use
     width="100%"
     overflow="visible"
     xlink:href="#a"
     height="100%"
     id="use1287" /></clipPath><clipPath
   id="n"><use
     y="0"
     x="0"
     style="overflow:visible"
     id="use83"
     height="100%"
     xlink:href="#m"
     overflow="visible"
     width="100%" /></clipPath><radialGradient
   id="p"
   gradientUnits="userSpaceOnUse"
   cy="48.52"
   cx="597.88"
   gradientTransform="translate(-576)"
   r="78.044"><stop
     stop-color="#3E2723"
     stop-opacity=".2"
     offset="0"
     id="stop94" /><stop
     stop-color="#3E2723"
     stop-opacity="0"
     offset="1"
     id="stop96" /></radialGradient><clipPath
   id="clipPath1305"><use
     width="100%"
     overflow="visible"
     xlink:href="#a"
     height="100%"
     id="use1303" /></clipPath><radialGradient
   id="q"
   gradientUnits="userSpaceOnUse"
   cy="96.138"
   cx="671.84"
   gradientTransform="translate(-576)"
   r="87.87"><stop
     stop-color="#263238"
     stop-opacity=".2"
     offset="0"
     id="stop101" /><stop
     stop-color="#263238"
     stop-opacity="0"
     offset="1"
     id="stop103" /></radialGradient><clipPath
   id="clipPath1312"><use
     width="100%"
     overflow="visible"
     xlink:href="#a"
     height="100%"
     id="use1310" /></clipPath><clipPath
   id="clipPath1316"><use
     width="100%"
     overflow="visible"
     xlink:href="#a"
     height="100%"
     id="use1314" /></clipPath><clipPath
   id="clipPath1320"><use
     width="100%"
     overflow="visible"
     xlink:href="#a"
     height="100%"
     id="use1318" /></clipPath><clipPath
   id="clipPath1324"><use
     width="100%"
     overflow="visible"
     xlink:href="#a"
     height="100%"
     id="use1322" /></clipPath><path
   inkscape:connector-curvature="0"
   d="m 8,184 h 83.77 l 38.88,-38.88 V 116 H 61.36 L 8,24.48 Z"
   id="e" /><path
   inkscape:connector-curvature="0"
   d="m 96,56 34.65,60 -38.88,68 H 184 V 56 Z"
   id="i" /><path
   inkscape:connector-curvature="0"
   d="M 21.97,8 V 48.34 L 61.36,116 96,56 h 88 V 8 Z"
   id="m" /><clipPath
   id="b-1"><use
     width="100%"
     overflow="visible"
     xlink:href="#a"
     height="100%"
     id="use5-7" /></clipPath><clipPath
   id="clipPath1232-2"><use
     width="100%"
     overflow="visible"
     xlink:href="#a"
     height="100%"
     id="use1230-2" /></clipPath><clipPath
   id="clipPath1236-6"><use
     width="100%"
     overflow="visible"
     xlink:href="#a"
     height="100%"
     id="use1234-1" /></clipPath><clipPath
   id="clipPath1244-1"><use
     width="100%"
     overflow="visible"
     xlink:href="#a"
     height="100%"
     id="use1242-5" /></clipPath><clipPath
   id="clipPath1248-9"><use
     width="100%"
     overflow="visible"
     xlink:href="#a"
     height="100%"
     id="use1246-4" /></clipPath><clipPath
   id="f-9"><use
     y="0"
     x="0"
     style="overflow:visible"
     id="use37-0"
     height="100%"
     xlink:href="#e-8"
     overflow="visible"
     width="100%" /></clipPath><clipPath
   id="clipPath1258-7"><use
     width="100%"
     overflow="visible"
     xlink:href="#a"
     height="100%"
     id="use1256-7" /></clipPath><clipPath
   id="clipPath1269-1"><use
     width="100%"
     overflow="visible"
     xlink:href="#a"
     height="100%"
     id="use1267-1" /></clipPath><clipPath
   id="j-5"><use
     y="0"
     x="0"
     style="overflow:visible"
     id="use62-9"
     height="100%"
     xlink:href="#i-5"
     overflow="visible"
     width="100%" /></clipPath><radialGradient
   id="l-7"
   gradientUnits="userSpaceOnUse"
   cy="55.948"
   cx="668.18"
   gradientTransform="translate(-576)"
   r="84.078"><stop
     stop-color="#3E2723"
     stop-opacity=".2"
     offset="0"
     id="stop73-7" /><stop
     stop-color="#3E2723"
     stop-opacity="0"
     offset="1"
     id="stop75-6" /></radialGradient><clipPath
   id="clipPath1285-7"><use
     width="100%"
     overflow="visible"
     xlink:href="#a"
     height="100%"
     id="use1283-3" /></clipPath><clipPath
   id="clipPath1289-6"><use
     width="100%"
     overflow="visible"
     xlink:href="#a"
     height="100%"
     id="use1287-5" /></clipPath><clipPath
   id="n-6"><use
     y="0"
     x="0"
     style="overflow:visible"
     id="use83-3"
     height="100%"
     xlink:href="#m-6"
     overflow="visible"
     width="100%" /></clipPath><radialGradient
   id="p-9"
   gradientUnits="userSpaceOnUse"
   cy="48.52"
   cx="597.88"
   gradientTransform="translate(-576)"
   r="78.044"><stop
     stop-color="#3E2723"
     stop-opacity=".2"
     offset="0"
     id="stop94-4" /><stop
     stop-color="#3E2723"
     stop-opacity="0"
     offset="1"
     id="stop96-8" /></radialGradient><clipPath
   id="clipPath1305-1"><use
     width="100%"
     overflow="visible"
     xlink:href="#a"
     height="100%"
     id="use1303-2" /></clipPath><radialGradient
   id="q-9"
   gradientUnits="userSpaceOnUse"
   cy="96.138"
   cx="671.84"
   gradientTransform="translate(-576)"
   r="87.87"><stop
     stop-color="#263238"
     stop-opacity=".2"
     offset="0"
     id="stop101-3" /><stop
     stop-color="#263238"
     stop-opacity="0"
     offset="1"
     id="stop103-9" /></radialGradient><clipPath
   id="clipPath1312-0"><use
     width="100%"
     overflow="visible"
     xlink:href="#a"
     height="100%"
     id="use1310-8" /></clipPath><clipPath
   id="clipPath1316-8"><use
     width="100%"
     overflow="visible"
     xlink:href="#a"
     height="100%"
     id="use1314-5" /></clipPath><clipPath
   id="clipPath1320-0"><use
     width="100%"
     overflow="visible"
     xlink:href="#a"
     height="100%"
     id="use1318-9" /></clipPath><clipPath
   id="clipPath1324-6"><use
     width="100%"
     overflow="visible"
     xlink:href="#a"
     height="100%"
     id="use1322-3" /></clipPath><path
   inkscape:connector-curvature="0"
   d="m 8,184 h 83.77 l 38.88,-38.88 V 116 H 61.36 L 8,24.48 Z"
   id="e-8" /><path
   inkscape:connector-curvature="0"
   d="m 96,56 34.65,60 -38.88,68 H 184 V 56 Z"
   id="i-5" /><path
   inkscape:connector-curvature="0"
   d="M 21.97,8 V 48.34 L 61.36,116 96,56 h 88 V 8 Z"
   id="m-6" /><radialGradient
   id="r"
   gradientUnits="userSpaceOnUse"
   cy="32.014"
   cx="34.285999"
   gradientTransform="translate(-23.079613,-106.2699)"
   r="176.75"><stop
     stop-color="#fff"
     stop-opacity=".1"
     offset="0"
     id="stop130" /><stop
     stop-color="#fff"
     stop-opacity="0"
     offset="1"
     id="stop132" /></radialGradient><clipPath
   id="b-0"><use
     y="0"
     x="0"
     style="overflow:visible"
     width="100%"
     overflow="visible"
     xlink:href="#a"
     height="100%"
     id="use5-5" /></clipPath><clipPath
   id="clipPath963"><use
     y="0"
     x="0"
     style="overflow:visible"
     width="100%"
     overflow="visible"
     xlink:href="#a"
     height="100%"
     id="use961" /></clipPath><clipPath
   id="clipPath967"><use
     y="0"
     x="0"
     style="overflow:visible"
     width="100%"
     overflow="visible"
     xlink:href="#a"
     height="100%"
     id="use965" /></clipPath><radialGradient
   id="q-94"
   gradientUnits="userSpaceOnUse"
   cy="96.138"
   cx="671.84003"
   gradientTransform="translate(-576)"
   r="87.870003"><stop
     stop-color="#263238"
     stop-opacity=".2"
     offset="0"
     id="stop101-6" /><stop
     stop-color="#263238"
     stop-opacity="0"
     offset="1"
     id="stop103-92" /></radialGradient><clipPath
   id="clipPath974"><use
     y="0"
     x="0"
     style="overflow:visible"
     width="100%"
     overflow="visible"
     xlink:href="#a"
     height="100%"
     id="use972" /></clipPath><radialGradient
   id="p-2"
   gradientUnits="userSpaceOnUse"
   cy="48.52"
   cx="597.88"
   gradientTransform="translate(-576)"
   r="78.043999"><stop
     stop-color="#3E2723"
     stop-opacity=".2"
     offset="0"
     id="stop94-47" /><stop
     stop-color="#3E2723"
     stop-opacity="0"
     offset="1"
     id="stop96-7" /></radialGradient><clipPath
   id="clipPath981"><use
     y="0"
     x="0"
     style="overflow:visible"
     width="100%"
     overflow="visible"
     xlink:href="#a"
     height="100%"
     id="use979" /></clipPath><clipPath
   id="clipPath985"><use
     y="0"
     x="0"
     style="overflow:visible"
     width="100%"
     overflow="visible"
     xlink:href="#a"
     height="100%"
     id="use983" /></clipPath><clipPath
   id="n-5"><use
     width="100%"
     overflow="visible"
     xlink:href="#m-0"
     height="100%"
     id="use83-4"
     style="overflow:visible"
     x="0"
     y="0" /></clipPath><radialGradient
   id="l-2"
   gradientUnits="userSpaceOnUse"
   cy="55.948002"
   cx="668.17999"
   gradientTransform="translate(-576)"
   r="84.078003"><stop
     stop-color="#3E2723"
     stop-opacity=".2"
     offset="0"
     id="stop73-8" /><stop
     stop-color="#3E2723"
     stop-opacity="0"
     offset="1"
     id="stop75-9" /></radialGradient><clipPath
   id="clipPath997"><use
     y="0"
     x="0"
     style="overflow:visible"
     width="100%"
     overflow="visible"
     xlink:href="#a"
     height="100%"
     id="use995" /></clipPath><clipPath
   id="clipPath1001"><use
     y="0"
     x="0"
     style="overflow:visible"
     width="100%"
     overflow="visible"
     xlink:href="#a"
     height="100%"
     id="use999" /></clipPath><clipPath
   id="j-3"><use
     width="100%"
     overflow="visible"
     xlink:href="#i-1"
     height="100%"
     id="use62-6"
     style="overflow:visible"
     x="0"
     y="0" /></clipPath><clipPath
   id="clipPath1010"><use
     y="0"
     x="0"
     style="overflow:visible"
     width="100%"
     overflow="visible"
     xlink:href="#a"
     height="100%"
     id="use1008" /></clipPath><clipPath
   id="clipPath1017"><use
     y="0"
     x="0"
     style="overflow:visible"
     width="100%"
     overflow="visible"
     xlink:href="#a"
     height="100%"
     id="use1015" /></clipPath><clipPath
   id="f-0"><use
     width="100%"
     overflow="visible"
     xlink:href="#e-1"
     height="100%"
     id="use37-5"
     style="overflow:visible"
     x="0"
     y="0" /></clipPath><clipPath
   id="clipPath1029"><use
     y="0"
     x="0"
     style="overflow:visible"
     width="100%"
     overflow="visible"
     xlink:href="#a"
     height="100%"
     id="use1027" /></clipPath><clipPath
   id="clipPath1033"><use
     y="0"
     x="0"
     style="overflow:visible"
     width="100%"
     overflow="visible"
     xlink:href="#a"
     height="100%"
     id="use1031" /></clipPath><clipPath
   id="clipPath1043"><use
     y="0"
     x="0"
     style="overflow:visible"
     width="100%"
     overflow="visible"
     xlink:href="#a"
     height="100%"
     id="use1041" /></clipPath><clipPath
   id="clipPath1047"><use
     y="0"
     x="0"
     style="overflow:visible"
     width="100%"
     overflow="visible"
     xlink:href="#a"
     height="100%"
     id="use1045" /></clipPath><path
   id="e-1"
   d="m 8,184 h 83.77 l 38.88,-38.88 V 116 H 61.36 L 8,24.48 Z"
   inkscape:connector-curvature="0" /><path
   id="i-1"
   d="m 96,56 34.65,60 -38.88,68 H 184 V 56 Z"
   inkscape:connector-curvature="0" /><path
   id="m-0"
   d="M 21.97,8 V 48.34 L 61.36,116 96,56 h 88 V 8 Z"
   inkscape:connector-curvature="0" /><circle
   r="88"
   cx="96"
   cy="96"
   id="a" /><path
   d="m8 184h83.77l38.88-38.88v-29.12h-69.29l-53.36-91.52z"
   id="e-6" /><path
   d="m96 56l34.65 60-38.88 68h92.23v-128z"
   id="i-2" /><path
   d="m21.97 8v40.34l39.39 67.66 34.64-60h88v-48z"
   id="m-8" /><defs
   id="defs1820"><path
     d="M 21.97,8 V 48.34 L 61.36,116 96,56 h 88 V 8 Z"
     id="path1928"
     inkscape:connector-curvature="0" /></defs><clipPath
   id="n-7"><use
     id="use1822"
     height="100%"
     xlink:href="#m-8"
     overflow="visible"
     width="100%"
     style="overflow:visible"
     x="0"
     y="0" /></clipPath><defs
   id="defs1799"><path
     d="m 96,56 34.65,60 -38.88,68 H 184 V 56 Z"
     id="path1918"
     inkscape:connector-curvature="0" /></defs><clipPath
   id="j-6"><use
     id="use1801"
     height="100%"
     xlink:href="#i-2"
     overflow="visible"
     width="100%"
     style="overflow:visible"
     x="0"
     y="0" /></clipPath><defs
   id="defs1774"><path
     d="m 8,184 h 83.77 l 38.88,-38.88 V 116 H 61.36 L 8,24.48 Z"
     id="path1902"
     inkscape:connector-curvature="0" /></defs><clipPath
   id="f-06"><use
     id="use1776"
     height="100%"
     xlink:href="#e-6"
     overflow="visible"
     width="100%"
     style="overflow:visible"
     x="0"
     y="0" /></clipPath><linearGradient
   x1="110.87"
   x2="52.537998"
   y1="164.5"
   gradientUnits="userSpaceOnUse"
   y2="130.33"
   id="linearGradient1897"><stop
     id="stop1762"
     offset="0"
     stop-opacity=".4"
     stop-color="#055524" /><stop
     id="stop1764"
     offset=".33"
     stop-opacity="0"
     stop-color="#055524" /></linearGradient><linearGradient
   x1="29.337"
   x2="81.836998"
   y1="75.021004"
   gradientUnits="userSpaceOnUse"
   y2="44.354"
   id="linearGradient1889"><stop
     id="stop1749"
     offset="0"
     stop-opacity=".6"
     stop-color="#A52714" /><stop
     id="stop1751"
     offset=".66"
     stop-opacity="0"
     stop-color="#A52714" /></linearGradient><linearGradient
   id="linearGradient1910"
   y2="114.13"
   gradientUnits="userSpaceOnUse"
   y1="49.804001"
   x2="136.55"
   x1="121.86"><stop
     stop-color="#EA6100"
     stop-opacity=".3"
     offset="0"
     id="stop1781" /><stop
     stop-color="#EA6100"
     stop-opacity="0"
     offset=".66"
     id="stop1783" /></linearGradient><clipPath
   id="b-3"><use
     y="0"
     x="0"
     style="overflow:visible"
     width="100%"
     overflow="visible"
     xlink:href="#a"
     height="100%"
     id="use5-1" /></clipPath><clipPath
   id="clipPath1024"><use
     y="0"
     x="0"
     style="overflow:visible"
     width="100%"
     overflow="visible"
     xlink:href="#a"
     height="100%"
     id="use1022" /></clipPath><clipPath
   id="clipPath1028"><use
     y="0"
     x="0"
     style="overflow:visible"
     width="100%"
     overflow="visible"
     xlink:href="#a"
     height="100%"
     id="use1026" /></clipPath><clipPath
   id="clipPath1035"><use
     y="0"
     x="0"
     style="overflow:visible"
     width="100%"
     overflow="visible"
     xlink:href="#a"
     height="100%"
     id="use1033" /></clipPath><clipPath
   id="clipPath1039"><use
     y="0"
     x="0"
     style="overflow:visible"
     width="100%"
     overflow="visible"
     xlink:href="#a"
     height="100%"
     id="use1037" /></clipPath><clipPath
   id="f-6"><use
     y="0"
     x="0"
     style="overflow:visible"
     id="use37-8"
     height="100%"
     xlink:href="#e-61"
     overflow="visible"
     width="100%" /></clipPath><clipPath
   id="clipPath1048"><use
     y="0"
     x="0"
     style="overflow:visible"
     width="100%"
     overflow="visible"
     xlink:href="#a"
     height="100%"
     id="use1046" /></clipPath><clipPath
   id="clipPath1058"><use
     y="0"
     x="0"
     style="overflow:visible"
     width="100%"
     overflow="visible"
     xlink:href="#a"
     height="100%"
     id="use1056" /></clipPath><clipPath
   id="j-66"><use
     y="0"
     x="0"
     style="overflow:visible"
     id="use62-4"
     height="100%"
     xlink:href="#i-59"
     overflow="visible"
     width="100%" /></clipPath><radialGradient
   id="l-9"
   gradientUnits="userSpaceOnUse"
   cy="55.948002"
   cx="668.17999"
   gradientTransform="translate(-576)"
   r="84.078003"><stop
     stop-color="#3E2723"
     stop-opacity=".2"
     offset="0"
     id="stop73-5" /><stop
     stop-color="#3E2723"
     stop-opacity="0"
     offset="1"
     id="stop75-0" /></radialGradient><clipPath
   id="clipPath1073"><use
     y="0"
     x="0"
     style="overflow:visible"
     width="100%"
     overflow="visible"
     xlink:href="#a"
     height="100%"
     id="use1071" /></clipPath><clipPath
   id="clipPath1077"><use
     y="0"
     x="0"
     style="overflow:visible"
     width="100%"
     overflow="visible"
     xlink:href="#a"
     height="100%"
     id="use1075" /></clipPath><clipPath
   id="n-4"><use
     y="0"
     x="0"
     style="overflow:visible"
     id="use83-8"
     height="100%"
     xlink:href="#m-4"
     overflow="visible"
     width="100%" /></clipPath><radialGradient
   id="p-7"
   gradientUnits="userSpaceOnUse"
   cy="48.52"
   cx="597.88"
   gradientTransform="translate(-576)"
   r="78.043999"><stop
     stop-color="#3E2723"
     stop-opacity=".2"
     offset="0"
     id="stop94-1" /><stop
     stop-color="#3E2723"
     stop-opacity="0"
     offset="1"
     id="stop96-72" /></radialGradient><clipPath
   id="clipPath1092"><use
     y="0"
     x="0"
     style="overflow:visible"
     width="100%"
     overflow="visible"
     xlink:href="#a"
     height="100%"
     id="use1090" /></clipPath><radialGradient
   id="q-7"
   gradientUnits="userSpaceOnUse"
   cy="96.138"
   cx="671.84003"
   gradientTransform="translate(-576)"
   r="87.870003"><stop
     stop-color="#263238"
     stop-opacity=".2"
     offset="0"
     id="stop101-2" /><stop
     stop-color="#263238"
     stop-opacity="0"
     offset="1"
     id="stop103-2" /></radialGradient><clipPath
   id="clipPath1099"><use
     y="0"
     x="0"
     style="overflow:visible"
     width="100%"
     overflow="visible"
     xlink:href="#a"
     height="100%"
     id="use1097" /></clipPath><clipPath
   id="clipPath1103"><use
     y="0"
     x="0"
     style="overflow:visible"
     width="100%"
     overflow="visible"
     xlink:href="#a"
     height="100%"
     id="use1101" /></clipPath><clipPath
   id="clipPath1107"><use
     y="0"
     x="0"
     style="overflow:visible"
     width="100%"
     overflow="visible"
     xlink:href="#a"
     height="100%"
     id="use1105" /></clipPath><clipPath
   id="clipPath1111"><use
     y="0"
     x="0"
     style="overflow:visible"
     width="100%"
     overflow="visible"
     xlink:href="#a"
     height="100%"
     id="use1109" /></clipPath><radialGradient
   id="r-6"
   gradientUnits="userSpaceOnUse"
   cy="32.014"
   cx="34.285999"
   gradientTransform="translate(-7,-7)"
   r="176.75"><stop
     stop-color="#fff"
     stop-opacity=".1"
     offset="0"
     id="stop130-1" /><stop
     stop-color="#fff"
     stop-opacity="0"
     offset="1"
     id="stop132-0" /></radialGradient><path
   inkscape:connector-curvature="0"
   d="m 8,184 h 83.77 l 38.88,-38.88 V 116 H 61.36 L 8,24.48 Z"
   id="e-61" /><path
   inkscape:connector-curvature="0"
   d="m 96,56 34.65,60 -38.88,68 H 184 V 56 Z"
   id="i-59" /><path
   inkscape:connector-curvature="0"
   d="M 21.97,8 V 48.34 L 61.36,116 96,56 h 88 V 8 Z"
   id="m-4" /><clipPath
   id="b-9"><use
     y="0"
     x="0"
     style="overflow:visible"
     width="100%"
     overflow="visible"
     xlink:href="#a"
     height="100%"
     id="use5-0" /></clipPath><clipPath
   id="clipPath1024-7"><use
     y="0"
     x="0"
     style="overflow:visible"
     width="100%"
     overflow="visible"
     xlink:href="#a"
     height="100%"
     id="use1022-7" /></clipPath><clipPath
   id="clipPath1028-1"><use
     y="0"
     x="0"
     style="overflow:visible"
     width="100%"
     overflow="visible"
     xlink:href="#a"
     height="100%"
     id="use1026-1" /></clipPath><clipPath
   id="clipPath1035-7"><use
     y="0"
     x="0"
     style="overflow:visible"
     width="100%"
     overflow="visible"
     xlink:href="#a"
     height="100%"
     id="use1033-7" /></clipPath><clipPath
   id="clipPath1039-6"><use
     y="0"
     x="0"
     style="overflow:visible"
     width="100%"
     overflow="visible"
     xlink:href="#a"
     height="100%"
     id="use1037-7" /></clipPath><clipPath
   id="f-3"><use
     y="0"
     x="0"
     style="overflow:visible"
     id="use37-6"
     height="100%"
     xlink:href="#e-9"
     overflow="visible"
     width="100%" /></clipPath><clipPath
   id="clipPath1048-3"><use
     y="0"
     x="0"
     style="overflow:visible"
     width="100%"
     overflow="visible"
     xlink:href="#a"
     height="100%"
     id="use1046-9" /></clipPath><clipPath
   id="clipPath1058-4"><use
     y="0"
     x="0"
     style="overflow:visible"
     width="100%"
     overflow="visible"
     xlink:href="#a"
     height="100%"
     id="use1056-8" /></clipPath><clipPath
   id="j-1"><use
     y="0"
     x="0"
     style="overflow:visible"
     id="use62-2"
     height="100%"
     xlink:href="#i-6"
     overflow="visible"
     width="100%" /></clipPath><radialGradient
   id="l-93"
   gradientUnits="userSpaceOnUse"
   cy="55.948002"
   cx="668.17999"
   gradientTransform="translate(-576)"
   r="84.078003"><stop
     stop-color="#3E2723"
     stop-opacity=".2"
     offset="0"
     id="stop73-9" /><stop
     stop-color="#3E2723"
     stop-opacity="0"
     offset="1"
     id="stop75-08" /></radialGradient><clipPath
   id="clipPath1073-8"><use
     y="0"
     x="0"
     style="overflow:visible"
     width="100%"
     overflow="visible"
     xlink:href="#a"
     height="100%"
     id="use1071-5" /></clipPath><clipPath
   id="clipPath1077-0"><use
     y="0"
     x="0"
     style="overflow:visible"
     width="100%"
     overflow="visible"
     xlink:href="#a"
     height="100%"
     id="use1075-9" /></clipPath><clipPath
   id="n-63"><use
     y="0"
     x="0"
     style="overflow:visible"
     id="use83-85"
     height="100%"
     xlink:href="#m-2"
     overflow="visible"
     width="100%" /></clipPath><radialGradient
   id="p-6"
   gradientUnits="userSpaceOnUse"
   cy="48.52"
   cx="597.88"
   gradientTransform="translate(-576)"
   r="78.043999"><stop
     stop-color="#3E2723"
     stop-opacity=".2"
     offset="0"
     id="stop94-11" /><stop
     stop-color="#3E2723"
     stop-opacity="0"
     offset="1"
     id="stop96-5" /></radialGradient><clipPath
   id="clipPath1092-9"><use
     y="0"
     x="0"
     style="overflow:visible"
     width="100%"
     overflow="visible"
     xlink:href="#a"
     height="100%"
     id="use1090-8" /></clipPath><radialGradient
   id="q-4"
   gradientUnits="userSpaceOnUse"
   cy="96.138"
   cx="671.84003"
   gradientTransform="translate(-576)"
   r="87.870003"><stop
     stop-color="#263238"
     stop-opacity=".2"
     offset="0"
     id="stop101-8" /><stop
     stop-color="#263238"
     stop-opacity="0"
     offset="1"
     id="stop103-1" /></radialGradient><clipPath
   id="clipPath1099-0"><use
     y="0"
     x="0"
     style="overflow:visible"
     width="100%"
     overflow="visible"
     xlink:href="#a"
     height="100%"
     id="use1097-3" /></clipPath><clipPath
   id="clipPath1103-0"><use
     y="0"
     x="0"
     style="overflow:visible"
     width="100%"
     overflow="visible"
     xlink:href="#a"
     height="100%"
     id="use1101-4" /></clipPath><clipPath
   id="clipPath1107-4"><use
     y="0"
     x="0"
     style="overflow:visible"
     width="100%"
     overflow="visible"
     xlink:href="#a"
     height="100%"
     id="use1105-4" /></clipPath><clipPath
   id="clipPath1111-4"><use
     y="0"
     x="0"
     style="overflow:visible"
     width="100%"
     overflow="visible"
     xlink:href="#a"
     height="100%"
     id="use1109-7" /></clipPath><radialGradient
   id="r-63"
   gradientUnits="userSpaceOnUse"
   cy="32.014"
   cx="34.285999"
   gradientTransform="translate(-7,-7)"
   r="176.75"><stop
     stop-color="#fff"
     stop-opacity=".1"
     offset="0"
     id="stop130-17" /><stop
     stop-color="#fff"
     stop-opacity="0"
     offset="1"
     id="stop132-5" /></radialGradient><path
   inkscape:connector-curvature="0"
   d="m 8,184 h 83.77 l 38.88,-38.88 V 116 H 61.36 L 8,24.48 Z"
   id="e-9" /><path
   inkscape:connector-curvature="0"
   d="m 96,56 34.65,60 -38.88,68 H 184 V 56 Z"
   id="i-6" /><path
   inkscape:connector-curvature="0"
   d="M 21.97,8 V 48.34 L 61.36,116 96,56 h 88 V 8 Z"
   id="m-2" /><radialGradient
   cx="5"
   cy="41.5"
   r="5"
   fx="5"
   fy="41.5"
   id="radialGradient3940"
   xlink:href="#linearGradient3681"
   gradientUnits="userSpaceOnUse"
   gradientTransform="matrix(0.5938225,0,0,1.5366531,-6.6594735,-103.93618)" /><linearGradient
   id="linearGradient3681"><stop
     id="stop3683"
     style="stop-color:#000000;stop-opacity:1"
     offset="0" /><stop
     id="stop3685"
     style="stop-color:#000000;stop-opacity:0"
     offset="1" /></linearGradient><linearGradient
   x1="17.554192"
   y1="46.000275"
   x2="17.554192"
   y2="34.999718"
   id="linearGradient3942"
   xlink:href="#linearGradient3703"
   gradientUnits="userSpaceOnUse"
   gradientTransform="matrix(1.7570316,0,0,1.3969574,-17.394014,-16.411698)" /><linearGradient
   id="linearGradient3703"><stop
     id="stop3705"
     style="stop-color:#000000;stop-opacity:0"
     offset="0" /><stop
     id="stop3711"
     style="stop-color:#000000;stop-opacity:1"
     offset="0.5" /><stop
     id="stop3707"
     style="stop-color:#000000;stop-opacity:0"
     offset="1" /></linearGradient><radialGradient
   cx="5"
   cy="41.5"
   r="5"
   fx="5"
   fy="41.5"
   id="radialGradient3944"
   xlink:href="#linearGradient3681"
   gradientUnits="userSpaceOnUse"
   gradientTransform="matrix(0.5938225,0,0,1.5366531,41.140892,-103.93618)" /><linearGradient
   x1="24.822832"
   y1="15.377745"
   x2="24.996943"
   y2="37.27668"
   id="linearGradient3972"
   xlink:href="#linearGradient3199"
   gradientUnits="userSpaceOnUse"
   gradientTransform="matrix(1.7199799,0,0,2.0691988,-8.336229,-19.947272)" /><linearGradient
   id="linearGradient3199"><stop
     id="stop3201"
     style="stop-color:#dac197;stop-opacity:1"
     offset="0" /><stop
     id="stop3203"
     style="stop-color:#c1a581;stop-opacity:1"
     offset="0.23942046" /><stop
     id="stop3205"
     style="stop-color:#dac197;stop-opacity:1"
     offset="0.27582464" /><stop
     id="stop3207"
     style="stop-color:#a68b60;stop-opacity:1"
     offset="1" /></linearGradient><linearGradient
   x1="15.464298"
   y1="7.9756851"
   x2="15.464298"
   y2="45.04248"
   id="linearGradient3974"
   xlink:href="#linearGradient3295"
   gradientUnits="userSpaceOnUse"
   gradientTransform="matrix(1.3414025,0,0,1.3287417,-0.1936585,0.370193)" /><linearGradient
   id="linearGradient3295"><stop
     id="stop3297"
     style="stop-color:#c9af8b;stop-opacity:1"
     offset="0" /><stop
     id="stop3299"
     style="stop-color:#ad8757;stop-opacity:1"
     offset="0.23942046" /><stop
     id="stop3301"
     style="stop-color:#c2a57f;stop-opacity:1"
     offset="0.27582464" /><stop
     id="stop3303"
     style="stop-color:#9d7d53;stop-opacity:1"
     offset="1" /></linearGradient><radialGradient
   cx="24"
   cy="31"
   r="20"
   fx="24"
   fy="31"
   id="radialGradient3969"
   xlink:href="#linearGradient3219"
   gradientUnits="userSpaceOnUse"
   gradientTransform="matrix(2.2339043,0,0,0.875,-21.613703,14.374997)" /><linearGradient
   id="linearGradient3219"><stop
     id="stop3225"
     style="stop-color:#cbad7a;stop-opacity:1"
     offset="0" /><stop
     id="stop3227"
     style="stop-color:#cbae7d;stop-opacity:0"
     offset="1" /></linearGradient><linearGradient
   x1="23.451576"
   y1="30.554907"
   x2="43.00663"
   y2="45.934479"
   id="linearGradient3966"
   xlink:href="#linearGradient4559"
   gradientUnits="userSpaceOnUse"
   gradientTransform="matrix(1.7199799,0,0,1.5608559,-8.336229,-6.6763471)" /><linearGradient
   id="linearGradient4559"><stop
     id="stop4561"
     style="stop-color:#ffffff;stop-opacity:0"
     offset="0" /><stop
     id="stop4563"
     style="stop-color:#ffffff;stop-opacity:0"
     offset="1" /></linearGradient><linearGradient
   x1="44.994774"
   y1="17.5"
   x2="3.0052247"
   y2="17.5"
   id="linearGradient3960"
   xlink:href="#linearGradient3275"
   gradientUnits="userSpaceOnUse"
   gradientTransform="matrix(1.3417982,0,0,1.3287417,-0.2031568,0.247021)"
   spreadMethod="reflect" /><linearGradient
   id="linearGradient3275"><stop
     id="stop3277"
     style="stop-color:#ffffff;stop-opacity:0"
     offset="0" /><stop
     id="stop3283"
     style="stop-color:#ffffff;stop-opacity:1"
     offset="0.16682135" /><stop
     id="stop3285"
     style="stop-color:#ffffff;stop-opacity:1"
     offset="0.83237511" /><stop
     id="stop3279"
     style="stop-color:#ffffff;stop-opacity:0"
     offset="1" /></linearGradient><linearGradient
   x1="26"
   y1="22"
   x2="26"
   y2="8"
   id="linearGradient3963"
   xlink:href="#linearGradient3980"
   gradientUnits="userSpaceOnUse"
   gradientTransform="matrix(1.4999999,0,0,1.3571429,-3.9999994,0.1428574)" /><linearGradient
   id="linearGradient3980"><stop
     id="stop3982"
     style="stop-color:#ffffff;stop-opacity:1"
     offset="0" /><stop
     id="stop3984"
     style="stop-color:#ffffff;stop-opacity:1"
     offset="0.32468599" /><stop
     id="stop3986"
     style="stop-color:#ffffff;stop-opacity:0.6901961"
     offset="0.3736864" /><stop
     id="stop3988"
     style="stop-color:#ffffff;stop-opacity:0"
     offset="1" /></linearGradient><radialGradient
   collect="always"
   xlink:href="#linearGradient8647"
   id="radialGradient5565"
   gradientUnits="userSpaceOnUse"
   gradientTransform="matrix(1.6396161,0,0,1.349992,13.560846,18.4751)"
   cx="12.465816"
   cy="5.3052077"
   fx="12.465816"
   fy="5.3052077"
   r="10.499999" /><linearGradient
   id="linearGradient8647"><stop
     style="stop-color:#8fb1dc;stop-opacity:1;"
     offset="0"
     id="stop8649" /><stop
     style="stop-color:#3465a4;stop-opacity:1;"
     offset="1"
     id="stop8651" /></linearGradient><radialGradient
   collect="always"
   xlink:href="#linearGradient8924"
   id="radialGradient5562"
   gradientUnits="userSpaceOnUse"
   gradientTransform="matrix(0.05079629,1.8806334,-1.3065264,0.03722342,56.991846,-19.739002)"
   cx="24.652573"
   cy="18.94449"
   fx="24.652485"
   fy="18.944481"
   r="8.6174498" /><linearGradient
   id="linearGradient8924"><stop
     id="stop8926"
     offset="0"
     style="stop-color:#cee14b" /><stop
     id="stop8928"
     offset="1"
     style="stop-color:#9db029" /></linearGradient><linearGradient
   y2="-1.9899801"
   x2="59.919094"
   y1="-12.742159"
   x1="63.397362"
   gradientTransform="matrix(1.4292867,0,0,1.429254,-54.902217,39.017879)"
   gradientUnits="userSpaceOnUse"
   id="linearGradient3084"
   xlink:href="#linearGradient4873"
   inkscape:collect="always" /><linearGradient
   id="linearGradient4873"
   collect="always"><stop
     id="stop4875"
     offset="0"
     style="stop-color:#ffffff;stop-opacity:1;" /><stop
     id="stop4877"
     offset="1"
     style="stop-color:#ffffff;stop-opacity:0;" /></linearGradient><radialGradient
   cx="5"
   cy="41.5"
   r="5"
   fx="5"
   fy="41.5"
   id="radialGradient3940-6"
   xlink:href="#linearGradient3681"
   gradientUnits="userSpaceOnUse"
   gradientTransform="matrix(0.5938225,0,0,1.5366531,-6.6594735,-103.93618)" /><radialGradient
   cx="5"
   cy="41.5"
   r="5"
   fx="5"
   fy="41.5"
   id="radialGradient3944-2"
   xlink:href="#linearGradient3681"
   gradientUnits="userSpaceOnUse"
   gradientTransform="matrix(0.5938225,0,0,1.5366531,41.140892,-103.93618)" /><radialGradient
   cx="24"
   cy="31"
   r="20"
   fx="24"
   fy="31"
   id="radialGradient3969-0"
   xlink:href="#linearGradient3219"
   gradientUnits="userSpaceOnUse"
   gradientTransform="matrix(2.2339043,0,0,0.875,-21.613703,14.374997)" /></defs><sodipodi:namedview
   pagecolor="#ffffff"
   bordercolor="#666666"
   borderopacity="1"
   objecttolerance="10"
   gridtolerance="10"
   guidetolerance="10"
   inkscape:pageopacity="0"
   inkscape:pageshadow="2"
   inkscape:window-width="1920"
   inkscape:window-height="1533"
   id="namedview249"
   showgrid="false"
   inkscape:zoom="2"
   inkscape:cx="-37.189967"
   inkscape:cy="24.887461"
   inkscape:window-x="1920"
   inkscape:window-y="27"
   inkscape:window-maximized="0"
   inkscape:current-layer="layer1"
   inkscape:pagecheckerboard="true" />

<g
   inkscape:groupmode="layer"
   id="layer2"
   inkscape:label="Background"><circle
     style="display:inline;fill:#6ec5ff;fill-opacity:1;stroke:none;stroke-width:2.74049902;stroke-miterlimit:4;stroke-dasharray:none;stroke-opacity:1"
     id="path1090"
     cx="128"
     cy="128"
     r="124" /></g><g
   inkscape:groupmode="layer"
   id="layer1"
   inkscape:label="Icon"
   style="display:inline"><g
     id="g1426"
     transform="matrix(2.5806451,0,0,2.5806451,564.12902,-371.35482)"><g
       id="layer1-5"
       transform="translate(-201,156)"><g
         style="display:inline;opacity:0.3"
         id="g3305"
         transform="matrix(1.3379362,0,0,1.3015298,0.02308232,1.7239512)"><rect
           style="opacity:1;fill:url(#radialGradient3940-6);fill-opacity:1;stroke:none;stroke-width:1;stroke-linecap:round;stroke-linejoin:miter;stroke-miterlimit:4;stroke-dasharray:none;stroke-dashoffset:1.20000052;stroke-opacity:1"
           id="rect2484"
           transform="scale(-1)"
           y="-47.848343"
           x="-3.6903627"
           height="15.366531"
           width="2.9601951" /><rect
           style="opacity:1;fill:url(#linearGradient3942);fill-opacity:1;stroke:none;stroke-width:1;stroke-linecap:round;stroke-linejoin:miter;stroke-miterlimit:4;stroke-dasharray:none;stroke-dashoffset:1.20000052;stroke-opacity:1"
           id="rect2486"
           y="32.481812"
           x="3.6903627"
           height="15.366531"
           width="40.41172" /><rect
           style="display:inline;opacity:1;fill:url(#radialGradient3944-2);fill-opacity:1;stroke:none;stroke-width:1;stroke-linecap:round;stroke-linejoin:miter;stroke-miterlimit:4;stroke-dasharray:none;stroke-dashoffset:1.20000052;stroke-opacity:1"
           id="rect3444"
           transform="scale(1,-1)"
           y="-47.848343"
           x="44.110001"
           height="15.366531"
           width="2.9601951" /></g><path
         style="display:block;overflow:visible;visibility:visible;fill:url(#linearGradient3972);fill-opacity:1;fill-rule:nonzero;stroke:url(#linearGradient3974);stroke-width:0.99420083;stroke-linecap:round;stroke-linejoin:miter;stroke-miterlimit:4;stroke-dasharray:none;stroke-dashoffset:0;stroke-opacity:1;marker:none;marker-start:none;marker-mid:none;marker-end:none"
         id="path2488"
         d="M 11.893351,11.664497 H 51.46167 c 2.309875,0 3.349377,-0.380751 4.012876,1.328741 l 4.026533,10.629934 V 57.73717 c 0,2.063939 0.138071,1.748592 -2.171815,1.748592 H 6.6707391 c -2.3098849,0 -2.1718158,0.315347 -2.1718158,-1.748592 V 23.623172 L 8.5254578,12.993238 c 0.6449886,-1.674961 1.0580077,-1.328741 3.3678932,-1.328741 z"
         inkscape:connector-curvature="0" /><rect
         style="display:inline;overflow:visible;visibility:visible;fill:url(#radialGradient3969-0);fill-opacity:1;fill-rule:evenodd;stroke:none;stroke-width:1.69999993;stroke-linecap:round;stroke-linejoin:miter;stroke-miterlimit:4;stroke-dasharray:none;stroke-dashoffset:0;stroke-opacity:1;marker:none;marker-start:none;marker-mid:none;marker-end:none;enable-background:accumulate"
         id="rect3209"
         y="24"
         x="5"
         height="35"
         width="54" /><path
         style="display:block;overflow:visible;visibility:visible;opacity:0.50549454;fill:none;fill-opacity:1;fill-rule:nonzero;stroke:url(#linearGradient3966);stroke-width:0.74211526;stroke-linecap:butt;stroke-linejoin:miter;stroke-miterlimit:4;stroke-dasharray:none;stroke-dashoffset:0;stroke-opacity:1;marker:none;marker-start:none;marker-mid:none;marker-end:none"
         id="path2490"
         d="m 13.150874,13.010441 h 37.093631 c 2.165417,0 3.505595,0.739493 4.412572,2.771792 l 3.124047,8.530151 v 30.753138 c 0,1.940862 -1.098286,2.91803 -3.263708,2.91803 H 9.2676127 c -2.1654173,0 -3.0487076,-1.074722 -3.0487076,-3.015585 V 24.312384 l 3.0232676,-8.713038 c 0.6046535,-1.57508 1.7432793,-2.588905 3.9087013,-2.588905 z"
         inkscape:connector-curvature="0" /><path
         style="display:inline;opacity:0.3;fill:none;fill-rule:evenodd;stroke:url(#linearGradient3960);stroke-width:0.99999994px;stroke-linecap:square;stroke-linejoin:miter;stroke-opacity:1"
         id="path3273"
         d="M 4.5001475,23.5 H 59.499853"
         inkscape:connector-curvature="0" /><path
         style="display:inline;overflow:visible;visibility:visible;opacity:0.4;fill:url(#linearGradient3963);fill-opacity:1;fill-rule:nonzero;stroke:none;stroke-width:1;stroke-linecap:square;stroke-linejoin:round;stroke-miterlimit:4;stroke-dasharray:none;stroke-dashoffset:0;stroke-opacity:1;marker:none;marker-start:none;marker-mid:none;marker-end:none;enable-background:accumulate"
         id="rect3326"
         d="m 29,11 c 1.999999,0 4.000001,0 6,0 0,6.333333 0,12.666666 0,19 -0.590593,0 -1.181187,0 -1.77178,0 -0.604688,0 -1.209376,0 -1.814063,0 -0.486794,0 -0.973585,0 -1.460377,0 -0.317927,0 -0.635854,0 -0.95378,0 0,-6.333334 0,-12.666667 0,-19 z"
         inkscape:connector-curvature="0" /></g><g
       id="g6811"
       transform="matrix(1.188001,0,0,1.188001,-195.85403,161.06996)"><path
         style="fill:url(#radialGradient5565);fill-opacity:1;stroke:#204a87;stroke-width:0.841833;stroke-linecap:round;stroke-linejoin:round;stroke-miterlimit:4;stroke-dasharray:none;stroke-dashoffset:0;stroke-opacity:1"
         d="m 33.989397,20.50005 c -7.450694,0 -13.489348,6.038648 -13.489348,13.489346 0,7.450698 6.038654,13.510556 13.489348,13.510555 7.450695,0 13.510565,-6.059857 13.510552,-13.510555 0,-7.450698 -6.059857,-13.489346 -13.510552,-13.489346 z"
         id="path2555"
         inkscape:connector-curvature="0" /><path
         id="path6566"
         style="fill:url(#radialGradient5562);fill-opacity:1;fill-rule:nonzero;stroke:none"
         d="m 29.307194,37.292135 -0.386077,-0.785014 -0.723266,-0.167999 -0.385743,-1.064472 -0.964265,0.111792 -0.819519,-0.616061 -0.868407,0.784404 v 0.123717 c -0.262694,-0.07787 -0.585616,-0.0885 -0.819517,-0.236193 l -0.19304,-0.560204 v -0.616746 l -0.578519,0.05586 c 0.04829,-0.392542 0.09619,-0.784404 0.144812,-1.176879 h -0.33785 l -0.337189,0.448409 -0.337849,0.167656 -0.482332,-0.279453 -0.04829,-0.616744 0.09652,-0.672613 0.7236,-0.5602 h 0.578515 l 0.09619,-0.33661 0.723263,0.167655 0.530558,0.673293 0.09652,-1.121698 0.9163,-0.784402 0.337519,-0.840951 0.675039,-0.280068 0.385745,-0.560201 0.867746,-0.168957 0.43437,-0.671925 c -0.434039,0 -0.868077,0 -1.302116,0 l 0.819784,-0.392541 h 0.578187 l 0.820117,-0.280747 0.09652,-0.335318 -0.289558,-0.280749 -0.337518,-0.112409 0.09652,-0.335998 -0.241,-0.50427 -0.578848,0.223524 0.09652,-0.448067 -0.675039,-0.392541 -0.530225,0.952335 0.04796,0.336609 -0.530227,0.224885 -0.337851,0.728473 -0.144478,-0.672608 -0.916304,-0.392542 -0.144816,-0.504272 1.205598,-0.729152 0.530561,-0.504272 0.04829,-0.616406 -0.289228,-0.168338 -0.385745,-0.05621 -0.240995,0.616747 c 0,0 -0.40326,0.08114 -0.506945,0.107435 -1.324137,1.253111 -3.999613,3.958199 -4.621183,9.065006 0.02461,0.118402 0.450555,0.804979 0.450555,0.804979 l 1.012559,0.616064 1.012554,0.280746 0.434372,0.560816 0.674706,0.504267 0.385743,-0.05586 0.289228,0.13373 v 0.09047 l -0.38548,1.064815 -0.289561,0.448403 0.09652,0.224886 -0.241002,0.83959 0.868079,1.625966 0.867741,0.785018 0.386081,0.560197 -0.04856,1.177564 0.28956,0.671929 -0.28956,1.289352 c 0,0 -0.02268,-0.008 0.01427,0.121063 0.03728,0.129098 1.545037,0.988649 1.640891,0.915482 0.09552,-0.07453 0.177184,-0.139728 0.177184,-0.139728 l -0.09619,-0.279455 0.38548,-0.392543 0.144814,-0.392544 0.627076,-0.224885 0.482001,-1.233422 -0.144481,-0.335316 0.336854,-0.504273 0.723596,-0.16895 0.386076,-0.896816 -0.09652,-1.120335 0.578523,-0.840946 0.09651,-0.840951 C 30.877968,38.122254 30.092813,37.707092 29.307061,37.292 M 35.602388,21.466328 34.194838,20.9 l -1.622789,0.188545 -2.003001,0.565948 -0.3788,0.377781 1.244727,0.880346 v 0.503253 l -0.487125,0.503252 0.649946,1.321974 0.431886,-0.252393 0.542367,-0.880345 c 0.836073,-0.265465 1.585709,-0.566331 2.38039,-0.943809 l 0.649949,-1.698303 M 46.9,32.125914 c 0,0.184413 0,0 0,0 l -0.372466,0.43327 C 46.299228,32.28288 46.042896,32.05052 45.782602,31.807843 l -0.57138,0.08635 -0.52203,-0.606032 v 0.750008 l 0.447248,0.347558 0.297686,0.346223 0.397829,-0.462054 c 0.100136,0.192629 0.198911,0.385255 0.298368,0.577885 v 0.577247 l -0.447932,0.519618 -0.819711,0.577879 -0.620805,0.636218 -0.397827,-0.463457 0.198913,-0.519611 -0.397208,-0.462057 -0.670836,-1.472573 -0.571381,-0.663594 -0.149561,0.172762 0.224273,0.837761 0.421888,0.490833 c 0.240953,0.714348 0.479306,1.397109 0.795723,2.079936 0.490651,0 0.953211,-0.05349 1.440514,-0.116531 v 0.404493 l -0.596125,1.501704 -0.546705,0.634813 -0.447249,0.983072 c 0,0.538851 0,1.077702 0,1.616483 l 0.149565,0.636218 -0.248334,0.287957 -0.547389,0.346855 -0.571379,0.490834 0.472607,0.548468 -0.646161,0.578584 0.124132,0.374304 -0.969273,1.127052 h -0.645475 l -0.546708,0.346856 h -0.348473 v -0.462054 l -0.148192,-0.925508 c -0.192286,-0.579988 -0.392497,-1.155837 -0.596126,-1.73168 0,-0.425059 0.02468,-0.845973 0.04942,-1.270963 l 0.249019,-0.577248 -0.348474,-0.69378 0.02536,-0.952886 -0.472607,-0.548471 0.236301,-0.793884 -0.384497,-0.448013 h -0.67152 l -0.223588,-0.259808 -0.670837,0.433622 -0.273008,-0.318427 -0.621485,0.548752 C 35.497283,36.428367 35.074714,35.937532 34.652211,35.4467 l -0.496668,-1.213398 0.447247,-0.692379 -0.248335,-0.28859 0.546022,-1.329295 c 0.448613,-0.573106 0.917186,-1.12291 1.391164,-1.674749 l 0.845071,-0.231028 0.943913,-0.115195 0.646164,0.173465 0.919168,0.952182 0.323115,-0.375003 0.446563,-0.05756 0.845076,0.288588 h 0.64616 L 42.354117,30.479251 42.55303,30.190659 42.105095,29.90207 41.359483,29.8445 c -0.206915,-0.294768 -0.399195,-0.604629 -0.644862,-0.866539 l -0.249018,0.115195 -0.09946,0.751344 -0.447246,-0.519616 -0.09877,-0.578583 -0.496669,-0.403082 H 39.12386 l 0.497283,0.577247 -0.198912,0.519618 -0.397212,0.115198 0.248336,-0.51962 -0.447932,-0.230322 -0.396528,-0.462054 -0.746299,0.17276 -0.09878,0.230324 -0.447242,0.289292 -0.248338,0.635518 -0.6208,0.31737 -0.273693,-0.31737 h -0.297685 v -1.039936 l 0.646157,-0.346855 h 0.496669 l -0.100137,-0.403787 -0.396532,-0.404487 0.670223,-0.144683 0.372468,-0.432567 0.297686,-0.520321 h 0.547384 l -0.149559,-0.403786 0.348474,-0.231027 v 0.462056 l 0.744934,0.172757 0.744933,-0.634813 0.05003,-0.289291 0.645477,-0.4617 c -0.233636,0.02983 -0.467272,0.05174 -0.695578,0.115549 v -0.52025 l 0.248333,-0.577601 h -0.248333 l -0.545746,0.519615 -0.149563,0.288941 0.149563,0.404841 -0.249021,0.692375 -0.397207,-0.231025 -0.347111,-0.403784 -0.547388,0.403784 -0.19891,-0.923754 0.943914,-0.635164 v -0.346855 l 0.596741,-0.404138 0.943912,-0.231378 0.646163,0.231378 1.19218,0.231027 -0.297687,0.346226 h -0.64616 l 0.64616,0.693078 0.496668,-0.577255 0.15086,-0.25398 c 0,0 1.905122,1.753584 2.993882,3.671779 1.08877,1.918835 1.600063,4.18045 1.600063,4.639765 z"
         inkscape:connector-curvature="0" /><path
         style="opacity:0.4;fill:none;stroke:url(#linearGradient3084);stroke-width:0.84204072;stroke-miterlimit:4;stroke-dasharray:none;stroke-opacity:1"
         d="m 46.499829,33.999553 c 0,6.903687 -5.596778,12.500274 -12.499671,12.500274 -6.903524,0 -12.499985,-5.596653 -12.499985,-12.500274 0,-6.903366 5.596461,-12.499381 12.499985,-12.499381 6.902893,0 12.499671,5.596015 12.499671,12.499381 z"
         id="path8655"
         inkscape:connector-curvature="0" /></g></g></g><g
   inkscape:groupmode="layer"
   id="layer6"
   inkscape:label="Shadow"
   style="display:inline"
   sodipodi:insensitive="true"><g
     id="g2548"
     style="display:inline"
     transform="translate(-2.960187,1.58543)"><path
       d="m 256.36019,128.41457 c 0,-33.900005 -13.5,-64.500005 -35.4,-86.900002 -0.4,-0.3 -0.7,-0.7 -1.1,-1 21.3,22.299997 34.5,52.599997 34.5,86.000002 0,68.5 -55.2,124 -123.4,124 -32.900003,0 -62.900003,-13 -85.000003,-34.1 0.3,0.3 0.6,0.6 0.9,0.9 22.2,21.7 52.6,35.1 86.000003,35.1 68.2,0 123.5,-55.5 123.5,-124 z"
       id="path238"
       inkscape:connector-curvature="0"
       style="display:inline;opacity:0.1" /><path
       d="m 219.86019,40.414568 c -0.7,-0.6 -1.4,-1.3 -2,-1.9 -0.7,-0.6 -1.4,-1.2 -2.1,-1.9 19.1,21.799997 30.7,50.499997 30.7,81.800002 0,68.5 -55.2,124 -123.4,124 -30.900003,0 -59.200003,-11.4 -80.900003,-30.3 0.6,0.7 1.2,1.4 1.9,2.1 0.6,0.7 1.3,1.4 1.9,2 22.1,21.1 52.1,34.1 85.000003,34.1 68.2,0 123.4,-55.5 123.4,-124 0,-33.300005 -13.1,-63.600005 -34.5,-85.900002 z"
       id="path240"
       inkscape:connector-curvature="0"
       style="display:inline;opacity:0.2" /><path
       d="m 220.96019,41.514568 c 21.9,22.399997 35.4,53.099997 35.4,86.900002 0,68.5 -55.2,124 -123.4,124 -33.500003,0 -63.800003,-13.4 -86.000003,-35.1 22.4,22.9 53.600003,37.1 88.000003,37.1 68.2,0 123.4,-55.5 123.4,-124 -0.1,-34.900005 -14.4,-66.400005 -37.4,-88.900002 z"
       id="path236"
       inkscape:connector-curvature="0"
       style="display:inline;opacity:0.05" /></g></g></svg>