<?xml version="1.0" encoding="UTF-8" standalone="no"?>
<!-- Generator: Adobe Illustrator 21.0.2, SVG Export Plug-In . SVG Version: 6.00 Build 0)  -->

<svg
   xmlns:dc="http://purl.org/dc/elements/1.1/"
   xmlns:cc="http://creativecommons.org/ns#"
   xmlns:rdf="http://www.w3.org/1999/02/22-rdf-syntax-ns#"
   xmlns:svg="http://www.w3.org/2000/svg"
   xmlns="http://www.w3.org/2000/svg"
   xmlns:xlink="http://www.w3.org/1999/xlink"
   xmlns:sodipodi="http://sodipodi.sourceforge.net/DTD/sodipodi-0.dtd"
   xmlns:inkscape="http://www.inkscape.org/namespaces/inkscape"
   version="1.1"
   id="Layer_1"
   x="0px"
   y="0px"
   viewBox="0 0 256 256"
   enable-background="new 0 0 256 256"
   xml:space="preserve"
   sodipodi:docname="ukuu.svg"
   inkscape:version="0.92.4 (5da689c313, 2019-01-14)"
   inkscape:label="Shadow"><metadata
   id="metadata253"><rdf:RDF><cc:Work
       rdf:about=""><dc:format>image/svg+xml</dc:format><dc:type
         rdf:resource="http://purl.org/dc/dcmitype/StillImage" /><dc:title /></cc:Work></rdf:RDF></metadata><defs
   id="defs251">
	
	
<clipPath
   id="b"><use
     width="100%"
     overflow="visible"
     xlink:href="#a"
     height="100%"
     id="use5" /></clipPath><linearGradient
   x1="29.337"
   x2="81.836998"
   y1="75.021004"
   gradientUnits="userSpaceOnUse"
   y2="44.354"
   id="c"><stop
     id="stop10"
     offset="0"
     stop-opacity=".6"
     stop-color="#A52714" /><stop
     id="stop12"
     offset=".66"
     stop-opacity="0"
     stop-color="#A52714" /></linearGradient><clipPath
   id="clipPath1232"><use
     width="100%"
     overflow="visible"
     xlink:href="#a"
     height="100%"
     id="use1230" /></clipPath><clipPath
   id="clipPath1236"><use
     width="100%"
     overflow="visible"
     xlink:href="#a"
     height="100%"
     id="use1234" /></clipPath><linearGradient
   x1="110.87"
   x2="52.537998"
   y1="164.5"
   gradientUnits="userSpaceOnUse"
   y2="130.33"
   id="d"><stop
     id="stop23"
     offset="0"
     stop-opacity=".4"
     stop-color="#055524" /><stop
     id="stop25"
     offset=".33"
     stop-opacity="0"
     stop-color="#055524" /></linearGradient><clipPath
   id="clipPath1244"><use
     width="100%"
     overflow="visible"
     xlink:href="#a"
     height="100%"
     id="use1242" /></clipPath><clipPath
   id="clipPath1248"><use
     width="100%"
     overflow="visible"
     xlink:href="#a"
     height="100%"
     id="use1246" /></clipPath><clipPath
   id="f"><use
     y="0"
     x="0"
     style="overflow:visible"
     id="use37"
     height="100%"
     xlink:href="#e"
     overflow="visible"
     width="100%" /></clipPath><linearGradient
   x1="121.86"
   x2="136.55"
   y1="49.804001"
   gradientUnits="userSpaceOnUse"
   y2="114.13"
   id="g"><stop
     id="stop42"
     offset="0"
     stop-opacity=".3"
     stop-color="#EA6100" /><stop
     id="stop44"
     offset=".66"
     stop-opacity="0"
     stop-color="#EA6100" /></linearGradient><clipPath
   id="clipPath1258"><use
     width="100%"
     overflow="visible"
     xlink:href="#a"
     height="100%"
     id="use1256" /></clipPath><clipPath
   id="clipPath1269"><use
     width="100%"
     overflow="visible"
     xlink:href="#a"
     height="100%"
     id="use1267" /></clipPath><clipPath
   id="j"><use
     y="0"
     x="0"
     style="overflow:visible"
     id="use62"
     height="100%"
     xlink:href="#i"
     overflow="visible"
     width="100%" /></clipPath><radialGradient
   id="l"
   gradientUnits="userSpaceOnUse"
   cy="55.948"
   cx="668.18"
   gradientTransform="translate(-576)"
   r="84.078"><stop
     stop-color="#3E2723"
     stop-opacity=".2"
     offset="0"
     id="stop73" /><stop
     stop-color="#3E2723"
     stop-opacity="0"
     offset="1"
     id="stop75" /></radialGradient><clipPath
   id="clipPath1285"><use
     width="100%"
     overflow="visible"
     xlink:href="#a"
     height="100%"
     id="use1283" /></clipPath><clipPath
   id="clipPath1289"><use
     width="100%"
     overflow="visible"
     xlink:href="#a"
     height="100%"
     id="use1287" /></clipPath><clipPath
   id="n"><use
     y="0"
     x="0"
     style="overflow:visible"
     id="use83"
     height="100%"
     xlink:href="#m"
     overflow="visible"
     width="100%" /></clipPath><radialGradient
   id="p"
   gradientUnits="userSpaceOnUse"
   cy="48.52"
   cx="597.88"
   gradientTransform="translate(-576)"
   r="78.044"><stop
     stop-color="#3E2723"
     stop-opacity=".2"
     offset="0"
     id="stop94" /><stop
     stop-color="#3E2723"
     stop-opacity="0"
     offset="1"
     id="stop96" /></radialGradient><clipPath
   id="clipPath1305"><use
     width="100%"
     overflow="visible"
     xlink:href="#a"
     height="100%"
     id="use1303" /></clipPath><radialGradient
   id="q"
   gradientUnits="userSpaceOnUse"
   cy="96.138"
   cx="671.84"
   gradientTransform="translate(-576)"
   r="87.87"><stop
     stop-color="#263238"
     stop-opacity=".2"
     offset="0"
     id="stop101" /><stop
     stop-color="#263238"
     stop-opacity="0"
     offset="1"
     id="stop103" /></radialGradient><clipPath
   id="clipPath1312"><use
     width="100%"
     overflow="visible"
     xlink:href="#a"
     height="100%"
     id="use1310" /></clipPath><clipPath
   id="clipPath1316"><use
     width="100%"
     overflow="visible"
     xlink:href="#a"
     height="100%"
     id="use1314" /></clipPath><clipPath
   id="clipPath1320"><use
     width="100%"
     overflow="visible"
     xlink:href="#a"
     height="100%"
     id="use1318" /></clipPath><clipPath
   id="clipPath1324"><use
     width="100%"
     overflow="visible"
     xlink:href="#a"
     height="100%"
     id="use1322" /></clipPath><path
   inkscape:connector-curvature="0"
   d="m 8,184 h 83.77 l 38.88,-38.88 V 116 H 61.36 L 8,24.48 Z"
   id="e" /><path
   inkscape:connector-curvature="0"
   d="m 96,56 34.65,60 -38.88,68 H 184 V 56 Z"
   id="i" /><path
   inkscape:connector-curvature="0"
   d="M 21.97,8 V 48.34 L 61.36,116 96,56 h 88 V 8 Z"
   id="m" /><clipPath
   id="b-1"><use
     width="100%"
     overflow="visible"
     xlink:href="#a"
     height="100%"
     id="use5-7" /></clipPath><clipPath
   id="clipPath1232-2"><use
     width="100%"
     overflow="visible"
     xlink:href="#a"
     height="100%"
     id="use1230-2" /></clipPath><clipPath
   id="clipPath1236-6"><use
     width="100%"
     overflow="visible"
     xlink:href="#a"
     height="100%"
     id="use1234-1" /></clipPath><clipPath
   id="clipPath1244-1"><use
     width="100%"
     overflow="visible"
     xlink:href="#a"
     height="100%"
     id="use1242-5" /></clipPath><clipPath
   id="clipPath1248-9"><use
     width="100%"
     overflow="visible"
     xlink:href="#a"
     height="100%"
     id="use1246-4" /></clipPath><clipPath
   id="f-9"><use
     y="0"
     x="0"
     style="overflow:visible"
     id="use37-0"
     height="100%"
     xlink:href="#e-8"
     overflow="visible"
     width="100%" /></clipPath><clipPath
   id="clipPath1258-7"><use
     width="100%"
     overflow="visible"
     xlink:href="#a"
     height="100%"
     id="use1256-7" /></clipPath><clipPath
   id="clipPath1269-1"><use
     width="100%"
     overflow="visible"
     xlink:href="#a"
     height="100%"
     id="use1267-1" /></clipPath><clipPath
   id="j-5"><use
     y="0"
     x="0"
     style="overflow:visible"
     id="use62-9"
     height="100%"
     xlink:href="#i-5"
     overflow="visible"
     width="100%" /></clipPath><radialGradient
   id="l-7"
   gradientUnits="userSpaceOnUse"
   cy="55.948"
   cx="668.18"
   gradientTransform="translate(-576)"
   r="84.078"><stop
     stop-color="#3E2723"
     stop-opacity=".2"
     offset="0"
     id="stop73-7" /><stop
     stop-color="#3E2723"
     stop-opacity="0"
     offset="1"
     id="stop75-6" /></radialGradient><clipPath
   id="clipPath1285-7"><use
     width="100%"
     overflow="visible"
     xlink:href="#a"
     height="100%"
     id="use1283-3" /></clipPath><clipPath
   id="clipPath1289-6"><use
     width="100%"
     overflow="visible"
     xlink:href="#a"
     height="100%"
     id="use1287-5" /></clipPath><clipPath
   id="n-6"><use
     y="0"
     x="0"
     style="overflow:visible"
     id="use83-3"
     height="100%"
     xlink:href="#m-6"
     overflow="visible"
     width="100%" /></clipPath><radialGradient
   id="p-9"
   gradientUnits="userSpaceOnUse"
   cy="48.52"
   cx="597.88"
   gradientTransform="translate(-576)"
   r="78.044"><stop
     stop-color="#3E2723"
     stop-opacity=".2"
     offset="0"
     id="stop94-4" /><stop
     stop-color="#3E2723"
     stop-opacity="0"
     offset="1"
     id="stop96-8" /></radialGradient><clipPath
   id="clipPath1305-1"><use
     width="100%"
     overflow="visible"
     xlink:href="#a"
     height="100%"
     id="use1303-2" /></clipPath><radialGradient
   id="q-9"
   gradientUnits="userSpaceOnUse"
   cy="96.138"
   cx="671.84"
   gradientTransform="translate(-576)"
   r="87.87"><stop
     stop-color="#263238"
     stop-opacity=".2"
     offset="0"
     id="stop101-3" /><stop
     stop-color="#263238"
     stop-opacity="0"
     offset="1"
     id="stop103-9" /></radialGradient><clipPath
   id="clipPath1312-0"><use
     width="100%"
     overflow="visible"
     xlink:href="#a"
     height="100%"
     id="use1310-8" /></clipPath><clipPath
   id="clipPath1316-8"><use
     width="100%"
     overflow="visible"
     xlink:href="#a"
     height="100%"
     id="use1314-5" /></clipPath><clipPath
   id="clipPath1320-0"><use
     width="100%"
     overflow="visible"
     xlink:href="#a"
     height="100%"
     id="use1318-9" /></clipPath><clipPath
   id="clipPath1324-6"><use
     width="100%"
     overflow="visible"
     xlink:href="#a"
     height="100%"
     id="use1322-3" /></clipPath><path
   inkscape:connector-curvature="0"
   d="m 8,184 h 83.77 l 38.88,-38.88 V 116 H 61.36 L 8,24.48 Z"
   id="e-8" /><path
   inkscape:connector-curvature="0"
   d="m 96,56 34.65,60 -38.88,68 H 184 V 56 Z"
   id="i-5" /><path
   inkscape:connector-curvature="0"
   d="M 21.97,8 V 48.34 L 61.36,116 96,56 h 88 V 8 Z"
   id="m-6" /><radialGradient
   id="r"
   gradientUnits="userSpaceOnUse"
   cy="32.014"
   cx="34.285999"
   gradientTransform="translate(-23.079613,-106.2699)"
   r="176.75"><stop
     stop-color="#fff"
     stop-opacity=".1"
     offset="0"
     id="stop130" /><stop
     stop-color="#fff"
     stop-opacity="0"
     offset="1"
     id="stop132" /></radialGradient><clipPath
   id="b-0"><use
     y="0"
     x="0"
     style="overflow:visible"
     width="100%"
     overflow="visible"
     xlink:href="#a"
     height="100%"
     id="use5-5" /></clipPath><clipPath
   id="clipPath963"><use
     y="0"
     x="0"
     style="overflow:visible"
     width="100%"
     overflow="visible"
     xlink:href="#a"
     height="100%"
     id="use961" /></clipPath><clipPath
   id="clipPath967"><use
     y="0"
     x="0"
     style="overflow:visible"
     width="100%"
     overflow="visible"
     xlink:href="#a"
     height="100%"
     id="use965" /></clipPath><radialGradient
   id="q-94"
   gradientUnits="userSpaceOnUse"
   cy="96.138"
   cx="671.84003"
   gradientTransform="translate(-576)"
   r="87.870003"><stop
     stop-color="#263238"
     stop-opacity=".2"
     offset="0"
     id="stop101-6" /><stop
     stop-color="#263238"
     stop-opacity="0"
     offset="1"
     id="stop103-92" /></radialGradient><clipPath
   id="clipPath974"><use
     y="0"
     x="0"
     style="overflow:visible"
     width="100%"
     overflow="visible"
     xlink:href="#a"
     height="100%"
     id="use972" /></clipPath><radialGradient
   id="p-2"
   gradientUnits="userSpaceOnUse"
   cy="48.52"
   cx="597.88"
   gradientTransform="translate(-576)"
   r="78.043999"><stop
     stop-color="#3E2723"
     stop-opacity=".2"
     offset="0"
     id="stop94-47" /><stop
     stop-color="#3E2723"
     stop-opacity="0"
     offset="1"
     id="stop96-7" /></radialGradient><clipPath
   id="clipPath981"><use
     y="0"
     x="0"
     style="overflow:visible"
     width="100%"
     overflow="visible"
     xlink:href="#a"
     height="100%"
     id="use979" /></clipPath><clipPath
   id="clipPath985"><use
     y="0"
     x="0"
     style="overflow:visible"
     width="100%"
     overflow="visible"
     xlink:href="#a"
     height="100%"
     id="use983" /></clipPath><clipPath
   id="n-5"><use
     width="100%"
     overflow="visible"
     xlink:href="#m-0"
     height="100%"
     id="use83-4"
     style="overflow:visible"
     x="0"
     y="0" /></clipPath><radialGradient
   id="l-2"
   gradientUnits="userSpaceOnUse"
   cy="55.948002"
   cx="668.17999"
   gradientTransform="translate(-576)"
   r="84.078003"><stop
     stop-color="#3E2723"
     stop-opacity=".2"
     offset="0"
     id="stop73-8" /><stop
     stop-color="#3E2723"
     stop-opacity="0"
     offset="1"
     id="stop75-9" /></radialGradient><clipPath
   id="clipPath997"><use
     y="0"
     x="0"
     style="overflow:visible"
     width="100%"
     overflow="visible"
     xlink:href="#a"
     height="100%"
     id="use995" /></clipPath><clipPath
   id="clipPath1001"><use
     y="0"
     x="0"
     style="overflow:visible"
     width="100%"
     overflow="visible"
     xlink:href="#a"
     height="100%"
     id="use999" /></clipPath><clipPath
   id="j-3"><use
     width="100%"
     overflow="visible"
     xlink:href="#i-1"
     height="100%"
     id="use62-6"
     style="overflow:visible"
     x="0"
     y="0" /></clipPath><clipPath
   id="clipPath1010"><use
     y="0"
     x="0"
     style="overflow:visible"
     width="100%"
     overflow="visible"
     xlink:href="#a"
     height="100%"
     id="use1008" /></clipPath><clipPath
   id="clipPath1017"><use
     y="0"
     x="0"
     style="overflow:visible"
     width="100%"
     overflow="visible"
     xlink:href="#a"
     height="100%"
     id="use1015" /></clipPath><clipPath
   id="f-0"><use
     width="100%"
     overflow="visible"
     xlink:href="#e-1"
     height="100%"
     id="use37-5"
     style="overflow:visible"
     x="0"
     y="0" /></clipPath><clipPath
   id="clipPath1029"><use
     y="0"
     x="0"
     style="overflow:visible"
     width="100%"
     overflow="visible"
     xlink:href="#a"
     height="100%"
     id="use1027" /></clipPath><clipPath
   id="clipPath1033"><use
     y="0"
     x="0"
     style="overflow:visible"
     width="100%"
     overflow="visible"
     xlink:href="#a"
     height="100%"
     id="use1031" /></clipPath><clipPath
   id="clipPath1043"><use
     y="0"
     x="0"
     style="overflow:visible"
     width="100%"
     overflow="visible"
     xlink:href="#a"
     height="100%"
     id="use1041" /></clipPath><clipPath
   id="clipPath1047"><use
     y="0"
     x="0"
     style="overflow:visible"
     width="100%"
     overflow="visible"
     xlink:href="#a"
     height="100%"
     id="use1045" /></clipPath><path
   id="e-1"
   d="m 8,184 h 83.77 l 38.88,-38.88 V 116 H 61.36 L 8,24.48 Z"
   inkscape:connector-curvature="0" /><path
   id="i-1"
   d="m 96,56 34.65,60 -38.88,68 H 184 V 56 Z"
   inkscape:connector-curvature="0" /><path
   id="m-0"
   d="M 21.97,8 V 48.34 L 61.36,116 96,56 h 88 V 8 Z"
   inkscape:connector-curvature="0" /><circle
   r="88"
   cx="96"
   cy="96"
   id="a" /><path
   d="m8 184h83.77l38.88-38.88v-29.12h-69.29l-53.36-91.52z"
   id="e-6" /><path
   d="m96 56l34.65 60-38.88 68h92.23v-128z"
   id="i-2" /><path
   d="m21.97 8v40.34l39.39 67.66 34.64-60h88v-48z"
   id="m-8" /><defs
   id="defs1820"><path
     d="M 21.97,8 V 48.34 L 61.36,116 96,56 h 88 V 8 Z"
     id="path1928"
     inkscape:connector-curvature="0" /></defs><clipPath
   id="n-7"><use
     id="use1822"
     height="100%"
     xlink:href="#m-8"
     overflow="visible"
     width="100%"
     style="overflow:visible"
     x="0"
     y="0" /></clipPath><defs
   id="defs1799"><path
     d="m 96,56 34.65,60 -38.88,68 H 184 V 56 Z"
     id="path1918"
     inkscape:connector-curvature="0" /></defs><clipPath
   id="j-6"><use
     id="use1801"
     height="100%"
     xlink:href="#i-2"
     overflow="visible"
     width="100%"
     style="overflow:visible"
     x="0"
     y="0" /></clipPath><defs
   id="defs1774"><path
     d="m 8,184 h 83.77 l 38.88,-38.88 V 116 H 61.36 L 8,24.48 Z"
     id="path1902"
     inkscape:connector-curvature="0" /></defs><clipPath
   id="f-06"><use
     id="use1776"
     height="100%"
     xlink:href="#e-6"
     overflow="visible"
     width="100%"
     style="overflow:visible"
     x="0"
     y="0" /></clipPath><linearGradient
   x1="110.87"
   x2="52.537998"
   y1="164.5"
   gradientUnits="userSpaceOnUse"
   y2="130.33"
   id="linearGradient1897"><stop
     id="stop1762"
     offset="0"
     stop-opacity=".4"
     stop-color="#055524" /><stop
     id="stop1764"
     offset=".33"
     stop-opacity="0"
     stop-color="#055524" /></linearGradient><linearGradient
   x1="29.337"
   x2="81.836998"
   y1="75.021004"
   gradientUnits="userSpaceOnUse"
   y2="44.354"
   id="linearGradient1889"><stop
     id="stop1749"
     offset="0"
     stop-opacity=".6"
     stop-color="#A52714" /><stop
     id="stop1751"
     offset=".66"
     stop-opacity="0"
     stop-color="#A52714" /></linearGradient><linearGradient
   id="linearGradient1910"
   y2="114.13"
   gradientUnits="userSpaceOnUse"
   y1="49.804001"
   x2="136.55"
   x1="121.86"><stop
     stop-color="#EA6100"
     stop-opacity=".3"
     offset="0"
     id="stop1781" /><stop
     stop-color="#EA6100"
     stop-opacity="0"
     offset=".66"
     id="stop1783" /></linearGradient><clipPath
   id="b-3"><use
     y="0"
     x="0"
     style="overflow:visible"
     width="100%"
     overflow="visible"
     xlink:href="#a"
     height="100%"
     id="use5-1" /></clipPath><clipPath
   id="clipPath1024"><use
     y="0"
     x="0"
     style="overflow:visible"
     width="100%"
     overflow="visible"
     xlink:href="#a"
     height="100%"
     id="use1022" /></clipPath><clipPath
   id="clipPath1028"><use
     y="0"
     x="0"
     style="overflow:visible"
     width="100%"
     overflow="visible"
     xlink:href="#a"
     height="100%"
     id="use1026" /></clipPath><clipPath
   id="clipPath1035"><use
     y="0"
     x="0"
     style="overflow:visible"
     width="100%"
     overflow="visible"
     xlink:href="#a"
     height="100%"
     id="use1033" /></clipPath><clipPath
   id="clipPath1039"><use
     y="0"
     x="0"
     style="overflow:visible"
     width="100%"
     overflow="visible"
     xlink:href="#a"
     height="100%"
     id="use1037" /></clipPath><clipPath
   id="f-6"><use
     y="0"
     x="0"
     style="overflow:visible"
     id="use37-8"
     height="100%"
     xlink:href="#e-61"
     overflow="visible"
     width="100%" /></clipPath><clipPath
   id="clipPath1048"><use
     y="0"
     x="0"
     style="overflow:visible"
     width="100%"
     overflow="visible"
     xlink:href="#a"
     height="100%"
     id="use1046" /></clipPath><clipPath
   id="clipPath1058"><use
     y="0"
     x="0"
     style="overflow:visible"
     width="100%"
     overflow="visible"
     xlink:href="#a"
     height="100%"
     id="use1056" /></clipPath><clipPath
   id="j-66"><use
     y="0"
     x="0"
     style="overflow:visible"
     id="use62-4"
     height="100%"
     xlink:href="#i-59"
     overflow="visible"
     width="100%" /></clipPath><radialGradient
   id="l-9"
   gradientUnits="userSpaceOnUse"
   cy="55.948002"
   cx="668.17999"
   gradientTransform="translate(-576)"
   r="84.078003"><stop
     stop-color="#3E2723"
     stop-opacity=".2"
     offset="0"
     id="stop73-5" /><stop
     stop-color="#3E2723"
     stop-opacity="0"
     offset="1"
     id="stop75-0" /></radialGradient><clipPath
   id="clipPath1073"><use
     y="0"
     x="0"
     style="overflow:visible"
     width="100%"
     overflow="visible"
     xlink:href="#a"
     height="100%"
     id="use1071" /></clipPath><clipPath
   id="clipPath1077"><use
     y="0"
     x="0"
     style="overflow:visible"
     width="100%"
     overflow="visible"
     xlink:href="#a"
     height="100%"
     id="use1075" /></clipPath><clipPath
   id="n-4"><use
     y="0"
     x="0"
     style="overflow:visible"
     id="use83-8"
     height="100%"
     xlink:href="#m-4"
     overflow="visible"
     width="100%" /></clipPath><radialGradient
   id="p-7"
   gradientUnits="userSpaceOnUse"
   cy="48.52"
   cx="597.88"
   gradientTransform="translate(-576)"
   r="78.043999"><stop
     stop-color="#3E2723"
     stop-opacity=".2"
     offset="0"
     id="stop94-1" /><stop
     stop-color="#3E2723"
     stop-opacity="0"
     offset="1"
     id="stop96-72" /></radialGradient><clipPath
   id="clipPath1092"><use
     y="0"
     x="0"
     style="overflow:visible"
     width="100%"
     overflow="visible"
     xlink:href="#a"
     height="100%"
     id="use1090" /></clipPath><radialGradient
   id="q-7"
   gradientUnits="userSpaceOnUse"
   cy="96.138"
   cx="671.84003"
   gradientTransform="translate(-576)"
   r="87.870003"><stop
     stop-color="#263238"
     stop-opacity=".2"
     offset="0"
     id="stop101-2" /><stop
     stop-color="#263238"
     stop-opacity="0"
     offset="1"
     id="stop103-2" /></radialGradient><clipPath
   id="clipPath1099"><use
     y="0"
     x="0"
     style="overflow:visible"
     width="100%"
     overflow="visible"
     xlink:href="#a"
     height="100%"
     id="use1097" /></clipPath><clipPath
   id="clipPath1103"><use
     y="0"
     x="0"
     style="overflow:visible"
     width="100%"
     overflow="visible"
     xlink:href="#a"
     height="100%"
     id="use1101" /></clipPath><clipPath
   id="clipPath1107"><use
     y="0"
     x="0"
     style="overflow:visible"
     width="100%"
     overflow="visible"
     xlink:href="#a"
     height="100%"
     id="use1105" /></clipPath><clipPath
   id="clipPath1111"><use
     y="0"
     x="0"
     style="overflow:visible"
     width="100%"
     overflow="visible"
     xlink:href="#a"
     height="100%"
     id="use1109" /></clipPath><radialGradient
   id="r-6"
   gradientUnits="userSpaceOnUse"
   cy="32.014"
   cx="34.285999"
   gradientTransform="translate(-7,-7)"
   r="176.75"><stop
     stop-color="#fff"
     stop-opacity=".1"
     offset="0"
     id="stop130-1" /><stop
     stop-color="#fff"
     stop-opacity="0"
     offset="1"
     id="stop132-0" /></radialGradient><path
   inkscape:connector-curvature="0"
   d="m 8,184 h 83.77 l 38.88,-38.88 V 116 H 61.36 L 8,24.48 Z"
   id="e-61" /><path
   inkscape:connector-curvature="0"
   d="m 96,56 34.65,60 -38.88,68 H 184 V 56 Z"
   id="i-59" /><path
   inkscape:connector-curvature="0"
   d="M 21.97,8 V 48.34 L 61.36,116 96,56 h 88 V 8 Z"
   id="m-4" /><clipPath
   id="b-9"><use
     y="0"
     x="0"
     style="overflow:visible"
     width="100%"
     overflow="visible"
     xlink:href="#a"
     height="100%"
     id="use5-0" /></clipPath><clipPath
   id="clipPath1024-7"><use
     y="0"
     x="0"
     style="overflow:visible"
     width="100%"
     overflow="visible"
     xlink:href="#a"
     height="100%"
     id="use1022-7" /></clipPath><clipPath
   id="clipPath1028-1"><use
     y="0"
     x="0"
     style="overflow:visible"
     width="100%"
     overflow="visible"
     xlink:href="#a"
     height="100%"
     id="use1026-1" /></clipPath><clipPath
   id="clipPath1035-7"><use
     y="0"
     x="0"
     style="overflow:visible"
     width="100%"
     overflow="visible"
     xlink:href="#a"
     height="100%"
     id="use1033-7" /></clipPath><clipPath
   id="clipPath1039-6"><use
     y="0"
     x="0"
     style="overflow:visible"
     width="100%"
     overflow="visible"
     xlink:href="#a"
     height="100%"
     id="use1037-7" /></clipPath><clipPath
   id="f-3"><use
     y="0"
     x="0"
     style="overflow:visible"
     id="use37-6"
     height="100%"
     xlink:href="#e-9"
     overflow="visible"
     width="100%" /></clipPath><clipPath
   id="clipPath1048-3"><use
     y="0"
     x="0"
     style="overflow:visible"
     width="100%"
     overflow="visible"
     xlink:href="#a"
     height="100%"
     id="use1046-9" /></clipPath><clipPath
   id="clipPath1058-4"><use
     y="0"
     x="0"
     style="overflow:visible"
     width="100%"
     overflow="visible"
     xlink:href="#a"
     height="100%"
     id="use1056-8" /></clipPath><clipPath
   id="j-1"><use
     y="0"
     x="0"
     style="overflow:visible"
     id="use62-2"
     height="100%"
     xlink:href="#i-6"
     overflow="visible"
     width="100%" /></clipPath><radialGradient
   id="l-93"
   gradientUnits="userSpaceOnUse"
   cy="55.948002"
   cx="668.17999"
   gradientTransform="translate(-576)"
   r="84.078003"><stop
     stop-color="#3E2723"
     stop-opacity=".2"
     offset="0"
     id="stop73-9" /><stop
     stop-color="#3E2723"
     stop-opacity="0"
     offset="1"
     id="stop75-08" /></radialGradient><clipPath
   id="clipPath1073-8"><use
     y="0"
     x="0"
     style="overflow:visible"
     width="100%"
     overflow="visible"
     xlink:href="#a"
     height="100%"
     id="use1071-5" /></clipPath><clipPath
   id="clipPath1077-0"><use
     y="0"
     x="0"
     style="overflow:visible"
     width="100%"
     overflow="visible"
     xlink:href="#a"
     height="100%"
     id="use1075-9" /></clipPath><clipPath
   id="n-63"><use
     y="0"
     x="0"
     style="overflow:visible"
     id="use83-85"
     height="100%"
     xlink:href="#m-2"
     overflow="visible"
     width="100%" /></clipPath><radialGradient
   id="p-6"
   gradientUnits="userSpaceOnUse"
   cy="48.52"
   cx="597.88"
   gradientTransform="translate(-576)"
   r="78.043999"><stop
     stop-color="#3E2723"
     stop-opacity=".2"
     offset="0"
     id="stop94-11" /><stop
     stop-color="#3E2723"
     stop-opacity="0"
     offset="1"
     id="stop96-5" /></radialGradient><clipPath
   id="clipPath1092-9"><use
     y="0"
     x="0"
     style="overflow:visible"
     width="100%"
     overflow="visible"
     xlink:href="#a"
     height="100%"
     id="use1090-8" /></clipPath><radialGradient
   id="q-4"
   gradientUnits="userSpaceOnUse"
   cy="96.138"
   cx="671.84003"
   gradientTransform="translate(-576)"
   r="87.870003"><stop
     stop-color="#263238"
     stop-opacity=".2"
     offset="0"
     id="stop101-8" /><stop
     stop-color="#263238"
     stop-opacity="0"
     offset="1"
     id="stop103-1" /></radialGradient><clipPath
   id="clipPath1099-0"><use
     y="0"
     x="0"
     style="overflow:visible"
     width="100%"
     overflow="visible"
     xlink:href="#a"
     height="100%"
     id="use1097-3" /></clipPath><clipPath
   id="clipPath1103-0"><use
     y="0"
     x="0"
     style="overflow:visible"
     width="100%"
     overflow="visible"
     xlink:href="#a"
     height="100%"
     id="use1101-4" /></clipPath><clipPath
   id="clipPath1107-4"><use
     y="0"
     x="0"
     style="overflow:visible"
     width="100%"
     overflow="visible"
     xlink:href="#a"
     height="100%"
     id="use1105-4" /></clipPath><clipPath
   id="clipPath1111-4"><use
     y="0"
     x="0"
     style="overflow:visible"
     width="100%"
     overflow="visible"
     xlink:href="#a"
     height="100%"
     id="use1109-7" /></clipPath><radialGradient
   id="r-63"
   gradientUnits="userSpaceOnUse"
   cy="32.014"
   cx="34.285999"
   gradientTransform="translate(-7,-7)"
   r="176.75"><stop
     stop-color="#fff"
     stop-opacity=".1"
     offset="0"
     id="stop130-17" /><stop
     stop-color="#fff"
     stop-opacity="0"
     offset="1"
     id="stop132-5" /></radialGradient><path
   inkscape:connector-curvature="0"
   d="m 8,184 h 83.77 l 38.88,-38.88 V 116 H 61.36 L 8,24.48 Z"
   id="e-9" /><path
   inkscape:connector-curvature="0"
   d="m 96,56 34.65,60 -38.88,68 H 184 V 56 Z"
   id="i-6" /><path
   inkscape:connector-curvature="0"
   d="M 21.97,8 V 48.34 L 61.36,116 96,56 h 88 V 8 Z"
   id="m-2" /></defs><sodipodi:namedview
   pagecolor="#ffffff"
   bordercolor="#666666"
   borderopacity="1"
   objecttolerance="10"
   gridtolerance="10"
   guidetolerance="10"
   inkscape:pageopacity="0"
   inkscape:pageshadow="2"
   inkscape:window-width="1885"
   inkscape:window-height="1536"
   id="namedview249"
   showgrid="false"
   inkscape:zoom="4.0000001"
   inkscape:cx="137.19203"
   inkscape:cy="135.84438"
   inkscape:window-x="70"
   inkscape:window-y="27"
   inkscape:window-maximized="0"
   inkscape:current-layer="layer1"
   inkscape:pagecheckerboard="true" />

<g
   inkscape:groupmode="layer"
   id="layer3"
   inkscape:label="Squircle-Background"
   style="display:none"><rect
     style="display:none;fill:#e5a00d;fill-opacity:1;stroke-width:1.41822851"
     id="rect1101"
     width="248"
     height="248"
     x="4.0000043"
     y="3.9999998"
     ry="25.455845" /></g><g
   inkscape:groupmode="layer"
   id="layer2"
   inkscape:label="Squircle-Shadow"
   style="display:none"><path
     style="display:none;opacity:0.5;fill:#17171d;fill-opacity:0.39215686;stroke-width:1.41822851"
     d="m 4,216.54492 v 10 C 4,240.64746 15.35254,252 29.45508,252 H 226.54492 C 240.64746,252 252,240.64746 252,226.54492 v -10 C 252,230.64746 240.64746,242 226.54492,242 H 29.45508 C 15.35254,242 4,230.64746 4,216.54492 Z"
     id="rect1101-3"
     inkscape:connector-curvature="0" /></g><g
   inkscape:groupmode="layer"
   id="layer4"
   inkscape:label="Circle-Background"
   style="display:none"><circle
     style="fill:#e5a00d;fill-opacity:1;stroke:none;stroke-width:2.74049902;stroke-miterlimit:4;stroke-dasharray:none;stroke-opacity:1"
     id="path1090"
     cx="128"
     cy="128"
     r="124" /></g><g
   inkscape:groupmode="layer"
   id="layer6"
   inkscape:label="Circle-Shadow"
   style="display:none"><g
     id="g2548"
     style="display:none"
     transform="translate(-2.960187,1.58543)"><path
       d="m 256.36019,128.41457 c 0,-33.900005 -13.5,-64.500005 -35.4,-86.900002 -0.4,-0.3 -0.7,-0.7 -1.1,-1 21.3,22.299997 34.5,52.599997 34.5,86.000002 0,68.5 -55.2,124 -123.4,124 -32.900003,0 -62.900003,-13 -85.000003,-34.1 0.3,0.3 0.6,0.6 0.9,0.9 22.2,21.7 52.6,35.1 86.000003,35.1 68.2,0 123.5,-55.5 123.5,-124 z"
       id="path238"
       inkscape:connector-curvature="0"
       style="display:inline;opacity:0.1" /><path
       d="m 219.86019,40.414568 c -0.7,-0.6 -1.4,-1.3 -2,-1.9 -0.7,-0.6 -1.4,-1.2 -2.1,-1.9 19.1,21.799997 30.7,50.499997 30.7,81.800002 0,68.5 -55.2,124 -123.4,124 -30.900003,0 -59.200003,-11.4 -80.900003,-30.3 0.6,0.7 1.2,1.4 1.9,2.1 0.6,0.7 1.3,1.4 1.9,2 22.1,21.1 52.1,34.1 85.000003,34.1 68.2,0 123.4,-55.5 123.4,-124 0,-33.300005 -13.1,-63.600005 -34.5,-85.900002 z"
       id="path240"
       inkscape:connector-curvature="0"
       style="display:inline;opacity:0.2" /><path
       d="m 220.96019,41.514568 c 21.9,22.399997 35.4,53.099997 35.4,86.900002 0,68.5 -55.2,124 -123.4,124 -33.500003,0 -63.800003,-13.4 -86.000003,-35.1 22.4,22.9 53.600003,37.1 88.000003,37.1 68.2,0 123.4,-55.5 123.4,-124 -0.1,-34.900005 -14.4,-66.400005 -37.4,-88.900002 z"
       id="path236"
       inkscape:connector-curvature="0"
       style="display:inline;opacity:0.05" /></g></g><g
   inkscape:groupmode="layer"
   id="layer1"
   inkscape:label="Icon"><path
     style="fill:#202020;fill-opacity:1;stroke-width:0.18652175"
     d="m 131.35938,48 c -1.02774,-0.0019 -2.09954,0.04132 -3.2168,0.130859 -28.246871,2.2737 -20.75416,32.117405 -21.17383,42.109375 -0.51667,7.307922 -1.99863,13.067156 -7.025391,20.210936 -5.903413,7.02068 -14.218776,18.38573 -18.15625,30.2168 -1.857757,5.5826 -2.740881,11.27342 -1.925781,16.66015 -0.255535,0.22946 -0.497317,0.46864 -0.730469,0.71485 -1.732787,1.85216 -3.014515,4.09455 -4.441406,5.60351 -1.33363,1.33195 -3.233222,1.83817 -5.322265,2.58594 -2.089045,0.75 -4.381985,1.85439 -5.773438,4.52539 v 0.002 c -0.0019,0.004 -0.004,0.008 -0.0078,0.0117 -0.654691,1.22171 -0.867188,2.54155 -0.867188,3.87891 0,1.23664 0.182527,2.4887 0.367188,3.69531 0.384233,2.51058 0.774477,4.88613 0.257812,6.49414 -1.652583,4.51942 -1.86702,7.64382 -0.703125,9.91211 1.167626,2.27184 3.56523,3.27283 6.275391,3.83985 5.420322,1.13032 12.760877,0.84959 18.544922,3.91601 l 0.498046,-0.9375 -0.49414,0.93946 c 6.192522,3.23801 12.472372,4.3877 17.480464,3.24414 3.63344,-0.82797 6.57919,-2.99062 8.09375,-6.31836 3.91696,-0.0187 8.21713,-1.68014 15.10352,-2.0586 4.67237,-0.37696 10.50778,1.66015 17.2207,1.28711 0.17533,0.72743 0.4306,1.42982 0.77734,2.09571 0.004,0.005 0.005,0.0118 0.01,0.0176 2.60179,5.20395 7.43802,7.58436 12.5918,7.17774 5.15901,-0.4068 10.6444,-3.44791 15.08008,-8.72461 l -0.81446,-0.68359 0.82031,0.67578 c 4.22659,-5.12562 11.24083,-7.25135 15.89454,-10.05664 2.32593,-1.40264 4.21202,-3.15913 4.35937,-5.71094 0.14511,-2.54975 -1.35368,-5.40669 -4.79687,-9.22852 h 0.002 c -0.002,-0.002 -0.004,-0.004 -0.004,-0.006 -1.132,-1.27767 -1.67205,-3.64628 -2.25195,-6.16992 -0.5784,-2.52177 -1.22649,-5.24133 -3.29687,-7.0039 -0.004,-0.004 -0.009,-0.007 -0.0117,-0.0117 -0.41035,-0.35812 -0.83245,-0.66012 -1.25586,-0.91211 -0.42508,-0.2518 -0.85643,-0.45687 -1.28711,-0.61914 2.87803,-8.53524 1.74976,-17.03557 -1.15625,-24.71485 -3.56443,-9.42681 -9.78853,-17.63783 -14.54297,-23.25586 C 160.1579,104.82058 154.95582,98.448996 155.05859,89.037109 155.21695,74.673069 156.6368,48.035439 131.35938,48 Z m 3.35546,22.128906 h 0.0684 c 1.43249,0 2.65699,0.421893 3.91602,1.333985 1.27767,0.928878 2.19907,2.088197 2.9414,3.710937 0.72746,1.581704 1.07961,3.129382 1.11524,4.962891 -1.9e-4,0.0485 -9.8e-4,0.08822 0.0117,0.136719 0.0149,1.882005 -0.30906,3.485297 -1.02344,5.121093 -0.40662,0.932609 -0.87412,1.715593 -1.43555,2.394531 -0.19044,-0.0914 -0.38839,-0.179736 -0.59375,-0.263671 -0.71064,-0.304031 -1.33923,-0.55299 -1.90234,-0.765625 -0.56348,-0.212634 -1.0036,-0.358947 -1.45703,-0.515625 0.32846,-0.397291 0.976,-0.865582 1.2168,-1.453125 0.36558,-0.885979 0.54455,-1.751738 0.57812,-2.783204 0,-0.04103 0.0137,-0.07455 0.0137,-0.123046 0.0205,-0.988566 -0.11128,-1.833758 -0.40039,-2.699219 -0.30216,-0.908361 -0.68654,-1.562691 -1.24219,-2.105469 -0.5577,-0.542779 -1.11351,-0.788164 -1.78125,-0.810547 -0.0317,-0.0019 -0.062,-0.002 -0.0937,-0.002 -0.62671,0.0019 -1.17089,0.217465 -1.73437,0.6875 -0.59128,0.494283 -1.02913,1.12743 -1.39453,2.007813 -0.36372,0.880383 -0.54251,1.753955 -0.57813,2.791015 -0.005,0.04103 -0.006,0.07615 -0.006,0.117188 -0.0131,0.570757 0.0236,1.09227 0.11133,1.599609 -1.28327,-0.63977 -2.92454,-1.106496 -4.05859,-1.376953 -0.0653,-0.490552 -0.10209,-0.99567 -0.11328,-1.525391 v -0.142578 c -0.0205,-1.876409 0.28792,-3.487163 1.00976,-5.121093 0.72184,-1.635796 1.61413,-2.810722 2.8711,-3.767579 1.25902,-0.954991 2.49692,-1.393281 3.96093,-1.408203 z m -19.5664,1.556641 c 0.95313,0.0019 1.80321,0.318297 2.68359,1.021484 0.95499,0.762874 1.67692,1.738615 2.28125,3.113281 0.60619,1.374665 0.93,2.748354 1.01953,4.371094 v 0.01367 c 0.0429,0.680804 0.0365,1.322242 -0.0176,1.94336 -0.18774,0.05394 -0.37044,0.112474 -0.55078,0.173828 -1.02587,0.354391 -1.83983,0.745229 -2.62695,1.265625 0.0765,-0.544644 0.087,-1.097457 0.0273,-1.714844 -0.006,-0.03357 -0.006,-0.06017 -0.006,-0.09375 -0.0821,-0.81883 -0.25581,-1.505359 -0.54492,-2.199219 -0.30776,-0.72184 -0.65223,-1.231351 -1.10547,-1.623047 -0.41035,-0.354391 -0.79951,-0.519355 -1.22851,-0.515625 -0.0429,0 -0.0881,0.0022 -0.13281,0.0059 -0.48122,0.04104 -0.87918,0.275619 -1.25782,0.736328 -0.37677,0.458843 -0.62562,1.029831 -0.80468,1.787109 -0.17906,0.755413 -0.22501,1.499159 -0.15039,2.351563 0,0.03357 0.006,0.06017 0.006,0.09375 0.0821,0.826292 0.24826,1.51317 0.54297,2.207031 0.30216,0.714378 0.65417,1.223538 1.10742,1.615234 0.0765,0.06528 0.15,0.125509 0.22461,0.177735 -0.47003,0.363717 -0.78586,0.620784 -1.17382,0.904296 -0.24808,0.180926 -0.54157,0.396721 -0.88477,0.650391 -0.74795,-0.701322 -1.33268,-1.580157 -1.84375,-2.742187 -0.60433,-1.3728 -0.92645,-2.748355 -1.02344,-4.371094 v -0.01367 c -0.0895,-1.62274 0.0679,-3.017258 0.51367,-4.460938 0.44765,-1.443678 1.04478,-2.487703 1.91211,-3.345703 0.86546,-0.859865 1.73904,-1.293564 2.79102,-1.347656 0.0821,-0.0037 0.16199,-0.0039 0.24219,-0.0039 z m 8.92968,11.251953 c 2.21215,-0.0093 4.87252,0.716717 8.09376,2.787109 1.979,1.287 3.51867,1.393823 7.06445,2.91211 l 0.006,0.002 0.004,0.002 c 1.70481,0.699456 2.70672,1.613632 3.19727,2.574219 0.48869,0.960587 0.50215,2.000908 0.0918,3.097656 -0.81864,2.191631 -3.43474,4.499288 -7.10157,5.644531 l -0.004,0.002 -0.004,0.002 c -1.78893,0.580085 -3.34848,1.865895 -5.18945,2.916015 -1.83723,1.05198 -3.91843,1.90047 -6.7461,1.73633 -1.20493,-0.0709 -2.16775,-0.30959 -2.99218,-0.66211 -0.82442,-0.35253 -1.5092,-0.81953 -2.16016,-1.34179 -1.30192,-1.04641 -2.43565,-2.36043 -4.0957,-3.335945 l -0.006,-0.002 -0.004,-0.0039 c -2.67472,-1.512691 -4.13677,-3.262875 -4.59375,-4.779297 -0.45885,-1.516422 -0.0273,-2.810526 1.29883,-3.804687 1.49217,-1.11913 2.5287,-1.879292 3.2207,-2.384766 0.6864,-0.503609 0.96936,-0.695393 1.18946,-0.904297 0,-0.0018 0.002,-0.002 0.002,-0.0039 h 0.002 c 1.12099,-1.061309 2.91023,-2.996815 5.60547,-3.923828 0.92701,-0.320818 1.96282,-0.525597 3.12109,-0.529297 z m 18.68946,13.488281 c 2.40986,9.497689 8.01331,23.215889 11.61523,29.910159 1.91558,3.55137 5.72383,11.09846 7.36914,20.1914 1.04265,-0.0319 2.19271,0.11856 3.42188,0.4336 4.30306,-11.15587 -3.64799,-23.16943 -7.28516,-26.51563 -1.46793,-1.42503 -1.53984,-2.06305 -0.81055,-2.0332 3.9431,3.48982 9.12376,10.50411 11.00782,18.42383 0.85968,3.61087 1.0427,7.40903 0.12109,11.15625 0.44952,0.18652 0.90668,0.39104 1.37109,0.61133 6.90693,3.3628 9.4617,6.28578 8.23438,10.27734 h -0.002 c -0.40475,-0.0149 -0.80345,-0.0123 -1.19141,-0.004 -0.0354,0.002 -0.0701,0.002 -0.10742,0.002 1.00162,-3.16341 -1.21386,-5.49698 -7.11914,-8.16797 -6.12351,-2.69319 -11.00371,-2.42603 -11.82813,3.03906 -0.0522,0.28538 -0.0952,0.57835 -0.12695,0.87305 -0.45884,0.16041 -0.91829,0.36147 -1.38086,0.61328 -2.8743,1.57424 -4.44349,4.42857 -5.31641,7.93164 -0.87106,3.49915 -1.12258,7.72798 -1.36132,12.48242 v 0.004 c -0.14736,2.38953 -1.13288,5.6241 -2.12891,9.04882 -10.03114,7.15666 -23.95364,10.25649 -35.77539,2.1875 -0.80018,-1.26648 -1.72036,-2.52321 -2.66602,-3.76171 -0.60433,-0.79067 -1.22432,-1.57582 -1.83984,-2.35157 1.21239,0.002 2.24437,-0.19761 3.07813,-0.57422 1.03704,-0.4719 1.76314,-1.22521 2.125,-2.19531 0.71998,-1.93796 -0.004,-4.67263 -2.31055,-7.79687 -2.30728,-3.12237 -6.21394,-6.64449 -11.95508,-10.16602 v -0.004 c -4.219122,-2.62436 -6.577433,-5.83858 -7.681641,-9.33008 -1.106074,-3.49355 -0.952005,-7.27143 -0.09961,-11 1.633931,-7.15684 5.831314,-14.11799 8.509766,-18.48633 0.719974,-0.52972 0.256535,0.98447 -2.712891,6.49805 -2.6598,5.04 -7.634128,16.67188 -0.824219,25.75195 0.182791,-6.4613 1.725621,-13.05029 4.316406,-19.21484 3.773339,-8.55202 11.666259,-23.38724 12.292969,-35.208989 0.32455,0.235018 1.43346,0.985929 1.92774,1.267579 0.002,0.002 0.002,0.002 0.004,0.002 1.44741,0.8524 2.53512,2.09828 3.94336,3.23047 1.41197,1.13405 3.17436,2.11276 5.83789,2.26758 0.25554,0.0149 0.50566,0.0215 0.75,0.0215 2.7456,0 4.88677,-0.89379 6.66992,-1.91406 1.93815,-1.10794 3.48697,-2.335 4.95508,-2.8125 0.002,-0.002 0.004,-0.002 0.006,-0.002 3.10186,-0.96992 5.56434,-2.686036 6.9668,-4.685549 z m 14.61914,60.513669 c 0.25199,4.10908 2.28686,8.30268 5.88281,9.20899 3.9358,1.03725 9.60898,-2.33882 12.00391,-5.09375 0.47918,-0.0188 0.94498,-0.0435 1.39844,-0.0547 2.1021,-0.0505 3.86226,0.0723 5.66406,1.64648 l 0.006,0.004 0.006,0.004 c 1.38399,1.17322 2.04252,3.39035 2.61328,5.87109 0.57094,2.48279 1.02583,5.18457 2.73828,7.11133 l 0.002,0.002 0.002,0.004 c 3.29043,3.65023 4.34725,6.1153 4.25586,7.6914 -0.0895,1.57406 -1.22815,2.74533 -3.33398,4.01368 -4.20812,2.53856 -11.66797,4.74651 -16.42969,10.51562 -4.13724,4.92231 -9.18019,7.62395 -13.62109,7.97461 -4.4409,0.35066 -8.27256,-1.49105 -10.5332,-6.02539 l -0.004,-0.01 -0.006,-0.0117 c -1.40283,-2.66726 -0.81936,-6.87347 0.36133,-11.3125 1.18068,-4.43735 2.87792,-8.99481 3.10547,-12.69727 v -0.0117 c 0.23856,-4.74493 0.50647,-8.88904 1.30273,-12.08789 0.79831,-3.19885 2.05386,-5.36404 4.27734,-6.58203 0.10446,-0.0559 0.20601,-0.10979 0.3086,-0.16016 z M 85.095703,157.25 c 0.02238,0.002 0.04207,0.002 0.06445,0 0.332009,0.002 0.685551,0.0298 1.058594,0.0879 2.518044,0.38051 4.712968,2.14107 6.828125,5.00977 l 6.105469,11.1289 0.002,0.008 0.0039,0.004 c 1.624599,3.39283 5.056979,7.12473 7.964849,10.93164 2.90787,3.80523 5.15807,7.62612 4.86523,10.55078 l -0.002,0.01 v 0.0137 c -0.3805,4.98759 -3.19383,7.70275 -7.51367,8.68945 -4.31612,0.9867 -10.170039,0.005 -16.015631,-3.05273 -0.0019,0 -0.004,-0.002 -0.0059,-0.002 -6.468575,-3.4264 -14.162379,-3.08573 -19.09961,-4.11719 -2.46768,-0.5148 -4.079733,-1.29052 -4.818359,-2.73047 -0.738626,-1.44182 -0.75606,-3.95387 0.814453,-8.23828 l 0.0078,-0.0195 0.0059,-0.0176 c 0.777796,-2.3968 0.200993,-5.02033 -0.175781,-7.48242 -0.376774,-2.46003 -0.561917,-4.70026 0.279297,-6.25977 l 0.0078,-0.0137 c 1.076231,-2.07412 2.654801,-2.81626 4.613282,-3.51758 1.960344,-0.70319 4.281726,-1.25641 6.115234,-3.0957 l 0.01172,-0.008 0.0098,-0.01 c 1.695483,-1.78874 2.968676,-4.03202 4.458985,-5.62305 1.257156,-1.34295 2.517136,-2.23303 4.414062,-2.24609 z"
     id="path3"
     inkscape:connector-curvature="0" /><path
     d="m 133.13945,96.628143 c -2.91734,1.520656 -6.32495,3.364853 -9.95093,3.364853 -3.62412,0 -6.48723,-1.674966 -8.54643,-3.307031 -1.0296,-0.8151 -1.86522,-1.62647 -2.49566,-2.215878 -1.09383,-0.863415 -0.9628,-2.074436 -0.51339,-2.038683 0.75329,0.09404 0.86719,1.08587 1.34155,1.529478 0.64163,0.6006 1.44554,1.378396 2.41918,2.150596 1.94729,1.542535 4.54367,3.044035 7.79475,3.044035 3.24548,0 7.03406,-1.905351 9.3466,-3.202579 1.31017,-0.73494 2.97731,-2.052317 4.33786,-3.051014 1.04093,-0.764081 1.00297,-1.684144 1.86244,-1.583973 0.85946,0.100172 0.22367,1.018379 -0.97995,2.068812 -1.20361,1.050433 -3.08659,2.444175 -4.61602,3.241384 z"
     id="path11"
     inkscape:connector-curvature="0"
     style="fill:#202020;fill-opacity:1;stroke-width:0.18652175"
     sodipodi:nodetypes="sscccccssszzs" /><path
     sodipodi:nodetypes="aaaaaaa"
     inkscape:connector-curvature="0"
     id="path28396-7"
     d="m 125.90178,86.02992 c 0.12065,0.387263 0.74478,0.323076 1.10538,0.508816 0.31642,0.162979 0.57092,0.520192 0.92669,0.530464 0.33955,0.0098 0.868,-0.117589 0.91217,-0.454395 0.0584,-0.444972 -0.59143,-0.727742 -1.00956,-0.890759 -0.53806,-0.209783 -1.22742,-0.316218 -1.73215,-0.03557 -0.11566,0.06431 -0.2419,0.215112 -0.20253,0.341454 z"
     style="opacity:1;fill:#202020;fill-opacity:1;stroke:none;stroke-width:0.18652175" /><path
     style="opacity:1;fill:#202020;fill-opacity:1;stroke:none;stroke-width:0.18652175"
     d="m 122.2153,86.02992 c -0.12065,0.387263 -0.74479,0.323076 -1.10539,0.508816 -0.31642,0.162979 -0.57091,0.520192 -0.92669,0.530464 -0.33955,0.0098 -0.868,-0.117589 -0.91217,-0.454395 -0.0584,-0.444972 0.59143,-0.727742 1.00956,-0.890759 0.53806,-0.209783 1.22742,-0.316218 1.73215,-0.03557 0.11566,0.06431 0.2419,0.215112 0.20254,0.341454 z"
     id="path5461"
     inkscape:connector-curvature="0"
     sodipodi:nodetypes="aaaaaaa" /></g></svg>