<?xml version="1.0" encoding="UTF-8" standalone="no"?>
<!-- Generator: Adobe Illustrator 21.0.2, SVG Export Plug-In . SVG Version: 6.00 Build 0)  -->

<svg
   xmlns:dc="http://purl.org/dc/elements/1.1/"
   xmlns:cc="http://creativecommons.org/ns#"
   xmlns:rdf="http://www.w3.org/1999/02/22-rdf-syntax-ns#"
   xmlns:svg="http://www.w3.org/2000/svg"
   xmlns="http://www.w3.org/2000/svg"
   xmlns:xlink="http://www.w3.org/1999/xlink"
   xmlns:sodipodi="http://sodipodi.sourceforge.net/DTD/sodipodi-0.dtd"
   xmlns:inkscape="http://www.inkscape.org/namespaces/inkscape"
   version="1.1"
   id="Layer_1"
   x="0px"
   y="0px"
   viewBox="0 0 256 256"
   enable-background="new 0 0 256 256"
   xml:space="preserve"
   sodipodi:docname="whatsdesk.svg"
   inkscape:version="0.92.4 (5da689c313, 2019-01-14)"
   inkscape:label="Shadow"><metadata
   id="metadata253"><rdf:RDF><cc:Work
       rdf:about=""><dc:format>image/svg+xml</dc:format><dc:type
         rdf:resource="http://purl.org/dc/dcmitype/StillImage" /><dc:title /></cc:Work></rdf:RDF></metadata><defs
   id="defs251">
	
	
<clipPath
   id="b"><use
     width="100%"
     overflow="visible"
     xlink:href="#a"
     height="100%"
     id="use5" /></clipPath><linearGradient
   x1="29.337"
   x2="81.836998"
   y1="75.021004"
   gradientUnits="userSpaceOnUse"
   y2="44.354"
   id="c"><stop
     id="stop10"
     offset="0"
     stop-opacity=".6"
     stop-color="#A52714" /><stop
     id="stop12"
     offset=".66"
     stop-opacity="0"
     stop-color="#A52714" /></linearGradient><clipPath
   id="clipPath1232"><use
     width="100%"
     overflow="visible"
     xlink:href="#a"
     height="100%"
     id="use1230" /></clipPath><clipPath
   id="clipPath1236"><use
     width="100%"
     overflow="visible"
     xlink:href="#a"
     height="100%"
     id="use1234" /></clipPath><linearGradient
   x1="110.87"
   x2="52.537998"
   y1="164.5"
   gradientUnits="userSpaceOnUse"
   y2="130.33"
   id="d"><stop
     id="stop23"
     offset="0"
     stop-opacity=".4"
     stop-color="#055524" /><stop
     id="stop25"
     offset=".33"
     stop-opacity="0"
     stop-color="#055524" /></linearGradient><clipPath
   id="clipPath1244"><use
     width="100%"
     overflow="visible"
     xlink:href="#a"
     height="100%"
     id="use1242" /></clipPath><clipPath
   id="clipPath1248"><use
     width="100%"
     overflow="visible"
     xlink:href="#a"
     height="100%"
     id="use1246" /></clipPath><clipPath
   id="f"><use
     y="0"
     x="0"
     style="overflow:visible"
     id="use37"
     height="100%"
     xlink:href="#e"
     overflow="visible"
     width="100%" /></clipPath><linearGradient
   x1="121.86"
   x2="136.55"
   y1="49.804001"
   gradientUnits="userSpaceOnUse"
   y2="114.13"
   id="g"><stop
     id="stop42"
     offset="0"
     stop-opacity=".3"
     stop-color="#EA6100" /><stop
     id="stop44"
     offset=".66"
     stop-opacity="0"
     stop-color="#EA6100" /></linearGradient><clipPath
   id="clipPath1258"><use
     width="100%"
     overflow="visible"
     xlink:href="#a"
     height="100%"
     id="use1256" /></clipPath><clipPath
   id="clipPath1269"><use
     width="100%"
     overflow="visible"
     xlink:href="#a"
     height="100%"
     id="use1267" /></clipPath><clipPath
   id="j"><use
     y="0"
     x="0"
     style="overflow:visible"
     id="use62"
     height="100%"
     xlink:href="#i"
     overflow="visible"
     width="100%" /></clipPath><radialGradient
   id="l"
   gradientUnits="userSpaceOnUse"
   cy="55.948"
   cx="668.18"
   gradientTransform="translate(-576)"
   r="84.078"><stop
     stop-color="#3E2723"
     stop-opacity=".2"
     offset="0"
     id="stop73" /><stop
     stop-color="#3E2723"
     stop-opacity="0"
     offset="1"
     id="stop75" /></radialGradient><clipPath
   id="clipPath1285"><use
     width="100%"
     overflow="visible"
     xlink:href="#a"
     height="100%"
     id="use1283" /></clipPath><clipPath
   id="clipPath1289"><use
     width="100%"
     overflow="visible"
     xlink:href="#a"
     height="100%"
     id="use1287" /></clipPath><clipPath
   id="n"><use
     y="0"
     x="0"
     style="overflow:visible"
     id="use83"
     height="100%"
     xlink:href="#m"
     overflow="visible"
     width="100%" /></clipPath><radialGradient
   id="p"
   gradientUnits="userSpaceOnUse"
   cy="48.52"
   cx="597.88"
   gradientTransform="translate(-576)"
   r="78.044"><stop
     stop-color="#3E2723"
     stop-opacity=".2"
     offset="0"
     id="stop94" /><stop
     stop-color="#3E2723"
     stop-opacity="0"
     offset="1"
     id="stop96" /></radialGradient><clipPath
   id="clipPath1305"><use
     width="100%"
     overflow="visible"
     xlink:href="#a"
     height="100%"
     id="use1303" /></clipPath><radialGradient
   id="q"
   gradientUnits="userSpaceOnUse"
   cy="96.138"
   cx="671.84"
   gradientTransform="translate(-576)"
   r="87.87"><stop
     stop-color="#263238"
     stop-opacity=".2"
     offset="0"
     id="stop101" /><stop
     stop-color="#263238"
     stop-opacity="0"
     offset="1"
     id="stop103" /></radialGradient><clipPath
   id="clipPath1312"><use
     width="100%"
     overflow="visible"
     xlink:href="#a"
     height="100%"
     id="use1310" /></clipPath><clipPath
   id="clipPath1316"><use
     width="100%"
     overflow="visible"
     xlink:href="#a"
     height="100%"
     id="use1314" /></clipPath><clipPath
   id="clipPath1320"><use
     width="100%"
     overflow="visible"
     xlink:href="#a"
     height="100%"
     id="use1318" /></clipPath><clipPath
   id="clipPath1324"><use
     width="100%"
     overflow="visible"
     xlink:href="#a"
     height="100%"
     id="use1322" /></clipPath><path
   inkscape:connector-curvature="0"
   d="m 8,184 h 83.77 l 38.88,-38.88 V 116 H 61.36 L 8,24.48 Z"
   id="e" /><path
   inkscape:connector-curvature="0"
   d="m 96,56 34.65,60 -38.88,68 H 184 V 56 Z"
   id="i" /><path
   inkscape:connector-curvature="0"
   d="M 21.97,8 V 48.34 L 61.36,116 96,56 h 88 V 8 Z"
   id="m" /><clipPath
   id="b-1"><use
     width="100%"
     overflow="visible"
     xlink:href="#a"
     height="100%"
     id="use5-7" /></clipPath><clipPath
   id="clipPath1232-2"><use
     width="100%"
     overflow="visible"
     xlink:href="#a"
     height="100%"
     id="use1230-2" /></clipPath><clipPath
   id="clipPath1236-6"><use
     width="100%"
     overflow="visible"
     xlink:href="#a"
     height="100%"
     id="use1234-1" /></clipPath><clipPath
   id="clipPath1244-1"><use
     width="100%"
     overflow="visible"
     xlink:href="#a"
     height="100%"
     id="use1242-5" /></clipPath><clipPath
   id="clipPath1248-9"><use
     width="100%"
     overflow="visible"
     xlink:href="#a"
     height="100%"
     id="use1246-4" /></clipPath><clipPath
   id="f-9"><use
     y="0"
     x="0"
     style="overflow:visible"
     id="use37-0"
     height="100%"
     xlink:href="#e-8"
     overflow="visible"
     width="100%" /></clipPath><clipPath
   id="clipPath1258-7"><use
     width="100%"
     overflow="visible"
     xlink:href="#a"
     height="100%"
     id="use1256-7" /></clipPath><clipPath
   id="clipPath1269-1"><use
     width="100%"
     overflow="visible"
     xlink:href="#a"
     height="100%"
     id="use1267-1" /></clipPath><clipPath
   id="j-5"><use
     y="0"
     x="0"
     style="overflow:visible"
     id="use62-9"
     height="100%"
     xlink:href="#i-5"
     overflow="visible"
     width="100%" /></clipPath><radialGradient
   id="l-7"
   gradientUnits="userSpaceOnUse"
   cy="55.948"
   cx="668.18"
   gradientTransform="translate(-576)"
   r="84.078"><stop
     stop-color="#3E2723"
     stop-opacity=".2"
     offset="0"
     id="stop73-7" /><stop
     stop-color="#3E2723"
     stop-opacity="0"
     offset="1"
     id="stop75-6" /></radialGradient><clipPath
   id="clipPath1285-7"><use
     width="100%"
     overflow="visible"
     xlink:href="#a"
     height="100%"
     id="use1283-3" /></clipPath><clipPath
   id="clipPath1289-6"><use
     width="100%"
     overflow="visible"
     xlink:href="#a"
     height="100%"
     id="use1287-5" /></clipPath><clipPath
   id="n-6"><use
     y="0"
     x="0"
     style="overflow:visible"
     id="use83-3"
     height="100%"
     xlink:href="#m-6"
     overflow="visible"
     width="100%" /></clipPath><radialGradient
   id="p-9"
   gradientUnits="userSpaceOnUse"
   cy="48.52"
   cx="597.88"
   gradientTransform="translate(-576)"
   r="78.044"><stop
     stop-color="#3E2723"
     stop-opacity=".2"
     offset="0"
     id="stop94-4" /><stop
     stop-color="#3E2723"
     stop-opacity="0"
     offset="1"
     id="stop96-8" /></radialGradient><clipPath
   id="clipPath1305-1"><use
     width="100%"
     overflow="visible"
     xlink:href="#a"
     height="100%"
     id="use1303-2" /></clipPath><radialGradient
   id="q-9"
   gradientUnits="userSpaceOnUse"
   cy="96.138"
   cx="671.84"
   gradientTransform="translate(-576)"
   r="87.87"><stop
     stop-color="#263238"
     stop-opacity=".2"
     offset="0"
     id="stop101-3" /><stop
     stop-color="#263238"
     stop-opacity="0"
     offset="1"
     id="stop103-9" /></radialGradient><clipPath
   id="clipPath1312-0"><use
     width="100%"
     overflow="visible"
     xlink:href="#a"
     height="100%"
     id="use1310-8" /></clipPath><clipPath
   id="clipPath1316-8"><use
     width="100%"
     overflow="visible"
     xlink:href="#a"
     height="100%"
     id="use1314-5" /></clipPath><clipPath
   id="clipPath1320-0"><use
     width="100%"
     overflow="visible"
     xlink:href="#a"
     height="100%"
     id="use1318-9" /></clipPath><clipPath
   id="clipPath1324-6"><use
     width="100%"
     overflow="visible"
     xlink:href="#a"
     height="100%"
     id="use1322-3" /></clipPath><path
   inkscape:connector-curvature="0"
   d="m 8,184 h 83.77 l 38.88,-38.88 V 116 H 61.36 L 8,24.48 Z"
   id="e-8" /><path
   inkscape:connector-curvature="0"
   d="m 96,56 34.65,60 -38.88,68 H 184 V 56 Z"
   id="i-5" /><path
   inkscape:connector-curvature="0"
   d="M 21.97,8 V 48.34 L 61.36,116 96,56 h 88 V 8 Z"
   id="m-6" /><radialGradient
   id="r"
   gradientUnits="userSpaceOnUse"
   cy="32.014"
   cx="34.285999"
   gradientTransform="translate(-23.079613,-106.2699)"
   r="176.75"><stop
     stop-color="#fff"
     stop-opacity=".1"
     offset="0"
     id="stop130" /><stop
     stop-color="#fff"
     stop-opacity="0"
     offset="1"
     id="stop132" /></radialGradient><clipPath
   id="b-0"><use
     y="0"
     x="0"
     style="overflow:visible"
     width="100%"
     overflow="visible"
     xlink:href="#a"
     height="100%"
     id="use5-5" /></clipPath><clipPath
   id="clipPath963"><use
     y="0"
     x="0"
     style="overflow:visible"
     width="100%"
     overflow="visible"
     xlink:href="#a"
     height="100%"
     id="use961" /></clipPath><clipPath
   id="clipPath967"><use
     y="0"
     x="0"
     style="overflow:visible"
     width="100%"
     overflow="visible"
     xlink:href="#a"
     height="100%"
     id="use965" /></clipPath><radialGradient
   id="q-94"
   gradientUnits="userSpaceOnUse"
   cy="96.138"
   cx="671.84003"
   gradientTransform="translate(-576)"
   r="87.870003"><stop
     stop-color="#263238"
     stop-opacity=".2"
     offset="0"
     id="stop101-6" /><stop
     stop-color="#263238"
     stop-opacity="0"
     offset="1"
     id="stop103-92" /></radialGradient><clipPath
   id="clipPath974"><use
     y="0"
     x="0"
     style="overflow:visible"
     width="100%"
     overflow="visible"
     xlink:href="#a"
     height="100%"
     id="use972" /></clipPath><radialGradient
   id="p-2"
   gradientUnits="userSpaceOnUse"
   cy="48.52"
   cx="597.88"
   gradientTransform="translate(-576)"
   r="78.043999"><stop
     stop-color="#3E2723"
     stop-opacity=".2"
     offset="0"
     id="stop94-47" /><stop
     stop-color="#3E2723"
     stop-opacity="0"
     offset="1"
     id="stop96-7" /></radialGradient><clipPath
   id="clipPath981"><use
     y="0"
     x="0"
     style="overflow:visible"
     width="100%"
     overflow="visible"
     xlink:href="#a"
     height="100%"
     id="use979" /></clipPath><clipPath
   id="clipPath985"><use
     y="0"
     x="0"
     style="overflow:visible"
     width="100%"
     overflow="visible"
     xlink:href="#a"
     height="100%"
     id="use983" /></clipPath><clipPath
   id="n-5"><use
     width="100%"
     overflow="visible"
     xlink:href="#m-0"
     height="100%"
     id="use83-4"
     style="overflow:visible"
     x="0"
     y="0" /></clipPath><radialGradient
   id="l-2"
   gradientUnits="userSpaceOnUse"
   cy="55.948002"
   cx="668.17999"
   gradientTransform="translate(-576)"
   r="84.078003"><stop
     stop-color="#3E2723"
     stop-opacity=".2"
     offset="0"
     id="stop73-8" /><stop
     stop-color="#3E2723"
     stop-opacity="0"
     offset="1"
     id="stop75-9" /></radialGradient><clipPath
   id="clipPath997"><use
     y="0"
     x="0"
     style="overflow:visible"
     width="100%"
     overflow="visible"
     xlink:href="#a"
     height="100%"
     id="use995" /></clipPath><clipPath
   id="clipPath1001"><use
     y="0"
     x="0"
     style="overflow:visible"
     width="100%"
     overflow="visible"
     xlink:href="#a"
     height="100%"
     id="use999" /></clipPath><clipPath
   id="j-3"><use
     width="100%"
     overflow="visible"
     xlink:href="#i-1"
     height="100%"
     id="use62-6"
     style="overflow:visible"
     x="0"
     y="0" /></clipPath><clipPath
   id="clipPath1010"><use
     y="0"
     x="0"
     style="overflow:visible"
     width="100%"
     overflow="visible"
     xlink:href="#a"
     height="100%"
     id="use1008" /></clipPath><clipPath
   id="clipPath1017"><use
     y="0"
     x="0"
     style="overflow:visible"
     width="100%"
     overflow="visible"
     xlink:href="#a"
     height="100%"
     id="use1015" /></clipPath><clipPath
   id="f-0"><use
     width="100%"
     overflow="visible"
     xlink:href="#e-1"
     height="100%"
     id="use37-5"
     style="overflow:visible"
     x="0"
     y="0" /></clipPath><clipPath
   id="clipPath1029"><use
     y="0"
     x="0"
     style="overflow:visible"
     width="100%"
     overflow="visible"
     xlink:href="#a"
     height="100%"
     id="use1027" /></clipPath><clipPath
   id="clipPath1033"><use
     y="0"
     x="0"
     style="overflow:visible"
     width="100%"
     overflow="visible"
     xlink:href="#a"
     height="100%"
     id="use1031" /></clipPath><clipPath
   id="clipPath1043"><use
     y="0"
     x="0"
     style="overflow:visible"
     width="100%"
     overflow="visible"
     xlink:href="#a"
     height="100%"
     id="use1041" /></clipPath><clipPath
   id="clipPath1047"><use
     y="0"
     x="0"
     style="overflow:visible"
     width="100%"
     overflow="visible"
     xlink:href="#a"
     height="100%"
     id="use1045" /></clipPath><path
   id="e-1"
   d="m 8,184 h 83.77 l 38.88,-38.88 V 116 H 61.36 L 8,24.48 Z"
   inkscape:connector-curvature="0" /><path
   id="i-1"
   d="m 96,56 34.65,60 -38.88,68 H 184 V 56 Z"
   inkscape:connector-curvature="0" /><path
   id="m-0"
   d="M 21.97,8 V 48.34 L 61.36,116 96,56 h 88 V 8 Z"
   inkscape:connector-curvature="0" /><circle
   r="88"
   cx="96"
   cy="96"
   id="a" /><path
   d="m8 184h83.77l38.88-38.88v-29.12h-69.29l-53.36-91.52z"
   id="e-6" /><path
   d="m96 56l34.65 60-38.88 68h92.23v-128z"
   id="i-2" /><path
   d="m21.97 8v40.34l39.39 67.66 34.64-60h88v-48z"
   id="m-8" /><defs
   id="defs1820"><path
     d="M 21.97,8 V 48.34 L 61.36,116 96,56 h 88 V 8 Z"
     id="path1928"
     inkscape:connector-curvature="0" /></defs><clipPath
   id="n-7"><use
     id="use1822"
     height="100%"
     xlink:href="#m-8"
     overflow="visible"
     width="100%"
     style="overflow:visible"
     x="0"
     y="0" /></clipPath><defs
   id="defs1799"><path
     d="m 96,56 34.65,60 -38.88,68 H 184 V 56 Z"
     id="path1918"
     inkscape:connector-curvature="0" /></defs><clipPath
   id="j-6"><use
     id="use1801"
     height="100%"
     xlink:href="#i-2"
     overflow="visible"
     width="100%"
     style="overflow:visible"
     x="0"
     y="0" /></clipPath><defs
   id="defs1774"><path
     d="m 8,184 h 83.77 l 38.88,-38.88 V 116 H 61.36 L 8,24.48 Z"
     id="path1902"
     inkscape:connector-curvature="0" /></defs><clipPath
   id="f-06"><use
     id="use1776"
     height="100%"
     xlink:href="#e-6"
     overflow="visible"
     width="100%"
     style="overflow:visible"
     x="0"
     y="0" /></clipPath><linearGradient
   x1="110.87"
   x2="52.537998"
   y1="164.5"
   gradientUnits="userSpaceOnUse"
   y2="130.33"
   id="linearGradient1897"><stop
     id="stop1762"
     offset="0"
     stop-opacity=".4"
     stop-color="#055524" /><stop
     id="stop1764"
     offset=".33"
     stop-opacity="0"
     stop-color="#055524" /></linearGradient><linearGradient
   x1="29.337"
   x2="81.836998"
   y1="75.021004"
   gradientUnits="userSpaceOnUse"
   y2="44.354"
   id="linearGradient1889"><stop
     id="stop1749"
     offset="0"
     stop-opacity=".6"
     stop-color="#A52714" /><stop
     id="stop1751"
     offset=".66"
     stop-opacity="0"
     stop-color="#A52714" /></linearGradient><linearGradient
   id="linearGradient1910"
   y2="114.13"
   gradientUnits="userSpaceOnUse"
   y1="49.804001"
   x2="136.55"
   x1="121.86"><stop
     stop-color="#EA6100"
     stop-opacity=".3"
     offset="0"
     id="stop1781" /><stop
     stop-color="#EA6100"
     stop-opacity="0"
     offset=".66"
     id="stop1783" /></linearGradient><clipPath
   id="b-3"><use
     y="0"
     x="0"
     style="overflow:visible"
     width="100%"
     overflow="visible"
     xlink:href="#a"
     height="100%"
     id="use5-1" /></clipPath><clipPath
   id="clipPath1024"><use
     y="0"
     x="0"
     style="overflow:visible"
     width="100%"
     overflow="visible"
     xlink:href="#a"
     height="100%"
     id="use1022" /></clipPath><clipPath
   id="clipPath1028"><use
     y="0"
     x="0"
     style="overflow:visible"
     width="100%"
     overflow="visible"
     xlink:href="#a"
     height="100%"
     id="use1026" /></clipPath><clipPath
   id="clipPath1035"><use
     y="0"
     x="0"
     style="overflow:visible"
     width="100%"
     overflow="visible"
     xlink:href="#a"
     height="100%"
     id="use1033" /></clipPath><clipPath
   id="clipPath1039"><use
     y="0"
     x="0"
     style="overflow:visible"
     width="100%"
     overflow="visible"
     xlink:href="#a"
     height="100%"
     id="use1037" /></clipPath><clipPath
   id="f-6"><use
     y="0"
     x="0"
     style="overflow:visible"
     id="use37-8"
     height="100%"
     xlink:href="#e-61"
     overflow="visible"
     width="100%" /></clipPath><clipPath
   id="clipPath1048"><use
     y="0"
     x="0"
     style="overflow:visible"
     width="100%"
     overflow="visible"
     xlink:href="#a"
     height="100%"
     id="use1046" /></clipPath><clipPath
   id="clipPath1058"><use
     y="0"
     x="0"
     style="overflow:visible"
     width="100%"
     overflow="visible"
     xlink:href="#a"
     height="100%"
     id="use1056" /></clipPath><clipPath
   id="j-66"><use
     y="0"
     x="0"
     style="overflow:visible"
     id="use62-4"
     height="100%"
     xlink:href="#i-59"
     overflow="visible"
     width="100%" /></clipPath><radialGradient
   id="l-9"
   gradientUnits="userSpaceOnUse"
   cy="55.948002"
   cx="668.17999"
   gradientTransform="translate(-576)"
   r="84.078003"><stop
     stop-color="#3E2723"
     stop-opacity=".2"
     offset="0"
     id="stop73-5" /><stop
     stop-color="#3E2723"
     stop-opacity="0"
     offset="1"
     id="stop75-0" /></radialGradient><clipPath
   id="clipPath1073"><use
     y="0"
     x="0"
     style="overflow:visible"
     width="100%"
     overflow="visible"
     xlink:href="#a"
     height="100%"
     id="use1071" /></clipPath><clipPath
   id="clipPath1077"><use
     y="0"
     x="0"
     style="overflow:visible"
     width="100%"
     overflow="visible"
     xlink:href="#a"
     height="100%"
     id="use1075" /></clipPath><clipPath
   id="n-4"><use
     y="0"
     x="0"
     style="overflow:visible"
     id="use83-8"
     height="100%"
     xlink:href="#m-4"
     overflow="visible"
     width="100%" /></clipPath><radialGradient
   id="p-7"
   gradientUnits="userSpaceOnUse"
   cy="48.52"
   cx="597.88"
   gradientTransform="translate(-576)"
   r="78.043999"><stop
     stop-color="#3E2723"
     stop-opacity=".2"
     offset="0"
     id="stop94-1" /><stop
     stop-color="#3E2723"
     stop-opacity="0"
     offset="1"
     id="stop96-72" /></radialGradient><clipPath
   id="clipPath1092"><use
     y="0"
     x="0"
     style="overflow:visible"
     width="100%"
     overflow="visible"
     xlink:href="#a"
     height="100%"
     id="use1090" /></clipPath><radialGradient
   id="q-7"
   gradientUnits="userSpaceOnUse"
   cy="96.138"
   cx="671.84003"
   gradientTransform="translate(-576)"
   r="87.870003"><stop
     stop-color="#263238"
     stop-opacity=".2"
     offset="0"
     id="stop101-2" /><stop
     stop-color="#263238"
     stop-opacity="0"
     offset="1"
     id="stop103-2" /></radialGradient><clipPath
   id="clipPath1099"><use
     y="0"
     x="0"
     style="overflow:visible"
     width="100%"
     overflow="visible"
     xlink:href="#a"
     height="100%"
     id="use1097" /></clipPath><clipPath
   id="clipPath1103"><use
     y="0"
     x="0"
     style="overflow:visible"
     width="100%"
     overflow="visible"
     xlink:href="#a"
     height="100%"
     id="use1101" /></clipPath><clipPath
   id="clipPath1107"><use
     y="0"
     x="0"
     style="overflow:visible"
     width="100%"
     overflow="visible"
     xlink:href="#a"
     height="100%"
     id="use1105" /></clipPath><clipPath
   id="clipPath1111"><use
     y="0"
     x="0"
     style="overflow:visible"
     width="100%"
     overflow="visible"
     xlink:href="#a"
     height="100%"
     id="use1109" /></clipPath><radialGradient
   id="r-6"
   gradientUnits="userSpaceOnUse"
   cy="32.014"
   cx="34.285999"
   gradientTransform="translate(-7,-7)"
   r="176.75"><stop
     stop-color="#fff"
     stop-opacity=".1"
     offset="0"
     id="stop130-1" /><stop
     stop-color="#fff"
     stop-opacity="0"
     offset="1"
     id="stop132-0" /></radialGradient><path
   inkscape:connector-curvature="0"
   d="m 8,184 h 83.77 l 38.88,-38.88 V 116 H 61.36 L 8,24.48 Z"
   id="e-61" /><path
   inkscape:connector-curvature="0"
   d="m 96,56 34.65,60 -38.88,68 H 184 V 56 Z"
   id="i-59" /><path
   inkscape:connector-curvature="0"
   d="M 21.97,8 V 48.34 L 61.36,116 96,56 h 88 V 8 Z"
   id="m-4" /><clipPath
   id="b-9"><use
     y="0"
     x="0"
     style="overflow:visible"
     width="100%"
     overflow="visible"
     xlink:href="#a"
     height="100%"
     id="use5-0" /></clipPath><clipPath
   id="clipPath1024-7"><use
     y="0"
     x="0"
     style="overflow:visible"
     width="100%"
     overflow="visible"
     xlink:href="#a"
     height="100%"
     id="use1022-7" /></clipPath><clipPath
   id="clipPath1028-1"><use
     y="0"
     x="0"
     style="overflow:visible"
     width="100%"
     overflow="visible"
     xlink:href="#a"
     height="100%"
     id="use1026-1" /></clipPath><clipPath
   id="clipPath1035-7"><use
     y="0"
     x="0"
     style="overflow:visible"
     width="100%"
     overflow="visible"
     xlink:href="#a"
     height="100%"
     id="use1033-7" /></clipPath><clipPath
   id="clipPath1039-6"><use
     y="0"
     x="0"
     style="overflow:visible"
     width="100%"
     overflow="visible"
     xlink:href="#a"
     height="100%"
     id="use1037-7" /></clipPath><clipPath
   id="f-3"><use
     y="0"
     x="0"
     style="overflow:visible"
     id="use37-6"
     height="100%"
     xlink:href="#e-9"
     overflow="visible"
     width="100%" /></clipPath><clipPath
   id="clipPath1048-3"><use
     y="0"
     x="0"
     style="overflow:visible"
     width="100%"
     overflow="visible"
     xlink:href="#a"
     height="100%"
     id="use1046-9" /></clipPath><clipPath
   id="clipPath1058-4"><use
     y="0"
     x="0"
     style="overflow:visible"
     width="100%"
     overflow="visible"
     xlink:href="#a"
     height="100%"
     id="use1056-8" /></clipPath><clipPath
   id="j-1"><use
     y="0"
     x="0"
     style="overflow:visible"
     id="use62-2"
     height="100%"
     xlink:href="#i-6"
     overflow="visible"
     width="100%" /></clipPath><radialGradient
   id="l-93"
   gradientUnits="userSpaceOnUse"
   cy="55.948002"
   cx="668.17999"
   gradientTransform="translate(-576)"
   r="84.078003"><stop
     stop-color="#3E2723"
     stop-opacity=".2"
     offset="0"
     id="stop73-9" /><stop
     stop-color="#3E2723"
     stop-opacity="0"
     offset="1"
     id="stop75-08" /></radialGradient><clipPath
   id="clipPath1073-8"><use
     y="0"
     x="0"
     style="overflow:visible"
     width="100%"
     overflow="visible"
     xlink:href="#a"
     height="100%"
     id="use1071-5" /></clipPath><clipPath
   id="clipPath1077-0"><use
     y="0"
     x="0"
     style="overflow:visible"
     width="100%"
     overflow="visible"
     xlink:href="#a"
     height="100%"
     id="use1075-9" /></clipPath><clipPath
   id="n-63"><use
     y="0"
     x="0"
     style="overflow:visible"
     id="use83-85"
     height="100%"
     xlink:href="#m-2"
     overflow="visible"
     width="100%" /></clipPath><radialGradient
   id="p-6"
   gradientUnits="userSpaceOnUse"
   cy="48.52"
   cx="597.88"
   gradientTransform="translate(-576)"
   r="78.043999"><stop
     stop-color="#3E2723"
     stop-opacity=".2"
     offset="0"
     id="stop94-11" /><stop
     stop-color="#3E2723"
     stop-opacity="0"
     offset="1"
     id="stop96-5" /></radialGradient><clipPath
   id="clipPath1092-9"><use
     y="0"
     x="0"
     style="overflow:visible"
     width="100%"
     overflow="visible"
     xlink:href="#a"
     height="100%"
     id="use1090-8" /></clipPath><radialGradient
   id="q-4"
   gradientUnits="userSpaceOnUse"
   cy="96.138"
   cx="671.84003"
   gradientTransform="translate(-576)"
   r="87.870003"><stop
     stop-color="#263238"
     stop-opacity=".2"
     offset="0"
     id="stop101-8" /><stop
     stop-color="#263238"
     stop-opacity="0"
     offset="1"
     id="stop103-1" /></radialGradient><clipPath
   id="clipPath1099-0"><use
     y="0"
     x="0"
     style="overflow:visible"
     width="100%"
     overflow="visible"
     xlink:href="#a"
     height="100%"
     id="use1097-3" /></clipPath><clipPath
   id="clipPath1103-0"><use
     y="0"
     x="0"
     style="overflow:visible"
     width="100%"
     overflow="visible"
     xlink:href="#a"
     height="100%"
     id="use1101-4" /></clipPath><clipPath
   id="clipPath1107-4"><use
     y="0"
     x="0"
     style="overflow:visible"
     width="100%"
     overflow="visible"
     xlink:href="#a"
     height="100%"
     id="use1105-4" /></clipPath><clipPath
   id="clipPath1111-4"><use
     y="0"
     x="0"
     style="overflow:visible"
     width="100%"
     overflow="visible"
     xlink:href="#a"
     height="100%"
     id="use1109-7" /></clipPath><radialGradient
   id="r-63"
   gradientUnits="userSpaceOnUse"
   cy="32.014"
   cx="34.285999"
   gradientTransform="translate(-7,-7)"
   r="176.75"><stop
     stop-color="#fff"
     stop-opacity=".1"
     offset="0"
     id="stop130-17" /><stop
     stop-color="#fff"
     stop-opacity="0"
     offset="1"
     id="stop132-5" /></radialGradient><path
   inkscape:connector-curvature="0"
   d="m 8,184 h 83.77 l 38.88,-38.88 V 116 H 61.36 L 8,24.48 Z"
   id="e-9" /><path
   inkscape:connector-curvature="0"
   d="m 96,56 34.65,60 -38.88,68 H 184 V 56 Z"
   id="i-6" /><path
   inkscape:connector-curvature="0"
   d="M 21.97,8 V 48.34 L 61.36,116 96,56 h 88 V 8 Z"
   id="m-2" /><clipPath
   clipPathUnits="userSpaceOnUse"
   id="clipPath1149"><path
     style="fill:#ffffff;stroke-width:4.32432365"
     inkscape:connector-curvature="0"
     id="path1151"
     d="M 184.43245,71.351348 C 169.72973,56.216212 149.40541,48 128.64866,48 84.540542,48 49.081078,83.891887 49.513516,127.56756 c 0,13.83784 3.89189,27.24325 10.378378,39.35136 L 48.64865,208 90.594591,197.18918 c 11.675679,6.48649 24.648659,9.51351 37.621619,9.51351 v 0 c 43.67568,0 79.13514,-35.89188 79.13514,-79.56755 0,-21.18919 -8.2162,-41.081089 -22.9189,-55.783792 z M 128.64866,193.2973 v 0 c -11.67568,0 -23.35135,-3.02702 -33.297311,-9.0811 l -2.594591,-1.29728 -25.081082,6.48648 6.486487,-24.64864 -1.729732,-2.59461 C 53.405406,131.45946 62.48649,90.81081 93.621624,71.78378 124.75677,52.756756 164.97298,61.837837 184,92.97297 c 19.02702,31.13514 9.94596,71.35135 -21.18918,90.37837 -9.94596,6.48649 -22.05405,9.94596 -34.16216,9.94596 z m 38.05404,-48 -4.75674,-2.16217 c 0,0 -6.91893,-3.02701 -11.24326,-5.18918 -0.43241,0 -0.86486,-0.43244 -1.29729,-0.43244 -1.29729,0 -2.16216,0.43244 -3.02704,0.86485 v 0 c 0,0 -0.43241,0.43245 -6.48648,7.35136 -0.43242,0.86488 -1.29728,1.2973 -2.16216,1.2973 h -0.43242 c -0.43245,0 -1.29731,-0.43242 -1.72974,-0.86486 l -2.16216,-0.86486 v 0 c -4.75675,-2.16217 -9.08108,-4.75677 -12.54055,-8.21622 -0.86486,-0.86488 -2.16216,-1.72973 -3.02703,-2.5946 -3.02701,-3.02702 -6.05404,-6.48648 -8.2162,-10.37837 l -0.43245,-0.86487 c -0.43241,-0.43243 -0.43241,-0.86487 -0.86486,-1.72974 0,-0.86486 0,-1.72971 0.43245,-2.16216 0,0 1.72972,-2.16216 3.02702,-3.45946 0.86486,-0.86486 1.2973,-2.16216 2.16217,-3.02702 0.86486,-1.2973 1.29729,-3.02703 0.86486,-4.32433 -0.43245,-2.16216 -5.62164,-13.83783 -6.91893,-16.43243 -0.86487,-1.29729 -1.72973,-1.72973 -3.02702,-2.162159 h -1.2973 c -0.86486,0 -2.16216,0 -3.45947,0 -0.864854,0 -1.729718,0.432429 -2.594584,0.432429 l -0.43243,0.43244 c -0.864864,0.43243 -1.729737,1.29729 -2.594596,1.72973 -0.864866,0.86486 -1.297294,1.72973 -2.16216,2.59459 -3.027033,3.89189 -4.756756,8.64865 -4.756756,13.4054 v 0 c 0,3.45947 0.864864,6.91893 2.16216,9.94596 l 0.432429,1.2973 c 3.891891,8.21621 9.081083,15.56756 15.999997,22.05404 l 1.72973,1.72973 c 1.29729,1.2973 2.5946,2.16216 3.45946,3.45946 9.0811,7.78379 19.45946,13.40542 31.13514,16.43244 1.2973,0.43242 3.02703,0.43242 4.32433,0.86486 v 0 c 1.2973,0 3.02702,0 4.32432,0 2.16216,0 4.75675,-0.86486 6.48649,-1.72972 1.2973,-0.86488 2.16217,-0.86488 3.02703,-1.72975 L 161.51351,160 c 0.86486,-0.86486 1.72974,-1.29731 2.59461,-2.16216 0.86486,-0.86487 1.72972,-1.72973 2.16216,-2.5946 0.86486,-1.72973 1.29729,-3.8919 1.72973,-6.05406 0,-0.86486 0,-2.16216 0,-3.02702 0,0 -0.43244,-0.43244 -1.29731,-0.86486 z"
     class="logo_white" /></clipPath></defs><sodipodi:namedview
   pagecolor="#ffffff"
   bordercolor="#666666"
   borderopacity="1"
   objecttolerance="10"
   gridtolerance="10"
   guidetolerance="10"
   inkscape:pageopacity="0"
   inkscape:pageshadow="2"
   inkscape:window-width="2504"
   inkscape:window-height="1536"
   id="namedview249"
   showgrid="false"
   inkscape:zoom="2.8284271"
   inkscape:cx="38.834702"
   inkscape:cy="99.411826"
   inkscape:window-x="70"
   inkscape:window-y="27"
   inkscape:window-maximized="0"
   inkscape:current-layer="layer1"
   inkscape:pagecheckerboard="true" />

<g
   inkscape:groupmode="layer"
   id="layer4"
   inkscape:label="Squircle-Background"
   style="display:inline"><rect
     style="display:inline;fill:#0ba011;fill-opacity:1;stroke-width:1.41822851"
     id="rect1101"
     width="248"
     height="248"
     x="4"
     y="4"
     ry="25.455845" /></g><g
   inkscape:groupmode="layer"
   id="layer3"
   inkscape:label="Squircle-Shadow"
   style="display:inline"><path
     style="display:inline;opacity:0.5;fill:#17171d;fill-opacity:0.39215686;stroke-width:1.41822851"
     d="m 4,216.54492 v 10 C 4,240.64746 15.35254,252 29.45508,252 H 226.54492 C 240.64746,252 252,240.64746 252,226.54492 v -10 C 252,230.64746 240.64746,242 226.54492,242 H 29.45508 C 15.35254,242 4,230.64746 4,216.54492 Z"
     id="rect1101-3"
     inkscape:connector-curvature="0" /></g><g
   inkscape:groupmode="layer"
   id="layer2"
   inkscape:label="Circle-Background"
   style="display:none"><circle
     style="display:none;fill:#0ba011;fill-opacity:1;stroke:none;stroke-width:2.74049902;stroke-miterlimit:4;stroke-dasharray:none;stroke-opacity:1"
     id="path1090"
     cx="128"
     cy="128"
     r="124" /></g><g
   inkscape:groupmode="layer"
   id="layer6"
   inkscape:label="Circle-Shadow"
   style="display:none"><g
     id="g2548"
     style="display:none"
     transform="translate(-2.960187,1.58543)"><path
       d="m 256.36019,128.41457 c 0,-33.900005 -13.5,-64.500005 -35.4,-86.900002 -0.4,-0.3 -0.7,-0.7 -1.1,-1 21.3,22.299997 34.5,52.599997 34.5,86.000002 0,68.5 -55.2,124 -123.4,124 -32.900003,0 -62.900003,-13 -85.000003,-34.1 0.3,0.3 0.6,0.6 0.9,0.9 22.2,21.7 52.6,35.1 86.000003,35.1 68.2,0 123.5,-55.5 123.5,-124 z"
       id="path238"
       inkscape:connector-curvature="0"
       style="display:inline;opacity:0.1" /><path
       d="m 219.86019,40.414568 c -0.7,-0.6 -1.4,-1.3 -2,-1.9 -0.7,-0.6 -1.4,-1.2 -2.1,-1.9 19.1,21.799997 30.7,50.499997 30.7,81.800002 0,68.5 -55.2,124 -123.4,124 -30.900003,0 -59.200003,-11.4 -80.900003,-30.3 0.6,0.7 1.2,1.4 1.9,2.1 0.6,0.7 1.3,1.4 1.9,2 22.1,21.1 52.1,34.1 85.000003,34.1 68.2,0 123.4,-55.5 123.4,-124 0,-33.300005 -13.1,-63.600005 -34.5,-85.900002 z"
       id="path240"
       inkscape:connector-curvature="0"
       style="display:inline;opacity:0.2" /><path
       d="m 220.96019,41.514568 c 21.9,22.399997 35.4,53.099997 35.4,86.900002 0,68.5 -55.2,124 -123.4,124 -33.500003,0 -63.800003,-13.4 -86.000003,-35.1 22.4,22.9 53.600003,37.1 88.000003,37.1 68.2,0 123.4,-55.5 123.4,-124 -0.1,-34.900005 -14.4,-66.400005 -37.4,-88.900002 z"
       id="path236"
       inkscape:connector-curvature="0"
       style="display:inline;opacity:0.05" /></g></g><g
   inkscape:groupmode="layer"
   id="layer1"
   inkscape:label="Icon"
   style="display:inline"><g
     id="g1158"><circle
       clip-path="url(#clipPath1149)"
       r="124"
       cy="128"
       cx="128"
       id="path1090-3"
       style="display:inline;fill:#0ba011;fill-opacity:1;stroke:none;stroke-width:2.74049902;stroke-miterlimit:4;stroke-dasharray:none;stroke-opacity:1" /><path
       inkscape:connector-curvature="0"
       id="path1154"
       d="m 123.1577,192.97242 c -9.87038,-0.87257 -17.79448,-3.36868 -27.624997,-8.70194 l -2.75,-1.49193 -12.372751,3.21066 c -6.805014,1.76587 -12.407811,3.17561 -12.450662,3.13276 -0.04285,-0.0429 1.334263,-5.43599 3.060252,-11.98475 1.725988,-6.54876 3.138161,-12.07021 3.138161,-12.2699 0,-0.19969 -0.606295,-1.29506 -1.347322,-2.43417 -4.731546,-7.27333 -8.134965,-16.45435 -9.525587,-25.6961 -0.562648,-3.73923 -0.758371,-11.20954 -0.393002,-15 0.864542,-8.96904 3.156509,-16.77365 7.232549,-24.628265 3.18518,-6.137915 6.502984,-10.630077 11.640105,-15.760197 16.76026,-16.737418 41.584834,-23.305059 64.143254,-16.969873 11.04859,3.102826 20.54557,8.631733 28.47419,16.576964 13.20983,13.237513 20.36802,32.038481 19.26297,50.594091 -0.55262,9.2793 -2.73051,17.4106 -6.84661,25.56228 -3.43892,6.81057 -7.22789,11.96988 -12.67114,17.25387 -10.31185,10.01015 -23.40491,16.4491 -37.09157,18.24101 -3.76745,0.49325 -10.44368,0.66908 -13.87784,0.36549 z m 32.01743,-29.30678 c 3.20115,-1.09071 5.25059,-2.35822 8.08151,-4.99813 2.82709,-2.63634 3.47277,-3.64821 4.2628,-6.68046 0.23286,-0.89375 0.48606,-2.58705 0.56267,-3.76288 0.16895,-2.59308 0.67003,-2.15919 -5.88189,-5.09308 -2.625,-1.17545 -6.44249,-2.92623 -8.48333,-3.89061 -5.75572,-2.71984 -5.93097,-2.66809 -11.18623,3.30311 -4.22522,4.80083 -4.47337,4.94715 -6.54258,3.85785 -0.66296,-0.34901 -2.61163,-1.30926 -4.33038,-2.13389 -4.88014,-2.34143 -8.25745,-4.79825 -13.96041,-10.1555 -4.25169,-3.99394 -9.28959,-11.22465 -9.28959,-13.33298 0,-0.78594 0.31673,-1.25976 2.61839,-3.91702 0.83369,-0.9625 1.92282,-2.36875 2.42028,-3.125 2.37141,-3.60507 2.33459,-3.88423 -1.77917,-13.49148 -3.63492,-8.489003 -4.12777,-9.31117 -6.06738,-10.121588 -1.09828,-0.45889 -4.39961,-0.51646 -6.573314,-0.114627 -3.56858,0.659687 -7.972718,5.451767 -10.1144,11.005335 -1.999267,5.18427 -1.897786,10.34827 0.323977,16.48599 2.32036,6.41009 7.129323,13.99355 12.991197,20.48637 2.99381,3.31604 9.8986,9.91519 12.3991,11.85024 8.60829,6.66166 21.05774,12.53427 30.20507,14.24823 1.25312,0.2348 3.11407,0.34044 5.20125,0.29526 2.71656,-0.0588 3.56062,-0.17618 5.14243,-0.71514 z"
       style="opacity:1;fill:#0ba011;fill-opacity:1;stroke:#0ba011;stroke-width:1.25;stroke-miterlimit:4;stroke-dasharray:none;stroke-opacity:1" /></g><path
     class="logo_white"
     d="M 184.43245,71.351348 C 169.72973,56.216212 149.40541,48 128.64866,48 84.540542,48 49.081078,83.891887 49.513516,127.56756 c 0,13.83784 3.89189,27.24325 10.378378,39.35136 L 48.64865,208 90.594591,197.18918 c 11.675679,6.48649 24.648659,9.51351 37.621619,9.51351 v 0 c 43.67568,0 79.13514,-35.89188 79.13514,-79.56755 0,-21.18919 -8.2162,-41.081089 -22.9189,-55.783792 z M 128.64866,193.2973 v 0 c -11.67568,0 -23.35135,-3.02702 -33.297311,-9.0811 l -2.594591,-1.29728 -25.081082,6.48648 6.486487,-24.64864 -1.729732,-2.59461 C 53.405406,131.45946 62.48649,90.81081 93.621624,71.78378 124.75677,52.756756 164.97298,61.837837 184,92.97297 c 19.02702,31.13514 9.94596,71.35135 -21.18918,90.37837 -9.94596,6.48649 -22.05405,9.94596 -34.16216,9.94596 z m 38.05404,-48 -4.75674,-2.16217 c 0,0 -6.91893,-3.02701 -11.24326,-5.18918 -0.43241,0 -0.86486,-0.43244 -1.29729,-0.43244 -1.29729,0 -2.16216,0.43244 -3.02704,0.86485 v 0 c 0,0 -0.43241,0.43245 -6.48648,7.35136 -0.43242,0.86488 -1.29728,1.2973 -2.16216,1.2973 h -0.43242 c -0.43245,0 -1.29731,-0.43242 -1.72974,-0.86486 l -2.16216,-0.86486 v 0 c -4.75675,-2.16217 -9.08108,-4.75677 -12.54055,-8.21622 -0.86486,-0.86488 -2.16216,-1.72973 -3.02703,-2.5946 -3.02701,-3.02702 -6.05404,-6.48648 -8.2162,-10.37837 l -0.43245,-0.86487 c -0.43241,-0.43243 -0.43241,-0.86487 -0.86486,-1.72974 0,-0.86486 0,-1.72971 0.43245,-2.16216 0,0 1.72972,-2.16216 3.02702,-3.45946 0.86486,-0.86486 1.2973,-2.16216 2.16217,-3.02702 0.86486,-1.2973 1.29729,-3.02703 0.86486,-4.32433 -0.43245,-2.16216 -5.62164,-13.83783 -6.91893,-16.43243 -0.86487,-1.29729 -1.72973,-1.72973 -3.02702,-2.162159 h -1.2973 c -0.86486,0 -2.16216,0 -3.45947,0 -0.864854,0 -1.729718,0.432429 -2.594584,0.432429 l -0.43243,0.43244 c -0.864864,0.43243 -1.729737,1.29729 -2.594596,1.72973 -0.864866,0.86486 -1.297294,1.72973 -2.16216,2.59459 -3.027033,3.89189 -4.756756,8.64865 -4.756756,13.4054 v 0 c 0,3.45947 0.864864,6.91893 2.16216,9.94596 l 0.432429,1.2973 c 3.891891,8.21621 9.081083,15.56756 15.999997,22.05404 l 1.72973,1.72973 c 1.29729,1.2973 2.5946,2.16216 3.45946,3.45946 9.0811,7.78379 19.45946,13.40542 31.13514,16.43244 1.2973,0.43242 3.02703,0.43242 4.32433,0.86486 v 0 c 1.2973,0 3.02702,0 4.32432,0 2.16216,0 4.75675,-0.86486 6.48649,-1.72972 1.2973,-0.86488 2.16217,-0.86488 3.02703,-1.72975 L 161.51351,160 c 0.86486,-0.86486 1.72974,-1.29731 2.59461,-2.16216 0.86486,-0.86487 1.72972,-1.72973 2.16216,-2.5946 0.86486,-1.72973 1.29729,-3.8919 1.72973,-6.05406 0,-0.86486 0,-2.16216 0,-3.02702 0,0 -0.43244,-0.43244 -1.29731,-0.86486 z"
     id="path6-6"
     inkscape:connector-curvature="0"
     style="fill:#ffffff;stroke-width:4.32432365" /></g></svg>