<?xml version="1.0" encoding="UTF-8" standalone="no"?>
<svg
   xmlns:dc="http://purl.org/dc/elements/1.1/"
   xmlns:cc="http://creativecommons.org/ns#"
   xmlns:rdf="http://www.w3.org/1999/02/22-rdf-syntax-ns#"
   xmlns:svg="http://www.w3.org/2000/svg"
   xmlns="http://www.w3.org/2000/svg"
   xmlns:sodipodi="http://sodipodi.sourceforge.net/DTD/sodipodi-0.dtd"
   xmlns:inkscape="http://www.inkscape.org/namespaces/inkscape"
   height="16"
   width="16"
   version="1.1"
   id="svg4"
   sodipodi:docname="document-open-symbolic.svg"
   inkscape:version="0.92.3 (2405546, 2018-03-11)">
  <metadata
     id="metadata10">
    <rdf:RDF>
      <cc:Work
         rdf:about="">
        <dc:format>image/svg+xml</dc:format>
        <dc:type
           rdf:resource="http://purl.org/dc/dcmitype/StillImage" />
      </cc:Work>
    </rdf:RDF>
  </metadata>
  <defs
     id="defs8" />
  <sodipodi:namedview
     pagecolor="#ffffff"
     bordercolor="#666666"
     borderopacity="1"
     objecttolerance="10"
     gridtolerance="10"
     guidetolerance="10"
     inkscape:pageopacity="0"
     inkscape:pageshadow="2"
     inkscape:window-width="1920"
     inkscape:window-height="1019"
     id="namedview6"
     showgrid="false"
     inkscape:zoom="20.85965"
     inkscape:cx="-0.26579588"
     inkscape:cy="1.265456"
     inkscape:window-x="0"
     inkscape:window-y="27"
     inkscape:window-maximized="0"
     inkscape:current-layer="svg4" />
  <path
     style="fill:#808080;fill-opacity:1;stroke:none;stroke-width:0.94117647;stroke-miterlimit:4;stroke-dasharray:none;stroke-opacity:1;opacity:0.5"
     d="M 1.9199219 1.3066406 C 1.1165609 1.3066406 0.47070312 1.9544525 0.47070312 2.7578125 L 0.47070312 13.242188 C 0.47070312 14.045547 1.1165609 14.693359 1.9199219 14.693359 L 14.080078 14.693359 C 14.883437 14.693359 15.529297 14.045547 15.529297 13.242188 L 15.529297 4.0117188 C 15.529297 3.2083598 14.883437 2.5625 14.080078 2.5625 L 5.9082031 2.5625 L 4.6542969 1.3066406 L 1.9199219 1.3066406 z M 5.9394531 6.2558594 L 10.060547 6.2558594 C 10.37306 6.2558594 10.625 6.5058474 10.625 6.8183594 L 10.625 11.691406 C 10.625 12.003918 10.37306 12.255859 10.060547 12.255859 L 5.9394531 12.255859 C 5.6269406 12.255859 5.375 12.003918 5.375 11.691406 L 5.375 6.8183594 C 5.375 6.5058474 5.6269406 6.2558594 5.9394531 6.2558594 z M 6.3125 7.0117188 C 6.208625 7.0117188 6.125 7.0953437 6.125 7.1992188 C 6.125 7.3030887 6.208625 7.3867188 6.3125 7.3867188 L 9.6875 7.3867188 C 9.7913755 7.3867188 9.875 7.3030938 9.875 7.1992188 C 9.875 7.0953488 9.7913755 7.0117188 9.6875 7.0117188 L 6.3125 7.0117188 z M 6.3125 7.7617188 C 6.208625 7.7617188 6.125 7.8453437 6.125 7.9492188 C 6.125 8.0530888 6.208625 8.1367188 6.3125 8.1367188 L 9.6875 8.1367188 C 9.7913755 8.1367188 9.875 8.0530938 9.875 7.9492188 C 9.875 7.8453488 9.7913755 7.7617188 9.6875 7.7617188 L 6.3125 7.7617188 z M 6.3125 8.5117188 C 6.208625 8.5117188 6.125 8.5953437 6.125 8.6992188 C 6.125 8.8030888 6.208625 8.8867188 6.3125 8.8867188 L 9.6875 8.8867188 C 9.7913755 8.8867188 9.875 8.8030938 9.875 8.6992188 C 9.875 8.5953487 9.7913755 8.5117188 9.6875 8.5117188 L 6.3125 8.5117188 z M 6.3125 9.2617188 C 6.208625 9.2617188 6.125 9.3453437 6.125 9.4492188 C 6.125 9.5530888 6.208625 9.6367188 6.3125 9.6367188 L 7.8125 9.6367188 C 7.916375 9.6367188 8 9.5530938 8 9.4492188 C 8 9.3453387 7.916375 9.2617188 7.8125 9.2617188 L 6.3125 9.2617188 z "
     id="rect1188" />
  <path
     style="fill:#808080;fill-opacity:1;stroke:none;stroke-width:0.94117647;stroke-miterlimit:4;stroke-dasharray:none;stroke-opacity:1"
     d="M 6.7441406 3.8164062 L 5.4902344 5.0722656 L 1.6484375 5.0722656 C 0.9957075 5.0722656 0.47070313 5.59727 0.47070312 6.25 L 0.47070312 13.513672 C 0.47070313 14.166402 0.9957075 14.693359 1.6484375 14.693359 L 14.351562 14.693359 C 15.004291 14.693359 15.529297 14.166402 15.529297 13.513672 L 15.529297 4.9960938 C 15.529297 4.3433637 15.004292 3.8164062 14.351562 3.8164062 L 6.7441406 3.8164062 z M 5.9394531 6.2558594 L 10.060547 6.2558594 C 10.37306 6.2558594 10.625 6.5058474 10.625 6.8183594 L 10.625 11.691406 C 10.625 12.003918 10.37306 12.255859 10.060547 12.255859 L 5.9394531 12.255859 C 5.6269406 12.255859 5.375 12.003918 5.375 11.691406 L 5.375 6.8183594 C 5.375 6.5058474 5.6269406 6.2558594 5.9394531 6.2558594 z M 6.3125 7.0117188 C 6.208625 7.0117188 6.125 7.0953437 6.125 7.1992188 C 6.125 7.3030887 6.208625 7.3867188 6.3125 7.3867188 L 9.6875 7.3867188 C 9.7913755 7.3867188 9.875 7.3030938 9.875 7.1992188 C 9.875 7.0953488 9.7913755 7.0117188 9.6875 7.0117188 L 6.3125 7.0117188 z M 6.3125 7.7617188 C 6.208625 7.7617188 6.125 7.8453437 6.125 7.9492188 C 6.125 8.0530888 6.208625 8.1367188 6.3125 8.1367188 L 9.6875 8.1367188 C 9.7913755 8.1367188 9.875 8.0530938 9.875 7.9492188 C 9.875 7.8453488 9.7913755 7.7617188 9.6875 7.7617188 L 6.3125 7.7617188 z M 6.3125 8.5117188 C 6.208625 8.5117188 6.125 8.5953437 6.125 8.6992188 C 6.125 8.8030888 6.208625 8.8867188 6.3125 8.8867188 L 9.6875 8.8867188 C 9.7913755 8.8867188 9.875 8.8030938 9.875 8.6992188 C 9.875 8.5953487 9.7913755 8.5117188 9.6875 8.5117188 L 6.3125 8.5117188 z M 6.3125 9.2617188 C 6.208625 9.2617188 6.125 9.3453437 6.125 9.4492188 C 6.125 9.5530888 6.208625 9.6367188 6.3125 9.6367188 L 7.8125 9.6367188 C 7.916375 9.6367188 8 9.5530938 8 9.4492188 C 8 9.3453387 7.916375 9.2617188 7.8125 9.2617188 L 6.3125 9.2617188 z "
     id="rect1188-3" />
</svg>
