<?xml version="1.0" encoding="UTF-8" standalone="no"?>
<svg
   xmlns:dc="http://purl.org/dc/elements/1.1/"
   xmlns:cc="http://creativecommons.org/ns#"
   xmlns:rdf="http://www.w3.org/1999/02/22-rdf-syntax-ns#"
   xmlns:svg="http://www.w3.org/2000/svg"
   xmlns="http://www.w3.org/2000/svg"
   xmlns:sodipodi="http://sodipodi.sourceforge.net/DTD/sodipodi-0.dtd"
   xmlns:inkscape="http://www.inkscape.org/namespaces/inkscape"
   height="16"
   width="16"
   version="1.1"
   id="svg12"
   sodipodi:docname="accessories-calculator-symbolic.svg"
   inkscape:version="0.92.3 (2405546, 2018-03-11)">
  <metadata
     id="metadata18">
    <rdf:RDF>
      <cc:Work
         rdf:about="">
        <dc:format>image/svg+xml</dc:format>
        <dc:type
           rdf:resource="http://purl.org/dc/dcmitype/StillImage" />
      </cc:Work>
    </rdf:RDF>
  </metadata>
  <defs
     id="defs16" />
  <sodipodi:namedview
     pagecolor="#ffffff"
     bordercolor="#666666"
     borderopacity="1"
     objecttolerance="10"
     gridtolerance="10"
     guidetolerance="10"
     inkscape:pageopacity="0"
     inkscape:pageshadow="2"
     inkscape:window-width="960"
     inkscape:window-height="1019"
     id="namedview14"
     showgrid="false"
     inkscape:zoom="20.85965"
     inkscape:cx="10.4247"
     inkscape:cy="5.6389219"
     inkscape:window-x="960"
     inkscape:window-y="27"
     inkscape:window-maximized="0"
     inkscape:current-layer="svg12" />
  <circle
     style="fill:#ffffff;fill-opacity:1;stroke:none;stroke-width:0.17680639;stroke-miterlimit:4;stroke-dasharray:none;stroke-opacity:1"
     id="path1090"
     cx="8"
     cy="8"
     r="8" />
  <text
     xml:space="preserve"
     style="font-style:normal;font-variant:normal;font-weight:normal;font-stretch:normal;font-size:2.58064508px;line-height:1.25;font-family:'Star Labs';-inkscape-font-specification:'Star Labs';letter-spacing:0px;word-spacing:0px;fill:#ffffff;fill-opacity:1;stroke:none;stroke-width:0.06451613"
     x="10.35613"
     y="13.959226"
     id="text1093-7"><tspan
       sodipodi:role="line"
       id="tspan1091-9"
       x="10.35613"
       y="13.959226"
       style="font-size:6.19354868px;fill:#ffffff;stroke-width:0.06451613">=</tspan></text>
  <path
     style="fill:#808080;fill-opacity:1;stroke:none;stroke-width:0.17680639;stroke-miterlimit:4;stroke-dasharray:none;stroke-opacity:1"
     d="M 8 0 A 8.0000001 8.0000001 0 0 0 0 8 L 8 8 L 8 0 z M 2.9667969 4.2832031 L 6.0644531 4.2832031 L 6.0644531 4.7480469 L 2.9667969 4.7480469 L 2.9667969 4.2832031 z "
     id="path1090-8-0" />
  <path
     style="fill:#808080;fill-opacity:1;stroke:none;stroke-width:0.17680639;stroke-miterlimit:4;stroke-dasharray:none;stroke-opacity:1;opacity:0.5"
     d="M 8 8 L 8 16 A 8.0000001 8.0000001 0 0 0 16 8 L 8 8 z M 10.066406 10.527344 L 12.902344 10.527344 L 12.902344 11.035156 L 10.066406 11.035156 L 10.066406 10.527344 z M 10.066406 11.933594 L 12.902344 11.933594 L 12.902344 12.441406 L 10.066406 12.441406 L 10.066406 11.933594 z "
     id="path1090-8-0-93-2" />
  <path
     style="fill:#808080;fill-opacity:1;stroke:none;stroke-width:0.17680639;stroke-miterlimit:4;stroke-dasharray:none;stroke-opacity:1"
     d="M 8 0 L 8 8 L 16 8 A 8.0000001 8.0000001 0 0 0 8 0 z M 9.9941406 2.9863281 L 10.6875 2.9863281 C 10.836145 3.2092959 11.098867 3.5724299 11.474609 4.0761719 C 11.780158 3.6756557 12.04461 3.3125217 12.267578 2.9863281 L 12.912109 2.9863281 C 12.639593 3.3785862 12.269315 3.859881 11.802734 4.4296875 C 12.368412 5.131623 12.782617 5.671133 13.046875 6.046875 L 12.353516 6.046875 C 12.134677 5.7289395 11.834949 5.3199254 11.455078 4.8203125 L 11.257812 5.0859375 C 10.923361 5.531873 10.692453 5.8528105 10.564453 6.046875 L 9.9199219 6.046875 C 10.196567 5.6504879 10.60212 5.123313 11.134766 4.4667969 C 10.651669 3.8763452 10.270786 3.3827152 9.9941406 2.9863281 z "
     id="path1090-8-0-93" />
  <path
     style="fill:#808080;fill-opacity:1;stroke:none;stroke-width:0.17680639;stroke-miterlimit:4;stroke-dasharray:none;stroke-opacity:1"
     d="M 0 8 A 8.0000001 8.0000001 0 0 0 8 16 L 8 8 L 0 8 z M 4.2617188 10.003906 L 4.7695312 10.003906 L 4.7695312 11.242188 L 5.9335938 11.242188 L 5.9335938 11.724609 L 4.7695312 11.724609 L 4.7695312 12.964844 L 4.2617188 12.964844 L 4.2617188 11.724609 L 3.0976562 11.724609 L 3.0976562 11.242188 L 4.2617188 11.242188 L 4.2617188 10.003906 z "
     id="path1090-8-0-9-4" />
</svg>
