<?xml version="1.0" encoding="UTF-8" standalone="no"?>
<svg
   xmlns:dc="http://purl.org/dc/elements/1.1/"
   xmlns:cc="http://creativecommons.org/ns#"
   xmlns:rdf="http://www.w3.org/1999/02/22-rdf-syntax-ns#"
   xmlns:svg="http://www.w3.org/2000/svg"
   xmlns="http://www.w3.org/2000/svg"
   xmlns:sodipodi="http://sodipodi.sourceforge.net/DTD/sodipodi-0.dtd"
   xmlns:inkscape="http://www.inkscape.org/namespaces/inkscape"
   height="16"
   width="16"
   version="1.1"
   id="svg4"
   sodipodi:docname="utilities-system-monitor-symbolic.svg"
   inkscape:version="0.92.3 (2405546, 2018-03-11)">
  <metadata
     id="metadata10">
    <rdf:RDF>
      <cc:Work
         rdf:about="">
        <dc:format>image/svg+xml</dc:format>
        <dc:type
           rdf:resource="http://purl.org/dc/dcmitype/StillImage" />
      </cc:Work>
    </rdf:RDF>
  </metadata>
  <defs
     id="defs8">
    <clipPath
       clipPathUnits="userSpaceOnUse"
       id="clipPath1112">
      <circle
         style="display:inline;fill:#17171d;fill-opacity:1;stroke:none;stroke-width:2.74049902;stroke-miterlimit:4;stroke-dasharray:none;stroke-opacity:1"
         id="circle1114"
         cx="128"
         cy="128"
         r="124" />
    </clipPath>
  </defs>
  <sodipodi:namedview
     pagecolor="#ffffff"
     bordercolor="#666666"
     borderopacity="1"
     objecttolerance="10"
     gridtolerance="10"
     guidetolerance="10"
     inkscape:pageopacity="0"
     inkscape:pageshadow="2"
     inkscape:window-width="1920"
     inkscape:window-height="1019"
     id="namedview6"
     showgrid="false"
     inkscape:zoom="29.5"
     inkscape:cx="7.5889072"
     inkscape:cy="6.8939565"
     inkscape:window-x="0"
     inkscape:window-y="27"
     inkscape:window-maximized="1"
     inkscape:current-layer="svg4" />
  <path
     style="display:inline;fill:#808080;fill-opacity:1;stroke:none;stroke-width:0.17680639;stroke-miterlimit:4;stroke-dasharray:none;stroke-opacity:1"
     d="M 8 0 A 8 8 0 0 0 0.017578125 7.6503906 L 1.6445312 7.6503906 L 3.1191406 2.1464844 L 5.7578125 11.996094 L 6.90625 7.7128906 L 7.5878906 5.1679688 L 8.4160156 8.2558594 L 8.6777344 7.2753906 L 15.960938 7.2753906 A 8 8 0 0 0 8 0 z M 3.1191406 4.0039062 L 2.0136719 8.1308594 L 0.00390625 8.1308594 A 8 8 0 0 0 8 16 A 8 8 0 0 0 16 8 A 8 8 0 0 0 15.992188 7.7578125 L 9.046875 7.7578125 L 8.4160156 10.113281 L 7.5878906 7.0253906 L 7.3710938 7.8359375 L 5.7578125 13.853516 L 3.1191406 4.0039062 z "
     id="path1090" />
  <path
     style="fill:none;stroke:#000000;stroke-width:0.06451613px;stroke-linecap:butt;stroke-linejoin:miter;stroke-opacity:1"
     d="m 2.7899989,6.0475743 v 0"
     id="path1167"
     inkscape:connector-curvature="0" />
</svg>
