<?xml version="1.0" encoding="UTF-8" standalone="no"?>
<svg
   xmlns:dc="http://purl.org/dc/elements/1.1/"
   xmlns:cc="http://creativecommons.org/ns#"
   xmlns:rdf="http://www.w3.org/1999/02/22-rdf-syntax-ns#"
   xmlns:svg="http://www.w3.org/2000/svg"
   xmlns="http://www.w3.org/2000/svg"
   xmlns:sodipodi="http://sodipodi.sourceforge.net/DTD/sodipodi-0.dtd"
   xmlns:inkscape="http://www.inkscape.org/namespaces/inkscape"
   height="16"
   width="16"
   version="1.1"
   id="svg8"
   sodipodi:docname="org.gnome.Software-symbolic.svg"
   inkscape:version="0.92.3 (2405546, 2018-03-11)">
  <metadata
     id="metadata14">
    <rdf:RDF>
      <cc:Work
         rdf:about="">
        <dc:format>image/svg+xml</dc:format>
        <dc:type
           rdf:resource="http://purl.org/dc/dcmitype/StillImage" />
        <dc:title></dc:title>
      </cc:Work>
    </rdf:RDF>
  </metadata>
  <defs
     id="defs12" />
  <sodipodi:namedview
     pagecolor="#ffffff"
     bordercolor="#666666"
     borderopacity="1"
     objecttolerance="10"
     gridtolerance="10"
     guidetolerance="10"
     inkscape:pageopacity="0"
     inkscape:pageshadow="2"
     inkscape:window-width="1920"
     inkscape:window-height="1474"
     id="namedview10"
     showgrid="false"
     inkscape:zoom="59"
     inkscape:cx="8.8430136"
     inkscape:cy="7.3598151"
     inkscape:window-x="1920"
     inkscape:window-y="27"
     inkscape:window-maximized="0"
     inkscape:current-layer="svg8" />
  <path
     inkscape:connector-curvature="0"
     id="path758"
     d="m 0.553002,2.2813177 v 1.570656 H 15.444911 V 2.2813177 H 0.553002"
     style="fill:#808080;fill-opacity:0.50196078;fill-rule:evenodd;stroke:none;stroke-width:0.11361314" />
  <path
     style="opacity:0.93999999;fill:#808080;fill-opacity:1;stroke:none;stroke-width:0.06635584;stroke-linecap:butt;stroke-linejoin:bevel;stroke-miterlimit:4;stroke-dasharray:none;stroke-opacity:1;paint-order:fill markers stroke"
     d="M 0.015625 3.8515625 L 0.015625 16 L 15.984375 16 L 15.984375 3.8515625 L 0.015625 3.8515625 z M 4.1523438 4.8339844 A 0.34219787 0.34219787 0 0 1 4.1796875 4.8339844 A 0.34219787 0.34219787 0 0 1 4.5214844 5.1777344 A 0.34219787 0.34219787 0 0 1 4.1796875 5.5195312 A 0.34219787 0.34219787 0 0 1 3.8359375 5.1777344 A 0.34219787 0.34219787 0 0 1 4.1523438 4.8339844 z M 11.820312 4.8339844 A 0.34219787 0.34219787 0 0 1 12.164062 5.1777344 A 0.34219787 0.34219787 0 0 1 11.820312 5.5195312 A 0.34219787 0.34219787 0 0 1 11.478516 5.1777344 A 0.34219787 0.34219787 0 0 1 11.820312 4.8339844 z M 8 6.9257812 A 3 3 0 0 1 11 9.9257812 A 3 3 0 0 1 8 12.925781 A 3 3 0 0 1 5 9.9257812 A 3 3 0 0 1 8 6.9257812 z M 8 7.3007812 A 2.625 2.625 0 0 0 5.375 9.9257812 A 2.625 2.625 0 0 0 8 12.550781 A 2.625 2.625 0 0 0 10.625 9.9257812 A 2.625 2.625 0 0 0 8 7.3007812 z "
     id="rect1285" />
  <path
     style="opacity:0.93999999;fill:#808080;fill-opacity:0.94117647;stroke:none;stroke-width:0.09941535;stroke-linecap:butt;stroke-linejoin:bevel;stroke-miterlimit:4;stroke-dasharray:none;stroke-opacity:1;paint-order:fill markers stroke"
     d="m 2.068571,3.2103527 v 0.641621 H 0.015383 Z"
     id="rect1333-4"
     inkscape:connector-curvature="0"
     sodipodi:nodetypes="cccc" />
  <path
     style="opacity:0.93999999;fill:#808080;fill-opacity:0.7372549;stroke:none;stroke-width:0.08836921;stroke-linecap:butt;stroke-linejoin:bevel;stroke-miterlimit:4;stroke-dasharray:none;stroke-opacity:1;paint-order:fill markers stroke"
     d="M 0.553004,2.2813173 0.553688,3.6832774 2.068592,3.2103527 Z"
     id="rect1333-7"
     inkscape:connector-curvature="0"
     sodipodi:nodetypes="cccc" />
  <path
     style="opacity:0.93999999;fill:#808080;fill-opacity:0.94117647;stroke:none;stroke-width:0.09941535;stroke-linecap:butt;stroke-linejoin:bevel;stroke-miterlimit:4;stroke-dasharray:none;stroke-opacity:1;paint-order:fill markers stroke"
     d="m 13.931427,3.2103534 v 0.641621 h 2.053187 z"
     id="rect1333-4-1"
     inkscape:connector-curvature="0"
     sodipodi:nodetypes="cccc" />
  <path
     style="opacity:0.93999999;fill:#808080;fill-opacity:0.50196078;stroke:none;stroke-width:0.08836921;stroke-linecap:butt;stroke-linejoin:bevel;stroke-miterlimit:4;stroke-dasharray:none;stroke-opacity:1;paint-order:fill markers stroke"
     d="M 15.446994,2.281318 15.44631,3.6832782 13.931405,3.2103534 Z"
     id="rect1333-7-9"
     inkscape:connector-curvature="0"
     sodipodi:nodetypes="cccc" />
  <g
     id="g919">
    <path
       inkscape:connector-curvature="0"
       id="path1392-8"
       d="M 7.998956,-1.33e-6 A 3.9923085,4.5626383 0 0 0 4.006648,4.5626367 H 4.23478 A 3.7641766,4.3019163 0 0 1 7.998956,0.26065667 3.7641766,4.3019163 0 0 1 11.763134,4.5626367 h 0.228132 A 3.9923085,4.5626383 0 0 0 7.998956,-1.33e-6 Z"
       style="opacity:0.93999999;fill:#808080;fill-opacity:0.94117647;stroke:none;stroke-width:0.08967195;stroke-linecap:butt;stroke-linejoin:bevel;stroke-miterlimit:4;stroke-dasharray:none;stroke-opacity:1;paint-order:fill markers stroke" />
    <path
       inkscape:connector-curvature="0"
       id="path1392"
       d="M 7.999999,0.78532667 A 3.9923085,4.5626383 0 0 0 4.007691,5.3479647 h 0.228131 a 3.7641766,4.3019163 0 0 1 3.764177,-4.301979 3.7641766,4.3019163 0 0 1 3.764177,4.301979 h 0.228132 A 3.9923085,4.5626383 0 0 0 7.999999,0.78532667 Z"
       style="opacity:1;fill:#808080;fill-opacity:0.94117647;stroke:none;stroke-width:0.08967195;stroke-linecap:butt;stroke-linejoin:bevel;stroke-miterlimit:4;stroke-dasharray:none;stroke-opacity:1;paint-order:fill markers stroke" />
  </g>
  <circle
     style="opacity:0.93999999;fill:#ffffff;fill-opacity:1;stroke:none;stroke-width:0.02744312;stroke-linecap:butt;stroke-linejoin:bevel;stroke-miterlimit:4;stroke-dasharray:none;stroke-opacity:1;paint-order:fill markers stroke"
     id="path1428"
     cx="4.1788116"
     cy="5.1768517"
     r="0.34219787" />
  <circle
     style="opacity:0.93999999;fill:#ffffff;fill-opacity:1;stroke:none;stroke-width:0.02744312;stroke-linecap:butt;stroke-linejoin:bevel;stroke-miterlimit:4;stroke-dasharray:none;stroke-opacity:1;paint-order:fill markers stroke"
     id="path1428-8"
     cx="11.82123"
     cy="5.1768517"
     r="0.34219787" />
  <path
     style="opacity:0.93999999;fill:#17171d;fill-opacity:0.94117647;stroke:none;stroke-width:0.08975828;stroke-linecap:butt;stroke-linejoin:bevel;stroke-miterlimit:4;stroke-dasharray:none;stroke-opacity:1;paint-order:fill markers stroke"
     d="m -19.779431,0.4067853 a 3.9999994,4.5626384 0 0 0 -3.999999,4.5626384 h 0.228571 a 3.771428,4.3019164 0 0 1 3.771428,-4.3019799 3.771428,4.3019164 0 0 1 3.771428,4.3019799 h 0.228572 a 3.9999994,4.5626384 0 0 0 -4,-4.5626384 z"
     id="path1392-8-3"
     inkscape:connector-curvature="0" />
  <path
     inkscape:connector-curvature="0"
     id="path758-6"
     d="M -27.239729,2.6881045 V 4.258761 h 14.920596 V 2.6881045 h -14.920596"
     style="fill:#003059;fill-opacity:1;fill-rule:evenodd;stroke:none;stroke-width:0.11372252" />
  <rect
     style="opacity:0.93999999;fill:#0068bf;fill-opacity:1;stroke:none;stroke-width:0.06641973;stroke-linecap:butt;stroke-linejoin:bevel;stroke-miterlimit:4;stroke-dasharray:none;stroke-opacity:1;paint-order:fill markers stroke"
     id="rect1285-7"
     width="15.999997"
     height="12.148025"
     x="-27.778385"
     y="4.2587609"
     ry="0" />
  <g
     id="g1390"
     transform="matrix(0.1142857,0,0,0.11406596,-100.53904,-2.8691071)">
    <path
       sodipodi:nodetypes="cccc"
       inkscape:connector-curvature="0"
       id="rect1333-4-5"
       d="m 654.65582,56.864002 v 5.625 h -18 z"
       style="opacity:0.93999999;fill:#00aff5;fill-opacity:1;stroke:none;stroke-width:0.87156016;stroke-linecap:butt;stroke-linejoin:bevel;stroke-miterlimit:4;stroke-dasharray:none;stroke-opacity:1;paint-order:fill markers stroke" />
    <path
       sodipodi:nodetypes="cccc"
       inkscape:connector-curvature="0"
       id="rect1333-7-3"
       d="m 641.36906,48.719281 0.006,12.290785 13.28095,-4.146064 z"
       style="opacity:0.93999999;fill:#000a59;fill-opacity:1;stroke:none;stroke-width:0.77472019;stroke-linecap:butt;stroke-linejoin:bevel;stroke-miterlimit:4;stroke-dasharray:none;stroke-opacity:1;paint-order:fill markers stroke" />
  </g>
  <g
     id="g1386"
     transform="matrix(-0.1142857,0,0,0.11406596,74.470198,2.4419392)">
    <path
       sodipodi:nodetypes="cccc"
       inkscape:connector-curvature="0"
       id="rect1333-4-1-5"
       d="m 772.67523,10.302817 v 5.625 h -18 z"
       style="opacity:0.93999999;fill:#00aff5;fill-opacity:1;stroke:none;stroke-width:0.87156016;stroke-linecap:butt;stroke-linejoin:bevel;stroke-miterlimit:4;stroke-dasharray:none;stroke-opacity:1;paint-order:fill markers stroke" />
    <path
       sodipodi:nodetypes="cccc"
       inkscape:connector-curvature="0"
       id="rect1333-7-9-6"
       d="m 759.38847,2.158096 0.006,12.290785 13.28095,-4.146064 z"
       style="opacity:0.93999999;fill:#000a59;fill-opacity:1;stroke:none;stroke-width:0.77472019;stroke-linecap:butt;stroke-linejoin:bevel;stroke-miterlimit:4;stroke-dasharray:none;stroke-opacity:1;paint-order:fill markers stroke" />
  </g>
  <path
     style="opacity:0.93999999;fill:#17171d;fill-opacity:0.981982;stroke:none;stroke-width:0.08975828;stroke-linecap:butt;stroke-linejoin:bevel;stroke-miterlimit:4;stroke-dasharray:none;stroke-opacity:1;paint-order:fill markers stroke"
     d="m -19.778386,1.1921135 a 3.9999994,4.5626384 0 0 0 -4,4.562638 h 0.228572 a 3.771428,4.3019164 0 0 1 3.771428,-4.3019794 3.771428,4.3019164 0 0 1 3.771427,4.3019794 h 0.228572 a 3.9999994,4.5626384 0 0 0 -3.999999,-4.562638 z"
     id="path1392-2"
     inkscape:connector-curvature="0" />
  <ellipse
     style="opacity:0.93999999;fill:#17171d;fill-opacity:0.99549549;stroke:none;stroke-width:0.02746954;stroke-linecap:butt;stroke-linejoin:bevel;stroke-miterlimit:4;stroke-dasharray:none;stroke-opacity:1;paint-order:fill markers stroke"
     id="path1428-9"
     cx="-23.606936"
     cy="5.5836363"
     rx="0.34285709"
     ry="0.34219787" />
  <ellipse
     style="opacity:0.93999999;fill:#17171d;fill-opacity:1;stroke:none;stroke-width:0.02746954;stroke-linecap:butt;stroke-linejoin:bevel;stroke-miterlimit:4;stroke-dasharray:none;stroke-opacity:1;paint-order:fill markers stroke"
     id="path1428-8-1"
     cx="-15.949794"
     cy="5.5836363"
     rx="0.34285709"
     ry="0.34219787" />
  <path
     style="fill:#ffffff;fill-opacity:1;stroke:none;stroke-width:1.23026752;stroke-miterlimit:4;stroke-dasharray:none;stroke-opacity:1"
     d="m -19.778387,7.3327735 a 3.0057793,3.0000001 0 0 0 -3.005779,3.0000005 3.0057793,3.0000001 0 0 0 3.005779,3 3.0057793,3.0000001 0 0 0 3.005779,-3 3.0057793,3.0000001 0 0 0 -3.005779,-3.0000005 z m 0,0.375 a 2.6300569,2.6250001 0 0 1 2.630057,2.6250005 2.6300569,2.6250001 0 0 1 -2.630057,2.625 2.6300569,2.6250001 0 0 1 -2.630056,-2.625 2.6300569,2.6250001 0 0 1 2.630056,-2.6250005 z"
     id="path820-2"
     inkscape:connector-curvature="0" />
  <path
     inkscape:connector-curvature="0"
     id="path868"
     d="m -16.252963,18.315824 a 3.0057793,3.0000001 0 0 0 -3.005779,3.000001 3.0057793,3.0000001 0 0 0 3.005779,3 3.0057793,3.0000001 0 0 0 3.005779,-3 3.0057793,3.0000001 0 0 0 -3.005779,-3.000001 z m 0,0.375 a 2.6300569,2.6250001 0 0 1 2.630057,2.625001 2.6300569,2.6250001 0 0 1 -2.630057,2.625 2.6300569,2.6250001 0 0 1 -2.630056,-2.625 2.6300569,2.6250001 0 0 1 2.630056,-2.625001 z"
     style="fill:#666666;fill-opacity:1;stroke:none;stroke-width:1.23026752;stroke-miterlimit:4;stroke-dasharray:none;stroke-opacity:1" />
  <g
     id="g925">
    <path
       style="opacity:0.93999999;fill:#808080;fill-opacity:0.94117647;stroke:none;stroke-width:0.08967195;stroke-linecap:butt;stroke-linejoin:bevel;stroke-miterlimit:4;stroke-dasharray:none;stroke-opacity:1;paint-order:fill markers stroke"
       d="M 7.998956,-1.33e-6 A 3.9923085,4.5626383 0 0 0 4.006648,4.5626367 H 4.23478 A 3.7641766,4.3019163 0 0 1 7.998956,0.26065667 3.7641766,4.3019163 0 0 1 11.763134,4.5626367 h 0.228132 A 3.9923085,4.5626383 0 0 0 7.998956,-1.33e-6 Z"
       id="path921"
       inkscape:connector-curvature="0" />
    <path
       style="opacity:1;fill:#808080;fill-opacity:0.94117647;stroke:none;stroke-width:0.08967195;stroke-linecap:butt;stroke-linejoin:bevel;stroke-miterlimit:4;stroke-dasharray:none;stroke-opacity:1;paint-order:fill markers stroke"
       d="M 7.999999,0.78532667 A 3.9923085,4.5626383 0 0 0 4.007691,5.3479647 h 0.228131 a 3.7641766,4.3019163 0 0 1 3.764177,-4.301979 3.7641766,4.3019163 0 0 1 3.764177,4.301979 h 0.228132 A 3.9923085,4.5626383 0 0 0 7.999999,0.78532667 Z"
       id="path923"
       inkscape:connector-curvature="0" />
  </g>
  <circle
     r="0.34219787"
     cy="5.1768517"
     cx="4.1788116"
     id="circle927"
     style="opacity:0.93999999;fill:#ffffff;fill-opacity:1;stroke:none;stroke-width:0.02744312;stroke-linecap:butt;stroke-linejoin:bevel;stroke-miterlimit:4;stroke-dasharray:none;stroke-opacity:1;paint-order:fill markers stroke" />
  <circle
     r="0.34219787"
     cy="5.1768517"
     cx="11.82123"
     id="circle929"
     style="opacity:0.93999999;fill:#ffffff;fill-opacity:1;stroke:none;stroke-width:0.02744312;stroke-linecap:butt;stroke-linejoin:bevel;stroke-miterlimit:4;stroke-dasharray:none;stroke-opacity:1;paint-order:fill markers stroke" />
  <g
     id="g938">
    <path
       style="opacity:0.93999999;fill:#808080;fill-opacity:0.7372549;stroke:none;stroke-width:0.08836921;stroke-linecap:butt;stroke-linejoin:bevel;stroke-miterlimit:4;stroke-dasharray:none;stroke-opacity:1;paint-order:fill markers stroke"
       d="M 0.553004,2.2813173 0.553688,3.6832774 2.068592,3.2103527 Z"
       id="path932"
       inkscape:connector-curvature="0"
       sodipodi:nodetypes="cccc" />
    <path
       style="opacity:0.93999999;fill:#808080;fill-opacity:0.94117647;stroke:none;stroke-width:0.09941535;stroke-linecap:butt;stroke-linejoin:bevel;stroke-miterlimit:4;stroke-dasharray:none;stroke-opacity:1;paint-order:fill markers stroke"
       d="m 2.068571,3.2103527 v 0.641621 H 0.015383 Z"
       id="path934"
       inkscape:connector-curvature="0"
       sodipodi:nodetypes="cccc" />
  </g>
  <g
     id="g946">
    <path
       style="opacity:0.93999999;fill:#808080;fill-opacity:0.50196078;stroke:none;stroke-width:0.08836921;stroke-linecap:butt;stroke-linejoin:bevel;stroke-miterlimit:4;stroke-dasharray:none;stroke-opacity:1;paint-order:fill markers stroke"
       d="M 15.446994,2.281318 15.44631,3.6832782 13.931405,3.2103534 Z"
       id="path940"
       inkscape:connector-curvature="0"
       sodipodi:nodetypes="cccc" />
    <path
       style="opacity:0.93999999;fill:#808080;fill-opacity:0.94117647;stroke:none;stroke-width:0.09941535;stroke-linecap:butt;stroke-linejoin:bevel;stroke-miterlimit:4;stroke-dasharray:none;stroke-opacity:1;paint-order:fill markers stroke"
       d="m 13.931427,3.2103534 v 0.641621 h 2.053187 z"
       id="path942"
       inkscape:connector-curvature="0"
       sodipodi:nodetypes="cccc" />
  </g>
</svg>
