<?xml version="1.0" encoding="UTF-8" standalone="no"?>
<svg
   xmlns:dc="http://purl.org/dc/elements/1.1/"
   xmlns:cc="http://creativecommons.org/ns#"
   xmlns:rdf="http://www.w3.org/1999/02/22-rdf-syntax-ns#"
   xmlns:svg="http://www.w3.org/2000/svg"
   xmlns="http://www.w3.org/2000/svg"
   xmlns:sodipodi="http://sodipodi.sourceforge.net/DTD/sodipodi-0.dtd"
   xmlns:inkscape="http://www.inkscape.org/namespaces/inkscape"
   height="16"
   width="16"
   version="1.1"
   id="svg16"
   sodipodi:docname="preferences-system-network-symbolic.svg"
   inkscape:version="0.92.3 (2405546, 2018-03-11)">
  <metadata
     id="metadata22">
    <rdf:RDF>
      <cc:Work
         rdf:about="">
        <dc:format>image/svg+xml</dc:format>
        <dc:type
           rdf:resource="http://purl.org/dc/dcmitype/StillImage" />
        <dc:title></dc:title>
      </cc:Work>
    </rdf:RDF>
  </metadata>
  <defs
     id="defs20" />
  <sodipodi:namedview
     pagecolor="#ffffff"
     bordercolor="#666666"
     borderopacity="1"
     objecttolerance="10"
     gridtolerance="10"
     guidetolerance="10"
     inkscape:pageopacity="0"
     inkscape:pageshadow="2"
     inkscape:window-width="1920"
     inkscape:window-height="1539"
     id="namedview18"
     showgrid="false"
     inkscape:zoom="14.75"
     inkscape:cx="2.3389831"
     inkscape:cy="8"
     inkscape:window-x="1920"
     inkscape:window-y="27"
     inkscape:window-maximized="0"
     inkscape:current-layer="svg16" />
  <g
     id="g848"
     transform="translate(28.813559,-2.3728812)">
    <path
       id="path1240"
       d="m -28.813559,8.0297358 0.8,0.8 a 10.182338,10.182338 0 0 1 14.4,-3e-7 l 0.8,-0.8 a 11.313709,11.313709 0 0 0 -16,3e-7 z"
       style="opacity:1;fill:#808080;fill-opacity:1;stroke:none;stroke-width:3.70139432;stroke-linecap:butt;stroke-linejoin:bevel;stroke-miterlimit:10.00000095;stroke-dasharray:none;stroke-opacity:1;paint-order:fill markers stroke"
       inkscape:connector-curvature="0" />
    <path
       id="path1238"
       d="m -27.613559,9.2297358 0.8,0.8000002 a 8.4852815,8.4852815 0 0 1 12,0 l 0.8,-0.8000005 a 9.6166523,9.6166523 0 0 0 -13.6,3e-7 z"
       style="opacity:1;fill:#808080;fill-opacity:1;stroke:none;stroke-width:3.70139432;stroke-linecap:butt;stroke-linejoin:bevel;stroke-miterlimit:10.00000095;stroke-dasharray:none;stroke-opacity:1;paint-order:fill markers stroke"
       inkscape:connector-curvature="0" />
    <path
       id="path1236"
       d="m -26.413559,10.429736 0.8,0.8 a 6.7882252,6.7882252 0 0 1 9.6,0 l 0.8,-0.8 a 7.919596,7.919596 0 0 0 -11.2,0 z"
       style="opacity:1;fill:#808080;fill-opacity:1;stroke:none;stroke-width:3.70139432;stroke-linecap:butt;stroke-linejoin:bevel;stroke-miterlimit:10.00000095;stroke-dasharray:none;stroke-opacity:1;paint-order:fill markers stroke"
       inkscape:connector-curvature="0" />
    <path
       id="path1234"
       d="m -25.213559,11.629736 0.8,0.799999 a 5.0911689,5.0911689 0 0 1 7.2,0 l 0.8,-0.799999 a 6.2225398,6.2225398 0 0 0 -8.8,0 z"
       style="opacity:1;fill:#808080;fill-opacity:1;stroke:none;stroke-width:3.70139432;stroke-linecap:butt;stroke-linejoin:bevel;stroke-miterlimit:10.00000095;stroke-dasharray:none;stroke-opacity:1;paint-order:fill markers stroke"
       inkscape:connector-curvature="0" />
    <path
       id="path819-3-6-7-5-3"
       d="m -24.013559,12.829735 3.2,3.2 3.2,-3.2 a 4.5254835,4.5254835 0 0 0 -6.4,0 z"
       style="opacity:1;fill:#808080;fill-opacity:1;stroke:none;stroke-width:3.70139432;stroke-linecap:butt;stroke-linejoin:bevel;stroke-miterlimit:10.00000095;stroke-dasharray:none;stroke-opacity:1;paint-order:fill markers stroke"
       inkscape:connector-curvature="0" />
  </g>
</svg>
