<?xml version="1.0" encoding="UTF-8" standalone="no"?>
<svg
   xmlns:dc="http://purl.org/dc/elements/1.1/"
   xmlns:cc="http://creativecommons.org/ns#"
   xmlns:rdf="http://www.w3.org/1999/02/22-rdf-syntax-ns#"
   xmlns:svg="http://www.w3.org/2000/svg"
   xmlns="http://www.w3.org/2000/svg"
   xmlns:sodipodi="http://sodipodi.sourceforge.net/DTD/sodipodi-0.dtd"
   xmlns:inkscape="http://www.inkscape.org/namespaces/inkscape"
   height="16"
   width="16"
   version="1.1"
   id="svg12"
   sodipodi:docname="accessories-calculator-symbolic.svg"
   inkscape:version="0.92.3 (2405546, 2018-03-11)">
  <metadata
     id="metadata18">
    <rdf:RDF>
      <cc:Work
         rdf:about="">
        <dc:format>image/svg+xml</dc:format>
        <dc:type
           rdf:resource="http://purl.org/dc/dcmitype/StillImage" />
        <dc:title />
      </cc:Work>
    </rdf:RDF>
  </metadata>
  <defs
     id="defs16" />
  <sodipodi:namedview
     pagecolor="#ffffff"
     bordercolor="#666666"
     borderopacity="1"
     objecttolerance="10"
     gridtolerance="10"
     guidetolerance="10"
     inkscape:pageopacity="0"
     inkscape:pageshadow="2"
     inkscape:window-width="960"
     inkscape:window-height="1019"
     id="namedview14"
     showgrid="false"
     inkscape:zoom="16"
     inkscape:cx="11.529839"
     inkscape:cy="6.4312013"
     inkscape:window-x="960"
     inkscape:window-y="27"
     inkscape:window-maximized="0"
     inkscape:current-layer="svg12"
     inkscape:measure-start="10.7656,11.5273"
     inkscape:measure-end="13.168,11.3008"
     inkscape:pagecheckerboard="true" />
  <g
     inkscape:groupmode="layer"
     id="layer1"
     inkscape:label="Layer 1" />
  <g
     id="g822"
     transform="matrix(0.875,0,0,0.875,1,1)">
    <path
       id="path1090-8-0"
       d="M 8,0 A 8,8 0 0 0 0,8 8,8 0 0 0 8,16 V 8 h 8 A 8,8 0 0 0 8,0 Z M 9.8789062,3.7558594 10.902344,4.7148438 11.927734,3.7558594 12.335938,4.1386719 11.3125,5.0976562 12.335938,6.0546875 11.927734,6.4375 10.902344,5.4785156 9.8789062,6.4375 9.4707031,6.0546875 10.494141,5.0976562 9.4707031,4.1386719 Z M 3.7421875,4.8945312 H 6.4511719 V 5.2988281 H 3.7421875 Z m 1.1523437,4.6542969 h 0.4042969 v 1.1523439 h 1.1523438 v 0.404297 H 5.2988281 v 1.152343 H 4.8945312 V 11.105469 H 3.7421875 v -0.404297 h 1.1523437 z"
       style="fill:#808080;fill-opacity:1;stroke:none;stroke-width:0.17680639;stroke-miterlimit:4;stroke-dasharray:none;stroke-opacity:1"
       inkscape:connector-curvature="0" />
    <path
       id="path1090-8-0-93-2"
       d="m 8,8 v 8 a 8,8 0 0 0 8,-8 z m 1.6230469,2.005859 h 2.4785151 v 0.451172 H 9.6230469 Z m 0,1.238282 h 2.4785151 v 0.451171 H 9.6230469 Z"
       style="opacity:0.8;fill:#17171d;fill-opacity:1;stroke:none;stroke-width:0.17680639;stroke-miterlimit:4;stroke-dasharray:none;stroke-opacity:1"
       inkscape:connector-curvature="0" />
  </g>
</svg>
