<?xml version="1.0" encoding="UTF-8" standalone="no"?>
<svg
   xmlns:dc="http://purl.org/dc/elements/1.1/"
   xmlns:cc="http://creativecommons.org/ns#"
   xmlns:rdf="http://www.w3.org/1999/02/22-rdf-syntax-ns#"
   xmlns:svg="http://www.w3.org/2000/svg"
   xmlns="http://www.w3.org/2000/svg"
   xmlns:sodipodi="http://sodipodi.sourceforge.net/DTD/sodipodi-0.dtd"
   xmlns:inkscape="http://www.inkscape.org/namespaces/inkscape"
   height="16"
   width="16"
   version="1.1"
   id="svg8"
   sodipodi:docname="gnome-power-manager-symbolic.svg"
   inkscape:version="0.92.3 (2405546, 2018-03-11)">
  <metadata
     id="metadata14">
    <rdf:RDF>
      <cc:Work
         rdf:about="">
        <dc:format>image/svg+xml</dc:format>
        <dc:type
           rdf:resource="http://purl.org/dc/dcmitype/StillImage" />
      </cc:Work>
    </rdf:RDF>
  </metadata>
  <defs
     id="defs12">
    <clipPath
       clipPathUnits="userSpaceOnUse"
       id="clipPath844">
      <rect
         style="opacity:1;fill:#008080;fill-opacity:1;stroke:none;stroke-width:1.10936391;stroke-linecap:butt;stroke-linejoin:bevel;stroke-miterlimit:10.00000095;stroke-dasharray:none;stroke-opacity:1;paint-order:fill markers stroke"
         id="rect847"
         width="12.291875"
         height="12.466972"
         x="0.99531424"
         y="0.1680488" />
    </clipPath>
  </defs>
  <sodipodi:namedview
     pagecolor="#ffffff"
     bordercolor="#666666"
     borderopacity="1"
     objecttolerance="10"
     gridtolerance="10"
     guidetolerance="10"
     inkscape:pageopacity="0"
     inkscape:pageshadow="2"
     inkscape:window-width="960"
     inkscape:window-height="1019"
     id="namedview10"
     showgrid="false"
     inkscape:zoom="10.429825"
     inkscape:cx="8.8773644"
     inkscape:cy="9.0109619"
     inkscape:window-x="960"
     inkscape:window-y="27"
     inkscape:window-maximized="0"
     inkscape:current-layer="svg8" />
  <g
     id="g1154"
     transform="matrix(0.10000002,0,0,0.10000002,6.6000012,0.94999825)"
     style="fill:#808080;fill-opacity:1">
    <path
       id="rect846"
       d="m 26.812482,-9.4999972 c -6.126169,0 -11.197618,4.2718992 -12.480468,9.99999824 H 6.8124856 c -7.10023881,0 -12.8124978,5.71229896 -12.8124978,12.81249796 V 137.68748 c 0,7.1002 5.71225899,12.81249 12.8124978,12.81249 H 81.187473 c 7.100238,0 12.812497,-5.71229 12.812497,-12.81249 V 13.312499 C 93.99997,6.2123 88.287711,0.50000104 81.187473,0.50000104 H 73.667944 C 72.385094,-5.228098 67.313645,-9.4999972 61.187476,-9.4999972 Z M 15.113264,10.499999 h 57.77343 c 6.153539,0 11.113278,4.959699 11.113278,11.113298 V 129.38668 c 0,6.1536 -4.959739,11.1133 -11.113278,11.1133 h -57.77343 c -6.1535388,0 -11.113278,-4.9597 -11.113278,-11.1133 V 21.613297 c 0,-6.153599 4.9597392,-11.113298 11.113278,-11.113298 z"
       style="opacity:1;fill:#808080;fill-opacity:1;stroke:none;stroke-width:26.09138298;stroke-linecap:butt;stroke-linejoin:bevel;stroke-miterlimit:4;stroke-dasharray:none;stroke-opacity:1;paint-order:fill markers stroke"
       inkscape:connector-curvature="0" />
    <path
       id="rect846-3-5-6-2-9"
       d="m 15.093734,10.499999 c -6.1535388,0 -11.093748,4.940199 -11.093748,11.093698 v 23.906296 34.999994 34.999993 13.8867 c 1e-5,6.1536 4.9597392,11.1133 11.113278,11.1133 h 57.77343 c 6.153539,0 11.113278,-4.9597 11.113278,-11.1133 V 115.49998 80.499987 45.499993 21.593697 c 0,-6.153499 -4.959739,-11.093698 -11.113278,-11.093698 z"
       style="opacity:0.5;fill:#808080;fill-opacity:1;stroke:none;stroke-width:11.27276611;stroke-linecap:butt;stroke-linejoin:bevel;stroke-miterlimit:4;stroke-dasharray:none;stroke-opacity:1;paint-order:fill markers stroke"
       inkscape:connector-curvature="0" />
    <g
       clip-path="url(#clipPath844)"
       transform="matrix(12.01721,0,0,12.01721,-78.01721,-1.3376986)"
       id="g840"
       style="fill:#808080;fill-opacity:1">
      <path
         inkscape:connector-curvature="0"
         style="fill:#808080;fill-opacity:1;stroke-width:0.03301852"
         d="M 1.65625,1.0214844 V 3.1347656 H 1.1875 C 1.0818407,3.1347656 1,3.2199084 1,3.3222656 V 7.6308594 C 1.0066,8.4266057 1.5488434,9.097555 2.2851562,9.2890625 v 0.234375 0.2050781 0.1972656 0.2050778 0.197266 0.205078 c 0,0.168395 0.080957,0.313798 0.203125,0.40625 V 16 h 0.5957032 v -5.064453 c 0.1254704,-0.09245 0.2050781,-0.237856 0.2050781,-0.40625 V 10.326172 10.126953 9.921875 9.7246094 9.5195312 9.2851562 C 4.0253755,9.093649 4.5664062,8.4226994 4.5664062,7.6269531 V 3.3222656 c 0,-0.1056592 -0.087096,-0.1875 -0.1894531,-0.1875 h -0.46875 V 1.0214844 H 3.6523438 1.9140625 Z M 2.7871094,4.9101562 2.9941406,5.25 H 2.8398438 V 6.2246094 L 3.0566406,6.0898438 c 0.042924,-0.029716 0.070312,-0.077426 0.070312,-0.1269532 V 5.6738281 H 3.0410156 V 5.3984375 h 0.2734375 v 0.2753906 h -0.085937 v 0.2890625 c 0,0.085848 -0.0465,0.1666648 -0.1191406,0.2128906 L 2.8398438,6.34375 v 0.546875 c 0.1221684,0.026415 0.2148437,0.1329464 0.2148437,0.2617188 0,0.1452814 -0.1203435,0.2636718 -0.265625,0.2636718 -0.1452815,0 -0.2636719,-0.1183904 -0.2636719,-0.2636718 0,-0.1287723 0.092675,-0.2386058 0.2148438,-0.2617188 V 6.6210938 L 2.46875,6.453125 C 2.3928084,6.4068991 2.3496094,6.3260824 2.3496094,6.2402344 V 5.9960938 c -0.05283,-0.023113 -0.091662,-0.075937 -0.1015625,-0.1386719 0,-0.079245 0.065287,-0.1445313 0.1445312,-0.1445313 0.079244,0 0.1464844,0.065287 0.1464844,0.1445313 0,0.062735 -0.04092,0.1169077 -0.09375,0.1367187 v 0.2441406 c 0,0.05283 0.027388,0.098586 0.070312,0.125 l 0.21875,0.1347657 V 5.25 h -0.15625 z"
         id="path66" />
      <path
         inkscape:connector-curvature="0"
         style="fill:#808080;fill-opacity:1;stroke-width:0.03301852"
         d="m 2.7597656,1.0214844 v 0.00195 h 0.099609 v -0.00195 z m 0.099609,0.00195 V 1.3144531 H 2.6484375 V 1.4902344 H 2.859375 v 0.1015625 0.1484375 0.039063 H 2.6484375 V 1.9550781 H 2.859375 v 0.1015625 0.1503906 0.039063 H 2.6484375 V 2.4238281 H 2.859375 v 0.099609 0.1484375 0.039063 H 2.6484375 V 2.8867188 H 2.859375 V 3.1347656 H 2.7597656 V 2.9863281 H 2.5488281 V 2.6132812 h 0.2109375 v -0.089844 -0.00391 H 2.5488281 V 2.1464844 h 0.2109375 v -0.089844 -0.00195 H 2.5488281 V 1.6816406 h 0.2109375 v -0.089844 -0.00391 H 2.5488281 V 1.2148438 H 2.7597656 V 1.0234375 H 1.921875 1.9179688 1.6640625 v 2.1132813 h 0.2539063 0.00391 1.7324219 0.2578125 V 1.0234375 H 3.6542969 Z"
         id="rect68" />
      <g
         id="g960"
         style="fill:#808080;fill-opacity:1">
        <rect
           transform="scale(-1)"
           x="-3.2914855"
           y="-10.530168"
           width="0.39952406"
           height="0.2047148"
           id="rect82"
           style="fill:#808080;fill-opacity:1;stroke-width:0.03301852" />
        <rect
           transform="scale(-1)"
           x="-2.6839447"
           y="-10.530168"
           width="0.39952406"
           height="0.2047148"
           id="rect84"
           style="fill:#808080;fill-opacity:1;stroke-width:0.03301852" />
        <rect
           transform="scale(-1)"
           x="-3.2914855"
           y="-10.127342"
           width="0.39952406"
           height="0.2047148"
           id="rect86"
           style="fill:#808080;fill-opacity:1;stroke-width:0.03301852" />
        <rect
           transform="scale(-1)"
           x="-2.6839447"
           y="-10.127342"
           width="0.39952406"
           height="0.2047148"
           id="rect88"
           style="fill:#808080;fill-opacity:1;stroke-width:0.03301852" />
        <rect
           transform="scale(-1)"
           x="-3.2914855"
           y="-9.7278185"
           width="0.39952406"
           height="0.2047148"
           id="rect90"
           style="fill:#808080;fill-opacity:1;stroke-width:0.03301852" />
        <rect
           transform="scale(-1)"
           x="-2.6839447"
           y="-9.7278185"
           width="0.39952406"
           height="0.2047148"
           id="rect92"
           style="fill:#808080;fill-opacity:1;stroke-width:0.03301852" />
      </g>
    </g>
  </g>
</svg>
