<?xml version="1.0" encoding="UTF-8" standalone="no"?>
<svg
   xmlns:dc="http://purl.org/dc/elements/1.1/"
   xmlns:cc="http://creativecommons.org/ns#"
   xmlns:rdf="http://www.w3.org/1999/02/22-rdf-syntax-ns#"
   xmlns:svg="http://www.w3.org/2000/svg"
   xmlns="http://www.w3.org/2000/svg"
   xmlns:sodipodi="http://sodipodi.sourceforge.net/DTD/sodipodi-0.dtd"
   xmlns:inkscape="http://www.inkscape.org/namespaces/inkscape"
   height="16"
   width="16"
   version="1.1"
   id="svg4"
   sodipodi:docname="preferences-desktop-online-accounts-symbolic.svg"
   inkscape:version="0.92.3 (2405546, 2018-03-11)">
  <metadata
     id="metadata10">
    <rdf:RDF>
      <cc:Work
         rdf:about="">
        <dc:format>image/svg+xml</dc:format>
        <dc:type
           rdf:resource="http://purl.org/dc/dcmitype/StillImage" />
      </cc:Work>
    </rdf:RDF>
  </metadata>
  <defs
     id="defs8" />
  <sodipodi:namedview
     pagecolor="#ffffff"
     bordercolor="#666666"
     borderopacity="1"
     objecttolerance="10"
     gridtolerance="10"
     guidetolerance="10"
     inkscape:pageopacity="0"
     inkscape:pageshadow="2"
     inkscape:window-width="1920"
     inkscape:window-height="1539"
     id="namedview6"
     showgrid="false"
     inkscape:zoom="11.313709"
     inkscape:cx="32.644824"
     inkscape:cy="-8.1853464"
     inkscape:window-x="1920"
     inkscape:window-y="27"
     inkscape:window-maximized="0"
     inkscape:current-layer="svg4" />
  <path
     style="opacity:1;fill:#808080;fill-opacity:1;stroke:none;stroke-width:0.39473861;stroke-linecap:butt;stroke-linejoin:bevel;stroke-miterlimit:4;stroke-dasharray:none;stroke-opacity:1;paint-order:fill markers stroke"
     d="m 9.6406245,3.4400101 a 4.0444445,4.0444445 0 0 0 -3.3991316,1.980901 2.7846317,2.7846317 0 0 0 -0.860417,-0.121527 2.7846317,2.7846317 0 0 0 -2.7331596,2.819444 2.7846317,2.7846317 0 0 0 0.00608,0.119098 C 1.7142397,8.3908771 1.0000001,9.1956411 1.0000001,10.17994 v 0.405903 c 0,1.094058 0.8807674,1.974826 1.9748264,1.974826 H 13.025174 C 14.119232,12.560669 15,11.679901 15,10.585843 V 10.17994 C 15,9.3135891 14.443637,8.5879941 13.670486,8.3205651 a 4.0444445,4.0444445 0 0 0 0.08872,-0.837327 l -0.0013,-0.09965 A 4.0444445,4.0444445 0 0 0 9.6405895,3.4400101 Z"
     id="rect834"
     inkscape:connector-curvature="0" />
</svg>
