<?xml version="1.0" encoding="UTF-8" standalone="no"?>
<svg
   xmlns:dc="http://purl.org/dc/elements/1.1/"
   xmlns:cc="http://creativecommons.org/ns#"
   xmlns:rdf="http://www.w3.org/1999/02/22-rdf-syntax-ns#"
   xmlns:svg="http://www.w3.org/2000/svg"
   xmlns="http://www.w3.org/2000/svg"
   xmlns:sodipodi="http://sodipodi.sourceforge.net/DTD/sodipodi-0.dtd"
   xmlns:inkscape="http://www.inkscape.org/namespaces/inkscape"
   height="16"
   width="16"
   version="1.1"
   id="svg12"
   sodipodi:docname="preferences-desktop-locale-symbolic.svg"
   inkscape:version="0.92.3 (2405546, 2018-03-11)">
  <metadata
     id="metadata18">
    <rdf:RDF>
      <cc:Work
         rdf:about="">
        <dc:format>image/svg+xml</dc:format>
        <dc:type
           rdf:resource="http://purl.org/dc/dcmitype/StillImage" />
        <dc:title></dc:title>
      </cc:Work>
    </rdf:RDF>
  </metadata>
  <defs
     id="defs16" />
  <sodipodi:namedview
     pagecolor="#ffffff"
     bordercolor="#666666"
     borderopacity="1"
     objecttolerance="10"
     gridtolerance="10"
     guidetolerance="10"
     inkscape:pageopacity="0"
     inkscape:pageshadow="2"
     inkscape:window-width="1920"
     inkscape:window-height="1539"
     id="namedview14"
     showgrid="false"
     inkscape:zoom="14.75"
     inkscape:cx="2.3389831"
     inkscape:cy="8"
     inkscape:window-x="1920"
     inkscape:window-y="27"
     inkscape:window-maximized="0"
     inkscape:current-layer="svg12" />
  <g
     id="g1039"
     transform="matrix(0.10348065,0,0,0.10348065,7.1721548,7.1721548)">
    <path
       id="circle1036"
       d="m 15.730469,-68.921875 v 12.498047 l -5.154297,5.154297 v 5.152343 l -7.7304689,7.732422 v 5.152344 h -5.1542969 l -10.3066402,-10.30664 v -10.308594 l -10.835938,-8.667969 a 77.309143,77.309143 0 0 0 -21.005859,13.822266 h 13.802734 L -25.5,-43.539062 v 5.154296 h -7.732422 l -7.730469,7.730469 V -25.5 l 5.154297,5.152344 h 5.154297 v -10.306641 l 12.533203,0.160156 5.50586,4.994141 v 7.730469 l -5.154297,5.154297 v 5.1542965 h -5.154297 l -7.570313,7.21289062 -0.160156,10.82421888 -5.154297,-5.1523439 h -5.154297 l -7.730468,7.7304689 5.154297,5.154297 v 7.730468 L -69.0625,3.0664062 A 77.309143,77.309143 0 0 0 -69.308594,8 77.309143,77.309143 0 0 0 -30.603516,74.902344 L -30.494141,51.992188 -40.962891,41.5 V 28.615234 l 5.154297,-5.154296 h 15.460938 l 5.154297,5.154296 h 10.3085934 l 5.15429685,5.154297 v 10.308594 l -5.15429685,5.154297 v 5.152344 l -7.7304684,7.732422 v 5.152343 l -7.732422,7.732422 v 4.845703 A 77.309143,77.309143 0 0 0 8,85.308594 77.309143,77.309143 0 0 0 54.330078,69.792969 L 41.5,56.962891 V 41.5 L 38.923828,38.923828 V 36.347656 L 33.769531,31.193359 H 26.039062 L 15.730469,20.884766 V 10.576172 L 26.039062,0.26953125 h 18.039063 l 2.576172,2.57617185 h 15.462891 5.152343 L 69.847656,0.26953125 V -2.3085938 h -7.730468 l -7.732422,-7.7304682 h -5.152344 v 2.5781245 l 2.576172,2.5761719 v 2.5761718 H 49.232422 L 44.078125,-7.4609375 V -10.039062 H 33.769531 v 5.1542964 H 20.884766 V -15.193359 h 10.308593 v -7.730469 h 5.154297 v -5.154297 h 12.884766 l 2.576172,-2.416016 v -5.498047 h -5.154297 v 2.759766 h -7.730469 v -5.152344 l 7.730469,-7.732422 h 2.578125 13.951172 A 77.309143,77.309143 0 0 0 15.730469,-68.921875 Z M 62.117188,2.8457031 V 8 l 12.884765,12.884766 v 10.308593 l -5.154297,5.154297 v 17.88086 a 77.309143,77.309143 0 0 0 13.6875,-29.962891 z m -2.578126,-15.4609371 7.730469,7.7304684 h 5.154297 l -7.730469,-7.7304684 z"
       style="display:inline;opacity:0.5;fill:#808080;fill-opacity:1;stroke:none;stroke-width:0.01455759px;stroke-linecap:butt;stroke-linejoin:miter;stroke-miterlimit:4;stroke-dasharray:none;stroke-dashoffset:0;stroke-opacity:1;marker:none;marker-start:none;marker-mid:none;marker-end:none;paint-order:normal;enable-background:new"
       inkscape:connector-curvature="0" />
    <circle
       r="77.309143"
       cy="8"
       cx="8"
       id="circle1036-3"
       style="display:inline;opacity:0.5;fill:#808080;fill-opacity:1;stroke:none;stroke-width:0.01455759px;stroke-linecap:butt;stroke-linejoin:miter;stroke-miterlimit:4;stroke-dasharray:none;stroke-dashoffset:0;stroke-opacity:1;marker:none;marker-start:none;marker-mid:none;marker-end:none;paint-order:normal;enable-background:new" />
  </g>
</svg>
