<?xml version="1.0" encoding="UTF-8" standalone="no"?>
<svg
   xmlns:dc="http://purl.org/dc/elements/1.1/"
   xmlns:cc="http://creativecommons.org/ns#"
   xmlns:rdf="http://www.w3.org/1999/02/22-rdf-syntax-ns#"
   xmlns:svg="http://www.w3.org/2000/svg"
   xmlns="http://www.w3.org/2000/svg"
   xmlns:sodipodi="http://sodipodi.sourceforge.net/DTD/sodipodi-0.dtd"
   xmlns:inkscape="http://www.inkscape.org/namespaces/inkscape"
   height="16"
   width="16"
   version="1.1"
   id="svg8"
   sodipodi:docname="preferences-system-time-symbolic.svg"
   inkscape:version="0.92.3 (2405546, 2018-03-11)">
  <metadata
     id="metadata14">
    <rdf:RDF>
      <cc:Work
         rdf:about="">
        <dc:format>image/svg+xml</dc:format>
        <dc:type
           rdf:resource="http://purl.org/dc/dcmitype/StillImage" />
        <dc:title />
      </cc:Work>
    </rdf:RDF>
  </metadata>
  <defs
     id="defs12" />
  <sodipodi:namedview
     pagecolor="#ffffff"
     bordercolor="#666666"
     borderopacity="1"
     objecttolerance="10"
     gridtolerance="10"
     guidetolerance="10"
     inkscape:pageopacity="0"
     inkscape:pageshadow="2"
     inkscape:window-width="1920"
     inkscape:window-height="1019"
     id="namedview10"
     showgrid="false"
     inkscape:zoom="32"
     inkscape:cx="1.4460279"
     inkscape:cy="10.614607"
     inkscape:window-x="0"
     inkscape:window-y="27"
     inkscape:window-maximized="1"
     inkscape:current-layer="layer1" />
  <g
     inkscape:groupmode="layer"
     id="layer1"
     inkscape:label="Layer 1">
    <path
       style="display:inline;fill:#808080;fill-opacity:1;stroke:none;stroke-width:0.17680639;stroke-miterlimit:4;stroke-dasharray:none;stroke-opacity:1"
       d="m 12.408083,3.1325984 0.457031,0.4570313 -4.2343749,4.234375 a 0.64516127,0.64516127 0 0 1 0.02148,0.1660156 0.64516127,0.64516127 0 0 1 -0.482422,0.6230471 V 13.15213 H 7.8455781 V 8.6130674 a 0.64516127,0.64516127 0 0 1 -0.482421,-0.6230471 0.64516127,0.64516127 0 0 1 0.02148,-0.1660156 l -2.408195,-2.4101563 0.455078,-0.4550781 2.410156,2.4082031 a 0.64516127,0.64516127 0 0 1 0.0039,0 V 6.6990047 h 0.324215 v 0.6660156 a 0.64516127,0.64516127 0 0 1 0.0039,0.00195 z"
       id="path1090"
       inkscape:connector-curvature="0" />
  </g>
</svg>
