<?xml version="1.0" encoding="UTF-8" standalone="no"?>
<svg
   xmlns:dc="http://purl.org/dc/elements/1.1/"
   xmlns:cc="http://creativecommons.org/ns#"
   xmlns:rdf="http://www.w3.org/1999/02/22-rdf-syntax-ns#"
   xmlns:svg="http://www.w3.org/2000/svg"
   xmlns="http://www.w3.org/2000/svg"
   xmlns:sodipodi="http://sodipodi.sourceforge.net/DTD/sodipodi-0.dtd"
   xmlns:inkscape="http://www.inkscape.org/namespaces/inkscape"
   height="16"
   width="16"
   version="1.1"
   id="svg10"
   sodipodi:docname="network-wireless-signal-none-secure-symbolic.svg"
   inkscape:version="0.92.3 (2405546, 2018-03-11)">
  <metadata
     id="metadata16">
    <rdf:RDF>
      <cc:Work
         rdf:about="">
        <dc:format>image/svg+xml</dc:format>
        <dc:type
           rdf:resource="http://purl.org/dc/dcmitype/StillImage" />
      </cc:Work>
    </rdf:RDF>
  </metadata>
  <defs
     id="defs14">
    <clipPath
       clipPathUnits="userSpaceOnUse"
       id="clipPath1127">
      <rect
         style="fill:#4d4d4d;fill-opacity:1;stroke:none;stroke-width:1.00162208;stroke-miterlimit:10;stroke-dasharray:none;stroke-opacity:1"
         id="rect1129"
         width="113.66741"
         height="54.624001"
         x="-328.80466"
         y="121.6497" />
    </clipPath>
  </defs>
  <sodipodi:namedview
     pagecolor="#ffffff"
     bordercolor="#666666"
     borderopacity="1"
     objecttolerance="10"
     gridtolerance="10"
     guidetolerance="10"
     inkscape:pageopacity="0"
     inkscape:pageshadow="2"
     inkscape:window-width="1920"
     inkscape:window-height="1539"
     id="namedview12"
     showgrid="false"
     inkscape:zoom="45.254834"
     inkscape:cx="0.077675429"
     inkscape:cy="7.6416332"
     inkscape:window-x="0"
     inkscape:window-y="27"
     inkscape:window-maximized="0"
     inkscape:current-layer="svg10" />
  <path
     style="fill:#808080;fill-opacity:1;stroke:none;stroke-width:0.07469685;stroke-miterlimit:10;stroke-dasharray:none;stroke-opacity:1"
     d="M 7.999888,0 C 5.8156743,0 4.0370149,1.7984373 4.0361177,4.0029385 c 1.37e-5,0.035209 0.01456,0.06679 0.01576,0.101832 H 1.568664 V 16 H 14.431336 V 4.1047723 h -2.483232 c 9.34e-4,-0.035042 0.01575,-0.066647 0.01575,-0.101832 C 11.962985,1.7984373 10.184328,0 8.000112,0 Z m 0,0.88910651 c 1.708053,0 3.08172,1.38993669 3.082498,3.11383199 -1.9e-5,0.035281 -0.01432,0.066766 -0.01576,0.101832 H 4.9290469 c -0.00114,-0.035065 -0.01576,-0.066575 -0.01576,-0.101832 9.382e-4,-1.7237592 1.3784605,-3.11383199 3.0864125,-3.11383199 z m 0,5.55789739 A 1.4777538,1.3789134 0 0 1 9.476511,7.8257057 1.4777538,1.3789134 0 0 1 8.7793257,8.9968179 L 9.844687,13.003674 H 6.155088 L 7.2165349,8.9929031 A 1.4777538,1.3789134 0 0 1 6.5232674,7.8257057 1.4777538,1.3789134 0 0 1 7.999888,6.4470039 Z"
     id="rect1093"
     inkscape:connector-curvature="0" />
</svg>
