<?xml version="1.0" encoding="UTF-8" standalone="no"?>
<svg
   xmlns:dc="http://purl.org/dc/elements/1.1/"
   xmlns:cc="http://creativecommons.org/ns#"
   xmlns:rdf="http://www.w3.org/1999/02/22-rdf-syntax-ns#"
   xmlns:svg="http://www.w3.org/2000/svg"
   xmlns="http://www.w3.org/2000/svg"
   xmlns:sodipodi="http://sodipodi.sourceforge.net/DTD/sodipodi-0.dtd"
   xmlns:inkscape="http://www.inkscape.org/namespaces/inkscape"
   height="16"
   width="16"
   version="1.1"
   id="svg8"
   sodipodi:docname="software-store-symbolic.svg"
   inkscape:version="0.92.3 (2405546, 2018-03-11)">
  <metadata
     id="metadata14">
    <rdf:RDF>
      <cc:Work
         rdf:about="">
        <dc:format>image/svg+xml</dc:format>
        <dc:type
           rdf:resource="http://purl.org/dc/dcmitype/StillImage" />
        <dc:title></dc:title>
      </cc:Work>
    </rdf:RDF>
  </metadata>
  <defs
     id="defs12" />
  <sodipodi:namedview
     pagecolor="#ffffff"
     bordercolor="#666666"
     borderopacity="1"
     objecttolerance="10"
     gridtolerance="10"
     guidetolerance="10"
     inkscape:pageopacity="0"
     inkscape:pageshadow="2"
     inkscape:window-width="1572"
     inkscape:window-height="1272"
     id="namedview10"
     showgrid="false"
     inkscape:zoom="14.75"
     inkscape:cx="2.1355932"
     inkscape:cy="8"
     inkscape:window-x="110"
     inkscape:window-y="88"
     inkscape:window-maximized="0"
     inkscape:current-layer="svg8" />
  <g
     id="g866"
     transform="translate(29.124496,0.36611786)">
    <path
       inkscape:connector-curvature="0"
       id="path1392-8"
       d="m -21.12554,-0.36611919 a 3.9923085,4.5626383 0 0 0 -3.992308,4.56263799 h 0.228132 a 3.7641766,4.3019163 0 0 1 3.764176,-4.30197999 3.7641766,4.3019163 0 0 1 3.764178,4.30197999 h 0.228132 a 3.9923085,4.5626383 0 0 0 -3.99231,-4.56263799 z"
       style="opacity:0.93999999;fill:#808080;fill-opacity:0.94117647;stroke:none;stroke-width:0.08967195;stroke-linecap:butt;stroke-linejoin:bevel;stroke-miterlimit:4;stroke-dasharray:none;stroke-opacity:1;paint-order:fill markers stroke" />
    <path
       style="fill:#808080;fill-opacity:0.50196078;fill-rule:evenodd;stroke:none;stroke-width:0.11361314"
       d="m -28.571494,1.9151998 v 1.570656 h 14.891909 v -1.570656 h -14.891909"
       id="path758"
       inkscape:connector-curvature="0" />
    <rect
       ry="0"
       y="3.4858589"
       x="-29.109114"
       height="12.148025"
       width="15.969234"
       id="rect1285"
       style="opacity:0.93999999;fill:#808080;fill-opacity:1;stroke:none;stroke-width:0.06635584;stroke-linecap:butt;stroke-linejoin:bevel;stroke-miterlimit:4;stroke-dasharray:none;stroke-opacity:1;paint-order:fill markers stroke" />
    <path
       sodipodi:nodetypes="cccc"
       inkscape:connector-curvature="0"
       id="rect1333-4"
       d="m -27.055925,2.8442348 v 0.641621 h -2.053188 z"
       style="opacity:0.93999999;fill:#808080;fill-opacity:0.94117647;stroke:none;stroke-width:0.09941535;stroke-linecap:butt;stroke-linejoin:bevel;stroke-miterlimit:4;stroke-dasharray:none;stroke-opacity:1;paint-order:fill markers stroke" />
    <path
       sodipodi:nodetypes="cccc"
       inkscape:connector-curvature="0"
       id="rect1333-7"
       d="m -28.571492,1.9151994 6.84e-4,1.4019601 1.514904,-0.4729247 z"
       style="opacity:0.93999999;fill:#808080;fill-opacity:0.7372549;stroke:none;stroke-width:0.08836921;stroke-linecap:butt;stroke-linejoin:bevel;stroke-miterlimit:4;stroke-dasharray:none;stroke-opacity:1;paint-order:fill markers stroke" />
    <path
       sodipodi:nodetypes="cccc"
       inkscape:connector-curvature="0"
       id="rect1333-4-1"
       d="m -15.193069,2.8442355 v 0.641621 h 2.053187 z"
       style="opacity:0.93999999;fill:#808080;fill-opacity:0.94117647;stroke:none;stroke-width:0.09941535;stroke-linecap:butt;stroke-linejoin:bevel;stroke-miterlimit:4;stroke-dasharray:none;stroke-opacity:1;paint-order:fill markers stroke" />
    <path
       sodipodi:nodetypes="cccc"
       inkscape:connector-curvature="0"
       id="rect1333-7-9"
       d="m -13.677502,1.9152001 -6.84e-4,1.4019602 -1.514905,-0.4729248 z"
       style="opacity:0.93999999;fill:#808080;fill-opacity:0.50196078;stroke:none;stroke-width:0.08836921;stroke-linecap:butt;stroke-linejoin:bevel;stroke-miterlimit:4;stroke-dasharray:none;stroke-opacity:1;paint-order:fill markers stroke" />
    <path
       inkscape:connector-curvature="0"
       id="path1392"
       d="m -21.124497,0.41920881 a 3.9923085,4.5626383 0 0 0 -3.992308,4.56263799 h 0.228131 a 3.7641766,4.3019163 0 0 1 3.764177,-4.30197899 3.7641766,4.3019163 0 0 1 3.764177,4.30197899 h 0.228132 a 3.9923085,4.5626383 0 0 0 -3.992309,-4.56263799 z"
       style="opacity:1;fill:#808080;fill-opacity:0.94117647;stroke:none;stroke-width:0.08967195;stroke-linecap:butt;stroke-linejoin:bevel;stroke-miterlimit:4;stroke-dasharray:none;stroke-opacity:1;paint-order:fill markers stroke" />
    <circle
       r="0.34219787"
       cy="4.8107338"
       cx="-24.945684"
       id="path1428"
       style="opacity:0.93999999;fill:#ffffff;fill-opacity:1;stroke:none;stroke-width:0.02744312;stroke-linecap:butt;stroke-linejoin:bevel;stroke-miterlimit:4;stroke-dasharray:none;stroke-opacity:1;paint-order:fill markers stroke" />
    <circle
       r="0.34219787"
       cy="4.8107338"
       cx="-17.303267"
       id="path1428-8"
       style="opacity:0.93999999;fill:#ffffff;fill-opacity:1;stroke:none;stroke-width:0.02744312;stroke-linecap:butt;stroke-linejoin:bevel;stroke-miterlimit:4;stroke-dasharray:none;stroke-opacity:1;paint-order:fill markers stroke" />
    <path
       inkscape:connector-curvature="0"
       id="path820"
       d="m -21.124498,6.5598688 a 3,3 0 0 0 -2.999999,3 3,3 0 0 0 2.999999,2.9999992 3,3 0 0 0 3.000001,-2.9999992 3,3 0 0 0 -3.000001,-3 z m 0,0.375 a 2.625,2.625 0 0 1 2.625001,2.625 2.625,2.625 0 0 1 -2.625001,2.6249992 2.625,2.625 0 0 1 -2.624998,-2.6249992 2.625,2.625 0 0 1 2.624998,-2.625 z"
       style="fill:#ffffff;fill-opacity:1;stroke:none;stroke-width:1.22908413;stroke-miterlimit:4;stroke-dasharray:none;stroke-opacity:1" />
  </g>
</svg>
