<?xml version="1.0" encoding="UTF-8" standalone="no"?>
<svg
   xmlns:dc="http://purl.org/dc/elements/1.1/"
   xmlns:cc="http://creativecommons.org/ns#"
   xmlns:rdf="http://www.w3.org/1999/02/22-rdf-syntax-ns#"
   xmlns:svg="http://www.w3.org/2000/svg"
   xmlns="http://www.w3.org/2000/svg"
   xmlns:sodipodi="http://sodipodi.sourceforge.net/DTD/sodipodi-0.dtd"
   xmlns:inkscape="http://www.inkscape.org/namespaces/inkscape"
   height="16"
   width="16"
   version="1.1"
   id="svg10"
   sodipodi:docname="drive-harddisk-symbolic.svg"
   inkscape:version="0.92.3 (2405546, 2018-03-11)">
  <metadata
     id="metadata16">
    <rdf:RDF>
      <cc:Work
         rdf:about="">
        <dc:format>image/svg+xml</dc:format>
        <dc:type
           rdf:resource="http://purl.org/dc/dcmitype/StillImage" />
        <dc:title />
      </cc:Work>
    </rdf:RDF>
  </metadata>
  <defs
     id="defs14">
    <clipPath
       clipPathUnits="userSpaceOnUse"
       id="clipPath844">
      <rect
         style="opacity:1;fill:#008080;fill-opacity:1;stroke:none;stroke-width:1.10936391;stroke-linecap:butt;stroke-linejoin:bevel;stroke-miterlimit:10.00000095;stroke-dasharray:none;stroke-opacity:1;paint-order:fill markers stroke"
         id="rect847"
         width="12.291875"
         height="12.466972"
         x="0.99531424"
         y="0.1680488" />
    </clipPath>
    <clipPath
       id="clip261-3">
      <path
         inkscape:connector-curvature="0"
         d="m 103,95 h 28.8125 v 26 H 103 Z m 0,0"
         id="path1591-7" />
    </clipPath>
    <clipPath
       id="clip1-8">
      <path
         inkscape:connector-curvature="0"
         d="M 0,0 H 131.8125 V 194.17187 H 0 Z m 0,0"
         id="path2-4" />
    </clipPath>
    <clipPath
       id="clip261-3-3">
      <path
         inkscape:connector-curvature="0"
         d="m 103,95 h 28.8125 v 26 H 103 Z m 0,0"
         id="path1591-7-6" />
    </clipPath>
    <clipPath
       id="clip1-8-3">
      <path
         inkscape:connector-curvature="0"
         d="M 0,0 H 131.8125 V 194.17187 H 0 Z m 0,0"
         id="path2-4-6" />
    </clipPath>
  </defs>
  <sodipodi:namedview
     pagecolor="#ffffff"
     bordercolor="#666666"
     borderopacity="1"
     objecttolerance="10"
     gridtolerance="10"
     guidetolerance="10"
     inkscape:pageopacity="0"
     inkscape:pageshadow="2"
     inkscape:window-width="1920"
     inkscape:window-height="1539"
     id="namedview12"
     showgrid="false"
     inkscape:zoom="29.5"
     inkscape:cx="-2.0257994"
     inkscape:cy="15.341307"
     inkscape:window-x="102"
     inkscape:window-y="70"
     inkscape:window-maximized="0"
     inkscape:current-layer="svg10" />
  <g
     id="g1058">
    <path
       id="rect5147-7"
       d="M 3.003906,0 C 2.647232,0 2.361328,0.287857 2.361328,0.644531 V 15.355469 C 2.361328,15.712142 2.647232,16 3.003906,16 h 9.992188 c 0.356673,0 0.642578,-0.287858 0.642578,-0.644531 V 0.644531 C 13.638672,0.287857 13.352767,0 12.996094,0 Z m 0.564453,0.36914 h 8.857422 c 0.414247,0 0.75,0.335753 0.75,0.75 v 13.761719 c 0,0.413939 -0.335753,0.75 -0.75,0.75 H 3.568359 c -0.413939,0 -0.75,-0.336061 -0.75,-0.75 V 1.11914 c 0,-0.414247 0.336061,-0.75 0.75,-0.75 z"
       style="fill:#808080;fill-opacity:1;stroke:none;stroke-width:0.09030152;stroke-linecap:butt;stroke-linejoin:bevel;stroke-miterlimit:4;stroke-dasharray:none;stroke-opacity:1;paint-order:fill markers stroke"
       inkscape:connector-curvature="0" />
    <path
       style="fill:#808080;fill-opacity:1;fill-rule:nonzero;stroke:none;stroke-width:0.07861171"
       d="M 5.15217,2.1445016 4.869352,0.917422 4.586227,2.1445016 4.869352,2.2310976 5.15217,2.1445016 M 4.167681,2.8695104 3.24645,3.7280976 4.450806,3.3596052 4.384166,3.07126 Z M 5.287591,3.3596052 6.491947,3.7280976 5.570716,2.8695104 5.354227,3.07126 Z m 0,0"
       id="path1609-8-5"
       inkscape:connector-curvature="0" />
    <path
       style="fill:#808080;fill-opacity:1;fill-rule:nonzero;stroke:none;stroke-width:0.07861171"
       d="M 4.884092,2.2267983 4.869352,0.917422 4.586227,2.1448087 l 0.283125,0.086289 0.01474,-0.0043 M 4.167681,2.8695107 3.24645,3.7280979 4.38417,3.0712603 Z m 0,0"
       id="path1611-5-3"
       inkscape:connector-curvature="0" />
    <path
       style="fill:#808080;fill-opacity:1;fill-rule:nonzero;stroke:none;stroke-width:0.07861171"
       d="M 5.365588,3.0605123 6.491947,3.7280976 5.287591,3.3596052 5.354231,3.07126 5.365591,3.060512 M 4.450809,3.3596053 3.246453,3.7280976 4.384173,3.07126 Z m 0,0"
       id="path1613-0-5"
       inkscape:connector-curvature="0" />
    <path
       style="fill:#808080;fill-opacity:1;fill-rule:nonzero;stroke:none;stroke-width:0.07861171"
       d="M 4.869352,2.4586414 3.643808,2.0837004 4.581314,2.9573344 4.869352,4.2062166 5.157083,2.9573344 6.094589,2.0837004 4.869352,2.4586414"
       id="path1615-9-6"
       inkscape:connector-curvature="0" />
    <path
       style="fill:#808080;fill-opacity:1;fill-rule:nonzero;stroke:none;stroke-width:0.07861171"
       d="M 4.869352,2.7727811 3.643808,2.0837004 4.581314,2.9573344 4.869352,4.2062166 Z m 0,0"
       id="path1617-9-2"
       inkscape:connector-curvature="0" />
    <path
       style="fill:#808080;fill-opacity:1;fill-rule:nonzero;stroke:none;stroke-width:0.07861171"
       d="M 4.869352,2.7727811 6.094589,2.0837004 5.157083,2.9573344 4.869352,4.2062166 V 2.7727811"
       id="path1619-8-9"
       inkscape:connector-curvature="0" />
    <path
       style="fill:#808080;fill-opacity:1;fill-rule:nonzero;stroke:none;stroke-width:0.07861171"
       d="m 3.621698,13.476565 c 0.05374,0 0.09949,0.0043 0.144326,-0.0012 0.06541,-0.008 0.110855,-0.04606 0.123138,-0.11239 0.0132,-0.07155 0.01812,-0.153539 -0.05435,-0.189159 -0.05619,-0.02764 -0.129587,-0.02119 -0.195608,-0.02733 -0.0049,-3.15e-4 -0.01658,0.02119 -0.01689,0.03255 -0.0012,0.09704 -6.13e-4,0.194074 -6.13e-4,0.297559 m 6.13e-4,0.164286 v 0.484568 H 3.393235 v -1.162594 c 0.185782,0.01044 0.375248,0.01044 0.561337,0.03562 0.109012,0.01474 0.165514,0.119146 0.171963,0.248119 0.0083,0.159986 -0.03777,0.244433 -0.179026,0.310147 0.163365,0.04053 0.163058,0.167664 0.17227,0.290188 0.0071,0.09304 0.01474,0.186088 0.02242,0.284046 -0.03838,0 -0.09274,-0.0055 -0.145555,0.0012 -0.08506,0.01105 -0.102871,-0.03439 -0.104406,-0.104098 -0.0018,-0.07861 -0.0034,-0.15753 -0.01136,-0.235837 -0.01259,-0.127129 -0.04268,-0.151694 -0.171349,-0.151387 -0.02641,0 -0.05312,0 -0.08721,0"
       id="path1703-9-2"
       inkscape:connector-curvature="0" />
    <path
       style="fill:#808080;fill-opacity:1;fill-rule:nonzero;stroke:none;stroke-width:0.07861171"
       d="M 5.819755,14.127568 H 5.594054 v -0.513741 c -0.08168,0 -0.154767,-0.0043 -0.22693,0.0031 -0.0175,0.0018 -0.04391,0.04146 -0.04453,0.06449 -0.0046,0.116996 -0.0022,0.234299 -0.0022,0.351296 0,0.02948 0,0.05865 0,0.09335 H 5.092236 v -1.147854 h 0.225088 v 0.429907 h 0.273605 v -0.429907 h 0.228773 z m 0,0"
       id="path1705-0-7"
       inkscape:connector-curvature="0" />
    <path
       style="fill:#808080;fill-opacity:1;fill-rule:nonzero;stroke:none;stroke-width:0.07861171"
       d="m 5.961625,13.775043 h 0.218332 c 0.0043,0.0261 0.0074,0.04975 0.01198,0.07339 0.01628,0.08782 0.05589,0.125595 0.141255,0.128668 0.07124,0.0025 0.128972,-0.02426 0.154153,-0.09581 0.02549,-0.07247 -0.0037,-0.149853 -0.07738,-0.186396 -0.07001,-0.03501 -0.145861,-0.05773 -0.218331,-0.08844 -0.186703,-0.07922 -0.25426,-0.216489 -0.208199,-0.413326 0.02856,-0.122216 0.106556,-0.197144 0.224781,-0.219252 0.07554,-0.01382 0.157223,-0.01413 0.233378,-0.0028 0.171042,0.0261 0.254874,0.143098 0.240749,0.321817 h -0.21434 c -0.0028,-0.01812 -0.0055,-0.03624 -0.0083,-0.05405 -0.0095,-0.06326 -0.04299,-0.114539 -0.108398,-0.110239 -0.04514,0.0031 -0.103178,0.02825 -0.128051,0.06326 -0.03777,0.05251 -0.03071,0.121603 0.01996,0.171656 0.02426,0.02365 0.05834,0.03931 0.08997,0.05374 0.07646,0.03501 0.156302,0.06326 0.231229,0.101028 0.136956,0.06909 0.190081,0.176263 0.169507,0.328573 -0.02027,0.152003 -0.100722,0.252724 -0.244741,0.278518 -0.08936,0.01597 -0.184553,0.01965 -0.27422,0.0077 -0.19008,-0.02549 -0.281282,-0.159987 -0.253338,-0.358052"
       id="path1707-3-0"
       inkscape:connector-curvature="0" />
    <path
       style="fill:#808080;fill-opacity:1;fill-rule:nonzero;stroke:none;stroke-width:0.07861171"
       d="m 4.471994,13.690903 c 0.008,0.07309 0.0129,0.14617 0.02518,0.218026 0.0092,0.05405 0.04821,0.09611 0.101949,0.08291 0.03654,-0.0092 0.08905,-0.05251 0.0912,-0.08352 0.0098,-0.14494 0.0095,-0.291109 0,-0.43605 -0.0021,-0.03071 -0.05497,-0.07339 -0.09151,-0.0826 -0.05404,-0.01351 -0.09243,0.02948 -0.101642,0.0826 -0.01259,0.07186 -0.0172,0.144941 -0.02518,0.218639 m -0.22478,-0.01351 c 0.01105,-0.06664 0.01781,-0.148626 0.039,-0.226317 0.04207,-0.153538 0.149239,-0.220789 0.329494,-0.217718 0.164286,0.0028 0.25948,0.07186 0.296943,0.224781 0.03838,0.155688 0.03992,0.312911 -0.0046,0.467678 -0.04637,0.162751 -0.157838,0.230921 -0.351296,0.221095 -0.159373,-0.008 -0.255488,-0.0912 -0.284353,-0.251803 -0.01198,-0.06664 -0.01597,-0.134807 -0.02518,-0.217717"
       id="path1709-0-9"
       inkscape:connector-curvature="0" />
    <path
       style="fill:#808080;fill-opacity:1;fill-rule:nonzero;stroke:none;stroke-width:0.07861171"
       d="m 7.310921,13.568074 c 0,-0.176877 0,-0.353754 0,-0.53063 3.07e-4,-0.0095 9.22e-4,-0.01935 0.0028,-0.02856 0.0028,-0.0132 0.01474,-0.02303 0.02825,-0.02395 0.01382,-6.28e-4 0.02764,-6.28e-4 0.04115,-6.28e-4 0.154766,0 0.30984,0 0.464607,0 0.0092,0 0.01044,0.0012 0.01044,0.01013 0,0.0519 0,0.103792 0,0.155381 0,0.01013 -9.22e-4,0.01105 -0.01106,0.01105 -0.114233,0 -0.228465,0 -0.342698,-3.14e-4 -0.0064,0 -0.0089,0.0025 -0.0089,0.0092 0,0.0955 -3.07e-4,0.191309 -6.13e-4,0.28681 0,0.0083 0.0021,0.01044 0.01075,0.01044 0.11454,0 0.228773,-3.14e-4 0.343312,0 0.0077,0 0.01167,-0.0018 0.0132,-0.01044 0.0071,-0.04115 0.01597,-0.08168 0.03009,-0.120988 0.0261,-0.07339 0.06449,-0.139106 0.116382,-0.197145 0.04023,-0.04483 0.0869,-0.0823 0.139106,-0.111775 0.04422,-0.02487 0.0912,-0.04207 0.140642,-0.05282 0.06633,-0.01443 0.132964,-0.01474 0.1996,-0.0021 0.039,0.0071 0.07677,0.01965 0.112697,0.03593 0.06725,0.03071 0.125287,0.0737 0.174727,0.12805 0.02487,0.02702 0.0479,0.05589 0.06571,0.08813 0.01075,0.01904 0.01935,0.039 0.02886,0.05835 0.0068,0.01413 0.0068,0.01413 -0.0089,0.01413 -0.04913,0 -0.09796,0 -0.146783,0 -0.0064,0 -0.01105,-0.0015 -0.01535,-0.0071 -0.0175,-0.02242 -0.03378,-0.04637 -0.05527,-0.06571 -0.04668,-0.04238 -0.100107,-0.07247 -0.161216,-0.08813 -0.06049,-0.01535 -0.121602,-0.01535 -0.182096,9.2e-4 -0.07124,0.01935 -0.131736,0.05712 -0.18179,0.111776 -0.03931,0.04238 -0.06756,0.0912 -0.0869,0.145555 -0.01781,0.05159 -0.0261,0.104713 -0.02457,0.159679 0.0018,0.07523 0.02057,0.145861 0.05834,0.210656 0.03654,0.06234 0.08506,0.112697 0.148318,0.148011 0.07339,0.04146 0.152003,0.05619 0.235221,0.04361 0.05957,-0.0089 0.113311,-0.03286 0.162137,-0.06817 0.0304,-0.0218 0.05589,-0.04821 0.07738,-0.07892 0.0049,-0.0071 0.01013,-0.0098 0.01904,-0.0095 0.05128,3.15e-4 0.102563,-3.14e-4 0.153845,-3.14e-4 0.0086,0 0.0095,0.0015 0.0058,0.0092 -0.0086,0.0175 -0.01627,0.03531 -0.02579,0.0522 -0.01842,0.03255 -0.04176,0.06172 -0.06694,0.08936 -0.02733,0.03009 -0.05773,0.05681 -0.09151,0.07984 -0.0436,0.03009 -0.09059,0.05405 -0.141256,0.06971 -0.06633,0.01996 -0.133885,0.02702 -0.202671,0.01934 -0.03593,-0.004 -0.07093,-0.01197 -0.105327,-0.02334 -0.05742,-0.01904 -0.109012,-0.04791 -0.156609,-0.08506 -0.03531,-0.02733 -0.06602,-0.05957 -0.09366,-0.09458 -0.04729,-0.05988 -0.08076,-0.126823 -0.101642,-0.200215 -0.0083,-0.02948 -0.01351,-0.05988 -0.01965,-0.08997 -0.0015,-0.0064 -0.0037,-0.0095 -0.01044,-0.0095 -0.01044,3.15e-4 -0.02088,0 -0.03102,0 -0.105634,0 -0.210962,0 -0.316289,0 -0.0095,0 -0.01106,0.0015 -0.01106,0.01044 0,0.158758 0,0.317517 0,0.476277 0,0.0052 0,0.0098 0,0.01505 3.07e-4,0.0052 -0.0025,0.0074 -0.0077,0.0074 -0.05558,0 -0.111162,-3.15e-4 -0.16705,-3.15e-4 -0.0055,0 -0.0077,-0.0028 -0.0077,-0.008 0,-0.0089 0,-0.01812 0,-0.02702 0,-0.173805 0,-0.347611 0,-0.521416"
       id="path1711-3-3"
       inkscape:connector-curvature="0" />
    <path
       style="fill:#808080;fill-opacity:1;fill-rule:nonzero;stroke:none;stroke-width:0.07861171"
       d="m 8.608322,13.427739 c -0.01843,0 -0.03685,-3.14e-4 -0.05527,0 -0.0077,3.15e-4 -0.0132,-0.0021 -0.0175,-0.0086 -0.01443,-0.02149 -0.03316,-0.03808 -0.05527,-0.05097 -0.03562,-0.01996 -0.07339,-0.02825 -0.114232,-0.02149 -0.04453,0.0077 -0.08045,0.02948 -0.109013,0.06356 -0.01965,0.02334 -0.03316,0.05036 -0.04023,0.08046 -0.01259,0.05251 -0.0074,0.103791 0.01873,0.151081 0.0261,0.04791 0.06479,0.08168 0.118839,0.09304 0.07155,0.01505 0.130508,-0.0068 0.176569,-0.06356 0.01904,-0.02364 0.0098,-0.01965 0.039,-0.01996 0.03255,0 0.06479,0 0.09734,0 0.01075,0 0.01167,9.2e-4 0.008,0.01136 -0.01105,0.03316 -0.02794,0.06326 -0.04913,0.09089 -0.02979,0.03808 -0.06602,0.06848 -0.109934,0.08905 -0.0479,0.02242 -0.09796,0.03194 -0.151081,0.02671 -0.05067,-0.0052 -0.09673,-0.02272 -0.137878,-0.0519 -0.03716,-0.02641 -0.06817,-0.05896 -0.09059,-0.09888 -0.0436,-0.07677 -0.05742,-0.158757 -0.04023,-0.24566 0.01136,-0.05896 0.03623,-0.11147 0.07585,-0.15661 0.0347,-0.03931 0.07615,-0.06909 0.126209,-0.08629 0.05374,-0.01843 0.108705,-0.0218 0.164286,-0.0074 0.07063,0.01812 0.125902,0.05773 0.168892,0.116074 0.01781,0.02395 0.03132,0.05036 0.04268,0.078 0.0037,0.0089 0.0018,0.01105 -0.0077,0.01105 -0.01935,0 -0.039,0 -0.05835,0"
       id="path1713-3-6"
       inkscape:connector-curvature="0" />
    <path
       style="fill:#808080;fill-opacity:1;fill-rule:nonzero;stroke:none;stroke-width:0.07861171"
       d="m 9.688004,13.066617 c -0.0012,-9.2e-4 -0.0021,-0.0015 -0.0034,-0.0025 l -0.02979,0.03194 c 6.13e-4,6.29e-4 0.0015,0.0015 0.0021,0.0025 h 0.03102 z m 0.569628,0.172578 c -0.01351,0.01228 -0.02794,0.02579 -0.04299,0.03869 -0.0071,0.0061 -0.0092,0.0129 -0.0074,0.0218 h 0.05036 z M 10.006136,13.03376 c 3.07e-4,-0.0031 3.07e-4,-0.0052 3.07e-4,-0.0077 3.06e-4,-0.01443 3.06e-4,-0.01443 -0.01382,-0.01443 -0.03255,0 -0.0651,0 -0.09765,0 -0.004,0 -0.008,3.15e-4 -0.01167,6.29e-4 v 0.0215 z m 0.191002,0.93812 c 0.0021,-0.0261 -0.01996,-0.05835 -0.05835,-0.05927 -0.03194,-6.29e-4 -0.05896,0.02672 -0.05927,0.05896 0,0.03255 0.02641,0.05896 0.05896,0.05927 0.03286,0 0.05865,-0.0258 0.05865,-0.05896 M 9.753402,13.098553 h 0.43175 c -0.0031,-0.01228 -0.01105,-0.01996 -0.02027,-0.02641 -0.03746,-0.0258 -0.08107,-0.03317 -0.126209,-0.04115 v 0.0347 H 9.850128 v -0.04238 c -0.02457,0.0031 -0.0479,0.0061 -0.07093,0.0092 -0.0061,9.21e-4 -0.01228,0.0018 -0.01781,0.0043 -0.0034,0.0012 -0.0077,0.0049 -0.0077,0.008 -9.21e-4,0.0175 -3.06e-4,0.03501 -3.06e-4,0.05374 m 0.130815,0.475356 c -0.07001,-0.07523 -0.139106,-0.149854 -0.208199,-0.224166 -6.13e-4,3.13e-4 -0.0015,6.29e-4 -0.0025,0.0012 0.01228,0.133272 0.02426,0.26685 0.03654,0.402885 0.05896,-0.0608 0.116075,-0.11976 0.174113,-0.179947 m 0.246889,0.217717 c 0.01259,-0.153845 0.02457,-0.304314 0.03685,-0.455088 -9.22e-4,-9.21e-4 -0.0018,-0.0015 -0.0025,-0.0025 -0.0043,0.0025 -0.0089,0.0043 -0.01228,0.0077 -0.06049,0.06234 -0.120988,0.124672 -0.181483,0.187317 -0.01413,0.01474 -0.02825,0.02979 -0.04299,0.04514 0.06725,0.07216 0.133886,0.144019 0.202364,0.217409 m -0.399507,0.197758 h 0.297251 c 0.0028,-0.07923 0.02149,-0.103792 0.0955,-0.128052 0.0061,-0.01597 0.0015,-0.02794 -0.01044,-0.04053 -0.05404,-0.05681 -0.10717,-0.114846 -0.160295,-0.17227 -0.01566,-0.01689 -0.03132,-0.03378 -0.04729,-0.05067 -0.0015,0.0015 -0.0028,0.0021 -0.0037,0.0031 -0.06142,0.06356 -0.12283,0.12713 -0.183631,0.191002 -0.0028,0.0028 -0.0043,0.0083 -0.004,0.01259 0.0025,0.03224 0.0055,0.06418 0.0083,0.09642 0.0025,0.02948 0.0055,0.05865 0.0083,0.08844 M 10.183813,13.13568 H 9.654719 c -3.07e-4,0.0012 -6.13e-4,0.0018 -6.13e-4,0.0025 0.0046,0.04883 0.0095,0.09734 0.01351,0.145862 6.13e-4,0.0086 0.0043,0.01443 0.0098,0.02027 0.06049,0.06479 0.120681,0.129894 0.181175,0.194686 0.01597,0.0172 0.03194,0.03409 0.04821,0.05128 0.04729,-0.04883 0.09397,-0.09704 0.140641,-0.145248 -6.13e-4,-6.29e-4 -9.21e-4,-0.0015 -0.0012,-0.0025 H 9.848484 c 0,-0.02211 -3.07e-4,-0.04268 3.07e-4,-0.06326 0,-0.0021 0.0043,-0.0058 0.0068,-0.0058 0.07278,-3.14e-4 0.145554,0 0.218331,-3.14e-4 0.0058,0 0.0077,0.0021 0.0077,0.0077 -3.06e-4,0.0089 0,0.0175 0,0.02702 0.0018,-9.2e-4 0.0028,-0.0012 0.0034,-0.0018 0.02395,-0.02457 0.0479,-0.04913 0.07155,-0.07401 0.0025,-0.0025 0.0034,-0.0074 0.0037,-0.01105 3.06e-4,-0.01781 0,-0.03593 0,-0.05405 v -0.02825 c 0.0068,0 0.01228,-3.15e-4 0.01873,-6.29e-4 0.0015,-0.02088 0.0034,-0.04146 0.0049,-0.06234 m -0.472285,0.890831 c -0.0052,-9.2e-4 -0.0083,-0.0015 -0.01198,-0.0021 -0.0058,-0.06418 -0.01167,-0.128053 -0.01781,-0.194687 -0.123752,0.127744 -0.245662,0.254258 -0.3688,0.381695 -0.0068,-0.0086 -0.0132,-0.01689 -0.02027,-0.02579 0.01075,-0.01106 0.02119,-0.0218 0.03194,-0.03286 0.08107,-0.08352 0.16183,-0.167358 0.242898,-0.251189 0.03501,-0.03593 0.07001,-0.07216 0.104714,-0.108705 0.0031,-0.0031 0.0049,-0.0086 0.0046,-0.0132 -0.0034,-0.04176 -0.0071,-0.08352 -0.01075,-0.125594 -0.0037,-0.04084 -0.0077,-0.08168 -0.01136,-0.122523 -0.0031,-0.03347 -0.0058,-0.06694 -0.0089,-0.100415 -0.0031,-0.03347 -0.0083,-0.06725 -0.0089,-0.101028 -3.06e-4,-0.0218 -0.01105,-0.0347 -0.02426,-0.04883 -0.08782,-0.09427 -0.175341,-0.188546 -0.262858,-0.283125 -0.02487,-0.02641 -0.04975,-0.05312 -0.07431,-0.07984 -0.0025,-0.0028 -0.0043,-0.0071 -0.0046,-0.01044 -6.13e-4,-0.01259 -3.07e-4,-0.02518 -3.07e-4,-0.04053 0.120067,0.128971 0.238599,0.256102 0.358973,0.385688 -0.0037,-0.04084 -0.0071,-0.07861 -0.01075,-0.117611 h -0.04698 c 0,-0.01136 -3.07e-4,-0.02149 3.06e-4,-0.03163 3.07e-4,-0.0015 0.0046,-0.004 0.0074,-0.0043 0.01105,-3.15e-4 0.02242,3.14e-4 0.03347,-3.15e-4 0.0028,-3.13e-4 0.0071,-0.0031 0.0077,-0.0055 0.0064,-0.02641 0.02518,-0.04268 0.04606,-0.05712 6.14e-4,-6.28e-4 0.0012,-9.19e-4 0.0018,-0.0012 0.01904,-0.01044 0.01904,-0.01044 0.01996,-0.03286 0.0031,-3.15e-4 0.0064,-9.21e-4 0.0095,-6.29e-4 0.04883,0.0031 0.09673,-0.0064 0.144634,-0.01228 0.0037,-3.16e-4 0.0068,-0.0043 0.0098,-0.0064 -3.06e-4,-9.2e-4 -6.13e-4,-0.0018 -9.21e-4,-0.0028 h 0.187317 c -0.0043,0.01628 0.0068,0.01658 0.0175,0.01873 0.03194,0.0061 0.06387,0.01198 0.09397,0.02579 0.01996,0.0092 0.039,0.01935 0.05404,0.03685 0.01351,-0.01105 0.02856,-0.01904 0.04575,-0.01412 0.01044,0.0031 0.02119,0.0083 0.02886,0.01566 0.01597,0.01535 0.0175,0.04115 0.0052,0.06019 -0.0129,0.02057 -0.03562,0.02733 -0.06541,0.01843 -0.0015,0.01873 -0.0031,0.03685 -0.0046,0.0565 0.01105,0 0.02088,3.14e-4 0.03071,-3.15e-4 0.0025,0 0.0052,-0.0028 0.0071,-0.0049 0.04023,-0.04145 0.08046,-0.08291 0.120682,-0.124675 0.06357,-0.06541 0.12713,-0.131121 0.190695,-0.196835 9.21e-4,-9.18e-4 0.0018,-0.0018 0.0043,-0.0043 0,0.01566 0.0025,0.03009 -6.13e-4,0.0433 -0.0018,0.0083 -0.01167,0.01474 -0.01812,0.0215 -0.07462,0.07708 -0.149239,0.15446 -0.224166,0.231536 -0.0021,0.0025 -0.0046,0.0049 -0.0068,0.0074 -0.0083,0.0086 -0.01965,0.01597 -0.02364,0.02641 -0.004,0.0098 0,0.02242 0,0.03409 0,0.03378 0,0.06786 0,0.103486 h -0.0912 c -0.0021,0.02641 -0.0043,0.05128 -0.0064,0.07646 -0.0031,0.039 -0.0064,0.07831 -0.0098,0.117305 -0.0021,0.02856 -0.004,0.05681 -0.0064,0.08537 -0.0031,0.03838 -0.0064,0.07646 -0.0092,0.11454 -0.0025,0.03071 -0.0049,0.06172 -0.0068,0.09243 -3.07e-4,0.0034 0.0015,0.008 0.004,0.01044 0.08629,0.09305 0.172578,0.185782 0.259173,0.27852 0.02334,0.02518 0.04698,0.05067 0.07094,0.07677 -0.0071,0.0083 -0.01412,0.01628 -0.0218,0.02549 -0.07554,-0.08137 -0.150161,-0.161829 -0.226623,-0.244126 -0.0015,0.02334 -0.0061,0.0433 -0.0172,0.06172 -0.02027,0.03439 -0.0651,0.0565 -0.104714,0.0519 -0.03624,-0.0043 -0.06387,-0.0215 -0.08383,-0.05159 -0.0015,-0.0021 -0.0052,-0.0046 -0.008,-0.0046 -0.08383,-3.13e-4 -0.167971,0 -0.251803,0 -9.21e-4,0 -0.0018,6.29e-4 -0.004,0.0012 v 0.05282 h -0.06909 z m 0,0"
       id="path1715-7-0"
       inkscape:connector-curvature="0" />
    <path
       style="fill:#808080;fill-opacity:1;fill-rule:nonzero;stroke:none;stroke-width:0.07861171"
       d="m 10.176564,13.973107 c 0,0.02119 -0.0175,0.03869 -0.039,0.03838 -0.02088,-6.29e-4 -0.03808,-0.01781 -0.03808,-0.03869 0,-0.02211 0.01628,-0.03808 0.03869,-0.03808 0.02211,0 0.03839,0.01597 0.03839,0.03838"
       id="path1717-9-6"
       inkscape:connector-curvature="0" />
    <path
       style="fill:#808080;fill-opacity:1;fill-rule:nonzero;stroke:none;stroke-width:0.07861171"
       d="m 12.547812,14.108836 c -0.151389,0.01935 -0.373712,-0.03194 -0.519881,-0.227544 -0.146168,-0.195302 -0.155688,-0.455703 -0.02457,-0.659296 0.134807,-0.21004 0.362965,-0.284046 0.544447,-0.263164 v 0.173498 c -0.126823,-0.01474 -0.238906,0.01873 -0.333485,0.105635 -0.06142,0.0565 -0.100721,0.126209 -0.119454,0.208812 h 0.337172 v 0.173805 h -0.337478 c 0.02457,0.104099 0.07923,0.186396 0.165821,0.246583 0.08629,0.05988 0.182711,0.08137 0.287424,0.06817 z m 0,0"
       id="path1719-4-2"
       inkscape:connector-curvature="0" />
    <path
       style="fill:#808080;fill-opacity:1;fill-rule:nonzero;stroke:none;stroke-width:0.07861171"
       d="m 11.56793,12.959447 v 0.173192 c -0.146476,-0.01689 -0.271149,0.02672 -0.368493,0.137877 -0.07093,0.08138 -0.103178,0.177797 -0.09704,0.285275 0.0068,0.118531 0.05681,0.216795 0.148933,0.29203 0.09182,0.07523 0.198371,0.102256 0.316596,0.08721 v 0.173498 c -0.16183,0.0215 -0.393366,-0.03716 -0.538613,-0.247505 -0.139106,-0.201134 -0.135114,-0.470442 0.01075,-0.669121 0.148624,-0.202362 0.376168,-0.253031 0.527865,-0.232456"
       id="path1721-9-6"
       inkscape:connector-curvature="0" />
    <g
       style="clip-rule:nonzero;opacity:0.5;fill:#808080;fill-opacity:1"
       id="g922"
       clip-path="url(#clip1-8-3)"
       transform="matrix(0.07861171,0,0,0.07861171,2.822068,0.36959721)">
      <path
         inkscape:connector-curvature="0"
         id="path920"
         d="M 122.19531,194.12891 H 9.539062 C 4.273438,194.12891 0,189.85547 0,184.58984 V 9.539062 C 0,4.269531 4.273438,0 9.539062,0 H 122.19531 c 5.26953,0 9.53906,4.269531 9.53906,9.539062 V 184.58984 c 0,5.26563 -4.26953,9.53907 -9.53906,9.53907"
         style="fill:#808080;fill-opacity:1;fill-rule:nonzero;stroke:none" />
    </g>
    <path
       style="fill:#808080;fill-opacity:1;fill-rule:nonzero;stroke:none;stroke-width:0.07861171"
       d="m 10.891132,9.873936 1.01059,-2.0178023"
       id="path1685-3-1"
       inkscape:connector-curvature="0" />
    <g
       transform="matrix(0.07861171,0,0,0.07861171,2.818997,0.369597)"
       clip-path="url(#clip261-3-3)"
       id="g1681-9-7"
       style="clip-rule:nonzero;fill:#808080;fill-opacity:1">
      <path
         style="fill:#808080;fill-opacity:1;fill-rule:nonzero;stroke:none"
         d="M 131.95312,95.234375 H 117 l -13.03906,25.667965 h 27.99218 z m 0,0"
         id="path1679-1-5"
         inkscape:connector-curvature="0" />
    </g>
    <path
       style="fill:#808080;fill-opacity:1;fill-rule:nonzero;stroke:none;stroke-width:0.07861171"
       d="M 4.451111,7.856135 3.426088,9.873937 H 5.312462 L 6.323053,7.856135 Z m 0,0"
       id="path1683-0-3"
       inkscape:connector-curvature="0" />
    <path
       style="fill:#808080;fill-opacity:1;fill-rule:nonzero;stroke:none;stroke-width:0.07861171"
       d="M 10.89113,9.873937 11.90172,7.856135"
       id="path1685-3-5"
       inkscape:connector-curvature="0" />
    <path
       style="fill:#808080;fill-opacity:1;fill-rule:nonzero;stroke:none;stroke-width:0.07861171"
       d="M 11.845525,7.856135 H 6.465843 L 5.441127,9.873937 h 5.394115"
       id="path1687-5-6"
       inkscape:connector-curvature="0" />
  </g>
</svg>
