<?xml version="1.0" encoding="UTF-8" standalone="no"?>
<svg
   xmlns:dc="http://purl.org/dc/elements/1.1/"
   xmlns:cc="http://creativecommons.org/ns#"
   xmlns:rdf="http://www.w3.org/1999/02/22-rdf-syntax-ns#"
   xmlns:svg="http://www.w3.org/2000/svg"
   xmlns="http://www.w3.org/2000/svg"
   xmlns:sodipodi="http://sodipodi.sourceforge.net/DTD/sodipodi-0.dtd"
   xmlns:inkscape="http://www.inkscape.org/namespaces/inkscape"
   height="16"
   width="16"
   version="1.1"
   id="svg4"
   sodipodi:docname="input-mouse-symbolic.svg"
   inkscape:version="0.92.3 (2405546, 2018-03-11)">
  <metadata
     id="metadata10">
    <rdf:RDF>
      <cc:Work
         rdf:about="">
        <dc:format>image/svg+xml</dc:format>
        <dc:type
           rdf:resource="http://purl.org/dc/dcmitype/StillImage" />
        <dc:title />
      </cc:Work>
    </rdf:RDF>
  </metadata>
  <defs
     id="defs8" />
  <sodipodi:namedview
     pagecolor="#ffffff"
     bordercolor="#666666"
     borderopacity="1"
     objecttolerance="10"
     gridtolerance="10"
     guidetolerance="10"
     inkscape:pageopacity="0"
     inkscape:pageshadow="2"
     inkscape:window-width="1920"
     inkscape:window-height="1019"
     id="namedview6"
     showgrid="false"
     inkscape:zoom="83.4386"
     inkscape:cx="6.0296167"
     inkscape:cy="11.275058"
     inkscape:window-x="0"
     inkscape:window-y="27"
     inkscape:window-maximized="0"
     inkscape:current-layer="svg4" />
  <path
     style="display:inline;opacity:1;fill:#808080;fill-opacity:1;fill-rule:nonzero;stroke:none;stroke-width:0.08685602;stroke-linecap:butt;stroke-linejoin:bevel;stroke-miterlimit:4;stroke-dasharray:none;stroke-opacity:1;paint-order:fill markers stroke"
     d="M 7.4199219 0 C 4.9715646 -1.1842379e-15 3 1.9715646 3 4.4199219 L 3 11.580078 C 3 14.028435 4.9715646 16 7.4199219 16 L 8.5800781 16 C 11.028435 16 13 14.028435 13 11.580078 L 13 4.4199219 C 13 1.9715646 11.028435 0 8.5800781 0 L 8.1503906 0 C 8.2056641 0 8.25 0.044335873 8.25 0.099609375 L 8.25 2.2988281 C 8.5365252 2.3773501 8.75 2.6273334 8.75 2.9394531 L 8.75 4.5859375 C 8.75 4.8981032 8.5365901 5.1480828 8.25 5.2265625 L 8.25 7.4257812 C 8.25 7.4810548 8.2056641 7.5253906 8.1503906 7.5253906 L 7.8496094 7.5253906 C 7.7943359 7.5253906 7.75 7.4810548 7.75 7.4257812 L 7.75 5.2265625 C 7.4634099 5.1480828 7.25 4.8981032 7.25 4.5859375 L 7.25 2.9394531 C 7.25 2.6273334 7.4634748 2.3773501 7.75 2.2988281 L 7.75 0.099609375 C 7.75 0.044335873 7.7943359 0 7.8496094 0 L 7.4199219 0 z "
     id="rect1102" />
  <path
     style="display:inline;opacity:0.8;fill:#808080;fill-opacity:1;fill-rule:nonzero;stroke:none;stroke-width:0.01331943;stroke-linecap:butt;stroke-linejoin:bevel;stroke-miterlimit:4;stroke-dasharray:none;stroke-opacity:1;paint-order:fill markers stroke"
     d="M 7.8496094 0 C 7.7943359 0 7.75 0.044335873 7.75 0.099609375 L 7.75 2.2988281 C 7.4634748 2.3773501 7.25 2.6273334 7.25 2.9394531 L 7.25 4.5859375 C 7.25 4.8981032 7.4634099 5.1480828 7.75 5.2265625 L 7.75 7.4257812 C 7.75 7.4810548 7.7943359 7.5253906 7.8496094 7.5253906 L 8.1503906 7.5253906 C 8.2056641 7.5253906 8.25 7.4810548 8.25 7.4257812 L 8.25 5.2265625 C 8.5365901 5.1480828 8.75 4.8981032 8.75 4.5859375 L 8.75 2.9394531 C 8.75 2.6273334 8.5365252 2.3773501 8.25 2.2988281 L 8.25 0.099609375 C 8.25 0.044335873 8.2056641 0 8.1503906 0 L 7.8496094 0 z "
     id="rect1102-3" />
</svg>
