<?xml version="1.0" encoding="UTF-8" standalone="no"?>
<svg
   xmlns:dc="http://purl.org/dc/elements/1.1/"
   xmlns:cc="http://creativecommons.org/ns#"
   xmlns:rdf="http://www.w3.org/1999/02/22-rdf-syntax-ns#"
   xmlns:svg="http://www.w3.org/2000/svg"
   xmlns="http://www.w3.org/2000/svg"
   xmlns:sodipodi="http://sodipodi.sourceforge.net/DTD/sodipodi-0.dtd"
   xmlns:inkscape="http://www.inkscape.org/namespaces/inkscape"
   height="16"
   width="16"
   version="1.1"
   id="svg8"
   sodipodi:docname="media-floppy-symbolic.svg"
   inkscape:version="0.92.3 (2405546, 2018-03-11)">
  <metadata
     id="metadata14">
    <rdf:RDF>
      <cc:Work
         rdf:about="">
        <dc:format>image/svg+xml</dc:format>
        <dc:type
           rdf:resource="http://purl.org/dc/dcmitype/StillImage" />
        <dc:title />
      </cc:Work>
    </rdf:RDF>
  </metadata>
  <defs
     id="defs12">
    <linearGradient
       gradientTransform="matrix(1,0,0,-1,17,770.899)"
       y2="527.7818"
       x2="192.0014"
       y1="623.37549"
       x1="32.4277"
       gradientUnits="userSpaceOnUse"
       id="Metal_gradient">
      <stop
         id="stop4595"
         style="stop-color: rgb(43, 43, 43);"
         offset="0" />
      <stop
         id="stop4597"
         style="stop-color: rgb(133, 133, 133);"
         offset="0.2753" />
      <stop
         id="stop4599"
         style="stop-color: rgb(240, 240, 240);"
         offset="0.691" />
      <stop
         id="stop4601"
         style="stop-color: rgb(235, 235, 235);"
         offset="0.7161" />
      <stop
         id="stop4603"
         style="stop-color: rgb(220, 220, 220);"
         offset="0.7464" />
      <stop
         id="stop4605"
         style="stop-color: rgb(195, 195, 195);"
         offset="0.7794" />
      <stop
         id="stop4607"
         style="stop-color: rgb(178, 178, 178);"
         offset="0.7978" />
      <stop
         id="stop4609"
         style="stop-color: rgb(92, 92, 92);"
         offset="0.9101" />
    </linearGradient>
  </defs>
  <sodipodi:namedview
     pagecolor="#ffffff"
     bordercolor="#666666"
     borderopacity="1"
     objecttolerance="10"
     gridtolerance="10"
     guidetolerance="10"
     inkscape:pageopacity="0"
     inkscape:pageshadow="2"
     inkscape:window-width="1920"
     inkscape:window-height="1019"
     id="namedview10"
     showgrid="false"
     inkscape:zoom="8"
     inkscape:cx="-60.788565"
     inkscape:cy="14.882541"
     inkscape:window-x="0"
     inkscape:window-y="27"
     inkscape:window-maximized="1"
     inkscape:current-layer="svg8" />
  <g
     id="g1123"
     transform="translate(64.701174,2.8730454)">
    <path
       sodipodi:nodetypes="ssssssssscccccccccsssssssss"
       inkscape:connector-curvature="0"
       style="overflow:visible;opacity:0.5;fill:#808080;fill-opacity:0.98431373;stroke:none;stroke-width:0.04765012;stroke-miterlimit:4;stroke-dasharray:none"
       d="m -56.702282,3.0770231 c -0.5662,0 -1.07721,0.22963 -1.4482,0.60063 -0.37099,0.3709599 -0.60063,0.8842899 -0.60063,1.4504199 0,0.5660801 0.22964,1.0771801 0.60063,1.44818 0.37099,0.37101 0.882,0.60063 1.4482,0.60063 0.56611,0 1.07943,-0.22962 1.45042,-0.60063 0.37099,-0.371 0.60063,-0.8821 0.60063,-1.44818 0,-0.56613 -0.22964,-1.07946 -0.60063,-1.4504199 -0.37099,-0.371 -0.88431,-0.60063 -1.45042,-0.60063 z m -1.11672,1.2896499 c 0.0344,-0.008 0.0691,0.0167 0.0775,0.0496 l 0.25838,1.1842 c 0.01,0.0418 -0.008,0.0813 -0.0624,0.0904 l -0.66826,0.13428 c -0.0385,0.007 -0.083,-0.008 -0.0904,-0.0689 l -0.17441,-0.91936 c -0.0377,-0.23768 0.0584,-0.35251 0.20455,-0.38758 z m 0.85199,0.33651 h 0.51166 c 0.0944,0 0.17129,0.077 0.17129,0.1713 v 0.5138601 c 0,0.0944 -0.0769,0.16906 -0.17129,0.16906 h -0.51166 c -0.0943,0 -0.17129,-0.0748 -0.17129,-0.16906 V 4.874483 c 0,-0.0944 0.077,-0.1713 0.17129,-0.1713 z"
       id="hub-7" />
    <path
       id="rect1014"
       d="m -64.125,-2.8730469 c -0.318286,0 -0.576172,0.2559323 -0.576172,0.5742188 V 12.552734 c 0,0.318287 0.257886,0.574219 0.576172,0.574219 h 2.441406 c -0.0024,-0.02983 -0.01758,-0.05545 -0.01758,-0.08594 V 9.2128906 c 0,-0.6011489 0.484789,-1.0859375 1.085938,-1.0859375 h 7.828125 c 0.601149,0 1.085937,0.4847886 1.085937,1.0859375 v 3.8281254 c 0,0.03048 -0.01514,0.0561 -0.01758,0.08594 h 1.017578 l 2,-2 V -2.2988281 c 0,-0.3182865 -0.255932,-0.5742188 -0.574219,-0.5742188 h -1.447265 c 0.0029,0.011935 0.02148,0.022962 0.02148,0.035156 v 1.53125 c 0,0.2404594 -0.581356,0.43359372 -1.302734,0.43359372 h -9.394532 c -0.721379,1e-8 -1.302734,-0.19313432 -1.302734,-0.43359372 v -1.53125 c 0,-0.012196 0.01859,-0.023224 0.02148,-0.035156 z m 7.421875,5.9492188 c 0.56611,0 1.080182,0.2305625 1.451172,0.6015625 0.37099,0.3709599 0.601562,0.8850418 0.601562,1.4511718 0,0.56608 -0.230572,1.0762657 -0.601562,1.4472657 -0.37099,0.37101 -0.885062,0.6015625 -1.451172,0.6015625 -0.5662,0 -1.076276,-0.2305525 -1.447266,-0.6015625 -0.37099,-0.3709999 -0.601562,-0.8811854 -0.601562,-1.4472657 0,-0.56613 0.230572,-1.0802119 0.601562,-1.4511718 0.37099,-0.371 0.881066,-0.6015625 1.447266,-0.6015625 z m -1.115234,1.2910156 -0.455079,0.082031 c -0.146149,0.03507 -0.242778,0.1490387 -0.205078,0.3867187 l 0.173828,0.9199219 c 0.0074,0.0609 0.0533,0.075359 0.0918,0.068359 l 0.667969,-0.1328126 c 0.0544,-0.0091 0.0725,-0.049997 0.0625,-0.091797 l -0.259766,-1.1835938 c -0.0084,-0.0329 -0.04177,-0.056828 -0.07617,-0.048828 z m 0.851562,0.3359375 c -0.09429,0 -0.171875,0.077475 -0.171875,0.171875 v 0.5136719 c 0,0.09426 0.07758,0.1679687 0.171875,0.1679687 h 0.511719 c 0.09439,0 0.171875,-0.073569 0.171875,-0.1679687 V 4.875 c 0,-0.0943 -0.07747,-0.171875 -0.171875,-0.171875 z"
       style="opacity:1;fill:#808080;fill-opacity:1;fill-rule:nonzero;stroke:none;stroke-width:7.6218667;stroke-linecap:butt;stroke-linejoin:bevel;stroke-miterlimit:4;stroke-dasharray:none;stroke-opacity:1;paint-order:fill markers stroke"
       inkscape:connector-curvature="0" />
    <path
       id="rect1038"
       d="m -60.615234,8.1269531 c -0.601149,0 -1.085938,0.4847886 -1.085938,1.0859375 v 3.8281254 c 0,0.03048 0.01514,0.0561 0.01758,0.08594 h 9.964844 c 0.0024,-0.02983 0.01758,-0.05545 0.01758,-0.08594 V 9.2128906 c 0,-0.6011489 -0.484788,-1.0859375 -1.085937,-1.0859375 z"
       style="opacity:0.5;fill:#808080;fill-opacity:1;fill-rule:nonzero;stroke:none;stroke-width:6.80359745;stroke-linecap:butt;stroke-linejoin:bevel;stroke-miterlimit:4;stroke-dasharray:none;stroke-opacity:1;paint-order:fill markers stroke"
       inkscape:connector-curvature="0" />
    <path
       id="rect1038-9"
       d="m -52.004293,-0.8730468 c 0.721378,0 1.303125,-0.1939154 1.303125,-0.4343748 v -1.5312493 c 0,-0.012194 -0.01817,-0.022441 -0.0211,-0.034376 h -11.957808 c -0.0029,0.011932 -0.0211,0.02218 -0.0211,0.034376 v 1.5312493 c 0,0.2404594 0.581745,0.4343748 1.303124,0.4343748 z"
       style="opacity:0.95;fill:#808080;fill-opacity:1;fill-rule:nonzero;stroke:none;stroke-width:4.71366835;stroke-linecap:butt;stroke-linejoin:bevel;stroke-miterlimit:4;stroke-dasharray:none;stroke-opacity:1;paint-order:fill markers stroke"
       inkscape:connector-curvature="0" />
    <path
       inkscape:connector-curvature="0"
       id="path1114"
       d="m -58.615234,8.126953 c -0.601149,0 -1.085938,0.484789 -1.085938,1.085937 v 3.828125 c 0,0.03048 0.01514,0.0561 0.01758,0.08594 h 3.982422 3.982422 c 0.0024,-0.02983 0.01758,-0.05545 0.01758,-0.08594 V 9.21289 c 0,-0.601148 -0.484788,-1.085937 -1.085937,-1.085937 h -2.914063 z m 3.371093,0.5 h 2 v 4 h -2 z"
       style="opacity:0.4;fill:#808080;fill-opacity:1;fill-rule:nonzero;stroke:none;stroke-width:6.80359745;stroke-linecap:butt;stroke-linejoin:bevel;stroke-miterlimit:4;stroke-dasharray:none;stroke-opacity:1;paint-order:fill markers stroke" />
  </g>
</svg>
