<?xml version="1.0" encoding="UTF-8" standalone="no"?>
<svg
   xmlns:dc="http://purl.org/dc/elements/1.1/"
   xmlns:cc="http://creativecommons.org/ns#"
   xmlns:rdf="http://www.w3.org/1999/02/22-rdf-syntax-ns#"
   xmlns:svg="http://www.w3.org/2000/svg"
   xmlns="http://www.w3.org/2000/svg"
   xmlns:sodipodi="http://sodipodi.sourceforge.net/DTD/sodipodi-0.dtd"
   xmlns:inkscape="http://www.inkscape.org/namespaces/inkscape"
   height="16"
   width="16"
   version="1.1"
   id="svg8"
   sodipodi:docname="media-tape-symbolic.svg"
   inkscape:version="0.92.3 (2405546, 2018-03-11)">
  <metadata
     id="metadata14">
    <rdf:RDF>
      <cc:Work
         rdf:about="">
        <dc:format>image/svg+xml</dc:format>
        <dc:type
           rdf:resource="http://purl.org/dc/dcmitype/StillImage" />
      </cc:Work>
    </rdf:RDF>
  </metadata>
  <defs
     id="defs12" />
  <sodipodi:namedview
     pagecolor="#ffffff"
     bordercolor="#666666"
     borderopacity="1"
     objecttolerance="10"
     gridtolerance="10"
     guidetolerance="10"
     inkscape:pageopacity="0"
     inkscape:pageshadow="2"
     inkscape:window-width="1920"
     inkscape:window-height="1539"
     id="namedview10"
     showgrid="false"
     inkscape:zoom="29.5"
     inkscape:cx="6.7017144"
     inkscape:cy="1.6233277"
     inkscape:window-x="1920"
     inkscape:window-y="27"
     inkscape:window-maximized="0"
     inkscape:current-layer="svg8" />
  <g
     id="g1067"
     transform="translate(26.464802,0.09925445)">
    <path
       inkscape:connector-curvature="0"
       id="rect821"
       d="m -24.621052,2.4007451 c -1.021341,0 -1.84375,0.8224092 -1.84375,1.84375 v 7.3144539 c 0,1.021341 0.822409,1.841797 1.84375,1.841797 h 12.3125 c 1.021341,0 1.84375,-0.820456 1.84375,-1.841797 V 4.2444951 c 0,-1.0213408 -0.822409,-1.84375 -1.84375,-1.84375 z m 0.664063,1 h 10.984375 c 0.835642,0 1.507812,0.6741231 1.507812,1.5097656 v 5.9824223 c 0,0.835642 -0.67217,1.507813 -1.507812,1.507813 h -10.984375 c -0.835643,0 -1.507813,-0.672171 -1.507813,-1.507813 V 4.9105107 c 0,-0.8356425 0.67217,-1.5097656 1.507813,-1.5097656 z"
       style="opacity:1;fill:#808080;fill-opacity:1;stroke:none;stroke-width:0.80269915;stroke-opacity:0.94117647" />
    <path
       style="opacity:1;fill:#808080;fill-opacity:1;stroke:none;stroke-width:1.50793087;stroke-opacity:0.94117647"
       d="m -21.73709,10.490631 a 2.5,2.5 0 0 0 2.5,-2.5 2.5,2.5 0 0 0 -2.5,-2.499999 2.5,2.5 0 0 0 -2.5,2.499999 2.5,2.5 0 0 0 2.5,2.5 z m 0,-1.0000005 a 1.5,1.5 0 0 1 -1.5,-1.4999995 1.5,1.5 0 0 1 1.5,-1.5 1.5,1.5 0 0 1 1.5,1.5 1.5,1.5 0 0 1 -1.5,1.4999995 z"
       id="path869"
       inkscape:connector-curvature="0" />
    <rect
       ry="0.0097560966"
       y="5.4906311"
       x="-21.737089"
       height="0.80000001"
       width="7"
       id="rect881"
       style="opacity:1;fill:#808080;fill-opacity:1;stroke:none;stroke-width:0.39757141;stroke-opacity:0.94117647" />
    <path
       inkscape:connector-curvature="0"
       id="path839-3"
       d="m -14.73709,5.490631 a 2.5,2.5 0 0 0 -2.5,2.5 2.5,2.5 0 0 0 2.5,2.500001 2.5,2.5 0 0 0 2.5,-2.500001 2.5,2.5 0 0 0 -2.5,-2.5 z m 0,1 a 1.5,1.5 0 0 1 1.5,1.5 1.5,1.5 0 0 1 -1.5,1.5000018 1.5,1.5 0 0 1 -1.5,-1.5000018 1.5,1.5 0 0 1 1.5,-1.5 z"
       style="opacity:1;fill:#808080;fill-opacity:1;stroke:none;stroke-width:1.50793087;stroke-opacity:0.94117647" />
    <g
       transform="translate(14.35373,0.6761784)"
       id="g1037"
       style="fill:#808080;fill-opacity:1">
      <path
         inkscape:connector-curvature="0"
         id="path1027"
         d="m -29.083984,6.8144531 a 0.5,0.5 0 0 0 -0.359375,0.1464844 0.5,0.5 0 0 0 0,0.7070313 0.5,0.5 0 0 0 0.707031,0 0.5,0.5 0 0 0 0,-0.7070313 0.5,0.5 0 0 0 -0.347656,-0.1464844 z m -0.03125,0.1503907 a 0.34999999,0.34999999 0 0 1 0.02539,0 0.34999999,0.34999999 0 0 1 0.34961,0.3496093 0.34999999,0.34999999 0 0 1 -0.34961,0.3496094 0.34999999,0.34999999 0 0 1 -0.351562,-0.3496094 0.34999999,0.34999999 0 0 1 0.326172,-0.3496093 z"
         style="opacity:1;fill:#808080;fill-opacity:1;stroke:none;stroke-width:0.45848155;stroke-opacity:0.94117647" />
      <path
         inkscape:connector-curvature="0"
         id="path1029"
         d="m -29.640625,7.2636719 c -0.0277,0 -0.05078,0.023081 -0.05078,0.050781 0,0.0277 0.02308,0.050781 0.05078,0.050781 h 0.205078 a 0.34999999,0.34999999 0 0 1 -0.0059,-0.050781 0.34999999,0.34999999 0 0 1 0.0039,-0.050781 z m 0.896484,0 a 0.34999999,0.34999999 0 0 1 0.0039,0.050781 0.34999999,0.34999999 0 0 1 -0.0039,0.050781 h 0.203125 c 0.0277,0 0.05078,-0.023081 0.05078,-0.050781 0,-0.0277 -0.02308,-0.050781 -0.05078,-0.050781 z"
         style="opacity:1;fill:#808080;fill-opacity:1;stroke:none;stroke-width:0.40649396;stroke-opacity:0.94117647" />
      <path
         inkscape:connector-curvature="0"
         id="path1031"
         d="m -29.089844,6.7148438 c -0.0277,0 -0.05078,0.021128 -0.05078,0.048828 v 0.203125 a 0.34999999,0.34999999 0 0 1 0.05078,-0.00195 0.34999999,0.34999999 0 0 1 0.04883,0.00391 V 6.7636719 c 0,-0.0277 -0.02113,-0.048828 -0.04883,-0.048828 z m -0.05078,0.9453124 v 0.2050782 c 0,0.0277 0.02308,0.048828 0.05078,0.048828 0.0277,0 0.04883,-0.021128 0.04883,-0.048828 v -0.203125 a 0.34999999,0.34999999 0 0 1 -0.04883,0.00195 0.34999999,0.34999999 0 0 1 -0.05078,-0.00391 z"
         style="opacity:1;fill:#808080;fill-opacity:1;stroke:none;stroke-width:0.40649396;stroke-opacity:0.94117647" />
      <path
         inkscape:connector-curvature="0"
         id="path1033"
         d="m -29.515625,6.890625 c -0.01959,0.019587 -0.01959,0.050726 0,0.070312 l 0.144531,0.1445313 a 0.34999999,0.34999999 0 0 1 0.07227,-0.070313 L -29.443359,6.890625 c -0.01959,-0.019587 -0.05268,-0.019587 -0.07227,0 z m 0.705078,0.6328125 a 0.34999999,0.34999999 0 0 1 -0.07031,0.070312 l 0.144531,0.1445312 c 0.01959,0.019587 0.05073,0.019587 0.07031,0 0.01959,-0.019587 0.01959,-0.050726 0,-0.070312 z"
         style="opacity:1;fill:#808080;fill-opacity:1;stroke:none;stroke-width:0.40649396;stroke-opacity:0.94117647" />
      <path
         inkscape:connector-curvature="0"
         id="path1035"
         d="m -28.736328,6.890625 -0.144531,0.1445312 a 0.34999999,0.34999999 0 0 1 0.07031,0.070313 l 0.144531,-0.1445313 c 0.01959,-0.019587 0.01959,-0.050726 0,-0.070312 -0.01959,-0.019587 -0.05072,-0.019587 -0.07031,-9e-7 z m -0.634766,0.6328125 -0.144531,0.1445313 c -0.01959,0.019587 -0.01959,0.050726 0,0.070312 0.01959,0.019587 0.05268,0.019587 0.07227,0 l 0.142578,-0.1425781 a 0.34999999,0.34999999 0 0 1 -0.07031,-0.072266 z"
         style="opacity:1;fill:#808080;fill-opacity:1;stroke:none;stroke-width:0.40649396;stroke-opacity:0.94117647" />
    </g>
    <g
       style="fill:#808080;fill-opacity:1"
       id="g1049"
       transform="translate(7.3537305,0.6761784)">
      <path
         style="opacity:1;fill:#808080;fill-opacity:1;stroke:none;stroke-width:0.45848155;stroke-opacity:0.94117647"
         d="m -29.083984,6.8144531 a 0.5,0.5 0 0 0 -0.359375,0.1464844 0.5,0.5 0 0 0 0,0.7070313 0.5,0.5 0 0 0 0.707031,0 0.5,0.5 0 0 0 0,-0.7070313 0.5,0.5 0 0 0 -0.347656,-0.1464844 z m -0.03125,0.1503907 a 0.34999999,0.34999999 0 0 1 0.02539,0 0.34999999,0.34999999 0 0 1 0.34961,0.3496093 0.34999999,0.34999999 0 0 1 -0.34961,0.3496094 0.34999999,0.34999999 0 0 1 -0.351562,-0.3496094 0.34999999,0.34999999 0 0 1 0.326172,-0.3496093 z"
         id="path1039"
         inkscape:connector-curvature="0" />
      <path
         style="opacity:1;fill:#808080;fill-opacity:1;stroke:none;stroke-width:0.40649396;stroke-opacity:0.94117647"
         d="m -29.640625,7.2636719 c -0.0277,0 -0.05078,0.023081 -0.05078,0.050781 0,0.0277 0.02308,0.050781 0.05078,0.050781 h 0.205078 a 0.34999999,0.34999999 0 0 1 -0.0059,-0.050781 0.34999999,0.34999999 0 0 1 0.0039,-0.050781 z m 0.896484,0 a 0.34999999,0.34999999 0 0 1 0.0039,0.050781 0.34999999,0.34999999 0 0 1 -0.0039,0.050781 h 0.203125 c 0.0277,0 0.05078,-0.023081 0.05078,-0.050781 0,-0.0277 -0.02308,-0.050781 -0.05078,-0.050781 z"
         id="path1041"
         inkscape:connector-curvature="0" />
      <path
         style="opacity:1;fill:#808080;fill-opacity:1;stroke:none;stroke-width:0.40649396;stroke-opacity:0.94117647"
         d="m -29.089844,6.7148438 c -0.0277,0 -0.05078,0.021128 -0.05078,0.048828 v 0.203125 a 0.34999999,0.34999999 0 0 1 0.05078,-0.00195 0.34999999,0.34999999 0 0 1 0.04883,0.00391 V 6.7636719 c 0,-0.0277 -0.02113,-0.048828 -0.04883,-0.048828 z m -0.05078,0.9453124 v 0.2050782 c 0,0.0277 0.02308,0.048828 0.05078,0.048828 0.0277,0 0.04883,-0.021128 0.04883,-0.048828 v -0.203125 a 0.34999999,0.34999999 0 0 1 -0.04883,0.00195 0.34999999,0.34999999 0 0 1 -0.05078,-0.00391 z"
         id="path1043"
         inkscape:connector-curvature="0" />
      <path
         style="opacity:1;fill:#808080;fill-opacity:1;stroke:none;stroke-width:0.40649396;stroke-opacity:0.94117647"
         d="m -29.515625,6.890625 c -0.01959,0.019587 -0.01959,0.050726 0,0.070312 l 0.144531,0.1445313 a 0.34999999,0.34999999 0 0 1 0.07227,-0.070313 L -29.443359,6.890625 c -0.01959,-0.019587 -0.05268,-0.019587 -0.07227,0 z m 0.705078,0.6328125 a 0.34999999,0.34999999 0 0 1 -0.07031,0.070312 l 0.144531,0.1445312 c 0.01959,0.019587 0.05073,0.019587 0.07031,0 0.01959,-0.019587 0.01959,-0.050726 0,-0.070312 z"
         id="path1045"
         inkscape:connector-curvature="0" />
      <path
         style="opacity:1;fill:#808080;fill-opacity:1;stroke:none;stroke-width:0.40649396;stroke-opacity:0.94117647"
         d="m -28.736328,6.890625 -0.144531,0.1445312 a 0.34999999,0.34999999 0 0 1 0.07031,0.070313 l 0.144531,-0.1445313 c 0.01959,-0.019587 0.01959,-0.050726 0,-0.070312 -0.01959,-0.019587 -0.05072,-0.019587 -0.07031,-9e-7 z m -0.634766,0.6328125 -0.144531,0.1445313 c -0.01959,0.019587 -0.01959,0.050726 0,0.070312 0.01959,0.019587 0.05268,0.019587 0.07227,0 l 0.142578,-0.1425781 a 0.34999999,0.34999999 0 0 1 -0.07031,-0.072266 z"
         id="path1047"
         inkscape:connector-curvature="0" />
    </g>
  </g>
</svg>
