<?xml version="1.0" encoding="UTF-8" standalone="no"?>
<svg
   xmlns:dc="http://purl.org/dc/elements/1.1/"
   xmlns:cc="http://creativecommons.org/ns#"
   xmlns:rdf="http://www.w3.org/1999/02/22-rdf-syntax-ns#"
   xmlns:svg="http://www.w3.org/2000/svg"
   xmlns="http://www.w3.org/2000/svg"
   xmlns:sodipodi="http://sodipodi.sourceforge.net/DTD/sodipodi-0.dtd"
   xmlns:inkscape="http://www.inkscape.org/namespaces/inkscape"
   height="16"
   width="16"
   version="1.1"
   id="svg4"
   sodipodi:docname="printer-symbolic.svg"
   inkscape:version="0.92.3 (2405546, 2018-03-11)">
  <metadata
     id="metadata10">
    <rdf:RDF>
      <cc:Work
         rdf:about="">
        <dc:format>image/svg+xml</dc:format>
        <dc:type
           rdf:resource="http://purl.org/dc/dcmitype/StillImage" />
        <dc:title></dc:title>
      </cc:Work>
    </rdf:RDF>
  </metadata>
  <defs
     id="defs8" />
  <sodipodi:namedview
     pagecolor="#ffffff"
     bordercolor="#666666"
     borderopacity="1"
     objecttolerance="10"
     gridtolerance="10"
     guidetolerance="10"
     inkscape:pageopacity="0"
     inkscape:pageshadow="2"
     inkscape:window-width="1920"
     inkscape:window-height="1539"
     id="namedview6"
     showgrid="false"
     inkscape:zoom="14.75"
     inkscape:cx="-21.630738"
     inkscape:cy="5.1236334"
     inkscape:window-x="1920"
     inkscape:window-y="27"
     inkscape:window-maximized="0"
     inkscape:current-layer="svg4" />
  <g
     id="g840">
    <path
       inkscape:connector-curvature="0"
       id="rect895-3"
       d="M 2.75,4.8611297 C 2.34101,4.9121757 2.069249,5.187628 2,5.5285816 L 1,10.451425 C 0.92357,10.827713 1.389093,11.13887 1.873047,11.13887 H 2.75 V 7.6862673 Z m 10.5,0 V 7.6862673 11.13887 h 0.876953 c 0.483954,0 0.949477,-0.311157 0.873047,-0.687445 L 14,5.5285816 C 13.93082,5.1879603 13.658309,4.9125868 13.25,4.8611297 Z"
       style="opacity:1;fill:#808080;fill-opacity:1;stroke:none;stroke-width:0.85596955;stroke-linecap:butt;stroke-linejoin:bevel;stroke-miterlimit:4;stroke-dasharray:none;stroke-opacity:1;paint-order:fill markers stroke" />
    <path
       id="rect895"
       d="M 1.873047,3.9999999 C 1.389093,3.9999999 1,4.3890927 1,4.8730468 V 11.126953 C 1,11.610907 1.389093,12 1.873047,12 H 14.126953 C 14.610907,12 15,11.610907 15,11.126953 V 4.8730468 C 15,4.3890927 14.610907,3.9999999 14.126953,3.9999999 Z m 0.326172,1.0253906 a 0.25,0.25 0 0 1 0.01758,0 0.25,0.25 0 0 1 0.25,0.25 0.25,0.25 0 0 1 -0.25,0.2500005 0.25,0.25 0 0 1 -0.25,-0.2500005 0.25,0.25 0 0 1 0.232422,-0.25 z m 0.837891,0 a 0.25,0.25 0 0 1 0.01758,0 0.25,0.25 0 0 1 0.25,0.25 0.25,0.25 0 0 1 -0.25,0.2500005 0.25,0.25 0 0 1 -0.25,-0.2500005 0.25,0.25 0 0 1 0.232422,-0.25 z m 0.857421,0 h 1 c 0.1385,0 0.25,0.1115 0.25,0.25 0,0.1384995 -0.1115,0.2500005 -0.25,0.2500005 h -1 c -0.1385,0 -0.249999,-0.111501 -0.25,-0.2500005 0,-0.1385 0.1115,-0.25 0.25,-0.25 z"
       style="opacity:1;fill:#808080;fill-opacity:1;stroke:none;stroke-width:0.96462417;stroke-linecap:butt;stroke-linejoin:bevel;stroke-miterlimit:4;stroke-dasharray:none;stroke-opacity:1;paint-order:fill markers stroke"
       inkscape:connector-curvature="0" />
    <path
       inkscape:connector-curvature="0"
       id="rect1133"
       d="M 3.876953,4.9999998e-8 C 3.251928,4.9999998e-8 2.75,0.50192915 2.75,1.1269532 v 3.9999999 5.7460939 4 C 2.75,15.498072 3.251928,16 3.876953,16 h 8.244141 C 12.74612,16 13.25,15.498072 13.25,14.873047 v -4 -5.746094 -4 C 13.25,0.50192925 12.746119,4.9999999e-8 12.121094,4.9999999e-8 Z M 4.625,12.236328 h 6.75 c 0.20775,0 0.375,0.16725 0.375,0.375 0,0.20775 -0.16725,0.375 -0.375,0.375 h -6.75 c -0.207751,0 -0.375,-0.16725 -0.375,-0.375 0,-0.20775 0.167249,-0.375 0.375,-0.375 z m 0,1.5 h 6.75 c 0.20775,0 0.375,0.167249 0.375,0.375 0,0.207749 -0.16725,0.375 -0.375,0.375 h -6.75 c -0.207751,0 -0.375,-0.167251 -0.375,-0.375 0,-0.207751 0.167249,-0.375 0.375,-0.375 z"
       style="display:inline;opacity:0.5;fill:#808080;fill-opacity:1;stroke:none;stroke-width:0.07319346;stroke-linecap:butt;stroke-linejoin:bevel;stroke-miterlimit:4;stroke-dasharray:none;stroke-opacity:1;paint-order:fill markers stroke" />
  </g>
</svg>
