<?xml version="1.0" encoding="UTF-8" standalone="no"?>
<svg
   xmlns:dc="http://purl.org/dc/elements/1.1/"
   xmlns:cc="http://creativecommons.org/ns#"
   xmlns:rdf="http://www.w3.org/1999/02/22-rdf-syntax-ns#"
   xmlns:svg="http://www.w3.org/2000/svg"
   xmlns="http://www.w3.org/2000/svg"
   xmlns:sodipodi="http://sodipodi.sourceforge.net/DTD/sodipodi-0.dtd"
   xmlns:inkscape="http://www.inkscape.org/namespaces/inkscape"
   height="16"
   width="16"
   version="1.1"
   id="svg8"
   sodipodi:docname="video-display-symbolic.svg"
   inkscape:version="0.92.3 (2405546, 2018-03-11)">
  <metadata
     id="metadata14">
    <rdf:RDF>
      <cc:Work
         rdf:about="">
        <dc:format>image/svg+xml</dc:format>
        <dc:type
           rdf:resource="http://purl.org/dc/dcmitype/StillImage" />
        <dc:title></dc:title>
      </cc:Work>
    </rdf:RDF>
  </metadata>
  <defs
     id="defs12" />
  <sodipodi:namedview
     pagecolor="#ffffff"
     bordercolor="#666666"
     borderopacity="1"
     objecttolerance="10"
     gridtolerance="10"
     guidetolerance="10"
     inkscape:pageopacity="0"
     inkscape:pageshadow="2"
     inkscape:window-width="1920"
     inkscape:window-height="1539"
     id="namedview10"
     showgrid="false"
     inkscape:zoom="14.75"
     inkscape:cx="2.3389831"
     inkscape:cy="8"
     inkscape:window-x="1920"
     inkscape:window-y="27"
     inkscape:window-maximized="0"
     inkscape:current-layer="svg8" />
  <g
     id="g867"
     transform="translate(29.830508,3.7288131)">
    <path
       inkscape:connector-curvature="0"
       id="rect828"
       d="m -27.525821,-3.228813 c -1.277017,0 -2.304687,1.02767 -2.304687,2.304687 v 7.3906252 c 0,1.277017 1.02767,2.3046876 2.304687,2.3046876 h 11.390625 c 1.277017,0 2.304687,-1.0276706 2.304687,-2.3046876 V -0.924126 c 0,-1.277017 -1.02767,-2.304687 -2.304687,-2.304687 z m 0.798828,1 h 9.792969 c 1.064181,0 1.921875,0.857694 1.921875,1.921875 v 6.1582029 c 0,1.0641807 -0.857694,1.9199219 -1.921875,1.9199219 h -9.792969 c -1.06418,0 -1.921875,-0.8557412 -1.921875,-1.9199219 V -0.306938 c 0,-1.064181 0.857695,-1.921875 1.921875,-1.921875 z"
       style="opacity:1;fill:#808080;fill-opacity:1;stroke:none;stroke-width:0.71170908;stroke-opacity:0.94117647" />
    <g
       transform="translate(4.2827726,15.993843)"
       id="g869">
      <g
         id="g864">
        <rect
           ry="0"
           y="-7.2226562"
           x="-27.113281"
           height="2"
           width="2"
           id="rect854"
           style="opacity:1;fill:#808080;fill-opacity:1;stroke:none;stroke-width:0.26510641;stroke-opacity:0.94117647" />
        <rect
           y="-5.2226562"
           x="-31.113281"
           height="1"
           width="10"
           id="rect860"
           style="opacity:1;fill:#808080;fill-opacity:1;stroke:none;stroke-width:0.38835412;stroke-opacity:0.94117647" />
      </g>
    </g>
  </g>
</svg>
