<?xml version="1.0" encoding="UTF-8" standalone="no"?>
<svg
   xmlns:dc="http://purl.org/dc/elements/1.1/"
   xmlns:cc="http://creativecommons.org/ns#"
   xmlns:rdf="http://www.w3.org/1999/02/22-rdf-syntax-ns#"
   xmlns:svg="http://www.w3.org/2000/svg"
   xmlns="http://www.w3.org/2000/svg"
   xmlns:sodipodi="http://sodipodi.sourceforge.net/DTD/sodipodi-0.dtd"
   xmlns:inkscape="http://www.inkscape.org/namespaces/inkscape"
   height="16"
   width="16"
   version="1.1"
   id="svg4"
   sodipodi:docname="printer-warning-symbolic.svg"
   inkscape:version="0.92.3 (2405546, 2018-03-11)">
  <metadata
     id="metadata10">
    <rdf:RDF>
      <cc:Work
         rdf:about="">
        <dc:format>image/svg+xml</dc:format>
        <dc:type
           rdf:resource="http://purl.org/dc/dcmitype/StillImage" />
      </cc:Work>
    </rdf:RDF>
  </metadata>
  <defs
     id="defs8" />
  <sodipodi:namedview
     pagecolor="#ffffff"
     bordercolor="#666666"
     borderopacity="1"
     objecttolerance="10"
     gridtolerance="10"
     guidetolerance="10"
     inkscape:pageopacity="0"
     inkscape:pageshadow="2"
     inkscape:window-width="1920"
     inkscape:window-height="1539"
     id="namedview6"
     showgrid="false"
     inkscape:zoom="29.5"
     inkscape:cx="0.94875493"
     inkscape:cy="13.690656"
     inkscape:window-x="0"
     inkscape:window-y="27"
     inkscape:window-maximized="0"
     inkscape:current-layer="svg4" />
  <path
     style="opacity:1;fill:#808080;fill-opacity:1;stroke:none;stroke-width:0.85596955;stroke-linecap:butt;stroke-linejoin:bevel;stroke-miterlimit:4;stroke-dasharray:none;stroke-opacity:1;paint-order:fill markers stroke"
     d="m 2.7499997,2.8273305 c -0.4089897,0.051046 -0.6807506,0.3264983 -0.75,0.6674519 L 0.99999966,8.4176262 C 0.92357376,8.793914 1.3890926,9.1050712 1.8730466,9.1050712 H 2.7499997 V 5.652468 Z m 10.5000003,0 V 5.652468 9.1050712 h 0.876953 c 0.483954,0 0.949477,-0.3111572 0.873047,-0.687445 L 14,3.4947824 C 13.93082,3.1541611 13.658309,2.8787876 13.25,2.8273305 Z"
     id="rect895-3"
     inkscape:connector-curvature="0" />
  <path
     style="opacity:1;fill:#808080;fill-opacity:1;stroke:none;stroke-width:0.96462417;stroke-linecap:butt;stroke-linejoin:bevel;stroke-miterlimit:4;stroke-dasharray:none;stroke-opacity:1;paint-order:fill markers stroke"
     d="M 1.8730469 4 C 1.3890929 4 1 4.3890929 1 4.8730469 L 1 11.126953 C 1 11.610907 1.3890929 12 1.8730469 12 L 14.126953 12 C 14.610907 12 15 11.610907 15 11.126953 L 15 4.8730469 C 15 4.3890929 14.610907 4 14.126953 4 L 1.8730469 4 z M 7.9667969 5 C 8.4919366 5 8.8944985 5.1364132 9.1738281 5.4101562 C 9.4531577 5.6783127 9.5917969 6.0201859 9.5917969 6.4335938 C 9.5917969 6.6402977 9.5550476 6.8265429 9.4824219 6.9941406 C 9.4153828 7.1561518 9.3288015 7.29897 9.2226562 7.421875 C 9.1220976 7.5391934 8.9856844 7.6778326 8.8125 7.8398438 C 8.5611033 8.0744806 8.3748582 8.2907974 8.2519531 8.4863281 C 8.1290481 8.6762723 8.0750371 8.9101235 8.0917969 9.1894531 L 7.4980469 9.1894531 C 7.4868737 9.0777213 7.4804687 8.9997709 7.4804688 8.9550781 C 7.4804687 8.6366424 7.5453365 8.3746727 7.6738281 8.1679688 C 7.8023197 7.9612648 7.9885649 7.7382703 8.234375 7.4980469 C 8.4410789 7.2857564 8.590302 7.1125938 8.6796875 6.9785156 C 8.7746596 6.8388508 8.8203125 6.6701401 8.8203125 6.4746094 C 8.8203125 6.2064529 8.7401362 6.005172 8.578125 5.8710938 C 8.4161138 5.7314289 8.1931193 5.6621094 7.9082031 5.6621094 C 7.690326 5.6621094 7.489045 5.7010846 7.3046875 5.7792969 C 7.1259165 5.8575092 6.9224097 5.9722089 6.6933594 6.1230469 L 6.4082031 5.5117188 C 6.8830635 5.1709366 7.402551 5 7.9667969 5 z M 2.1992188 5.0253906 A 0.25 0.25 0 0 1 2.2167969 5.0253906 A 0.25 0.25 0 0 1 2.4667969 5.2753906 A 0.25 0.25 0 0 1 2.2167969 5.5253906 A 0.25 0.25 0 0 1 1.9667969 5.2753906 A 0.25 0.25 0 0 1 2.1992188 5.0253906 z M 3.0371094 5.0253906 A 0.25 0.25 0 0 1 3.0546875 5.0253906 A 0.25 0.25 0 0 1 3.3046875 5.2753906 A 0.25 0.25 0 0 1 3.0546875 5.5253906 A 0.25 0.25 0 0 1 2.8046875 5.2753906 A 0.25 0.25 0 0 1 3.0371094 5.0253906 z M 3.8945312 5.0253906 L 4.8945312 5.0253906 C 5.0330313 5.0253906 5.1445312 5.1368906 5.1445312 5.2753906 C 5.1445312 5.4138906 5.0330313 5.5253906 4.8945312 5.5253906 L 3.8945312 5.5253906 C 3.7560312 5.5253906 3.6445315 5.4138906 3.6445312 5.2753906 C 3.6445312 5.1368906 3.7560312 5.0253906 3.8945312 5.0253906 z M 7.8320312 9.9785156 C 7.9828692 9.9785156 8.1084257 10.028348 8.2089844 10.128906 C 8.309543 10.229465 8.359375 10.352795 8.359375 10.498047 C 8.359375 10.637712 8.309543 10.756863 8.2089844 10.857422 C 8.1084257 10.952394 7.9828692 11 7.8320312 11 C 7.6811933 11 7.5556368 10.952394 7.4550781 10.857422 C 7.3601061 10.756863 7.3125 10.637712 7.3125 10.498047 C 7.3125 10.352795 7.3601061 10.229465 7.4550781 10.128906 C 7.5556368 10.028348 7.6811933 9.9785156 7.8320312 9.9785156 z "
     id="rect895" />
  <path
     style="display:inline;opacity:0.5;fill:#808080;fill-opacity:1;stroke:none;stroke-width:0.07319346;stroke-linecap:butt;stroke-linejoin:bevel;stroke-miterlimit:4;stroke-dasharray:none;stroke-opacity:1;paint-order:fill markers stroke"
     d="M 3.8769531 0 C 3.2519281 0 2.75 0.50192907 2.75 1.1269531 L 2.75 5.1269531 L 2.75 10.873047 L 2.75 14.873047 C 2.75 15.498072 3.2519281 16 3.8769531 16 L 12.121094 16 C 12.74612 16 13.25 15.498072 13.25 14.873047 L 13.25 10.873047 L 13.25 5.1269531 L 13.25 1.1269531 C 13.25 0.50192928 12.746119 1.4802974e-16 12.121094 0 L 3.8769531 0 z M 7.9667969 5 C 8.4919366 5 8.8944985 5.1364132 9.1738281 5.4101562 C 9.4531577 5.6783127 9.5917969 6.0201859 9.5917969 6.4335938 C 9.5917969 6.6402977 9.5550476 6.8265429 9.4824219 6.9941406 C 9.4153828 7.1561518 9.3288015 7.29897 9.2226562 7.421875 C 9.1220976 7.5391934 8.9856844 7.6778326 8.8125 7.8398438 C 8.5611033 8.0744806 8.3748582 8.2907974 8.2519531 8.4863281 C 8.1290481 8.6762723 8.0750371 8.9101235 8.0917969 9.1894531 L 7.4980469 9.1894531 C 7.4868737 9.0777213 7.4804687 8.9997709 7.4804688 8.9550781 C 7.4804687 8.6366424 7.5453365 8.3746727 7.6738281 8.1679688 C 7.8023197 7.9612648 7.9885649 7.7382703 8.234375 7.4980469 C 8.4410789 7.2857564 8.590302 7.1125938 8.6796875 6.9785156 C 8.7746596 6.8388508 8.8203125 6.6701401 8.8203125 6.4746094 C 8.8203125 6.2064529 8.7401362 6.005172 8.578125 5.8710938 C 8.4161138 5.7314289 8.1931193 5.6621094 7.9082031 5.6621094 C 7.690326 5.6621094 7.489045 5.7010846 7.3046875 5.7792969 C 7.1259165 5.8575092 6.9224097 5.9722089 6.6933594 6.1230469 L 6.4082031 5.5117188 C 6.8830635 5.1709366 7.402551 5 7.9667969 5 z M 7.8320312 9.9785156 C 7.9828692 9.9785156 8.1084257 10.028348 8.2089844 10.128906 C 8.309543 10.229465 8.359375 10.352795 8.359375 10.498047 C 8.359375 10.637712 8.309543 10.756863 8.2089844 10.857422 C 8.1084257 10.952394 7.9828692 11 7.8320312 11 C 7.6811933 11 7.5556368 10.952394 7.4550781 10.857422 C 7.3601061 10.756863 7.3125 10.637712 7.3125 10.498047 C 7.3125 10.352795 7.3601061 10.229465 7.4550781 10.128906 C 7.5556368 10.028348 7.6811933 9.9785156 7.8320312 9.9785156 z M 4.625 12.236328 L 11.375 12.236328 C 11.58275 12.236328 11.75 12.403578 11.75 12.611328 C 11.75 12.819078 11.58275 12.986328 11.375 12.986328 L 4.625 12.986328 C 4.417249 12.986328 4.25 12.819078 4.25 12.611328 C 4.25 12.403578 4.417249 12.236328 4.625 12.236328 z M 4.625 13.736328 L 11.375 13.736328 C 11.58275 13.736328 11.75 13.903577 11.75 14.111328 C 11.75 14.319077 11.58275 14.486328 11.375 14.486328 L 4.625 14.486328 C 4.417249 14.486328 4.25 14.319077 4.25 14.111328 C 4.25 13.903577 4.417249 13.736328 4.625 13.736328 z "
     id="rect1133" />
</svg>
